<?xml version="1.0" encoding="utf-8" standalone="no"?>
<!DOCTYPE svg PUBLIC "-//W3C//DTD SVG 1.1//EN"
  "http://www.w3.org/Graphics/SVG/1.1/DTD/svg11.dtd">
<svg xmlns:xlink="http://www.w3.org/1999/xlink" width="396pt" height="396pt" viewBox="0 0 396 396" xmlns="http://www.w3.org/2000/svg" version="1.1">
 <metadata>
  <rdf:RDF xmlns:dc="http://purl.org/dc/elements/1.1/" xmlns:cc="http://creativecommons.org/ns#" xmlns:rdf="http://www.w3.org/1999/02/22-rdf-syntax-ns#">
   <cc:Work>
    <dc:type rdf:resource="http://purl.org/dc/dcmitype/StillImage"/>
    <dc:date>2024-11-19T13:44:26.863293</dc:date>
    <dc:format>image/svg+xml</dc:format>
    <dc:creator>
     <cc:Agent>
      <dc:title>Matplotlib v3.9.2, https://matplotlib.org/</dc:title>
     </cc:Agent>
    </dc:creator>
   </cc:Work>
  </rdf:RDF>
 </metadata>
 <defs>
  <style type="text/css">*{stroke-linejoin: round; stroke-linecap: butt}</style>
 </defs>
 <g id="figure_1">
  <g id="patch_1">
   <path d="M 0 396 
L 396 396 
L 396 0 
L 0 0 
z
" style="fill: #ffffff"/>
  </g>
  <g id="axes_1">
   <g id="patch_2">
    <path d="M 64.08 164.88 
L 219.24 164.88 
L 219.24 30.984 
L 64.08 30.984 
z
" style="fill: #ffffff"/>
   </g>
   <g id="matplotlib.axis_1">
    <g id="xtick_1">
     <g id="line2d_1">
      <defs>
       <path id="m99ba9c01e3" d="M 0 0 
L 0 3.5 
" style="stroke: #000000; stroke-width: 0.8"/>
      </defs>
      <g>
       <use xlink:href="#m99ba9c01e3" x="80.011628" y="164.88" style="stroke: #000000; stroke-width: 0.8"/>
      </g>
     </g>
    </g>
    <g id="xtick_2">
     <g id="line2d_2">
      <g>
       <use xlink:href="#m99ba9c01e3" x="118.099372" y="164.88" style="stroke: #000000; stroke-width: 0.8"/>
      </g>
     </g>
    </g>
    <g id="xtick_3">
     <g id="line2d_3">
      <g>
       <use xlink:href="#m99ba9c01e3" x="156.187117" y="164.88" style="stroke: #000000; stroke-width: 0.8"/>
      </g>
     </g>
    </g>
    <g id="xtick_4">
     <g id="line2d_4">
      <g>
       <use xlink:href="#m99ba9c01e3" x="194.274861" y="164.88" style="stroke: #000000; stroke-width: 0.8"/>
      </g>
     </g>
    </g>
   </g>
   <g id="matplotlib.axis_2"/>
   <g id="line2d_5">
    <path d="M 64.08 164.800407 
L 78.0444 164.694284 
L 78.0444 164.667753 
L 81.9234 164.56163 
L 81.9234 164.535099 
L 83.475 164.455506 
L 83.475 164.402444 
L 85.0266 164.322852 
L 85.0266 164.216728 
L 86.5782 164.110605 
L 86.5782 163.97795 
L 87.354 163.97795 
L 87.354 163.845296 
L 88.1298 163.845296 
L 88.1298 163.686111 
L 88.9056 163.686111 
L 88.9056 163.526926 
L 89.6814 163.526926 
L 89.6814 163.341209 
L 90.4572 163.341209 
L 90.4572 163.128963 
L 91.233 163.128963 
L 91.233 162.890185 
L 92.0088 162.890185 
L 92.0088 162.624876 
L 92.7846 162.624876 
L 92.7846 162.333036 
L 93.5604 162.333036 
L 93.5604 162.014666 
L 94.3362 162.014666 
L 94.3362 161.669765 
L 95.112 161.669765 
L 95.112 161.271802 
L 95.8878 161.271802 
L 95.8878 160.820777 
L 96.6636 160.820777 
L 96.6636 160.343221 
L 97.4394 160.343221 
L 97.4394 159.759542 
L 98.2152 159.759542 
L 98.2152 159.149332 
L 98.991 159.149332 
L 98.991 158.432998 
L 99.7668 158.432998 
L 99.7668 157.610541 
L 100.5426 157.610541 
L 100.5426 156.735023 
L 101.3184 156.735023 
L 101.3184 155.75338 
L 102.0942 155.75338 
L 102.0942 154.665615 
L 102.87 154.665615 
L 102.87 153.524787 
L 103.6458 153.524787 
L 103.6458 152.251305 
L 104.4216 152.251305 
L 104.4216 150.898231 
L 105.1974 150.898231 
L 105.1974 149.465564 
L 105.9732 149.465564 
L 105.9732 147.926773 
L 106.749 147.926773 
L 106.749 146.255329 
L 107.5248 146.255329 
L 107.5248 144.47776 
L 108.3006 144.47776 
L 108.3006 142.567537 
L 109.0764 142.567537 
L 109.0764 140.52466 
L 109.8522 140.52466 
L 109.8522 138.322598 
L 110.628 138.322598 
L 110.628 135.93482 
L 111.4038 135.93482 
L 111.4038 133.414387 
L 112.1796 133.414387 
L 112.1796 130.681707 
L 112.9554 130.681707 
L 112.9554 127.816373 
L 113.7312 127.816373 
L 113.7312 124.791854 
L 114.507 124.791854 
L 114.507 121.63468 
L 115.2828 121.63468 
L 115.2828 118.371383 
L 116.0586 118.371383 
L 116.0586 115.055024 
L 116.8344 115.055024 
L 116.8344 111.659073 
L 117.6102 111.659073 
L 117.6102 108.23659 
L 118.386 108.23659 
L 118.386 104.761046 
L 119.1618 104.761046 
L 119.1618 101.23244 
L 119.9376 101.23244 
L 119.9376 97.624242 
L 120.7134 97.624242 
L 120.7134 93.962982 
L 121.4892 93.962982 
L 121.4892 90.24866 
L 122.265 90.24866 
L 122.265 86.454745 
L 123.0408 86.454745 
L 123.0408 82.660831 
L 123.8166 82.660831 
L 123.8166 78.866916 
L 124.5924 78.866916 
L 124.5924 75.126063 
L 125.3682 75.126063 
L 125.3682 71.491334 
L 126.144 71.491334 
L 126.144 68.01579 
L 126.9198 68.01579 
L 126.9198 64.699431 
L 127.6956 64.699431 
L 127.6956 61.62185 
L 128.4714 61.62185 
L 128.4714 58.783047 
L 129.2472 58.783047 
L 129.2472 56.209552 
L 130.023 56.209552 
L 130.023 53.874836 
L 130.7988 53.874836 
L 130.7988 51.831958 
L 131.5746 51.831958 
L 131.5746 50.027859 
L 132.3504 50.027859 
L 132.3504 48.489069 
L 133.1262 48.489069 
L 133.1262 47.162525 
L 133.902 47.162525 
L 133.902 46.074759 
L 134.6778 46.074759 
L 134.6778 45.17271 
L 135.4536 45.17271 
L 135.4536 44.429845 
L 136.2294 44.429845 
L 136.2294 43.846166 
L 137.0052 43.846166 
L 137.0052 43.421672 
L 137.781 43.421672 
L 137.781 43.182895 
L 139.3326 43.156364 
L 139.3326 43.368611 
L 140.1084 43.368611 
L 140.1084 43.899228 
L 140.8842 43.899228 
L 140.8842 44.748216 
L 141.66 44.748216 
L 141.66 45.942105 
L 142.4358 45.942105 
L 142.4358 47.507426 
L 143.2116 47.507426 
L 143.2116 49.417649 
L 143.9874 49.417649 
L 143.9874 51.672773 
L 144.7632 51.672773 
L 144.7632 54.193206 
L 145.539 54.193206 
L 145.539 56.978947 
L 146.3148 56.978947 
L 146.3148 59.950405 
L 147.0906 59.950405 
L 147.0906 63.107579 
L 147.8664 63.107579 
L 147.8664 66.344345 
L 148.6422 66.344345 
L 148.6422 69.634173 
L 149.418 69.634173 
L 149.418 72.89747 
L 150.1938 72.89747 
L 150.1938 76.081175 
L 150.9696 76.081175 
L 150.9696 79.238348 
L 151.7454 79.238348 
L 151.7454 82.315929 
L 152.5212 82.315929 
L 152.5212 85.340449 
L 153.297 85.340449 
L 153.297 88.391499 
L 154.0728 88.391499 
L 154.0728 91.495611 
L 154.8486 91.495611 
L 154.8486 94.652784 
L 155.6244 94.652784 
L 155.6244 97.836489 
L 156.4002 97.836489 
L 156.4002 101.099786 
L 157.176 101.099786 
L 157.176 104.336552 
L 157.9518 104.336552 
L 157.9518 107.546788 
L 158.7276 107.546788 
L 158.7276 110.6509 
L 159.5034 110.6509 
L 159.5034 113.648888 
L 160.2792 113.648888 
L 160.2792 116.514222 
L 161.055 116.514222 
L 161.055 119.246902 
L 161.8308 119.246902 
L 161.8308 121.846927 
L 162.6066 121.846927 
L 162.6066 124.36736 
L 163.3824 124.36736 
L 163.3824 126.8082 
L 164.1582 126.8082 
L 164.1582 129.195978 
L 164.934 129.195978 
L 164.934 131.504164 
L 165.7098 131.504164 
L 165.7098 133.759288 
L 166.4856 133.759288 
L 166.4856 135.93482 
L 167.2614 135.93482 
L 167.2614 138.030759 
L 168.0372 138.030759 
L 168.0372 140.020574 
L 168.813 140.020574 
L 168.813 141.904266 
L 169.5888 141.904266 
L 169.5888 143.655303 
L 170.3646 143.655303 
L 170.3646 145.326748 
L 171.1404 145.326748 
L 171.1404 146.892069 
L 171.9162 146.892069 
L 171.9162 148.377798 
L 172.692 148.377798 
L 172.692 149.757404 
L 173.4678 149.757404 
L 173.4678 151.057416 
L 174.2436 151.057416 
L 174.2436 152.277836 
L 175.0194 152.277836 
L 175.0194 153.418664 
L 175.7952 153.418664 
L 175.7952 154.453368 
L 176.571 154.453368 
L 176.571 155.43501 
L 177.3468 155.43501 
L 177.3468 156.310529 
L 178.1226 156.310529 
L 178.1226 157.132986 
L 178.8984 157.132986 
L 178.8984 157.87585 
L 179.6742 157.87585 
L 179.6742 158.539122 
L 180.45 158.539122 
L 180.45 159.149332 
L 181.2258 159.149332 
L 181.2258 159.70648 
L 182.0016 159.70648 
L 182.0016 160.184036 
L 182.7774 160.184036 
L 182.7774 160.635061 
L 183.5532 160.635061 
L 183.5532 161.006493 
L 184.329 161.006493 
L 184.329 161.377925 
L 185.1048 161.377925 
L 185.1048 161.696295 
L 185.8806 161.696295 
L 185.8806 161.988135 
L 186.6564 161.988135 
L 186.6564 162.253444 
L 187.4322 162.253444 
L 187.4322 162.518752 
L 188.208 162.518752 
L 188.208 162.784061 
L 188.9838 162.784061 
L 188.9838 162.996308 
L 189.7596 162.996308 
L 189.7596 163.208555 
L 190.5354 163.208555 
L 190.5354 163.420802 
L 191.3112 163.420802 
L 191.3112 163.579987 
L 192.087 163.579987 
L 192.087 163.712642 
L 192.8628 163.712642 
L 192.8628 163.845296 
L 194.4144 163.95142 
L 194.4144 164.031012 
L 195.966 164.137136 
L 195.966 164.190197 
L 197.5176 164.26979 
L 197.5176 164.322852 
L 199.0692 164.402444 
L 199.0692 164.455506 
L 201.3966 164.56163 
L 201.3966 164.614691 
L 204.4998 164.720815 
L 204.4998 164.747346 
L 219.24 164.853469 
L 219.24 164.853469 
" clip-path="url(#p6a53198e9e)" style="fill: none; stroke: #ff0000; stroke-width: 1.5; stroke-linecap: square"/>
   </g>
   <g id="patch_3">
    <path d="M 64.08 164.88 
L 64.08 30.984 
" style="fill: none; stroke: #000000; stroke-width: 0.8; stroke-linejoin: miter; stroke-linecap: square"/>
   </g>
   <g id="patch_4">
    <path d="M 219.24 164.88 
L 219.24 30.984 
" style="fill: none; stroke: #000000; stroke-width: 0.8; stroke-linejoin: miter; stroke-linecap: square"/>
   </g>
   <g id="patch_5">
    <path d="M 64.08 164.88 
L 219.24 164.88 
" style="fill: none; stroke: #000000; stroke-width: 0.8; stroke-linejoin: miter; stroke-linecap: square"/>
   </g>
   <g id="patch_6">
    <path d="M 64.08 30.984 
L 219.24 30.984 
" style="fill: none; stroke: #000000; stroke-width: 0.8; stroke-linejoin: miter; stroke-linecap: square"/>
   </g>
   <g id="text_1">
    <!-- $\Omega_{2,0}$ = ${0.3014}_{-0.0165}^{+0.0174}$ -->
    <g transform="translate(70.96 24.984) scale(0.14 -0.14)">
     <defs>
      <path id="DejaVuSans-3a9" d="M 4647 556 
L 4647 0 
L 2772 0 
L 2772 556 
Q 3325 859 3634 1378 
Q 3944 1897 3944 2528 
Q 3944 3278 3531 3731 
Q 3119 4184 2444 4184 
Q 1769 4184 1355 3729 
Q 941 3275 941 2528 
Q 941 1897 1250 1378 
Q 1563 859 2119 556 
L 2119 0 
L 244 0 
L 244 556 
L 1241 556 
Q 747 991 519 1456 
Q 294 1922 294 2497 
Q 294 3491 894 4106 
Q 1491 4722 2444 4722 
Q 3391 4722 3994 4106 
Q 4594 3494 4594 2528 
Q 4594 1922 4372 1459 
Q 4150 997 3647 556 
L 4647 556 
z
" transform="scale(0.015625)"/>
      <path id="DejaVuSans-32" d="M 1228 531 
L 3431 531 
L 3431 0 
L 469 0 
L 469 531 
Q 828 903 1448 1529 
Q 2069 2156 2228 2338 
Q 2531 2678 2651 2914 
Q 2772 3150 2772 3378 
Q 2772 3750 2511 3984 
Q 2250 4219 1831 4219 
Q 1534 4219 1204 4116 
Q 875 4013 500 3803 
L 500 4441 
Q 881 4594 1212 4672 
Q 1544 4750 1819 4750 
Q 2544 4750 2975 4387 
Q 3406 4025 3406 3419 
Q 3406 3131 3298 2873 
Q 3191 2616 2906 2266 
Q 2828 2175 2409 1742 
Q 1991 1309 1228 531 
z
" transform="scale(0.015625)"/>
      <path id="DejaVuSans-2c" d="M 750 794 
L 1409 794 
L 1409 256 
L 897 -744 
L 494 -744 
L 750 256 
L 750 794 
z
" transform="scale(0.015625)"/>
      <path id="DejaVuSans-30" d="M 2034 4250 
Q 1547 4250 1301 3770 
Q 1056 3291 1056 2328 
Q 1056 1369 1301 889 
Q 1547 409 2034 409 
Q 2525 409 2770 889 
Q 3016 1369 3016 2328 
Q 3016 3291 2770 3770 
Q 2525 4250 2034 4250 
z
M 2034 4750 
Q 2819 4750 3233 4129 
Q 3647 3509 3647 2328 
Q 3647 1150 3233 529 
Q 2819 -91 2034 -91 
Q 1250 -91 836 529 
Q 422 1150 422 2328 
Q 422 3509 836 4129 
Q 1250 4750 2034 4750 
z
" transform="scale(0.015625)"/>
      <path id="DejaVuSans-20" transform="scale(0.015625)"/>
      <path id="DejaVuSans-3d" d="M 678 2906 
L 4684 2906 
L 4684 2381 
L 678 2381 
L 678 2906 
z
M 678 1631 
L 4684 1631 
L 4684 1100 
L 678 1100 
L 678 1631 
z
" transform="scale(0.015625)"/>
      <path id="DejaVuSans-2e" d="M 684 794 
L 1344 794 
L 1344 0 
L 684 0 
L 684 794 
z
" transform="scale(0.015625)"/>
      <path id="DejaVuSans-33" d="M 2597 2516 
Q 3050 2419 3304 2112 
Q 3559 1806 3559 1356 
Q 3559 666 3084 287 
Q 2609 -91 1734 -91 
Q 1441 -91 1130 -33 
Q 819 25 488 141 
L 488 750 
Q 750 597 1062 519 
Q 1375 441 1716 441 
Q 2309 441 2620 675 
Q 2931 909 2931 1356 
Q 2931 1769 2642 2001 
Q 2353 2234 1838 2234 
L 1294 2234 
L 1294 2753 
L 1863 2753 
Q 2328 2753 2575 2939 
Q 2822 3125 2822 3475 
Q 2822 3834 2567 4026 
Q 2313 4219 1838 4219 
Q 1578 4219 1281 4162 
Q 984 4106 628 3988 
L 628 4550 
Q 988 4650 1302 4700 
Q 1616 4750 1894 4750 
Q 2613 4750 3031 4423 
Q 3450 4097 3450 3541 
Q 3450 3153 3228 2886 
Q 3006 2619 2597 2516 
z
" transform="scale(0.015625)"/>
      <path id="DejaVuSans-31" d="M 794 531 
L 1825 531 
L 1825 4091 
L 703 3866 
L 703 4441 
L 1819 4666 
L 2450 4666 
L 2450 531 
L 3481 531 
L 3481 0 
L 794 0 
L 794 531 
z
" transform="scale(0.015625)"/>
      <path id="DejaVuSans-34" d="M 2419 4116 
L 825 1625 
L 2419 1625 
L 2419 4116 
z
M 2253 4666 
L 3047 4666 
L 3047 1625 
L 3713 1625 
L 3713 1100 
L 3047 1100 
L 3047 0 
L 2419 0 
L 2419 1100 
L 313 1100 
L 313 1709 
L 2253 4666 
z
" transform="scale(0.015625)"/>
      <path id="DejaVuSans-2b" d="M 2944 4013 
L 2944 2272 
L 4684 2272 
L 4684 1741 
L 2944 1741 
L 2944 0 
L 2419 0 
L 2419 1741 
L 678 1741 
L 678 2272 
L 2419 2272 
L 2419 4013 
L 2944 4013 
z
" transform="scale(0.015625)"/>
      <path id="DejaVuSans-37" d="M 525 4666 
L 3525 4666 
L 3525 4397 
L 1831 0 
L 1172 0 
L 2766 4134 
L 525 4134 
L 525 4666 
z
" transform="scale(0.015625)"/>
      <path id="DejaVuSans-2212" d="M 678 2272 
L 4684 2272 
L 4684 1741 
L 678 1741 
L 678 2272 
z
" transform="scale(0.015625)"/>
      <path id="DejaVuSans-36" d="M 2113 2584 
Q 1688 2584 1439 2293 
Q 1191 2003 1191 1497 
Q 1191 994 1439 701 
Q 1688 409 2113 409 
Q 2538 409 2786 701 
Q 3034 994 3034 1497 
Q 3034 2003 2786 2293 
Q 2538 2584 2113 2584 
z
M 3366 4563 
L 3366 3988 
Q 3128 4100 2886 4159 
Q 2644 4219 2406 4219 
Q 1781 4219 1451 3797 
Q 1122 3375 1075 2522 
Q 1259 2794 1537 2939 
Q 1816 3084 2150 3084 
Q 2853 3084 3261 2657 
Q 3669 2231 3669 1497 
Q 3669 778 3244 343 
Q 2819 -91 2113 -91 
Q 1303 -91 875 529 
Q 447 1150 447 2328 
Q 447 3434 972 4092 
Q 1497 4750 2381 4750 
Q 2619 4750 2861 4703 
Q 3103 4656 3366 4563 
z
" transform="scale(0.015625)"/>
      <path id="DejaVuSans-35" d="M 691 4666 
L 3169 4666 
L 3169 4134 
L 1269 4134 
L 1269 2991 
Q 1406 3038 1543 3061 
Q 1681 3084 1819 3084 
Q 2600 3084 3056 2656 
Q 3513 2228 3513 1497 
Q 3513 744 3044 326 
Q 2575 -91 1722 -91 
Q 1428 -91 1123 -41 
Q 819 9 494 109 
L 494 744 
Q 775 591 1075 516 
Q 1375 441 1709 441 
Q 2250 441 2565 725 
Q 2881 1009 2881 1497 
Q 2881 1984 2565 2268 
Q 2250 2553 1709 2553 
Q 1456 2553 1204 2497 
Q 953 2441 691 2322 
L 691 4666 
z
" transform="scale(0.015625)"/>
     </defs>
     <use xlink:href="#DejaVuSans-3a9" transform="translate(0 0.765625)"/>
     <use xlink:href="#DejaVuSans-32" transform="translate(77.373047 -15.640625) scale(0.7)"/>
     <use xlink:href="#DejaVuSans-2c" transform="translate(121.90918 -15.640625) scale(0.7)"/>
     <use xlink:href="#DejaVuSans-30" transform="translate(157.797852 -15.640625) scale(0.7)"/>
     <use xlink:href="#DejaVuSans-20" transform="translate(205.068359 0.765625)"/>
     <use xlink:href="#DejaVuSans-3d" transform="translate(236.855469 0.765625)"/>
     <use xlink:href="#DejaVuSans-20" transform="translate(320.644531 0.765625)"/>
     <use xlink:href="#DejaVuSans-30" transform="translate(352.431641 0.765625)"/>
     <use xlink:href="#DejaVuSans-2e" transform="translate(416.054688 0.765625)"/>
     <use xlink:href="#DejaVuSans-33" transform="translate(447.841797 0.765625)"/>
     <use xlink:href="#DejaVuSans-30" transform="translate(511.464844 0.765625)"/>
     <use xlink:href="#DejaVuSans-31" transform="translate(575.087891 0.765625)"/>
     <use xlink:href="#DejaVuSans-34" transform="translate(638.710938 0.765625)"/>
     <use xlink:href="#DejaVuSans-2b" transform="translate(703.291016 39.046875) scale(0.7)"/>
     <use xlink:href="#DejaVuSans-30" transform="translate(761.943359 39.046875) scale(0.7)"/>
     <use xlink:href="#DejaVuSans-2e" transform="translate(806.479492 39.046875) scale(0.7)"/>
     <use xlink:href="#DejaVuSans-30" transform="translate(828.730469 39.046875) scale(0.7)"/>
     <use xlink:href="#DejaVuSans-31" transform="translate(873.266602 39.046875) scale(0.7)"/>
     <use xlink:href="#DejaVuSans-37" transform="translate(917.802734 39.046875) scale(0.7)"/>
     <use xlink:href="#DejaVuSans-34" transform="translate(962.338867 39.046875) scale(0.7)"/>
     <use xlink:href="#DejaVuSans-2212" transform="translate(703.291016 -26.578125) scale(0.7)"/>
     <use xlink:href="#DejaVuSans-30" transform="translate(761.943359 -26.578125) scale(0.7)"/>
     <use xlink:href="#DejaVuSans-2e" transform="translate(806.479492 -26.578125) scale(0.7)"/>
     <use xlink:href="#DejaVuSans-30" transform="translate(828.730469 -26.578125) scale(0.7)"/>
     <use xlink:href="#DejaVuSans-31" transform="translate(873.266602 -26.578125) scale(0.7)"/>
     <use xlink:href="#DejaVuSans-36" transform="translate(917.802734 -26.578125) scale(0.7)"/>
     <use xlink:href="#DejaVuSans-35" transform="translate(962.338867 -26.578125) scale(0.7)"/>
    </g>
   </g>
  </g>
  <g id="axes_2">
   <g id="matplotlib.axis_3"/>
   <g id="matplotlib.axis_4"/>
  </g>
  <g id="axes_3">
   <g id="patch_7">
    <path d="M 64.08 329.76 
L 219.24 329.76 
L 219.24 195.864 
L 64.08 195.864 
z
" style="fill: #ffffff"/>
   </g>
   <g id="QuadContourSet_1">
    <path d="M 112.1796 310.34982 
L 115.2828 311.214998 
L 118.386 311.684392 
L 121.4892 311.810033 
L 124.5924 311.765813 
L 127.6956 311.478903 
L 130.7988 310.857159 
L 133.902 310.019893 
L 135.312737 309.6756 
L 137.0052 309.403519 
L 140.1084 308.921146 
L 143.2116 308.274587 
L 146.3148 307.281514 
L 147.414444 306.99768 
L 149.418 306.631295 
L 152.5212 305.940307 
L 155.6244 304.420681 
L 155.80779 304.31976 
L 158.7276 303.247448 
L 161.8308 302.129616 
L 163.144542 301.64184 
L 164.934 301.076964 
L 168.0372 299.56019 
L 169.176394 298.96392 
L 171.1404 297.937503 
L 173.626498 296.286 
L 174.2436 295.833372 
L 176.940475 293.60808 
L 177.3468 293.220015 
L 179.641728 290.93016 
L 180.45 289.511762 
L 181.245521 288.25224 
L 182.072113 285.57432 
L 182.772667 282.8964 
L 183.319078 280.21848 
L 183.437516 277.54056 
L 182.861219 274.86264 
L 181.608588 272.18472 
L 180.45 269.5068 
L 180.45 269.5068 
L 179.228889 266.82888 
L 177.466899 264.15096 
L 177.3468 263.952481 
L 176.292957 261.47304 
L 174.272132 258.79512 
L 174.2436 258.767883 
L 171.1404 256.233405 
L 170.98286 256.1172 
L 168.0372 253.791062 
L 167.576739 253.43928 
L 164.934 251.797958 
L 161.951338 250.76136 
L 161.8308 250.711771 
L 158.7276 248.968014 
L 157.273672 248.08344 
L 155.6244 246.582164 
L 154.111896 245.40552 
L 152.5212 244.102698 
L 150.847345 242.7276 
L 149.418 241.809902 
L 146.3148 240.139939 
L 145.990668 240.04968 
L 143.2116 239.080744 
L 140.1084 238.976639 
L 137.0052 238.751157 
L 133.902 238.108154 
L 130.7988 237.627177 
L 127.6956 237.410072 
L 124.5924 237.607305 
L 121.4892 238.182624 
L 118.386 238.990226 
L 116.072555 240.04968 
L 115.2828 240.57266 
L 113.292001 242.7276 
L 112.1796 243.767669 
L 110.65409 245.40552 
L 109.0764 247.387441 
L 108.564385 248.08344 
L 107.061241 250.76136 
L 105.9732 253.341277 
L 105.92812 253.43928 
L 105.228435 256.1172 
L 104.662021 258.79512 
L 103.663802 261.47304 
L 102.87 263.753781 
L 102.713134 264.15096 
L 102.036431 266.82888 
L 102.011005 269.5068 
L 102.471282 272.18472 
L 102.710393 274.86264 
L 102.48357 277.54056 
L 102.031541 280.21848 
L 101.672353 282.8964 
L 101.515184 285.57432 
L 101.100338 288.25224 
L 100.496333 290.93016 
L 100.331182 293.60808 
L 100.514175 296.286 
L 100.786597 298.96392 
L 101.261491 301.64184 
L 102.600364 304.31976 
L 102.87 304.700715 
L 104.87306 306.99768 
L 105.9732 307.90723 
L 109.0764 309.468521 
L 109.684658 309.6756 
z
" clip-path="url(#pcc82de99dd)" style="fill: #ffffff"/>
   </g>
   <g id="QuadContourSet_2">
    <path d="M 62.5284 333.77688 
L 65.6316 333.77688 
L 68.7348 333.77688 
L 71.838 333.77688 
L 74.9412 333.77688 
L 78.0444 333.77688 
L 81.1476 333.77688 
L 84.2508 333.77688 
L 87.354 333.77688 
L 90.4572 333.77688 
L 93.5604 333.77688 
L 96.6636 333.77688 
L 99.7668 333.77688 
L 102.87 333.77688 
L 105.9732 333.77688 
L 109.0764 333.77688 
L 112.1796 333.77688 
L 115.2828 333.77688 
L 118.386 333.77688 
L 121.4892 333.77688 
L 124.5924 333.77688 
L 127.6956 333.77688 
L 130.7988 333.77688 
L 133.902 333.77688 
L 137.0052 333.77688 
L 140.1084 333.77688 
L 143.2116 333.77688 
L 146.3148 333.77688 
L 149.418 333.77688 
L 152.5212 333.77688 
L 155.6244 333.77688 
L 158.7276 333.77688 
L 161.8308 333.77688 
L 164.934 333.77688 
L 168.0372 333.77688 
L 171.1404 333.77688 
L 174.2436 333.77688 
L 177.3468 333.77688 
L 180.45 333.77688 
L 183.5532 333.77688 
L 186.6564 333.77688 
L 189.7596 333.77688 
L 192.8628 333.77688 
L 195.966 333.77688 
L 199.0692 333.77688 
L 202.1724 333.77688 
L 205.2756 333.77688 
L 208.3788 333.77688 
L 211.482 333.77688 
L 214.5852 333.77688 
L 217.6884 333.77688 
L 220.7916 333.77688 
L 223.8948 333.77688 
L 223.8948 331.09896 
L 223.8948 328.42104 
L 223.8948 325.74312 
L 223.8948 323.0652 
L 223.8948 320.38728 
L 223.8948 317.70936 
L 223.8948 315.03144 
L 223.8948 312.35352 
L 223.8948 309.6756 
L 223.8948 306.99768 
L 223.8948 304.31976 
L 223.8948 301.64184 
L 223.8948 298.96392 
L 223.8948 296.286 
L 223.8948 293.60808 
L 223.8948 290.93016 
L 223.8948 288.25224 
L 223.8948 285.57432 
L 223.8948 282.8964 
L 223.8948 280.21848 
L 223.8948 277.54056 
L 223.8948 274.86264 
L 223.8948 272.18472 
L 223.8948 269.5068 
L 223.8948 266.82888 
L 223.8948 264.15096 
L 223.8948 261.47304 
L 223.8948 258.79512 
L 223.8948 256.1172 
L 223.8948 253.43928 
L 223.8948 250.76136 
L 223.8948 248.08344 
L 223.8948 245.40552 
L 223.8948 242.7276 
L 223.8948 240.04968 
L 223.8948 237.37176 
L 223.8948 234.69384 
L 223.8948 232.01592 
L 223.8948 229.338 
L 223.8948 226.66008 
L 223.8948 223.98216 
L 223.8948 221.30424 
L 223.8948 218.62632 
L 223.8948 215.9484 
L 223.8948 213.27048 
L 223.8948 210.59256 
L 223.8948 207.91464 
L 223.8948 205.23672 
L 223.8948 202.5588 
L 223.8948 199.88088 
L 223.8948 197.20296 
L 223.8948 194.52504 
L 223.8948 191.84712 
L 220.7916 191.84712 
L 217.6884 191.84712 
L 214.5852 191.84712 
L 211.482 191.84712 
L 208.3788 191.84712 
L 205.2756 191.84712 
L 202.1724 191.84712 
L 199.0692 191.84712 
L 195.966 191.84712 
L 192.8628 191.84712 
L 189.7596 191.84712 
L 186.6564 191.84712 
L 183.5532 191.84712 
L 180.45 191.84712 
L 177.3468 191.84712 
L 174.2436 191.84712 
L 171.1404 191.84712 
L 168.0372 191.84712 
L 164.934 191.84712 
L 161.8308 191.84712 
L 158.7276 191.84712 
L 155.6244 191.84712 
L 152.5212 191.84712 
L 149.418 191.84712 
L 146.3148 191.84712 
L 143.2116 191.84712 
L 140.1084 191.84712 
L 137.0052 191.84712 
L 133.902 191.84712 
L 130.7988 191.84712 
L 127.6956 191.84712 
L 124.5924 191.84712 
L 121.4892 191.84712 
L 118.386 191.84712 
L 115.2828 191.84712 
L 112.1796 191.84712 
L 109.0764 191.84712 
L 105.9732 191.84712 
L 102.87 191.84712 
L 99.7668 191.84712 
L 96.6636 191.84712 
L 93.5604 191.84712 
L 90.4572 191.84712 
L 87.354 191.84712 
L 84.2508 191.84712 
L 81.1476 191.84712 
L 78.0444 191.84712 
L 74.9412 191.84712 
L 71.838 191.84712 
L 68.7348 191.84712 
L 65.6316 191.84712 
L 62.5284 191.84712 
L 59.4252 191.84712 
L 59.4252 194.52504 
L 59.4252 197.20296 
L 59.4252 199.88088 
L 59.4252 202.5588 
L 59.4252 205.23672 
L 59.4252 207.91464 
L 59.4252 210.59256 
L 59.4252 213.27048 
L 59.4252 215.9484 
L 59.4252 218.62632 
L 59.4252 221.30424 
L 59.4252 223.98216 
L 59.4252 226.66008 
L 59.4252 229.338 
L 59.4252 232.01592 
L 59.4252 234.69384 
L 59.4252 237.37176 
L 59.4252 240.04968 
L 59.4252 242.7276 
L 59.4252 245.40552 
L 59.4252 248.08344 
L 59.4252 250.76136 
L 59.4252 253.43928 
L 59.4252 256.1172 
L 59.4252 258.79512 
L 59.4252 261.47304 
L 59.4252 264.15096 
L 59.4252 266.82888 
L 59.4252 269.5068 
L 59.4252 272.18472 
L 59.4252 274.86264 
L 59.4252 277.54056 
L 59.4252 280.21848 
L 59.4252 282.8964 
L 59.4252 285.57432 
L 59.4252 288.25224 
L 59.4252 290.93016 
L 59.4252 293.60808 
L 59.4252 296.286 
L 59.4252 298.96392 
L 59.4252 301.64184 
L 59.4252 304.31976 
L 59.4252 306.99768 
L 59.4252 309.6756 
L 59.4252 312.35352 
L 59.4252 315.03144 
L 59.4252 317.70936 
L 59.4252 320.38728 
L 59.4252 323.0652 
L 59.4252 325.74312 
L 59.4252 328.42104 
L 59.4252 331.09896 
L 59.4252 333.77688 
L 62.5284 333.77688 
z
M 109.684658 309.6756 
L 109.0764 309.468521 
L 105.9732 307.90723 
L 104.87306 306.99768 
L 102.87 304.700715 
L 102.600364 304.31976 
L 101.261491 301.64184 
L 100.786597 298.96392 
L 100.514175 296.286 
L 100.331182 293.60808 
L 100.496333 290.93016 
L 101.100338 288.25224 
L 101.515184 285.57432 
L 101.672353 282.8964 
L 102.031541 280.21848 
L 102.48357 277.54056 
L 102.710393 274.86264 
L 102.471282 272.18472 
L 102.011005 269.5068 
L 102.036431 266.82888 
L 102.713134 264.15096 
L 102.87 263.753781 
L 103.663802 261.47304 
L 104.662021 258.79512 
L 105.228435 256.1172 
L 105.92812 253.43928 
L 105.9732 253.341277 
L 107.061241 250.76136 
L 108.564385 248.08344 
L 109.0764 247.387441 
L 110.65409 245.40552 
L 112.1796 243.767669 
L 113.292001 242.7276 
L 115.2828 240.57266 
L 116.072555 240.04968 
L 118.386 238.990226 
L 121.4892 238.182624 
L 124.5924 237.607305 
L 127.6956 237.410072 
L 130.7988 237.627177 
L 133.902 238.108154 
L 137.0052 238.751157 
L 140.1084 238.976639 
L 143.2116 239.080744 
L 145.990668 240.04968 
L 146.3148 240.139939 
L 149.418 241.809902 
L 150.847345 242.7276 
L 152.5212 244.102698 
L 154.111896 245.40552 
L 155.6244 246.582164 
L 157.273672 248.08344 
L 158.7276 248.968014 
L 161.8308 250.711771 
L 161.951338 250.76136 
L 164.934 251.797958 
L 167.576739 253.43928 
L 168.0372 253.791062 
L 170.98286 256.1172 
L 171.1404 256.233405 
L 174.2436 258.767883 
L 174.272132 258.79512 
L 176.292957 261.47304 
L 177.3468 263.952481 
L 177.466899 264.15096 
L 179.228889 266.82888 
L 180.45 269.5068 
L 180.45 269.5068 
L 181.608588 272.18472 
L 182.861219 274.86264 
L 183.437516 277.54056 
L 183.319078 280.21848 
L 182.772667 282.8964 
L 182.072113 285.57432 
L 181.245521 288.25224 
L 180.45 289.511762 
L 179.641728 290.93016 
L 177.3468 293.220015 
L 176.940475 293.60808 
L 174.2436 295.833372 
L 173.626498 296.286 
L 171.1404 297.937503 
L 169.176394 298.96392 
L 168.0372 299.56019 
L 164.934 301.076964 
L 163.144542 301.64184 
L 161.8308 302.129616 
L 158.7276 303.247448 
L 155.80779 304.31976 
L 155.6244 304.420681 
L 152.5212 305.940307 
L 149.418 306.631295 
L 147.414444 306.99768 
L 146.3148 307.281514 
L 143.2116 308.274587 
L 140.1084 308.921146 
L 137.0052 309.403519 
L 135.312737 309.6756 
L 133.902 310.019893 
L 130.7988 310.857159 
L 127.6956 311.478903 
L 124.5924 311.765813 
L 121.4892 311.810033 
L 118.386 311.684392 
L 115.2828 311.214998 
L 112.1796 310.34982 
L 109.684658 309.6756 
z
" clip-path="url(#pcc82de99dd)" style="fill: none"/>
    <path d="M 112.1796 310.34982 
L 115.2828 311.214998 
L 118.386 311.684392 
L 121.4892 311.810033 
L 124.5924 311.765813 
L 127.6956 311.478903 
L 130.7988 310.857159 
L 133.902 310.019893 
L 135.312737 309.6756 
L 137.0052 309.403519 
L 140.1084 308.921146 
L 143.2116 308.274587 
L 146.3148 307.281514 
L 147.414444 306.99768 
L 149.418 306.631295 
L 152.5212 305.940307 
L 155.6244 304.420681 
L 155.80779 304.31976 
L 158.7276 303.247448 
L 161.8308 302.129616 
L 163.144542 301.64184 
L 164.934 301.076964 
L 168.0372 299.56019 
L 169.176394 298.96392 
L 171.1404 297.937503 
L 173.626498 296.286 
L 174.2436 295.833372 
L 176.940475 293.60808 
L 177.3468 293.220015 
L 179.641728 290.93016 
L 180.45 289.511762 
L 181.245521 288.25224 
L 182.072113 285.57432 
L 182.772667 282.8964 
L 183.319078 280.21848 
L 183.437516 277.54056 
L 182.861219 274.86264 
L 181.608588 272.18472 
L 180.45 269.5068 
L 180.45 269.5068 
L 179.228889 266.82888 
L 177.466899 264.15096 
L 177.3468 263.952481 
L 176.292957 261.47304 
L 174.272132 258.79512 
L 174.2436 258.767883 
L 171.1404 256.233405 
L 170.98286 256.1172 
L 168.0372 253.791062 
L 167.576739 253.43928 
L 164.934 251.797958 
L 161.951338 250.76136 
L 161.8308 250.711771 
L 158.7276 248.968014 
L 157.273672 248.08344 
L 155.6244 246.582164 
L 154.111896 245.40552 
L 152.5212 244.102698 
L 150.847345 242.7276 
L 149.418 241.809902 
L 146.3148 240.139939 
L 145.990668 240.04968 
L 143.2116 239.080744 
L 140.1084 238.976639 
L 137.0052 238.751157 
L 133.902 238.108154 
L 130.7988 237.627177 
L 127.6956 237.410072 
L 124.5924 237.607305 
L 121.4892 238.182624 
L 118.386 238.990226 
L 116.072555 240.04968 
L 115.2828 240.57266 
L 113.292001 242.7276 
L 112.1796 243.767669 
L 110.65409 245.40552 
L 109.0764 247.387441 
L 108.564385 248.08344 
L 107.061241 250.76136 
L 105.9732 253.341277 
L 105.92812 253.43928 
L 105.228435 256.1172 
L 104.662021 258.79512 
L 103.663802 261.47304 
L 102.87 263.753781 
L 102.713134 264.15096 
L 102.036431 266.82888 
L 102.011005 269.5068 
L 102.471282 272.18472 
L 102.710393 274.86264 
L 102.48357 277.54056 
L 102.031541 280.21848 
L 101.672353 282.8964 
L 101.515184 285.57432 
L 101.100338 288.25224 
L 100.496333 290.93016 
L 100.331182 293.60808 
L 100.514175 296.286 
L 100.786597 298.96392 
L 101.261491 301.64184 
L 102.600364 304.31976 
L 102.87 304.700715 
L 104.87306 306.99768 
L 105.9732 307.90723 
L 109.0764 309.468521 
L 109.684658 309.6756 
z
M 123.324178 296.286 
L 121.4892 295.084363 
L 119.676353 293.60808 
L 118.386 291.568308 
L 118.038793 290.93016 
L 117.226489 288.25224 
L 116.746019 285.57432 
L 116.296195 282.8964 
L 115.939149 280.21848 
L 116.017463 277.54056 
L 116.585759 274.86264 
L 117.216567 272.18472 
L 117.857803 269.5068 
L 118.386 267.984831 
L 118.757768 266.82888 
L 119.654041 264.15096 
L 121.149513 261.47304 
L 121.4892 261.053865 
L 123.734366 258.79512 
L 124.5924 258.003763 
L 127.481576 256.1172 
L 127.6956 256.006818 
L 130.7988 255.283495 
L 133.902 255.226015 
L 137.0052 255.372362 
L 140.1084 255.667567 
L 143.2116 256.1172 
L 143.2116 256.1172 
L 146.3148 256.818893 
L 149.418 257.991862 
L 150.999355 258.79512 
L 152.5212 259.701085 
L 154.874971 261.47304 
L 155.6244 262.079113 
L 157.848241 264.15096 
L 158.7276 265.180741 
L 160.124111 266.82888 
L 161.8308 268.72552 
L 162.528437 269.5068 
L 164.011701 272.18472 
L 164.553693 274.86264 
L 164.934 276.729036 
L 165.148864 277.54056 
L 165.697906 280.21848 
L 165.378723 282.8964 
L 164.934 283.735841 
L 163.771994 285.57432 
L 161.8308 287.226017 
L 160.692203 288.25224 
L 158.7276 290.065529 
L 157.813366 290.93016 
L 155.6244 292.930429 
L 154.479131 293.60808 
L 152.5212 294.477673 
L 149.418 295.581161 
L 147.530241 296.286 
L 146.3148 296.728289 
L 143.2116 297.702648 
L 140.1084 298.381464 
L 137.0052 298.748122 
L 133.902 298.847204 
L 130.7988 298.72652 
L 127.6956 298.223878 
L 124.5924 296.980798 
z
" clip-path="url(#pcc82de99dd)" style="fill: #ff0000; fill-opacity: 0.333333"/>
    <path d="M 124.5924 296.980798 
L 127.6956 298.223878 
L 130.7988 298.72652 
L 133.902 298.847204 
L 137.0052 298.748122 
L 140.1084 298.381464 
L 143.2116 297.702648 
L 146.3148 296.728289 
L 147.530241 296.286 
L 149.418 295.581161 
L 152.5212 294.477673 
L 154.479131 293.60808 
L 155.6244 292.930429 
L 157.813366 290.93016 
L 158.7276 290.065529 
L 160.692203 288.25224 
L 161.8308 287.226017 
L 163.771994 285.57432 
L 164.934 283.735841 
L 165.378723 282.8964 
L 165.697906 280.21848 
L 165.148864 277.54056 
L 164.934 276.729036 
L 164.553693 274.86264 
L 164.011701 272.18472 
L 162.528437 269.5068 
L 161.8308 268.72552 
L 160.124111 266.82888 
L 158.7276 265.180741 
L 157.848241 264.15096 
L 155.6244 262.079113 
L 154.874971 261.47304 
L 152.5212 259.701085 
L 150.999355 258.79512 
L 149.418 257.991862 
L 146.3148 256.818893 
L 143.2116 256.1172 
L 143.2116 256.1172 
L 140.1084 255.667567 
L 137.0052 255.372362 
L 133.902 255.226015 
L 130.7988 255.283495 
L 127.6956 256.006818 
L 127.481576 256.1172 
L 124.5924 258.003763 
L 123.734366 258.79512 
L 121.4892 261.053865 
L 121.149513 261.47304 
L 119.654041 264.15096 
L 118.757768 266.82888 
L 118.386 267.984831 
L 117.857803 269.5068 
L 117.216567 272.18472 
L 116.585759 274.86264 
L 116.017463 277.54056 
L 115.939149 280.21848 
L 116.296195 282.8964 
L 116.746019 285.57432 
L 117.226489 288.25224 
L 118.038793 290.93016 
L 118.386 291.568308 
L 119.676353 293.60808 
L 121.4892 295.084363 
L 123.324178 296.286 
z
" clip-path="url(#pcc82de99dd)" style="fill: #ff0000"/>
   </g>
   <g id="matplotlib.axis_5">
    <g id="xtick_5">
     <g id="line2d_6">
      <g>
       <use xlink:href="#m99ba9c01e3" x="80.011628" y="329.76" style="stroke: #000000; stroke-width: 0.8"/>
      </g>
     </g>
     <g id="text_2">
      <!-- 0.24 -->
      <g transform="translate(74.090713 357.877081) rotate(-45) scale(0.1 -0.1)">
       <use xlink:href="#DejaVuSans-30"/>
       <use xlink:href="#DejaVuSans-2e" x="63.623047"/>
       <use xlink:href="#DejaVuSans-32" x="95.410156"/>
       <use xlink:href="#DejaVuSans-34" x="159.033203"/>
      </g>
     </g>
    </g>
    <g id="xtick_6">
     <g id="line2d_7">
      <g>
       <use xlink:href="#m99ba9c01e3" x="118.099372" y="329.76" style="stroke: #000000; stroke-width: 0.8"/>
      </g>
     </g>
     <g id="text_3">
      <!-- 0.28 -->
      <g transform="translate(112.178458 357.877081) rotate(-45) scale(0.1 -0.1)">
       <defs>
        <path id="DejaVuSans-38" d="M 2034 2216 
Q 1584 2216 1326 1975 
Q 1069 1734 1069 1313 
Q 1069 891 1326 650 
Q 1584 409 2034 409 
Q 2484 409 2743 651 
Q 3003 894 3003 1313 
Q 3003 1734 2745 1975 
Q 2488 2216 2034 2216 
z
M 1403 2484 
Q 997 2584 770 2862 
Q 544 3141 544 3541 
Q 544 4100 942 4425 
Q 1341 4750 2034 4750 
Q 2731 4750 3128 4425 
Q 3525 4100 3525 3541 
Q 3525 3141 3298 2862 
Q 3072 2584 2669 2484 
Q 3125 2378 3379 2068 
Q 3634 1759 3634 1313 
Q 3634 634 3220 271 
Q 2806 -91 2034 -91 
Q 1263 -91 848 271 
Q 434 634 434 1313 
Q 434 1759 690 2068 
Q 947 2378 1403 2484 
z
M 1172 3481 
Q 1172 3119 1398 2916 
Q 1625 2713 2034 2713 
Q 2441 2713 2670 2916 
Q 2900 3119 2900 3481 
Q 2900 3844 2670 4047 
Q 2441 4250 2034 4250 
Q 1625 4250 1398 4047 
Q 1172 3844 1172 3481 
z
" transform="scale(0.015625)"/>
       </defs>
       <use xlink:href="#DejaVuSans-30"/>
       <use xlink:href="#DejaVuSans-2e" x="63.623047"/>
       <use xlink:href="#DejaVuSans-32" x="95.410156"/>
       <use xlink:href="#DejaVuSans-38" x="159.033203"/>
      </g>
     </g>
    </g>
    <g id="xtick_7">
     <g id="line2d_8">
      <g>
       <use xlink:href="#m99ba9c01e3" x="156.187117" y="329.76" style="stroke: #000000; stroke-width: 0.8"/>
      </g>
     </g>
     <g id="text_4">
      <!-- 0.32 -->
      <g transform="translate(150.266202 357.877081) rotate(-45) scale(0.1 -0.1)">
       <use xlink:href="#DejaVuSans-30"/>
       <use xlink:href="#DejaVuSans-2e" x="63.623047"/>
       <use xlink:href="#DejaVuSans-33" x="95.410156"/>
       <use xlink:href="#DejaVuSans-32" x="159.033203"/>
      </g>
     </g>
    </g>
    <g id="xtick_8">
     <g id="line2d_9">
      <g>
       <use xlink:href="#m99ba9c01e3" x="194.274861" y="329.76" style="stroke: #000000; stroke-width: 0.8"/>
      </g>
     </g>
     <g id="text_5">
      <!-- 0.36 -->
      <g transform="translate(188.353947 357.877081) rotate(-45) scale(0.1 -0.1)">
       <use xlink:href="#DejaVuSans-30"/>
       <use xlink:href="#DejaVuSans-2e" x="63.623047"/>
       <use xlink:href="#DejaVuSans-33" x="95.410156"/>
       <use xlink:href="#DejaVuSans-36" x="159.033203"/>
      </g>
     </g>
    </g>
    <g id="text_6">
     <!-- $\Omega_{2,0}$ -->
     <g transform="translate(131.36 377.3288) scale(0.1 -0.1)">
      <use xlink:href="#DejaVuSans-3a9" transform="translate(0 0.21875)"/>
      <use xlink:href="#DejaVuSans-32" transform="translate(77.373047 -16.1875) scale(0.7)"/>
      <use xlink:href="#DejaVuSans-2c" transform="translate(121.90918 -16.1875) scale(0.7)"/>
      <use xlink:href="#DejaVuSans-30" transform="translate(157.797852 -16.1875) scale(0.7)"/>
     </g>
    </g>
   </g>
   <g id="matplotlib.axis_6">
    <g id="ytick_1">
     <g id="line2d_10">
      <defs>
       <path id="m2f305736cd" d="M 0 0 
L -3.5 0 
" style="stroke: #000000; stroke-width: 0.8"/>
      </defs>
      <g>
       <use xlink:href="#m2f305736cd" x="64.08" y="308.281248" style="stroke: #000000; stroke-width: 0.8"/>
      </g>
     </g>
     <g id="text_7">
      <!-- −1 -->
      <g transform="translate(45.185138 320.279237) rotate(-45) scale(0.1 -0.1)">
       <use xlink:href="#DejaVuSans-2212"/>
       <use xlink:href="#DejaVuSans-31" x="83.789062"/>
      </g>
     </g>
    </g>
    <g id="ytick_2">
     <g id="line2d_11">
      <g>
       <use xlink:href="#m2f305736cd" x="64.08" y="275.22718" style="stroke: #000000; stroke-width: 0.8"/>
      </g>
     </g>
     <g id="text_8">
      <!-- 0 -->
      <g transform="translate(51.110472 281.299835) rotate(-45) scale(0.1 -0.1)">
       <use xlink:href="#DejaVuSans-30"/>
      </g>
     </g>
    </g>
    <g id="ytick_3">
     <g id="line2d_12">
      <g>
       <use xlink:href="#m2f305736cd" x="64.08" y="242.173111" style="stroke: #000000; stroke-width: 0.8"/>
      </g>
     </g>
     <g id="text_9">
      <!-- 1 -->
      <g transform="translate(51.110472 248.245766) rotate(-45) scale(0.1 -0.1)">
       <use xlink:href="#DejaVuSans-31"/>
      </g>
     </g>
    </g>
    <g id="ytick_4">
     <g id="line2d_13">
      <g>
       <use xlink:href="#m2f305736cd" x="64.08" y="209.119043" style="stroke: #000000; stroke-width: 0.8"/>
      </g>
     </g>
     <g id="text_10">
      <!-- 2 -->
      <g transform="translate(51.110472 215.191698) rotate(-45) scale(0.1 -0.1)">
       <use xlink:href="#DejaVuSans-32"/>
      </g>
     </g>
    </g>
    <g id="text_11">
     <!-- $n$ -->
     <g transform="translate(15.452313 266.012) rotate(-90) scale(0.1 -0.1)">
      <defs>
       <path id="DejaVuSans-Oblique-6e" d="M 3566 2113 
L 3156 0 
L 2578 0 
L 2988 2091 
Q 3016 2238 3031 2350 
Q 3047 2463 3047 2528 
Q 3047 2791 2881 2937 
Q 2716 3084 2419 3084 
Q 1956 3084 1622 2776 
Q 1288 2469 1184 1941 
L 800 0 
L 225 0 
L 903 3500 
L 1478 3500 
L 1363 2950 
Q 1603 3253 1940 3418 
Q 2278 3584 2650 3584 
Q 3113 3584 3367 3334 
Q 3622 3084 3622 2631 
Q 3622 2519 3608 2391 
Q 3594 2263 3566 2113 
z
" transform="scale(0.015625)"/>
      </defs>
      <use xlink:href="#DejaVuSans-Oblique-6e"/>
     </g>
    </g>
   </g>
   <g id="QuadContourSet_3">
    <path d="M 112.1796 310.34982 
L 115.2828 311.214998 
L 118.386 311.684392 
L 121.4892 311.810033 
L 124.5924 311.765813 
L 127.6956 311.478903 
L 130.7988 310.857159 
L 133.902 310.019893 
L 135.312737 309.6756 
L 137.0052 309.403519 
L 140.1084 308.921146 
L 143.2116 308.274587 
L 146.3148 307.281514 
L 147.414444 306.99768 
L 149.418 306.631295 
L 152.5212 305.940307 
L 155.6244 304.420681 
L 155.80779 304.31976 
L 158.7276 303.247448 
L 161.8308 302.129616 
L 163.144542 301.64184 
L 164.934 301.076964 
L 168.0372 299.56019 
L 169.176394 298.96392 
L 171.1404 297.937503 
L 173.626498 296.286 
L 174.2436 295.833372 
L 176.940475 293.60808 
L 177.3468 293.220015 
L 179.641728 290.93016 
L 180.45 289.511762 
L 181.245521 288.25224 
L 182.072113 285.57432 
L 182.772667 282.8964 
L 183.319078 280.21848 
L 183.437516 277.54056 
L 182.861219 274.86264 
L 181.608588 272.18472 
L 180.45 269.5068 
L 180.45 269.5068 
L 179.228889 266.82888 
L 177.466899 264.15096 
L 177.3468 263.952481 
L 176.292957 261.47304 
L 174.272132 258.79512 
L 174.2436 258.767883 
L 171.1404 256.233405 
L 170.98286 256.1172 
L 168.0372 253.791062 
L 167.576739 253.43928 
L 164.934 251.797958 
L 161.951338 250.76136 
L 161.8308 250.711771 
L 158.7276 248.968014 
L 157.273672 248.08344 
L 155.6244 246.582164 
L 154.111896 245.40552 
L 152.5212 244.102698 
L 150.847345 242.7276 
L 149.418 241.809902 
L 146.3148 240.139939 
L 145.990668 240.04968 
L 143.2116 239.080744 
L 140.1084 238.976639 
L 137.0052 238.751157 
L 133.902 238.108154 
L 130.7988 237.627177 
L 127.6956 237.410072 
L 124.5924 237.607305 
L 121.4892 238.182624 
L 118.386 238.990226 
L 116.072555 240.04968 
L 115.2828 240.57266 
L 113.292001 242.7276 
L 112.1796 243.767669 
L 110.65409 245.40552 
L 109.0764 247.387441 
L 108.564385 248.08344 
L 107.061241 250.76136 
L 105.9732 253.341277 
L 105.92812 253.43928 
L 105.228435 256.1172 
L 104.662021 258.79512 
L 103.663802 261.47304 
L 102.87 263.753781 
L 102.713134 264.15096 
L 102.036431 266.82888 
L 102.011005 269.5068 
L 102.471282 272.18472 
L 102.710393 274.86264 
L 102.48357 277.54056 
L 102.031541 280.21848 
L 101.672353 282.8964 
L 101.515184 285.57432 
L 101.100338 288.25224 
L 100.496333 290.93016 
L 100.331182 293.60808 
L 100.514175 296.286 
L 100.786597 298.96392 
L 101.261491 301.64184 
L 102.600364 304.31976 
L 102.87 304.700715 
L 104.87306 306.99768 
L 105.9732 307.90723 
L 109.0764 309.468521 
L 109.684658 309.6756 
L 112.1796 310.34982 
z
" clip-path="url(#pcc82de99dd)" style="fill: none; stroke: #ff0000; stroke-width: 1.5"/>
    <path d="M 124.5924 296.980798 
L 127.6956 298.223878 
L 130.7988 298.72652 
L 133.902 298.847204 
L 137.0052 298.748122 
L 140.1084 298.381464 
L 143.2116 297.702648 
L 146.3148 296.728289 
L 147.530241 296.286 
L 149.418 295.581161 
L 152.5212 294.477673 
L 154.479131 293.60808 
L 155.6244 292.930429 
L 157.813366 290.93016 
L 158.7276 290.065529 
L 160.692203 288.25224 
L 161.8308 287.226017 
L 163.771994 285.57432 
L 164.934 283.735841 
L 165.378723 282.8964 
L 165.697906 280.21848 
L 165.148864 277.54056 
L 164.934 276.729036 
L 164.553693 274.86264 
L 164.011701 272.18472 
L 162.528437 269.5068 
L 161.8308 268.72552 
L 160.124111 266.82888 
L 158.7276 265.180741 
L 157.848241 264.15096 
L 155.6244 262.079113 
L 154.874971 261.47304 
L 152.5212 259.701085 
L 150.999355 258.79512 
L 149.418 257.991862 
L 146.3148 256.818893 
L 143.2116 256.1172 
L 143.2116 256.1172 
L 140.1084 255.667567 
L 137.0052 255.372362 
L 133.902 255.226015 
L 130.7988 255.283495 
L 127.6956 256.006818 
L 127.481576 256.1172 
L 124.5924 258.003763 
L 123.734366 258.79512 
L 121.4892 261.053865 
L 121.149513 261.47304 
L 119.654041 264.15096 
L 118.757768 266.82888 
L 118.386 267.984831 
L 117.857803 269.5068 
L 117.216567 272.18472 
L 116.585759 274.86264 
L 116.017463 277.54056 
L 115.939149 280.21848 
L 116.296195 282.8964 
L 116.746019 285.57432 
L 117.226489 288.25224 
L 118.038793 290.93016 
L 118.386 291.568308 
L 119.676353 293.60808 
L 121.4892 295.084363 
L 123.324178 296.286 
L 124.5924 296.980798 
z
" clip-path="url(#pcc82de99dd)" style="fill: none; stroke: #ff0000; stroke-width: 1.5"/>
   </g>
   <g id="patch_8">
    <path d="M 64.08 329.76 
L 64.08 195.864 
" style="fill: none; stroke: #000000; stroke-width: 0.8; stroke-linejoin: miter; stroke-linecap: square"/>
   </g>
   <g id="patch_9">
    <path d="M 219.24 329.76 
L 219.24 195.864 
" style="fill: none; stroke: #000000; stroke-width: 0.8; stroke-linejoin: miter; stroke-linecap: square"/>
   </g>
   <g id="patch_10">
    <path d="M 64.08 329.76 
L 219.24 329.76 
" style="fill: none; stroke: #000000; stroke-width: 0.8; stroke-linejoin: miter; stroke-linecap: square"/>
   </g>
   <g id="patch_11">
    <path d="M 64.08 195.864 
L 219.24 195.864 
" style="fill: none; stroke: #000000; stroke-width: 0.8; stroke-linejoin: miter; stroke-linecap: square"/>
   </g>
  </g>
  <g id="axes_4">
   <g id="patch_12">
    <path d="M 230.04 329.76 
L 385.2 329.76 
L 385.2 195.864 
L 230.04 195.864 
z
" style="fill: #ffffff"/>
   </g>
   <g id="matplotlib.axis_7">
    <g id="xtick_9">
     <g id="line2d_14">
      <g>
       <use xlink:href="#m99ba9c01e3" x="254.929789" y="329.76" style="stroke: #000000; stroke-width: 0.8"/>
      </g>
     </g>
     <g id="text_12">
      <!-- −1 -->
      <g transform="translate(251.668811 352.557207) rotate(-45) scale(0.1 -0.1)">
       <use xlink:href="#DejaVuSans-2212"/>
       <use xlink:href="#DejaVuSans-31" x="83.789062"/>
      </g>
     </g>
    </g>
    <g id="xtick_10">
     <g id="line2d_15">
      <g>
       <use xlink:href="#m99ba9c01e3" x="293.233168" y="329.76" style="stroke: #000000; stroke-width: 0.8"/>
      </g>
     </g>
     <g id="text_13">
      <!-- 0 -->
      <g transform="translate(292.934857 346.631874) rotate(-45) scale(0.1 -0.1)">
       <use xlink:href="#DejaVuSans-30"/>
      </g>
     </g>
    </g>
    <g id="xtick_11">
     <g id="line2d_16">
      <g>
       <use xlink:href="#m99ba9c01e3" x="331.536547" y="329.76" style="stroke: #000000; stroke-width: 0.8"/>
      </g>
     </g>
     <g id="text_14">
      <!-- 1 -->
      <g transform="translate(331.238236 346.631874) rotate(-45) scale(0.1 -0.1)">
       <use xlink:href="#DejaVuSans-31"/>
      </g>
     </g>
    </g>
    <g id="xtick_12">
     <g id="line2d_17">
      <g>
       <use xlink:href="#m99ba9c01e3" x="369.839926" y="329.76" style="stroke: #000000; stroke-width: 0.8"/>
      </g>
     </g>
     <g id="text_15">
      <!-- 2 -->
      <g transform="translate(369.541615 346.631874) rotate(-45) scale(0.1 -0.1)">
       <use xlink:href="#DejaVuSans-32"/>
      </g>
     </g>
    </g>
    <g id="text_16">
     <!-- $n$ -->
     <g transform="translate(304.42 377.527238) scale(0.1 -0.1)">
      <use xlink:href="#DejaVuSans-Oblique-6e"/>
     </g>
    </g>
   </g>
   <g id="matplotlib.axis_8"/>
   <g id="line2d_18">
    <path d="M 230.04 329.706776 
L 236.2464 329.600328 
L 236.2464 329.547103 
L 237.798 329.493879 
L 237.798 329.414043 
L 239.3496 329.334207 
L 239.3496 329.227758 
L 240.1254 329.227758 
L 240.1254 329.094698 
L 240.9012 329.094698 
L 240.9012 328.961638 
L 241.677 328.961638 
L 241.677 328.801965 
L 242.4528 328.801965 
L 242.4528 328.642293 
L 243.2286 328.642293 
L 243.2286 328.429396 
L 244.0044 328.429396 
L 244.0044 328.2165 
L 244.7802 328.2165 
L 244.7802 327.976991 
L 245.556 327.976991 
L 245.556 327.684258 
L 246.3318 327.684258 
L 246.3318 327.364913 
L 247.1076 327.364913 
L 247.1076 326.992344 
L 247.8834 326.992344 
L 247.8834 326.593163 
L 248.6592 326.593163 
L 248.6592 326.087533 
L 249.435 326.087533 
L 249.435 325.555292 
L 250.2108 325.555292 
L 250.2108 324.943214 
L 250.9866 324.943214 
L 250.9866 324.2513 
L 251.7624 324.2513 
L 251.7624 323.506162 
L 252.5382 323.506162 
L 252.5382 322.681188 
L 253.314 322.681188 
L 253.314 321.802989 
L 254.0898 321.802989 
L 254.0898 320.844954 
L 254.8656 320.844954 
L 254.8656 319.780471 
L 255.6414 319.780471 
L 255.6414 318.60954 
L 256.4172 318.60954 
L 256.4172 317.33216 
L 257.193 317.33216 
L 257.193 315.92172 
L 257.9688 315.92172 
L 257.9688 314.37822 
L 258.7446 314.37822 
L 258.7446 312.648435 
L 259.5204 312.648435 
L 259.5204 310.758978 
L 260.2962 310.758978 
L 260.2962 308.683236 
L 261.072 308.683236 
L 261.072 306.447821 
L 261.8478 306.447821 
L 261.8478 304.026122 
L 262.6236 304.026122 
L 262.6236 301.418139 
L 263.3994 301.418139 
L 263.3994 298.623871 
L 264.1752 298.623871 
L 264.1752 295.66993 
L 264.951 295.66993 
L 264.951 292.556318 
L 265.7268 292.556318 
L 265.7268 289.336256 
L 266.5026 289.336256 
L 266.5026 285.983135 
L 267.2784 285.983135 
L 267.2784 282.576789 
L 268.0542 282.576789 
L 268.0542 279.090607 
L 268.83 279.090607 
L 268.83 275.577813 
L 269.6058 275.577813 
L 269.6058 272.038407 
L 270.3816 272.038407 
L 270.3816 268.525613 
L 271.1574 268.525613 
L 271.1574 265.012819 
L 271.9332 265.012819 
L 271.9332 261.553249 
L 272.709 261.553249 
L 272.709 258.120291 
L 273.4848 258.120291 
L 273.4848 254.740557 
L 274.2606 254.740557 
L 274.2606 251.360824 
L 275.0364 251.360824 
L 275.0364 248.007702 
L 275.8122 248.007702 
L 275.8122 244.681193 
L 276.588 244.681193 
L 276.588 241.354683 
L 277.3638 241.354683 
L 277.3638 238.081398 
L 278.1396 238.081398 
L 278.1396 234.861336 
L 278.9154 234.861336 
L 278.9154 231.694499 
L 279.6912 231.694499 
L 279.6912 228.660723 
L 280.467 228.660723 
L 280.467 225.733394 
L 281.2428 225.733394 
L 281.2428 222.939126 
L 282.0186 222.939126 
L 282.0186 220.331143 
L 282.7944 220.331143 
L 282.7944 217.882832 
L 283.5702 217.882832 
L 283.5702 215.647417 
L 284.346 215.647417 
L 284.346 213.651512 
L 285.1218 213.651512 
L 285.1218 211.921727 
L 285.8976 211.921727 
L 285.8976 210.484675 
L 286.6734 210.484675 
L 286.6734 209.366967 
L 287.4492 209.366967 
L 287.4492 208.568605 
L 288.225 208.568605 
L 288.225 208.1162 
L 289.7766 208.036364 
L 289.7766 208.329096 
L 290.5524 208.329096 
L 290.5524 208.967786 
L 291.3282 208.967786 
L 291.3282 209.925821 
L 292.104 209.925821 
L 292.104 211.203201 
L 292.8798 211.203201 
L 292.8798 212.720089 
L 293.6556 212.720089 
L 293.6556 214.449874 
L 294.4314 214.449874 
L 294.4314 216.339331 
L 295.2072 216.339331 
L 295.2072 218.388461 
L 295.983 218.388461 
L 295.983 220.517427 
L 296.7588 220.517427 
L 296.7588 222.752842 
L 297.5346 222.752842 
L 297.5346 225.094704 
L 298.3104 225.094704 
L 298.3104 227.543015 
L 299.0862 227.543015 
L 299.0862 230.097775 
L 299.862 230.097775 
L 299.862 232.73237 
L 300.6378 232.73237 
L 300.6378 235.473414 
L 301.4136 235.473414 
L 301.4136 238.267682 
L 302.1894 238.267682 
L 302.1894 241.115174 
L 302.9652 241.115174 
L 302.9652 243.989279 
L 303.741 243.989279 
L 303.741 246.863383 
L 304.5168 246.863383 
L 304.5168 249.764099 
L 305.2926 249.764099 
L 305.2926 252.664815 
L 306.0684 252.664815 
L 306.0684 255.53892 
L 306.8442 255.53892 
L 306.8442 258.439636 
L 307.62 258.439636 
L 307.62 261.366964 
L 308.3958 261.366964 
L 308.3958 264.267681 
L 309.1716 264.267681 
L 309.1716 267.195009 
L 309.9474 267.195009 
L 309.9474 270.122337 
L 310.7232 270.122337 
L 310.7232 273.049666 
L 311.499 273.049666 
L 311.499 275.950382 
L 312.2748 275.950382 
L 312.2748 278.797874 
L 313.0506 278.797874 
L 313.0506 281.618754 
L 313.8264 281.618754 
L 313.8264 284.38641 
L 314.6022 284.38641 
L 314.6022 287.07423 
L 315.378 287.07423 
L 315.378 289.682213 
L 316.1538 289.682213 
L 316.1538 292.183748 
L 316.9296 292.183748 
L 316.9296 294.605447 
L 317.7054 294.605447 
L 317.7054 296.920698 
L 318.4812 296.920698 
L 318.4812 299.102888 
L 319.257 299.102888 
L 319.257 301.205242 
L 320.0328 301.205242 
L 320.0328 303.174536 
L 320.8086 303.174536 
L 320.8086 305.037381 
L 321.5844 305.037381 
L 321.5844 306.767166 
L 322.3602 306.767166 
L 322.3602 308.390503 
L 323.136 308.390503 
L 323.136 309.907391 
L 323.9118 309.907391 
L 323.9118 311.344443 
L 324.6876 311.344443 
L 324.6876 312.648435 
L 325.4634 312.648435 
L 325.4634 313.872591 
L 326.2392 313.872591 
L 326.2392 314.990298 
L 327.015 314.990298 
L 327.015 316.028169 
L 327.7908 316.028169 
L 327.7908 316.986203 
L 328.5666 316.986203 
L 328.5666 317.864402 
L 329.3424 317.864402 
L 329.3424 318.689376 
L 330.1182 318.689376 
L 330.1182 319.487739 
L 330.894 319.487739 
L 330.894 320.232877 
L 331.6698 320.232877 
L 331.6698 320.951403 
L 332.4456 320.951403 
L 332.4456 321.643317 
L 333.2214 321.643317 
L 333.2214 322.282007 
L 333.9972 322.282007 
L 333.9972 322.894084 
L 334.773 322.894084 
L 334.773 323.452938 
L 335.5488 323.452938 
L 335.5488 323.985179 
L 336.3246 323.985179 
L 336.3246 324.490809 
L 337.1004 324.490809 
L 337.1004 324.969826 
L 337.8762 324.969826 
L 337.8762 325.39562 
L 338.652 325.39562 
L 338.652 325.821413 
L 339.4278 325.821413 
L 339.4278 326.220594 
L 340.2036 326.220594 
L 340.2036 326.593163 
L 340.9794 326.593163 
L 340.9794 326.93912 
L 341.7552 326.93912 
L 341.7552 327.258465 
L 342.531 327.258465 
L 342.531 327.551198 
L 343.3068 327.551198 
L 343.3068 327.790706 
L 344.0826 327.790706 
L 344.0826 328.003603 
L 344.8584 328.003603 
L 344.8584 328.2165 
L 345.6342 328.2165 
L 345.6342 328.34956 
L 346.41 328.34956 
L 346.41 328.48262 
L 347.1858 328.48262 
L 347.1858 328.615681 
L 348.7374 328.695517 
L 348.7374 328.775353 
L 350.289 328.855189 
L 350.289 328.908414 
L 351.8406 328.98825 
L 351.8406 329.041474 
L 354.168 329.147922 
L 354.168 329.201146 
L 356.4954 329.280983 
L 356.4954 329.334207 
L 358.8228 329.414043 
L 358.8228 329.467267 
L 361.926 329.573715 
L 361.926 329.600328 
L 370.4598 329.706776 
L 370.4598 329.733388 
L 385.2 329.76 
L 385.2 329.76 
" clip-path="url(#p81f6cf88ce)" style="fill: none; stroke: #ff0000; stroke-width: 1.5; stroke-linecap: square"/>
   </g>
   <g id="patch_13">
    <path d="M 230.04 329.76 
L 230.04 195.864 
" style="fill: none; stroke: #000000; stroke-width: 0.8; stroke-linejoin: miter; stroke-linecap: square"/>
   </g>
   <g id="patch_14">
    <path d="M 385.2 329.76 
L 385.2 195.864 
" style="fill: none; stroke: #000000; stroke-width: 0.8; stroke-linejoin: miter; stroke-linecap: square"/>
   </g>
   <g id="patch_15">
    <path d="M 230.04 329.76 
L 385.2 329.76 
" style="fill: none; stroke: #000000; stroke-width: 0.8; stroke-linejoin: miter; stroke-linecap: square"/>
   </g>
   <g id="patch_16">
    <path d="M 230.04 195.864 
L 385.2 195.864 
" style="fill: none; stroke: #000000; stroke-width: 0.8; stroke-linejoin: miter; stroke-linecap: square"/>
   </g>
   <g id="text_17">
    <!-- $n$ = ${-0.0661}_{-0.4121}^{+0.4537}$ -->
    <g transform="translate(240.98 189.864) scale(0.14 -0.14)">
     <use xlink:href="#DejaVuSans-Oblique-6e" transform="translate(0 0.765625)"/>
     <use xlink:href="#DejaVuSans-20" transform="translate(63.378906 0.765625)"/>
     <use xlink:href="#DejaVuSans-3d" transform="translate(95.166016 0.765625)"/>
     <use xlink:href="#DejaVuSans-20" transform="translate(178.955078 0.765625)"/>
     <use xlink:href="#DejaVuSans-2212" transform="translate(210.742188 0.765625)"/>
     <use xlink:href="#DejaVuSans-30" transform="translate(294.53125 0.765625)"/>
     <use xlink:href="#DejaVuSans-2e" transform="translate(358.154297 0.765625)"/>
     <use xlink:href="#DejaVuSans-30" transform="translate(389.941406 0.765625)"/>
     <use xlink:href="#DejaVuSans-36" transform="translate(453.564453 0.765625)"/>
     <use xlink:href="#DejaVuSans-36" transform="translate(517.1875 0.765625)"/>
     <use xlink:href="#DejaVuSans-31" transform="translate(580.810547 0.765625)"/>
     <use xlink:href="#DejaVuSans-2b" transform="translate(645.390625 39.046875) scale(0.7)"/>
     <use xlink:href="#DejaVuSans-30" transform="translate(704.042969 39.046875) scale(0.7)"/>
     <use xlink:href="#DejaVuSans-2e" transform="translate(748.579102 39.046875) scale(0.7)"/>
     <use xlink:href="#DejaVuSans-34" transform="translate(770.830078 39.046875) scale(0.7)"/>
     <use xlink:href="#DejaVuSans-35" transform="translate(815.366211 39.046875) scale(0.7)"/>
     <use xlink:href="#DejaVuSans-33" transform="translate(859.902344 39.046875) scale(0.7)"/>
     <use xlink:href="#DejaVuSans-37" transform="translate(904.438477 39.046875) scale(0.7)"/>
     <use xlink:href="#DejaVuSans-2212" transform="translate(645.390625 -26.578125) scale(0.7)"/>
     <use xlink:href="#DejaVuSans-30" transform="translate(704.042969 -26.578125) scale(0.7)"/>
     <use xlink:href="#DejaVuSans-2e" transform="translate(748.579102 -26.578125) scale(0.7)"/>
     <use xlink:href="#DejaVuSans-34" transform="translate(770.830078 -26.578125) scale(0.7)"/>
     <use xlink:href="#DejaVuSans-31" transform="translate(815.366211 -26.578125) scale(0.7)"/>
     <use xlink:href="#DejaVuSans-32" transform="translate(859.902344 -26.578125) scale(0.7)"/>
     <use xlink:href="#DejaVuSans-31" transform="translate(904.438477 -26.578125) scale(0.7)"/>
    </g>
   </g>
  </g>
 </g>
 <defs>
  <clipPath id="p6a53198e9e">
   <rect x="64.08" y="30.984" width="155.16" height="133.896"/>
  </clipPath>
  <clipPath id="pcc82de99dd">
   <rect x="64.08" y="195.864" width="155.16" height="133.896"/>
  </clipPath>
  <clipPath id="p81f6cf88ce">
   <rect x="230.04" y="195.864" width="155.16" height="133.896"/>
  </clipPath>
 </defs>
</svg>
