<?xml version="1.0" encoding="utf-8" standalone="no"?>
<!DOCTYPE svg PUBLIC "-//W3C//DTD SVG 1.1//EN"
  "http://www.w3.org/Graphics/SVG/1.1/DTD/svg11.dtd">
<svg xmlns:xlink="http://www.w3.org/1999/xlink" width="396pt" height="396pt" viewBox="0 0 396 396" xmlns="http://www.w3.org/2000/svg" version="1.1">
 <metadata>
  <rdf:RDF xmlns:dc="http://purl.org/dc/elements/1.1/" xmlns:cc="http://creativecommons.org/ns#" xmlns:rdf="http://www.w3.org/1999/02/22-rdf-syntax-ns#">
   <cc:Work>
    <dc:type rdf:resource="http://purl.org/dc/dcmitype/StillImage"/>
    <dc:date>2024-11-19T13:44:27.011586</dc:date>
    <dc:format>image/svg+xml</dc:format>
    <dc:creator>
     <cc:Agent>
      <dc:title>Matplotlib v3.9.2, https://matplotlib.org/</dc:title>
     </cc:Agent>
    </dc:creator>
   </cc:Work>
  </rdf:RDF>
 </metadata>
 <defs>
  <style type="text/css">*{stroke-linejoin: round; stroke-linecap: butt}</style>
 </defs>
 <g id="figure_1">
  <g id="patch_1">
   <path d="M 0 396 
L 396 396 
L 396 0 
L 0 0 
z
" style="fill: #ffffff"/>
  </g>
  <g id="axes_1">
   <g id="patch_2">
    <path d="M 64.368 164.88 
L 213.324386 164.88 
L 213.324386 30.984 
L 64.368 30.984 
z
" style="fill: #ffffff"/>
   </g>
   <g id="matplotlib.axis_1">
    <g id="xtick_1">
     <g id="line2d_1">
      <defs>
       <path id="m5f2843a613" d="M 0 0 
L 0 3.5 
" style="stroke: #000000; stroke-width: 0.8"/>
      </defs>
      <g>
       <use xlink:href="#m5f2843a613" x="79.662648" y="164.88" style="stroke: #000000; stroke-width: 0.8"/>
      </g>
     </g>
    </g>
    <g id="xtick_2">
     <g id="line2d_2">
      <g>
       <use xlink:href="#m5f2843a613" x="116.227567" y="164.88" style="stroke: #000000; stroke-width: 0.8"/>
      </g>
     </g>
    </g>
    <g id="xtick_3">
     <g id="line2d_3">
      <g>
       <use xlink:href="#m5f2843a613" x="152.792486" y="164.88" style="stroke: #000000; stroke-width: 0.8"/>
      </g>
     </g>
    </g>
    <g id="xtick_4">
     <g id="line2d_4">
      <g>
       <use xlink:href="#m5f2843a613" x="189.357405" y="164.88" style="stroke: #000000; stroke-width: 0.8"/>
      </g>
     </g>
    </g>
   </g>
   <g id="matplotlib.axis_2"/>
   <g id="line2d_5">
    <path d="M 64.368 164.800407 
L 77.774075 164.694284 
L 77.774075 164.667753 
L 81.497984 164.56163 
L 81.497984 164.535099 
L 82.987548 164.455506 
L 82.987548 164.402444 
L 84.477112 164.322852 
L 84.477112 164.216728 
L 85.966676 164.110605 
L 85.966676 163.97795 
L 86.711458 163.97795 
L 86.711458 163.845296 
L 87.45624 163.845296 
L 87.45624 163.686111 
L 88.201022 163.686111 
L 88.201022 163.526926 
L 88.945804 163.526926 
L 88.945804 163.341209 
L 89.690586 163.341209 
L 89.690586 163.128963 
L 90.435368 163.128963 
L 90.435368 162.890185 
L 91.180149 162.890185 
L 91.180149 162.624876 
L 91.924931 162.624876 
L 91.924931 162.333036 
L 92.669713 162.333036 
L 92.669713 162.014666 
L 93.414495 162.014666 
L 93.414495 161.669765 
L 94.159277 161.669765 
L 94.159277 161.271802 
L 94.904059 161.271802 
L 94.904059 160.820777 
L 95.648841 160.820777 
L 95.648841 160.343221 
L 96.393623 160.343221 
L 96.393623 159.759542 
L 97.138405 159.759542 
L 97.138405 159.149332 
L 97.883187 159.149332 
L 97.883187 158.432998 
L 98.627969 158.432998 
L 98.627969 157.610541 
L 99.372751 157.610541 
L 99.372751 156.735023 
L 100.117533 156.735023 
L 100.117533 155.75338 
L 100.862315 155.75338 
L 100.862315 154.665615 
L 101.607096 154.665615 
L 101.607096 153.524787 
L 102.351878 153.524787 
L 102.351878 152.251305 
L 103.09666 152.251305 
L 103.09666 150.898231 
L 103.841442 150.898231 
L 103.841442 149.465564 
L 104.586224 149.465564 
L 104.586224 147.926773 
L 105.331006 147.926773 
L 105.331006 146.255329 
L 106.075788 146.255329 
L 106.075788 144.47776 
L 106.82057 144.47776 
L 106.82057 142.567537 
L 107.565352 142.567537 
L 107.565352 140.52466 
L 108.310134 140.52466 
L 108.310134 138.322598 
L 109.054916 138.322598 
L 109.054916 135.93482 
L 109.799698 135.93482 
L 109.799698 133.414387 
L 110.54448 133.414387 
L 110.54448 130.681707 
L 111.289262 130.681707 
L 111.289262 127.816373 
L 112.034043 127.816373 
L 112.034043 124.791854 
L 112.778825 124.791854 
L 112.778825 121.63468 
L 113.523607 121.63468 
L 113.523607 118.371383 
L 114.268389 118.371383 
L 114.268389 115.055024 
L 115.013171 115.055024 
L 115.013171 111.659073 
L 115.757953 111.659073 
L 115.757953 108.23659 
L 116.502735 108.23659 
L 116.502735 104.761046 
L 117.247517 104.761046 
L 117.247517 101.23244 
L 117.992299 101.23244 
L 117.992299 97.624242 
L 118.737081 97.624242 
L 118.737081 93.962982 
L 119.481863 93.962982 
L 119.481863 90.24866 
L 120.226645 90.24866 
L 120.226645 86.454745 
L 120.971427 86.454745 
L 120.971427 82.660831 
L 121.716209 82.660831 
L 121.716209 78.866916 
L 122.46099 78.866916 
L 122.46099 75.126063 
L 123.205772 75.126063 
L 123.205772 71.491334 
L 123.950554 71.491334 
L 123.950554 68.01579 
L 124.695336 68.01579 
L 124.695336 64.699431 
L 125.440118 64.699431 
L 125.440118 61.62185 
L 126.1849 61.62185 
L 126.1849 58.783047 
L 126.929682 58.783047 
L 126.929682 56.209552 
L 127.674464 56.209552 
L 127.674464 53.874836 
L 128.419246 53.874836 
L 128.419246 51.831958 
L 129.164028 51.831958 
L 129.164028 50.027859 
L 129.90881 50.027859 
L 129.90881 48.489069 
L 130.653592 48.489069 
L 130.653592 47.162525 
L 131.398374 47.162525 
L 131.398374 46.074759 
L 132.143156 46.074759 
L 132.143156 45.17271 
L 132.887938 45.17271 
L 132.887938 44.429845 
L 133.632719 44.429845 
L 133.632719 43.846166 
L 134.377501 43.846166 
L 134.377501 43.421672 
L 135.122283 43.421672 
L 135.122283 43.182895 
L 136.611847 43.156364 
L 136.611847 43.368611 
L 137.356629 43.368611 
L 137.356629 43.899228 
L 138.101411 43.899228 
L 138.101411 44.748216 
L 138.846193 44.748216 
L 138.846193 45.942105 
L 139.590975 45.942105 
L 139.590975 47.507426 
L 140.335757 47.507426 
L 140.335757 49.417649 
L 141.080539 49.417649 
L 141.080539 51.672773 
L 141.825321 51.672773 
L 141.825321 54.193206 
L 142.570103 54.193206 
L 142.570103 56.978947 
L 143.314885 56.978947 
L 143.314885 59.950405 
L 144.059666 59.950405 
L 144.059666 63.107579 
L 144.804448 63.107579 
L 144.804448 66.344345 
L 145.54923 66.344345 
L 145.54923 69.634173 
L 146.294012 69.634173 
L 146.294012 72.89747 
L 147.038794 72.89747 
L 147.038794 76.081175 
L 147.783576 76.081175 
L 147.783576 79.238348 
L 148.528358 79.238348 
L 148.528358 82.315929 
L 149.27314 82.315929 
L 149.27314 85.340449 
L 150.017922 85.340449 
L 150.017922 88.391499 
L 150.762704 88.391499 
L 150.762704 91.495611 
L 151.507486 91.495611 
L 151.507486 94.652784 
L 152.252268 94.652784 
L 152.252268 97.836489 
L 152.99705 97.836489 
L 152.99705 101.099786 
L 153.741832 101.099786 
L 153.741832 104.336552 
L 154.486613 104.336552 
L 154.486613 107.546788 
L 155.231395 107.546788 
L 155.231395 110.6509 
L 155.976177 110.6509 
L 155.976177 113.648888 
L 156.720959 113.648888 
L 156.720959 116.514222 
L 157.465741 116.514222 
L 157.465741 119.246902 
L 158.210523 119.246902 
L 158.210523 121.846927 
L 158.955305 121.846927 
L 158.955305 124.36736 
L 159.700087 124.36736 
L 159.700087 126.8082 
L 160.444869 126.8082 
L 160.444869 129.195978 
L 161.189651 129.195978 
L 161.189651 131.504164 
L 161.934433 131.504164 
L 161.934433 133.759288 
L 162.679215 133.759288 
L 162.679215 135.93482 
L 163.423997 135.93482 
L 163.423997 138.030759 
L 164.168779 138.030759 
L 164.168779 140.020574 
L 164.91356 140.020574 
L 164.91356 141.904266 
L 165.658342 141.904266 
L 165.658342 143.655303 
L 166.403124 143.655303 
L 166.403124 145.326748 
L 167.147906 145.326748 
L 167.147906 146.892069 
L 167.892688 146.892069 
L 167.892688 148.377798 
L 168.63747 148.377798 
L 168.63747 149.757404 
L 169.382252 149.757404 
L 169.382252 151.057416 
L 170.127034 151.057416 
L 170.127034 152.277836 
L 170.871816 152.277836 
L 170.871816 153.418664 
L 171.616598 153.418664 
L 171.616598 154.453368 
L 172.36138 154.453368 
L 172.36138 155.43501 
L 173.106162 155.43501 
L 173.106162 156.310529 
L 173.850944 156.310529 
L 173.850944 157.132986 
L 174.595726 157.132986 
L 174.595726 157.87585 
L 175.340507 157.87585 
L 175.340507 158.539122 
L 176.085289 158.539122 
L 176.085289 159.149332 
L 176.830071 159.149332 
L 176.830071 159.70648 
L 177.574853 159.70648 
L 177.574853 160.184036 
L 178.319635 160.184036 
L 178.319635 160.635061 
L 179.064417 160.635061 
L 179.064417 161.006493 
L 179.809199 161.006493 
L 179.809199 161.377925 
L 180.553981 161.377925 
L 180.553981 161.696295 
L 181.298763 161.696295 
L 181.298763 161.988135 
L 182.043545 161.988135 
L 182.043545 162.253444 
L 182.788327 162.253444 
L 182.788327 162.518752 
L 183.533109 162.518752 
L 183.533109 162.784061 
L 184.277891 162.784061 
L 184.277891 162.996308 
L 185.022673 162.996308 
L 185.022673 163.208555 
L 185.767455 163.208555 
L 185.767455 163.420802 
L 186.512236 163.420802 
L 186.512236 163.579987 
L 187.257018 163.579987 
L 187.257018 163.712642 
L 188.0018 163.712642 
L 188.0018 163.845296 
L 189.491364 163.95142 
L 189.491364 164.031012 
L 190.980928 164.137136 
L 190.980928 164.190197 
L 192.470492 164.26979 
L 192.470492 164.322852 
L 193.960056 164.402444 
L 193.960056 164.455506 
L 196.194402 164.56163 
L 196.194402 164.614691 
L 199.173529 164.720815 
L 199.173529 164.747346 
L 213.324386 164.853469 
L 213.324386 164.853469 
" clip-path="url(#pc4397f3687)" style="fill: none; stroke: #ff0000; stroke-width: 1.5; stroke-linecap: square"/>
   </g>
   <g id="patch_3">
    <path d="M 64.368 164.88 
L 64.368 30.984 
" style="fill: none; stroke: #000000; stroke-width: 0.8; stroke-linejoin: miter; stroke-linecap: square"/>
   </g>
   <g id="patch_4">
    <path d="M 213.324386 164.88 
L 213.324386 30.984 
" style="fill: none; stroke: #000000; stroke-width: 0.8; stroke-linejoin: miter; stroke-linecap: square"/>
   </g>
   <g id="patch_5">
    <path d="M 64.368 164.88 
L 213.324386 164.88 
" style="fill: none; stroke: #000000; stroke-width: 0.8; stroke-linejoin: miter; stroke-linecap: square"/>
   </g>
   <g id="patch_6">
    <path d="M 64.368 30.984 
L 213.324386 30.984 
" style="fill: none; stroke: #000000; stroke-width: 0.8; stroke-linejoin: miter; stroke-linecap: square"/>
   </g>
   <g id="text_1">
    <!-- $\Omega_{2,0}$ = ${0.3014}_{-0.0165}^{+0.0174}$ -->
    <g transform="translate(68.146193 24.984) scale(0.14 -0.14)">
     <defs>
      <path id="DejaVuSans-3a9" d="M 4647 556 
L 4647 0 
L 2772 0 
L 2772 556 
Q 3325 859 3634 1378 
Q 3944 1897 3944 2528 
Q 3944 3278 3531 3731 
Q 3119 4184 2444 4184 
Q 1769 4184 1355 3729 
Q 941 3275 941 2528 
Q 941 1897 1250 1378 
Q 1563 859 2119 556 
L 2119 0 
L 244 0 
L 244 556 
L 1241 556 
Q 747 991 519 1456 
Q 294 1922 294 2497 
Q 294 3491 894 4106 
Q 1491 4722 2444 4722 
Q 3391 4722 3994 4106 
Q 4594 3494 4594 2528 
Q 4594 1922 4372 1459 
Q 4150 997 3647 556 
L 4647 556 
z
" transform="scale(0.015625)"/>
      <path id="DejaVuSans-32" d="M 1228 531 
L 3431 531 
L 3431 0 
L 469 0 
L 469 531 
Q 828 903 1448 1529 
Q 2069 2156 2228 2338 
Q 2531 2678 2651 2914 
Q 2772 3150 2772 3378 
Q 2772 3750 2511 3984 
Q 2250 4219 1831 4219 
Q 1534 4219 1204 4116 
Q 875 4013 500 3803 
L 500 4441 
Q 881 4594 1212 4672 
Q 1544 4750 1819 4750 
Q 2544 4750 2975 4387 
Q 3406 4025 3406 3419 
Q 3406 3131 3298 2873 
Q 3191 2616 2906 2266 
Q 2828 2175 2409 1742 
Q 1991 1309 1228 531 
z
" transform="scale(0.015625)"/>
      <path id="DejaVuSans-2c" d="M 750 794 
L 1409 794 
L 1409 256 
L 897 -744 
L 494 -744 
L 750 256 
L 750 794 
z
" transform="scale(0.015625)"/>
      <path id="DejaVuSans-30" d="M 2034 4250 
Q 1547 4250 1301 3770 
Q 1056 3291 1056 2328 
Q 1056 1369 1301 889 
Q 1547 409 2034 409 
Q 2525 409 2770 889 
Q 3016 1369 3016 2328 
Q 3016 3291 2770 3770 
Q 2525 4250 2034 4250 
z
M 2034 4750 
Q 2819 4750 3233 4129 
Q 3647 3509 3647 2328 
Q 3647 1150 3233 529 
Q 2819 -91 2034 -91 
Q 1250 -91 836 529 
Q 422 1150 422 2328 
Q 422 3509 836 4129 
Q 1250 4750 2034 4750 
z
" transform="scale(0.015625)"/>
      <path id="DejaVuSans-20" transform="scale(0.015625)"/>
      <path id="DejaVuSans-3d" d="M 678 2906 
L 4684 2906 
L 4684 2381 
L 678 2381 
L 678 2906 
z
M 678 1631 
L 4684 1631 
L 4684 1100 
L 678 1100 
L 678 1631 
z
" transform="scale(0.015625)"/>
      <path id="DejaVuSans-2e" d="M 684 794 
L 1344 794 
L 1344 0 
L 684 0 
L 684 794 
z
" transform="scale(0.015625)"/>
      <path id="DejaVuSans-33" d="M 2597 2516 
Q 3050 2419 3304 2112 
Q 3559 1806 3559 1356 
Q 3559 666 3084 287 
Q 2609 -91 1734 -91 
Q 1441 -91 1130 -33 
Q 819 25 488 141 
L 488 750 
Q 750 597 1062 519 
Q 1375 441 1716 441 
Q 2309 441 2620 675 
Q 2931 909 2931 1356 
Q 2931 1769 2642 2001 
Q 2353 2234 1838 2234 
L 1294 2234 
L 1294 2753 
L 1863 2753 
Q 2328 2753 2575 2939 
Q 2822 3125 2822 3475 
Q 2822 3834 2567 4026 
Q 2313 4219 1838 4219 
Q 1578 4219 1281 4162 
Q 984 4106 628 3988 
L 628 4550 
Q 988 4650 1302 4700 
Q 1616 4750 1894 4750 
Q 2613 4750 3031 4423 
Q 3450 4097 3450 3541 
Q 3450 3153 3228 2886 
Q 3006 2619 2597 2516 
z
" transform="scale(0.015625)"/>
      <path id="DejaVuSans-31" d="M 794 531 
L 1825 531 
L 1825 4091 
L 703 3866 
L 703 4441 
L 1819 4666 
L 2450 4666 
L 2450 531 
L 3481 531 
L 3481 0 
L 794 0 
L 794 531 
z
" transform="scale(0.015625)"/>
      <path id="DejaVuSans-34" d="M 2419 4116 
L 825 1625 
L 2419 1625 
L 2419 4116 
z
M 2253 4666 
L 3047 4666 
L 3047 1625 
L 3713 1625 
L 3713 1100 
L 3047 1100 
L 3047 0 
L 2419 0 
L 2419 1100 
L 313 1100 
L 313 1709 
L 2253 4666 
z
" transform="scale(0.015625)"/>
      <path id="DejaVuSans-2b" d="M 2944 4013 
L 2944 2272 
L 4684 2272 
L 4684 1741 
L 2944 1741 
L 2944 0 
L 2419 0 
L 2419 1741 
L 678 1741 
L 678 2272 
L 2419 2272 
L 2419 4013 
L 2944 4013 
z
" transform="scale(0.015625)"/>
      <path id="DejaVuSans-37" d="M 525 4666 
L 3525 4666 
L 3525 4397 
L 1831 0 
L 1172 0 
L 2766 4134 
L 525 4134 
L 525 4666 
z
" transform="scale(0.015625)"/>
      <path id="DejaVuSans-2212" d="M 678 2272 
L 4684 2272 
L 4684 1741 
L 678 1741 
L 678 2272 
z
" transform="scale(0.015625)"/>
      <path id="DejaVuSans-36" d="M 2113 2584 
Q 1688 2584 1439 2293 
Q 1191 2003 1191 1497 
Q 1191 994 1439 701 
Q 1688 409 2113 409 
Q 2538 409 2786 701 
Q 3034 994 3034 1497 
Q 3034 2003 2786 2293 
Q 2538 2584 2113 2584 
z
M 3366 4563 
L 3366 3988 
Q 3128 4100 2886 4159 
Q 2644 4219 2406 4219 
Q 1781 4219 1451 3797 
Q 1122 3375 1075 2522 
Q 1259 2794 1537 2939 
Q 1816 3084 2150 3084 
Q 2853 3084 3261 2657 
Q 3669 2231 3669 1497 
Q 3669 778 3244 343 
Q 2819 -91 2113 -91 
Q 1303 -91 875 529 
Q 447 1150 447 2328 
Q 447 3434 972 4092 
Q 1497 4750 2381 4750 
Q 2619 4750 2861 4703 
Q 3103 4656 3366 4563 
z
" transform="scale(0.015625)"/>
      <path id="DejaVuSans-35" d="M 691 4666 
L 3169 4666 
L 3169 4134 
L 1269 4134 
L 1269 2991 
Q 1406 3038 1543 3061 
Q 1681 3084 1819 3084 
Q 2600 3084 3056 2656 
Q 3513 2228 3513 1497 
Q 3513 744 3044 326 
Q 2575 -91 1722 -91 
Q 1428 -91 1123 -41 
Q 819 9 494 109 
L 494 744 
Q 775 591 1075 516 
Q 1375 441 1709 441 
Q 2250 441 2565 725 
Q 2881 1009 2881 1497 
Q 2881 1984 2565 2268 
Q 2250 2553 1709 2553 
Q 1456 2553 1204 2497 
Q 953 2441 691 2322 
L 691 4666 
z
" transform="scale(0.015625)"/>
     </defs>
     <use xlink:href="#DejaVuSans-3a9" transform="translate(0 0.765625)"/>
     <use xlink:href="#DejaVuSans-32" transform="translate(77.373047 -15.640625) scale(0.7)"/>
     <use xlink:href="#DejaVuSans-2c" transform="translate(121.90918 -15.640625) scale(0.7)"/>
     <use xlink:href="#DejaVuSans-30" transform="translate(157.797852 -15.640625) scale(0.7)"/>
     <use xlink:href="#DejaVuSans-20" transform="translate(205.068359 0.765625)"/>
     <use xlink:href="#DejaVuSans-3d" transform="translate(236.855469 0.765625)"/>
     <use xlink:href="#DejaVuSans-20" transform="translate(320.644531 0.765625)"/>
     <use xlink:href="#DejaVuSans-30" transform="translate(352.431641 0.765625)"/>
     <use xlink:href="#DejaVuSans-2e" transform="translate(416.054688 0.765625)"/>
     <use xlink:href="#DejaVuSans-33" transform="translate(447.841797 0.765625)"/>
     <use xlink:href="#DejaVuSans-30" transform="translate(511.464844 0.765625)"/>
     <use xlink:href="#DejaVuSans-31" transform="translate(575.087891 0.765625)"/>
     <use xlink:href="#DejaVuSans-34" transform="translate(638.710938 0.765625)"/>
     <use xlink:href="#DejaVuSans-2b" transform="translate(703.291016 39.046875) scale(0.7)"/>
     <use xlink:href="#DejaVuSans-30" transform="translate(761.943359 39.046875) scale(0.7)"/>
     <use xlink:href="#DejaVuSans-2e" transform="translate(806.479492 39.046875) scale(0.7)"/>
     <use xlink:href="#DejaVuSans-30" transform="translate(828.730469 39.046875) scale(0.7)"/>
     <use xlink:href="#DejaVuSans-31" transform="translate(873.266602 39.046875) scale(0.7)"/>
     <use xlink:href="#DejaVuSans-37" transform="translate(917.802734 39.046875) scale(0.7)"/>
     <use xlink:href="#DejaVuSans-34" transform="translate(962.338867 39.046875) scale(0.7)"/>
     <use xlink:href="#DejaVuSans-2212" transform="translate(703.291016 -26.578125) scale(0.7)"/>
     <use xlink:href="#DejaVuSans-30" transform="translate(761.943359 -26.578125) scale(0.7)"/>
     <use xlink:href="#DejaVuSans-2e" transform="translate(806.479492 -26.578125) scale(0.7)"/>
     <use xlink:href="#DejaVuSans-30" transform="translate(828.730469 -26.578125) scale(0.7)"/>
     <use xlink:href="#DejaVuSans-31" transform="translate(873.266602 -26.578125) scale(0.7)"/>
     <use xlink:href="#DejaVuSans-36" transform="translate(917.802734 -26.578125) scale(0.7)"/>
     <use xlink:href="#DejaVuSans-35" transform="translate(962.338867 -26.578125) scale(0.7)"/>
    </g>
   </g>
  </g>
  <g id="axes_2">
   <g id="matplotlib.axis_3"/>
   <g id="matplotlib.axis_4"/>
  </g>
  <g id="axes_3">
   <g id="patch_7">
    <path d="M 64.368 329.76 
L 213.324386 329.76 
L 213.324386 195.864 
L 64.368 195.864 
z
" style="fill: #ffffff"/>
   </g>
   <g id="QuadContourSet_1">
    <path d="M 116.502735 286.633774 
L 119.481863 287.441376 
L 122.46099 288.016695 
L 125.440118 288.213928 
L 128.419246 287.996823 
L 131.398374 287.515846 
L 134.377501 286.872843 
L 137.356629 286.647361 
L 140.335757 286.543256 
L 143.003712 285.57432 
L 143.314885 285.484061 
L 146.294012 283.814098 
L 147.666209 282.8964 
L 149.27314 281.521302 
L 150.800237 280.21848 
L 152.252268 279.041836 
L 153.835598 277.54056 
L 155.231395 276.655986 
L 158.210523 274.912229 
L 158.326242 274.86264 
L 161.189651 273.826042 
L 163.726728 272.18472 
L 164.168779 271.832938 
L 166.996665 269.5068 
L 167.147906 269.390595 
L 170.127034 266.856117 
L 170.154425 266.82888 
L 172.094453 264.15096 
L 173.106162 261.671519 
L 173.221459 261.47304 
L 174.913001 258.79512 
L 176.085289 256.1172 
L 176.085289 256.1172 
L 177.197555 253.43928 
L 178.400103 250.76136 
L 178.953358 248.08344 
L 178.839656 245.40552 
L 178.315091 242.7276 
L 177.642547 240.04968 
L 176.849004 237.37176 
L 176.085289 236.112238 
L 175.309334 234.69384 
L 173.106162 232.403985 
L 172.716082 232.01592 
L 170.127034 229.790628 
L 169.534605 229.338 
L 167.147906 227.686497 
L 165.262425 226.66008 
L 164.168779 226.06381 
L 161.189651 224.547036 
L 159.471739 223.98216 
L 158.210523 223.494384 
L 155.231395 222.376552 
L 152.428325 221.30424 
L 152.252268 221.203319 
L 149.27314 219.683693 
L 146.294012 218.992705 
L 144.370563 218.62632 
L 143.314885 218.342486 
L 140.335757 217.349413 
L 137.356629 216.702854 
L 134.377501 216.220481 
L 132.752707 215.9484 
L 131.398374 215.604107 
L 128.419246 214.766841 
L 125.440118 214.145097 
L 122.46099 213.858187 
L 119.481863 213.813967 
L 116.502735 213.939608 
L 113.523607 214.409002 
L 110.54448 215.27418 
L 108.14929 215.9484 
L 107.565352 216.155479 
L 104.586224 217.71677 
L 103.53007 218.62632 
L 101.607096 220.923285 
L 101.348241 221.30424 
L 100.062899 223.98216 
L 99.606992 226.66008 
L 99.345462 229.338 
L 99.169786 232.01592 
L 99.328334 234.69384 
L 99.908189 237.37176 
L 100.306449 240.04968 
L 100.457334 242.7276 
L 100.802161 245.40552 
L 101.236117 248.08344 
L 101.453871 250.76136 
L 101.22432 253.43928 
L 100.782446 256.1172 
L 100.806855 258.79512 
L 101.456502 261.47304 
L 101.607096 261.870219 
L 102.369161 264.15096 
L 103.327469 266.82888 
L 103.871236 269.5068 
L 104.542946 272.18472 
L 104.586224 272.282723 
L 105.630763 274.86264 
L 107.073809 277.54056 
L 107.565352 278.236559 
L 109.079962 280.21848 
L 110.54448 281.856331 
L 111.612404 282.8964 
L 113.523607 285.05134 
L 114.281786 285.57432 
z
" clip-path="url(#p882160c3ef)" style="fill: #ffffff"/>
   </g>
   <g id="QuadContourSet_2">
    <path d="M 62.878436 333.77688 
L 65.857564 333.77688 
L 68.836692 333.77688 
L 71.815819 333.77688 
L 74.794947 333.77688 
L 77.774075 333.77688 
L 80.753202 333.77688 
L 83.73233 333.77688 
L 86.711458 333.77688 
L 89.690586 333.77688 
L 92.669713 333.77688 
L 95.648841 333.77688 
L 98.627969 333.77688 
L 101.607096 333.77688 
L 104.586224 333.77688 
L 107.565352 333.77688 
L 110.54448 333.77688 
L 113.523607 333.77688 
L 116.502735 333.77688 
L 119.481863 333.77688 
L 122.46099 333.77688 
L 125.440118 333.77688 
L 128.419246 333.77688 
L 131.398374 333.77688 
L 134.377501 333.77688 
L 137.356629 333.77688 
L 140.335757 333.77688 
L 143.314885 333.77688 
L 146.294012 333.77688 
L 149.27314 333.77688 
L 152.252268 333.77688 
L 155.231395 333.77688 
L 158.210523 333.77688 
L 161.189651 333.77688 
L 164.168779 333.77688 
L 167.147906 333.77688 
L 170.127034 333.77688 
L 173.106162 333.77688 
L 176.085289 333.77688 
L 179.064417 333.77688 
L 182.043545 333.77688 
L 185.022673 333.77688 
L 188.0018 333.77688 
L 190.980928 333.77688 
L 193.960056 333.77688 
L 196.939183 333.77688 
L 199.918311 333.77688 
L 202.897439 333.77688 
L 205.876567 333.77688 
L 208.855694 333.77688 
L 211.834822 333.77688 
L 214.81395 333.77688 
L 217.793077 333.77688 
L 217.793077 331.09896 
L 217.793077 328.42104 
L 217.793077 325.74312 
L 217.793077 323.0652 
L 217.793077 320.38728 
L 217.793077 317.70936 
L 217.793077 315.03144 
L 217.793077 312.35352 
L 217.793077 309.6756 
L 217.793077 306.99768 
L 217.793077 304.31976 
L 217.793077 301.64184 
L 217.793077 298.96392 
L 217.793077 296.286 
L 217.793077 293.60808 
L 217.793077 290.93016 
L 217.793077 288.25224 
L 217.793077 285.57432 
L 217.793077 282.8964 
L 217.793077 280.21848 
L 217.793077 277.54056 
L 217.793077 274.86264 
L 217.793077 272.18472 
L 217.793077 269.5068 
L 217.793077 266.82888 
L 217.793077 264.15096 
L 217.793077 261.47304 
L 217.793077 258.79512 
L 217.793077 256.1172 
L 217.793077 253.43928 
L 217.793077 250.76136 
L 217.793077 248.08344 
L 217.793077 245.40552 
L 217.793077 242.7276 
L 217.793077 240.04968 
L 217.793077 237.37176 
L 217.793077 234.69384 
L 217.793077 232.01592 
L 217.793077 229.338 
L 217.793077 226.66008 
L 217.793077 223.98216 
L 217.793077 221.30424 
L 217.793077 218.62632 
L 217.793077 215.9484 
L 217.793077 213.27048 
L 217.793077 210.59256 
L 217.793077 207.91464 
L 217.793077 205.23672 
L 217.793077 202.5588 
L 217.793077 199.88088 
L 217.793077 197.20296 
L 217.793077 194.52504 
L 217.793077 191.84712 
L 214.81395 191.84712 
L 211.834822 191.84712 
L 208.855694 191.84712 
L 205.876567 191.84712 
L 202.897439 191.84712 
L 199.918311 191.84712 
L 196.939183 191.84712 
L 193.960056 191.84712 
L 190.980928 191.84712 
L 188.0018 191.84712 
L 185.022673 191.84712 
L 182.043545 191.84712 
L 179.064417 191.84712 
L 176.085289 191.84712 
L 173.106162 191.84712 
L 170.127034 191.84712 
L 167.147906 191.84712 
L 164.168779 191.84712 
L 161.189651 191.84712 
L 158.210523 191.84712 
L 155.231395 191.84712 
L 152.252268 191.84712 
L 149.27314 191.84712 
L 146.294012 191.84712 
L 143.314885 191.84712 
L 140.335757 191.84712 
L 137.356629 191.84712 
L 134.377501 191.84712 
L 131.398374 191.84712 
L 128.419246 191.84712 
L 125.440118 191.84712 
L 122.46099 191.84712 
L 119.481863 191.84712 
L 116.502735 191.84712 
L 113.523607 191.84712 
L 110.54448 191.84712 
L 107.565352 191.84712 
L 104.586224 191.84712 
L 101.607096 191.84712 
L 98.627969 191.84712 
L 95.648841 191.84712 
L 92.669713 191.84712 
L 89.690586 191.84712 
L 86.711458 191.84712 
L 83.73233 191.84712 
L 80.753202 191.84712 
L 77.774075 191.84712 
L 74.794947 191.84712 
L 71.815819 191.84712 
L 68.836692 191.84712 
L 65.857564 191.84712 
L 62.878436 191.84712 
L 59.899308 191.84712 
L 59.899308 194.52504 
L 59.899308 197.20296 
L 59.899308 199.88088 
L 59.899308 202.5588 
L 59.899308 205.23672 
L 59.899308 207.91464 
L 59.899308 210.59256 
L 59.899308 213.27048 
L 59.899308 215.9484 
L 59.899308 218.62632 
L 59.899308 221.30424 
L 59.899308 223.98216 
L 59.899308 226.66008 
L 59.899308 229.338 
L 59.899308 232.01592 
L 59.899308 234.69384 
L 59.899308 237.37176 
L 59.899308 240.04968 
L 59.899308 242.7276 
L 59.899308 245.40552 
L 59.899308 248.08344 
L 59.899308 250.76136 
L 59.899308 253.43928 
L 59.899308 256.1172 
L 59.899308 258.79512 
L 59.899308 261.47304 
L 59.899308 264.15096 
L 59.899308 266.82888 
L 59.899308 269.5068 
L 59.899308 272.18472 
L 59.899308 274.86264 
L 59.899308 277.54056 
L 59.899308 280.21848 
L 59.899308 282.8964 
L 59.899308 285.57432 
L 59.899308 288.25224 
L 59.899308 290.93016 
L 59.899308 293.60808 
L 59.899308 296.286 
L 59.899308 298.96392 
L 59.899308 301.64184 
L 59.899308 304.31976 
L 59.899308 306.99768 
L 59.899308 309.6756 
L 59.899308 312.35352 
L 59.899308 315.03144 
L 59.899308 317.70936 
L 59.899308 320.38728 
L 59.899308 323.0652 
L 59.899308 325.74312 
L 59.899308 328.42104 
L 59.899308 331.09896 
L 59.899308 333.77688 
L 62.878436 333.77688 
z
M 114.281786 285.57432 
L 113.523607 285.05134 
L 111.612404 282.8964 
L 110.54448 281.856331 
L 109.079962 280.21848 
L 107.565352 278.236559 
L 107.073809 277.54056 
L 105.630763 274.86264 
L 104.586224 272.282723 
L 104.542946 272.18472 
L 103.871236 269.5068 
L 103.327469 266.82888 
L 102.369161 264.15096 
L 101.607096 261.870219 
L 101.456502 261.47304 
L 100.806855 258.79512 
L 100.782446 256.1172 
L 101.22432 253.43928 
L 101.453871 250.76136 
L 101.236117 248.08344 
L 100.802161 245.40552 
L 100.457334 242.7276 
L 100.306449 240.04968 
L 99.908189 237.37176 
L 99.328334 234.69384 
L 99.169786 232.01592 
L 99.345462 229.338 
L 99.606992 226.66008 
L 100.062899 223.98216 
L 101.348241 221.30424 
L 101.607096 220.923285 
L 103.53007 218.62632 
L 104.586224 217.71677 
L 107.565352 216.155479 
L 108.14929 215.9484 
L 110.54448 215.27418 
L 113.523607 214.409002 
L 116.502735 213.939608 
L 119.481863 213.813967 
L 122.46099 213.858187 
L 125.440118 214.145097 
L 128.419246 214.766841 
L 131.398374 215.604107 
L 132.752707 215.9484 
L 134.377501 216.220481 
L 137.356629 216.702854 
L 140.335757 217.349413 
L 143.314885 218.342486 
L 144.370563 218.62632 
L 146.294012 218.992705 
L 149.27314 219.683693 
L 152.252268 221.203319 
L 152.428325 221.30424 
L 155.231395 222.376552 
L 158.210523 223.494384 
L 159.471739 223.98216 
L 161.189651 224.547036 
L 164.168779 226.06381 
L 165.262425 226.66008 
L 167.147906 227.686497 
L 169.534605 229.338 
L 170.127034 229.790628 
L 172.716082 232.01592 
L 173.106162 232.403985 
L 175.309334 234.69384 
L 176.085289 236.112238 
L 176.849004 237.37176 
L 177.642547 240.04968 
L 178.315091 242.7276 
L 178.839656 245.40552 
L 178.953358 248.08344 
L 178.400103 250.76136 
L 177.197555 253.43928 
L 176.085289 256.1172 
L 176.085289 256.1172 
L 174.913001 258.79512 
L 173.221459 261.47304 
L 173.106162 261.671519 
L 172.094453 264.15096 
L 170.154425 266.82888 
L 170.127034 266.856117 
L 167.147906 269.390595 
L 166.996665 269.5068 
L 164.168779 271.832938 
L 163.726728 272.18472 
L 161.189651 273.826042 
L 158.326242 274.86264 
L 158.210523 274.912229 
L 155.231395 276.655986 
L 153.835598 277.54056 
L 152.252268 279.041836 
L 150.800237 280.21848 
L 149.27314 281.521302 
L 147.666209 282.8964 
L 146.294012 283.814098 
L 143.314885 285.484061 
L 143.003712 285.57432 
L 140.335757 286.543256 
L 137.356629 286.647361 
L 134.377501 286.872843 
L 131.398374 287.515846 
L 128.419246 287.996823 
L 125.440118 288.213928 
L 122.46099 288.016695 
L 119.481863 287.441376 
L 116.502735 286.633774 
L 114.281786 285.57432 
z
" clip-path="url(#p882160c3ef)" style="fill: none"/>
    <path d="M 116.502735 286.633774 
L 119.481863 287.441376 
L 122.46099 288.016695 
L 125.440118 288.213928 
L 128.419246 287.996823 
L 131.398374 287.515846 
L 134.377501 286.872843 
L 137.356629 286.647361 
L 140.335757 286.543256 
L 143.003712 285.57432 
L 143.314885 285.484061 
L 146.294012 283.814098 
L 147.666209 282.8964 
L 149.27314 281.521302 
L 150.800237 280.21848 
L 152.252268 279.041836 
L 153.835598 277.54056 
L 155.231395 276.655986 
L 158.210523 274.912229 
L 158.326242 274.86264 
L 161.189651 273.826042 
L 163.726728 272.18472 
L 164.168779 271.832938 
L 166.996665 269.5068 
L 167.147906 269.390595 
L 170.127034 266.856117 
L 170.154425 266.82888 
L 172.094453 264.15096 
L 173.106162 261.671519 
L 173.221459 261.47304 
L 174.913001 258.79512 
L 176.085289 256.1172 
L 176.085289 256.1172 
L 177.197555 253.43928 
L 178.400103 250.76136 
L 178.953358 248.08344 
L 178.839656 245.40552 
L 178.315091 242.7276 
L 177.642547 240.04968 
L 176.849004 237.37176 
L 176.085289 236.112238 
L 175.309334 234.69384 
L 173.106162 232.403985 
L 172.716082 232.01592 
L 170.127034 229.790628 
L 169.534605 229.338 
L 167.147906 227.686497 
L 165.262425 226.66008 
L 164.168779 226.06381 
L 161.189651 224.547036 
L 159.471739 223.98216 
L 158.210523 223.494384 
L 155.231395 222.376552 
L 152.428325 221.30424 
L 152.252268 221.203319 
L 149.27314 219.683693 
L 146.294012 218.992705 
L 144.370563 218.62632 
L 143.314885 218.342486 
L 140.335757 217.349413 
L 137.356629 216.702854 
L 134.377501 216.220481 
L 132.752707 215.9484 
L 131.398374 215.604107 
L 128.419246 214.766841 
L 125.440118 214.145097 
L 122.46099 213.858187 
L 119.481863 213.813967 
L 116.502735 213.939608 
L 113.523607 214.409002 
L 110.54448 215.27418 
L 108.14929 215.9484 
L 107.565352 216.155479 
L 104.586224 217.71677 
L 103.53007 218.62632 
L 101.607096 220.923285 
L 101.348241 221.30424 
L 100.062899 223.98216 
L 99.606992 226.66008 
L 99.345462 229.338 
L 99.169786 232.01592 
L 99.328334 234.69384 
L 99.908189 237.37176 
L 100.306449 240.04968 
L 100.457334 242.7276 
L 100.802161 245.40552 
L 101.236117 248.08344 
L 101.453871 250.76136 
L 101.22432 253.43928 
L 100.782446 256.1172 
L 100.806855 258.79512 
L 101.456502 261.47304 
L 101.607096 261.870219 
L 102.369161 264.15096 
L 103.327469 266.82888 
L 103.871236 269.5068 
L 104.542946 272.18472 
L 104.586224 272.282723 
L 105.630763 274.86264 
L 107.073809 277.54056 
L 107.565352 278.236559 
L 109.079962 280.21848 
L 110.54448 281.856331 
L 111.612404 282.8964 
L 113.523607 285.05134 
L 114.281786 285.57432 
z
M 125.234651 269.5068 
L 122.46099 267.620237 
L 121.637263 266.82888 
L 119.481863 264.570135 
L 119.155757 264.15096 
L 117.720077 261.47304 
L 116.859639 258.79512 
L 116.502735 257.639169 
L 115.995657 256.1172 
L 115.380059 253.43928 
L 114.774472 250.76136 
L 114.228897 248.08344 
L 114.153714 245.40552 
L 114.496484 242.7276 
L 114.928324 240.04968 
L 115.389584 237.37176 
L 116.16941 234.69384 
L 116.502735 234.055692 
L 117.741497 232.01592 
L 119.481863 230.539637 
L 121.243474 229.338 
L 122.46099 228.643202 
L 125.440118 227.400122 
L 128.419246 226.89748 
L 131.398374 226.776796 
L 134.377501 226.875878 
L 137.356629 227.242536 
L 140.335757 227.921352 
L 143.314885 228.895711 
L 144.48173 229.338 
L 146.294012 230.042839 
L 149.27314 231.146327 
L 151.152789 232.01592 
L 152.252268 232.693571 
L 154.353714 234.69384 
L 155.231395 235.558471 
L 157.117449 237.37176 
L 158.210523 238.397983 
L 160.074104 240.04968 
L 161.189651 241.888159 
L 161.616593 242.7276 
L 161.923014 245.40552 
L 161.395925 248.08344 
L 161.189651 248.894964 
L 160.824549 250.76136 
L 160.304227 253.43928 
L 158.880267 256.1172 
L 158.210523 256.89848 
L 156.572071 258.79512 
L 155.231395 260.443259 
L 154.387195 261.47304 
L 152.252268 263.544887 
L 151.532802 264.15096 
L 149.27314 265.922915 
L 147.812142 266.82888 
L 146.294012 267.632138 
L 143.314885 268.805107 
L 140.335757 269.5068 
L 140.335757 269.5068 
L 137.356629 269.956433 
L 134.377501 270.251638 
L 131.398374 270.397985 
L 128.419246 270.340505 
L 125.440118 269.617182 
z
" clip-path="url(#p882160c3ef)" style="fill: #ff0000; fill-opacity: 0.333333"/>
    <path d="M 125.440118 269.617182 
L 128.419246 270.340505 
L 131.398374 270.397985 
L 134.377501 270.251638 
L 137.356629 269.956433 
L 140.335757 269.5068 
L 140.335757 269.5068 
L 143.314885 268.805107 
L 146.294012 267.632138 
L 147.812142 266.82888 
L 149.27314 265.922915 
L 151.532802 264.15096 
L 152.252268 263.544887 
L 154.387195 261.47304 
L 155.231395 260.443259 
L 156.572071 258.79512 
L 158.210523 256.89848 
L 158.880267 256.1172 
L 160.304227 253.43928 
L 160.824549 250.76136 
L 161.189651 248.894964 
L 161.395925 248.08344 
L 161.923014 245.40552 
L 161.616593 242.7276 
L 161.189651 241.888159 
L 160.074104 240.04968 
L 158.210523 238.397983 
L 157.117449 237.37176 
L 155.231395 235.558471 
L 154.353714 234.69384 
L 152.252268 232.693571 
L 151.152789 232.01592 
L 149.27314 231.146327 
L 146.294012 230.042839 
L 144.48173 229.338 
L 143.314885 228.895711 
L 140.335757 227.921352 
L 137.356629 227.242536 
L 134.377501 226.875878 
L 131.398374 226.776796 
L 128.419246 226.89748 
L 125.440118 227.400122 
L 122.46099 228.643202 
L 121.243474 229.338 
L 119.481863 230.539637 
L 117.741497 232.01592 
L 116.502735 234.055692 
L 116.16941 234.69384 
L 115.389584 237.37176 
L 114.928324 240.04968 
L 114.496484 242.7276 
L 114.153714 245.40552 
L 114.228897 248.08344 
L 114.774472 250.76136 
L 115.380059 253.43928 
L 115.995657 256.1172 
L 116.502735 257.639169 
L 116.859639 258.79512 
L 117.720077 261.47304 
L 119.155757 264.15096 
L 119.481863 264.570135 
L 121.637263 266.82888 
L 122.46099 267.620237 
L 125.234651 269.5068 
z
" clip-path="url(#p882160c3ef)" style="fill: #ff0000"/>
   </g>
   <g id="matplotlib.axis_5">
    <g id="xtick_5">
     <g id="line2d_6">
      <g>
       <use xlink:href="#m5f2843a613" x="79.662648" y="329.76" style="stroke: #000000; stroke-width: 0.8"/>
      </g>
     </g>
     <g id="text_2">
      <!-- 0.24 -->
      <g transform="translate(73.741734 357.877081) rotate(-45) scale(0.1 -0.1)">
       <use xlink:href="#DejaVuSans-30"/>
       <use xlink:href="#DejaVuSans-2e" x="63.623047"/>
       <use xlink:href="#DejaVuSans-32" x="95.410156"/>
       <use xlink:href="#DejaVuSans-34" x="159.033203"/>
      </g>
     </g>
    </g>
    <g id="xtick_6">
     <g id="line2d_7">
      <g>
       <use xlink:href="#m5f2843a613" x="116.227567" y="329.76" style="stroke: #000000; stroke-width: 0.8"/>
      </g>
     </g>
     <g id="text_3">
      <!-- 0.28 -->
      <g transform="translate(110.306653 357.877081) rotate(-45) scale(0.1 -0.1)">
       <defs>
        <path id="DejaVuSans-38" d="M 2034 2216 
Q 1584 2216 1326 1975 
Q 1069 1734 1069 1313 
Q 1069 891 1326 650 
Q 1584 409 2034 409 
Q 2484 409 2743 651 
Q 3003 894 3003 1313 
Q 3003 1734 2745 1975 
Q 2488 2216 2034 2216 
z
M 1403 2484 
Q 997 2584 770 2862 
Q 544 3141 544 3541 
Q 544 4100 942 4425 
Q 1341 4750 2034 4750 
Q 2731 4750 3128 4425 
Q 3525 4100 3525 3541 
Q 3525 3141 3298 2862 
Q 3072 2584 2669 2484 
Q 3125 2378 3379 2068 
Q 3634 1759 3634 1313 
Q 3634 634 3220 271 
Q 2806 -91 2034 -91 
Q 1263 -91 848 271 
Q 434 634 434 1313 
Q 434 1759 690 2068 
Q 947 2378 1403 2484 
z
M 1172 3481 
Q 1172 3119 1398 2916 
Q 1625 2713 2034 2713 
Q 2441 2713 2670 2916 
Q 2900 3119 2900 3481 
Q 2900 3844 2670 4047 
Q 2441 4250 2034 4250 
Q 1625 4250 1398 4047 
Q 1172 3844 1172 3481 
z
" transform="scale(0.015625)"/>
       </defs>
       <use xlink:href="#DejaVuSans-30"/>
       <use xlink:href="#DejaVuSans-2e" x="63.623047"/>
       <use xlink:href="#DejaVuSans-32" x="95.410156"/>
       <use xlink:href="#DejaVuSans-38" x="159.033203"/>
      </g>
     </g>
    </g>
    <g id="xtick_7">
     <g id="line2d_8">
      <g>
       <use xlink:href="#m5f2843a613" x="152.792486" y="329.76" style="stroke: #000000; stroke-width: 0.8"/>
      </g>
     </g>
     <g id="text_4">
      <!-- 0.32 -->
      <g transform="translate(146.871571 357.877081) rotate(-45) scale(0.1 -0.1)">
       <use xlink:href="#DejaVuSans-30"/>
       <use xlink:href="#DejaVuSans-2e" x="63.623047"/>
       <use xlink:href="#DejaVuSans-33" x="95.410156"/>
       <use xlink:href="#DejaVuSans-32" x="159.033203"/>
      </g>
     </g>
    </g>
    <g id="xtick_8">
     <g id="line2d_9">
      <g>
       <use xlink:href="#m5f2843a613" x="189.357405" y="329.76" style="stroke: #000000; stroke-width: 0.8"/>
      </g>
     </g>
     <g id="text_5">
      <!-- 0.36 -->
      <g transform="translate(183.43649 357.877081) rotate(-45) scale(0.1 -0.1)">
       <use xlink:href="#DejaVuSans-30"/>
       <use xlink:href="#DejaVuSans-2e" x="63.623047"/>
       <use xlink:href="#DejaVuSans-33" x="95.410156"/>
       <use xlink:href="#DejaVuSans-36" x="159.033203"/>
      </g>
     </g>
    </g>
    <g id="text_6">
     <!-- $\Omega_{2,0}$ -->
     <g transform="translate(128.546193 377.3288) scale(0.1 -0.1)">
      <use xlink:href="#DejaVuSans-3a9" transform="translate(0 0.21875)"/>
      <use xlink:href="#DejaVuSans-32" transform="translate(77.373047 -16.1875) scale(0.7)"/>
      <use xlink:href="#DejaVuSans-2c" transform="translate(121.90918 -16.1875) scale(0.7)"/>
      <use xlink:href="#DejaVuSans-30" transform="translate(157.797852 -16.1875) scale(0.7)"/>
     </g>
    </g>
   </g>
   <g id="matplotlib.axis_6">
    <g id="ytick_1">
     <g id="line2d_10">
      <defs>
       <path id="mf8c1a4e18d" d="M 0 0 
L -3.5 0 
" style="stroke: #000000; stroke-width: 0.8"/>
      </defs>
      <g>
       <use xlink:href="#mf8c1a4e18d" x="64.368" y="329.726584" style="stroke: #000000; stroke-width: 0.8"/>
      </g>
     </g>
     <g id="text_7">
      <!-- −1.8 -->
      <g transform="translate(38.726897 348.470814) rotate(-45) scale(0.1 -0.1)">
       <use xlink:href="#DejaVuSans-2212"/>
       <use xlink:href="#DejaVuSans-31" x="83.789062"/>
       <use xlink:href="#DejaVuSans-2e" x="147.412109"/>
       <use xlink:href="#DejaVuSans-38" x="179.199219"/>
      </g>
     </g>
    </g>
    <g id="ytick_2">
     <g id="line2d_11">
      <g>
       <use xlink:href="#mf8c1a4e18d" x="64.368" y="299.977923" style="stroke: #000000; stroke-width: 0.8"/>
      </g>
     </g>
     <g id="text_8">
      <!-- −1.5 -->
      <g transform="translate(38.726897 318.722152) rotate(-45) scale(0.1 -0.1)">
       <use xlink:href="#DejaVuSans-2212"/>
       <use xlink:href="#DejaVuSans-31" x="83.789062"/>
       <use xlink:href="#DejaVuSans-2e" x="147.412109"/>
       <use xlink:href="#DejaVuSans-35" x="179.199219"/>
      </g>
     </g>
    </g>
    <g id="ytick_3">
     <g id="line2d_12">
      <g>
       <use xlink:href="#mf8c1a4e18d" x="64.368" y="270.229261" style="stroke: #000000; stroke-width: 0.8"/>
      </g>
     </g>
     <g id="text_9">
      <!-- −1.2 -->
      <g transform="translate(38.726897 288.973491) rotate(-45) scale(0.1 -0.1)">
       <use xlink:href="#DejaVuSans-2212"/>
       <use xlink:href="#DejaVuSans-31" x="83.789062"/>
       <use xlink:href="#DejaVuSans-2e" x="147.412109"/>
       <use xlink:href="#DejaVuSans-32" x="179.199219"/>
      </g>
     </g>
    </g>
    <g id="ytick_4">
     <g id="line2d_13">
      <g>
       <use xlink:href="#mf8c1a4e18d" x="64.368" y="240.4806" style="stroke: #000000; stroke-width: 0.8"/>
      </g>
     </g>
     <g id="text_10">
      <!-- −0.9 -->
      <g transform="translate(38.726897 259.224829) rotate(-45) scale(0.1 -0.1)">
       <defs>
        <path id="DejaVuSans-39" d="M 703 97 
L 703 672 
Q 941 559 1184 500 
Q 1428 441 1663 441 
Q 2288 441 2617 861 
Q 2947 1281 2994 2138 
Q 2813 1869 2534 1725 
Q 2256 1581 1919 1581 
Q 1219 1581 811 2004 
Q 403 2428 403 3163 
Q 403 3881 828 4315 
Q 1253 4750 1959 4750 
Q 2769 4750 3195 4129 
Q 3622 3509 3622 2328 
Q 3622 1225 3098 567 
Q 2575 -91 1691 -91 
Q 1453 -91 1209 -44 
Q 966 3 703 97 
z
M 1959 2075 
Q 2384 2075 2632 2365 
Q 2881 2656 2881 3163 
Q 2881 3666 2632 3958 
Q 2384 4250 1959 4250 
Q 1534 4250 1286 3958 
Q 1038 3666 1038 3163 
Q 1038 2656 1286 2365 
Q 1534 2075 1959 2075 
z
" transform="scale(0.015625)"/>
       </defs>
       <use xlink:href="#DejaVuSans-2212"/>
       <use xlink:href="#DejaVuSans-30" x="83.789062"/>
       <use xlink:href="#DejaVuSans-2e" x="147.412109"/>
       <use xlink:href="#DejaVuSans-39" x="179.199219"/>
      </g>
     </g>
    </g>
    <g id="ytick_5">
     <g id="line2d_14">
      <g>
       <use xlink:href="#mf8c1a4e18d" x="64.368" y="210.731938" style="stroke: #000000; stroke-width: 0.8"/>
      </g>
     </g>
     <g id="text_11">
      <!-- −0.6 -->
      <g transform="translate(38.726897 229.476167) rotate(-45) scale(0.1 -0.1)">
       <use xlink:href="#DejaVuSans-2212"/>
       <use xlink:href="#DejaVuSans-30" x="83.789062"/>
       <use xlink:href="#DejaVuSans-2e" x="147.412109"/>
       <use xlink:href="#DejaVuSans-36" x="179.199219"/>
      </g>
     </g>
    </g>
    <g id="text_12">
     <!-- $w_{IDM}$ -->
     <g transform="translate(17.601397 273.812) rotate(-90) scale(0.1 -0.1)">
      <defs>
       <path id="DejaVuSans-Oblique-77" d="M 544 3500 
L 1113 3500 
L 1259 684 
L 2566 3500 
L 3231 3500 
L 3425 684 
L 4666 3500 
L 5241 3500 
L 3641 0 
L 2969 0 
L 2797 2900 
L 1459 0 
L 781 0 
L 544 3500 
z
" transform="scale(0.015625)"/>
       <path id="DejaVuSans-Oblique-49" d="M 1081 4666 
L 1716 4666 
L 806 0 
L 172 0 
L 1081 4666 
z
" transform="scale(0.015625)"/>
       <path id="DejaVuSans-Oblique-44" d="M 1081 4666 
L 2438 4666 
Q 3519 4666 4070 4208 
Q 4622 3750 4622 2847 
Q 4622 2250 4412 1698 
Q 4203 1147 3834 769 
Q 3463 381 2891 190 
Q 2319 0 1538 0 
L 172 0 
L 1081 4666 
z
M 1613 4147 
L 909 519 
L 1734 519 
Q 2794 519 3375 1128 
Q 3956 1738 3956 2847 
Q 3956 3519 3581 3833 
Q 3206 4147 2406 4147 
L 1613 4147 
z
" transform="scale(0.015625)"/>
       <path id="DejaVuSans-Oblique-4d" d="M 1081 4666 
L 2028 4666 
L 2572 1522 
L 4378 4666 
L 5350 4666 
L 4441 0 
L 3828 0 
L 4622 4091 
L 2791 897 
L 2175 897 
L 1581 4103 
L 788 0 
L 172 0 
L 1081 4666 
z
" transform="scale(0.015625)"/>
      </defs>
      <use xlink:href="#DejaVuSans-Oblique-77" transform="translate(0 0.3125)"/>
      <use xlink:href="#DejaVuSans-Oblique-49" transform="translate(81.787109 -16.09375) scale(0.7)"/>
      <use xlink:href="#DejaVuSans-Oblique-44" transform="translate(102.431641 -16.09375) scale(0.7)"/>
      <use xlink:href="#DejaVuSans-Oblique-4d" transform="translate(156.333008 -16.09375) scale(0.7)"/>
     </g>
    </g>
   </g>
   <g id="QuadContourSet_3">
    <path d="M 116.502735 286.633774 
L 119.481863 287.441376 
L 122.46099 288.016695 
L 125.440118 288.213928 
L 128.419246 287.996823 
L 131.398374 287.515846 
L 134.377501 286.872843 
L 137.356629 286.647361 
L 140.335757 286.543256 
L 143.003712 285.57432 
L 143.314885 285.484061 
L 146.294012 283.814098 
L 147.666209 282.8964 
L 149.27314 281.521302 
L 150.800237 280.21848 
L 152.252268 279.041836 
L 153.835598 277.54056 
L 155.231395 276.655986 
L 158.210523 274.912229 
L 158.326242 274.86264 
L 161.189651 273.826042 
L 163.726728 272.18472 
L 164.168779 271.832938 
L 166.996665 269.5068 
L 167.147906 269.390595 
L 170.127034 266.856117 
L 170.154425 266.82888 
L 172.094453 264.15096 
L 173.106162 261.671519 
L 173.221459 261.47304 
L 174.913001 258.79512 
L 176.085289 256.1172 
L 176.085289 256.1172 
L 177.197555 253.43928 
L 178.400103 250.76136 
L 178.953358 248.08344 
L 178.839656 245.40552 
L 178.315091 242.7276 
L 177.642547 240.04968 
L 176.849004 237.37176 
L 176.085289 236.112238 
L 175.309334 234.69384 
L 173.106162 232.403985 
L 172.716082 232.01592 
L 170.127034 229.790628 
L 169.534605 229.338 
L 167.147906 227.686497 
L 165.262425 226.66008 
L 164.168779 226.06381 
L 161.189651 224.547036 
L 159.471739 223.98216 
L 158.210523 223.494384 
L 155.231395 222.376552 
L 152.428325 221.30424 
L 152.252268 221.203319 
L 149.27314 219.683693 
L 146.294012 218.992705 
L 144.370563 218.62632 
L 143.314885 218.342486 
L 140.335757 217.349413 
L 137.356629 216.702854 
L 134.377501 216.220481 
L 132.752707 215.9484 
L 131.398374 215.604107 
L 128.419246 214.766841 
L 125.440118 214.145097 
L 122.46099 213.858187 
L 119.481863 213.813967 
L 116.502735 213.939608 
L 113.523607 214.409002 
L 110.54448 215.27418 
L 108.14929 215.9484 
L 107.565352 216.155479 
L 104.586224 217.71677 
L 103.53007 218.62632 
L 101.607096 220.923285 
L 101.348241 221.30424 
L 100.062899 223.98216 
L 99.606992 226.66008 
L 99.345462 229.338 
L 99.169786 232.01592 
L 99.328334 234.69384 
L 99.908189 237.37176 
L 100.306449 240.04968 
L 100.457334 242.7276 
L 100.802161 245.40552 
L 101.236117 248.08344 
L 101.453871 250.76136 
L 101.22432 253.43928 
L 100.782446 256.1172 
L 100.806855 258.79512 
L 101.456502 261.47304 
L 101.607096 261.870219 
L 102.369161 264.15096 
L 103.327469 266.82888 
L 103.871236 269.5068 
L 104.542946 272.18472 
L 104.586224 272.282723 
L 105.630763 274.86264 
L 107.073809 277.54056 
L 107.565352 278.236559 
L 109.079962 280.21848 
L 110.54448 281.856331 
L 111.612404 282.8964 
L 113.523607 285.05134 
L 114.281786 285.57432 
L 116.502735 286.633774 
z
" clip-path="url(#p882160c3ef)" style="fill: none; stroke: #ff0000; stroke-width: 1.5"/>
    <path d="M 125.440118 269.617182 
L 128.419246 270.340505 
L 131.398374 270.397985 
L 134.377501 270.251638 
L 137.356629 269.956433 
L 140.335757 269.5068 
L 140.335757 269.5068 
L 143.314885 268.805107 
L 146.294012 267.632138 
L 147.812142 266.82888 
L 149.27314 265.922915 
L 151.532802 264.15096 
L 152.252268 263.544887 
L 154.387195 261.47304 
L 155.231395 260.443259 
L 156.572071 258.79512 
L 158.210523 256.89848 
L 158.880267 256.1172 
L 160.304227 253.43928 
L 160.824549 250.76136 
L 161.189651 248.894964 
L 161.395925 248.08344 
L 161.923014 245.40552 
L 161.616593 242.7276 
L 161.189651 241.888159 
L 160.074104 240.04968 
L 158.210523 238.397983 
L 157.117449 237.37176 
L 155.231395 235.558471 
L 154.353714 234.69384 
L 152.252268 232.693571 
L 151.152789 232.01592 
L 149.27314 231.146327 
L 146.294012 230.042839 
L 144.48173 229.338 
L 143.314885 228.895711 
L 140.335757 227.921352 
L 137.356629 227.242536 
L 134.377501 226.875878 
L 131.398374 226.776796 
L 128.419246 226.89748 
L 125.440118 227.400122 
L 122.46099 228.643202 
L 121.243474 229.338 
L 119.481863 230.539637 
L 117.741497 232.01592 
L 116.502735 234.055692 
L 116.16941 234.69384 
L 115.389584 237.37176 
L 114.928324 240.04968 
L 114.496484 242.7276 
L 114.153714 245.40552 
L 114.228897 248.08344 
L 114.774472 250.76136 
L 115.380059 253.43928 
L 115.995657 256.1172 
L 116.502735 257.639169 
L 116.859639 258.79512 
L 117.720077 261.47304 
L 119.155757 264.15096 
L 119.481863 264.570135 
L 121.637263 266.82888 
L 122.46099 267.620237 
L 125.234651 269.5068 
L 125.440118 269.617182 
z
" clip-path="url(#p882160c3ef)" style="fill: none; stroke: #ff0000; stroke-width: 1.5"/>
   </g>
   <g id="patch_8">
    <path d="M 64.368 329.76 
L 64.368 195.864 
" style="fill: none; stroke: #000000; stroke-width: 0.8; stroke-linejoin: miter; stroke-linecap: square"/>
   </g>
   <g id="patch_9">
    <path d="M 213.324386 329.76 
L 213.324386 195.864 
" style="fill: none; stroke: #000000; stroke-width: 0.8; stroke-linejoin: miter; stroke-linecap: square"/>
   </g>
   <g id="patch_10">
    <path d="M 64.368 329.76 
L 213.324386 329.76 
" style="fill: none; stroke: #000000; stroke-width: 0.8; stroke-linejoin: miter; stroke-linecap: square"/>
   </g>
   <g id="patch_11">
    <path d="M 64.368 195.864 
L 213.324386 195.864 
" style="fill: none; stroke: #000000; stroke-width: 0.8; stroke-linejoin: miter; stroke-linecap: square"/>
   </g>
  </g>
  <g id="axes_4">
   <g id="patch_12">
    <path d="M 236.243614 329.76 
L 385.2 329.76 
L 385.2 195.864 
L 236.243614 195.864 
z
" style="fill: #ffffff"/>
   </g>
   <g id="matplotlib.axis_7">
    <g id="xtick_9">
     <g id="line2d_15">
      <g>
       <use xlink:href="#m5f2843a613" x="236.280788" y="329.76" style="stroke: #000000; stroke-width: 0.8"/>
      </g>
     </g>
     <g id="text_13">
      <!-- −1.8 -->
      <g transform="translate(229.64669 359.303448) rotate(-45) scale(0.1 -0.1)">
       <use xlink:href="#DejaVuSans-2212"/>
       <use xlink:href="#DejaVuSans-31" x="83.789062"/>
       <use xlink:href="#DejaVuSans-2e" x="147.412109"/>
       <use xlink:href="#DejaVuSans-38" x="179.199219"/>
      </g>
     </g>
    </g>
    <g id="xtick_10">
     <g id="line2d_16">
      <g>
       <use xlink:href="#m5f2843a613" x="269.375527" y="329.76" style="stroke: #000000; stroke-width: 0.8"/>
      </g>
     </g>
     <g id="text_14">
      <!-- −1.5 -->
      <g transform="translate(262.741429 359.303448) rotate(-45) scale(0.1 -0.1)">
       <use xlink:href="#DejaVuSans-2212"/>
       <use xlink:href="#DejaVuSans-31" x="83.789062"/>
       <use xlink:href="#DejaVuSans-2e" x="147.412109"/>
       <use xlink:href="#DejaVuSans-35" x="179.199219"/>
      </g>
     </g>
    </g>
    <g id="xtick_11">
     <g id="line2d_17">
      <g>
       <use xlink:href="#m5f2843a613" x="302.470265" y="329.76" style="stroke: #000000; stroke-width: 0.8"/>
      </g>
     </g>
     <g id="text_15">
      <!-- −1.2 -->
      <g transform="translate(295.836167 359.303448) rotate(-45) scale(0.1 -0.1)">
       <use xlink:href="#DejaVuSans-2212"/>
       <use xlink:href="#DejaVuSans-31" x="83.789062"/>
       <use xlink:href="#DejaVuSans-2e" x="147.412109"/>
       <use xlink:href="#DejaVuSans-32" x="179.199219"/>
      </g>
     </g>
    </g>
    <g id="xtick_12">
     <g id="line2d_18">
      <g>
       <use xlink:href="#m5f2843a613" x="335.565004" y="329.76" style="stroke: #000000; stroke-width: 0.8"/>
      </g>
     </g>
     <g id="text_16">
      <!-- −0.9 -->
      <g transform="translate(328.930906 359.303448) rotate(-45) scale(0.1 -0.1)">
       <use xlink:href="#DejaVuSans-2212"/>
       <use xlink:href="#DejaVuSans-30" x="83.789062"/>
       <use xlink:href="#DejaVuSans-2e" x="147.412109"/>
       <use xlink:href="#DejaVuSans-39" x="179.199219"/>
      </g>
     </g>
    </g>
    <g id="xtick_13">
     <g id="line2d_19">
      <g>
       <use xlink:href="#m5f2843a613" x="368.659742" y="329.76" style="stroke: #000000; stroke-width: 0.8"/>
      </g>
     </g>
     <g id="text_17">
      <!-- −0.6 -->
      <g transform="translate(362.025644 359.303448) rotate(-45) scale(0.1 -0.1)">
       <use xlink:href="#DejaVuSans-2212"/>
       <use xlink:href="#DejaVuSans-30" x="83.789062"/>
       <use xlink:href="#DejaVuSans-2e" x="147.412109"/>
       <use xlink:href="#DejaVuSans-36" x="179.199219"/>
      </g>
     </g>
    </g>
    <g id="text_18">
     <!-- $w_{IDM}$ -->
     <g transform="translate(299.721807 377.527238) scale(0.1 -0.1)">
      <use xlink:href="#DejaVuSans-Oblique-77" transform="translate(0 0.3125)"/>
      <use xlink:href="#DejaVuSans-Oblique-49" transform="translate(81.787109 -16.09375) scale(0.7)"/>
      <use xlink:href="#DejaVuSans-Oblique-44" transform="translate(102.431641 -16.09375) scale(0.7)"/>
      <use xlink:href="#DejaVuSans-Oblique-4d" transform="translate(156.333008 -16.09375) scale(0.7)"/>
     </g>
    </g>
   </g>
   <g id="matplotlib.axis_8"/>
   <g id="line2d_20">
    <path d="M 236.243614 329.76 
L 256.352726 329.653552 
L 256.352726 329.62694 
L 260.076636 329.520491 
L 260.076636 329.493879 
L 263.055764 329.387431 
L 263.055764 329.334207 
L 265.290109 329.254371 
L 265.290109 329.201146 
L 267.524455 329.094698 
L 267.524455 329.041474 
L 269.014019 328.98825 
L 269.014019 328.908414 
L 270.503583 328.855189 
L 270.503583 328.775353 
L 271.993147 328.695517 
L 271.993147 328.615681 
L 272.737929 328.615681 
L 272.737929 328.48262 
L 273.482711 328.48262 
L 273.482711 328.34956 
L 274.227493 328.34956 
L 274.227493 328.2165 
L 274.972274 328.2165 
L 274.972274 328.003603 
L 275.717056 328.003603 
L 275.717056 327.790706 
L 276.461838 327.790706 
L 276.461838 327.551198 
L 277.20662 327.551198 
L 277.20662 327.258465 
L 277.951402 327.258465 
L 277.951402 326.93912 
L 278.696184 326.93912 
L 278.696184 326.593163 
L 279.440966 326.593163 
L 279.440966 326.220594 
L 280.185748 326.220594 
L 280.185748 325.821413 
L 280.93053 325.821413 
L 280.93053 325.39562 
L 281.675312 325.39562 
L 281.675312 324.969826 
L 282.420094 324.969826 
L 282.420094 324.490809 
L 283.164876 324.490809 
L 283.164876 323.985179 
L 283.909658 323.985179 
L 283.909658 323.452938 
L 284.65444 323.452938 
L 284.65444 322.894084 
L 285.399221 322.894084 
L 285.399221 322.282007 
L 286.144003 322.282007 
L 286.144003 321.643317 
L 286.888785 321.643317 
L 286.888785 320.951403 
L 287.633567 320.951403 
L 287.633567 320.232877 
L 288.378349 320.232877 
L 288.378349 319.487739 
L 289.123131 319.487739 
L 289.123131 318.689376 
L 289.867913 318.689376 
L 289.867913 317.864402 
L 290.612695 317.864402 
L 290.612695 316.986203 
L 291.357477 316.986203 
L 291.357477 316.028169 
L 292.102259 316.028169 
L 292.102259 314.990298 
L 292.847041 314.990298 
L 292.847041 313.872591 
L 293.591823 313.872591 
L 293.591823 312.648435 
L 294.336605 312.648435 
L 294.336605 311.344443 
L 295.081387 311.344443 
L 295.081387 309.907391 
L 295.826168 309.907391 
L 295.826168 308.390503 
L 296.57095 308.390503 
L 296.57095 306.767166 
L 297.315732 306.767166 
L 297.315732 305.037381 
L 298.060514 305.037381 
L 298.060514 303.174536 
L 298.805296 303.174536 
L 298.805296 301.205242 
L 299.550078 301.205242 
L 299.550078 299.102888 
L 300.29486 299.102888 
L 300.29486 296.920698 
L 301.039642 296.920698 
L 301.039642 294.605447 
L 301.784424 294.605447 
L 301.784424 292.183748 
L 302.529206 292.183748 
L 302.529206 289.682213 
L 303.273988 289.682213 
L 303.273988 287.07423 
L 304.01877 287.07423 
L 304.01877 284.38641 
L 304.763552 284.38641 
L 304.763552 281.618754 
L 305.508334 281.618754 
L 305.508334 278.797874 
L 306.253115 278.797874 
L 306.253115 275.950382 
L 306.997897 275.950382 
L 306.997897 273.049666 
L 307.742679 273.049666 
L 307.742679 270.122337 
L 308.487461 270.122337 
L 308.487461 267.195009 
L 309.232243 267.195009 
L 309.232243 264.267681 
L 309.977025 264.267681 
L 309.977025 261.366964 
L 310.721807 261.366964 
L 310.721807 258.439636 
L 311.466589 258.439636 
L 311.466589 255.53892 
L 312.211371 255.53892 
L 312.211371 252.664815 
L 312.956153 252.664815 
L 312.956153 249.764099 
L 313.700935 249.764099 
L 313.700935 246.863383 
L 314.445717 246.863383 
L 314.445717 243.989279 
L 315.190499 243.989279 
L 315.190499 241.115174 
L 315.935281 241.115174 
L 315.935281 238.267682 
L 316.680062 238.267682 
L 316.680062 235.473414 
L 317.424844 235.473414 
L 317.424844 232.73237 
L 318.169626 232.73237 
L 318.169626 230.097775 
L 318.914408 230.097775 
L 318.914408 227.543015 
L 319.65919 227.543015 
L 319.65919 225.094704 
L 320.403972 225.094704 
L 320.403972 222.752842 
L 321.148754 222.752842 
L 321.148754 220.517427 
L 321.893536 220.517427 
L 321.893536 218.388461 
L 322.638318 218.388461 
L 322.638318 216.339331 
L 323.3831 216.339331 
L 323.3831 214.449874 
L 324.127882 214.449874 
L 324.127882 212.720089 
L 324.872664 212.720089 
L 324.872664 211.203201 
L 325.617446 211.203201 
L 325.617446 209.925821 
L 326.362228 209.925821 
L 326.362228 208.967786 
L 327.10701 208.967786 
L 327.10701 208.329096 
L 327.851791 208.329096 
L 327.851791 208.036364 
L 329.341355 208.1162 
L 329.341355 208.568605 
L 330.086137 208.568605 
L 330.086137 209.366967 
L 330.830919 209.366967 
L 330.830919 210.484675 
L 331.575701 210.484675 
L 331.575701 211.921727 
L 332.320483 211.921727 
L 332.320483 213.651512 
L 333.065265 213.651512 
L 333.065265 215.647417 
L 333.810047 215.647417 
L 333.810047 217.882832 
L 334.554829 217.882832 
L 334.554829 220.331143 
L 335.299611 220.331143 
L 335.299611 222.939126 
L 336.044393 222.939126 
L 336.044393 225.733394 
L 336.789175 225.733394 
L 336.789175 228.660723 
L 337.533957 228.660723 
L 337.533957 231.694499 
L 338.278738 231.694499 
L 338.278738 234.861336 
L 339.02352 234.861336 
L 339.02352 238.081398 
L 339.768302 238.081398 
L 339.768302 241.354683 
L 340.513084 241.354683 
L 340.513084 244.681193 
L 341.257866 244.681193 
L 341.257866 248.007702 
L 342.002648 248.007702 
L 342.002648 251.360824 
L 342.74743 251.360824 
L 342.74743 254.740557 
L 343.492212 254.740557 
L 343.492212 258.120291 
L 344.236994 258.120291 
L 344.236994 261.553249 
L 344.981776 261.553249 
L 344.981776 265.012819 
L 345.726558 265.012819 
L 345.726558 268.525613 
L 346.47134 268.525613 
L 346.47134 272.038407 
L 347.216122 272.038407 
L 347.216122 275.577813 
L 347.960904 275.577813 
L 347.960904 279.090607 
L 348.705685 279.090607 
L 348.705685 282.576789 
L 349.450467 282.576789 
L 349.450467 285.983135 
L 350.195249 285.983135 
L 350.195249 289.336256 
L 350.940031 289.336256 
L 350.940031 292.556318 
L 351.684813 292.556318 
L 351.684813 295.66993 
L 352.429595 295.66993 
L 352.429595 298.623871 
L 353.174377 298.623871 
L 353.174377 301.418139 
L 353.919159 301.418139 
L 353.919159 304.026122 
L 354.663941 304.026122 
L 354.663941 306.447821 
L 355.408723 306.447821 
L 355.408723 308.683236 
L 356.153505 308.683236 
L 356.153505 310.758978 
L 356.898287 310.758978 
L 356.898287 312.648435 
L 357.643069 312.648435 
L 357.643069 314.37822 
L 358.387851 314.37822 
L 358.387851 315.92172 
L 359.132632 315.92172 
L 359.132632 317.33216 
L 359.877414 317.33216 
L 359.877414 318.60954 
L 360.622196 318.60954 
L 360.622196 319.780471 
L 361.366978 319.780471 
L 361.366978 320.844954 
L 362.11176 320.844954 
L 362.11176 321.802989 
L 362.856542 321.802989 
L 362.856542 322.681188 
L 363.601324 322.681188 
L 363.601324 323.506162 
L 364.346106 323.506162 
L 364.346106 324.2513 
L 365.090888 324.2513 
L 365.090888 324.943214 
L 365.83567 324.943214 
L 365.83567 325.555292 
L 366.580452 325.555292 
L 366.580452 326.087533 
L 367.325234 326.087533 
L 367.325234 326.593163 
L 368.070016 326.593163 
L 368.070016 326.992344 
L 368.814798 326.992344 
L 368.814798 327.364913 
L 369.559579 327.364913 
L 369.559579 327.684258 
L 370.304361 327.684258 
L 370.304361 327.976991 
L 371.049143 327.976991 
L 371.049143 328.2165 
L 371.793925 328.2165 
L 371.793925 328.429396 
L 372.538707 328.429396 
L 372.538707 328.642293 
L 373.283489 328.642293 
L 373.283489 328.801965 
L 374.028271 328.801965 
L 374.028271 328.961638 
L 374.773053 328.961638 
L 374.773053 329.094698 
L 375.517835 329.094698 
L 375.517835 329.227758 
L 377.007399 329.334207 
L 377.007399 329.414043 
L 378.496963 329.493879 
L 378.496963 329.547103 
L 381.47609 329.653552 
L 381.47609 329.680164 
L 385.2 329.706776 
L 385.2 329.706776 
" clip-path="url(#p9a5d54257e)" style="fill: none; stroke: #ff0000; stroke-width: 1.5; stroke-linecap: square"/>
   </g>
   <g id="patch_13">
    <path d="M 236.243614 329.76 
L 236.243614 195.864 
" style="fill: none; stroke: #000000; stroke-width: 0.8; stroke-linejoin: miter; stroke-linecap: square"/>
   </g>
   <g id="patch_14">
    <path d="M 385.2 329.76 
L 385.2 195.864 
" style="fill: none; stroke: #000000; stroke-width: 0.8; stroke-linejoin: miter; stroke-linecap: square"/>
   </g>
   <g id="patch_15">
    <path d="M 236.243614 329.76 
L 385.2 329.76 
" style="fill: none; stroke: #000000; stroke-width: 0.8; stroke-linejoin: miter; stroke-linecap: square"/>
   </g>
   <g id="patch_16">
    <path d="M 236.243614 195.864 
L 385.2 195.864 
" style="fill: none; stroke: #000000; stroke-width: 0.8; stroke-linejoin: miter; stroke-linecap: square"/>
   </g>
   <g id="text_19">
    <!-- $w_{IDM}$ = ${-0.9780}_{-0.1512}^{+0.1374}$ -->
    <g transform="translate(233.161807 189.864) scale(0.14 -0.14)">
     <use xlink:href="#DejaVuSans-Oblique-77" transform="translate(0 0.765625)"/>
     <use xlink:href="#DejaVuSans-Oblique-49" transform="translate(81.787109 -15.640625) scale(0.7)"/>
     <use xlink:href="#DejaVuSans-Oblique-44" transform="translate(102.431641 -15.640625) scale(0.7)"/>
     <use xlink:href="#DejaVuSans-Oblique-4d" transform="translate(156.333008 -15.640625) scale(0.7)"/>
     <use xlink:href="#DejaVuSans-20" transform="translate(219.462891 0.765625)"/>
     <use xlink:href="#DejaVuSans-3d" transform="translate(251.25 0.765625)"/>
     <use xlink:href="#DejaVuSans-20" transform="translate(335.039062 0.765625)"/>
     <use xlink:href="#DejaVuSans-2212" transform="translate(366.826172 0.765625)"/>
     <use xlink:href="#DejaVuSans-30" transform="translate(450.615234 0.765625)"/>
     <use xlink:href="#DejaVuSans-2e" transform="translate(514.238281 0.765625)"/>
     <use xlink:href="#DejaVuSans-39" transform="translate(546.025391 0.765625)"/>
     <use xlink:href="#DejaVuSans-37" transform="translate(609.648438 0.765625)"/>
     <use xlink:href="#DejaVuSans-38" transform="translate(673.271484 0.765625)"/>
     <use xlink:href="#DejaVuSans-30" transform="translate(736.894531 0.765625)"/>
     <use xlink:href="#DejaVuSans-2b" transform="translate(801.474609 39.046875) scale(0.7)"/>
     <use xlink:href="#DejaVuSans-30" transform="translate(860.126953 39.046875) scale(0.7)"/>
     <use xlink:href="#DejaVuSans-2e" transform="translate(904.663086 39.046875) scale(0.7)"/>
     <use xlink:href="#DejaVuSans-31" transform="translate(926.914062 39.046875) scale(0.7)"/>
     <use xlink:href="#DejaVuSans-33" transform="translate(971.450195 39.046875) scale(0.7)"/>
     <use xlink:href="#DejaVuSans-37" transform="translate(1015.986328 39.046875) scale(0.7)"/>
     <use xlink:href="#DejaVuSans-34" transform="translate(1060.522461 39.046875) scale(0.7)"/>
     <use xlink:href="#DejaVuSans-2212" transform="translate(801.474609 -26.578125) scale(0.7)"/>
     <use xlink:href="#DejaVuSans-30" transform="translate(860.126953 -26.578125) scale(0.7)"/>
     <use xlink:href="#DejaVuSans-2e" transform="translate(904.663086 -26.578125) scale(0.7)"/>
     <use xlink:href="#DejaVuSans-31" transform="translate(926.914062 -26.578125) scale(0.7)"/>
     <use xlink:href="#DejaVuSans-35" transform="translate(971.450195 -26.578125) scale(0.7)"/>
     <use xlink:href="#DejaVuSans-31" transform="translate(1015.986328 -26.578125) scale(0.7)"/>
     <use xlink:href="#DejaVuSans-32" transform="translate(1060.522461 -26.578125) scale(0.7)"/>
    </g>
   </g>
  </g>
 </g>
 <defs>
  <clipPath id="pc4397f3687">
   <rect x="64.368" y="30.984" width="148.956386" height="133.896"/>
  </clipPath>
  <clipPath id="p882160c3ef">
   <rect x="64.368" y="195.864" width="148.956386" height="133.896"/>
  </clipPath>
  <clipPath id="p9a5d54257e">
   <rect x="236.243614" y="195.864" width="148.956386" height="133.896"/>
  </clipPath>
 </defs>
</svg>
