<?xml version="1.0" encoding="utf-8" standalone="no"?>
<!DOCTYPE svg PUBLIC "-//W3C//DTD SVG 1.1//EN"
  "http://www.w3.org/Graphics/SVG/1.1/DTD/svg11.dtd">
<svg xmlns:xlink="http://www.w3.org/1999/xlink" width="396pt" height="396pt" viewBox="0 0 396 396" xmlns="http://www.w3.org/2000/svg" version="1.1">
 <metadata>
  <rdf:RDF xmlns:dc="http://purl.org/dc/elements/1.1/" xmlns:cc="http://creativecommons.org/ns#" xmlns:rdf="http://www.w3.org/1999/02/22-rdf-syntax-ns#">
   <cc:Work>
    <dc:type rdf:resource="http://purl.org/dc/dcmitype/StillImage"/>
    <dc:date>2024-11-19T13:10:25.041360</dc:date>
    <dc:format>image/svg+xml</dc:format>
    <dc:creator>
     <cc:Agent>
      <dc:title>Matplotlib v3.9.2, https://matplotlib.org/</dc:title>
     </cc:Agent>
    </dc:creator>
   </cc:Work>
  </rdf:RDF>
 </metadata>
 <defs>
  <style type="text/css">*{stroke-linejoin: round; stroke-linecap: butt}</style>
 </defs>
 <g id="figure_1">
  <g id="patch_1">
   <path d="M 0 396 
L 396 396 
L 396 0 
L 0 0 
z
" style="fill: #ffffff"/>
  </g>
  <g id="axes_1">
   <g id="patch_2">
    <path d="M 66.96 164.52 
L 215.827308 164.52 
L 215.827308 30.984 
L 66.96 30.984 
z
" style="fill: #ffffff"/>
   </g>
   <g id="matplotlib.axis_1">
    <g id="xtick_1">
     <g id="line2d_1">
      <defs>
       <path id="maf8c4a63c9" d="M 0 0 
L 0 3.5 
" style="stroke: #000000; stroke-width: 0.8"/>
      </defs>
      <g>
       <use xlink:href="#maf8c4a63c9" x="101.33537" y="164.52" style="stroke: #000000; stroke-width: 0.8"/>
      </g>
     </g>
    </g>
    <g id="xtick_2">
     <g id="line2d_2">
      <g>
       <use xlink:href="#maf8c4a63c9" x="136.337731" y="164.52" style="stroke: #000000; stroke-width: 0.8"/>
      </g>
     </g>
    </g>
    <g id="xtick_3">
     <g id="line2d_3">
      <g>
       <use xlink:href="#maf8c4a63c9" x="171.340092" y="164.52" style="stroke: #000000; stroke-width: 0.8"/>
      </g>
     </g>
    </g>
    <g id="xtick_4">
     <g id="line2d_4">
      <g>
       <use xlink:href="#maf8c4a63c9" x="206.342453" y="164.52" style="stroke: #000000; stroke-width: 0.8"/>
      </g>
     </g>
    </g>
   </g>
   <g id="matplotlib.axis_2"/>
   <g id="line2d_5">
    <path d="M 66.96 164.152355 
L 72.914692 164.225884 
L 72.914692 164.299413 
L 77.380712 164.225884 
L 77.380712 164.152355 
L 78.869385 164.078826 
L 78.869385 164.005297 
L 80.358058 163.931768 
L 80.358058 163.858239 
L 81.102394 163.858239 
L 81.102394 163.711181 
L 83.335404 163.637652 
L 83.335404 163.564123 
L 86.31275 163.637652 
L 86.31275 163.711181 
L 88.54576 163.78471 
L 88.54576 163.858239 
L 93.011779 163.78471 
L 93.011779 163.711181 
L 94.500452 163.637652 
L 94.500452 163.564123 
L 95.989125 163.490594 
L 95.989125 163.417065 
L 97.477798 163.343536 
L 97.477798 163.270007 
L 99.710808 163.196478 
L 99.710808 163.04942 
L 100.455144 163.04942 
L 100.455144 162.902362 
L 101.199481 162.902362 
L 101.199481 162.755304 
L 101.943817 162.755304 
L 101.943817 162.461188 
L 102.688154 162.461188 
L 102.688154 162.093543 
L 103.43249 162.093543 
L 103.43249 161.725898 
L 104.176827 161.725898 
L 104.176827 161.211195 
L 104.921163 161.211195 
L 104.921163 160.696492 
L 105.6655 160.696492 
L 105.6655 160.108261 
L 106.409837 160.108261 
L 106.409837 159.593558 
L 107.154173 159.593558 
L 107.154173 159.152384 
L 107.89851 159.152384 
L 107.89851 158.71121 
L 108.642846 158.71121 
L 108.642846 158.417094 
L 109.387183 158.417094 
L 109.387183 158.122978 
L 110.131519 158.122978 
L 110.131519 157.902391 
L 110.875856 157.902391 
L 110.875856 157.681804 
L 111.620192 157.681804 
L 111.620192 157.461217 
L 112.364529 157.461217 
L 112.364529 157.093572 
L 113.108865 157.093572 
L 113.108865 156.725927 
L 113.853202 156.725927 
L 113.853202 156.211224 
L 114.597538 156.211224 
L 114.597538 155.549463 
L 115.341875 155.549463 
L 115.341875 154.814173 
L 116.086212 154.814173 
L 116.086212 154.005354 
L 116.830548 154.005354 
L 116.830548 153.196535 
L 117.574885 153.196535 
L 117.574885 152.314188 
L 118.319221 152.314188 
L 118.319221 151.43184 
L 119.063558 151.43184 
L 119.063558 150.623021 
L 119.807894 150.623021 
L 119.807894 149.667144 
L 120.552231 149.667144 
L 120.552231 148.784796 
L 121.296567 148.784796 
L 121.296567 147.75539 
L 122.040904 147.75539 
L 122.040904 146.652455 
L 122.78524 146.652455 
L 122.78524 145.475991 
L 123.529577 145.475991 
L 123.529577 144.225999 
L 124.273913 144.225999 
L 124.273913 142.828948 
L 125.01825 142.828948 
L 125.01825 141.284839 
L 125.762587 141.284839 
L 125.762587 139.667201 
L 126.506923 139.667201 
L 126.506923 137.828976 
L 127.25126 137.828976 
L 127.25126 135.917223 
L 127.995596 135.917223 
L 127.995596 133.784882 
L 128.739933 133.784882 
L 128.739933 131.431954 
L 129.484269 131.431954 
L 129.484269 129.005497 
L 130.228606 129.005497 
L 130.228606 126.505512 
L 130.972942 126.505512 
L 130.972942 123.858468 
L 131.717279 123.858468 
L 131.717279 121.137895 
L 132.461615 121.137895 
L 132.461615 118.270265 
L 133.205952 118.270265 
L 133.205952 115.329105 
L 133.950288 115.329105 
L 133.950288 112.314417 
L 134.694625 112.314417 
L 134.694625 109.079141 
L 135.438962 109.079141 
L 135.438962 105.770336 
L 136.183298 105.770336 
L 136.183298 102.240945 
L 136.927635 102.240945 
L 136.927635 98.711553 
L 137.671971 98.711553 
L 137.671971 95.035104 
L 138.416308 95.035104 
L 138.416308 91.285125 
L 139.160644 91.285125 
L 139.160644 87.608676 
L 139.904981 87.608676 
L 139.904981 83.932226 
L 140.649317 83.932226 
L 140.649317 80.329306 
L 141.393654 80.329306 
L 141.393654 76.799914 
L 142.13799 76.799914 
L 142.13799 73.344052 
L 142.882327 73.344052 
L 142.882327 70.108776 
L 143.626663 70.108776 
L 143.626663 66.8735 
L 144.371 66.8735 
L 144.371 63.785283 
L 145.115337 63.785283 
L 145.115337 60.844123 
L 145.859673 60.844123 
L 145.859673 57.902963 
L 146.60401 57.902963 
L 146.60401 55.108862 
L 147.348346 55.108862 
L 147.348346 52.461818 
L 148.092683 52.461818 
L 148.092683 50.035361 
L 148.837019 50.035361 
L 148.837019 47.97655 
L 149.581356 47.97655 
L 149.581356 46.285383 
L 150.325692 46.285383 
L 150.325692 44.888332 
L 151.070029 44.888332 
L 151.070029 43.932455 
L 151.814365 43.932455 
L 151.814365 43.417752 
L 152.558702 43.417752 
L 152.558702 43.123636 
L 154.047375 43.197165 
L 154.047375 43.56481 
L 154.791712 43.56481 
L 154.791712 44.153042 
L 155.536048 44.153042 
L 155.536048 44.888332 
L 156.280385 44.888332 
L 156.280385 45.77068 
L 157.024721 45.77068 
L 157.024721 46.726557 
L 157.769058 46.726557 
L 157.769058 47.903021 
L 158.513394 47.903021 
L 158.513394 49.226543 
L 159.257731 49.226543 
L 159.257731 50.770651 
L 160.002067 50.770651 
L 160.002067 52.535347 
L 160.746404 52.535347 
L 160.746404 54.52063 
L 161.49074 54.52063 
L 161.49074 56.800029 
L 162.235077 56.800029 
L 162.235077 59.300014 
L 162.979413 59.300014 
L 162.979413 61.947058 
L 163.72375 61.947058 
L 163.72375 64.667631 
L 164.468087 64.667631 
L 164.468087 67.461732 
L 165.212423 67.461732 
L 165.212423 70.329363 
L 165.95676 70.329363 
L 165.95676 73.123465 
L 166.701096 73.123465 
L 166.701096 76.064624 
L 167.445433 76.064624 
L 167.445433 79.005784 
L 168.189769 79.005784 
L 168.189769 82.020472 
L 168.934106 82.020472 
L 168.934106 85.10869 
L 169.678442 85.10869 
L 169.678442 88.343966 
L 170.422779 88.343966 
L 170.422779 91.65277 
L 171.167115 91.65277 
L 171.167115 95.035104 
L 171.911452 95.035104 
L 171.911452 98.417437 
L 172.655788 98.417437 
L 172.655788 101.726242 
L 173.400125 101.726242 
L 173.400125 105.108576 
L 174.144462 105.108576 
L 174.144462 108.41738 
L 174.888798 108.41738 
L 174.888798 111.652656 
L 175.633135 111.652656 
L 175.633135 114.887931 
L 176.377471 114.887931 
L 176.377471 118.049678 
L 177.121808 118.049678 
L 177.121808 121.137895 
L 177.866144 121.137895 
L 177.866144 124.152584 
L 178.610481 124.152584 
L 178.610481 127.020215 
L 179.354817 127.020215 
L 179.354817 129.814316 
L 180.099154 129.814316 
L 180.099154 132.46136 
L 180.84349 132.46136 
L 180.84349 134.961346 
L 181.587827 134.961346 
L 181.587827 137.240744 
L 182.332163 137.240744 
L 182.332163 139.373085 
L 183.0765 139.373085 
L 183.0765 141.358368 
L 183.820837 141.358368 
L 183.820837 143.196593 
L 184.565173 143.196593 
L 184.565173 144.961288 
L 185.30951 144.961288 
L 185.30951 146.578926 
L 186.053846 146.578926 
L 186.053846 148.123035 
L 186.798183 148.123035 
L 186.798183 149.593615 
L 187.542519 149.593615 
L 187.542519 150.917137 
L 188.286856 150.917137 
L 188.286856 152.16713 
L 189.031192 152.16713 
L 189.031192 153.343593 
L 189.775529 153.343593 
L 189.775529 154.446528 
L 190.519865 154.446528 
L 190.519865 155.402405 
L 191.264202 155.402405 
L 191.264202 156.358282 
L 192.008538 156.358282 
L 192.008538 157.24063 
L 192.752875 157.24063 
L 192.752875 157.97592 
L 193.497212 157.97592 
L 193.497212 158.71121 
L 194.241548 158.71121 
L 194.241548 159.372971 
L 194.985885 159.372971 
L 194.985885 159.887674 
L 195.730221 159.887674 
L 195.730221 160.402377 
L 196.474558 160.402377 
L 196.474558 160.84355 
L 197.218894 160.84355 
L 197.218894 161.211195 
L 197.963231 161.211195 
L 197.963231 161.57884 
L 198.707567 161.57884 
L 198.707567 161.872956 
L 199.451904 161.872956 
L 199.451904 162.093543 
L 200.19624 162.093543 
L 200.19624 162.387659 
L 200.940577 162.387659 
L 200.940577 162.608246 
L 201.684913 162.608246 
L 201.684913 162.828833 
L 202.42925 162.828833 
L 202.42925 162.975891 
L 203.173587 162.975891 
L 203.173587 163.196478 
L 203.917923 163.196478 
L 203.917923 163.343536 
L 204.66226 163.343536 
L 204.66226 163.490594 
L 205.406596 163.490594 
L 205.406596 163.637652 
L 206.150933 163.637652 
L 206.150933 163.78471 
L 207.639606 163.858239 
L 207.639606 164.005297 
L 209.128279 164.078826 
L 209.128279 164.152355 
L 210.616952 164.225884 
L 210.616952 164.299413 
L 212.849962 164.372942 
L 212.849962 164.446471 
L 215.827308 164.446471 
L 215.827308 164.446471 
" clip-path="url(#p9f4e5118ac)" style="fill: none; stroke: #ff0000; stroke-width: 1.5; stroke-linecap: square"/>
   </g>
   <g id="patch_3">
    <path d="M 66.96 164.52 
L 66.96 30.984 
" style="fill: none; stroke: #000000; stroke-width: 0.8; stroke-linejoin: miter; stroke-linecap: square"/>
   </g>
   <g id="patch_4">
    <path d="M 215.827308 164.52 
L 215.827308 30.984 
" style="fill: none; stroke: #000000; stroke-width: 0.8; stroke-linejoin: miter; stroke-linecap: square"/>
   </g>
   <g id="patch_5">
    <path d="M 66.96 164.52 
L 215.827308 164.52 
" style="fill: none; stroke: #000000; stroke-width: 0.8; stroke-linejoin: miter; stroke-linecap: square"/>
   </g>
   <g id="patch_6">
    <path d="M 66.96 30.984 
L 215.827308 30.984 
" style="fill: none; stroke: #000000; stroke-width: 0.8; stroke-linejoin: miter; stroke-linecap: square"/>
   </g>
   <g id="text_1">
    <!-- $\Omega_{2,0}$ = ${0.3003}_{-0.0184}^{+0.0183}$ -->
    <g transform="translate(70.693654 24.984) scale(0.14 -0.14)">
     <defs>
      <path id="DejaVuSans-3a9" d="M 4647 556 
L 4647 0 
L 2772 0 
L 2772 556 
Q 3325 859 3634 1378 
Q 3944 1897 3944 2528 
Q 3944 3278 3531 3731 
Q 3119 4184 2444 4184 
Q 1769 4184 1355 3729 
Q 941 3275 941 2528 
Q 941 1897 1250 1378 
Q 1563 859 2119 556 
L 2119 0 
L 244 0 
L 244 556 
L 1241 556 
Q 747 991 519 1456 
Q 294 1922 294 2497 
Q 294 3491 894 4106 
Q 1491 4722 2444 4722 
Q 3391 4722 3994 4106 
Q 4594 3494 4594 2528 
Q 4594 1922 4372 1459 
Q 4150 997 3647 556 
L 4647 556 
z
" transform="scale(0.015625)"/>
      <path id="DejaVuSans-32" d="M 1228 531 
L 3431 531 
L 3431 0 
L 469 0 
L 469 531 
Q 828 903 1448 1529 
Q 2069 2156 2228 2338 
Q 2531 2678 2651 2914 
Q 2772 3150 2772 3378 
Q 2772 3750 2511 3984 
Q 2250 4219 1831 4219 
Q 1534 4219 1204 4116 
Q 875 4013 500 3803 
L 500 4441 
Q 881 4594 1212 4672 
Q 1544 4750 1819 4750 
Q 2544 4750 2975 4387 
Q 3406 4025 3406 3419 
Q 3406 3131 3298 2873 
Q 3191 2616 2906 2266 
Q 2828 2175 2409 1742 
Q 1991 1309 1228 531 
z
" transform="scale(0.015625)"/>
      <path id="DejaVuSans-2c" d="M 750 794 
L 1409 794 
L 1409 256 
L 897 -744 
L 494 -744 
L 750 256 
L 750 794 
z
" transform="scale(0.015625)"/>
      <path id="DejaVuSans-30" d="M 2034 4250 
Q 1547 4250 1301 3770 
Q 1056 3291 1056 2328 
Q 1056 1369 1301 889 
Q 1547 409 2034 409 
Q 2525 409 2770 889 
Q 3016 1369 3016 2328 
Q 3016 3291 2770 3770 
Q 2525 4250 2034 4250 
z
M 2034 4750 
Q 2819 4750 3233 4129 
Q 3647 3509 3647 2328 
Q 3647 1150 3233 529 
Q 2819 -91 2034 -91 
Q 1250 -91 836 529 
Q 422 1150 422 2328 
Q 422 3509 836 4129 
Q 1250 4750 2034 4750 
z
" transform="scale(0.015625)"/>
      <path id="DejaVuSans-20" transform="scale(0.015625)"/>
      <path id="DejaVuSans-3d" d="M 678 2906 
L 4684 2906 
L 4684 2381 
L 678 2381 
L 678 2906 
z
M 678 1631 
L 4684 1631 
L 4684 1100 
L 678 1100 
L 678 1631 
z
" transform="scale(0.015625)"/>
      <path id="DejaVuSans-2e" d="M 684 794 
L 1344 794 
L 1344 0 
L 684 0 
L 684 794 
z
" transform="scale(0.015625)"/>
      <path id="DejaVuSans-33" d="M 2597 2516 
Q 3050 2419 3304 2112 
Q 3559 1806 3559 1356 
Q 3559 666 3084 287 
Q 2609 -91 1734 -91 
Q 1441 -91 1130 -33 
Q 819 25 488 141 
L 488 750 
Q 750 597 1062 519 
Q 1375 441 1716 441 
Q 2309 441 2620 675 
Q 2931 909 2931 1356 
Q 2931 1769 2642 2001 
Q 2353 2234 1838 2234 
L 1294 2234 
L 1294 2753 
L 1863 2753 
Q 2328 2753 2575 2939 
Q 2822 3125 2822 3475 
Q 2822 3834 2567 4026 
Q 2313 4219 1838 4219 
Q 1578 4219 1281 4162 
Q 984 4106 628 3988 
L 628 4550 
Q 988 4650 1302 4700 
Q 1616 4750 1894 4750 
Q 2613 4750 3031 4423 
Q 3450 4097 3450 3541 
Q 3450 3153 3228 2886 
Q 3006 2619 2597 2516 
z
" transform="scale(0.015625)"/>
      <path id="DejaVuSans-2b" d="M 2944 4013 
L 2944 2272 
L 4684 2272 
L 4684 1741 
L 2944 1741 
L 2944 0 
L 2419 0 
L 2419 1741 
L 678 1741 
L 678 2272 
L 2419 2272 
L 2419 4013 
L 2944 4013 
z
" transform="scale(0.015625)"/>
      <path id="DejaVuSans-31" d="M 794 531 
L 1825 531 
L 1825 4091 
L 703 3866 
L 703 4441 
L 1819 4666 
L 2450 4666 
L 2450 531 
L 3481 531 
L 3481 0 
L 794 0 
L 794 531 
z
" transform="scale(0.015625)"/>
      <path id="DejaVuSans-38" d="M 2034 2216 
Q 1584 2216 1326 1975 
Q 1069 1734 1069 1313 
Q 1069 891 1326 650 
Q 1584 409 2034 409 
Q 2484 409 2743 651 
Q 3003 894 3003 1313 
Q 3003 1734 2745 1975 
Q 2488 2216 2034 2216 
z
M 1403 2484 
Q 997 2584 770 2862 
Q 544 3141 544 3541 
Q 544 4100 942 4425 
Q 1341 4750 2034 4750 
Q 2731 4750 3128 4425 
Q 3525 4100 3525 3541 
Q 3525 3141 3298 2862 
Q 3072 2584 2669 2484 
Q 3125 2378 3379 2068 
Q 3634 1759 3634 1313 
Q 3634 634 3220 271 
Q 2806 -91 2034 -91 
Q 1263 -91 848 271 
Q 434 634 434 1313 
Q 434 1759 690 2068 
Q 947 2378 1403 2484 
z
M 1172 3481 
Q 1172 3119 1398 2916 
Q 1625 2713 2034 2713 
Q 2441 2713 2670 2916 
Q 2900 3119 2900 3481 
Q 2900 3844 2670 4047 
Q 2441 4250 2034 4250 
Q 1625 4250 1398 4047 
Q 1172 3844 1172 3481 
z
" transform="scale(0.015625)"/>
      <path id="DejaVuSans-2212" d="M 678 2272 
L 4684 2272 
L 4684 1741 
L 678 1741 
L 678 2272 
z
" transform="scale(0.015625)"/>
      <path id="DejaVuSans-34" d="M 2419 4116 
L 825 1625 
L 2419 1625 
L 2419 4116 
z
M 2253 4666 
L 3047 4666 
L 3047 1625 
L 3713 1625 
L 3713 1100 
L 3047 1100 
L 3047 0 
L 2419 0 
L 2419 1100 
L 313 1100 
L 313 1709 
L 2253 4666 
z
" transform="scale(0.015625)"/>
     </defs>
     <use xlink:href="#DejaVuSans-3a9" transform="translate(0 0.765625)"/>
     <use xlink:href="#DejaVuSans-32" transform="translate(77.373047 -15.640625) scale(0.7)"/>
     <use xlink:href="#DejaVuSans-2c" transform="translate(121.90918 -15.640625) scale(0.7)"/>
     <use xlink:href="#DejaVuSans-30" transform="translate(157.797852 -15.640625) scale(0.7)"/>
     <use xlink:href="#DejaVuSans-20" transform="translate(205.068359 0.765625)"/>
     <use xlink:href="#DejaVuSans-3d" transform="translate(236.855469 0.765625)"/>
     <use xlink:href="#DejaVuSans-20" transform="translate(320.644531 0.765625)"/>
     <use xlink:href="#DejaVuSans-30" transform="translate(352.431641 0.765625)"/>
     <use xlink:href="#DejaVuSans-2e" transform="translate(416.054688 0.765625)"/>
     <use xlink:href="#DejaVuSans-33" transform="translate(447.841797 0.765625)"/>
     <use xlink:href="#DejaVuSans-30" transform="translate(511.464844 0.765625)"/>
     <use xlink:href="#DejaVuSans-30" transform="translate(575.087891 0.765625)"/>
     <use xlink:href="#DejaVuSans-33" transform="translate(638.710938 0.765625)"/>
     <use xlink:href="#DejaVuSans-2b" transform="translate(703.291016 39.046875) scale(0.7)"/>
     <use xlink:href="#DejaVuSans-30" transform="translate(761.943359 39.046875) scale(0.7)"/>
     <use xlink:href="#DejaVuSans-2e" transform="translate(806.479492 39.046875) scale(0.7)"/>
     <use xlink:href="#DejaVuSans-30" transform="translate(828.730469 39.046875) scale(0.7)"/>
     <use xlink:href="#DejaVuSans-31" transform="translate(873.266602 39.046875) scale(0.7)"/>
     <use xlink:href="#DejaVuSans-38" transform="translate(917.802734 39.046875) scale(0.7)"/>
     <use xlink:href="#DejaVuSans-33" transform="translate(962.338867 39.046875) scale(0.7)"/>
     <use xlink:href="#DejaVuSans-2212" transform="translate(703.291016 -26.578125) scale(0.7)"/>
     <use xlink:href="#DejaVuSans-30" transform="translate(761.943359 -26.578125) scale(0.7)"/>
     <use xlink:href="#DejaVuSans-2e" transform="translate(806.479492 -26.578125) scale(0.7)"/>
     <use xlink:href="#DejaVuSans-30" transform="translate(828.730469 -26.578125) scale(0.7)"/>
     <use xlink:href="#DejaVuSans-31" transform="translate(873.266602 -26.578125) scale(0.7)"/>
     <use xlink:href="#DejaVuSans-38" transform="translate(917.802734 -26.578125) scale(0.7)"/>
     <use xlink:href="#DejaVuSans-34" transform="translate(962.338867 -26.578125) scale(0.7)"/>
    </g>
   </g>
  </g>
  <g id="axes_2">
   <g id="matplotlib.axis_3"/>
   <g id="matplotlib.axis_4"/>
  </g>
  <g id="axes_3">
   <g id="patch_7">
    <path d="M 66.96 329.04 
L 215.827308 329.04 
L 215.827308 195.504 
L 66.96 195.504 
z
" style="fill: #ffffff"/>
   </g>
   <g id="QuadContourSet_1">
    <path d="M 80.358058 330.670814 
L 83.335404 331.399021 
L 86.31275 331.053149 
L 88.681327 330.37536 
L 88.681327 327.70464 
L 86.31275 326.118236 
L 83.335404 325.496279 
L 80.358058 327.013125 
L 79.799651 327.70464 
L 79.799651 330.37536 
z
M 104.176827 331.31173 
L 107.154173 331.963995 
L 110.131519 331.963435 
L 113.108865 331.788324 
L 116.086212 331.858192 
L 119.063558 331.784019 
L 122.040904 331.284819 
L 125.01825 330.413459 
L 125.236933 330.37536 
L 125.236933 327.70464 
L 127.995596 327.402311 
L 130.972942 327.294439 
L 133.950288 326.842537 
L 136.927635 326.010992 
L 139.648348 325.03392 
L 139.904981 324.978272 
L 142.882327 324.42737 
L 145.859673 324.200315 
L 148.837019 323.986075 
L 151.814365 323.086794 
L 153.221494 322.3632 
L 154.791712 321.736906 
L 157.769058 320.370103 
L 159.244927 319.69248 
L 160.746404 319.203426 
L 163.72375 318.296622 
L 166.602484 317.02176 
L 166.701096 316.979841 
L 169.678442 315.907538 
L 172.655788 314.619652 
L 173.164682 314.35104 
L 175.633135 313.0999 
L 177.618824 311.68032 
L 178.610481 310.235374 
L 179.68068 309.0096 
L 181.587827 307.259825 
L 182.905612 306.33888 
L 184.565173 305.06885 
L 186.097385 303.66816 
L 187.016818 300.99744 
L 186.711233 298.32672 
L 186.777918 295.656 
L 186.820706 292.98528 
L 186.304801 290.31456 
L 186.146792 287.64384 
L 186.687803 284.97312 
L 186.825993 282.3024 
L 186.442859 279.63168 
L 186.529463 276.96096 
L 186.406722 274.29024 
L 186.840698 271.61952 
L 187.542519 270.144727 
L 188.308628 268.9488 
L 189.17944 266.27808 
L 188.678467 263.60736 
L 188.38381 260.93664 
L 188.721999 258.26592 
L 189.381658 255.5952 
L 189.482496 252.92448 
L 188.795603 250.25376 
L 187.950397 247.58304 
L 188.121981 244.91232 
L 187.720243 242.2416 
L 187.542519 241.888736 
L 186.901603 239.57088 
L 187.166079 236.90016 
L 187.428235 234.22944 
L 187.171358 231.55872 
L 187.039268 228.888 
L 187.058762 226.21728 
L 187.212921 223.54656 
L 187.113406 220.87584 
L 186.678339 218.20512 
L 186.356263 215.5344 
L 185.96363 212.86368 
L 186.358842 210.19296 
L 187.542519 208.652439 
L 188.206891 207.52224 
L 188.767909 204.85152 
L 187.809411 202.1808 
L 187.542519 201.524128 
L 186.869002 199.51008 
L 186.78218 196.83936 
L 186.78218 194.16864 
L 184.565173 193.345244 
L 181.587827 192.918554 
L 178.610481 192.67616 
L 175.633135 192.486907 
L 172.655788 192.245581 
L 169.678442 192.039935 
L 166.701096 191.918742 
L 163.72375 191.871676 
L 160.746404 191.865421 
L 157.769058 191.881327 
L 154.791712 191.903616 
L 151.814365 191.893253 
L 148.837019 191.90738 
L 145.859673 191.98214 
L 142.882327 192.063999 
L 139.904981 192.158699 
L 136.927635 192.349828 
L 133.950288 192.598475 
L 130.972942 192.898857 
L 127.995596 193.553907 
L 126.064526 194.16864 
L 126.064526 196.83936 
L 126.279104 199.51008 
L 127.995596 202.150847 
L 128.01016 202.1808 
L 129.214456 204.85152 
L 129.350433 207.52224 
L 128.439848 210.19296 
L 127.995596 212.471358 
L 127.855117 212.86368 
L 127.92713 215.5344 
L 127.625338 218.20512 
L 126.771054 220.87584 
L 125.833677 223.54656 
L 125.557413 226.21728 
L 125.01825 228.888 
L 125.01825 228.888 
L 123.888996 231.55872 
L 124.45854 234.22944 
L 125.01825 235.038584 
L 126.100922 236.90016 
L 127.044905 239.57088 
L 127.011118 242.2416 
L 126.859861 244.91232 
L 126.808012 247.58304 
L 126.794918 250.25376 
L 127.302088 252.92448 
L 127.995596 255.569047 
L 128.000748 255.5952 
L 128.263015 258.26592 
L 128.430795 260.93664 
L 128.290553 263.60736 
L 128.011302 266.27808 
L 127.995596 266.481842 
L 127.670971 268.9488 
L 127.596728 271.61952 
L 127.995596 274.289766 
L 127.995648 274.29024 
L 127.995596 274.291122 
L 127.743473 276.96096 
L 126.711133 279.63168 
L 126.019551 282.3024 
L 126.048384 284.97312 
L 126.479163 287.64384 
L 126.758894 290.31456 
L 126.815305 292.98528 
L 126.842587 295.656 
L 126.561769 298.32672 
L 125.170908 300.99744 
L 125.01825 301.281833 
L 123.740412 303.66816 
L 122.538616 306.33888 
L 122.040904 306.896222 
L 119.854551 309.0096 
L 119.063558 309.652656 
L 116.682873 311.68032 
L 116.086212 312.029762 
L 113.108865 313.37075 
L 111.4524 314.35104 
L 110.131519 314.861451 
L 107.154173 316.40081 
L 106.241191 317.02176 
L 104.176827 318.231579 
L 102.369139 319.69248 
L 101.199481 321.178789 
L 99.129086 322.3632 
L 98.222135 323.270467 
L 95.244788 324.764789 
L 94.906463 325.03392 
L 95.244788 326.106416 
L 98.222135 327.510997 
L 101.199481 327.335821 
L 101.490036 327.70464 
L 101.490036 330.37536 
z
" clip-path="url(#p24a7280f7d)" style="fill: #ffffff"/>
   </g>
   <g id="QuadContourSet_2">
    <path d="M 65.471327 333.04608 
L 68.448673 333.04608 
L 71.426019 333.04608 
L 74.403365 333.04608 
L 77.380712 333.04608 
L 80.358058 333.04608 
L 83.335404 333.04608 
L 86.31275 333.04608 
L 89.290096 333.04608 
L 92.267442 333.04608 
L 95.244788 333.04608 
L 98.222135 333.04608 
L 101.199481 333.04608 
L 104.176827 333.04608 
L 107.154173 333.04608 
L 110.131519 333.04608 
L 113.108865 333.04608 
L 116.086212 333.04608 
L 119.063558 333.04608 
L 122.040904 333.04608 
L 125.01825 333.04608 
L 127.995596 333.04608 
L 130.972942 333.04608 
L 133.950288 333.04608 
L 136.927635 333.04608 
L 139.904981 333.04608 
L 142.882327 333.04608 
L 145.859673 333.04608 
L 148.837019 333.04608 
L 151.814365 333.04608 
L 154.791712 333.04608 
L 157.769058 333.04608 
L 160.746404 333.04608 
L 163.72375 333.04608 
L 166.701096 333.04608 
L 169.678442 333.04608 
L 172.655788 333.04608 
L 175.633135 333.04608 
L 178.610481 333.04608 
L 181.587827 333.04608 
L 184.565173 333.04608 
L 187.542519 333.04608 
L 190.519865 333.04608 
L 193.497212 333.04608 
L 196.474558 333.04608 
L 199.451904 333.04608 
L 202.42925 333.04608 
L 205.406596 333.04608 
L 208.383942 333.04608 
L 211.361288 333.04608 
L 214.338635 333.04608 
L 217.315981 333.04608 
L 220.293327 333.04608 
L 220.293327 330.37536 
L 220.293327 327.70464 
L 220.293327 325.03392 
L 220.293327 322.3632 
L 220.293327 319.69248 
L 220.293327 317.02176 
L 220.293327 314.35104 
L 220.293327 311.68032 
L 220.293327 309.0096 
L 220.293327 306.33888 
L 220.293327 303.66816 
L 220.293327 300.99744 
L 220.293327 298.32672 
L 220.293327 295.656 
L 220.293327 292.98528 
L 220.293327 290.31456 
L 220.293327 287.64384 
L 220.293327 284.97312 
L 220.293327 282.3024 
L 220.293327 279.63168 
L 220.293327 276.96096 
L 220.293327 274.29024 
L 220.293327 271.61952 
L 220.293327 268.9488 
L 220.293327 266.27808 
L 220.293327 263.60736 
L 220.293327 260.93664 
L 220.293327 258.26592 
L 220.293327 255.5952 
L 220.293327 252.92448 
L 220.293327 250.25376 
L 220.293327 247.58304 
L 220.293327 244.91232 
L 220.293327 242.2416 
L 220.293327 239.57088 
L 220.293327 236.90016 
L 220.293327 234.22944 
L 220.293327 231.55872 
L 220.293327 228.888 
L 220.293327 226.21728 
L 220.293327 223.54656 
L 220.293327 220.87584 
L 220.293327 218.20512 
L 220.293327 215.5344 
L 220.293327 212.86368 
L 220.293327 210.19296 
L 220.293327 207.52224 
L 220.293327 204.85152 
L 220.293327 202.1808 
L 220.293327 199.51008 
L 220.293327 196.83936 
L 220.293327 194.16864 
L 220.293327 191.49792 
L 217.315981 191.49792 
L 214.338635 191.49792 
L 211.361288 191.49792 
L 208.383942 191.49792 
L 205.406596 191.49792 
L 202.42925 191.49792 
L 199.451904 191.49792 
L 196.474558 191.49792 
L 193.497212 191.49792 
L 190.519865 191.49792 
L 187.542519 191.49792 
L 184.565173 191.49792 
L 181.587827 191.49792 
L 178.610481 191.49792 
L 175.633135 191.49792 
L 172.655788 191.49792 
L 169.678442 191.49792 
L 166.701096 191.49792 
L 163.72375 191.49792 
L 160.746404 191.49792 
L 157.769058 191.49792 
L 154.791712 191.49792 
L 151.814365 191.49792 
L 148.837019 191.49792 
L 145.859673 191.49792 
L 142.882327 191.49792 
L 139.904981 191.49792 
L 136.927635 191.49792 
L 133.950288 191.49792 
L 130.972942 191.49792 
L 127.995596 191.49792 
L 125.01825 191.49792 
L 122.040904 191.49792 
L 119.063558 191.49792 
L 116.086212 191.49792 
L 113.108865 191.49792 
L 110.131519 191.49792 
L 107.154173 191.49792 
L 104.176827 191.49792 
L 101.199481 191.49792 
L 98.222135 191.49792 
L 95.244788 191.49792 
L 92.267442 191.49792 
L 89.290096 191.49792 
L 86.31275 191.49792 
L 83.335404 191.49792 
L 80.358058 191.49792 
L 77.380712 191.49792 
L 74.403365 191.49792 
L 71.426019 191.49792 
L 68.448673 191.49792 
L 65.471327 191.49792 
L 62.493981 191.49792 
L 62.493981 194.16864 
L 62.493981 196.83936 
L 62.493981 199.51008 
L 62.493981 202.1808 
L 62.493981 204.85152 
L 62.493981 207.52224 
L 62.493981 210.19296 
L 62.493981 212.86368 
L 62.493981 215.5344 
L 62.493981 218.20512 
L 62.493981 220.87584 
L 62.493981 223.54656 
L 62.493981 226.21728 
L 62.493981 228.888 
L 62.493981 231.55872 
L 62.493981 234.22944 
L 62.493981 236.90016 
L 62.493981 239.57088 
L 62.493981 242.2416 
L 62.493981 244.91232 
L 62.493981 247.58304 
L 62.493981 250.25376 
L 62.493981 252.92448 
L 62.493981 255.5952 
L 62.493981 258.26592 
L 62.493981 260.93664 
L 62.493981 263.60736 
L 62.493981 266.27808 
L 62.493981 268.9488 
L 62.493981 271.61952 
L 62.493981 274.29024 
L 62.493981 276.96096 
L 62.493981 279.63168 
L 62.493981 282.3024 
L 62.493981 284.97312 
L 62.493981 287.64384 
L 62.493981 290.31456 
L 62.493981 292.98528 
L 62.493981 295.656 
L 62.493981 298.32672 
L 62.493981 300.99744 
L 62.493981 303.66816 
L 62.493981 306.33888 
L 62.493981 309.0096 
L 62.493981 311.68032 
L 62.493981 314.35104 
L 62.493981 317.02176 
L 62.493981 319.69248 
L 62.493981 322.3632 
L 62.493981 325.03392 
L 62.493981 327.70464 
L 62.493981 330.37536 
L 62.493981 333.04608 
L 65.471327 333.04608 
z
M 79.799651 330.37536 
L 79.799651 327.70464 
L 80.358058 327.013125 
L 83.335404 325.496279 
L 86.31275 326.118236 
L 88.681327 327.70464 
L 88.681327 330.37536 
L 86.31275 331.053149 
L 83.335404 331.399021 
L 80.358058 330.670814 
L 79.799651 330.37536 
z
M 101.490036 330.37536 
L 101.490036 327.70464 
L 101.199481 327.335821 
L 98.222135 327.510997 
L 95.244788 326.106416 
L 94.906463 325.03392 
L 95.244788 324.764789 
L 98.222135 323.270467 
L 99.129086 322.3632 
L 101.199481 321.178789 
L 102.369139 319.69248 
L 104.176827 318.231579 
L 106.241191 317.02176 
L 107.154173 316.40081 
L 110.131519 314.861451 
L 111.4524 314.35104 
L 113.108865 313.37075 
L 116.086212 312.029762 
L 116.682873 311.68032 
L 119.063558 309.652656 
L 119.854551 309.0096 
L 122.040904 306.896222 
L 122.538616 306.33888 
L 123.740412 303.66816 
L 125.01825 301.281833 
L 125.170908 300.99744 
L 126.561769 298.32672 
L 126.842587 295.656 
L 126.815305 292.98528 
L 126.758894 290.31456 
L 126.479163 287.64384 
L 126.048384 284.97312 
L 126.019551 282.3024 
L 126.711133 279.63168 
L 127.743473 276.96096 
L 127.995596 274.291122 
L 127.995648 274.29024 
L 127.995596 274.289766 
L 127.596728 271.61952 
L 127.670971 268.9488 
L 127.995596 266.481842 
L 128.011302 266.27808 
L 128.290553 263.60736 
L 128.430795 260.93664 
L 128.263015 258.26592 
L 128.000748 255.5952 
L 127.995596 255.569047 
L 127.302088 252.92448 
L 126.794918 250.25376 
L 126.808012 247.58304 
L 126.859861 244.91232 
L 127.011118 242.2416 
L 127.044905 239.57088 
L 126.100922 236.90016 
L 125.01825 235.038584 
L 124.45854 234.22944 
L 123.888996 231.55872 
L 125.01825 228.888 
L 125.01825 228.888 
L 125.557413 226.21728 
L 125.833677 223.54656 
L 126.771054 220.87584 
L 127.625338 218.20512 
L 127.92713 215.5344 
L 127.855117 212.86368 
L 127.995596 212.471358 
L 128.439848 210.19296 
L 129.350433 207.52224 
L 129.214456 204.85152 
L 128.01016 202.1808 
L 127.995596 202.150847 
L 126.279104 199.51008 
L 126.064526 196.83936 
L 126.064526 194.16864 
L 127.995596 193.553907 
L 130.972942 192.898857 
L 133.950288 192.598475 
L 136.927635 192.349828 
L 139.904981 192.158699 
L 142.882327 192.063999 
L 145.859673 191.98214 
L 148.837019 191.90738 
L 151.814365 191.893253 
L 154.791712 191.903616 
L 157.769058 191.881327 
L 160.746404 191.865421 
L 163.72375 191.871676 
L 166.701096 191.918742 
L 169.678442 192.039935 
L 172.655788 192.245581 
L 175.633135 192.486907 
L 178.610481 192.67616 
L 181.587827 192.918554 
L 184.565173 193.345244 
L 186.78218 194.16864 
L 186.78218 196.83936 
L 186.869002 199.51008 
L 187.542519 201.524128 
L 187.809411 202.1808 
L 188.767909 204.85152 
L 188.206891 207.52224 
L 187.542519 208.652439 
L 186.358842 210.19296 
L 185.96363 212.86368 
L 186.356263 215.5344 
L 186.678339 218.20512 
L 187.113406 220.87584 
L 187.212921 223.54656 
L 187.058762 226.21728 
L 187.039268 228.888 
L 187.171358 231.55872 
L 187.428235 234.22944 
L 187.166079 236.90016 
L 186.901603 239.57088 
L 187.542519 241.888736 
L 187.720243 242.2416 
L 188.121981 244.91232 
L 187.950397 247.58304 
L 188.795603 250.25376 
L 189.482496 252.92448 
L 189.381658 255.5952 
L 188.721999 258.26592 
L 188.38381 260.93664 
L 188.678467 263.60736 
L 189.17944 266.27808 
L 188.308628 268.9488 
L 187.542519 270.144727 
L 186.840698 271.61952 
L 186.406722 274.29024 
L 186.529463 276.96096 
L 186.442859 279.63168 
L 186.825993 282.3024 
L 186.687803 284.97312 
L 186.146792 287.64384 
L 186.304801 290.31456 
L 186.820706 292.98528 
L 186.777918 295.656 
L 186.711233 298.32672 
L 187.016818 300.99744 
L 186.097385 303.66816 
L 184.565173 305.06885 
L 182.905612 306.33888 
L 181.587827 307.259825 
L 179.68068 309.0096 
L 178.610481 310.235374 
L 177.618824 311.68032 
L 175.633135 313.0999 
L 173.164682 314.35104 
L 172.655788 314.619652 
L 169.678442 315.907538 
L 166.701096 316.979841 
L 166.602484 317.02176 
L 163.72375 318.296622 
L 160.746404 319.203426 
L 159.244927 319.69248 
L 157.769058 320.370103 
L 154.791712 321.736906 
L 153.221494 322.3632 
L 151.814365 323.086794 
L 148.837019 323.986075 
L 145.859673 324.200315 
L 142.882327 324.42737 
L 139.904981 324.978272 
L 139.648348 325.03392 
L 136.927635 326.010992 
L 133.950288 326.842537 
L 130.972942 327.294439 
L 127.995596 327.402311 
L 125.236933 327.70464 
L 125.236933 330.37536 
L 125.01825 330.413459 
L 122.040904 331.284819 
L 119.063558 331.784019 
L 116.086212 331.858192 
L 113.108865 331.788324 
L 110.131519 331.963435 
L 107.154173 331.963995 
L 104.176827 331.31173 
L 101.490036 330.37536 
z
" clip-path="url(#p24a7280f7d)" style="fill: none"/>
    <path d="M 80.358058 330.670814 
L 83.335404 331.399021 
L 86.31275 331.053149 
L 88.681327 330.37536 
L 88.681327 327.70464 
L 86.31275 326.118236 
L 83.335404 325.496279 
L 80.358058 327.013125 
L 79.799651 327.70464 
L 79.799651 330.37536 
z
M 104.176827 331.31173 
L 107.154173 331.963995 
L 110.131519 331.963435 
L 113.108865 331.788324 
L 116.086212 331.858192 
L 119.063558 331.784019 
L 122.040904 331.284819 
L 125.01825 330.413459 
L 125.236933 330.37536 
L 125.236933 327.70464 
L 127.995596 327.402311 
L 130.972942 327.294439 
L 133.950288 326.842537 
L 136.927635 326.010992 
L 139.648348 325.03392 
L 139.904981 324.978272 
L 142.882327 324.42737 
L 145.859673 324.200315 
L 148.837019 323.986075 
L 151.814365 323.086794 
L 153.221494 322.3632 
L 154.791712 321.736906 
L 157.769058 320.370103 
L 159.244927 319.69248 
L 160.746404 319.203426 
L 163.72375 318.296622 
L 166.602484 317.02176 
L 166.701096 316.979841 
L 169.678442 315.907538 
L 172.655788 314.619652 
L 173.164682 314.35104 
L 175.633135 313.0999 
L 177.618824 311.68032 
L 178.610481 310.235374 
L 179.68068 309.0096 
L 181.587827 307.259825 
L 182.905612 306.33888 
L 184.565173 305.06885 
L 186.097385 303.66816 
L 187.016818 300.99744 
L 186.711233 298.32672 
L 186.777918 295.656 
L 186.820706 292.98528 
L 186.304801 290.31456 
L 186.146792 287.64384 
L 186.687803 284.97312 
L 186.825993 282.3024 
L 186.442859 279.63168 
L 186.529463 276.96096 
L 186.406722 274.29024 
L 186.840698 271.61952 
L 187.542519 270.144727 
L 188.308628 268.9488 
L 189.17944 266.27808 
L 188.678467 263.60736 
L 188.38381 260.93664 
L 188.721999 258.26592 
L 189.381658 255.5952 
L 189.482496 252.92448 
L 188.795603 250.25376 
L 187.950397 247.58304 
L 188.121981 244.91232 
L 187.720243 242.2416 
L 187.542519 241.888736 
L 186.901603 239.57088 
L 187.166079 236.90016 
L 187.428235 234.22944 
L 187.171358 231.55872 
L 187.039268 228.888 
L 187.058762 226.21728 
L 187.212921 223.54656 
L 187.113406 220.87584 
L 186.678339 218.20512 
L 186.356263 215.5344 
L 185.96363 212.86368 
L 186.358842 210.19296 
L 187.542519 208.652439 
L 188.206891 207.52224 
L 188.767909 204.85152 
L 187.809411 202.1808 
L 187.542519 201.524128 
L 186.869002 199.51008 
L 186.78218 196.83936 
L 186.78218 194.16864 
L 184.565173 193.345244 
L 181.587827 192.918554 
L 178.610481 192.67616 
L 175.633135 192.486907 
L 172.655788 192.245581 
L 169.678442 192.039935 
L 166.701096 191.918742 
L 163.72375 191.871676 
L 160.746404 191.865421 
L 157.769058 191.881327 
L 154.791712 191.903616 
L 151.814365 191.893253 
L 148.837019 191.90738 
L 145.859673 191.98214 
L 142.882327 192.063999 
L 139.904981 192.158699 
L 136.927635 192.349828 
L 133.950288 192.598475 
L 130.972942 192.898857 
L 127.995596 193.553907 
L 126.064526 194.16864 
L 126.064526 196.83936 
L 126.279104 199.51008 
L 127.995596 202.150847 
L 128.01016 202.1808 
L 129.214456 204.85152 
L 129.350433 207.52224 
L 128.439848 210.19296 
L 127.995596 212.471358 
L 127.855117 212.86368 
L 127.92713 215.5344 
L 127.625338 218.20512 
L 126.771054 220.87584 
L 125.833677 223.54656 
L 125.557413 226.21728 
L 125.01825 228.888 
L 125.01825 228.888 
L 123.888996 231.55872 
L 124.45854 234.22944 
L 125.01825 235.038584 
L 126.100922 236.90016 
L 127.044905 239.57088 
L 127.011118 242.2416 
L 126.859861 244.91232 
L 126.808012 247.58304 
L 126.794918 250.25376 
L 127.302088 252.92448 
L 127.995596 255.569047 
L 128.000748 255.5952 
L 128.263015 258.26592 
L 128.430795 260.93664 
L 128.290553 263.60736 
L 128.011302 266.27808 
L 127.995596 266.481842 
L 127.670971 268.9488 
L 127.596728 271.61952 
L 127.995596 274.289766 
L 127.995648 274.29024 
L 127.995596 274.291122 
L 127.743473 276.96096 
L 126.711133 279.63168 
L 126.019551 282.3024 
L 126.048384 284.97312 
L 126.479163 287.64384 
L 126.758894 290.31456 
L 126.815305 292.98528 
L 126.842587 295.656 
L 126.561769 298.32672 
L 125.170908 300.99744 
L 125.01825 301.281833 
L 123.740412 303.66816 
L 122.538616 306.33888 
L 122.040904 306.896222 
L 119.854551 309.0096 
L 119.063558 309.652656 
L 116.682873 311.68032 
L 116.086212 312.029762 
L 113.108865 313.37075 
L 111.4524 314.35104 
L 110.131519 314.861451 
L 107.154173 316.40081 
L 106.241191 317.02176 
L 104.176827 318.231579 
L 102.369139 319.69248 
L 101.199481 321.178789 
L 99.129086 322.3632 
L 98.222135 323.270467 
L 95.244788 324.764789 
L 94.906463 325.03392 
L 95.244788 326.106416 
L 98.222135 327.510997 
L 101.199481 327.335821 
L 101.490036 327.70464 
L 101.490036 330.37536 
z
M 110.400591 322.3632 
L 113.108865 321.584536 
L 114.616758 319.69248 
L 116.086212 318.908107 
L 119.063558 317.412943 
L 119.984388 317.02176 
L 122.040904 316.068315 
L 125.01825 314.768488 
L 125.862962 314.35104 
L 127.995596 312.984861 
L 129.582085 311.68032 
L 130.972942 310.111725 
L 132.014217 309.0096 
L 133.950288 306.924912 
L 134.435327 306.33888 
L 136.015134 303.66816 
L 136.927635 302.234717 
L 137.743602 300.99744 
L 139.117351 298.32672 
L 139.254804 295.656 
L 139.440687 292.98528 
L 139.904981 290.369554 
L 139.914229 290.31456 
L 140.155046 287.64384 
L 140.35508 284.97312 
L 140.536934 282.3024 
L 140.57753 279.63168 
L 140.764296 276.96096 
L 141.158586 274.29024 
L 141.090344 271.61952 
L 140.438531 268.9488 
L 140.369493 266.27808 
L 140.738758 263.60736 
L 141.282133 260.93664 
L 141.899577 258.26592 
L 142.047336 255.5952 
L 141.512839 252.92448 
L 141.344734 250.25376 
L 141.886681 247.58304 
L 142.217368 244.91232 
L 142.04616 242.2416 
L 141.731463 239.57088 
L 141.216967 236.90016 
L 140.818489 234.22944 
L 141.215482 231.55872 
L 141.308196 228.888 
L 140.685285 226.21728 
L 140.399232 223.54656 
L 140.476491 220.87584 
L 140.848646 218.20512 
L 140.606163 215.5344 
L 140.146094 212.86368 
L 140.228754 210.19296 
L 141.145732 207.52224 
L 142.256032 204.85152 
L 142.816291 202.1808 
L 142.609393 199.51008 
L 142.231064 196.83936 
L 142.231064 194.16864 
L 142.882327 194.084916 
L 145.859673 193.710818 
L 148.837019 193.369164 
L 151.814365 193.304601 
L 154.791712 193.351962 
L 157.769058 193.250101 
L 160.746404 193.177408 
L 163.72375 193.205997 
L 166.701096 193.421087 
L 169.678442 193.974941 
L 170.463517 194.16864 
L 170.463517 196.83936 
L 170.716733 199.51008 
L 171.576408 202.1808 
L 171.999038 204.85152 
L 172.411732 207.52224 
L 172.655788 209.722449 
L 172.716594 210.19296 
L 172.655788 210.574599 
L 172.043951 212.86368 
L 170.911669 215.5344 
L 170.383237 218.20512 
L 170.130941 220.87584 
L 170.538204 223.54656 
L 170.525233 226.21728 
L 170.430594 228.888 
L 170.98175 231.55872 
L 170.789229 234.22944 
L 170.454642 236.90016 
L 170.661833 239.57088 
L 170.748567 242.2416 
L 170.42229 244.91232 
L 170.633651 247.58304 
L 171.474812 250.25376 
L 171.747378 252.92448 
L 171.620565 255.5952 
L 171.623544 258.26592 
L 171.385284 260.93664 
L 171.387318 263.60736 
L 171.516322 266.27808 
L 171.971238 268.9488 
L 172.423474 271.61952 
L 171.781443 274.29024 
L 170.266655 276.96096 
L 170.669523 279.63168 
L 172.655788 282.129335 
L 172.724191 282.3024 
L 173.188476 284.97312 
L 172.655788 287.523026 
L 172.62374 287.64384 
L 172.655788 288.17423 
L 172.800089 290.31456 
L 173.830268 292.98528 
L 173.84747 295.656 
L 172.655788 298.210164 
L 172.597247 298.32672 
L 171.33105 300.99744 
L 169.912883 303.66816 
L 169.678442 303.955098 
L 166.701096 306.0959 
L 166.512709 306.33888 
L 164.413177 309.0096 
L 163.72375 309.608781 
L 161.699593 311.68032 
L 160.746404 312.280381 
L 157.769058 313.921204 
L 156.990852 314.35104 
L 154.791712 315.489133 
L 152.593262 317.02176 
L 151.814365 317.503591 
L 148.837019 318.857817 
L 145.859673 319.141106 
L 142.882327 319.20531 
L 141.173524 319.69248 
L 139.904981 320.043417 
L 136.927635 321.117071 
L 133.950288 322.144147 
L 132.889702 322.3632 
L 130.972942 322.718186 
L 127.995596 322.793487 
L 125.01825 323.225328 
L 122.040904 324.175193 
L 119.063558 325.03392 
L 116.086212 324.647352 
L 113.108865 322.999797 
z
" clip-path="url(#p24a7280f7d)" style="fill: #ff0000; fill-opacity: 0.333333"/>
    <path d="M 113.108865 322.999797 
L 116.086212 324.647352 
L 119.063558 325.03392 
L 122.040904 324.175193 
L 125.01825 323.225328 
L 127.995596 322.793487 
L 130.972942 322.718186 
L 132.889702 322.3632 
L 133.950288 322.144147 
L 136.927635 321.117071 
L 139.904981 320.043417 
L 141.173524 319.69248 
L 142.882327 319.20531 
L 145.859673 319.141106 
L 148.837019 318.857817 
L 151.814365 317.503591 
L 152.593262 317.02176 
L 154.791712 315.489133 
L 156.990852 314.35104 
L 157.769058 313.921204 
L 160.746404 312.280381 
L 161.699593 311.68032 
L 163.72375 309.608781 
L 164.413177 309.0096 
L 166.512709 306.33888 
L 166.701096 306.0959 
L 169.678442 303.955098 
L 169.912883 303.66816 
L 171.33105 300.99744 
L 172.597247 298.32672 
L 172.655788 298.210164 
L 173.84747 295.656 
L 173.830268 292.98528 
L 172.800089 290.31456 
L 172.655788 288.17423 
L 172.62374 287.64384 
L 172.655788 287.523026 
L 173.188476 284.97312 
L 172.724191 282.3024 
L 172.655788 282.129335 
L 170.669523 279.63168 
L 170.266655 276.96096 
L 171.781443 274.29024 
L 172.423474 271.61952 
L 171.971238 268.9488 
L 171.516322 266.27808 
L 171.387318 263.60736 
L 171.385284 260.93664 
L 171.623544 258.26592 
L 171.620565 255.5952 
L 171.747378 252.92448 
L 171.474812 250.25376 
L 170.633651 247.58304 
L 170.42229 244.91232 
L 170.748567 242.2416 
L 170.661833 239.57088 
L 170.454642 236.90016 
L 170.789229 234.22944 
L 170.98175 231.55872 
L 170.430594 228.888 
L 170.525233 226.21728 
L 170.538204 223.54656 
L 170.130941 220.87584 
L 170.383237 218.20512 
L 170.911669 215.5344 
L 172.043951 212.86368 
L 172.655788 210.574599 
L 172.716594 210.19296 
L 172.655788 209.722449 
L 172.411732 207.52224 
L 171.999038 204.85152 
L 171.576408 202.1808 
L 170.716733 199.51008 
L 170.463517 196.83936 
L 170.463517 194.16864 
L 169.678442 193.974941 
L 166.701096 193.421087 
L 163.72375 193.205997 
L 160.746404 193.177408 
L 157.769058 193.250101 
L 154.791712 193.351962 
L 151.814365 193.304601 
L 148.837019 193.369164 
L 145.859673 193.710818 
L 142.882327 194.084916 
L 142.231064 194.16864 
L 142.231064 196.83936 
L 142.609393 199.51008 
L 142.816291 202.1808 
L 142.256032 204.85152 
L 141.145732 207.52224 
L 140.228754 210.19296 
L 140.146094 212.86368 
L 140.606163 215.5344 
L 140.848646 218.20512 
L 140.476491 220.87584 
L 140.399232 223.54656 
L 140.685285 226.21728 
L 141.308196 228.888 
L 141.215482 231.55872 
L 140.818489 234.22944 
L 141.216967 236.90016 
L 141.731463 239.57088 
L 142.04616 242.2416 
L 142.217368 244.91232 
L 141.886681 247.58304 
L 141.344734 250.25376 
L 141.512839 252.92448 
L 142.047336 255.5952 
L 141.899577 258.26592 
L 141.282133 260.93664 
L 140.738758 263.60736 
L 140.369493 266.27808 
L 140.438531 268.9488 
L 141.090344 271.61952 
L 141.158586 274.29024 
L 140.764296 276.96096 
L 140.57753 279.63168 
L 140.536934 282.3024 
L 140.35508 284.97312 
L 140.155046 287.64384 
L 139.914229 290.31456 
L 139.904981 290.369554 
L 139.440687 292.98528 
L 139.254804 295.656 
L 139.117351 298.32672 
L 137.743602 300.99744 
L 136.927635 302.234717 
L 136.015134 303.66816 
L 134.435327 306.33888 
L 133.950288 306.924912 
L 132.014217 309.0096 
L 130.972942 310.111725 
L 129.582085 311.68032 
L 127.995596 312.984861 
L 125.862962 314.35104 
L 125.01825 314.768488 
L 122.040904 316.068315 
L 119.984388 317.02176 
L 119.063558 317.412943 
L 116.086212 318.908107 
L 114.616758 319.69248 
L 113.108865 321.584536 
L 110.400591 322.3632 
z
" clip-path="url(#p24a7280f7d)" style="fill: #ff0000"/>
   </g>
   <g id="matplotlib.axis_5">
    <g id="xtick_5">
     <g id="line2d_6">
      <g>
       <use xlink:href="#maf8c4a63c9" x="101.33537" y="329.04" style="stroke: #000000; stroke-width: 0.8"/>
      </g>
     </g>
     <g id="text_2">
      <!-- 0.24 -->
      <g transform="translate(95.414455 357.157081) rotate(-45) scale(0.1 -0.1)">
       <use xlink:href="#DejaVuSans-30"/>
       <use xlink:href="#DejaVuSans-2e" x="63.623047"/>
       <use xlink:href="#DejaVuSans-32" x="95.410156"/>
       <use xlink:href="#DejaVuSans-34" x="159.033203"/>
      </g>
     </g>
    </g>
    <g id="xtick_6">
     <g id="line2d_7">
      <g>
       <use xlink:href="#maf8c4a63c9" x="136.337731" y="329.04" style="stroke: #000000; stroke-width: 0.8"/>
      </g>
     </g>
     <g id="text_3">
      <!-- 0.28 -->
      <g transform="translate(130.416816 357.157081) rotate(-45) scale(0.1 -0.1)">
       <use xlink:href="#DejaVuSans-30"/>
       <use xlink:href="#DejaVuSans-2e" x="63.623047"/>
       <use xlink:href="#DejaVuSans-32" x="95.410156"/>
       <use xlink:href="#DejaVuSans-38" x="159.033203"/>
      </g>
     </g>
    </g>
    <g id="xtick_7">
     <g id="line2d_8">
      <g>
       <use xlink:href="#maf8c4a63c9" x="171.340092" y="329.04" style="stroke: #000000; stroke-width: 0.8"/>
      </g>
     </g>
     <g id="text_4">
      <!-- 0.32 -->
      <g transform="translate(165.419178 357.157081) rotate(-45) scale(0.1 -0.1)">
       <use xlink:href="#DejaVuSans-30"/>
       <use xlink:href="#DejaVuSans-2e" x="63.623047"/>
       <use xlink:href="#DejaVuSans-33" x="95.410156"/>
       <use xlink:href="#DejaVuSans-32" x="159.033203"/>
      </g>
     </g>
    </g>
    <g id="xtick_8">
     <g id="line2d_9">
      <g>
       <use xlink:href="#maf8c4a63c9" x="206.342453" y="329.04" style="stroke: #000000; stroke-width: 0.8"/>
      </g>
     </g>
     <g id="text_5">
      <!-- 0.36 -->
      <g transform="translate(200.421539 357.157081) rotate(-45) scale(0.1 -0.1)">
       <defs>
        <path id="DejaVuSans-36" d="M 2113 2584 
Q 1688 2584 1439 2293 
Q 1191 2003 1191 1497 
Q 1191 994 1439 701 
Q 1688 409 2113 409 
Q 2538 409 2786 701 
Q 3034 994 3034 1497 
Q 3034 2003 2786 2293 
Q 2538 2584 2113 2584 
z
M 3366 4563 
L 3366 3988 
Q 3128 4100 2886 4159 
Q 2644 4219 2406 4219 
Q 1781 4219 1451 3797 
Q 1122 3375 1075 2522 
Q 1259 2794 1537 2939 
Q 1816 3084 2150 3084 
Q 2853 3084 3261 2657 
Q 3669 2231 3669 1497 
Q 3669 778 3244 343 
Q 2819 -91 2113 -91 
Q 1303 -91 875 529 
Q 447 1150 447 2328 
Q 447 3434 972 4092 
Q 1497 4750 2381 4750 
Q 2619 4750 2861 4703 
Q 3103 4656 3366 4563 
z
" transform="scale(0.015625)"/>
       </defs>
       <use xlink:href="#DejaVuSans-30"/>
       <use xlink:href="#DejaVuSans-2e" x="63.623047"/>
       <use xlink:href="#DejaVuSans-33" x="95.410156"/>
       <use xlink:href="#DejaVuSans-36" x="159.033203"/>
      </g>
     </g>
    </g>
    <g id="text_6">
     <!-- $\Omega_{2,0}$ -->
     <g transform="translate(131.093654 376.5008) scale(0.1 -0.1)">
      <use xlink:href="#DejaVuSans-3a9" transform="translate(0 0.21875)"/>
      <use xlink:href="#DejaVuSans-32" transform="translate(77.373047 -16.1875) scale(0.7)"/>
      <use xlink:href="#DejaVuSans-2c" transform="translate(121.90918 -16.1875) scale(0.7)"/>
      <use xlink:href="#DejaVuSans-30" transform="translate(157.797852 -16.1875) scale(0.7)"/>
     </g>
    </g>
   </g>
   <g id="matplotlib.axis_6">
    <g id="ytick_1">
     <g id="line2d_10">
      <defs>
       <path id="m60a2fd495c" d="M 0 0 
L -3.5 0 
" style="stroke: #000000; stroke-width: 0.8"/>
      </defs>
      <g>
       <use xlink:href="#m60a2fd495c" x="66.96" y="299.053003" style="stroke: #000000; stroke-width: 0.8"/>
      </g>
     </g>
     <g id="text_7">
      <!-- −8 -->
      <g transform="translate(48.065138 311.050992) rotate(-45) scale(0.1 -0.1)">
       <use xlink:href="#DejaVuSans-2212"/>
       <use xlink:href="#DejaVuSans-38" x="83.789062"/>
      </g>
     </g>
    </g>
    <g id="ytick_2">
     <g id="line2d_11">
      <g>
       <use xlink:href="#m60a2fd495c" x="66.96" y="264.956216" style="stroke: #000000; stroke-width: 0.8"/>
      </g>
     </g>
     <g id="text_8">
      <!-- −6 -->
      <g transform="translate(48.065138 276.954205) rotate(-45) scale(0.1 -0.1)">
       <use xlink:href="#DejaVuSans-2212"/>
       <use xlink:href="#DejaVuSans-36" x="83.789062"/>
      </g>
     </g>
    </g>
    <g id="ytick_3">
     <g id="line2d_12">
      <g>
       <use xlink:href="#m60a2fd495c" x="66.96" y="230.859429" style="stroke: #000000; stroke-width: 0.8"/>
      </g>
     </g>
     <g id="text_9">
      <!-- −4 -->
      <g transform="translate(48.065138 242.857418) rotate(-45) scale(0.1 -0.1)">
       <use xlink:href="#DejaVuSans-2212"/>
       <use xlink:href="#DejaVuSans-34" x="83.789062"/>
      </g>
     </g>
    </g>
    <g id="ytick_4">
     <g id="line2d_13">
      <g>
       <use xlink:href="#m60a2fd495c" x="66.96" y="196.762642" style="stroke: #000000; stroke-width: 0.8"/>
      </g>
     </g>
     <g id="text_10">
      <!-- −2 -->
      <g transform="translate(48.065138 208.76063) rotate(-45) scale(0.1 -0.1)">
       <use xlink:href="#DejaVuSans-2212"/>
       <use xlink:href="#DejaVuSans-32" x="83.789062"/>
      </g>
     </g>
    </g>
    <g id="text_11">
     <!-- $\log_{10}(M_x$/GeV) -->
     <g transform="translate(20.199808 297.872) rotate(-90) scale(0.1 -0.1)">
      <defs>
       <path id="DejaVuSans-6c" d="M 603 4863 
L 1178 4863 
L 1178 0 
L 603 0 
L 603 4863 
z
" transform="scale(0.015625)"/>
       <path id="DejaVuSans-6f" d="M 1959 3097 
Q 1497 3097 1228 2736 
Q 959 2375 959 1747 
Q 959 1119 1226 758 
Q 1494 397 1959 397 
Q 2419 397 2687 759 
Q 2956 1122 2956 1747 
Q 2956 2369 2687 2733 
Q 2419 3097 1959 3097 
z
M 1959 3584 
Q 2709 3584 3137 3096 
Q 3566 2609 3566 1747 
Q 3566 888 3137 398 
Q 2709 -91 1959 -91 
Q 1206 -91 779 398 
Q 353 888 353 1747 
Q 353 2609 779 3096 
Q 1206 3584 1959 3584 
z
" transform="scale(0.015625)"/>
       <path id="DejaVuSans-67" d="M 2906 1791 
Q 2906 2416 2648 2759 
Q 2391 3103 1925 3103 
Q 1463 3103 1205 2759 
Q 947 2416 947 1791 
Q 947 1169 1205 825 
Q 1463 481 1925 481 
Q 2391 481 2648 825 
Q 2906 1169 2906 1791 
z
M 3481 434 
Q 3481 -459 3084 -895 
Q 2688 -1331 1869 -1331 
Q 1566 -1331 1297 -1286 
Q 1028 -1241 775 -1147 
L 775 -588 
Q 1028 -725 1275 -790 
Q 1522 -856 1778 -856 
Q 2344 -856 2625 -561 
Q 2906 -266 2906 331 
L 2906 616 
Q 2728 306 2450 153 
Q 2172 0 1784 0 
Q 1141 0 747 490 
Q 353 981 353 1791 
Q 353 2603 747 3093 
Q 1141 3584 1784 3584 
Q 2172 3584 2450 3431 
Q 2728 3278 2906 2969 
L 2906 3500 
L 3481 3500 
L 3481 434 
z
" transform="scale(0.015625)"/>
       <path id="DejaVuSans-28" d="M 1984 4856 
Q 1566 4138 1362 3434 
Q 1159 2731 1159 2009 
Q 1159 1288 1364 580 
Q 1569 -128 1984 -844 
L 1484 -844 
Q 1016 -109 783 600 
Q 550 1309 550 2009 
Q 550 2706 781 3412 
Q 1013 4119 1484 4856 
L 1984 4856 
z
" transform="scale(0.015625)"/>
       <path id="DejaVuSans-Oblique-4d" d="M 1081 4666 
L 2028 4666 
L 2572 1522 
L 4378 4666 
L 5350 4666 
L 4441 0 
L 3828 0 
L 4622 4091 
L 2791 897 
L 2175 897 
L 1581 4103 
L 788 0 
L 172 0 
L 1081 4666 
z
" transform="scale(0.015625)"/>
       <path id="DejaVuSans-Oblique-78" d="M 3841 3500 
L 2234 1784 
L 3219 0 
L 2559 0 
L 1819 1388 
L 531 0 
L -166 0 
L 1556 1844 
L 641 3500 
L 1300 3500 
L 1972 2234 
L 3144 3500 
L 3841 3500 
z
" transform="scale(0.015625)"/>
       <path id="DejaVuSans-2f" d="M 1625 4666 
L 2156 4666 
L 531 -594 
L 0 -594 
L 1625 4666 
z
" transform="scale(0.015625)"/>
       <path id="DejaVuSans-47" d="M 3809 666 
L 3809 1919 
L 2778 1919 
L 2778 2438 
L 4434 2438 
L 4434 434 
Q 4069 175 3628 42 
Q 3188 -91 2688 -91 
Q 1594 -91 976 548 
Q 359 1188 359 2328 
Q 359 3472 976 4111 
Q 1594 4750 2688 4750 
Q 3144 4750 3555 4637 
Q 3966 4525 4313 4306 
L 4313 3634 
Q 3963 3931 3569 4081 
Q 3175 4231 2741 4231 
Q 1884 4231 1454 3753 
Q 1025 3275 1025 2328 
Q 1025 1384 1454 906 
Q 1884 428 2741 428 
Q 3075 428 3337 486 
Q 3600 544 3809 666 
z
" transform="scale(0.015625)"/>
       <path id="DejaVuSans-65" d="M 3597 1894 
L 3597 1613 
L 953 1613 
Q 991 1019 1311 708 
Q 1631 397 2203 397 
Q 2534 397 2845 478 
Q 3156 559 3463 722 
L 3463 178 
Q 3153 47 2828 -22 
Q 2503 -91 2169 -91 
Q 1331 -91 842 396 
Q 353 884 353 1716 
Q 353 2575 817 3079 
Q 1281 3584 2069 3584 
Q 2775 3584 3186 3129 
Q 3597 2675 3597 1894 
z
M 3022 2063 
Q 3016 2534 2758 2815 
Q 2500 3097 2075 3097 
Q 1594 3097 1305 2825 
Q 1016 2553 972 2059 
L 3022 2063 
z
" transform="scale(0.015625)"/>
       <path id="DejaVuSans-56" d="M 1831 0 
L 50 4666 
L 709 4666 
L 2188 738 
L 3669 4666 
L 4325 4666 
L 2547 0 
L 1831 0 
z
" transform="scale(0.015625)"/>
       <path id="DejaVuSans-29" d="M 513 4856 
L 1013 4856 
Q 1481 4119 1714 3412 
Q 1947 2706 1947 2009 
Q 1947 1309 1714 600 
Q 1481 -109 1013 -844 
L 513 -844 
Q 928 -128 1133 580 
Q 1338 1288 1338 2009 
Q 1338 2731 1133 3434 
Q 928 4138 513 4856 
z
" transform="scale(0.015625)"/>
      </defs>
      <use xlink:href="#DejaVuSans-6c" transform="translate(0 0.015625)"/>
      <use xlink:href="#DejaVuSans-6f" transform="translate(27.783203 0.015625)"/>
      <use xlink:href="#DejaVuSans-67" transform="translate(88.964844 0.015625)"/>
      <use xlink:href="#DejaVuSans-31" transform="translate(153.398438 -16.390625) scale(0.7)"/>
      <use xlink:href="#DejaVuSans-30" transform="translate(197.93457 -16.390625) scale(0.7)"/>
      <use xlink:href="#DejaVuSans-28" transform="translate(261.440754 0.015625)"/>
      <use xlink:href="#DejaVuSans-Oblique-4d" transform="translate(300.454426 0.015625)"/>
      <use xlink:href="#DejaVuSans-Oblique-78" transform="translate(386.733723 -16.390625) scale(0.7)"/>
      <use xlink:href="#DejaVuSans-2f" transform="translate(430.893879 0.015625)"/>
      <use xlink:href="#DejaVuSans-47" transform="translate(464.585286 0.015625)"/>
      <use xlink:href="#DejaVuSans-65" transform="translate(542.07552 0.015625)"/>
      <use xlink:href="#DejaVuSans-56" transform="translate(603.598958 0.015625)"/>
      <use xlink:href="#DejaVuSans-29" transform="translate(672.007161 0.015625)"/>
     </g>
    </g>
   </g>
   <g id="QuadContourSet_3">
    <path d="M 80.358058 330.670814 
L 83.335404 331.399021 
L 86.31275 331.053149 
L 88.681327 330.37536 
L 88.681327 327.70464 
L 86.31275 326.118236 
L 83.335404 325.496279 
L 80.358058 327.013125 
L 79.799651 327.70464 
L 79.799651 330.37536 
L 80.358058 330.670814 
z
M 104.176827 331.31173 
L 107.154173 331.963995 
L 110.131519 331.963435 
L 113.108865 331.788324 
L 116.086212 331.858192 
L 119.063558 331.784019 
L 122.040904 331.284819 
L 125.01825 330.413459 
L 125.236933 330.37536 
L 125.236933 327.70464 
L 127.995596 327.402311 
L 130.972942 327.294439 
L 133.950288 326.842537 
L 136.927635 326.010992 
L 139.648348 325.03392 
L 139.904981 324.978272 
L 142.882327 324.42737 
L 145.859673 324.200315 
L 148.837019 323.986075 
L 151.814365 323.086794 
L 153.221494 322.3632 
L 154.791712 321.736906 
L 157.769058 320.370103 
L 159.244927 319.69248 
L 160.746404 319.203426 
L 163.72375 318.296622 
L 166.602484 317.02176 
L 166.701096 316.979841 
L 169.678442 315.907538 
L 172.655788 314.619652 
L 173.164682 314.35104 
L 175.633135 313.0999 
L 177.618824 311.68032 
L 178.610481 310.235374 
L 179.68068 309.0096 
L 181.587827 307.259825 
L 182.905612 306.33888 
L 184.565173 305.06885 
L 186.097385 303.66816 
L 187.016818 300.99744 
L 186.711233 298.32672 
L 186.777918 295.656 
L 186.820706 292.98528 
L 186.304801 290.31456 
L 186.146792 287.64384 
L 186.687803 284.97312 
L 186.825993 282.3024 
L 186.442859 279.63168 
L 186.529463 276.96096 
L 186.406722 274.29024 
L 186.840698 271.61952 
L 187.542519 270.144727 
L 188.308628 268.9488 
L 189.17944 266.27808 
L 188.678467 263.60736 
L 188.38381 260.93664 
L 188.721999 258.26592 
L 189.381658 255.5952 
L 189.482496 252.92448 
L 188.795603 250.25376 
L 187.950397 247.58304 
L 188.121981 244.91232 
L 187.720243 242.2416 
L 187.542519 241.888736 
L 186.901603 239.57088 
L 187.166079 236.90016 
L 187.428235 234.22944 
L 187.171358 231.55872 
L 187.039268 228.888 
L 187.058762 226.21728 
L 187.212921 223.54656 
L 187.113406 220.87584 
L 186.678339 218.20512 
L 186.356263 215.5344 
L 185.96363 212.86368 
L 186.358842 210.19296 
L 187.542519 208.652439 
L 188.206891 207.52224 
L 188.767909 204.85152 
L 187.809411 202.1808 
L 187.542519 201.524128 
L 186.869002 199.51008 
L 186.78218 196.83936 
L 186.78218 194.16864 
L 184.565173 193.345244 
L 181.587827 192.918554 
L 178.610481 192.67616 
L 175.633135 192.486907 
L 172.655788 192.245581 
L 169.678442 192.039935 
L 166.701096 191.918742 
L 163.72375 191.871676 
L 160.746404 191.865421 
L 157.769058 191.881327 
L 154.791712 191.903616 
L 151.814365 191.893253 
L 148.837019 191.90738 
L 145.859673 191.98214 
L 142.882327 192.063999 
L 139.904981 192.158699 
L 136.927635 192.349828 
L 133.950288 192.598475 
L 130.972942 192.898857 
L 127.995596 193.553907 
L 126.064526 194.16864 
L 126.064526 196.83936 
L 126.279104 199.51008 
L 127.995596 202.150847 
L 128.01016 202.1808 
L 129.214456 204.85152 
L 129.350433 207.52224 
L 128.439848 210.19296 
L 127.995596 212.471358 
L 127.855117 212.86368 
L 127.92713 215.5344 
L 127.625338 218.20512 
L 126.771054 220.87584 
L 125.833677 223.54656 
L 125.557413 226.21728 
L 125.01825 228.888 
L 125.01825 228.888 
L 123.888996 231.55872 
L 124.45854 234.22944 
L 125.01825 235.038584 
L 126.100922 236.90016 
L 127.044905 239.57088 
L 127.011118 242.2416 
L 126.859861 244.91232 
L 126.808012 247.58304 
L 126.794918 250.25376 
L 127.302088 252.92448 
L 127.995596 255.569047 
L 128.000748 255.5952 
L 128.263015 258.26592 
L 128.430795 260.93664 
L 128.290553 263.60736 
L 128.011302 266.27808 
L 127.995596 266.481842 
L 127.670971 268.9488 
L 127.596728 271.61952 
L 127.995596 274.289766 
L 127.995648 274.29024 
L 127.995596 274.291122 
L 127.743473 276.96096 
L 126.711133 279.63168 
L 126.019551 282.3024 
L 126.048384 284.97312 
L 126.479163 287.64384 
L 126.758894 290.31456 
L 126.815305 292.98528 
L 126.842587 295.656 
L 126.561769 298.32672 
L 125.170908 300.99744 
L 125.01825 301.281833 
L 123.740412 303.66816 
L 122.538616 306.33888 
L 122.040904 306.896222 
L 119.854551 309.0096 
L 119.063558 309.652656 
L 116.682873 311.68032 
L 116.086212 312.029762 
L 113.108865 313.37075 
L 111.4524 314.35104 
L 110.131519 314.861451 
L 107.154173 316.40081 
L 106.241191 317.02176 
L 104.176827 318.231579 
L 102.369139 319.69248 
L 101.199481 321.178789 
L 99.129086 322.3632 
L 98.222135 323.270467 
L 95.244788 324.764789 
L 94.906463 325.03392 
L 95.244788 326.106416 
L 98.222135 327.510997 
L 101.199481 327.335821 
L 101.490036 327.70464 
L 101.490036 330.37536 
L 104.176827 331.31173 
z
" clip-path="url(#p24a7280f7d)" style="fill: none; stroke: #ff0000; stroke-width: 1.5"/>
    <path d="M 113.108865 322.999797 
L 116.086212 324.647352 
L 119.063558 325.03392 
L 122.040904 324.175193 
L 125.01825 323.225328 
L 127.995596 322.793487 
L 130.972942 322.718186 
L 132.889702 322.3632 
L 133.950288 322.144147 
L 136.927635 321.117071 
L 139.904981 320.043417 
L 141.173524 319.69248 
L 142.882327 319.20531 
L 145.859673 319.141106 
L 148.837019 318.857817 
L 151.814365 317.503591 
L 152.593262 317.02176 
L 154.791712 315.489133 
L 156.990852 314.35104 
L 157.769058 313.921204 
L 160.746404 312.280381 
L 161.699593 311.68032 
L 163.72375 309.608781 
L 164.413177 309.0096 
L 166.512709 306.33888 
L 166.701096 306.0959 
L 169.678442 303.955098 
L 169.912883 303.66816 
L 171.33105 300.99744 
L 172.597247 298.32672 
L 172.655788 298.210164 
L 173.84747 295.656 
L 173.830268 292.98528 
L 172.800089 290.31456 
L 172.655788 288.17423 
L 172.62374 287.64384 
L 172.655788 287.523026 
L 173.188476 284.97312 
L 172.724191 282.3024 
L 172.655788 282.129335 
L 170.669523 279.63168 
L 170.266655 276.96096 
L 171.781443 274.29024 
L 172.423474 271.61952 
L 171.971238 268.9488 
L 171.516322 266.27808 
L 171.387318 263.60736 
L 171.385284 260.93664 
L 171.623544 258.26592 
L 171.620565 255.5952 
L 171.747378 252.92448 
L 171.474812 250.25376 
L 170.633651 247.58304 
L 170.42229 244.91232 
L 170.748567 242.2416 
L 170.661833 239.57088 
L 170.454642 236.90016 
L 170.789229 234.22944 
L 170.98175 231.55872 
L 170.430594 228.888 
L 170.525233 226.21728 
L 170.538204 223.54656 
L 170.130941 220.87584 
L 170.383237 218.20512 
L 170.911669 215.5344 
L 172.043951 212.86368 
L 172.655788 210.574599 
L 172.716594 210.19296 
L 172.655788 209.722449 
L 172.411732 207.52224 
L 171.999038 204.85152 
L 171.576408 202.1808 
L 170.716733 199.51008 
L 170.463517 196.83936 
L 170.463517 194.16864 
L 169.678442 193.974941 
L 166.701096 193.421087 
L 163.72375 193.205997 
L 160.746404 193.177408 
L 157.769058 193.250101 
L 154.791712 193.351962 
L 151.814365 193.304601 
L 148.837019 193.369164 
L 145.859673 193.710818 
L 142.882327 194.084916 
L 142.231064 194.16864 
L 142.231064 196.83936 
L 142.609393 199.51008 
L 142.816291 202.1808 
L 142.256032 204.85152 
L 141.145732 207.52224 
L 140.228754 210.19296 
L 140.146094 212.86368 
L 140.606163 215.5344 
L 140.848646 218.20512 
L 140.476491 220.87584 
L 140.399232 223.54656 
L 140.685285 226.21728 
L 141.308196 228.888 
L 141.215482 231.55872 
L 140.818489 234.22944 
L 141.216967 236.90016 
L 141.731463 239.57088 
L 142.04616 242.2416 
L 142.217368 244.91232 
L 141.886681 247.58304 
L 141.344734 250.25376 
L 141.512839 252.92448 
L 142.047336 255.5952 
L 141.899577 258.26592 
L 141.282133 260.93664 
L 140.738758 263.60736 
L 140.369493 266.27808 
L 140.438531 268.9488 
L 141.090344 271.61952 
L 141.158586 274.29024 
L 140.764296 276.96096 
L 140.57753 279.63168 
L 140.536934 282.3024 
L 140.35508 284.97312 
L 140.155046 287.64384 
L 139.914229 290.31456 
L 139.904981 290.369554 
L 139.440687 292.98528 
L 139.254804 295.656 
L 139.117351 298.32672 
L 137.743602 300.99744 
L 136.927635 302.234717 
L 136.015134 303.66816 
L 134.435327 306.33888 
L 133.950288 306.924912 
L 132.014217 309.0096 
L 130.972942 310.111725 
L 129.582085 311.68032 
L 127.995596 312.984861 
L 125.862962 314.35104 
L 125.01825 314.768488 
L 122.040904 316.068315 
L 119.984388 317.02176 
L 119.063558 317.412943 
L 116.086212 318.908107 
L 114.616758 319.69248 
L 113.108865 321.584536 
L 110.400591 322.3632 
L 113.108865 322.999797 
z
" clip-path="url(#p24a7280f7d)" style="fill: none; stroke: #ff0000; stroke-width: 1.5"/>
   </g>
   <g id="patch_8">
    <path d="M 66.96 329.04 
L 66.96 195.504 
" style="fill: none; stroke: #000000; stroke-width: 0.8; stroke-linejoin: miter; stroke-linecap: square"/>
   </g>
   <g id="patch_9">
    <path d="M 215.827308 329.04 
L 215.827308 195.504 
" style="fill: none; stroke: #000000; stroke-width: 0.8; stroke-linejoin: miter; stroke-linecap: square"/>
   </g>
   <g id="patch_10">
    <path d="M 66.96 329.04 
L 215.827308 329.04 
" style="fill: none; stroke: #000000; stroke-width: 0.8; stroke-linejoin: miter; stroke-linecap: square"/>
   </g>
   <g id="patch_11">
    <path d="M 66.96 195.504 
L 215.827308 195.504 
" style="fill: none; stroke: #000000; stroke-width: 0.8; stroke-linejoin: miter; stroke-linecap: square"/>
   </g>
  </g>
  <g id="axes_4">
   <g id="patch_12">
    <path d="M 228.907696 329.04 
L 377.775004 329.04 
L 377.775004 195.504 
L 228.907696 195.504 
z
" style="fill: #ffffff"/>
   </g>
   <g id="matplotlib.axis_7">
    <g id="xtick_9">
     <g id="line2d_14">
      <g>
       <use xlink:href="#maf8c4a63c9" x="262.337509" y="329.04" style="stroke: #000000; stroke-width: 0.8"/>
      </g>
     </g>
     <g id="text_12">
      <!-- −8 -->
      <g transform="translate(259.076531 351.837207) rotate(-45) scale(0.1 -0.1)">
       <use xlink:href="#DejaVuSans-2212"/>
       <use xlink:href="#DejaVuSans-38" x="83.789062"/>
      </g>
     </g>
    </g>
    <g id="xtick_10">
     <g id="line2d_15">
      <g>
       <use xlink:href="#maf8c4a63c9" x="300.348958" y="329.04" style="stroke: #000000; stroke-width: 0.8"/>
      </g>
     </g>
     <g id="text_13">
      <!-- −6 -->
      <g transform="translate(297.087981 351.837207) rotate(-45) scale(0.1 -0.1)">
       <use xlink:href="#DejaVuSans-2212"/>
       <use xlink:href="#DejaVuSans-36" x="83.789062"/>
      </g>
     </g>
    </g>
    <g id="xtick_11">
     <g id="line2d_16">
      <g>
       <use xlink:href="#maf8c4a63c9" x="338.360408" y="329.04" style="stroke: #000000; stroke-width: 0.8"/>
      </g>
     </g>
     <g id="text_14">
      <!-- −4 -->
      <g transform="translate(335.09943 351.837207) rotate(-45) scale(0.1 -0.1)">
       <use xlink:href="#DejaVuSans-2212"/>
       <use xlink:href="#DejaVuSans-34" x="83.789062"/>
      </g>
     </g>
    </g>
    <g id="xtick_12">
     <g id="line2d_17">
      <g>
       <use xlink:href="#maf8c4a63c9" x="376.371857" y="329.04" style="stroke: #000000; stroke-width: 0.8"/>
      </g>
     </g>
     <g id="text_15">
      <!-- −2 -->
      <g transform="translate(373.110879 351.837207) rotate(-45) scale(0.1 -0.1)">
       <use xlink:href="#DejaVuSans-2212"/>
       <use xlink:href="#DejaVuSans-32" x="83.789062"/>
      </g>
     </g>
    </g>
    <g id="text_16">
     <!-- $\log_{10}(M_x$/GeV) -->
     <g transform="translate(267.74135 376.7008) scale(0.1 -0.1)">
      <use xlink:href="#DejaVuSans-6c" transform="translate(0 0.015625)"/>
      <use xlink:href="#DejaVuSans-6f" transform="translate(27.783203 0.015625)"/>
      <use xlink:href="#DejaVuSans-67" transform="translate(88.964844 0.015625)"/>
      <use xlink:href="#DejaVuSans-31" transform="translate(153.398438 -16.390625) scale(0.7)"/>
      <use xlink:href="#DejaVuSans-30" transform="translate(197.93457 -16.390625) scale(0.7)"/>
      <use xlink:href="#DejaVuSans-28" transform="translate(261.440754 0.015625)"/>
      <use xlink:href="#DejaVuSans-Oblique-4d" transform="translate(300.454426 0.015625)"/>
      <use xlink:href="#DejaVuSans-Oblique-78" transform="translate(386.733723 -16.390625) scale(0.7)"/>
      <use xlink:href="#DejaVuSans-2f" transform="translate(430.893879 0.015625)"/>
      <use xlink:href="#DejaVuSans-47" transform="translate(464.585286 0.015625)"/>
      <use xlink:href="#DejaVuSans-65" transform="translate(542.07552 0.015625)"/>
      <use xlink:href="#DejaVuSans-56" transform="translate(603.598958 0.015625)"/>
      <use xlink:href="#DejaVuSans-29" transform="translate(672.007161 0.015625)"/>
     </g>
    </g>
   </g>
   <g id="matplotlib.axis_8"/>
   <g id="line2d_18">
    <path d="M 228.907696 300.517748 
L 229.652033 300.517748 
L 229.652033 298.8677 
L 230.396369 298.8677 
L 230.396369 295.331883 
L 231.140706 295.331883 
L 231.140706 290.381741 
L 231.885042 290.381741 
L 231.885042 284.252992 
L 232.629379 284.252992 
L 232.629379 277.181359 
L 233.373715 277.181359 
L 233.373715 269.638284 
L 234.118052 269.638284 
L 234.118052 262.095209 
L 234.862388 262.095209 
L 234.862388 254.787855 
L 235.606725 254.787855 
L 235.606725 248.187665 
L 236.351062 248.187665 
L 236.351062 242.058916 
L 237.095398 242.058916 
L 237.095398 236.637331 
L 237.839735 236.637331 
L 237.839735 232.15863 
L 238.584071 232.15863 
L 238.584071 228.151372 
L 239.328408 228.151372 
L 239.328408 225.086997 
L 240.072744 225.086997 
L 240.072744 222.494065 
L 240.817081 222.494065 
L 240.817081 220.372575 
L 241.561417 220.372575 
L 241.561417 218.722528 
L 242.305754 218.722528 
L 242.305754 217.543922 
L 243.05009 217.543922 
L 243.05009 216.365317 
L 243.794427 216.365317 
L 243.794427 215.658154 
L 244.538763 215.658154 
L 244.538763 214.715269 
L 245.2831 214.715269 
L 245.2831 213.772385 
L 246.027437 213.772385 
L 246.027437 212.8295 
L 246.771773 212.8295 
L 246.771773 211.650895 
L 247.51611 211.650895 
L 247.51611 210.472289 
L 248.260446 210.472289 
L 248.260446 209.529405 
L 249.004783 209.529405 
L 249.004783 208.586521 
L 249.749119 208.586521 
L 249.749119 208.115079 
L 250.493456 208.115079 
L 250.493456 207.879357 
L 251.237792 207.879357 
L 251.237792 207.643636 
L 251.982129 207.643636 
L 251.982129 207.879357 
L 253.470802 207.879357 
L 253.470802 208.115079 
L 254.215138 208.115079 
L 254.215138 208.3508 
L 254.959475 208.3508 
L 254.959475 208.586521 
L 255.703812 208.586521 
L 255.703812 209.057963 
L 256.448148 209.057963 
L 256.448148 209.293684 
L 257.192485 209.293684 
L 257.192485 209.765126 
L 257.936821 209.765126 
L 257.936821 210.236568 
L 258.681158 210.236568 
L 258.681158 210.708011 
L 259.425494 210.708011 
L 259.425494 211.179453 
L 260.169831 211.179453 
L 260.169831 211.650895 
L 260.914167 211.650895 
L 260.914167 211.886616 
L 263.147177 211.886616 
L 263.147177 211.415174 
L 263.891513 211.415174 
L 263.891513 211.179453 
L 264.63585 211.179453 
L 264.63585 210.708011 
L 265.380187 210.708011 
L 265.380187 210.472289 
L 266.86886 210.472289 
L 266.86886 210.708011 
L 267.613196 210.708011 
L 267.613196 211.179453 
L 268.357533 211.179453 
L 268.357533 211.886616 
L 269.101869 211.886616 
L 269.101869 212.8295 
L 269.846206 212.8295 
L 269.846206 213.772385 
L 270.590542 213.772385 
L 270.590542 214.715269 
L 271.334879 214.715269 
L 271.334879 215.658154 
L 272.079215 215.658154 
L 272.079215 216.365317 
L 272.823552 216.365317 
L 272.823552 216.836759 
L 273.567888 216.836759 
L 273.567888 217.308201 
L 274.312225 217.308201 
L 274.312225 217.779643 
L 275.056562 217.779643 
L 275.056562 218.251086 
L 275.800898 218.251086 
L 275.800898 218.722528 
L 276.545235 218.722528 
L 276.545235 219.19397 
L 277.289571 219.19397 
L 277.289571 219.665412 
L 278.033908 219.665412 
L 278.033908 220.372575 
L 278.778244 220.372575 
L 278.778244 220.608297 
L 279.522581 220.608297 
L 279.522581 220.844018 
L 281.75559 220.844018 
L 281.75559 220.608297 
L 282.499927 220.608297 
L 282.499927 220.136854 
L 283.244263 220.136854 
L 283.244263 219.901133 
L 283.9886 219.901133 
L 283.9886 219.665412 
L 284.732937 219.665412 
L 284.732937 219.429691 
L 289.943292 219.429691 
L 289.943292 219.19397 
L 290.687629 219.19397 
L 290.687629 218.958249 
L 291.431965 218.958249 
L 291.431965 218.722528 
L 292.176302 218.722528 
L 292.176302 218.486807 
L 292.920638 218.486807 
L 292.920638 218.015365 
L 293.664975 218.015365 
L 293.664975 217.779643 
L 294.409312 217.779643 
L 294.409312 217.543922 
L 295.153648 217.543922 
L 295.153648 217.308201 
L 295.897985 217.308201 
L 295.897985 217.07248 
L 296.642321 217.07248 
L 296.642321 217.308201 
L 297.386658 217.308201 
L 297.386658 217.543922 
L 298.130994 217.543922 
L 298.130994 217.779643 
L 298.875331 217.779643 
L 298.875331 218.486807 
L 299.619667 218.486807 
L 299.619667 219.19397 
L 300.364004 219.19397 
L 300.364004 219.901133 
L 301.10834 219.901133 
L 301.10834 220.608297 
L 301.852677 220.608297 
L 301.852677 221.31546 
L 302.597013 221.31546 
L 302.597013 221.786902 
L 303.34135 221.786902 
L 303.34135 222.258344 
L 304.085687 222.258344 
L 304.085687 222.494065 
L 306.318696 222.494065 
L 306.318696 222.258344 
L 307.807369 222.258344 
L 307.807369 222.022623 
L 308.551706 222.022623 
L 308.551706 221.786902 
L 309.296042 221.786902 
L 309.296042 221.551181 
L 310.784715 221.551181 
L 310.784715 221.31546 
L 312.273388 221.31546 
L 312.273388 221.079739 
L 313.762062 221.079739 
L 313.762062 220.844018 
L 315.250735 220.844018 
L 315.250735 221.079739 
L 315.995071 221.079739 
L 315.995071 221.31546 
L 316.739408 221.31546 
L 316.739408 221.786902 
L 317.483744 221.786902 
L 317.483744 222.494065 
L 318.228081 222.494065 
L 318.228081 223.201229 
L 318.972417 223.201229 
L 318.972417 223.908392 
L 319.716754 223.908392 
L 319.716754 224.379834 
L 320.46109 224.379834 
L 320.46109 224.851276 
L 321.205427 224.851276 
L 321.205427 225.322718 
L 321.949763 225.322718 
L 321.949763 225.55844 
L 322.6941 225.55844 
L 322.6941 225.794161 
L 325.671446 225.794161 
L 325.671446 225.55844 
L 326.415783 225.55844 
L 326.415783 225.322718 
L 327.160119 225.322718 
L 327.160119 224.851276 
L 327.904456 224.851276 
L 327.904456 224.379834 
L 328.648792 224.379834 
L 328.648792 223.908392 
L 329.393129 223.908392 
L 329.393129 223.43695 
L 330.137465 223.43695 
L 330.137465 222.965508 
L 330.881802 222.965508 
L 330.881802 222.494065 
L 331.626138 222.494065 
L 331.626138 222.022623 
L 332.370475 222.022623 
L 332.370475 221.786902 
L 333.114812 221.786902 
L 333.114812 221.551181 
L 335.347821 221.551181 
L 335.347821 222.022623 
L 336.092158 222.022623 
L 336.092158 222.494065 
L 336.836494 222.494065 
L 336.836494 223.43695 
L 337.580831 223.43695 
L 337.580831 224.379834 
L 338.325167 224.379834 
L 338.325167 225.322718 
L 339.069504 225.322718 
L 339.069504 226.029882 
L 339.81384 226.029882 
L 339.81384 226.737045 
L 340.558177 226.737045 
L 340.558177 227.208487 
L 341.302513 227.208487 
L 341.302513 226.972766 
L 342.04685 226.972766 
L 342.04685 226.737045 
L 342.791187 226.737045 
L 342.791187 226.029882 
L 343.535523 226.029882 
L 343.535523 225.55844 
L 344.27986 225.55844 
L 344.27986 224.851276 
L 345.024196 224.851276 
L 345.024196 224.379834 
L 347.257206 224.379834 
L 347.257206 224.615555 
L 348.001542 224.615555 
L 348.001542 224.851276 
L 348.745879 224.851276 
L 348.745879 225.086997 
L 349.490215 225.086997 
L 349.490215 225.322718 
L 351.723225 225.322718 
L 351.723225 225.086997 
L 352.467562 225.086997 
L 352.467562 224.851276 
L 353.211898 224.851276 
L 353.211898 224.615555 
L 353.956235 224.615555 
L 353.956235 224.144113 
L 354.700571 224.144113 
L 354.700571 223.908392 
L 355.444908 223.908392 
L 355.444908 223.672671 
L 356.189244 223.672671 
L 356.189244 223.43695 
L 356.933581 223.43695 
L 356.933581 223.201229 
L 357.677917 223.201229 
L 357.677917 222.965508 
L 358.422254 222.965508 
L 358.422254 222.729786 
L 359.910927 222.729786 
L 359.910927 222.494065 
L 360.655263 222.494065 
L 360.655263 222.258344 
L 361.3996 222.258344 
L 361.3996 222.022623 
L 362.143937 222.022623 
L 362.143937 221.551181 
L 362.888273 221.551181 
L 362.888273 221.31546 
L 363.63261 221.31546 
L 363.63261 221.079739 
L 364.376946 221.079739 
L 364.376946 220.844018 
L 368.098629 220.844018 
L 368.098629 221.079739 
L 368.842965 221.079739 
L 368.842965 221.551181 
L 369.587302 221.551181 
L 369.587302 222.022623 
L 370.331638 222.022623 
L 370.331638 222.494065 
L 371.075975 222.494065 
L 371.075975 223.43695 
L 371.820312 223.43695 
L 371.820312 224.144113 
L 372.564648 224.144113 
L 372.564648 225.086997 
L 373.308985 225.086997 
L 373.308985 226.029882 
L 374.053321 226.029882 
L 374.053321 226.972766 
L 374.797658 226.972766 
L 374.797658 227.91565 
L 375.541994 227.91565 
L 375.541994 228.387093 
L 376.286331 228.387093 
L 376.286331 228.858535 
L 377.030667 228.858535 
L 377.030667 229.094256 
L 377.775004 229.094256 
L 377.775004 229.094256 
" clip-path="url(#p74c69e24d0)" style="fill: none; stroke: #ff0000; stroke-width: 1.5; stroke-linecap: square"/>
   </g>
   <g id="patch_13">
    <path d="M 228.907696 329.04 
L 228.907696 195.504 
" style="fill: none; stroke: #000000; stroke-width: 0.8; stroke-linejoin: miter; stroke-linecap: square"/>
   </g>
   <g id="patch_14">
    <path d="M 377.775004 329.04 
L 377.775004 195.504 
" style="fill: none; stroke: #000000; stroke-width: 0.8; stroke-linejoin: miter; stroke-linecap: square"/>
   </g>
   <g id="patch_15">
    <path d="M 228.907696 329.04 
L 377.775004 329.04 
" style="fill: none; stroke: #000000; stroke-width: 0.8; stroke-linejoin: miter; stroke-linecap: square"/>
   </g>
   <g id="patch_16">
    <path d="M 228.907696 195.504 
L 377.775004 195.504 
" style="fill: none; stroke: #000000; stroke-width: 0.8; stroke-linejoin: miter; stroke-linecap: square"/>
   </g>
   <g id="text_17">
    <!-- $\log_{10}(M_x$/GeV) = ${-5.8636}_{-2.5023}^{+2.6799}$ -->
    <g transform="translate(191.55135 189.504) scale(0.14 -0.14)">
     <defs>
      <path id="DejaVuSans-35" d="M 691 4666 
L 3169 4666 
L 3169 4134 
L 1269 4134 
L 1269 2991 
Q 1406 3038 1543 3061 
Q 1681 3084 1819 3084 
Q 2600 3084 3056 2656 
Q 3513 2228 3513 1497 
Q 3513 744 3044 326 
Q 2575 -91 1722 -91 
Q 1428 -91 1123 -41 
Q 819 9 494 109 
L 494 744 
Q 775 591 1075 516 
Q 1375 441 1709 441 
Q 2250 441 2565 725 
Q 2881 1009 2881 1497 
Q 2881 1984 2565 2268 
Q 2250 2553 1709 2553 
Q 1456 2553 1204 2497 
Q 953 2441 691 2322 
L 691 4666 
z
" transform="scale(0.015625)"/>
      <path id="DejaVuSans-37" d="M 525 4666 
L 3525 4666 
L 3525 4397 
L 1831 0 
L 1172 0 
L 2766 4134 
L 525 4134 
L 525 4666 
z
" transform="scale(0.015625)"/>
      <path id="DejaVuSans-39" d="M 703 97 
L 703 672 
Q 941 559 1184 500 
Q 1428 441 1663 441 
Q 2288 441 2617 861 
Q 2947 1281 2994 2138 
Q 2813 1869 2534 1725 
Q 2256 1581 1919 1581 
Q 1219 1581 811 2004 
Q 403 2428 403 3163 
Q 403 3881 828 4315 
Q 1253 4750 1959 4750 
Q 2769 4750 3195 4129 
Q 3622 3509 3622 2328 
Q 3622 1225 3098 567 
Q 2575 -91 1691 -91 
Q 1453 -91 1209 -44 
Q 966 3 703 97 
z
M 1959 2075 
Q 2384 2075 2632 2365 
Q 2881 2656 2881 3163 
Q 2881 3666 2632 3958 
Q 2384 4250 1959 4250 
Q 1534 4250 1286 3958 
Q 1038 3666 1038 3163 
Q 1038 2656 1286 2365 
Q 1534 2075 1959 2075 
z
" transform="scale(0.015625)"/>
     </defs>
     <use xlink:href="#DejaVuSans-6c" transform="translate(0 0.765625)"/>
     <use xlink:href="#DejaVuSans-6f" transform="translate(27.783203 0.765625)"/>
     <use xlink:href="#DejaVuSans-67" transform="translate(88.964844 0.765625)"/>
     <use xlink:href="#DejaVuSans-31" transform="translate(153.398438 -15.640625) scale(0.7)"/>
     <use xlink:href="#DejaVuSans-30" transform="translate(197.93457 -15.640625) scale(0.7)"/>
     <use xlink:href="#DejaVuSans-28" transform="translate(261.440754 0.765625)"/>
     <use xlink:href="#DejaVuSans-Oblique-4d" transform="translate(300.454426 0.765625)"/>
     <use xlink:href="#DejaVuSans-Oblique-78" transform="translate(386.733723 -15.640625) scale(0.7)"/>
     <use xlink:href="#DejaVuSans-2f" transform="translate(430.893879 0.765625)"/>
     <use xlink:href="#DejaVuSans-47" transform="translate(464.585286 0.765625)"/>
     <use xlink:href="#DejaVuSans-65" transform="translate(542.07552 0.765625)"/>
     <use xlink:href="#DejaVuSans-56" transform="translate(603.598958 0.765625)"/>
     <use xlink:href="#DejaVuSans-29" transform="translate(672.007161 0.765625)"/>
     <use xlink:href="#DejaVuSans-20" transform="translate(711.020833 0.765625)"/>
     <use xlink:href="#DejaVuSans-3d" transform="translate(742.807942 0.765625)"/>
     <use xlink:href="#DejaVuSans-20" transform="translate(826.597004 0.765625)"/>
     <use xlink:href="#DejaVuSans-2212" transform="translate(858.384114 0.765625)"/>
     <use xlink:href="#DejaVuSans-35" transform="translate(942.173176 0.765625)"/>
     <use xlink:href="#DejaVuSans-2e" transform="translate(1005.796223 0.765625)"/>
     <use xlink:href="#DejaVuSans-38" transform="translate(1034.958333 0.765625)"/>
     <use xlink:href="#DejaVuSans-36" transform="translate(1098.581379 0.765625)"/>
     <use xlink:href="#DejaVuSans-33" transform="translate(1162.204426 0.765625)"/>
     <use xlink:href="#DejaVuSans-36" transform="translate(1225.827473 0.765625)"/>
     <use xlink:href="#DejaVuSans-2b" transform="translate(1290.407551 39.046875) scale(0.7)"/>
     <use xlink:href="#DejaVuSans-32" transform="translate(1349.059895 39.046875) scale(0.7)"/>
     <use xlink:href="#DejaVuSans-2e" transform="translate(1393.596028 39.046875) scale(0.7)"/>
     <use xlink:href="#DejaVuSans-36" transform="translate(1415.847004 39.046875) scale(0.7)"/>
     <use xlink:href="#DejaVuSans-37" transform="translate(1460.383137 39.046875) scale(0.7)"/>
     <use xlink:href="#DejaVuSans-39" transform="translate(1504.91927 39.046875) scale(0.7)"/>
     <use xlink:href="#DejaVuSans-39" transform="translate(1549.455403 39.046875) scale(0.7)"/>
     <use xlink:href="#DejaVuSans-2212" transform="translate(1290.407551 -26.578125) scale(0.7)"/>
     <use xlink:href="#DejaVuSans-32" transform="translate(1349.059895 -26.578125) scale(0.7)"/>
     <use xlink:href="#DejaVuSans-2e" transform="translate(1393.596028 -26.578125) scale(0.7)"/>
     <use xlink:href="#DejaVuSans-35" transform="translate(1415.847004 -26.578125) scale(0.7)"/>
     <use xlink:href="#DejaVuSans-30" transform="translate(1460.383137 -26.578125) scale(0.7)"/>
     <use xlink:href="#DejaVuSans-32" transform="translate(1504.91927 -26.578125) scale(0.7)"/>
     <use xlink:href="#DejaVuSans-33" transform="translate(1549.455403 -26.578125) scale(0.7)"/>
    </g>
   </g>
  </g>
 </g>
 <defs>
  <clipPath id="p9f4e5118ac">
   <rect x="66.96" y="30.984" width="148.867308" height="133.536"/>
  </clipPath>
  <clipPath id="p24a7280f7d">
   <rect x="66.96" y="195.504" width="148.867308" height="133.536"/>
  </clipPath>
  <clipPath id="p74c69e24d0">
   <rect x="228.907696" y="195.504" width="148.867308" height="133.536"/>
  </clipPath>
 </defs>
</svg>
