<?xml version="1.0" encoding="utf-8" standalone="no"?>
<!DOCTYPE svg PUBLIC "-//W3C//DTD SVG 1.1//EN"
  "http://www.w3.org/Graphics/SVG/1.1/DTD/svg11.dtd">
<svg xmlns:xlink="http://www.w3.org/1999/xlink" width="396pt" height="396pt" viewBox="0 0 396 396" xmlns="http://www.w3.org/2000/svg" version="1.1">
 <metadata>
  <rdf:RDF xmlns:dc="http://purl.org/dc/elements/1.1/" xmlns:cc="http://creativecommons.org/ns#" xmlns:rdf="http://www.w3.org/1999/02/22-rdf-syntax-ns#">
   <cc:Work>
    <dc:type rdf:resource="http://purl.org/dc/dcmitype/StillImage"/>
    <dc:date>2024-11-19T13:10:24.911880</dc:date>
    <dc:format>image/svg+xml</dc:format>
    <dc:creator>
     <cc:Agent>
      <dc:title>Matplotlib v3.9.2, https://matplotlib.org/</dc:title>
     </cc:Agent>
    </dc:creator>
   </cc:Work>
  </rdf:RDF>
 </metadata>
 <defs>
  <style type="text/css">*{stroke-linejoin: round; stroke-linecap: butt}</style>
 </defs>
 <g id="figure_1">
  <g id="patch_1">
   <path d="M 0 396 
L 396 396 
L 396 0 
L 0 0 
z
" style="fill: #ffffff"/>
  </g>
  <g id="axes_1">
   <g id="patch_2">
    <path d="M 69.552 163.224 
L 220.835806 163.224 
L 220.835806 30.984 
L 69.552 30.984 
z
" style="fill: #ffffff"/>
   </g>
   <g id="matplotlib.axis_1">
    <g id="xtick_1">
     <g id="line2d_1">
      <defs>
       <path id="m3b741c2e0e" d="M 0 0 
L 0 3.5 
" style="stroke: #000000; stroke-width: 0.8"/>
      </defs>
      <g>
       <use xlink:href="#m3b741c2e0e" x="104.48537" y="163.224" style="stroke: #000000; stroke-width: 0.8"/>
      </g>
     </g>
    </g>
    <g id="xtick_2">
     <g id="line2d_2">
      <g>
       <use xlink:href="#m3b741c2e0e" x="140.055909" y="163.224" style="stroke: #000000; stroke-width: 0.8"/>
      </g>
     </g>
    </g>
    <g id="xtick_3">
     <g id="line2d_3">
      <g>
       <use xlink:href="#m3b741c2e0e" x="175.626449" y="163.224" style="stroke: #000000; stroke-width: 0.8"/>
      </g>
     </g>
    </g>
    <g id="xtick_4">
     <g id="line2d_4">
      <g>
       <use xlink:href="#m3b741c2e0e" x="211.196988" y="163.224" style="stroke: #000000; stroke-width: 0.8"/>
      </g>
     </g>
    </g>
   </g>
   <g id="matplotlib.axis_2"/>
   <g id="line2d_5">
    <path d="M 69.552 162.859923 
L 75.603352 162.932739 
L 75.603352 163.005554 
L 80.141866 162.932739 
L 80.141866 162.859923 
L 81.654704 162.787108 
L 81.654704 162.714292 
L 83.167543 162.641477 
L 83.167543 162.568662 
L 83.923962 162.568662 
L 83.923962 162.423031 
L 86.193219 162.350216 
L 86.193219 162.2774 
L 89.218895 162.350216 
L 89.218895 162.423031 
L 91.488152 162.495846 
L 91.488152 162.568662 
L 96.026666 162.495846 
L 96.026666 162.423031 
L 97.539504 162.350216 
L 97.539504 162.2774 
L 99.052342 162.204585 
L 99.052342 162.131769 
L 100.56518 162.058954 
L 100.56518 161.986139 
L 102.834437 161.913323 
L 102.834437 161.767693 
L 103.590856 161.767693 
L 103.590856 161.622062 
L 104.347275 161.622062 
L 104.347275 161.476431 
L 105.103694 161.476431 
L 105.103694 161.18517 
L 105.860113 161.18517 
L 105.860113 160.821093 
L 106.616532 160.821093 
L 106.616532 160.457016 
L 107.372951 160.457016 
L 107.372951 159.947308 
L 108.12937 159.947308 
L 108.12937 159.437601 
L 108.885789 159.437601 
L 108.885789 158.855078 
L 109.642209 158.855078 
L 109.642209 158.34537 
L 110.398628 158.34537 
L 110.398628 157.908478 
L 111.155047 157.908478 
L 111.155047 157.471585 
L 111.911466 157.471585 
L 111.911466 157.180324 
L 112.667885 157.180324 
L 112.667885 156.889062 
L 113.424304 156.889062 
L 113.424304 156.670616 
L 114.180723 156.670616 
L 114.180723 156.45217 
L 114.937142 156.45217 
L 114.937142 156.233724 
L 115.693561 156.233724 
L 115.693561 155.869647 
L 116.44998 155.869647 
L 116.44998 155.50557 
L 117.206399 155.50557 
L 117.206399 154.995863 
L 117.962818 154.995863 
L 117.962818 154.340524 
L 118.719237 154.340524 
L 118.719237 153.612371 
L 119.475656 153.612371 
L 119.475656 152.811402 
L 120.232075 152.811402 
L 120.232075 152.010432 
L 120.988494 152.010432 
L 120.988494 151.136648 
L 121.744913 151.136648 
L 121.744913 150.262863 
L 122.501332 150.262863 
L 122.501332 149.461894 
L 123.257751 149.461894 
L 123.257751 148.515295 
L 124.01417 148.515295 
L 124.01417 147.64151 
L 124.770589 147.64151 
L 124.770589 146.622095 
L 125.527008 146.622095 
L 125.527008 145.529864 
L 126.283427 145.529864 
L 126.283427 144.364818 
L 127.039846 144.364818 
L 127.039846 143.126957 
L 127.796265 143.126957 
L 127.796265 141.743465 
L 128.552684 141.743465 
L 128.552684 140.214342 
L 129.309103 140.214342 
L 129.309103 138.612404 
L 130.065522 138.612404 
L 130.065522 136.792019 
L 130.821941 136.792019 
L 130.821941 134.89882 
L 131.57836 134.89882 
L 131.57836 132.787174 
L 132.334779 132.787174 
L 132.334779 130.457082 
L 133.091198 130.457082 
L 133.091198 128.054175 
L 133.847617 128.054175 
L 133.847617 125.578452 
L 134.604036 125.578452 
L 134.604036 122.957098 
L 135.360456 122.957098 
L 135.360456 120.26293 
L 136.116875 120.26293 
L 136.116875 117.42313 
L 136.873294 117.42313 
L 136.873294 114.510515 
L 137.629713 114.510515 
L 137.629713 111.525085 
L 138.386132 111.525085 
L 138.386132 108.321208 
L 139.142551 108.321208 
L 139.142551 105.044516 
L 139.89897 105.044516 
L 139.89897 101.549379 
L 140.655389 101.549379 
L 140.655389 98.054241 
L 141.411808 98.054241 
L 141.411808 94.413472 
L 142.168227 94.413472 
L 142.168227 90.699888 
L 142.924646 90.699888 
L 142.924646 87.059119 
L 143.681065 87.059119 
L 143.681065 83.418351 
L 144.437484 83.418351 
L 144.437484 79.850397 
L 145.193903 79.850397 
L 145.193903 76.355259 
L 145.950322 76.355259 
L 145.950322 72.932937 
L 146.706741 72.932937 
L 146.706741 69.72906 
L 147.46316 69.72906 
L 147.46316 66.525184 
L 148.219579 66.525184 
L 148.219579 63.466938 
L 148.975998 63.466938 
L 148.975998 60.554323 
L 149.732417 60.554323 
L 149.732417 57.641708 
L 150.488836 57.641708 
L 150.488836 54.874724 
L 151.245255 54.874724 
L 151.245255 52.253371 
L 152.001674 52.253371 
L 152.001674 49.850463 
L 152.758093 49.850463 
L 152.758093 47.811633 
L 153.514512 47.811633 
L 153.514512 46.136879 
L 154.270931 46.136879 
L 154.270931 44.753387 
L 155.02735 44.753387 
L 155.02735 43.806787 
L 155.783769 43.806787 
L 155.783769 43.29708 
L 156.540188 43.29708 
L 156.540188 43.005818 
L 158.053026 43.078634 
L 158.053026 43.44271 
L 158.809445 43.44271 
L 158.809445 44.025233 
L 159.565864 44.025233 
L 159.565864 44.753387 
L 160.322283 44.753387 
L 160.322283 45.627172 
L 161.078702 45.627172 
L 161.078702 46.573771 
L 161.835122 46.573771 
L 161.835122 47.738817 
L 162.591541 47.738817 
L 162.591541 49.049494 
L 163.34796 49.049494 
L 163.34796 50.578617 
L 164.104379 50.578617 
L 164.104379 52.326186 
L 164.860798 52.326186 
L 164.860798 54.292201 
L 165.617217 54.292201 
L 165.617217 56.549478 
L 166.373636 56.549478 
L 166.373636 59.0252 
L 167.130055 59.0252 
L 167.130055 61.646554 
L 167.886474 61.646554 
L 167.886474 64.340723 
L 168.642893 64.340723 
L 168.642893 67.107707 
L 169.399312 67.107707 
L 169.399312 69.947506 
L 170.155731 69.947506 
L 170.155731 72.714491 
L 170.91215 72.714491 
L 170.91215 75.627106 
L 171.668569 75.627106 
L 171.668569 78.53972 
L 172.424988 78.53972 
L 172.424988 81.525151 
L 173.181407 81.525151 
L 173.181407 84.583397 
L 173.937826 84.583397 
L 173.937826 87.787273 
L 174.694245 87.787273 
L 174.694245 91.063965 
L 175.450664 91.063965 
L 175.450664 94.413472 
L 176.207083 94.413472 
L 176.207083 97.762979 
L 176.963502 97.762979 
L 176.963502 101.039671 
L 177.719921 101.039671 
L 177.719921 104.389178 
L 178.47634 104.389178 
L 178.47634 107.66587 
L 179.232759 107.66587 
L 179.232759 110.869746 
L 179.989178 110.869746 
L 179.989178 114.073623 
L 180.745597 114.073623 
L 180.745597 117.204684 
L 181.502016 117.204684 
L 181.502016 120.26293 
L 182.258435 120.26293 
L 182.258435 123.24836 
L 183.014854 123.24836 
L 183.014854 126.088159 
L 183.771273 126.088159 
L 183.771273 128.855144 
L 184.527692 128.855144 
L 184.527692 131.476497 
L 185.284111 131.476497 
L 185.284111 133.95222 
L 186.04053 133.95222 
L 186.04053 136.209496 
L 186.796949 136.209496 
L 186.796949 138.321142 
L 187.553368 138.321142 
L 187.553368 140.287157 
L 188.309788 140.287157 
L 188.309788 142.107542 
L 189.066207 142.107542 
L 189.066207 143.855111 
L 189.822626 143.855111 
L 189.822626 145.457049 
L 190.579045 145.457049 
L 190.579045 146.986172 
L 191.335464 146.986172 
L 191.335464 148.442479 
L 192.091883 148.442479 
L 192.091883 149.753156 
L 192.848302 149.753156 
L 192.848302 150.991017 
L 193.604721 150.991017 
L 193.604721 152.156063 
L 194.36114 152.156063 
L 194.36114 153.248294 
L 195.117559 153.248294 
L 195.117559 154.194894 
L 195.873978 154.194894 
L 195.873978 155.141494 
L 196.630397 155.141494 
L 196.630397 156.015278 
L 197.386816 156.015278 
L 197.386816 156.743432 
L 198.143235 156.743432 
L 198.143235 157.471585 
L 198.899654 157.471585 
L 198.899654 158.126924 
L 199.656073 158.126924 
L 199.656073 158.636631 
L 200.412492 158.636631 
L 200.412492 159.146339 
L 201.168911 159.146339 
L 201.168911 159.583231 
L 201.92533 159.583231 
L 201.92533 159.947308 
L 202.681749 159.947308 
L 202.681749 160.311385 
L 203.438168 160.311385 
L 203.438168 160.602647 
L 204.194587 160.602647 
L 204.194587 160.821093 
L 204.951006 160.821093 
L 204.951006 161.112354 
L 205.707425 161.112354 
L 205.707425 161.3308 
L 206.463844 161.3308 
L 206.463844 161.549246 
L 207.220263 161.549246 
L 207.220263 161.694877 
L 207.976682 161.694877 
L 207.976682 161.913323 
L 208.733101 161.913323 
L 208.733101 162.058954 
L 209.48952 162.058954 
L 209.48952 162.204585 
L 210.245939 162.204585 
L 210.245939 162.350216 
L 211.002358 162.350216 
L 211.002358 162.495846 
L 212.515196 162.568662 
L 212.515196 162.714292 
L 214.028034 162.787108 
L 214.028034 162.859923 
L 215.540873 162.932739 
L 215.540873 163.005554 
L 217.81013 163.078369 
L 217.81013 163.151185 
L 220.835806 163.151185 
L 220.835806 163.151185 
" clip-path="url(#p0d14200e01)" style="fill: none; stroke: #ff0000; stroke-width: 1.5; stroke-linecap: square"/>
   </g>
   <g id="patch_3">
    <path d="M 69.552 163.224 
L 69.552 30.984 
" style="fill: none; stroke: #000000; stroke-width: 0.8; stroke-linejoin: miter; stroke-linecap: square"/>
   </g>
   <g id="patch_4">
    <path d="M 220.835806 163.224 
L 220.835806 30.984 
" style="fill: none; stroke: #000000; stroke-width: 0.8; stroke-linejoin: miter; stroke-linecap: square"/>
   </g>
   <g id="patch_5">
    <path d="M 69.552 163.224 
L 220.835806 163.224 
" style="fill: none; stroke: #000000; stroke-width: 0.8; stroke-linejoin: miter; stroke-linecap: square"/>
   </g>
   <g id="patch_6">
    <path d="M 69.552 30.984 
L 220.835806 30.984 
" style="fill: none; stroke: #000000; stroke-width: 0.8; stroke-linejoin: miter; stroke-linecap: square"/>
   </g>
   <g id="text_1">
    <!-- $\Omega_{2,0}$ = ${0.3003}_{-0.0184}^{+0.0183}$ -->
    <g transform="translate(74.493903 24.984) scale(0.14 -0.14)">
     <defs>
      <path id="DejaVuSans-3a9" d="M 4647 556 
L 4647 0 
L 2772 0 
L 2772 556 
Q 3325 859 3634 1378 
Q 3944 1897 3944 2528 
Q 3944 3278 3531 3731 
Q 3119 4184 2444 4184 
Q 1769 4184 1355 3729 
Q 941 3275 941 2528 
Q 941 1897 1250 1378 
Q 1563 859 2119 556 
L 2119 0 
L 244 0 
L 244 556 
L 1241 556 
Q 747 991 519 1456 
Q 294 1922 294 2497 
Q 294 3491 894 4106 
Q 1491 4722 2444 4722 
Q 3391 4722 3994 4106 
Q 4594 3494 4594 2528 
Q 4594 1922 4372 1459 
Q 4150 997 3647 556 
L 4647 556 
z
" transform="scale(0.015625)"/>
      <path id="DejaVuSans-32" d="M 1228 531 
L 3431 531 
L 3431 0 
L 469 0 
L 469 531 
Q 828 903 1448 1529 
Q 2069 2156 2228 2338 
Q 2531 2678 2651 2914 
Q 2772 3150 2772 3378 
Q 2772 3750 2511 3984 
Q 2250 4219 1831 4219 
Q 1534 4219 1204 4116 
Q 875 4013 500 3803 
L 500 4441 
Q 881 4594 1212 4672 
Q 1544 4750 1819 4750 
Q 2544 4750 2975 4387 
Q 3406 4025 3406 3419 
Q 3406 3131 3298 2873 
Q 3191 2616 2906 2266 
Q 2828 2175 2409 1742 
Q 1991 1309 1228 531 
z
" transform="scale(0.015625)"/>
      <path id="DejaVuSans-2c" d="M 750 794 
L 1409 794 
L 1409 256 
L 897 -744 
L 494 -744 
L 750 256 
L 750 794 
z
" transform="scale(0.015625)"/>
      <path id="DejaVuSans-30" d="M 2034 4250 
Q 1547 4250 1301 3770 
Q 1056 3291 1056 2328 
Q 1056 1369 1301 889 
Q 1547 409 2034 409 
Q 2525 409 2770 889 
Q 3016 1369 3016 2328 
Q 3016 3291 2770 3770 
Q 2525 4250 2034 4250 
z
M 2034 4750 
Q 2819 4750 3233 4129 
Q 3647 3509 3647 2328 
Q 3647 1150 3233 529 
Q 2819 -91 2034 -91 
Q 1250 -91 836 529 
Q 422 1150 422 2328 
Q 422 3509 836 4129 
Q 1250 4750 2034 4750 
z
" transform="scale(0.015625)"/>
      <path id="DejaVuSans-20" transform="scale(0.015625)"/>
      <path id="DejaVuSans-3d" d="M 678 2906 
L 4684 2906 
L 4684 2381 
L 678 2381 
L 678 2906 
z
M 678 1631 
L 4684 1631 
L 4684 1100 
L 678 1100 
L 678 1631 
z
" transform="scale(0.015625)"/>
      <path id="DejaVuSans-2e" d="M 684 794 
L 1344 794 
L 1344 0 
L 684 0 
L 684 794 
z
" transform="scale(0.015625)"/>
      <path id="DejaVuSans-33" d="M 2597 2516 
Q 3050 2419 3304 2112 
Q 3559 1806 3559 1356 
Q 3559 666 3084 287 
Q 2609 -91 1734 -91 
Q 1441 -91 1130 -33 
Q 819 25 488 141 
L 488 750 
Q 750 597 1062 519 
Q 1375 441 1716 441 
Q 2309 441 2620 675 
Q 2931 909 2931 1356 
Q 2931 1769 2642 2001 
Q 2353 2234 1838 2234 
L 1294 2234 
L 1294 2753 
L 1863 2753 
Q 2328 2753 2575 2939 
Q 2822 3125 2822 3475 
Q 2822 3834 2567 4026 
Q 2313 4219 1838 4219 
Q 1578 4219 1281 4162 
Q 984 4106 628 3988 
L 628 4550 
Q 988 4650 1302 4700 
Q 1616 4750 1894 4750 
Q 2613 4750 3031 4423 
Q 3450 4097 3450 3541 
Q 3450 3153 3228 2886 
Q 3006 2619 2597 2516 
z
" transform="scale(0.015625)"/>
      <path id="DejaVuSans-2b" d="M 2944 4013 
L 2944 2272 
L 4684 2272 
L 4684 1741 
L 2944 1741 
L 2944 0 
L 2419 0 
L 2419 1741 
L 678 1741 
L 678 2272 
L 2419 2272 
L 2419 4013 
L 2944 4013 
z
" transform="scale(0.015625)"/>
      <path id="DejaVuSans-31" d="M 794 531 
L 1825 531 
L 1825 4091 
L 703 3866 
L 703 4441 
L 1819 4666 
L 2450 4666 
L 2450 531 
L 3481 531 
L 3481 0 
L 794 0 
L 794 531 
z
" transform="scale(0.015625)"/>
      <path id="DejaVuSans-38" d="M 2034 2216 
Q 1584 2216 1326 1975 
Q 1069 1734 1069 1313 
Q 1069 891 1326 650 
Q 1584 409 2034 409 
Q 2484 409 2743 651 
Q 3003 894 3003 1313 
Q 3003 1734 2745 1975 
Q 2488 2216 2034 2216 
z
M 1403 2484 
Q 997 2584 770 2862 
Q 544 3141 544 3541 
Q 544 4100 942 4425 
Q 1341 4750 2034 4750 
Q 2731 4750 3128 4425 
Q 3525 4100 3525 3541 
Q 3525 3141 3298 2862 
Q 3072 2584 2669 2484 
Q 3125 2378 3379 2068 
Q 3634 1759 3634 1313 
Q 3634 634 3220 271 
Q 2806 -91 2034 -91 
Q 1263 -91 848 271 
Q 434 634 434 1313 
Q 434 1759 690 2068 
Q 947 2378 1403 2484 
z
M 1172 3481 
Q 1172 3119 1398 2916 
Q 1625 2713 2034 2713 
Q 2441 2713 2670 2916 
Q 2900 3119 2900 3481 
Q 2900 3844 2670 4047 
Q 2441 4250 2034 4250 
Q 1625 4250 1398 4047 
Q 1172 3844 1172 3481 
z
" transform="scale(0.015625)"/>
      <path id="DejaVuSans-2212" d="M 678 2272 
L 4684 2272 
L 4684 1741 
L 678 1741 
L 678 2272 
z
" transform="scale(0.015625)"/>
      <path id="DejaVuSans-34" d="M 2419 4116 
L 825 1625 
L 2419 1625 
L 2419 4116 
z
M 2253 4666 
L 3047 4666 
L 3047 1625 
L 3713 1625 
L 3713 1100 
L 3047 1100 
L 3047 0 
L 2419 0 
L 2419 1100 
L 313 1100 
L 313 1709 
L 2253 4666 
z
" transform="scale(0.015625)"/>
     </defs>
     <use xlink:href="#DejaVuSans-3a9" transform="translate(0 0.765625)"/>
     <use xlink:href="#DejaVuSans-32" transform="translate(77.373047 -15.640625) scale(0.7)"/>
     <use xlink:href="#DejaVuSans-2c" transform="translate(121.90918 -15.640625) scale(0.7)"/>
     <use xlink:href="#DejaVuSans-30" transform="translate(157.797852 -15.640625) scale(0.7)"/>
     <use xlink:href="#DejaVuSans-20" transform="translate(205.068359 0.765625)"/>
     <use xlink:href="#DejaVuSans-3d" transform="translate(236.855469 0.765625)"/>
     <use xlink:href="#DejaVuSans-20" transform="translate(320.644531 0.765625)"/>
     <use xlink:href="#DejaVuSans-30" transform="translate(352.431641 0.765625)"/>
     <use xlink:href="#DejaVuSans-2e" transform="translate(416.054688 0.765625)"/>
     <use xlink:href="#DejaVuSans-33" transform="translate(447.841797 0.765625)"/>
     <use xlink:href="#DejaVuSans-30" transform="translate(511.464844 0.765625)"/>
     <use xlink:href="#DejaVuSans-30" transform="translate(575.087891 0.765625)"/>
     <use xlink:href="#DejaVuSans-33" transform="translate(638.710938 0.765625)"/>
     <use xlink:href="#DejaVuSans-2b" transform="translate(703.291016 39.046875) scale(0.7)"/>
     <use xlink:href="#DejaVuSans-30" transform="translate(761.943359 39.046875) scale(0.7)"/>
     <use xlink:href="#DejaVuSans-2e" transform="translate(806.479492 39.046875) scale(0.7)"/>
     <use xlink:href="#DejaVuSans-30" transform="translate(828.730469 39.046875) scale(0.7)"/>
     <use xlink:href="#DejaVuSans-31" transform="translate(873.266602 39.046875) scale(0.7)"/>
     <use xlink:href="#DejaVuSans-38" transform="translate(917.802734 39.046875) scale(0.7)"/>
     <use xlink:href="#DejaVuSans-33" transform="translate(962.338867 39.046875) scale(0.7)"/>
     <use xlink:href="#DejaVuSans-2212" transform="translate(703.291016 -26.578125) scale(0.7)"/>
     <use xlink:href="#DejaVuSans-30" transform="translate(761.943359 -26.578125) scale(0.7)"/>
     <use xlink:href="#DejaVuSans-2e" transform="translate(806.479492 -26.578125) scale(0.7)"/>
     <use xlink:href="#DejaVuSans-30" transform="translate(828.730469 -26.578125) scale(0.7)"/>
     <use xlink:href="#DejaVuSans-31" transform="translate(873.266602 -26.578125) scale(0.7)"/>
     <use xlink:href="#DejaVuSans-38" transform="translate(917.802734 -26.578125) scale(0.7)"/>
     <use xlink:href="#DejaVuSans-34" transform="translate(962.338867 -26.578125) scale(0.7)"/>
    </g>
   </g>
  </g>
  <g id="axes_2">
   <g id="matplotlib.axis_3"/>
   <g id="matplotlib.axis_4"/>
  </g>
  <g id="axes_3">
   <g id="patch_7">
    <path d="M 69.552 326.448 
L 220.835806 326.448 
L 220.835806 194.208 
L 69.552 194.208 
z
" style="fill: #ffffff"/>
   </g>
   <g id="QuadContourSet_1">
    <path d="M 131.57836 328.360408 
L 134.604036 329.016477 
L 137.629713 329.320083 
L 140.655389 329.571515 
L 143.681065 329.763756 
L 146.706741 329.863818 
L 149.732417 329.94903 
L 152.758093 330.01909 
L 155.783769 330.03151 
L 158.809445 330.026595 
L 161.835122 330.057421 
L 164.860798 330.077429 
L 167.886474 330.067743 
L 170.91215 330.025048 
L 173.937826 329.929852 
L 176.963502 329.763341 
L 179.989178 329.537676 
L 183.014854 329.336252 
L 186.04053 329.114788 
L 189.066207 328.739247 
L 191.747187 327.7704 
L 191.747187 325.1256 
L 191.805753 322.4808 
L 192.091883 321.718333 
L 192.895059 319.836 
L 193.419976 317.1912 
L 192.197944 314.5464 
L 192.091883 314.351966 
L 190.670532 311.9016 
L 190.752813 309.2568 
L 190.985008 306.612 
L 191.355719 303.9672 
L 191.828063 301.3224 
L 191.709438 298.6776 
L 191.443102 296.0328 
L 191.402379 293.388 
L 191.608231 290.7432 
L 192.010543 288.0984 
L 192.030311 285.4536 
L 191.975427 282.8088 
L 192.091883 281.565593 
L 192.297735 280.164 
L 192.091883 277.889156 
L 192.071768 277.5192 
L 192.091883 277.305063 
L 192.41402 274.8744 
L 193.46081 272.2296 
L 193.805386 269.5848 
L 193.383925 266.94 
L 192.99708 264.2952 
L 193.041692 261.6504 
L 193.489172 259.0056 
L 193.798286 256.3608 
L 192.704846 253.716 
L 192.091883 252.862449 
L 191.112431 251.0712 
L 190.582211 248.4264 
L 190.546255 245.7816 
L 190.636853 243.1368 
L 191.025936 240.492 
L 191.167494 237.8472 
L 190.950768 235.2024 
L 191.214006 232.5576 
L 191.621808 229.9128 
L 191.330689 227.268 
L 190.947763 224.6232 
L 191.042904 221.9784 
L 189.508587 219.3336 
L 189.066207 219.020877 
L 186.04053 217.141508 
L 185.558454 216.6888 
L 183.014854 214.48655 
L 182.66708 214.044 
L 180.355446 211.3992 
L 179.989178 211.139815 
L 176.963502 209.370608 
L 175.436538 208.7544 
L 173.937826 208.094668 
L 170.91215 206.850481 
L 168.85031 206.1096 
L 167.886474 205.722372 
L 164.860798 204.650933 
L 161.835122 203.667683 
L 161.357816 203.4648 
L 158.809445 202.154345 
L 155.783769 201.051028 
L 154.65173 200.82 
L 152.758093 200.212277 
L 149.732417 199.944917 
L 146.706741 199.593646 
L 143.681065 198.86457 
L 140.655389 198.222365 
L 140.451805 198.1752 
L 137.629713 197.130491 
L 134.604036 196.601854 
L 131.57836 196.404115 
L 128.552684 195.989822 
L 126.30837 195.5304 
L 126.30837 192.8856 
L 125.527008 192.651814 
L 122.501332 191.934459 
L 119.475656 191.764725 
L 116.44998 191.771551 
L 113.424304 191.484189 
L 110.398628 191.423552 
L 107.372951 192.065946 
L 104.808468 192.8856 
L 104.808468 195.5304 
L 104.347275 196.035517 
L 101.321599 195.884267 
L 98.295923 197.433198 
L 97.971774 198.1752 
L 98.295923 198.426373 
L 101.321599 199.864685 
L 102.286115 200.82 
L 104.347275 201.984078 
L 105.478684 203.4648 
L 107.372951 204.993329 
L 109.200566 206.1096 
L 110.398628 206.933736 
L 113.424304 208.434293 
L 114.271299 208.7544 
L 116.44998 209.966898 
L 119.475656 211.20808 
L 119.83949 211.3992 
L 122.501332 213.448773 
L 123.331498 214.044 
L 125.527008 216.178504 
L 125.974309 216.6888 
L 126.993296 219.3336 
L 128.300721 221.9784 
L 128.552684 222.322076 
L 129.897398 224.6232 
L 130.488909 227.268 
L 130.625113 229.9128 
L 130.246182 232.5576 
L 129.81658 235.2024 
L 129.744162 237.8472 
L 129.866995 240.492 
L 130.041118 243.1368 
L 130.855629 245.7816 
L 131.370116 248.4264 
L 131.205241 251.0712 
L 131.285364 253.716 
L 131.546911 256.3608 
L 131.57836 256.502158 
L 131.895797 259.0056 
L 132.148526 261.6504 
L 131.963487 264.2952 
L 131.615007 266.94 
L 131.57836 267.125731 
L 130.872469 269.5848 
L 130.289793 272.2296 
L 130.279892 274.8744 
L 130.475902 277.5192 
L 130.679488 280.164 
L 130.598785 282.8088 
L 129.67325 285.4536 
L 128.552684 287.373681 
L 128.047605 288.0984 
L 127.472672 290.7432 
L 128.552684 293.225751 
L 128.629037 293.388 
L 129.142662 296.0328 
L 129.400435 298.6776 
L 130.377939 301.3224 
L 131.30537 303.9672 
L 131.57836 306.612 
L 131.57836 306.612 
L 131.57836 306.612 
L 131.455781 309.2568 
L 131.57836 309.591701 
L 132.042506 311.9016 
L 132.970219 314.5464 
L 132.856812 317.1912 
L 131.652062 319.836 
L 131.57836 319.984346 
L 129.922849 322.4808 
L 129.679174 325.1256 
L 129.679174 327.7704 
z
M 83.167543 196.164469 
L 86.193219 197.685025 
L 89.218895 197.053389 
L 91.43872 195.5304 
L 91.43872 192.8856 
L 89.218895 192.239797 
L 86.193219 191.887296 
L 83.167543 192.614696 
L 82.642121 192.8856 
L 82.642121 195.5304 
z
" clip-path="url(#p4db41cc9b0)" style="fill: #ffffff"/>
   </g>
   <g id="QuadContourSet_2">
    <path d="M 68.039162 330.4152 
L 71.064838 330.4152 
L 74.090514 330.4152 
L 77.11619 330.4152 
L 80.141866 330.4152 
L 83.167543 330.4152 
L 86.193219 330.4152 
L 89.218895 330.4152 
L 92.244571 330.4152 
L 95.270247 330.4152 
L 98.295923 330.4152 
L 101.321599 330.4152 
L 104.347275 330.4152 
L 107.372951 330.4152 
L 110.398628 330.4152 
L 113.424304 330.4152 
L 116.44998 330.4152 
L 119.475656 330.4152 
L 122.501332 330.4152 
L 125.527008 330.4152 
L 128.552684 330.4152 
L 131.57836 330.4152 
L 134.604036 330.4152 
L 137.629713 330.4152 
L 140.655389 330.4152 
L 143.681065 330.4152 
L 146.706741 330.4152 
L 149.732417 330.4152 
L 152.758093 330.4152 
L 155.783769 330.4152 
L 158.809445 330.4152 
L 161.835122 330.4152 
L 164.860798 330.4152 
L 167.886474 330.4152 
L 170.91215 330.4152 
L 173.937826 330.4152 
L 176.963502 330.4152 
L 179.989178 330.4152 
L 183.014854 330.4152 
L 186.04053 330.4152 
L 189.066207 330.4152 
L 192.091883 330.4152 
L 195.117559 330.4152 
L 198.143235 330.4152 
L 201.168911 330.4152 
L 204.194587 330.4152 
L 207.220263 330.4152 
L 210.245939 330.4152 
L 213.271615 330.4152 
L 216.297292 330.4152 
L 219.322968 330.4152 
L 222.348644 330.4152 
L 225.37432 330.4152 
L 225.37432 327.7704 
L 225.37432 325.1256 
L 225.37432 322.4808 
L 225.37432 319.836 
L 225.37432 317.1912 
L 225.37432 314.5464 
L 225.37432 311.9016 
L 225.37432 309.2568 
L 225.37432 306.612 
L 225.37432 303.9672 
L 225.37432 301.3224 
L 225.37432 298.6776 
L 225.37432 296.0328 
L 225.37432 293.388 
L 225.37432 290.7432 
L 225.37432 288.0984 
L 225.37432 285.4536 
L 225.37432 282.8088 
L 225.37432 280.164 
L 225.37432 277.5192 
L 225.37432 274.8744 
L 225.37432 272.2296 
L 225.37432 269.5848 
L 225.37432 266.94 
L 225.37432 264.2952 
L 225.37432 261.6504 
L 225.37432 259.0056 
L 225.37432 256.3608 
L 225.37432 253.716 
L 225.37432 251.0712 
L 225.37432 248.4264 
L 225.37432 245.7816 
L 225.37432 243.1368 
L 225.37432 240.492 
L 225.37432 237.8472 
L 225.37432 235.2024 
L 225.37432 232.5576 
L 225.37432 229.9128 
L 225.37432 227.268 
L 225.37432 224.6232 
L 225.37432 221.9784 
L 225.37432 219.3336 
L 225.37432 216.6888 
L 225.37432 214.044 
L 225.37432 211.3992 
L 225.37432 208.7544 
L 225.37432 206.1096 
L 225.37432 203.4648 
L 225.37432 200.82 
L 225.37432 198.1752 
L 225.37432 195.5304 
L 225.37432 192.8856 
L 225.37432 190.2408 
L 222.348644 190.2408 
L 219.322968 190.2408 
L 216.297292 190.2408 
L 213.271615 190.2408 
L 210.245939 190.2408 
L 207.220263 190.2408 
L 204.194587 190.2408 
L 201.168911 190.2408 
L 198.143235 190.2408 
L 195.117559 190.2408 
L 192.091883 190.2408 
L 189.066207 190.2408 
L 186.04053 190.2408 
L 183.014854 190.2408 
L 179.989178 190.2408 
L 176.963502 190.2408 
L 173.937826 190.2408 
L 170.91215 190.2408 
L 167.886474 190.2408 
L 164.860798 190.2408 
L 161.835122 190.2408 
L 158.809445 190.2408 
L 155.783769 190.2408 
L 152.758093 190.2408 
L 149.732417 190.2408 
L 146.706741 190.2408 
L 143.681065 190.2408 
L 140.655389 190.2408 
L 137.629713 190.2408 
L 134.604036 190.2408 
L 131.57836 190.2408 
L 128.552684 190.2408 
L 125.527008 190.2408 
L 122.501332 190.2408 
L 119.475656 190.2408 
L 116.44998 190.2408 
L 113.424304 190.2408 
L 110.398628 190.2408 
L 107.372951 190.2408 
L 104.347275 190.2408 
L 101.321599 190.2408 
L 98.295923 190.2408 
L 95.270247 190.2408 
L 92.244571 190.2408 
L 89.218895 190.2408 
L 86.193219 190.2408 
L 83.167543 190.2408 
L 80.141866 190.2408 
L 77.11619 190.2408 
L 74.090514 190.2408 
L 71.064838 190.2408 
L 68.039162 190.2408 
L 65.013486 190.2408 
L 65.013486 192.8856 
L 65.013486 195.5304 
L 65.013486 198.1752 
L 65.013486 200.82 
L 65.013486 203.4648 
L 65.013486 206.1096 
L 65.013486 208.7544 
L 65.013486 211.3992 
L 65.013486 214.044 
L 65.013486 216.6888 
L 65.013486 219.3336 
L 65.013486 221.9784 
L 65.013486 224.6232 
L 65.013486 227.268 
L 65.013486 229.9128 
L 65.013486 232.5576 
L 65.013486 235.2024 
L 65.013486 237.8472 
L 65.013486 240.492 
L 65.013486 243.1368 
L 65.013486 245.7816 
L 65.013486 248.4264 
L 65.013486 251.0712 
L 65.013486 253.716 
L 65.013486 256.3608 
L 65.013486 259.0056 
L 65.013486 261.6504 
L 65.013486 264.2952 
L 65.013486 266.94 
L 65.013486 269.5848 
L 65.013486 272.2296 
L 65.013486 274.8744 
L 65.013486 277.5192 
L 65.013486 280.164 
L 65.013486 282.8088 
L 65.013486 285.4536 
L 65.013486 288.0984 
L 65.013486 290.7432 
L 65.013486 293.388 
L 65.013486 296.0328 
L 65.013486 298.6776 
L 65.013486 301.3224 
L 65.013486 303.9672 
L 65.013486 306.612 
L 65.013486 309.2568 
L 65.013486 311.9016 
L 65.013486 314.5464 
L 65.013486 317.1912 
L 65.013486 319.836 
L 65.013486 322.4808 
L 65.013486 325.1256 
L 65.013486 327.7704 
L 65.013486 330.4152 
L 68.039162 330.4152 
z
M 129.679174 327.7704 
L 129.679174 325.1256 
L 129.922849 322.4808 
L 131.57836 319.984346 
L 131.652062 319.836 
L 132.856812 317.1912 
L 132.970219 314.5464 
L 132.042506 311.9016 
L 131.57836 309.591701 
L 131.455781 309.2568 
L 131.57836 306.612 
L 131.57836 306.612 
L 131.57836 306.612 
L 131.30537 303.9672 
L 130.377939 301.3224 
L 129.400435 298.6776 
L 129.142662 296.0328 
L 128.629037 293.388 
L 128.552684 293.225751 
L 127.472672 290.7432 
L 128.047605 288.0984 
L 128.552684 287.373681 
L 129.67325 285.4536 
L 130.598785 282.8088 
L 130.679488 280.164 
L 130.475902 277.5192 
L 130.279892 274.8744 
L 130.289793 272.2296 
L 130.872469 269.5848 
L 131.57836 267.125731 
L 131.615007 266.94 
L 131.963487 264.2952 
L 132.148526 261.6504 
L 131.895797 259.0056 
L 131.57836 256.502158 
L 131.546911 256.3608 
L 131.285364 253.716 
L 131.205241 251.0712 
L 131.370116 248.4264 
L 130.855629 245.7816 
L 130.041118 243.1368 
L 129.866995 240.492 
L 129.744162 237.8472 
L 129.81658 235.2024 
L 130.246182 232.5576 
L 130.625113 229.9128 
L 130.488909 227.268 
L 129.897398 224.6232 
L 128.552684 222.322076 
L 128.300721 221.9784 
L 126.993296 219.3336 
L 125.974309 216.6888 
L 125.527008 216.178504 
L 123.331498 214.044 
L 122.501332 213.448773 
L 119.83949 211.3992 
L 119.475656 211.20808 
L 116.44998 209.966898 
L 114.271299 208.7544 
L 113.424304 208.434293 
L 110.398628 206.933736 
L 109.200566 206.1096 
L 107.372951 204.993329 
L 105.478684 203.4648 
L 104.347275 201.984078 
L 102.286115 200.82 
L 101.321599 199.864685 
L 98.295923 198.426373 
L 97.971774 198.1752 
L 98.295923 197.433198 
L 101.321599 195.884267 
L 104.347275 196.035517 
L 104.808468 195.5304 
L 104.808468 192.8856 
L 107.372951 192.065946 
L 110.398628 191.423552 
L 113.424304 191.484189 
L 116.44998 191.771551 
L 119.475656 191.764725 
L 122.501332 191.934459 
L 125.527008 192.651814 
L 126.30837 192.8856 
L 126.30837 195.5304 
L 128.552684 195.989822 
L 131.57836 196.404115 
L 134.604036 196.601854 
L 137.629713 197.130491 
L 140.451805 198.1752 
L 140.655389 198.222365 
L 143.681065 198.86457 
L 146.706741 199.593646 
L 149.732417 199.944917 
L 152.758093 200.212277 
L 154.65173 200.82 
L 155.783769 201.051028 
L 158.809445 202.154345 
L 161.357816 203.4648 
L 161.835122 203.667683 
L 164.860798 204.650933 
L 167.886474 205.722372 
L 168.85031 206.1096 
L 170.91215 206.850481 
L 173.937826 208.094668 
L 175.436538 208.7544 
L 176.963502 209.370608 
L 179.989178 211.139815 
L 180.355446 211.3992 
L 182.66708 214.044 
L 183.014854 214.48655 
L 185.558454 216.6888 
L 186.04053 217.141508 
L 189.066207 219.020877 
L 189.508587 219.3336 
L 191.042904 221.9784 
L 190.947763 224.6232 
L 191.330689 227.268 
L 191.621808 229.9128 
L 191.214006 232.5576 
L 190.950768 235.2024 
L 191.167494 237.8472 
L 191.025936 240.492 
L 190.636853 243.1368 
L 190.546255 245.7816 
L 190.582211 248.4264 
L 191.112431 251.0712 
L 192.091883 252.862449 
L 192.704846 253.716 
L 193.798286 256.3608 
L 193.489172 259.0056 
L 193.041692 261.6504 
L 192.99708 264.2952 
L 193.383925 266.94 
L 193.805386 269.5848 
L 193.46081 272.2296 
L 192.41402 274.8744 
L 192.091883 277.305063 
L 192.071768 277.5192 
L 192.091883 277.889156 
L 192.297735 280.164 
L 192.091883 281.565593 
L 191.975427 282.8088 
L 192.030311 285.4536 
L 192.010543 288.0984 
L 191.608231 290.7432 
L 191.402379 293.388 
L 191.443102 296.0328 
L 191.709438 298.6776 
L 191.828063 301.3224 
L 191.355719 303.9672 
L 190.985008 306.612 
L 190.752813 309.2568 
L 190.670532 311.9016 
L 192.091883 314.351966 
L 192.197944 314.5464 
L 193.419976 317.1912 
L 192.895059 319.836 
L 192.091883 321.718333 
L 191.805753 322.4808 
L 191.747187 325.1256 
L 191.747187 327.7704 
L 189.066207 328.739247 
L 186.04053 329.114788 
L 183.014854 329.336252 
L 179.989178 329.537676 
L 176.963502 329.763341 
L 173.937826 329.929852 
L 170.91215 330.025048 
L 167.886474 330.067743 
L 164.860798 330.077429 
L 161.835122 330.057421 
L 158.809445 330.026595 
L 155.783769 330.03151 
L 152.758093 330.01909 
L 149.732417 329.94903 
L 146.706741 329.863818 
L 143.681065 329.763756 
L 140.655389 329.571515 
L 137.629713 329.320083 
L 134.604036 329.016477 
L 131.57836 328.360408 
L 129.679174 327.7704 
z
M 82.642121 195.5304 
L 82.642121 192.8856 
L 83.167543 192.614696 
L 86.193219 191.887296 
L 89.218895 192.239797 
L 91.43872 192.8856 
L 91.43872 195.5304 
L 89.218895 197.053389 
L 86.193219 197.685025 
L 83.167543 196.164469 
L 82.642121 195.5304 
z
" clip-path="url(#p4db41cc9b0)" style="fill: none"/>
    <path d="M 131.57836 328.360408 
L 134.604036 329.016477 
L 137.629713 329.320083 
L 140.655389 329.571515 
L 143.681065 329.763756 
L 146.706741 329.863818 
L 149.732417 329.94903 
L 152.758093 330.01909 
L 155.783769 330.03151 
L 158.809445 330.026595 
L 161.835122 330.057421 
L 164.860798 330.077429 
L 167.886474 330.067743 
L 170.91215 330.025048 
L 173.937826 329.929852 
L 176.963502 329.763341 
L 179.989178 329.537676 
L 183.014854 329.336252 
L 186.04053 329.114788 
L 189.066207 328.739247 
L 191.747187 327.7704 
L 191.747187 325.1256 
L 191.805753 322.4808 
L 192.091883 321.718333 
L 192.895059 319.836 
L 193.419976 317.1912 
L 192.197944 314.5464 
L 192.091883 314.351966 
L 190.670532 311.9016 
L 190.752813 309.2568 
L 190.985008 306.612 
L 191.355719 303.9672 
L 191.828063 301.3224 
L 191.709438 298.6776 
L 191.443102 296.0328 
L 191.402379 293.388 
L 191.608231 290.7432 
L 192.010543 288.0984 
L 192.030311 285.4536 
L 191.975427 282.8088 
L 192.091883 281.565593 
L 192.297735 280.164 
L 192.091883 277.889156 
L 192.071768 277.5192 
L 192.091883 277.305063 
L 192.41402 274.8744 
L 193.46081 272.2296 
L 193.805386 269.5848 
L 193.383925 266.94 
L 192.99708 264.2952 
L 193.041692 261.6504 
L 193.489172 259.0056 
L 193.798286 256.3608 
L 192.704846 253.716 
L 192.091883 252.862449 
L 191.112431 251.0712 
L 190.582211 248.4264 
L 190.546255 245.7816 
L 190.636853 243.1368 
L 191.025936 240.492 
L 191.167494 237.8472 
L 190.950768 235.2024 
L 191.214006 232.5576 
L 191.621808 229.9128 
L 191.330689 227.268 
L 190.947763 224.6232 
L 191.042904 221.9784 
L 189.508587 219.3336 
L 189.066207 219.020877 
L 186.04053 217.141508 
L 185.558454 216.6888 
L 183.014854 214.48655 
L 182.66708 214.044 
L 180.355446 211.3992 
L 179.989178 211.139815 
L 176.963502 209.370608 
L 175.436538 208.7544 
L 173.937826 208.094668 
L 170.91215 206.850481 
L 168.85031 206.1096 
L 167.886474 205.722372 
L 164.860798 204.650933 
L 161.835122 203.667683 
L 161.357816 203.4648 
L 158.809445 202.154345 
L 155.783769 201.051028 
L 154.65173 200.82 
L 152.758093 200.212277 
L 149.732417 199.944917 
L 146.706741 199.593646 
L 143.681065 198.86457 
L 140.655389 198.222365 
L 140.451805 198.1752 
L 137.629713 197.130491 
L 134.604036 196.601854 
L 131.57836 196.404115 
L 128.552684 195.989822 
L 126.30837 195.5304 
L 126.30837 192.8856 
L 125.527008 192.651814 
L 122.501332 191.934459 
L 119.475656 191.764725 
L 116.44998 191.771551 
L 113.424304 191.484189 
L 110.398628 191.423552 
L 107.372951 192.065946 
L 104.808468 192.8856 
L 104.808468 195.5304 
L 104.347275 196.035517 
L 101.321599 195.884267 
L 98.295923 197.433198 
L 97.971774 198.1752 
L 98.295923 198.426373 
L 101.321599 199.864685 
L 102.286115 200.82 
L 104.347275 201.984078 
L 105.478684 203.4648 
L 107.372951 204.993329 
L 109.200566 206.1096 
L 110.398628 206.933736 
L 113.424304 208.434293 
L 114.271299 208.7544 
L 116.44998 209.966898 
L 119.475656 211.20808 
L 119.83949 211.3992 
L 122.501332 213.448773 
L 123.331498 214.044 
L 125.527008 216.178504 
L 125.974309 216.6888 
L 126.993296 219.3336 
L 128.300721 221.9784 
L 128.552684 222.322076 
L 129.897398 224.6232 
L 130.488909 227.268 
L 130.625113 229.9128 
L 130.246182 232.5576 
L 129.81658 235.2024 
L 129.744162 237.8472 
L 129.866995 240.492 
L 130.041118 243.1368 
L 130.855629 245.7816 
L 131.370116 248.4264 
L 131.205241 251.0712 
L 131.285364 253.716 
L 131.546911 256.3608 
L 131.57836 256.502158 
L 131.895797 259.0056 
L 132.148526 261.6504 
L 131.963487 264.2952 
L 131.615007 266.94 
L 131.57836 267.125731 
L 130.872469 269.5848 
L 130.289793 272.2296 
L 130.279892 274.8744 
L 130.475902 277.5192 
L 130.679488 280.164 
L 130.598785 282.8088 
L 129.67325 285.4536 
L 128.552684 287.373681 
L 128.047605 288.0984 
L 127.472672 290.7432 
L 128.552684 293.225751 
L 128.629037 293.388 
L 129.142662 296.0328 
L 129.400435 298.6776 
L 130.377939 301.3224 
L 131.30537 303.9672 
L 131.57836 306.612 
L 131.57836 306.612 
L 131.57836 306.612 
L 131.455781 309.2568 
L 131.57836 309.591701 
L 132.042506 311.9016 
L 132.970219 314.5464 
L 132.856812 317.1912 
L 131.652062 319.836 
L 131.57836 319.984346 
L 129.922849 322.4808 
L 129.679174 325.1256 
L 129.679174 327.7704 
z
M 145.61697 327.7704 
L 145.61697 325.1256 
L 146.008555 322.4808 
L 146.593315 319.836 
L 146.015384 317.1912 
L 144.558215 314.5464 
L 143.751506 311.9016 
L 143.967169 309.2568 
L 144.620892 306.612 
L 144.792537 303.9672 
L 144.131486 301.3224 
L 144.036264 298.6776 
L 144.529648 296.0328 
L 145.166372 293.388 
L 144.916716 290.7432 
L 144.592323 288.0984 
L 145.012214 285.4536 
L 145.547766 282.8088 
L 145.699247 280.164 
L 145.653834 277.5192 
L 145.587508 274.8744 
L 145.241869 272.2296 
L 145.35117 269.5848 
L 145.837608 266.94 
L 145.761559 264.2952 
L 145.068976 261.6504 
L 144.367034 259.0056 
L 143.953984 256.3608 
L 143.786646 253.716 
L 144.506505 251.0712 
L 144.885683 248.4264 
L 144.687436 245.7816 
L 144.492652 243.1368 
L 144.518161 240.492 
L 144.227445 237.8472 
L 143.681065 235.2024 
L 143.681065 235.2024 
L 143.318911 232.5576 
L 143.022695 229.9128 
L 143.024719 227.268 
L 142.603844 224.6232 
L 141.341304 221.9784 
L 140.655389 220.870102 
L 139.607099 219.3336 
L 137.825892 216.6888 
L 137.629713 216.49423 
L 135.016456 214.044 
L 134.604036 213.664844 
L 132.440577 211.3992 
L 131.57836 210.650378 
L 128.552684 208.756968 
L 128.548144 208.7544 
L 125.527008 207.491914 
L 122.501332 206.190025 
L 122.341665 206.1096 
L 119.475656 204.652894 
L 117.303615 203.4648 
L 116.44998 202.050651 
L 113.424304 201.004767 
L 113.064339 200.82 
L 113.424304 200.605375 
L 116.44998 200.234388 
L 119.475656 199.010449 
L 122.501332 198.698881 
L 125.527008 199.441597 
L 128.552684 200.40684 
L 131.250913 200.82 
L 131.57836 200.884744 
L 134.604036 201.011812 
L 137.629713 201.682735 
L 140.655389 202.653506 
L 142.987739 203.4648 
L 143.681065 203.716768 
L 146.706741 204.536661 
L 149.732417 204.749251 
L 152.758093 205.004217 
L 155.334062 206.1096 
L 155.783769 206.355511 
L 158.809445 208.43712 
L 159.420894 208.7544 
L 161.835122 210.027526 
L 164.525187 211.3992 
L 164.860798 211.653164 
L 167.537026 214.044 
L 167.886474 214.480402 
L 170.363634 216.6888 
L 170.91215 217.312988 
L 173.937826 219.133207 
L 174.129535 219.3336 
L 174.956053 221.9784 
L 176.042014 224.6232 
L 176.963502 226.015934 
L 177.722652 227.268 
L 178.559634 229.9128 
L 178.13715 232.5576 
L 177.347457 235.2024 
L 177.252834 237.8472 
L 176.963502 239.748702 
L 176.794855 240.492 
L 175.303914 243.1368 
L 174.356004 245.7816 
L 175.753181 248.4264 
L 176.865592 251.0712 
L 176.613929 253.716 
L 176.214303 256.3608 
L 175.824523 259.0056 
L 175.301295 261.6504 
L 175.366678 264.2952 
L 176.10672 266.94 
L 176.587154 269.5848 
L 175.969736 272.2296 
L 174.802159 274.8744 
L 174.592288 277.5192 
L 175.235395 280.164 
L 175.411238 282.8088 
L 174.752741 285.4536 
L 174.569901 288.0984 
L 175.297301 290.7432 
L 175.058121 293.388 
L 174.577078 296.0328 
L 174.389494 298.6776 
L 174.748296 301.3224 
L 175.027484 303.9672 
L 175.230023 306.612 
L 176.140263 309.2568 
L 176.790057 311.9016 
L 176.778686 314.5464 
L 176.326107 317.1912 
L 176.043367 319.836 
L 176.009954 322.4808 
L 175.933212 325.1256 
L 175.933212 327.7704 
L 173.937826 328.215941 
L 170.91215 328.647301 
L 167.886474 328.840765 
L 164.860798 328.884656 
L 161.835122 328.793992 
L 158.809445 328.654314 
L 155.783769 328.676584 
L 152.758093 328.620305 
L 149.732417 328.30284 
L 146.706741 327.916717 
z
M 83.167543 196.164469 
L 86.193219 197.685025 
L 89.218895 197.053389 
L 91.43872 195.5304 
L 91.43872 192.8856 
L 89.218895 192.239797 
L 86.193219 191.887296 
L 83.167543 192.614696 
L 82.642121 192.8856 
L 82.642121 195.5304 
z
" clip-path="url(#p4db41cc9b0)" style="fill: #ff0000; fill-opacity: 0.333333"/>
    <path d="M 146.706741 327.916717 
L 149.732417 328.30284 
L 152.758093 328.620305 
L 155.783769 328.676584 
L 158.809445 328.654314 
L 161.835122 328.793992 
L 164.860798 328.884656 
L 167.886474 328.840765 
L 170.91215 328.647301 
L 173.937826 328.215941 
L 175.933212 327.7704 
L 175.933212 325.1256 
L 176.009954 322.4808 
L 176.043367 319.836 
L 176.326107 317.1912 
L 176.778686 314.5464 
L 176.790057 311.9016 
L 176.140263 309.2568 
L 175.230023 306.612 
L 175.027484 303.9672 
L 174.748296 301.3224 
L 174.389494 298.6776 
L 174.577078 296.0328 
L 175.058121 293.388 
L 175.297301 290.7432 
L 174.569901 288.0984 
L 174.752741 285.4536 
L 175.411238 282.8088 
L 175.235395 280.164 
L 174.592288 277.5192 
L 174.802159 274.8744 
L 175.969736 272.2296 
L 176.587154 269.5848 
L 176.10672 266.94 
L 175.366678 264.2952 
L 175.301295 261.6504 
L 175.824523 259.0056 
L 176.214303 256.3608 
L 176.613929 253.716 
L 176.865592 251.0712 
L 175.753181 248.4264 
L 174.356004 245.7816 
L 175.303914 243.1368 
L 176.794855 240.492 
L 176.963502 239.748702 
L 177.252834 237.8472 
L 177.347457 235.2024 
L 178.13715 232.5576 
L 178.559634 229.9128 
L 177.722652 227.268 
L 176.963502 226.015934 
L 176.042014 224.6232 
L 174.956053 221.9784 
L 174.129535 219.3336 
L 173.937826 219.133207 
L 170.91215 217.312988 
L 170.363634 216.6888 
L 167.886474 214.480402 
L 167.537026 214.044 
L 164.860798 211.653164 
L 164.525187 211.3992 
L 161.835122 210.027526 
L 159.420894 208.7544 
L 158.809445 208.43712 
L 155.783769 206.355511 
L 155.334062 206.1096 
L 152.758093 205.004217 
L 149.732417 204.749251 
L 146.706741 204.536661 
L 143.681065 203.716768 
L 142.987739 203.4648 
L 140.655389 202.653506 
L 137.629713 201.682735 
L 134.604036 201.011812 
L 131.57836 200.884744 
L 131.250913 200.82 
L 128.552684 200.40684 
L 125.527008 199.441597 
L 122.501332 198.698881 
L 119.475656 199.010449 
L 116.44998 200.234388 
L 113.424304 200.605375 
L 113.064339 200.82 
L 113.424304 201.004767 
L 116.44998 202.050651 
L 117.303615 203.4648 
L 119.475656 204.652894 
L 122.341665 206.1096 
L 122.501332 206.190025 
L 125.527008 207.491914 
L 128.548144 208.7544 
L 128.552684 208.756968 
L 131.57836 210.650378 
L 132.440577 211.3992 
L 134.604036 213.664844 
L 135.016456 214.044 
L 137.629713 216.49423 
L 137.825892 216.6888 
L 139.607099 219.3336 
L 140.655389 220.870102 
L 141.341304 221.9784 
L 142.603844 224.6232 
L 143.024719 227.268 
L 143.022695 229.9128 
L 143.318911 232.5576 
L 143.681065 235.2024 
L 143.681065 235.2024 
L 144.227445 237.8472 
L 144.518161 240.492 
L 144.492652 243.1368 
L 144.687436 245.7816 
L 144.885683 248.4264 
L 144.506505 251.0712 
L 143.786646 253.716 
L 143.953984 256.3608 
L 144.367034 259.0056 
L 145.068976 261.6504 
L 145.761559 264.2952 
L 145.837608 266.94 
L 145.35117 269.5848 
L 145.241869 272.2296 
L 145.587508 274.8744 
L 145.653834 277.5192 
L 145.699247 280.164 
L 145.547766 282.8088 
L 145.012214 285.4536 
L 144.592323 288.0984 
L 144.916716 290.7432 
L 145.166372 293.388 
L 144.529648 296.0328 
L 144.036264 298.6776 
L 144.131486 301.3224 
L 144.792537 303.9672 
L 144.620892 306.612 
L 143.967169 309.2568 
L 143.751506 311.9016 
L 144.558215 314.5464 
L 146.015384 317.1912 
L 146.593315 319.836 
L 146.008555 322.4808 
L 145.61697 325.1256 
L 145.61697 327.7704 
z
" clip-path="url(#p4db41cc9b0)" style="fill: #ff0000"/>
   </g>
   <g id="matplotlib.axis_5">
    <g id="xtick_5">
     <g id="line2d_6">
      <g>
       <use xlink:href="#m3b741c2e0e" x="104.48537" y="326.448" style="stroke: #000000; stroke-width: 0.8"/>
      </g>
     </g>
     <g id="text_2">
      <!-- 0.24 -->
      <g transform="translate(98.564456 354.565081) rotate(-45) scale(0.1 -0.1)">
       <use xlink:href="#DejaVuSans-30"/>
       <use xlink:href="#DejaVuSans-2e" x="63.623047"/>
       <use xlink:href="#DejaVuSans-32" x="95.410156"/>
       <use xlink:href="#DejaVuSans-34" x="159.033203"/>
      </g>
     </g>
    </g>
    <g id="xtick_6">
     <g id="line2d_7">
      <g>
       <use xlink:href="#m3b741c2e0e" x="140.055909" y="326.448" style="stroke: #000000; stroke-width: 0.8"/>
      </g>
     </g>
     <g id="text_3">
      <!-- 0.28 -->
      <g transform="translate(134.134995 354.565081) rotate(-45) scale(0.1 -0.1)">
       <use xlink:href="#DejaVuSans-30"/>
       <use xlink:href="#DejaVuSans-2e" x="63.623047"/>
       <use xlink:href="#DejaVuSans-32" x="95.410156"/>
       <use xlink:href="#DejaVuSans-38" x="159.033203"/>
      </g>
     </g>
    </g>
    <g id="xtick_7">
     <g id="line2d_8">
      <g>
       <use xlink:href="#m3b741c2e0e" x="175.626449" y="326.448" style="stroke: #000000; stroke-width: 0.8"/>
      </g>
     </g>
     <g id="text_4">
      <!-- 0.32 -->
      <g transform="translate(169.705534 354.565081) rotate(-45) scale(0.1 -0.1)">
       <use xlink:href="#DejaVuSans-30"/>
       <use xlink:href="#DejaVuSans-2e" x="63.623047"/>
       <use xlink:href="#DejaVuSans-33" x="95.410156"/>
       <use xlink:href="#DejaVuSans-32" x="159.033203"/>
      </g>
     </g>
    </g>
    <g id="xtick_8">
     <g id="line2d_9">
      <g>
       <use xlink:href="#m3b741c2e0e" x="211.196988" y="326.448" style="stroke: #000000; stroke-width: 0.8"/>
      </g>
     </g>
     <g id="text_5">
      <!-- 0.36 -->
      <g transform="translate(205.276073 354.565081) rotate(-45) scale(0.1 -0.1)">
       <defs>
        <path id="DejaVuSans-36" d="M 2113 2584 
Q 1688 2584 1439 2293 
Q 1191 2003 1191 1497 
Q 1191 994 1439 701 
Q 1688 409 2113 409 
Q 2538 409 2786 701 
Q 3034 994 3034 1497 
Q 3034 2003 2786 2293 
Q 2538 2584 2113 2584 
z
M 3366 4563 
L 3366 3988 
Q 3128 4100 2886 4159 
Q 2644 4219 2406 4219 
Q 1781 4219 1451 3797 
Q 1122 3375 1075 2522 
Q 1259 2794 1537 2939 
Q 1816 3084 2150 3084 
Q 2853 3084 3261 2657 
Q 3669 2231 3669 1497 
Q 3669 778 3244 343 
Q 2819 -91 2113 -91 
Q 1303 -91 875 529 
Q 447 1150 447 2328 
Q 447 3434 972 4092 
Q 1497 4750 2381 4750 
Q 2619 4750 2861 4703 
Q 3103 4656 3366 4563 
z
" transform="scale(0.015625)"/>
       </defs>
       <use xlink:href="#DejaVuSans-30"/>
       <use xlink:href="#DejaVuSans-2e" x="63.623047"/>
       <use xlink:href="#DejaVuSans-33" x="95.410156"/>
       <use xlink:href="#DejaVuSans-36" x="159.033203"/>
      </g>
     </g>
    </g>
    <g id="text_6">
     <!-- $\Omega_{2,0}$ -->
     <g transform="translate(134.893903 373.52) scale(0.1 -0.1)">
      <use xlink:href="#DejaVuSans-3a9" transform="translate(0 0.21875)"/>
      <use xlink:href="#DejaVuSans-32" transform="translate(77.373047 -16.1875) scale(0.7)"/>
      <use xlink:href="#DejaVuSans-2c" transform="translate(121.90918 -16.1875) scale(0.7)"/>
      <use xlink:href="#DejaVuSans-30" transform="translate(157.797852 -16.1875) scale(0.7)"/>
     </g>
    </g>
   </g>
   <g id="matplotlib.axis_6">
    <g id="ytick_1">
     <g id="line2d_10">
      <defs>
       <path id="m18145d1e6c" d="M 0 0 
L -3.5 0 
" style="stroke: #000000; stroke-width: 0.8"/>
      </defs>
      <g>
       <use xlink:href="#m18145d1e6c" x="69.552" y="292.836601" style="stroke: #000000; stroke-width: 0.8"/>
      </g>
     </g>
     <g id="text_7">
      <!-- −8 -->
      <g transform="translate(50.657138 304.83459) rotate(-45) scale(0.1 -0.1)">
       <use xlink:href="#DejaVuSans-2212"/>
       <use xlink:href="#DejaVuSans-38" x="83.789062"/>
      </g>
     </g>
    </g>
    <g id="ytick_2">
     <g id="line2d_11">
      <g>
       <use xlink:href="#m18145d1e6c" x="69.552" y="259.222937" style="stroke: #000000; stroke-width: 0.8"/>
      </g>
     </g>
     <g id="text_8">
      <!-- −6 -->
      <g transform="translate(50.657138 271.220925) rotate(-45) scale(0.1 -0.1)">
       <use xlink:href="#DejaVuSans-2212"/>
       <use xlink:href="#DejaVuSans-36" x="83.789062"/>
      </g>
     </g>
    </g>
    <g id="ytick_3">
     <g id="line2d_12">
      <g>
       <use xlink:href="#m18145d1e6c" x="69.552" y="225.609272" style="stroke: #000000; stroke-width: 0.8"/>
      </g>
     </g>
     <g id="text_9">
      <!-- −4 -->
      <g transform="translate(50.657138 237.607261) rotate(-45) scale(0.1 -0.1)">
       <use xlink:href="#DejaVuSans-2212"/>
       <use xlink:href="#DejaVuSans-34" x="83.789062"/>
      </g>
     </g>
    </g>
    <g id="text_10">
     <!-- $\log_{10}(\kappa C_1/$Gyr${}^{-1})$ -->
     <g transform="translate(22.066858 302.028) rotate(-90) scale(0.1 -0.1)">
      <defs>
       <path id="DejaVuSans-6c" d="M 603 4863 
L 1178 4863 
L 1178 0 
L 603 0 
L 603 4863 
z
" transform="scale(0.015625)"/>
       <path id="DejaVuSans-6f" d="M 1959 3097 
Q 1497 3097 1228 2736 
Q 959 2375 959 1747 
Q 959 1119 1226 758 
Q 1494 397 1959 397 
Q 2419 397 2687 759 
Q 2956 1122 2956 1747 
Q 2956 2369 2687 2733 
Q 2419 3097 1959 3097 
z
M 1959 3584 
Q 2709 3584 3137 3096 
Q 3566 2609 3566 1747 
Q 3566 888 3137 398 
Q 2709 -91 1959 -91 
Q 1206 -91 779 398 
Q 353 888 353 1747 
Q 353 2609 779 3096 
Q 1206 3584 1959 3584 
z
" transform="scale(0.015625)"/>
       <path id="DejaVuSans-67" d="M 2906 1791 
Q 2906 2416 2648 2759 
Q 2391 3103 1925 3103 
Q 1463 3103 1205 2759 
Q 947 2416 947 1791 
Q 947 1169 1205 825 
Q 1463 481 1925 481 
Q 2391 481 2648 825 
Q 2906 1169 2906 1791 
z
M 3481 434 
Q 3481 -459 3084 -895 
Q 2688 -1331 1869 -1331 
Q 1566 -1331 1297 -1286 
Q 1028 -1241 775 -1147 
L 775 -588 
Q 1028 -725 1275 -790 
Q 1522 -856 1778 -856 
Q 2344 -856 2625 -561 
Q 2906 -266 2906 331 
L 2906 616 
Q 2728 306 2450 153 
Q 2172 0 1784 0 
Q 1141 0 747 490 
Q 353 981 353 1791 
Q 353 2603 747 3093 
Q 1141 3584 1784 3584 
Q 2172 3584 2450 3431 
Q 2728 3278 2906 2969 
L 2906 3500 
L 3481 3500 
L 3481 434 
z
" transform="scale(0.015625)"/>
       <path id="DejaVuSans-28" d="M 1984 4856 
Q 1566 4138 1362 3434 
Q 1159 2731 1159 2009 
Q 1159 1288 1364 580 
Q 1569 -128 1984 -844 
L 1484 -844 
Q 1016 -109 783 600 
Q 550 1309 550 2009 
Q 550 2706 781 3412 
Q 1013 4119 1484 4856 
L 1984 4856 
z
" transform="scale(0.015625)"/>
       <path id="DejaVuSans-Oblique-3ba" d="M 938 3500 
L 1531 3500 
L 1247 2047 
L 3041 3500 
L 3741 3500 
L 2106 2181 
L 3275 0 
L 2572 0 
L 1628 1806 
L 1122 1403 
L 850 0 
L 256 0 
L 938 3500 
z
" transform="scale(0.015625)"/>
       <path id="DejaVuSans-Oblique-43" d="M 4447 4306 
L 4319 3641 
Q 4019 3944 3683 4091 
Q 3347 4238 2956 4238 
Q 2422 4238 2017 3981 
Q 1613 3725 1319 3200 
Q 1131 2863 1032 2486 
Q 934 2109 934 1728 
Q 934 1091 1264 756 
Q 1594 422 2222 422 
Q 2656 422 3056 561 
Q 3456 700 3834 978 
L 3688 231 
Q 3316 72 2936 -9 
Q 2556 -91 2175 -91 
Q 1278 -91 773 396 
Q 269 884 269 1753 
Q 269 2309 461 2846 
Q 653 3384 1013 3828 
Q 1394 4300 1883 4525 
Q 2372 4750 3022 4750 
Q 3422 4750 3780 4639 
Q 4138 4528 4447 4306 
z
" transform="scale(0.015625)"/>
       <path id="DejaVuSans-2f" d="M 1625 4666 
L 2156 4666 
L 531 -594 
L 0 -594 
L 1625 4666 
z
" transform="scale(0.015625)"/>
       <path id="DejaVuSans-47" d="M 3809 666 
L 3809 1919 
L 2778 1919 
L 2778 2438 
L 4434 2438 
L 4434 434 
Q 4069 175 3628 42 
Q 3188 -91 2688 -91 
Q 1594 -91 976 548 
Q 359 1188 359 2328 
Q 359 3472 976 4111 
Q 1594 4750 2688 4750 
Q 3144 4750 3555 4637 
Q 3966 4525 4313 4306 
L 4313 3634 
Q 3963 3931 3569 4081 
Q 3175 4231 2741 4231 
Q 1884 4231 1454 3753 
Q 1025 3275 1025 2328 
Q 1025 1384 1454 906 
Q 1884 428 2741 428 
Q 3075 428 3337 486 
Q 3600 544 3809 666 
z
" transform="scale(0.015625)"/>
       <path id="DejaVuSans-79" d="M 2059 -325 
Q 1816 -950 1584 -1140 
Q 1353 -1331 966 -1331 
L 506 -1331 
L 506 -850 
L 844 -850 
Q 1081 -850 1212 -737 
Q 1344 -625 1503 -206 
L 1606 56 
L 191 3500 
L 800 3500 
L 1894 763 
L 2988 3500 
L 3597 3500 
L 2059 -325 
z
" transform="scale(0.015625)"/>
       <path id="DejaVuSans-72" d="M 2631 2963 
Q 2534 3019 2420 3045 
Q 2306 3072 2169 3072 
Q 1681 3072 1420 2755 
Q 1159 2438 1159 1844 
L 1159 0 
L 581 0 
L 581 3500 
L 1159 3500 
L 1159 2956 
Q 1341 3275 1631 3429 
Q 1922 3584 2338 3584 
Q 2397 3584 2469 3576 
Q 2541 3569 2628 3553 
L 2631 2963 
z
" transform="scale(0.015625)"/>
       <path id="DejaVuSans-29" d="M 513 4856 
L 1013 4856 
Q 1481 4119 1714 3412 
Q 1947 2706 1947 2009 
Q 1947 1309 1714 600 
Q 1481 -109 1013 -844 
L 513 -844 
Q 928 -128 1133 580 
Q 1338 1288 1338 2009 
Q 1338 2731 1133 3434 
Q 928 4138 513 4856 
z
" transform="scale(0.015625)"/>
      </defs>
      <use xlink:href="#DejaVuSans-6c" transform="translate(0 0.684375)"/>
      <use xlink:href="#DejaVuSans-6f" transform="translate(27.783203 0.684375)"/>
      <use xlink:href="#DejaVuSans-67" transform="translate(88.964844 0.684375)"/>
      <use xlink:href="#DejaVuSans-31" transform="translate(153.398438 -15.721875) scale(0.7)"/>
      <use xlink:href="#DejaVuSans-30" transform="translate(197.93457 -15.721875) scale(0.7)"/>
      <use xlink:href="#DejaVuSans-28" transform="translate(261.440754 0.684375)"/>
      <use xlink:href="#DejaVuSans-Oblique-3ba" transform="translate(300.454426 0.684375)"/>
      <use xlink:href="#DejaVuSans-Oblique-43" transform="translate(359.389973 0.684375)"/>
      <use xlink:href="#DejaVuSans-31" transform="translate(429.214192 -15.721875) scale(0.7)"/>
      <use xlink:href="#DejaVuSans-2f" transform="translate(476.4847 0.684375)"/>
      <use xlink:href="#DejaVuSans-47" transform="translate(510.176106 0.684375)"/>
      <use xlink:href="#DejaVuSans-79" transform="translate(587.66634 0.684375)"/>
      <use xlink:href="#DejaVuSans-72" transform="translate(646.846028 0.684375)"/>
      <use xlink:href="#DejaVuSans-2212" transform="translate(688.91634 38.965625) scale(0.7)"/>
      <use xlink:href="#DejaVuSans-31" transform="translate(747.568684 38.965625) scale(0.7)"/>
      <use xlink:href="#DejaVuSans-29" transform="translate(794.839192 0.684375)"/>
     </g>
    </g>
   </g>
   <g id="QuadContourSet_3">
    <path d="M 131.57836 328.360408 
L 134.604036 329.016477 
L 137.629713 329.320083 
L 140.655389 329.571515 
L 143.681065 329.763756 
L 146.706741 329.863818 
L 149.732417 329.94903 
L 152.758093 330.01909 
L 155.783769 330.03151 
L 158.809445 330.026595 
L 161.835122 330.057421 
L 164.860798 330.077429 
L 167.886474 330.067743 
L 170.91215 330.025048 
L 173.937826 329.929852 
L 176.963502 329.763341 
L 179.989178 329.537676 
L 183.014854 329.336252 
L 186.04053 329.114788 
L 189.066207 328.739247 
L 191.747187 327.7704 
L 191.747187 325.1256 
L 191.805753 322.4808 
L 192.091883 321.718333 
L 192.895059 319.836 
L 193.419976 317.1912 
L 192.197944 314.5464 
L 192.091883 314.351966 
L 190.670532 311.9016 
L 190.752813 309.2568 
L 190.985008 306.612 
L 191.355719 303.9672 
L 191.828063 301.3224 
L 191.709438 298.6776 
L 191.443102 296.0328 
L 191.402379 293.388 
L 191.608231 290.7432 
L 192.010543 288.0984 
L 192.030311 285.4536 
L 191.975427 282.8088 
L 192.091883 281.565593 
L 192.297735 280.164 
L 192.091883 277.889156 
L 192.071768 277.5192 
L 192.091883 277.305063 
L 192.41402 274.8744 
L 193.46081 272.2296 
L 193.805386 269.5848 
L 193.383925 266.94 
L 192.99708 264.2952 
L 193.041692 261.6504 
L 193.489172 259.0056 
L 193.798286 256.3608 
L 192.704846 253.716 
L 192.091883 252.862449 
L 191.112431 251.0712 
L 190.582211 248.4264 
L 190.546255 245.7816 
L 190.636853 243.1368 
L 191.025936 240.492 
L 191.167494 237.8472 
L 190.950768 235.2024 
L 191.214006 232.5576 
L 191.621808 229.9128 
L 191.330689 227.268 
L 190.947763 224.6232 
L 191.042904 221.9784 
L 189.508587 219.3336 
L 189.066207 219.020877 
L 186.04053 217.141508 
L 185.558454 216.6888 
L 183.014854 214.48655 
L 182.66708 214.044 
L 180.355446 211.3992 
L 179.989178 211.139815 
L 176.963502 209.370608 
L 175.436538 208.7544 
L 173.937826 208.094668 
L 170.91215 206.850481 
L 168.85031 206.1096 
L 167.886474 205.722372 
L 164.860798 204.650933 
L 161.835122 203.667683 
L 161.357816 203.4648 
L 158.809445 202.154345 
L 155.783769 201.051028 
L 154.65173 200.82 
L 152.758093 200.212277 
L 149.732417 199.944917 
L 146.706741 199.593646 
L 143.681065 198.86457 
L 140.655389 198.222365 
L 140.451805 198.1752 
L 137.629713 197.130491 
L 134.604036 196.601854 
L 131.57836 196.404115 
L 128.552684 195.989822 
L 126.30837 195.5304 
L 126.30837 192.8856 
L 125.527008 192.651814 
L 122.501332 191.934459 
L 119.475656 191.764725 
L 116.44998 191.771551 
L 113.424304 191.484189 
L 110.398628 191.423552 
L 107.372951 192.065946 
L 104.808468 192.8856 
L 104.808468 195.5304 
L 104.347275 196.035517 
L 101.321599 195.884267 
L 98.295923 197.433198 
L 97.971774 198.1752 
L 98.295923 198.426373 
L 101.321599 199.864685 
L 102.286115 200.82 
L 104.347275 201.984078 
L 105.478684 203.4648 
L 107.372951 204.993329 
L 109.200566 206.1096 
L 110.398628 206.933736 
L 113.424304 208.434293 
L 114.271299 208.7544 
L 116.44998 209.966898 
L 119.475656 211.20808 
L 119.83949 211.3992 
L 122.501332 213.448773 
L 123.331498 214.044 
L 125.527008 216.178504 
L 125.974309 216.6888 
L 126.993296 219.3336 
L 128.300721 221.9784 
L 128.552684 222.322076 
L 129.897398 224.6232 
L 130.488909 227.268 
L 130.625113 229.9128 
L 130.246182 232.5576 
L 129.81658 235.2024 
L 129.744162 237.8472 
L 129.866995 240.492 
L 130.041118 243.1368 
L 130.855629 245.7816 
L 131.370116 248.4264 
L 131.205241 251.0712 
L 131.285364 253.716 
L 131.546911 256.3608 
L 131.57836 256.502158 
L 131.895797 259.0056 
L 132.148526 261.6504 
L 131.963487 264.2952 
L 131.615007 266.94 
L 131.57836 267.125731 
L 130.872469 269.5848 
L 130.289793 272.2296 
L 130.279892 274.8744 
L 130.475902 277.5192 
L 130.679488 280.164 
L 130.598785 282.8088 
L 129.67325 285.4536 
L 128.552684 287.373681 
L 128.047605 288.0984 
L 127.472672 290.7432 
L 128.552684 293.225751 
L 128.629037 293.388 
L 129.142662 296.0328 
L 129.400435 298.6776 
L 130.377939 301.3224 
L 131.30537 303.9672 
L 131.57836 306.612 
L 131.57836 306.612 
L 131.57836 306.612 
L 131.455781 309.2568 
L 131.57836 309.591701 
L 132.042506 311.9016 
L 132.970219 314.5464 
L 132.856812 317.1912 
L 131.652062 319.836 
L 131.57836 319.984346 
L 129.922849 322.4808 
L 129.679174 325.1256 
L 129.679174 327.7704 
L 131.57836 328.360408 
z
M 83.167543 196.164469 
L 86.193219 197.685025 
L 89.218895 197.053389 
L 91.43872 195.5304 
L 91.43872 192.8856 
L 89.218895 192.239797 
L 86.193219 191.887296 
L 83.167543 192.614696 
L 82.642121 192.8856 
L 82.642121 195.5304 
L 83.167543 196.164469 
z
" clip-path="url(#p4db41cc9b0)" style="fill: none; stroke: #ff0000; stroke-width: 1.5"/>
    <path d="M 146.706741 327.916717 
L 149.732417 328.30284 
L 152.758093 328.620305 
L 155.783769 328.676584 
L 158.809445 328.654314 
L 161.835122 328.793992 
L 164.860798 328.884656 
L 167.886474 328.840765 
L 170.91215 328.647301 
L 173.937826 328.215941 
L 175.933212 327.7704 
L 175.933212 325.1256 
L 176.009954 322.4808 
L 176.043367 319.836 
L 176.326107 317.1912 
L 176.778686 314.5464 
L 176.790057 311.9016 
L 176.140263 309.2568 
L 175.230023 306.612 
L 175.027484 303.9672 
L 174.748296 301.3224 
L 174.389494 298.6776 
L 174.577078 296.0328 
L 175.058121 293.388 
L 175.297301 290.7432 
L 174.569901 288.0984 
L 174.752741 285.4536 
L 175.411238 282.8088 
L 175.235395 280.164 
L 174.592288 277.5192 
L 174.802159 274.8744 
L 175.969736 272.2296 
L 176.587154 269.5848 
L 176.10672 266.94 
L 175.366678 264.2952 
L 175.301295 261.6504 
L 175.824523 259.0056 
L 176.214303 256.3608 
L 176.613929 253.716 
L 176.865592 251.0712 
L 175.753181 248.4264 
L 174.356004 245.7816 
L 175.303914 243.1368 
L 176.794855 240.492 
L 176.963502 239.748702 
L 177.252834 237.8472 
L 177.347457 235.2024 
L 178.13715 232.5576 
L 178.559634 229.9128 
L 177.722652 227.268 
L 176.963502 226.015934 
L 176.042014 224.6232 
L 174.956053 221.9784 
L 174.129535 219.3336 
L 173.937826 219.133207 
L 170.91215 217.312988 
L 170.363634 216.6888 
L 167.886474 214.480402 
L 167.537026 214.044 
L 164.860798 211.653164 
L 164.525187 211.3992 
L 161.835122 210.027526 
L 159.420894 208.7544 
L 158.809445 208.43712 
L 155.783769 206.355511 
L 155.334062 206.1096 
L 152.758093 205.004217 
L 149.732417 204.749251 
L 146.706741 204.536661 
L 143.681065 203.716768 
L 142.987739 203.4648 
L 140.655389 202.653506 
L 137.629713 201.682735 
L 134.604036 201.011812 
L 131.57836 200.884744 
L 131.250913 200.82 
L 128.552684 200.40684 
L 125.527008 199.441597 
L 122.501332 198.698881 
L 119.475656 199.010449 
L 116.44998 200.234388 
L 113.424304 200.605375 
L 113.064339 200.82 
L 113.424304 201.004767 
L 116.44998 202.050651 
L 117.303615 203.4648 
L 119.475656 204.652894 
L 122.341665 206.1096 
L 122.501332 206.190025 
L 125.527008 207.491914 
L 128.548144 208.7544 
L 128.552684 208.756968 
L 131.57836 210.650378 
L 132.440577 211.3992 
L 134.604036 213.664844 
L 135.016456 214.044 
L 137.629713 216.49423 
L 137.825892 216.6888 
L 139.607099 219.3336 
L 140.655389 220.870102 
L 141.341304 221.9784 
L 142.603844 224.6232 
L 143.024719 227.268 
L 143.022695 229.9128 
L 143.318911 232.5576 
L 143.681065 235.2024 
L 143.681065 235.2024 
L 144.227445 237.8472 
L 144.518161 240.492 
L 144.492652 243.1368 
L 144.687436 245.7816 
L 144.885683 248.4264 
L 144.506505 251.0712 
L 143.786646 253.716 
L 143.953984 256.3608 
L 144.367034 259.0056 
L 145.068976 261.6504 
L 145.761559 264.2952 
L 145.837608 266.94 
L 145.35117 269.5848 
L 145.241869 272.2296 
L 145.587508 274.8744 
L 145.653834 277.5192 
L 145.699247 280.164 
L 145.547766 282.8088 
L 145.012214 285.4536 
L 144.592323 288.0984 
L 144.916716 290.7432 
L 145.166372 293.388 
L 144.529648 296.0328 
L 144.036264 298.6776 
L 144.131486 301.3224 
L 144.792537 303.9672 
L 144.620892 306.612 
L 143.967169 309.2568 
L 143.751506 311.9016 
L 144.558215 314.5464 
L 146.015384 317.1912 
L 146.593315 319.836 
L 146.008555 322.4808 
L 145.61697 325.1256 
L 145.61697 327.7704 
L 146.706741 327.916717 
z
" clip-path="url(#p4db41cc9b0)" style="fill: none; stroke: #ff0000; stroke-width: 1.5"/>
   </g>
   <g id="patch_8">
    <path d="M 69.552 326.448 
L 69.552 194.208 
" style="fill: none; stroke: #000000; stroke-width: 0.8; stroke-linejoin: miter; stroke-linecap: square"/>
   </g>
   <g id="patch_9">
    <path d="M 220.835806 326.448 
L 220.835806 194.208 
" style="fill: none; stroke: #000000; stroke-width: 0.8; stroke-linejoin: miter; stroke-linecap: square"/>
   </g>
   <g id="patch_10">
    <path d="M 69.552 326.448 
L 220.835806 326.448 
" style="fill: none; stroke: #000000; stroke-width: 0.8; stroke-linejoin: miter; stroke-linecap: square"/>
   </g>
   <g id="patch_11">
    <path d="M 69.552 194.208 
L 220.835806 194.208 
" style="fill: none; stroke: #000000; stroke-width: 0.8; stroke-linejoin: miter; stroke-linecap: square"/>
   </g>
  </g>
  <g id="axes_4">
   <g id="patch_12">
    <path d="M 233.916194 326.448 
L 385.2 326.448 
L 385.2 194.208 
L 233.916194 194.208 
z
" style="fill: #ffffff"/>
   </g>
   <g id="matplotlib.axis_7">
    <g id="xtick_9">
     <g id="line2d_13">
      <g>
       <use xlink:href="#m3b741c2e0e" x="272.367951" y="326.448" style="stroke: #000000; stroke-width: 0.8"/>
      </g>
     </g>
     <g id="text_11">
      <!-- −8 -->
      <g transform="translate(269.106974 349.245207) rotate(-45) scale(0.1 -0.1)">
       <use xlink:href="#DejaVuSans-2212"/>
       <use xlink:href="#DejaVuSans-38" x="83.789062"/>
      </g>
     </g>
    </g>
    <g id="xtick_10">
     <g id="line2d_14">
      <g>
       <use xlink:href="#m3b741c2e0e" x="310.8223" y="326.448" style="stroke: #000000; stroke-width: 0.8"/>
      </g>
     </g>
     <g id="text_12">
      <!-- −6 -->
      <g transform="translate(307.561322 349.245207) rotate(-45) scale(0.1 -0.1)">
       <use xlink:href="#DejaVuSans-2212"/>
       <use xlink:href="#DejaVuSans-36" x="83.789062"/>
      </g>
     </g>
    </g>
    <g id="xtick_11">
     <g id="line2d_15">
      <g>
       <use xlink:href="#m3b741c2e0e" x="349.276649" y="326.448" style="stroke: #000000; stroke-width: 0.8"/>
      </g>
     </g>
     <g id="text_13">
      <!-- −4 -->
      <g transform="translate(346.015671 349.245207) rotate(-45) scale(0.1 -0.1)">
       <use xlink:href="#DejaVuSans-2212"/>
       <use xlink:href="#DejaVuSans-34" x="83.789062"/>
      </g>
     </g>
    </g>
    <g id="text_14">
     <!-- $\log_{10}(\kappa C_1/$Gyr${}^{-1})$ -->
     <g transform="translate(267.858097 375.12) scale(0.1 -0.1)">
      <use xlink:href="#DejaVuSans-6c" transform="translate(0 0.684375)"/>
      <use xlink:href="#DejaVuSans-6f" transform="translate(27.783203 0.684375)"/>
      <use xlink:href="#DejaVuSans-67" transform="translate(88.964844 0.684375)"/>
      <use xlink:href="#DejaVuSans-31" transform="translate(153.398438 -15.721875) scale(0.7)"/>
      <use xlink:href="#DejaVuSans-30" transform="translate(197.93457 -15.721875) scale(0.7)"/>
      <use xlink:href="#DejaVuSans-28" transform="translate(261.440754 0.684375)"/>
      <use xlink:href="#DejaVuSans-Oblique-3ba" transform="translate(300.454426 0.684375)"/>
      <use xlink:href="#DejaVuSans-Oblique-43" transform="translate(359.389973 0.684375)"/>
      <use xlink:href="#DejaVuSans-31" transform="translate(429.214192 -15.721875) scale(0.7)"/>
      <use xlink:href="#DejaVuSans-2f" transform="translate(476.4847 0.684375)"/>
      <use xlink:href="#DejaVuSans-47" transform="translate(510.176106 0.684375)"/>
      <use xlink:href="#DejaVuSans-79" transform="translate(587.66634 0.684375)"/>
      <use xlink:href="#DejaVuSans-72" transform="translate(646.846028 0.684375)"/>
      <use xlink:href="#DejaVuSans-2212" transform="translate(688.91634 38.965625) scale(0.7)"/>
      <use xlink:href="#DejaVuSans-31" transform="translate(747.568684 38.965625) scale(0.7)"/>
      <use xlink:href="#DejaVuSans-29" transform="translate(794.839192 0.684375)"/>
     </g>
    </g>
   </g>
   <g id="matplotlib.axis_8"/>
   <g id="line2d_16">
    <path d="M 233.916194 217.500273 
L 234.672613 217.500273 
L 234.672613 217.969875 
L 235.429032 217.969875 
L 235.429032 218.439477 
L 236.185451 218.439477 
L 236.185451 218.90908 
L 236.94187 218.90908 
L 236.94187 219.378682 
L 237.698289 219.378682 
L 237.698289 219.613483 
L 238.454708 219.613483 
L 238.454708 219.848284 
L 239.211127 219.848284 
L 239.211127 219.613483 
L 239.967546 219.613483 
L 239.967546 219.378682 
L 240.723966 219.378682 
L 240.723966 219.143881 
L 241.480385 219.143881 
L 241.480385 218.90908 
L 242.236804 218.90908 
L 242.236804 218.674278 
L 242.993223 218.674278 
L 242.993223 218.439477 
L 243.749642 218.439477 
L 243.749642 218.204676 
L 246.018899 218.204676 
L 246.018899 218.439477 
L 247.531737 218.439477 
L 247.531737 218.674278 
L 248.288156 218.674278 
L 248.288156 218.90908 
L 249.044575 218.90908 
L 249.044575 219.143881 
L 249.800994 219.143881 
L 249.800994 219.378682 
L 250.557413 219.378682 
L 250.557413 219.613483 
L 251.313832 219.613483 
L 251.313832 219.848284 
L 252.070251 219.848284 
L 252.070251 220.083085 
L 253.583089 220.083085 
L 253.583089 220.317886 
L 254.339508 220.317886 
L 254.339508 220.552688 
L 255.095927 220.552688 
L 255.095927 220.787489 
L 255.852346 220.787489 
L 255.852346 221.02229 
L 256.608765 221.02229 
L 256.608765 221.257091 
L 257.365184 221.257091 
L 257.365184 221.726693 
L 258.121603 221.726693 
L 258.121603 221.961494 
L 258.878022 221.961494 
L 258.878022 222.196295 
L 259.634441 222.196295 
L 259.634441 222.431097 
L 260.39086 222.431097 
L 260.39086 222.665898 
L 261.903698 222.665898 
L 261.903698 222.431097 
L 262.660117 222.431097 
L 262.660117 222.196295 
L 263.416536 222.196295 
L 263.416536 221.961494 
L 264.172955 221.961494 
L 264.172955 221.726693 
L 266.442212 221.726693 
L 266.442212 222.196295 
L 267.198632 222.196295 
L 267.198632 222.665898 
L 267.955051 222.665898 
L 267.955051 223.370301 
L 268.71147 223.370301 
L 268.71147 224.074705 
L 269.467889 224.074705 
L 269.467889 224.544307 
L 270.224308 224.544307 
L 270.224308 224.779108 
L 270.980727 224.779108 
L 270.980727 224.544307 
L 271.737146 224.544307 
L 271.737146 223.839903 
L 272.493565 223.839903 
L 272.493565 223.1355 
L 273.249984 223.1355 
L 273.249984 222.196295 
L 274.006403 222.196295 
L 274.006403 221.02229 
L 274.762822 221.02229 
L 274.762822 220.317886 
L 275.519241 220.317886 
L 275.519241 219.613483 
L 276.27566 219.613483 
L 276.27566 218.90908 
L 277.032079 218.90908 
L 277.032079 218.674278 
L 279.301336 218.674278 
L 279.301336 218.90908 
L 280.057755 218.90908 
L 280.057755 219.143881 
L 280.814174 219.143881 
L 280.814174 219.613483 
L 281.570593 219.613483 
L 281.570593 220.317886 
L 282.327012 220.317886 
L 282.327012 220.787489 
L 283.083431 220.787489 
L 283.083431 221.491892 
L 283.83985 221.491892 
L 283.83985 221.961494 
L 284.596269 221.961494 
L 284.596269 222.431097 
L 285.352688 222.431097 
L 285.352688 222.900699 
L 286.109107 222.900699 
L 286.109107 223.1355 
L 286.865526 223.1355 
L 286.865526 223.370301 
L 289.134783 223.370301 
L 289.134783 223.1355 
L 289.891202 223.1355 
L 289.891202 222.900699 
L 290.647621 222.900699 
L 290.647621 222.431097 
L 291.40404 222.431097 
L 291.40404 221.726693 
L 292.160459 221.726693 
L 292.160459 221.257091 
L 292.916878 221.257091 
L 292.916878 220.552688 
L 293.673298 220.552688 
L 293.673298 219.848284 
L 294.429717 219.848284 
L 294.429717 219.143881 
L 295.186136 219.143881 
L 295.186136 218.674278 
L 295.942555 218.674278 
L 295.942555 218.204676 
L 296.698974 218.204676 
L 296.698974 217.969875 
L 298.968231 217.969875 
L 298.968231 218.204676 
L 299.72465 218.204676 
L 299.72465 218.439477 
L 300.481069 218.439477 
L 300.481069 218.674278 
L 301.237488 218.674278 
L 301.237488 219.143881 
L 301.993907 219.143881 
L 301.993907 219.378682 
L 302.750326 219.378682 
L 302.750326 219.613483 
L 303.506745 219.613483 
L 303.506745 219.848284 
L 304.263164 219.848284 
L 304.263164 220.083085 
L 305.019583 220.083085 
L 305.019583 220.317886 
L 307.28884 220.317886 
L 307.28884 220.083085 
L 308.045259 220.083085 
L 308.045259 219.848284 
L 308.801678 219.848284 
L 308.801678 219.378682 
L 309.558097 219.378682 
L 309.558097 218.674278 
L 310.314516 218.674278 
L 310.314516 217.969875 
L 311.070935 217.969875 
L 311.070935 217.265472 
L 311.827354 217.265472 
L 311.827354 216.561068 
L 312.583773 216.561068 
L 312.583773 215.856665 
L 313.340192 215.856665 
L 313.340192 215.152261 
L 314.096611 215.152261 
L 314.096611 214.682659 
L 314.85303 214.682659 
L 314.85303 214.447858 
L 316.365868 214.447858 
L 316.365868 214.682659 
L 317.122287 214.682659 
L 317.122287 214.91746 
L 317.878706 214.91746 
L 317.878706 215.152261 
L 318.635125 215.152261 
L 318.635125 215.387063 
L 319.391544 215.387063 
L 319.391544 215.856665 
L 320.147964 215.856665 
L 320.147964 216.091466 
L 320.904383 216.091466 
L 320.904383 216.326267 
L 321.660802 216.326267 
L 321.660802 216.561068 
L 322.417221 216.561068 
L 322.417221 216.795869 
L 327.712154 216.795869 
L 327.712154 217.03067 
L 328.468573 217.03067 
L 328.468573 217.265472 
L 329.224992 217.265472 
L 329.224992 217.500273 
L 329.981411 217.500273 
L 329.981411 217.735074 
L 330.73783 217.735074 
L 330.73783 217.969875 
L 331.494249 217.969875 
L 331.494249 218.204676 
L 333.007087 218.204676 
L 333.007087 217.969875 
L 333.763506 217.969875 
L 333.763506 217.735074 
L 334.519925 217.735074 
L 334.519925 217.03067 
L 335.276344 217.03067 
L 335.276344 216.561068 
L 336.032763 216.561068 
L 336.032763 215.856665 
L 336.789182 215.856665 
L 336.789182 215.387063 
L 337.545601 215.387063 
L 337.545601 214.91746 
L 338.30202 214.91746 
L 338.30202 214.447858 
L 339.058439 214.447858 
L 339.058439 213.978256 
L 339.814858 213.978256 
L 339.814858 213.508653 
L 340.571277 213.508653 
L 340.571277 212.80425 
L 341.327696 212.80425 
L 341.327696 211.865045 
L 342.084115 211.865045 
L 342.084115 210.925841 
L 342.840534 210.925841 
L 342.840534 209.986636 
L 343.596953 209.986636 
L 343.596953 209.282233 
L 344.353372 209.282233 
L 344.353372 208.57783 
L 345.109791 208.57783 
L 345.109791 208.108227 
L 347.379049 208.108227 
L 347.379049 208.343028 
L 348.135468 208.343028 
L 348.135468 208.812631 
L 348.891887 208.812631 
L 348.891887 209.282233 
L 349.648306 209.282233 
L 349.648306 209.751835 
L 350.404725 209.751835 
L 350.404725 209.986636 
L 352.673982 209.986636 
L 352.673982 209.517034 
L 353.430401 209.517034 
L 353.430401 209.282233 
L 354.18682 209.282233 
L 354.18682 208.57783 
L 354.943239 208.57783 
L 354.943239 208.108227 
L 355.699658 208.108227 
L 355.699658 207.638625 
L 356.456077 207.638625 
L 356.456077 207.169023 
L 357.212496 207.169023 
L 357.212496 206.934222 
L 357.968915 206.934222 
L 357.968915 206.69942 
L 358.725334 206.69942 
L 358.725334 206.464619 
L 360.238172 206.464619 
L 360.238172 206.229818 
L 361.75101 206.229818 
L 361.75101 206.464619 
L 362.507429 206.464619 
L 362.507429 206.69942 
L 363.263848 206.69942 
L 363.263848 207.403824 
L 364.020267 207.403824 
L 364.020267 208.343028 
L 364.776686 208.343028 
L 364.776686 209.517034 
L 365.533105 209.517034 
L 365.533105 210.69104 
L 366.289524 210.69104 
L 366.289524 212.099847 
L 367.045943 212.099847 
L 367.045943 213.273852 
L 367.802362 213.273852 
L 367.802362 214.447858 
L 368.558781 214.447858 
L 368.558781 215.387063 
L 369.3152 215.387063 
L 369.3152 216.561068 
L 370.071619 216.561068 
L 370.071619 217.500273 
L 370.828038 217.500273 
L 370.828038 218.90908 
L 371.584457 218.90908 
L 371.584457 220.317886 
L 372.340877 220.317886 
L 372.340877 222.196295 
L 373.097296 222.196295 
L 373.097296 224.544307 
L 373.853715 224.544307 
L 373.853715 227.596722 
L 374.610134 227.596722 
L 374.610134 231.118739 
L 375.366553 231.118739 
L 375.366553 235.345159 
L 376.122972 235.345159 
L 376.122972 240.275983 
L 376.879391 240.275983 
L 376.879391 245.91121 
L 377.63581 245.91121 
L 377.63581 252.485642 
L 378.392229 252.485642 
L 378.392229 259.294875 
L 379.148648 259.294875 
L 379.148648 266.57371 
L 379.905067 266.57371 
L 379.905067 273.852545 
L 380.661486 273.852545 
L 380.661486 280.89658 
L 381.417905 280.89658 
L 381.417905 287.471011 
L 382.174324 287.471011 
L 382.174324 293.106239 
L 382.930743 293.106239 
L 382.930743 297.56746 
L 383.687162 297.56746 
L 383.687162 300.619875 
L 384.443581 300.619875 
L 384.443581 302.263483 
L 385.2 302.263483 
L 385.2 302.263483 
" clip-path="url(#p64ab0a70bc)" style="fill: none; stroke: #ff0000; stroke-width: 1.5; stroke-linecap: square"/>
   </g>
   <g id="patch_13">
    <path d="M 233.916194 326.448 
L 233.916194 194.208 
" style="fill: none; stroke: #000000; stroke-width: 0.8; stroke-linejoin: miter; stroke-linecap: square"/>
   </g>
   <g id="patch_14">
    <path d="M 385.2 326.448 
L 385.2 194.208 
" style="fill: none; stroke: #000000; stroke-width: 0.8; stroke-linejoin: miter; stroke-linecap: square"/>
   </g>
   <g id="patch_15">
    <path d="M 233.916194 326.448 
L 385.2 326.448 
" style="fill: none; stroke: #000000; stroke-width: 0.8; stroke-linejoin: miter; stroke-linecap: square"/>
   </g>
   <g id="patch_16">
    <path d="M 233.916194 194.208 
L 385.2 194.208 
" style="fill: none; stroke: #000000; stroke-width: 0.8; stroke-linejoin: miter; stroke-linecap: square"/>
   </g>
   <g id="text_15">
    <!-- $\log_{10}(\kappa C_1/$Gyr${}^{-1})$ = ${-6.0789}_{-2.6807}^{+2.5053}$ -->
    <g transform="translate(188.948097 188.208) scale(0.14 -0.14)">
     <defs>
      <path id="DejaVuSans-37" d="M 525 4666 
L 3525 4666 
L 3525 4397 
L 1831 0 
L 1172 0 
L 2766 4134 
L 525 4134 
L 525 4666 
z
" transform="scale(0.015625)"/>
      <path id="DejaVuSans-39" d="M 703 97 
L 703 672 
Q 941 559 1184 500 
Q 1428 441 1663 441 
Q 2288 441 2617 861 
Q 2947 1281 2994 2138 
Q 2813 1869 2534 1725 
Q 2256 1581 1919 1581 
Q 1219 1581 811 2004 
Q 403 2428 403 3163 
Q 403 3881 828 4315 
Q 1253 4750 1959 4750 
Q 2769 4750 3195 4129 
Q 3622 3509 3622 2328 
Q 3622 1225 3098 567 
Q 2575 -91 1691 -91 
Q 1453 -91 1209 -44 
Q 966 3 703 97 
z
M 1959 2075 
Q 2384 2075 2632 2365 
Q 2881 2656 2881 3163 
Q 2881 3666 2632 3958 
Q 2384 4250 1959 4250 
Q 1534 4250 1286 3958 
Q 1038 3666 1038 3163 
Q 1038 2656 1286 2365 
Q 1534 2075 1959 2075 
z
" transform="scale(0.015625)"/>
      <path id="DejaVuSans-35" d="M 691 4666 
L 3169 4666 
L 3169 4134 
L 1269 4134 
L 1269 2991 
Q 1406 3038 1543 3061 
Q 1681 3084 1819 3084 
Q 2600 3084 3056 2656 
Q 3513 2228 3513 1497 
Q 3513 744 3044 326 
Q 2575 -91 1722 -91 
Q 1428 -91 1123 -41 
Q 819 9 494 109 
L 494 744 
Q 775 591 1075 516 
Q 1375 441 1709 441 
Q 2250 441 2565 725 
Q 2881 1009 2881 1497 
Q 2881 1984 2565 2268 
Q 2250 2553 1709 2553 
Q 1456 2553 1204 2497 
Q 953 2441 691 2322 
L 691 4666 
z
" transform="scale(0.015625)"/>
     </defs>
     <use xlink:href="#DejaVuSans-6c" transform="translate(0 0.765625)"/>
     <use xlink:href="#DejaVuSans-6f" transform="translate(27.783203 0.765625)"/>
     <use xlink:href="#DejaVuSans-67" transform="translate(88.964844 0.765625)"/>
     <use xlink:href="#DejaVuSans-31" transform="translate(153.398438 -15.640625) scale(0.7)"/>
     <use xlink:href="#DejaVuSans-30" transform="translate(197.93457 -15.640625) scale(0.7)"/>
     <use xlink:href="#DejaVuSans-28" transform="translate(261.440754 0.765625)"/>
     <use xlink:href="#DejaVuSans-Oblique-3ba" transform="translate(300.454426 0.765625)"/>
     <use xlink:href="#DejaVuSans-Oblique-43" transform="translate(359.389973 0.765625)"/>
     <use xlink:href="#DejaVuSans-31" transform="translate(429.214192 -15.640625) scale(0.7)"/>
     <use xlink:href="#DejaVuSans-2f" transform="translate(476.4847 0.765625)"/>
     <use xlink:href="#DejaVuSans-47" transform="translate(510.176106 0.765625)"/>
     <use xlink:href="#DejaVuSans-79" transform="translate(587.66634 0.765625)"/>
     <use xlink:href="#DejaVuSans-72" transform="translate(646.846028 0.765625)"/>
     <use xlink:href="#DejaVuSans-2212" transform="translate(688.91634 39.046875) scale(0.7)"/>
     <use xlink:href="#DejaVuSans-31" transform="translate(747.568684 39.046875) scale(0.7)"/>
     <use xlink:href="#DejaVuSans-29" transform="translate(794.839192 0.765625)"/>
     <use xlink:href="#DejaVuSans-20" transform="translate(833.852864 0.765625)"/>
     <use xlink:href="#DejaVuSans-3d" transform="translate(865.639973 0.765625)"/>
     <use xlink:href="#DejaVuSans-20" transform="translate(949.429036 0.765625)"/>
     <use xlink:href="#DejaVuSans-2212" transform="translate(981.216145 0.765625)"/>
     <use xlink:href="#DejaVuSans-36" transform="translate(1065.005208 0.765625)"/>
     <use xlink:href="#DejaVuSans-2e" transform="translate(1128.628254 0.765625)"/>
     <use xlink:href="#DejaVuSans-30" transform="translate(1160.415364 0.765625)"/>
     <use xlink:href="#DejaVuSans-37" transform="translate(1224.038411 0.765625)"/>
     <use xlink:href="#DejaVuSans-38" transform="translate(1287.661458 0.765625)"/>
     <use xlink:href="#DejaVuSans-39" transform="translate(1351.284504 0.765625)"/>
     <use xlink:href="#DejaVuSans-2b" transform="translate(1415.864583 39.046875) scale(0.7)"/>
     <use xlink:href="#DejaVuSans-32" transform="translate(1474.516926 39.046875) scale(0.7)"/>
     <use xlink:href="#DejaVuSans-2e" transform="translate(1519.053059 39.046875) scale(0.7)"/>
     <use xlink:href="#DejaVuSans-35" transform="translate(1541.304036 39.046875) scale(0.7)"/>
     <use xlink:href="#DejaVuSans-30" transform="translate(1585.840168 39.046875) scale(0.7)"/>
     <use xlink:href="#DejaVuSans-35" transform="translate(1630.376301 39.046875) scale(0.7)"/>
     <use xlink:href="#DejaVuSans-33" transform="translate(1674.912434 39.046875) scale(0.7)"/>
     <use xlink:href="#DejaVuSans-2212" transform="translate(1415.864583 -26.578125) scale(0.7)"/>
     <use xlink:href="#DejaVuSans-32" transform="translate(1474.516926 -26.578125) scale(0.7)"/>
     <use xlink:href="#DejaVuSans-2e" transform="translate(1519.053059 -26.578125) scale(0.7)"/>
     <use xlink:href="#DejaVuSans-36" transform="translate(1541.304036 -26.578125) scale(0.7)"/>
     <use xlink:href="#DejaVuSans-38" transform="translate(1585.840168 -26.578125) scale(0.7)"/>
     <use xlink:href="#DejaVuSans-30" transform="translate(1630.376301 -26.578125) scale(0.7)"/>
     <use xlink:href="#DejaVuSans-37" transform="translate(1674.912434 -26.578125) scale(0.7)"/>
    </g>
   </g>
  </g>
 </g>
 <defs>
  <clipPath id="p0d14200e01">
   <rect x="69.552" y="30.984" width="151.283806" height="132.24"/>
  </clipPath>
  <clipPath id="p4db41cc9b0">
   <rect x="69.552" y="194.208" width="151.283806" height="132.24"/>
  </clipPath>
  <clipPath id="p64ab0a70bc">
   <rect x="233.916194" y="194.208" width="151.283806" height="132.24"/>
  </clipPath>
 </defs>
</svg>
