<?xml version="1.0" encoding="utf-8" standalone="no"?>
<!DOCTYPE svg PUBLIC "-//W3C//DTD SVG 1.1//EN"
  "http://www.w3.org/Graphics/SVG/1.1/DTD/svg11.dtd">
<svg xmlns:xlink="http://www.w3.org/1999/xlink" width="396pt" height="396pt" viewBox="0 0 396 396" xmlns="http://www.w3.org/2000/svg" version="1.1">
 <metadata>
  <rdf:RDF xmlns:dc="http://purl.org/dc/elements/1.1/" xmlns:cc="http://creativecommons.org/ns#" xmlns:rdf="http://www.w3.org/1999/02/22-rdf-syntax-ns#">
   <cc:Work>
    <dc:type rdf:resource="http://purl.org/dc/dcmitype/StillImage"/>
    <dc:date>2024-11-19T13:54:19.708791</dc:date>
    <dc:format>image/svg+xml</dc:format>
    <dc:creator>
     <cc:Agent>
      <dc:title>Matplotlib v3.9.2, https://matplotlib.org/</dc:title>
     </cc:Agent>
    </dc:creator>
   </cc:Work>
  </rdf:RDF>
 </metadata>
 <defs>
  <style type="text/css">*{stroke-linejoin: round; stroke-linecap: butt}</style>
 </defs>
 <g id="figure_1">
  <g id="patch_1">
   <path d="M 0 396 
L 396 396 
L 396 0 
L 0 0 
z
" style="fill: #ffffff"/>
  </g>
  <g id="axes_1">
   <g id="patch_2">
    <path d="M 64.08 164.88 
L 217.671259 164.88 
L 217.671259 30.984 
L 64.08 30.984 
z
" style="fill: #ffffff"/>
   </g>
   <g id="matplotlib.axis_1">
    <g id="xtick_1">
     <g id="line2d_1">
      <defs>
       <path id="m91787935e7" d="M 0 0 
L 0 3.5 
" style="stroke: #000000; stroke-width: 0.8"/>
      </defs>
      <g>
       <use xlink:href="#m91787935e7" x="72.093729" y="164.88" style="stroke: #000000; stroke-width: 0.8"/>
      </g>
     </g>
    </g>
    <g id="xtick_2">
     <g id="line2d_2">
      <g>
       <use xlink:href="#m91787935e7" x="108.55716" y="164.88" style="stroke: #000000; stroke-width: 0.8"/>
      </g>
     </g>
    </g>
    <g id="xtick_3">
     <g id="line2d_3">
      <g>
       <use xlink:href="#m91787935e7" x="145.020591" y="164.88" style="stroke: #000000; stroke-width: 0.8"/>
      </g>
     </g>
    </g>
    <g id="xtick_4">
     <g id="line2d_4">
      <g>
       <use xlink:href="#m91787935e7" x="181.484022" y="164.88" style="stroke: #000000; stroke-width: 0.8"/>
      </g>
     </g>
    </g>
   </g>
   <g id="matplotlib.axis_2"/>
   <g id="line2d_5">
    <path d="M 64.08 164.88 
L 73.295476 164.801316 
L 73.295476 164.722633 
L 76.367301 164.643949 
L 76.367301 164.565265 
L 77.903213 164.486582 
L 77.903213 164.407898 
L 79.439126 164.329214 
L 79.439126 164.250531 
L 80.975039 164.171847 
L 80.975039 164.01448 
L 81.742995 164.01448 
L 81.742995 163.857112 
L 83.278907 163.778429 
L 83.278907 163.542378 
L 84.046864 163.542378 
L 84.046864 163.38501 
L 84.81482 163.38501 
L 84.81482 163.227643 
L 85.582776 163.227643 
L 85.582776 162.991592 
L 86.350733 162.991592 
L 86.350733 162.834225 
L 87.118689 162.834225 
L 87.118689 162.51949 
L 87.886645 162.51949 
L 87.886645 162.283439 
L 88.654601 162.283439 
L 88.654601 161.968704 
L 89.422558 161.968704 
L 89.422558 161.65397 
L 90.190514 161.65397 
L 90.190514 161.339235 
L 90.95847 161.339235 
L 90.95847 161.0245 
L 91.726427 161.0245 
L 91.726427 160.631082 
L 92.494383 160.631082 
L 92.494383 160.237664 
L 93.262339 160.237664 
L 93.262339 159.765561 
L 94.030296 159.765561 
L 94.030296 159.293459 
L 94.798252 159.293459 
L 94.798252 158.821357 
L 95.566208 158.821357 
L 95.566208 158.191888 
L 96.334164 158.191888 
L 96.334164 157.562419 
L 97.102121 157.562419 
L 97.102121 156.775582 
L 97.870077 156.775582 
L 97.870077 155.988745 
L 98.638033 155.988745 
L 98.638033 155.123225 
L 99.40599 155.123225 
L 99.40599 154.100337 
L 100.173946 154.100337 
L 100.173946 153.07745 
L 100.941902 153.07745 
L 100.941902 152.054562 
L 101.709859 152.054562 
L 101.709859 150.874307 
L 102.477815 150.874307 
L 102.477815 149.615368 
L 103.245771 149.615368 
L 103.245771 148.277746 
L 104.013727 148.277746 
L 104.013727 146.782756 
L 104.781684 146.782756 
L 104.781684 145.209083 
L 105.54964 145.209083 
L 105.54964 143.478042 
L 106.317596 143.478042 
L 106.317596 141.668318 
L 107.085553 141.668318 
L 107.085553 139.701226 
L 107.853509 139.701226 
L 107.853509 137.65545 
L 108.621465 137.65545 
L 108.621465 135.530991 
L 109.389422 135.530991 
L 109.389422 133.327849 
L 110.157378 133.327849 
L 110.157378 131.046022 
L 110.925334 131.046022 
L 110.925334 128.764196 
L 111.69329 128.764196 
L 111.69329 126.403686 
L 112.461247 126.403686 
L 112.461247 123.964492 
L 113.229203 123.964492 
L 113.229203 121.446615 
L 113.997159 121.446615 
L 113.997159 118.928737 
L 114.765116 118.928737 
L 114.765116 116.332176 
L 115.533072 116.332176 
L 115.533072 113.656931 
L 116.301028 113.656931 
L 116.301028 110.981687 
L 117.068984 110.981687 
L 117.068984 108.306442 
L 117.836941 108.306442 
L 117.836941 105.47383 
L 118.604897 105.47383 
L 118.604897 102.719901 
L 119.372853 102.719901 
L 119.372853 99.887289 
L 120.14081 99.887289 
L 120.14081 96.975993 
L 120.908766 96.975993 
L 120.908766 94.143381 
L 121.676722 94.143381 
L 121.676722 91.232086 
L 122.444679 91.232086 
L 122.444679 88.478157 
L 123.212635 88.478157 
L 123.212635 85.724229 
L 123.980591 85.724229 
L 123.980591 82.9703 
L 124.748547 82.9703 
L 124.748547 80.373739 
L 125.516504 80.373739 
L 125.516504 77.855862 
L 126.28446 77.855862 
L 126.28446 75.337984 
L 127.052416 75.337984 
L 127.052416 72.898791 
L 127.820373 72.898791 
L 127.820373 70.538281 
L 128.588329 70.538281 
L 128.588329 68.17777 
L 129.356285 68.17777 
L 129.356285 65.974628 
L 130.124242 65.974628 
L 130.124242 63.771485 
L 130.892198 63.771485 
L 130.892198 61.647026 
L 131.660154 61.647026 
L 131.660154 59.601251 
L 132.42811 59.601251 
L 132.42811 57.634159 
L 133.196067 57.634159 
L 133.196067 55.824434 
L 133.964023 55.824434 
L 133.964023 54.01471 
L 134.731979 54.01471 
L 134.731979 52.283669 
L 135.499936 52.283669 
L 135.499936 50.709996 
L 136.267892 50.709996 
L 136.267892 49.215006 
L 137.035848 49.215006 
L 137.035848 47.956067 
L 137.803804 47.956067 
L 137.803804 46.775812 
L 138.571761 46.775812 
L 138.571761 45.752925 
L 139.339717 45.752925 
L 139.339717 44.887404 
L 140.107673 44.887404 
L 140.107673 44.179251 
L 140.87563 44.179251 
L 140.87563 43.628466 
L 141.643586 43.628466 
L 141.643586 43.313731 
L 142.411542 43.313731 
L 142.411542 43.156364 
L 143.947455 43.156364 
L 143.947455 43.549782 
L 144.715411 43.549782 
L 144.715411 44.179251 
L 145.483367 44.179251 
L 145.483367 45.123455 
L 146.251324 45.123455 
L 146.251324 46.382394 
L 147.01928 46.382394 
L 147.01928 47.877384 
L 147.787236 47.877384 
L 147.787236 49.687108 
L 148.555193 49.687108 
L 148.555193 51.6542 
L 149.323149 51.6542 
L 149.323149 53.778659 
L 150.091105 53.778659 
L 150.091105 55.981802 
L 150.859062 55.981802 
L 150.859062 58.342312 
L 151.627018 58.342312 
L 151.627018 60.702822 
L 152.394974 60.702822 
L 152.394974 63.063332 
L 153.16293 63.063332 
L 153.16293 65.502526 
L 153.930887 65.502526 
L 153.930887 67.941719 
L 154.698843 67.941719 
L 154.698843 70.538281 
L 155.466799 70.538281 
L 155.466799 73.292209 
L 156.234756 73.292209 
L 156.234756 76.203505 
L 157.002712 76.203505 
L 157.002712 79.350852 
L 157.770668 79.350852 
L 157.770668 82.734249 
L 158.538624 82.734249 
L 158.538624 86.275014 
L 159.306581 86.275014 
L 159.306581 89.894463 
L 160.074537 89.894463 
L 160.074537 93.513912 
L 160.842493 93.513912 
L 160.842493 97.054677 
L 161.61045 97.054677 
L 161.61045 100.516759 
L 162.378406 100.516759 
L 162.378406 103.821473 
L 163.146362 103.821473 
L 163.146362 106.968819 
L 163.914319 106.968819 
L 163.914319 110.037483 
L 164.682275 110.037483 
L 164.682275 113.027462 
L 165.450231 113.027462 
L 165.450231 115.860074 
L 166.218187 115.860074 
L 166.218187 118.614002 
L 166.986144 118.614002 
L 166.986144 121.210564 
L 167.7541 121.210564 
L 167.7541 123.649757 
L 168.522056 123.649757 
L 168.522056 125.931584 
L 169.290013 125.931584 
L 169.290013 128.134726 
L 170.057969 128.134726 
L 170.057969 130.180502 
L 170.825925 130.180502 
L 170.825925 132.226277 
L 171.593882 132.226277 
L 171.593882 134.193369 
L 172.361838 134.193369 
L 172.361838 136.081777 
L 173.129794 136.081777 
L 173.129794 137.970185 
L 173.89775 137.970185 
L 173.89775 139.858593 
L 174.665707 139.858593 
L 174.665707 141.668318 
L 175.433663 141.668318 
L 175.433663 143.399358 
L 176.201619 143.399358 
L 176.201619 144.973032 
L 176.969576 144.973032 
L 176.969576 146.546705 
L 177.737532 146.546705 
L 177.737532 147.963011 
L 178.505488 147.963011 
L 178.505488 149.300633 
L 179.273445 149.300633 
L 179.273445 150.559572 
L 180.041401 150.559572 
L 180.041401 151.739827 
L 180.809357 151.739827 
L 180.809357 152.841399 
L 181.577313 152.841399 
L 181.577313 153.785603 
L 182.34527 153.785603 
L 182.34527 154.729807 
L 183.113226 154.729807 
L 183.113226 155.595327 
L 183.881182 155.595327 
L 183.881182 156.30348 
L 184.649139 156.30348 
L 184.649139 156.932949 
L 185.417095 156.932949 
L 185.417095 157.562419 
L 186.185051 157.562419 
L 186.185051 158.034521 
L 186.953007 158.034521 
L 186.953007 158.506623 
L 187.720964 158.506623 
L 187.720964 158.900041 
L 188.48892 158.900041 
L 188.48892 159.214776 
L 189.256876 159.214776 
L 189.256876 159.608194 
L 190.024833 159.608194 
L 190.024833 159.922929 
L 190.792789 159.922929 
L 190.792789 160.237664 
L 191.560745 160.237664 
L 191.560745 160.552398 
L 192.328702 160.552398 
L 192.328702 160.945817 
L 193.096658 160.945817 
L 193.096658 161.260551 
L 193.864614 161.260551 
L 193.864614 161.575286 
L 194.63257 161.575286 
L 194.63257 161.890021 
L 195.400527 161.890021 
L 195.400527 162.204755 
L 196.168483 162.204755 
L 196.168483 162.51949 
L 196.936439 162.51949 
L 196.936439 162.834225 
L 197.704396 162.834225 
L 197.704396 163.070276 
L 198.472352 163.070276 
L 198.472352 163.306327 
L 199.240308 163.306327 
L 199.240308 163.542378 
L 200.008265 163.542378 
L 200.008265 163.699745 
L 200.776221 163.699745 
L 200.776221 163.857112 
L 201.544177 163.857112 
L 201.544177 164.01448 
L 203.08009 164.093163 
L 203.08009 164.171847 
L 203.848046 164.171847 
L 203.848046 164.329214 
L 205.383959 164.407898 
L 205.383959 164.486582 
L 207.687827 164.565265 
L 207.687827 164.643949 
L 209.991696 164.722633 
L 209.991696 164.801316 
L 217.671259 164.801316 
L 217.671259 164.801316 
" clip-path="url(#p5af7215c28)" style="fill: none; stroke: #bf00bf; stroke-width: 1.5; stroke-linecap: square"/>
   </g>
   <g id="patch_3">
    <path d="M 64.08 164.88 
L 64.08 30.984 
" style="fill: none; stroke: #000000; stroke-width: 0.8; stroke-linejoin: miter; stroke-linecap: square"/>
   </g>
   <g id="patch_4">
    <path d="M 217.671259 164.88 
L 217.671259 30.984 
" style="fill: none; stroke: #000000; stroke-width: 0.8; stroke-linejoin: miter; stroke-linecap: square"/>
   </g>
   <g id="patch_5">
    <path d="M 64.08 164.88 
L 217.671259 164.88 
" style="fill: none; stroke: #000000; stroke-width: 0.8; stroke-linejoin: miter; stroke-linecap: square"/>
   </g>
   <g id="patch_6">
    <path d="M 64.08 30.984 
L 217.671259 30.984 
" style="fill: none; stroke: #000000; stroke-width: 0.8; stroke-linejoin: miter; stroke-linecap: square"/>
   </g>
   <g id="text_1">
    <!-- $\Omega_{2,0}$ = ${0.2969}_{-0.0156}^{+0.0148}$ -->
    <g transform="translate(70.66563 24.984) scale(0.14 -0.14)">
     <defs>
      <path id="DejaVuSans-3a9" d="M 4647 556 
L 4647 0 
L 2772 0 
L 2772 556 
Q 3325 859 3634 1378 
Q 3944 1897 3944 2528 
Q 3944 3278 3531 3731 
Q 3119 4184 2444 4184 
Q 1769 4184 1355 3729 
Q 941 3275 941 2528 
Q 941 1897 1250 1378 
Q 1563 859 2119 556 
L 2119 0 
L 244 0 
L 244 556 
L 1241 556 
Q 747 991 519 1456 
Q 294 1922 294 2497 
Q 294 3491 894 4106 
Q 1491 4722 2444 4722 
Q 3391 4722 3994 4106 
Q 4594 3494 4594 2528 
Q 4594 1922 4372 1459 
Q 4150 997 3647 556 
L 4647 556 
z
" transform="scale(0.015625)"/>
      <path id="DejaVuSans-32" d="M 1228 531 
L 3431 531 
L 3431 0 
L 469 0 
L 469 531 
Q 828 903 1448 1529 
Q 2069 2156 2228 2338 
Q 2531 2678 2651 2914 
Q 2772 3150 2772 3378 
Q 2772 3750 2511 3984 
Q 2250 4219 1831 4219 
Q 1534 4219 1204 4116 
Q 875 4013 500 3803 
L 500 4441 
Q 881 4594 1212 4672 
Q 1544 4750 1819 4750 
Q 2544 4750 2975 4387 
Q 3406 4025 3406 3419 
Q 3406 3131 3298 2873 
Q 3191 2616 2906 2266 
Q 2828 2175 2409 1742 
Q 1991 1309 1228 531 
z
" transform="scale(0.015625)"/>
      <path id="DejaVuSans-2c" d="M 750 794 
L 1409 794 
L 1409 256 
L 897 -744 
L 494 -744 
L 750 256 
L 750 794 
z
" transform="scale(0.015625)"/>
      <path id="DejaVuSans-30" d="M 2034 4250 
Q 1547 4250 1301 3770 
Q 1056 3291 1056 2328 
Q 1056 1369 1301 889 
Q 1547 409 2034 409 
Q 2525 409 2770 889 
Q 3016 1369 3016 2328 
Q 3016 3291 2770 3770 
Q 2525 4250 2034 4250 
z
M 2034 4750 
Q 2819 4750 3233 4129 
Q 3647 3509 3647 2328 
Q 3647 1150 3233 529 
Q 2819 -91 2034 -91 
Q 1250 -91 836 529 
Q 422 1150 422 2328 
Q 422 3509 836 4129 
Q 1250 4750 2034 4750 
z
" transform="scale(0.015625)"/>
      <path id="DejaVuSans-20" transform="scale(0.015625)"/>
      <path id="DejaVuSans-3d" d="M 678 2906 
L 4684 2906 
L 4684 2381 
L 678 2381 
L 678 2906 
z
M 678 1631 
L 4684 1631 
L 4684 1100 
L 678 1100 
L 678 1631 
z
" transform="scale(0.015625)"/>
      <path id="DejaVuSans-2e" d="M 684 794 
L 1344 794 
L 1344 0 
L 684 0 
L 684 794 
z
" transform="scale(0.015625)"/>
      <path id="DejaVuSans-39" d="M 703 97 
L 703 672 
Q 941 559 1184 500 
Q 1428 441 1663 441 
Q 2288 441 2617 861 
Q 2947 1281 2994 2138 
Q 2813 1869 2534 1725 
Q 2256 1581 1919 1581 
Q 1219 1581 811 2004 
Q 403 2428 403 3163 
Q 403 3881 828 4315 
Q 1253 4750 1959 4750 
Q 2769 4750 3195 4129 
Q 3622 3509 3622 2328 
Q 3622 1225 3098 567 
Q 2575 -91 1691 -91 
Q 1453 -91 1209 -44 
Q 966 3 703 97 
z
M 1959 2075 
Q 2384 2075 2632 2365 
Q 2881 2656 2881 3163 
Q 2881 3666 2632 3958 
Q 2384 4250 1959 4250 
Q 1534 4250 1286 3958 
Q 1038 3666 1038 3163 
Q 1038 2656 1286 2365 
Q 1534 2075 1959 2075 
z
" transform="scale(0.015625)"/>
      <path id="DejaVuSans-36" d="M 2113 2584 
Q 1688 2584 1439 2293 
Q 1191 2003 1191 1497 
Q 1191 994 1439 701 
Q 1688 409 2113 409 
Q 2538 409 2786 701 
Q 3034 994 3034 1497 
Q 3034 2003 2786 2293 
Q 2538 2584 2113 2584 
z
M 3366 4563 
L 3366 3988 
Q 3128 4100 2886 4159 
Q 2644 4219 2406 4219 
Q 1781 4219 1451 3797 
Q 1122 3375 1075 2522 
Q 1259 2794 1537 2939 
Q 1816 3084 2150 3084 
Q 2853 3084 3261 2657 
Q 3669 2231 3669 1497 
Q 3669 778 3244 343 
Q 2819 -91 2113 -91 
Q 1303 -91 875 529 
Q 447 1150 447 2328 
Q 447 3434 972 4092 
Q 1497 4750 2381 4750 
Q 2619 4750 2861 4703 
Q 3103 4656 3366 4563 
z
" transform="scale(0.015625)"/>
      <path id="DejaVuSans-2b" d="M 2944 4013 
L 2944 2272 
L 4684 2272 
L 4684 1741 
L 2944 1741 
L 2944 0 
L 2419 0 
L 2419 1741 
L 678 1741 
L 678 2272 
L 2419 2272 
L 2419 4013 
L 2944 4013 
z
" transform="scale(0.015625)"/>
      <path id="DejaVuSans-31" d="M 794 531 
L 1825 531 
L 1825 4091 
L 703 3866 
L 703 4441 
L 1819 4666 
L 2450 4666 
L 2450 531 
L 3481 531 
L 3481 0 
L 794 0 
L 794 531 
z
" transform="scale(0.015625)"/>
      <path id="DejaVuSans-34" d="M 2419 4116 
L 825 1625 
L 2419 1625 
L 2419 4116 
z
M 2253 4666 
L 3047 4666 
L 3047 1625 
L 3713 1625 
L 3713 1100 
L 3047 1100 
L 3047 0 
L 2419 0 
L 2419 1100 
L 313 1100 
L 313 1709 
L 2253 4666 
z
" transform="scale(0.015625)"/>
      <path id="DejaVuSans-38" d="M 2034 2216 
Q 1584 2216 1326 1975 
Q 1069 1734 1069 1313 
Q 1069 891 1326 650 
Q 1584 409 2034 409 
Q 2484 409 2743 651 
Q 3003 894 3003 1313 
Q 3003 1734 2745 1975 
Q 2488 2216 2034 2216 
z
M 1403 2484 
Q 997 2584 770 2862 
Q 544 3141 544 3541 
Q 544 4100 942 4425 
Q 1341 4750 2034 4750 
Q 2731 4750 3128 4425 
Q 3525 4100 3525 3541 
Q 3525 3141 3298 2862 
Q 3072 2584 2669 2484 
Q 3125 2378 3379 2068 
Q 3634 1759 3634 1313 
Q 3634 634 3220 271 
Q 2806 -91 2034 -91 
Q 1263 -91 848 271 
Q 434 634 434 1313 
Q 434 1759 690 2068 
Q 947 2378 1403 2484 
z
M 1172 3481 
Q 1172 3119 1398 2916 
Q 1625 2713 2034 2713 
Q 2441 2713 2670 2916 
Q 2900 3119 2900 3481 
Q 2900 3844 2670 4047 
Q 2441 4250 2034 4250 
Q 1625 4250 1398 4047 
Q 1172 3844 1172 3481 
z
" transform="scale(0.015625)"/>
      <path id="DejaVuSans-2212" d="M 678 2272 
L 4684 2272 
L 4684 1741 
L 678 1741 
L 678 2272 
z
" transform="scale(0.015625)"/>
      <path id="DejaVuSans-35" d="M 691 4666 
L 3169 4666 
L 3169 4134 
L 1269 4134 
L 1269 2991 
Q 1406 3038 1543 3061 
Q 1681 3084 1819 3084 
Q 2600 3084 3056 2656 
Q 3513 2228 3513 1497 
Q 3513 744 3044 326 
Q 2575 -91 1722 -91 
Q 1428 -91 1123 -41 
Q 819 9 494 109 
L 494 744 
Q 775 591 1075 516 
Q 1375 441 1709 441 
Q 2250 441 2565 725 
Q 2881 1009 2881 1497 
Q 2881 1984 2565 2268 
Q 2250 2553 1709 2553 
Q 1456 2553 1204 2497 
Q 953 2441 691 2322 
L 691 4666 
z
" transform="scale(0.015625)"/>
     </defs>
     <use xlink:href="#DejaVuSans-3a9" transform="translate(0 0.765625)"/>
     <use xlink:href="#DejaVuSans-32" transform="translate(77.373047 -15.640625) scale(0.7)"/>
     <use xlink:href="#DejaVuSans-2c" transform="translate(121.90918 -15.640625) scale(0.7)"/>
     <use xlink:href="#DejaVuSans-30" transform="translate(157.797852 -15.640625) scale(0.7)"/>
     <use xlink:href="#DejaVuSans-20" transform="translate(205.068359 0.765625)"/>
     <use xlink:href="#DejaVuSans-3d" transform="translate(236.855469 0.765625)"/>
     <use xlink:href="#DejaVuSans-20" transform="translate(320.644531 0.765625)"/>
     <use xlink:href="#DejaVuSans-30" transform="translate(352.431641 0.765625)"/>
     <use xlink:href="#DejaVuSans-2e" transform="translate(416.054688 0.765625)"/>
     <use xlink:href="#DejaVuSans-32" transform="translate(442.341797 0.765625)"/>
     <use xlink:href="#DejaVuSans-39" transform="translate(504.214844 0.765625)"/>
     <use xlink:href="#DejaVuSans-36" transform="translate(567.837891 0.765625)"/>
     <use xlink:href="#DejaVuSans-39" transform="translate(631.460938 0.765625)"/>
     <use xlink:href="#DejaVuSans-2b" transform="translate(696.041016 39.046875) scale(0.7)"/>
     <use xlink:href="#DejaVuSans-30" transform="translate(754.693359 39.046875) scale(0.7)"/>
     <use xlink:href="#DejaVuSans-2e" transform="translate(799.229492 39.046875) scale(0.7)"/>
     <use xlink:href="#DejaVuSans-30" transform="translate(821.480469 39.046875) scale(0.7)"/>
     <use xlink:href="#DejaVuSans-31" transform="translate(866.016602 39.046875) scale(0.7)"/>
     <use xlink:href="#DejaVuSans-34" transform="translate(910.552734 39.046875) scale(0.7)"/>
     <use xlink:href="#DejaVuSans-38" transform="translate(955.088867 39.046875) scale(0.7)"/>
     <use xlink:href="#DejaVuSans-2212" transform="translate(696.041016 -26.578125) scale(0.7)"/>
     <use xlink:href="#DejaVuSans-30" transform="translate(754.693359 -26.578125) scale(0.7)"/>
     <use xlink:href="#DejaVuSans-2e" transform="translate(799.229492 -26.578125) scale(0.7)"/>
     <use xlink:href="#DejaVuSans-30" transform="translate(821.480469 -26.578125) scale(0.7)"/>
     <use xlink:href="#DejaVuSans-31" transform="translate(866.016602 -26.578125) scale(0.7)"/>
     <use xlink:href="#DejaVuSans-35" transform="translate(910.552734 -26.578125) scale(0.7)"/>
     <use xlink:href="#DejaVuSans-36" transform="translate(955.088867 -26.578125) scale(0.7)"/>
    </g>
   </g>
  </g>
  <g id="axes_2">
   <g id="matplotlib.axis_3"/>
   <g id="matplotlib.axis_4"/>
  </g>
  <g id="axes_3">
   <g id="patch_7">
    <path d="M 64.08 329.76 
L 217.671259 329.76 
L 217.671259 195.864 
L 64.08 195.864 
z
" style="fill: #ffffff"/>
   </g>
   <g id="QuadContourSet_1">
    <path d="M 102.477815 304.546343 
L 105.54964 305.337984 
L 108.621465 305.790591 
L 111.69329 305.791124 
L 114.765116 305.292671 
L 117.836941 304.31976 
L 117.836941 304.31976 
L 120.908766 303.984374 
L 123.980591 303.515681 
L 127.052416 302.760522 
L 130.124242 301.962674 
L 131.030395 301.64184 
L 133.196067 301.044379 
L 136.267892 299.718354 
L 137.57255 298.96392 
L 139.339717 298.083874 
L 142.179645 296.286 
L 142.411542 296.144185 
L 145.483367 293.807728 
L 145.717302 293.60808 
L 148.555193 291.345853 
L 149.122601 290.93016 
L 151.627018 289.556888 
L 154.17773 288.25224 
L 154.698843 287.98623 
L 157.770668 286.032675 
L 158.418754 285.57432 
L 160.842493 284.2433 
L 162.696185 282.8964 
L 163.914319 281.943062 
L 165.946578 280.21848 
L 166.986144 279.091306 
L 168.86617 277.54056 
L 170.057969 276.351957 
L 171.43922 274.86264 
L 173.129794 272.411657 
L 173.302057 272.18472 
L 175.238105 269.5068 
L 176.201619 267.886864 
L 176.926812 266.82888 
L 178.938502 264.15096 
L 179.273445 263.491517 
L 180.489382 261.47304 
L 181.855496 258.79512 
L 182.34527 258.033786 
L 183.961799 256.1172 
L 185.247211 253.43928 
L 185.417095 252.823009 
L 186.265978 250.76136 
L 187.112763 248.08344 
L 187.78108 245.40552 
L 188.48892 243.611664 
L 189.039652 242.7276 
L 190.037385 240.04968 
L 189.158524 237.37176 
L 188.48892 236.142477 
L 187.444088 234.69384 
L 185.417095 232.328514 
L 185.237319 232.01592 
L 182.719228 229.338 
L 182.34527 228.960821 
L 179.642481 226.66008 
L 179.273445 226.284951 
L 176.201619 224.096368 
L 176.048968 223.98216 
L 173.129794 222.409567 
L 170.057969 222.125387 
L 166.986144 222.867153 
L 163.914319 223.279215 
L 160.842493 223.440978 
L 158.761228 223.98216 
L 157.770668 224.221966 
L 154.698843 225.446396 
L 152.247923 226.66008 
L 151.627018 226.902968 
L 148.555193 228.350388 
L 146.832966 229.338 
L 145.483367 230.075885 
L 142.802109 232.01592 
L 142.411542 232.223632 
L 139.339717 234.044343 
L 138.399246 234.69384 
L 136.267892 236.03058 
L 134.250297 237.37176 
L 133.196067 238.193641 
L 131.118226 240.04968 
L 130.124242 240.743436 
L 127.613864 242.7276 
L 127.052416 243.271565 
L 125.080653 245.40552 
L 123.980591 246.495623 
L 122.05014 248.08344 
L 120.908766 248.853141 
L 117.956332 250.76136 
L 117.836941 250.843055 
L 115.137818 253.43928 
L 114.765116 253.93774 
L 113.068358 256.1172 
L 111.69329 258.070364 
L 111.006645 258.79512 
L 108.621465 261.348374 
L 108.481837 261.47304 
L 106.078845 264.15096 
L 105.54964 264.980963 
L 104.134224 266.82888 
L 102.477815 269.330004 
L 102.290245 269.5068 
L 100.234452 272.18472 
L 99.40599 274.335244 
L 99.188338 274.86264 
L 97.917511 277.54056 
L 96.921538 280.21848 
L 96.334164 282.792449 
L 96.29463 282.8964 
L 94.9537 285.57432 
L 93.490502 288.25224 
L 93.262339 289.396043 
L 92.751091 290.93016 
L 93.262339 291.602585 
L 94.162776 293.60808 
L 95.370733 296.286 
L 96.334164 298.127221 
L 96.799889 298.96392 
L 99.093133 301.64184 
L 99.40599 302.050939 
L 102.009848 304.31976 
z
" clip-path="url(#p8403f09307)" style="fill: #ffffff"/>
   </g>
   <g id="QuadContourSet_2">
    <path d="M 62.544087 333.77688 
L 65.615913 333.77688 
L 68.687738 333.77688 
L 71.759563 333.77688 
L 74.831388 333.77688 
L 77.903213 333.77688 
L 80.975039 333.77688 
L 84.046864 333.77688 
L 87.118689 333.77688 
L 90.190514 333.77688 
L 93.262339 333.77688 
L 96.334164 333.77688 
L 99.40599 333.77688 
L 102.477815 333.77688 
L 105.54964 333.77688 
L 108.621465 333.77688 
L 111.69329 333.77688 
L 114.765116 333.77688 
L 117.836941 333.77688 
L 120.908766 333.77688 
L 123.980591 333.77688 
L 127.052416 333.77688 
L 130.124242 333.77688 
L 133.196067 333.77688 
L 136.267892 333.77688 
L 139.339717 333.77688 
L 142.411542 333.77688 
L 145.483367 333.77688 
L 148.555193 333.77688 
L 151.627018 333.77688 
L 154.698843 333.77688 
L 157.770668 333.77688 
L 160.842493 333.77688 
L 163.914319 333.77688 
L 166.986144 333.77688 
L 170.057969 333.77688 
L 173.129794 333.77688 
L 176.201619 333.77688 
L 179.273445 333.77688 
L 182.34527 333.77688 
L 185.417095 333.77688 
L 188.48892 333.77688 
L 191.560745 333.77688 
L 194.63257 333.77688 
L 197.704396 333.77688 
L 200.776221 333.77688 
L 203.848046 333.77688 
L 206.919871 333.77688 
L 209.991696 333.77688 
L 213.063522 333.77688 
L 216.135347 333.77688 
L 219.207172 333.77688 
L 222.278997 333.77688 
L 222.278997 331.09896 
L 222.278997 328.42104 
L 222.278997 325.74312 
L 222.278997 323.0652 
L 222.278997 320.38728 
L 222.278997 317.70936 
L 222.278997 315.03144 
L 222.278997 312.35352 
L 222.278997 309.6756 
L 222.278997 306.99768 
L 222.278997 304.31976 
L 222.278997 301.64184 
L 222.278997 298.96392 
L 222.278997 296.286 
L 222.278997 293.60808 
L 222.278997 290.93016 
L 222.278997 288.25224 
L 222.278997 285.57432 
L 222.278997 282.8964 
L 222.278997 280.21848 
L 222.278997 277.54056 
L 222.278997 274.86264 
L 222.278997 272.18472 
L 222.278997 269.5068 
L 222.278997 266.82888 
L 222.278997 264.15096 
L 222.278997 261.47304 
L 222.278997 258.79512 
L 222.278997 256.1172 
L 222.278997 253.43928 
L 222.278997 250.76136 
L 222.278997 248.08344 
L 222.278997 245.40552 
L 222.278997 242.7276 
L 222.278997 240.04968 
L 222.278997 237.37176 
L 222.278997 234.69384 
L 222.278997 232.01592 
L 222.278997 229.338 
L 222.278997 226.66008 
L 222.278997 223.98216 
L 222.278997 221.30424 
L 222.278997 218.62632 
L 222.278997 215.9484 
L 222.278997 213.27048 
L 222.278997 210.59256 
L 222.278997 207.91464 
L 222.278997 205.23672 
L 222.278997 202.5588 
L 222.278997 199.88088 
L 222.278997 197.20296 
L 222.278997 194.52504 
L 222.278997 191.84712 
L 219.207172 191.84712 
L 216.135347 191.84712 
L 213.063522 191.84712 
L 209.991696 191.84712 
L 206.919871 191.84712 
L 203.848046 191.84712 
L 200.776221 191.84712 
L 197.704396 191.84712 
L 194.63257 191.84712 
L 191.560745 191.84712 
L 188.48892 191.84712 
L 185.417095 191.84712 
L 182.34527 191.84712 
L 179.273445 191.84712 
L 176.201619 191.84712 
L 173.129794 191.84712 
L 170.057969 191.84712 
L 166.986144 191.84712 
L 163.914319 191.84712 
L 160.842493 191.84712 
L 157.770668 191.84712 
L 154.698843 191.84712 
L 151.627018 191.84712 
L 148.555193 191.84712 
L 145.483367 191.84712 
L 142.411542 191.84712 
L 139.339717 191.84712 
L 136.267892 191.84712 
L 133.196067 191.84712 
L 130.124242 191.84712 
L 127.052416 191.84712 
L 123.980591 191.84712 
L 120.908766 191.84712 
L 117.836941 191.84712 
L 114.765116 191.84712 
L 111.69329 191.84712 
L 108.621465 191.84712 
L 105.54964 191.84712 
L 102.477815 191.84712 
L 99.40599 191.84712 
L 96.334164 191.84712 
L 93.262339 191.84712 
L 90.190514 191.84712 
L 87.118689 191.84712 
L 84.046864 191.84712 
L 80.975039 191.84712 
L 77.903213 191.84712 
L 74.831388 191.84712 
L 71.759563 191.84712 
L 68.687738 191.84712 
L 65.615913 191.84712 
L 62.544087 191.84712 
L 59.472262 191.84712 
L 59.472262 194.52504 
L 59.472262 197.20296 
L 59.472262 199.88088 
L 59.472262 202.5588 
L 59.472262 205.23672 
L 59.472262 207.91464 
L 59.472262 210.59256 
L 59.472262 213.27048 
L 59.472262 215.9484 
L 59.472262 218.62632 
L 59.472262 221.30424 
L 59.472262 223.98216 
L 59.472262 226.66008 
L 59.472262 229.338 
L 59.472262 232.01592 
L 59.472262 234.69384 
L 59.472262 237.37176 
L 59.472262 240.04968 
L 59.472262 242.7276 
L 59.472262 245.40552 
L 59.472262 248.08344 
L 59.472262 250.76136 
L 59.472262 253.43928 
L 59.472262 256.1172 
L 59.472262 258.79512 
L 59.472262 261.47304 
L 59.472262 264.15096 
L 59.472262 266.82888 
L 59.472262 269.5068 
L 59.472262 272.18472 
L 59.472262 274.86264 
L 59.472262 277.54056 
L 59.472262 280.21848 
L 59.472262 282.8964 
L 59.472262 285.57432 
L 59.472262 288.25224 
L 59.472262 290.93016 
L 59.472262 293.60808 
L 59.472262 296.286 
L 59.472262 298.96392 
L 59.472262 301.64184 
L 59.472262 304.31976 
L 59.472262 306.99768 
L 59.472262 309.6756 
L 59.472262 312.35352 
L 59.472262 315.03144 
L 59.472262 317.70936 
L 59.472262 320.38728 
L 59.472262 323.0652 
L 59.472262 325.74312 
L 59.472262 328.42104 
L 59.472262 331.09896 
L 59.472262 333.77688 
L 62.544087 333.77688 
z
M 102.009848 304.31976 
L 99.40599 302.050939 
L 99.093133 301.64184 
L 96.799889 298.96392 
L 96.334164 298.127221 
L 95.370733 296.286 
L 94.162776 293.60808 
L 93.262339 291.602585 
L 92.751091 290.93016 
L 93.262339 289.396043 
L 93.490502 288.25224 
L 94.9537 285.57432 
L 96.29463 282.8964 
L 96.334164 282.792449 
L 96.921538 280.21848 
L 97.917511 277.54056 
L 99.188338 274.86264 
L 99.40599 274.335244 
L 100.234452 272.18472 
L 102.290245 269.5068 
L 102.477815 269.330004 
L 104.134224 266.82888 
L 105.54964 264.980963 
L 106.078845 264.15096 
L 108.481837 261.47304 
L 108.621465 261.348374 
L 111.006645 258.79512 
L 111.69329 258.070364 
L 113.068358 256.1172 
L 114.765116 253.93774 
L 115.137818 253.43928 
L 117.836941 250.843055 
L 117.956332 250.76136 
L 120.908766 248.853141 
L 122.05014 248.08344 
L 123.980591 246.495623 
L 125.080653 245.40552 
L 127.052416 243.271565 
L 127.613864 242.7276 
L 130.124242 240.743436 
L 131.118226 240.04968 
L 133.196067 238.193641 
L 134.250297 237.37176 
L 136.267892 236.03058 
L 138.399246 234.69384 
L 139.339717 234.044343 
L 142.411542 232.223632 
L 142.802109 232.01592 
L 145.483367 230.075885 
L 146.832966 229.338 
L 148.555193 228.350388 
L 151.627018 226.902968 
L 152.247923 226.66008 
L 154.698843 225.446396 
L 157.770668 224.221966 
L 158.761228 223.98216 
L 160.842493 223.440978 
L 163.914319 223.279215 
L 166.986144 222.867153 
L 170.057969 222.125387 
L 173.129794 222.409567 
L 176.048968 223.98216 
L 176.201619 224.096368 
L 179.273445 226.284951 
L 179.642481 226.66008 
L 182.34527 228.960821 
L 182.719228 229.338 
L 185.237319 232.01592 
L 185.417095 232.328514 
L 187.444088 234.69384 
L 188.48892 236.142477 
L 189.158524 237.37176 
L 190.037385 240.04968 
L 189.039652 242.7276 
L 188.48892 243.611664 
L 187.78108 245.40552 
L 187.112763 248.08344 
L 186.265978 250.76136 
L 185.417095 252.823009 
L 185.247211 253.43928 
L 183.961799 256.1172 
L 182.34527 258.033786 
L 181.855496 258.79512 
L 180.489382 261.47304 
L 179.273445 263.491517 
L 178.938502 264.15096 
L 176.926812 266.82888 
L 176.201619 267.886864 
L 175.238105 269.5068 
L 173.302057 272.18472 
L 173.129794 272.411657 
L 171.43922 274.86264 
L 170.057969 276.351957 
L 168.86617 277.54056 
L 166.986144 279.091306 
L 165.946578 280.21848 
L 163.914319 281.943062 
L 162.696185 282.8964 
L 160.842493 284.2433 
L 158.418754 285.57432 
L 157.770668 286.032675 
L 154.698843 287.98623 
L 154.17773 288.25224 
L 151.627018 289.556888 
L 149.122601 290.93016 
L 148.555193 291.345853 
L 145.717302 293.60808 
L 145.483367 293.807728 
L 142.411542 296.144185 
L 142.179645 296.286 
L 139.339717 298.083874 
L 137.57255 298.96392 
L 136.267892 299.718354 
L 133.196067 301.044379 
L 131.030395 301.64184 
L 130.124242 301.962674 
L 127.052416 302.760522 
L 123.980591 303.515681 
L 120.908766 303.984374 
L 117.836941 304.31976 
L 117.836941 304.31976 
L 114.765116 305.292671 
L 111.69329 305.791124 
L 108.621465 305.790591 
L 105.54964 305.337984 
L 102.477815 304.546343 
L 102.009848 304.31976 
z
" clip-path="url(#p8403f09307)" style="fill: none"/>
    <path d="M 102.477815 304.546343 
L 105.54964 305.337984 
L 108.621465 305.790591 
L 111.69329 305.791124 
L 114.765116 305.292671 
L 117.836941 304.31976 
L 117.836941 304.31976 
L 120.908766 303.984374 
L 123.980591 303.515681 
L 127.052416 302.760522 
L 130.124242 301.962674 
L 131.030395 301.64184 
L 133.196067 301.044379 
L 136.267892 299.718354 
L 137.57255 298.96392 
L 139.339717 298.083874 
L 142.179645 296.286 
L 142.411542 296.144185 
L 145.483367 293.807728 
L 145.717302 293.60808 
L 148.555193 291.345853 
L 149.122601 290.93016 
L 151.627018 289.556888 
L 154.17773 288.25224 
L 154.698843 287.98623 
L 157.770668 286.032675 
L 158.418754 285.57432 
L 160.842493 284.2433 
L 162.696185 282.8964 
L 163.914319 281.943062 
L 165.946578 280.21848 
L 166.986144 279.091306 
L 168.86617 277.54056 
L 170.057969 276.351957 
L 171.43922 274.86264 
L 173.129794 272.411657 
L 173.302057 272.18472 
L 175.238105 269.5068 
L 176.201619 267.886864 
L 176.926812 266.82888 
L 178.938502 264.15096 
L 179.273445 263.491517 
L 180.489382 261.47304 
L 181.855496 258.79512 
L 182.34527 258.033786 
L 183.961799 256.1172 
L 185.247211 253.43928 
L 185.417095 252.823009 
L 186.265978 250.76136 
L 187.112763 248.08344 
L 187.78108 245.40552 
L 188.48892 243.611664 
L 189.039652 242.7276 
L 190.037385 240.04968 
L 189.158524 237.37176 
L 188.48892 236.142477 
L 187.444088 234.69384 
L 185.417095 232.328514 
L 185.237319 232.01592 
L 182.719228 229.338 
L 182.34527 228.960821 
L 179.642481 226.66008 
L 179.273445 226.284951 
L 176.201619 224.096368 
L 176.048968 223.98216 
L 173.129794 222.409567 
L 170.057969 222.125387 
L 166.986144 222.867153 
L 163.914319 223.279215 
L 160.842493 223.440978 
L 158.761228 223.98216 
L 157.770668 224.221966 
L 154.698843 225.446396 
L 152.247923 226.66008 
L 151.627018 226.902968 
L 148.555193 228.350388 
L 146.832966 229.338 
L 145.483367 230.075885 
L 142.802109 232.01592 
L 142.411542 232.223632 
L 139.339717 234.044343 
L 138.399246 234.69384 
L 136.267892 236.03058 
L 134.250297 237.37176 
L 133.196067 238.193641 
L 131.118226 240.04968 
L 130.124242 240.743436 
L 127.613864 242.7276 
L 127.052416 243.271565 
L 125.080653 245.40552 
L 123.980591 246.495623 
L 122.05014 248.08344 
L 120.908766 248.853141 
L 117.956332 250.76136 
L 117.836941 250.843055 
L 115.137818 253.43928 
L 114.765116 253.93774 
L 113.068358 256.1172 
L 111.69329 258.070364 
L 111.006645 258.79512 
L 108.621465 261.348374 
L 108.481837 261.47304 
L 106.078845 264.15096 
L 105.54964 264.980963 
L 104.134224 266.82888 
L 102.477815 269.330004 
L 102.290245 269.5068 
L 100.234452 272.18472 
L 99.40599 274.335244 
L 99.188338 274.86264 
L 97.917511 277.54056 
L 96.921538 280.21848 
L 96.334164 282.792449 
L 96.29463 282.8964 
L 94.9537 285.57432 
L 93.490502 288.25224 
L 93.262339 289.396043 
L 92.751091 290.93016 
L 93.262339 291.602585 
L 94.162776 293.60808 
L 95.370733 296.286 
L 96.334164 298.127221 
L 96.799889 298.96392 
L 99.093133 301.64184 
L 99.40599 302.050939 
L 102.009848 304.31976 
z
M 113.817409 288.25224 
L 112.390149 285.57432 
L 112.114582 282.8964 
L 111.900626 280.21848 
L 111.866963 277.54056 
L 112.560769 274.86264 
L 114.323675 272.18472 
L 114.765116 271.584557 
L 116.01106 269.5068 
L 117.602424 266.82888 
L 117.836941 266.490156 
L 119.332649 264.15096 
L 120.908766 262.261361 
L 121.63082 261.47304 
L 123.980591 259.020113 
L 124.195676 258.79512 
L 127.052416 256.1172 
L 127.052416 256.1172 
L 130.124242 253.851925 
L 130.757366 253.43928 
L 133.196067 251.683909 
L 134.616703 250.76136 
L 136.267892 249.380763 
L 138.07846 248.08344 
L 139.339717 247.096558 
L 141.866127 245.40552 
L 142.411542 245.087538 
L 145.483367 243.651466 
L 148.07794 242.7276 
L 148.555193 242.521338 
L 151.627018 241.392351 
L 154.698843 240.330854 
L 157.035948 240.04968 
L 157.770668 239.966945 
L 158.12372 240.04968 
L 160.842493 240.85968 
L 163.616939 242.7276 
L 163.914319 242.989579 
L 166.276778 245.40552 
L 166.986144 247.077768 
L 167.361143 248.08344 
L 167.809851 250.76136 
L 168.314694 253.43928 
L 168.27849 256.1172 
L 167.113451 258.79512 
L 166.986144 259.007441 
L 165.711796 261.47304 
L 164.182735 264.15096 
L 163.914319 264.481853 
L 161.972643 266.82888 
L 160.842493 268.093268 
L 159.768699 269.5068 
L 157.770668 271.816752 
L 157.403638 272.18472 
L 154.714306 274.86264 
L 154.698843 274.877882 
L 152.081894 277.54056 
L 151.627018 277.906437 
L 149.096044 280.21848 
L 148.555193 280.635944 
L 145.483367 282.728329 
L 145.110426 282.8964 
L 142.411542 284.174741 
L 139.339717 285.235784 
L 138.444013 285.57432 
L 136.267892 286.811501 
L 133.704344 288.25224 
L 133.196067 288.539924 
L 130.124242 289.510923 
L 127.052416 290.119772 
L 123.980591 290.572611 
L 120.908766 290.627434 
L 117.836941 290.308269 
L 114.765116 289.09956 
z
" clip-path="url(#p8403f09307)" style="fill: #bf00bf; fill-opacity: 0.333333"/>
    <path d="M 114.765116 289.09956 
L 117.836941 290.308269 
L 120.908766 290.627434 
L 123.980591 290.572611 
L 127.052416 290.119772 
L 130.124242 289.510923 
L 133.196067 288.539924 
L 133.704344 288.25224 
L 136.267892 286.811501 
L 138.444013 285.57432 
L 139.339717 285.235784 
L 142.411542 284.174741 
L 145.110426 282.8964 
L 145.483367 282.728329 
L 148.555193 280.635944 
L 149.096044 280.21848 
L 151.627018 277.906437 
L 152.081894 277.54056 
L 154.698843 274.877882 
L 154.714306 274.86264 
L 157.403638 272.18472 
L 157.770668 271.816752 
L 159.768699 269.5068 
L 160.842493 268.093268 
L 161.972643 266.82888 
L 163.914319 264.481853 
L 164.182735 264.15096 
L 165.711796 261.47304 
L 166.986144 259.007441 
L 167.113451 258.79512 
L 168.27849 256.1172 
L 168.314694 253.43928 
L 167.809851 250.76136 
L 167.361143 248.08344 
L 166.986144 247.077768 
L 166.276778 245.40552 
L 163.914319 242.989579 
L 163.616939 242.7276 
L 160.842493 240.85968 
L 158.12372 240.04968 
L 157.770668 239.966945 
L 157.035948 240.04968 
L 154.698843 240.330854 
L 151.627018 241.392351 
L 148.555193 242.521338 
L 148.07794 242.7276 
L 145.483367 243.651466 
L 142.411542 245.087538 
L 141.866127 245.40552 
L 139.339717 247.096558 
L 138.07846 248.08344 
L 136.267892 249.380763 
L 134.616703 250.76136 
L 133.196067 251.683909 
L 130.757366 253.43928 
L 130.124242 253.851925 
L 127.052416 256.1172 
L 127.052416 256.1172 
L 124.195676 258.79512 
L 123.980591 259.020113 
L 121.63082 261.47304 
L 120.908766 262.261361 
L 119.332649 264.15096 
L 117.836941 266.490156 
L 117.602424 266.82888 
L 116.01106 269.5068 
L 114.765116 271.584557 
L 114.323675 272.18472 
L 112.560769 274.86264 
L 111.866963 277.54056 
L 111.900626 280.21848 
L 112.114582 282.8964 
L 112.390149 285.57432 
L 113.817409 288.25224 
z
" clip-path="url(#p8403f09307)" style="fill: #bf00bf"/>
   </g>
   <g id="matplotlib.axis_5">
    <g id="xtick_5">
     <g id="line2d_6">
      <g>
       <use xlink:href="#m91787935e7" x="72.093729" y="329.76" style="stroke: #000000; stroke-width: 0.8"/>
      </g>
     </g>
     <g id="text_2">
      <!-- 0.24 -->
      <g transform="translate(66.172815 357.877081) rotate(-45) scale(0.1 -0.1)">
       <use xlink:href="#DejaVuSans-30"/>
       <use xlink:href="#DejaVuSans-2e" x="63.623047"/>
       <use xlink:href="#DejaVuSans-32" x="95.410156"/>
       <use xlink:href="#DejaVuSans-34" x="159.033203"/>
      </g>
     </g>
    </g>
    <g id="xtick_6">
     <g id="line2d_7">
      <g>
       <use xlink:href="#m91787935e7" x="108.55716" y="329.76" style="stroke: #000000; stroke-width: 0.8"/>
      </g>
     </g>
     <g id="text_3">
      <!-- 0.27 -->
      <g transform="translate(102.636246 357.877081) rotate(-45) scale(0.1 -0.1)">
       <defs>
        <path id="DejaVuSans-37" d="M 525 4666 
L 3525 4666 
L 3525 4397 
L 1831 0 
L 1172 0 
L 2766 4134 
L 525 4134 
L 525 4666 
z
" transform="scale(0.015625)"/>
       </defs>
       <use xlink:href="#DejaVuSans-30"/>
       <use xlink:href="#DejaVuSans-2e" x="63.623047"/>
       <use xlink:href="#DejaVuSans-32" x="95.410156"/>
       <use xlink:href="#DejaVuSans-37" x="159.033203"/>
      </g>
     </g>
    </g>
    <g id="xtick_7">
     <g id="line2d_8">
      <g>
       <use xlink:href="#m91787935e7" x="145.020591" y="329.76" style="stroke: #000000; stroke-width: 0.8"/>
      </g>
     </g>
     <g id="text_4">
      <!-- 0.30 -->
      <g transform="translate(139.099677 357.877081) rotate(-45) scale(0.1 -0.1)">
       <defs>
        <path id="DejaVuSans-33" d="M 2597 2516 
Q 3050 2419 3304 2112 
Q 3559 1806 3559 1356 
Q 3559 666 3084 287 
Q 2609 -91 1734 -91 
Q 1441 -91 1130 -33 
Q 819 25 488 141 
L 488 750 
Q 750 597 1062 519 
Q 1375 441 1716 441 
Q 2309 441 2620 675 
Q 2931 909 2931 1356 
Q 2931 1769 2642 2001 
Q 2353 2234 1838 2234 
L 1294 2234 
L 1294 2753 
L 1863 2753 
Q 2328 2753 2575 2939 
Q 2822 3125 2822 3475 
Q 2822 3834 2567 4026 
Q 2313 4219 1838 4219 
Q 1578 4219 1281 4162 
Q 984 4106 628 3988 
L 628 4550 
Q 988 4650 1302 4700 
Q 1616 4750 1894 4750 
Q 2613 4750 3031 4423 
Q 3450 4097 3450 3541 
Q 3450 3153 3228 2886 
Q 3006 2619 2597 2516 
z
" transform="scale(0.015625)"/>
       </defs>
       <use xlink:href="#DejaVuSans-30"/>
       <use xlink:href="#DejaVuSans-2e" x="63.623047"/>
       <use xlink:href="#DejaVuSans-33" x="95.410156"/>
       <use xlink:href="#DejaVuSans-30" x="159.033203"/>
      </g>
     </g>
    </g>
    <g id="xtick_8">
     <g id="line2d_9">
      <g>
       <use xlink:href="#m91787935e7" x="181.484022" y="329.76" style="stroke: #000000; stroke-width: 0.8"/>
      </g>
     </g>
     <g id="text_5">
      <!-- 0.33 -->
      <g transform="translate(175.563108 357.877081) rotate(-45) scale(0.1 -0.1)">
       <use xlink:href="#DejaVuSans-30"/>
       <use xlink:href="#DejaVuSans-2e" x="63.623047"/>
       <use xlink:href="#DejaVuSans-33" x="95.410156"/>
       <use xlink:href="#DejaVuSans-33" x="159.033203"/>
      </g>
     </g>
    </g>
    <g id="text_6">
     <!-- $\Omega_{2,0}$ -->
     <g transform="translate(130.57563 377.3288) scale(0.1 -0.1)">
      <use xlink:href="#DejaVuSans-3a9" transform="translate(0 0.21875)"/>
      <use xlink:href="#DejaVuSans-32" transform="translate(77.373047 -16.1875) scale(0.7)"/>
      <use xlink:href="#DejaVuSans-2c" transform="translate(121.90918 -16.1875) scale(0.7)"/>
      <use xlink:href="#DejaVuSans-30" transform="translate(157.797852 -16.1875) scale(0.7)"/>
     </g>
    </g>
   </g>
   <g id="matplotlib.axis_6">
    <g id="ytick_1">
     <g id="line2d_10">
      <defs>
       <path id="mfba49cd073" d="M 0 0 
L -3.5 0 
" style="stroke: #000000; stroke-width: 0.8"/>
      </defs>
      <g>
       <use xlink:href="#mfba49cd073" x="64.08" y="319.274371" style="stroke: #000000; stroke-width: 0.8"/>
      </g>
     </g>
     <g id="text_7">
      <!-- −0.75 -->
      <g transform="translate(33.939931 342.517568) rotate(-45) scale(0.1 -0.1)">
       <use xlink:href="#DejaVuSans-2212"/>
       <use xlink:href="#DejaVuSans-30" x="83.789062"/>
       <use xlink:href="#DejaVuSans-2e" x="147.412109"/>
       <use xlink:href="#DejaVuSans-37" x="179.199219"/>
       <use xlink:href="#DejaVuSans-35" x="242.822266"/>
      </g>
     </g>
    </g>
    <g id="ytick_2">
     <g id="line2d_11">
      <g>
       <use xlink:href="#mfba49cd073" x="64.08" y="291.624791" style="stroke: #000000; stroke-width: 0.8"/>
      </g>
     </g>
     <g id="text_8">
      <!-- −0.50 -->
      <g transform="translate(33.939931 314.867987) rotate(-45) scale(0.1 -0.1)">
       <use xlink:href="#DejaVuSans-2212"/>
       <use xlink:href="#DejaVuSans-30" x="83.789062"/>
       <use xlink:href="#DejaVuSans-2e" x="147.412109"/>
       <use xlink:href="#DejaVuSans-35" x="179.199219"/>
       <use xlink:href="#DejaVuSans-30" x="242.822266"/>
      </g>
     </g>
    </g>
    <g id="ytick_3">
     <g id="line2d_12">
      <g>
       <use xlink:href="#mfba49cd073" x="64.08" y="263.975211" style="stroke: #000000; stroke-width: 0.8"/>
      </g>
     </g>
     <g id="text_9">
      <!-- −0.25 -->
      <g transform="translate(33.939931 287.218407) rotate(-45) scale(0.1 -0.1)">
       <use xlink:href="#DejaVuSans-2212"/>
       <use xlink:href="#DejaVuSans-30" x="83.789062"/>
       <use xlink:href="#DejaVuSans-2e" x="147.412109"/>
       <use xlink:href="#DejaVuSans-32" x="179.199219"/>
       <use xlink:href="#DejaVuSans-35" x="242.822266"/>
      </g>
     </g>
    </g>
    <g id="ytick_4">
     <g id="line2d_13">
      <g>
       <use xlink:href="#mfba49cd073" x="64.08" y="236.32563" style="stroke: #000000; stroke-width: 0.8"/>
      </g>
     </g>
     <g id="text_10">
      <!-- 0.00 -->
      <g transform="translate(39.865264 253.643493) rotate(-45) scale(0.1 -0.1)">
       <use xlink:href="#DejaVuSans-30"/>
       <use xlink:href="#DejaVuSans-2e" x="63.623047"/>
       <use xlink:href="#DejaVuSans-30" x="95.410156"/>
       <use xlink:href="#DejaVuSans-30" x="159.033203"/>
      </g>
     </g>
    </g>
    <g id="ytick_5">
     <g id="line2d_14">
      <g>
       <use xlink:href="#mfba49cd073" x="64.08" y="208.67605" style="stroke: #000000; stroke-width: 0.8"/>
      </g>
     </g>
     <g id="text_11">
      <!-- 0.25 -->
      <g transform="translate(39.865264 225.993912) rotate(-45) scale(0.1 -0.1)">
       <use xlink:href="#DejaVuSans-30"/>
       <use xlink:href="#DejaVuSans-2e" x="63.623047"/>
       <use xlink:href="#DejaVuSans-32" x="95.410156"/>
       <use xlink:href="#DejaVuSans-35" x="159.033203"/>
      </g>
     </g>
    </g>
    <g id="text_12">
     <!-- $n$ -->
     <g transform="translate(15.922935 266.012) rotate(-90) scale(0.1 -0.1)">
      <defs>
       <path id="DejaVuSans-Oblique-6e" d="M 3566 2113 
L 3156 0 
L 2578 0 
L 2988 2091 
Q 3016 2238 3031 2350 
Q 3047 2463 3047 2528 
Q 3047 2791 2881 2937 
Q 2716 3084 2419 3084 
Q 1956 3084 1622 2776 
Q 1288 2469 1184 1941 
L 800 0 
L 225 0 
L 903 3500 
L 1478 3500 
L 1363 2950 
Q 1603 3253 1940 3418 
Q 2278 3584 2650 3584 
Q 3113 3584 3367 3334 
Q 3622 3084 3622 2631 
Q 3622 2519 3608 2391 
Q 3594 2263 3566 2113 
z
" transform="scale(0.015625)"/>
      </defs>
      <use xlink:href="#DejaVuSans-Oblique-6e"/>
     </g>
    </g>
   </g>
   <g id="QuadContourSet_3">
    <path d="M 102.477815 304.546343 
L 105.54964 305.337984 
L 108.621465 305.790591 
L 111.69329 305.791124 
L 114.765116 305.292671 
L 117.836941 304.31976 
L 117.836941 304.31976 
L 120.908766 303.984374 
L 123.980591 303.515681 
L 127.052416 302.760522 
L 130.124242 301.962674 
L 131.030395 301.64184 
L 133.196067 301.044379 
L 136.267892 299.718354 
L 137.57255 298.96392 
L 139.339717 298.083874 
L 142.179645 296.286 
L 142.411542 296.144185 
L 145.483367 293.807728 
L 145.717302 293.60808 
L 148.555193 291.345853 
L 149.122601 290.93016 
L 151.627018 289.556888 
L 154.17773 288.25224 
L 154.698843 287.98623 
L 157.770668 286.032675 
L 158.418754 285.57432 
L 160.842493 284.2433 
L 162.696185 282.8964 
L 163.914319 281.943062 
L 165.946578 280.21848 
L 166.986144 279.091306 
L 168.86617 277.54056 
L 170.057969 276.351957 
L 171.43922 274.86264 
L 173.129794 272.411657 
L 173.302057 272.18472 
L 175.238105 269.5068 
L 176.201619 267.886864 
L 176.926812 266.82888 
L 178.938502 264.15096 
L 179.273445 263.491517 
L 180.489382 261.47304 
L 181.855496 258.79512 
L 182.34527 258.033786 
L 183.961799 256.1172 
L 185.247211 253.43928 
L 185.417095 252.823009 
L 186.265978 250.76136 
L 187.112763 248.08344 
L 187.78108 245.40552 
L 188.48892 243.611664 
L 189.039652 242.7276 
L 190.037385 240.04968 
L 189.158524 237.37176 
L 188.48892 236.142477 
L 187.444088 234.69384 
L 185.417095 232.328514 
L 185.237319 232.01592 
L 182.719228 229.338 
L 182.34527 228.960821 
L 179.642481 226.66008 
L 179.273445 226.284951 
L 176.201619 224.096368 
L 176.048968 223.98216 
L 173.129794 222.409567 
L 170.057969 222.125387 
L 166.986144 222.867153 
L 163.914319 223.279215 
L 160.842493 223.440978 
L 158.761228 223.98216 
L 157.770668 224.221966 
L 154.698843 225.446396 
L 152.247923 226.66008 
L 151.627018 226.902968 
L 148.555193 228.350388 
L 146.832966 229.338 
L 145.483367 230.075885 
L 142.802109 232.01592 
L 142.411542 232.223632 
L 139.339717 234.044343 
L 138.399246 234.69384 
L 136.267892 236.03058 
L 134.250297 237.37176 
L 133.196067 238.193641 
L 131.118226 240.04968 
L 130.124242 240.743436 
L 127.613864 242.7276 
L 127.052416 243.271565 
L 125.080653 245.40552 
L 123.980591 246.495623 
L 122.05014 248.08344 
L 120.908766 248.853141 
L 117.956332 250.76136 
L 117.836941 250.843055 
L 115.137818 253.43928 
L 114.765116 253.93774 
L 113.068358 256.1172 
L 111.69329 258.070364 
L 111.006645 258.79512 
L 108.621465 261.348374 
L 108.481837 261.47304 
L 106.078845 264.15096 
L 105.54964 264.980963 
L 104.134224 266.82888 
L 102.477815 269.330004 
L 102.290245 269.5068 
L 100.234452 272.18472 
L 99.40599 274.335244 
L 99.188338 274.86264 
L 97.917511 277.54056 
L 96.921538 280.21848 
L 96.334164 282.792449 
L 96.29463 282.8964 
L 94.9537 285.57432 
L 93.490502 288.25224 
L 93.262339 289.396043 
L 92.751091 290.93016 
L 93.262339 291.602585 
L 94.162776 293.60808 
L 95.370733 296.286 
L 96.334164 298.127221 
L 96.799889 298.96392 
L 99.093133 301.64184 
L 99.40599 302.050939 
L 102.009848 304.31976 
L 102.477815 304.546343 
z
" clip-path="url(#p8403f09307)" style="fill: none; stroke: #bf00bf; stroke-width: 1.5"/>
    <path d="M 114.765116 289.09956 
L 117.836941 290.308269 
L 120.908766 290.627434 
L 123.980591 290.572611 
L 127.052416 290.119772 
L 130.124242 289.510923 
L 133.196067 288.539924 
L 133.704344 288.25224 
L 136.267892 286.811501 
L 138.444013 285.57432 
L 139.339717 285.235784 
L 142.411542 284.174741 
L 145.110426 282.8964 
L 145.483367 282.728329 
L 148.555193 280.635944 
L 149.096044 280.21848 
L 151.627018 277.906437 
L 152.081894 277.54056 
L 154.698843 274.877882 
L 154.714306 274.86264 
L 157.403638 272.18472 
L 157.770668 271.816752 
L 159.768699 269.5068 
L 160.842493 268.093268 
L 161.972643 266.82888 
L 163.914319 264.481853 
L 164.182735 264.15096 
L 165.711796 261.47304 
L 166.986144 259.007441 
L 167.113451 258.79512 
L 168.27849 256.1172 
L 168.314694 253.43928 
L 167.809851 250.76136 
L 167.361143 248.08344 
L 166.986144 247.077768 
L 166.276778 245.40552 
L 163.914319 242.989579 
L 163.616939 242.7276 
L 160.842493 240.85968 
L 158.12372 240.04968 
L 157.770668 239.966945 
L 157.035948 240.04968 
L 154.698843 240.330854 
L 151.627018 241.392351 
L 148.555193 242.521338 
L 148.07794 242.7276 
L 145.483367 243.651466 
L 142.411542 245.087538 
L 141.866127 245.40552 
L 139.339717 247.096558 
L 138.07846 248.08344 
L 136.267892 249.380763 
L 134.616703 250.76136 
L 133.196067 251.683909 
L 130.757366 253.43928 
L 130.124242 253.851925 
L 127.052416 256.1172 
L 127.052416 256.1172 
L 124.195676 258.79512 
L 123.980591 259.020113 
L 121.63082 261.47304 
L 120.908766 262.261361 
L 119.332649 264.15096 
L 117.836941 266.490156 
L 117.602424 266.82888 
L 116.01106 269.5068 
L 114.765116 271.584557 
L 114.323675 272.18472 
L 112.560769 274.86264 
L 111.866963 277.54056 
L 111.900626 280.21848 
L 112.114582 282.8964 
L 112.390149 285.57432 
L 113.817409 288.25224 
L 114.765116 289.09956 
z
" clip-path="url(#p8403f09307)" style="fill: none; stroke: #bf00bf; stroke-width: 1.5"/>
   </g>
   <g id="patch_8">
    <path d="M 64.08 329.76 
L 64.08 195.864 
" style="fill: none; stroke: #000000; stroke-width: 0.8; stroke-linejoin: miter; stroke-linecap: square"/>
   </g>
   <g id="patch_9">
    <path d="M 217.671259 329.76 
L 217.671259 195.864 
" style="fill: none; stroke: #000000; stroke-width: 0.8; stroke-linejoin: miter; stroke-linecap: square"/>
   </g>
   <g id="patch_10">
    <path d="M 64.08 329.76 
L 217.671259 329.76 
" style="fill: none; stroke: #000000; stroke-width: 0.8; stroke-linejoin: miter; stroke-linecap: square"/>
   </g>
   <g id="patch_11">
    <path d="M 64.08 195.864 
L 217.671259 195.864 
" style="fill: none; stroke: #000000; stroke-width: 0.8; stroke-linejoin: miter; stroke-linecap: square"/>
   </g>
  </g>
  <g id="axes_4">
   <g id="patch_12">
    <path d="M 231.608741 329.76 
L 385.2 329.76 
L 385.2 195.864 
L 231.608741 195.864 
z
" style="fill: #ffffff"/>
   </g>
   <g id="matplotlib.axis_7">
    <g id="xtick_9">
     <g id="line2d_15">
      <g>
       <use xlink:href="#m91787935e7" x="243.636739" y="329.76" style="stroke: #000000; stroke-width: 0.8"/>
      </g>
     </g>
     <g id="text_13">
      <!-- −0.75 -->
      <g transform="translate(234.753158 363.802415) rotate(-45) scale(0.1 -0.1)">
       <use xlink:href="#DejaVuSans-2212"/>
       <use xlink:href="#DejaVuSans-30" x="83.789062"/>
       <use xlink:href="#DejaVuSans-2e" x="147.412109"/>
       <use xlink:href="#DejaVuSans-37" x="179.199219"/>
       <use xlink:href="#DejaVuSans-35" x="242.822266"/>
      </g>
     </g>
    </g>
    <g id="xtick_10">
     <g id="line2d_16">
      <g>
       <use xlink:href="#m91787935e7" x="275.353399" y="329.76" style="stroke: #000000; stroke-width: 0.8"/>
      </g>
     </g>
     <g id="text_14">
      <!-- −0.50 -->
      <g transform="translate(266.469818 363.802415) rotate(-45) scale(0.1 -0.1)">
       <use xlink:href="#DejaVuSans-2212"/>
       <use xlink:href="#DejaVuSans-30" x="83.789062"/>
       <use xlink:href="#DejaVuSans-2e" x="147.412109"/>
       <use xlink:href="#DejaVuSans-35" x="179.199219"/>
       <use xlink:href="#DejaVuSans-30" x="242.822266"/>
      </g>
     </g>
    </g>
    <g id="xtick_11">
     <g id="line2d_17">
      <g>
       <use xlink:href="#m91787935e7" x="307.070059" y="329.76" style="stroke: #000000; stroke-width: 0.8"/>
      </g>
     </g>
     <g id="text_15">
      <!-- −0.25 -->
      <g transform="translate(298.186477 363.802415) rotate(-45) scale(0.1 -0.1)">
       <use xlink:href="#DejaVuSans-2212"/>
       <use xlink:href="#DejaVuSans-30" x="83.789062"/>
       <use xlink:href="#DejaVuSans-2e" x="147.412109"/>
       <use xlink:href="#DejaVuSans-32" x="179.199219"/>
       <use xlink:href="#DejaVuSans-35" x="242.822266"/>
      </g>
     </g>
    </g>
    <g id="xtick_12">
     <g id="line2d_18">
      <g>
       <use xlink:href="#m91787935e7" x="338.786718" y="329.76" style="stroke: #000000; stroke-width: 0.8"/>
      </g>
     </g>
     <g id="text_16">
      <!-- 0.00 -->
      <g transform="translate(332.865804 357.877081) rotate(-45) scale(0.1 -0.1)">
       <use xlink:href="#DejaVuSans-30"/>
       <use xlink:href="#DejaVuSans-2e" x="63.623047"/>
       <use xlink:href="#DejaVuSans-30" x="95.410156"/>
       <use xlink:href="#DejaVuSans-30" x="159.033203"/>
      </g>
     </g>
    </g>
    <g id="xtick_13">
     <g id="line2d_19">
      <g>
       <use xlink:href="#m91787935e7" x="370.503378" y="329.76" style="stroke: #000000; stroke-width: 0.8"/>
      </g>
     </g>
     <g id="text_17">
      <!-- 0.25 -->
      <g transform="translate(364.582463 357.877081) rotate(-45) scale(0.1 -0.1)">
       <use xlink:href="#DejaVuSans-30"/>
       <use xlink:href="#DejaVuSans-2e" x="63.623047"/>
       <use xlink:href="#DejaVuSans-32" x="95.410156"/>
       <use xlink:href="#DejaVuSans-35" x="159.033203"/>
      </g>
     </g>
    </g>
    <g id="text_18">
     <!-- $n$ -->
     <g transform="translate(305.20437 377.527238) scale(0.1 -0.1)">
      <use xlink:href="#DejaVuSans-Oblique-6e"/>
     </g>
    </g>
   </g>
   <g id="matplotlib.axis_8"/>
   <g id="line2d_20">
    <path d="M 231.608741 329.76 
L 239.288304 329.68242 
L 239.288304 329.604839 
L 243.128085 329.527259 
L 243.128085 329.449678 
L 244.663998 329.372098 
L 244.663998 329.294518 
L 246.19991 329.216937 
L 246.19991 329.139357 
L 246.967867 329.139357 
L 246.967867 328.984196 
L 247.735823 328.984196 
L 247.735823 328.829035 
L 248.503779 328.829035 
L 248.503779 328.673875 
L 249.271735 328.673875 
L 249.271735 328.518714 
L 250.039692 328.518714 
L 250.039692 328.285973 
L 250.807648 328.285973 
L 250.807648 328.130812 
L 251.575604 328.130812 
L 251.575604 327.82049 
L 252.343561 327.82049 
L 252.343561 327.587749 
L 253.111517 327.587749 
L 253.111517 327.277427 
L 253.879473 327.277427 
L 253.879473 326.967106 
L 254.64743 326.967106 
L 254.64743 326.579204 
L 255.415386 326.579204 
L 255.415386 326.268882 
L 256.183342 326.268882 
L 256.183342 325.88098 
L 256.951298 325.88098 
L 256.951298 325.493078 
L 257.719255 325.493078 
L 257.719255 325.027596 
L 258.487211 325.027596 
L 258.487211 324.562114 
L 259.255167 324.562114 
L 259.255167 324.096631 
L 260.023124 324.096631 
L 260.023124 323.553569 
L 260.79108 323.553569 
L 260.79108 322.932925 
L 261.559036 322.932925 
L 261.559036 322.234702 
L 262.326993 322.234702 
L 262.326993 321.536478 
L 263.094949 321.536478 
L 263.094949 320.683094 
L 263.862905 320.683094 
L 263.862905 319.752129 
L 264.630861 319.752129 
L 264.630861 318.666004 
L 265.398818 318.666004 
L 265.398818 317.502298 
L 266.166774 317.502298 
L 266.166774 316.261012 
L 266.93473 316.261012 
L 266.93473 314.786984 
L 267.702687 314.786984 
L 267.702687 313.312957 
L 268.470643 313.312957 
L 268.470643 311.606188 
L 269.238599 311.606188 
L 269.238599 309.899419 
L 270.006555 309.899419 
L 270.006555 308.11507 
L 270.774512 308.11507 
L 270.774512 306.253141 
L 271.542468 306.253141 
L 271.542468 304.313631 
L 272.310424 304.313631 
L 272.310424 302.374121 
L 273.078381 302.374121 
L 273.078381 300.357031 
L 273.846337 300.357031 
L 273.846337 298.262361 
L 274.614293 298.262361 
L 274.614293 296.16769 
L 275.38225 296.16769 
L 275.38225 293.995439 
L 276.150206 293.995439 
L 276.150206 291.745608 
L 276.918162 291.745608 
L 276.918162 289.495776 
L 277.686118 289.495776 
L 277.686118 287.168364 
L 278.454075 287.168364 
L 278.454075 284.840953 
L 279.222031 284.840953 
L 279.222031 282.513541 
L 279.989987 282.513541 
L 279.989987 280.030968 
L 280.757944 280.030968 
L 280.757944 277.470815 
L 281.5259 277.470815 
L 281.5259 274.833082 
L 282.293856 274.833082 
L 282.293856 271.962607 
L 283.061813 271.962607 
L 283.061813 269.014552 
L 283.829769 269.014552 
L 283.829769 265.833756 
L 284.597725 265.833756 
L 284.597725 262.497799 
L 285.365681 262.497799 
L 285.365681 259.084262 
L 286.133638 259.084262 
L 286.133638 255.515564 
L 286.901594 255.515564 
L 286.901594 252.024446 
L 287.66955 252.024446 
L 287.66955 248.533329 
L 288.437507 248.533329 
L 288.437507 245.119791 
L 289.205463 245.119791 
L 289.205463 241.938995 
L 289.973419 241.938995 
L 289.973419 238.91336 
L 290.741376 238.91336 
L 290.741376 236.120466 
L 291.509332 236.120466 
L 291.509332 233.560313 
L 292.277288 233.560313 
L 292.277288 231.232901 
L 293.045244 231.232901 
L 293.045244 229.13823 
L 293.813201 229.13823 
L 293.813201 227.276301 
L 294.581157 227.276301 
L 294.581157 225.647113 
L 295.349113 225.647113 
L 295.349113 224.173085 
L 296.11707 224.173085 
L 296.11707 222.854219 
L 296.885026 222.854219 
L 296.885026 221.535352 
L 297.652982 221.535352 
L 297.652982 220.216485 
L 298.420938 220.216485 
L 298.420938 218.897619 
L 299.188895 218.897619 
L 299.188895 217.501172 
L 299.956851 217.501172 
L 299.956851 216.027144 
L 300.724807 216.027144 
L 300.724807 214.475536 
L 301.492764 214.475536 
L 301.492764 212.923928 
L 302.26072 212.923928 
L 302.26072 211.449901 
L 303.028676 211.449901 
L 303.028676 210.208615 
L 303.796633 210.208615 
L 303.796633 209.122489 
L 304.564589 209.122489 
L 304.564589 208.424266 
L 305.332545 208.424266 
L 305.332545 208.036364 
L 306.868458 208.036364 
L 306.868458 208.424266 
L 307.636414 208.424266 
L 307.636414 209.122489 
L 308.40437 209.122489 
L 308.40437 210.131034 
L 309.172327 210.131034 
L 309.172327 211.449901 
L 309.940283 211.449901 
L 309.940283 213.001509 
L 310.708239 213.001509 
L 310.708239 214.708277 
L 311.476196 214.708277 
L 311.476196 216.647787 
L 312.244152 216.647787 
L 312.244152 218.742458 
L 313.012108 218.742458 
L 313.012108 220.992289 
L 313.780064 220.992289 
L 313.780064 223.319701 
L 314.548021 223.319701 
L 314.548021 225.802274 
L 315.315977 225.802274 
L 315.315977 228.440007 
L 316.083933 228.440007 
L 316.083933 231.07774 
L 316.85189 231.07774 
L 316.85189 233.793054 
L 317.619846 233.793054 
L 317.619846 236.663529 
L 318.387802 236.663529 
L 318.387802 239.611584 
L 319.155758 239.611584 
L 319.155758 242.559638 
L 319.923715 242.559638 
L 319.923715 245.585274 
L 320.691671 245.585274 
L 320.691671 248.688489 
L 321.459627 248.688489 
L 321.459627 251.714125 
L 322.227584 251.714125 
L 322.227584 254.73976 
L 322.99554 254.73976 
L 322.99554 257.687815 
L 323.763496 257.687815 
L 323.763496 260.55829 
L 324.531453 260.55829 
L 324.531453 263.351184 
L 325.299409 263.351184 
L 325.299409 266.066497 
L 326.067365 266.066497 
L 326.067365 268.704231 
L 326.835321 268.704231 
L 326.835321 271.341964 
L 327.603278 271.341964 
L 327.603278 273.902117 
L 328.371234 273.902117 
L 328.371234 276.38469 
L 329.13919 276.38469 
L 329.13919 278.789682 
L 329.907147 278.789682 
L 329.907147 281.194674 
L 330.675103 281.194674 
L 330.675103 283.522086 
L 331.443059 283.522086 
L 331.443059 285.694337 
L 332.211016 285.694337 
L 332.211016 287.866588 
L 332.978972 287.866588 
L 332.978972 290.038839 
L 333.746928 290.038839 
L 333.746928 292.133509 
L 334.514884 292.133509 
L 334.514884 294.22818 
L 335.282841 294.22818 
L 335.282841 296.322851 
L 336.050797 296.322851 
L 336.050797 298.417521 
L 336.818753 298.417521 
L 336.818753 300.512192 
L 337.58671 300.512192 
L 337.58671 302.529282 
L 338.354666 302.529282 
L 338.354666 304.546372 
L 339.122622 304.546372 
L 339.122622 306.408302 
L 339.890578 306.408302 
L 339.890578 308.192651 
L 340.658535 308.192651 
L 340.658535 309.821839 
L 341.426491 309.821839 
L 341.426491 311.295867 
L 342.194447 311.295867 
L 342.194447 312.692314 
L 342.962404 312.692314 
L 342.962404 313.9336 
L 343.73036 313.9336 
L 343.73036 315.174886 
L 344.498316 315.174886 
L 344.498316 316.261012 
L 345.266273 316.261012 
L 345.266273 317.269557 
L 346.034229 317.269557 
L 346.034229 318.122941 
L 346.802185 318.122941 
L 346.802185 318.976325 
L 347.570141 318.976325 
L 347.570141 319.752129 
L 348.338098 319.752129 
L 348.338098 320.372772 
L 349.106054 320.372772 
L 349.106054 321.070996 
L 349.87401 321.070996 
L 349.87401 321.691639 
L 350.641967 321.691639 
L 350.641967 322.234702 
L 351.409923 322.234702 
L 351.409923 322.777765 
L 352.177879 322.777765 
L 352.177879 323.398408 
L 352.945836 323.398408 
L 352.945836 323.941471 
L 353.713792 323.941471 
L 353.713792 324.406953 
L 354.481748 324.406953 
L 354.481748 324.950016 
L 355.249704 324.950016 
L 355.249704 325.415498 
L 356.017661 325.415498 
L 356.017661 325.8034 
L 356.785617 325.8034 
L 356.785617 326.191302 
L 357.553573 326.191302 
L 357.553573 326.579204 
L 358.32153 326.579204 
L 358.32153 326.889525 
L 359.089486 326.889525 
L 359.089486 327.199847 
L 359.857442 327.199847 
L 359.857442 327.432588 
L 360.625399 327.432588 
L 360.625399 327.665329 
L 361.393355 327.665329 
L 361.393355 327.898071 
L 362.161311 327.898071 
L 362.161311 328.130812 
L 362.929267 328.130812 
L 362.929267 328.363553 
L 363.697224 328.363553 
L 363.697224 328.518714 
L 364.46518 328.518714 
L 364.46518 328.673875 
L 366.001093 328.751455 
L 366.001093 328.829035 
L 366.769049 328.829035 
L 366.769049 328.984196 
L 368.304961 329.061776 
L 368.304961 329.139357 
L 370.60883 329.216937 
L 370.60883 329.294518 
L 373.680656 329.372098 
L 373.680656 329.449678 
L 376.752481 329.527259 
L 376.752481 329.604839 
L 385.2 329.68242 
L 385.2 329.68242 
" clip-path="url(#p80280800fa)" style="fill: none; stroke: #bf00bf; stroke-width: 1.5; stroke-linecap: square"/>
   </g>
   <g id="patch_13">
    <path d="M 231.608741 329.76 
L 231.608741 195.864 
" style="fill: none; stroke: #000000; stroke-width: 0.8; stroke-linejoin: miter; stroke-linecap: square"/>
   </g>
   <g id="patch_14">
    <path d="M 385.2 329.76 
L 385.2 195.864 
" style="fill: none; stroke: #000000; stroke-width: 0.8; stroke-linejoin: miter; stroke-linecap: square"/>
   </g>
   <g id="patch_15">
    <path d="M 231.608741 329.76 
L 385.2 329.76 
" style="fill: none; stroke: #000000; stroke-width: 0.8; stroke-linejoin: miter; stroke-linecap: square"/>
   </g>
   <g id="patch_16">
    <path d="M 231.608741 195.864 
L 385.2 195.864 
" style="fill: none; stroke: #000000; stroke-width: 0.8; stroke-linejoin: miter; stroke-linecap: square"/>
   </g>
   <g id="text_19">
    <!-- $n$ = ${-0.2644}_{-0.1439}^{+0.1475}$ -->
    <g transform="translate(242.11437 189.864) scale(0.14 -0.14)">
     <use xlink:href="#DejaVuSans-Oblique-6e" transform="translate(0 0.765625)"/>
     <use xlink:href="#DejaVuSans-20" transform="translate(63.378906 0.765625)"/>
     <use xlink:href="#DejaVuSans-3d" transform="translate(95.166016 0.765625)"/>
     <use xlink:href="#DejaVuSans-20" transform="translate(178.955078 0.765625)"/>
     <use xlink:href="#DejaVuSans-2212" transform="translate(210.742188 0.765625)"/>
     <use xlink:href="#DejaVuSans-30" transform="translate(294.53125 0.765625)"/>
     <use xlink:href="#DejaVuSans-2e" transform="translate(358.154297 0.765625)"/>
     <use xlink:href="#DejaVuSans-32" transform="translate(384.441406 0.765625)"/>
     <use xlink:href="#DejaVuSans-36" transform="translate(448.064453 0.765625)"/>
     <use xlink:href="#DejaVuSans-34" transform="translate(511.6875 0.765625)"/>
     <use xlink:href="#DejaVuSans-34" transform="translate(575.310547 0.765625)"/>
     <use xlink:href="#DejaVuSans-2b" transform="translate(639.890625 39.046875) scale(0.7)"/>
     <use xlink:href="#DejaVuSans-30" transform="translate(698.542969 39.046875) scale(0.7)"/>
     <use xlink:href="#DejaVuSans-2e" transform="translate(743.079102 39.046875) scale(0.7)"/>
     <use xlink:href="#DejaVuSans-31" transform="translate(765.330078 39.046875) scale(0.7)"/>
     <use xlink:href="#DejaVuSans-34" transform="translate(809.866211 39.046875) scale(0.7)"/>
     <use xlink:href="#DejaVuSans-37" transform="translate(854.402344 39.046875) scale(0.7)"/>
     <use xlink:href="#DejaVuSans-35" transform="translate(898.938477 39.046875) scale(0.7)"/>
     <use xlink:href="#DejaVuSans-2212" transform="translate(639.890625 -26.578125) scale(0.7)"/>
     <use xlink:href="#DejaVuSans-30" transform="translate(698.542969 -26.578125) scale(0.7)"/>
     <use xlink:href="#DejaVuSans-2e" transform="translate(743.079102 -26.578125) scale(0.7)"/>
     <use xlink:href="#DejaVuSans-31" transform="translate(765.330078 -26.578125) scale(0.7)"/>
     <use xlink:href="#DejaVuSans-34" transform="translate(809.866211 -26.578125) scale(0.7)"/>
     <use xlink:href="#DejaVuSans-33" transform="translate(854.402344 -26.578125) scale(0.7)"/>
     <use xlink:href="#DejaVuSans-39" transform="translate(898.938477 -26.578125) scale(0.7)"/>
    </g>
   </g>
  </g>
 </g>
 <defs>
  <clipPath id="p5af7215c28">
   <rect x="64.08" y="30.984" width="153.591259" height="133.896"/>
  </clipPath>
  <clipPath id="p8403f09307">
   <rect x="64.08" y="195.864" width="153.591259" height="133.896"/>
  </clipPath>
  <clipPath id="p80280800fa">
   <rect x="231.608741" y="195.864" width="153.591259" height="133.896"/>
  </clipPath>
 </defs>
</svg>
