<?xml version="1.0" encoding="utf-8" standalone="no"?>
<!DOCTYPE svg PUBLIC "-//W3C//DTD SVG 1.1//EN"
  "http://www.w3.org/Graphics/SVG/1.1/DTD/svg11.dtd">
<svg xmlns:xlink="http://www.w3.org/1999/xlink" width="396pt" height="396pt" viewBox="0 0 396 396" xmlns="http://www.w3.org/2000/svg" version="1.1">
 <metadata>
  <rdf:RDF xmlns:dc="http://purl.org/dc/elements/1.1/" xmlns:cc="http://creativecommons.org/ns#" xmlns:rdf="http://www.w3.org/1999/02/22-rdf-syntax-ns#">
   <cc:Work>
    <dc:type rdf:resource="http://purl.org/dc/dcmitype/StillImage"/>
    <dc:date>2024-11-19T13:54:19.829796</dc:date>
    <dc:format>image/svg+xml</dc:format>
    <dc:creator>
     <cc:Agent>
      <dc:title>Matplotlib v3.9.2, https://matplotlib.org/</dc:title>
     </cc:Agent>
    </dc:creator>
   </cc:Work>
  </rdf:RDF>
 </metadata>
 <defs>
  <style type="text/css">*{stroke-linejoin: round; stroke-linecap: butt}</style>
 </defs>
 <g id="figure_1">
  <g id="patch_1">
   <path d="M 0 396 
L 396 396 
L 396 0 
L 0 0 
z
" style="fill: #ffffff"/>
  </g>
  <g id="axes_1">
   <g id="patch_2">
    <path d="M 64.368 164.88 
L 217.222245 164.88 
L 217.222245 30.984 
L 64.368 30.984 
z
" style="fill: #ffffff"/>
   </g>
   <g id="matplotlib.axis_1">
    <g id="xtick_1">
     <g id="line2d_1">
      <defs>
       <path id="m6c31081a4a" d="M 0 0 
L 0 3.5 
" style="stroke: #000000; stroke-width: 0.8"/>
      </defs>
      <g>
       <use xlink:href="#m6c31081a4a" x="72.343275" y="164.88" style="stroke: #000000; stroke-width: 0.8"/>
      </g>
     </g>
    </g>
    <g id="xtick_2">
     <g id="line2d_2">
      <g>
       <use xlink:href="#m6c31081a4a" x="108.631735" y="164.88" style="stroke: #000000; stroke-width: 0.8"/>
      </g>
     </g>
    </g>
    <g id="xtick_3">
     <g id="line2d_3">
      <g>
       <use xlink:href="#m6c31081a4a" x="144.920194" y="164.88" style="stroke: #000000; stroke-width: 0.8"/>
      </g>
     </g>
    </g>
    <g id="xtick_4">
     <g id="line2d_4">
      <g>
       <use xlink:href="#m6c31081a4a" x="181.208654" y="164.88" style="stroke: #000000; stroke-width: 0.8"/>
      </g>
     </g>
    </g>
   </g>
   <g id="matplotlib.axis_2"/>
   <g id="line2d_5">
    <path d="M 64.368 164.88 
L 73.539255 164.801316 
L 73.539255 164.722633 
L 76.59634 164.643949 
L 76.59634 164.565265 
L 78.124882 164.486582 
L 78.124882 164.407898 
L 79.653424 164.329214 
L 79.653424 164.250531 
L 81.181967 164.171847 
L 81.181967 164.01448 
L 81.946238 164.01448 
L 81.946238 163.857112 
L 83.474781 163.778429 
L 83.474781 163.542378 
L 84.239052 163.542378 
L 84.239052 163.38501 
L 85.003323 163.38501 
L 85.003323 163.227643 
L 85.767594 163.227643 
L 85.767594 162.991592 
L 86.531865 162.991592 
L 86.531865 162.834225 
L 87.296137 162.834225 
L 87.296137 162.51949 
L 88.060408 162.51949 
L 88.060408 162.283439 
L 88.824679 162.283439 
L 88.824679 161.968704 
L 89.58895 161.968704 
L 89.58895 161.65397 
L 90.353222 161.65397 
L 90.353222 161.339235 
L 91.117493 161.339235 
L 91.117493 161.0245 
L 91.881764 161.0245 
L 91.881764 160.631082 
L 92.646035 160.631082 
L 92.646035 160.237664 
L 93.410307 160.237664 
L 93.410307 159.765561 
L 94.174578 159.765561 
L 94.174578 159.293459 
L 94.938849 159.293459 
L 94.938849 158.821357 
L 95.70312 158.821357 
L 95.70312 158.191888 
L 96.467391 158.191888 
L 96.467391 157.562419 
L 97.231663 157.562419 
L 97.231663 156.775582 
L 97.995934 156.775582 
L 97.995934 155.988745 
L 98.760205 155.988745 
L 98.760205 155.123225 
L 99.524476 155.123225 
L 99.524476 154.100337 
L 100.288748 154.100337 
L 100.288748 153.07745 
L 101.053019 153.07745 
L 101.053019 152.054562 
L 101.81729 152.054562 
L 101.81729 150.874307 
L 102.581561 150.874307 
L 102.581561 149.615368 
L 103.345832 149.615368 
L 103.345832 148.277746 
L 104.110104 148.277746 
L 104.110104 146.782756 
L 104.874375 146.782756 
L 104.874375 145.209083 
L 105.638646 145.209083 
L 105.638646 143.478042 
L 106.402917 143.478042 
L 106.402917 141.668318 
L 107.167189 141.668318 
L 107.167189 139.701226 
L 107.93146 139.701226 
L 107.93146 137.65545 
L 108.695731 137.65545 
L 108.695731 135.530991 
L 109.460002 135.530991 
L 109.460002 133.327849 
L 110.224273 133.327849 
L 110.224273 131.046022 
L 110.988545 131.046022 
L 110.988545 128.764196 
L 111.752816 128.764196 
L 111.752816 126.403686 
L 112.517087 126.403686 
L 112.517087 123.964492 
L 113.281358 123.964492 
L 113.281358 121.446615 
L 114.04563 121.446615 
L 114.04563 118.928737 
L 114.809901 118.928737 
L 114.809901 116.332176 
L 115.574172 116.332176 
L 115.574172 113.656931 
L 116.338443 113.656931 
L 116.338443 110.981687 
L 117.102714 110.981687 
L 117.102714 108.306442 
L 117.866986 108.306442 
L 117.866986 105.47383 
L 118.631257 105.47383 
L 118.631257 102.719901 
L 119.395528 102.719901 
L 119.395528 99.887289 
L 120.159799 99.887289 
L 120.159799 96.975993 
L 120.924071 96.975993 
L 120.924071 94.143381 
L 121.688342 94.143381 
L 121.688342 91.232086 
L 122.452613 91.232086 
L 122.452613 88.478157 
L 123.216884 88.478157 
L 123.216884 85.724229 
L 123.981155 85.724229 
L 123.981155 82.9703 
L 124.745427 82.9703 
L 124.745427 80.373739 
L 125.509698 80.373739 
L 125.509698 77.855862 
L 126.273969 77.855862 
L 126.273969 75.337984 
L 127.03824 75.337984 
L 127.03824 72.898791 
L 127.802512 72.898791 
L 127.802512 70.538281 
L 128.566783 70.538281 
L 128.566783 68.17777 
L 129.331054 68.17777 
L 129.331054 65.974628 
L 130.095325 65.974628 
L 130.095325 63.771485 
L 130.859596 63.771485 
L 130.859596 61.647026 
L 131.623868 61.647026 
L 131.623868 59.601251 
L 132.388139 59.601251 
L 132.388139 57.634159 
L 133.15241 57.634159 
L 133.15241 55.824434 
L 133.916681 55.824434 
L 133.916681 54.01471 
L 134.680953 54.01471 
L 134.680953 52.283669 
L 135.445224 52.283669 
L 135.445224 50.709996 
L 136.209495 50.709996 
L 136.209495 49.215006 
L 136.973766 49.215006 
L 136.973766 47.956067 
L 137.738038 47.956067 
L 137.738038 46.775812 
L 138.502309 46.775812 
L 138.502309 45.752925 
L 139.26658 45.752925 
L 139.26658 44.887404 
L 140.030851 44.887404 
L 140.030851 44.179251 
L 140.795122 44.179251 
L 140.795122 43.628466 
L 141.559394 43.628466 
L 141.559394 43.313731 
L 142.323665 43.313731 
L 142.323665 43.156364 
L 143.852207 43.156364 
L 143.852207 43.549782 
L 144.616479 43.549782 
L 144.616479 44.179251 
L 145.38075 44.179251 
L 145.38075 45.123455 
L 146.145021 45.123455 
L 146.145021 46.382394 
L 146.909292 46.382394 
L 146.909292 47.877384 
L 147.673563 47.877384 
L 147.673563 49.687108 
L 148.437835 49.687108 
L 148.437835 51.6542 
L 149.202106 51.6542 
L 149.202106 53.778659 
L 149.966377 53.778659 
L 149.966377 55.981802 
L 150.730648 55.981802 
L 150.730648 58.342312 
L 151.49492 58.342312 
L 151.49492 60.702822 
L 152.259191 60.702822 
L 152.259191 63.063332 
L 153.023462 63.063332 
L 153.023462 65.502526 
L 153.787733 65.502526 
L 153.787733 67.941719 
L 154.552004 67.941719 
L 154.552004 70.538281 
L 155.316276 70.538281 
L 155.316276 73.292209 
L 156.080547 73.292209 
L 156.080547 76.203505 
L 156.844818 76.203505 
L 156.844818 79.350852 
L 157.609089 79.350852 
L 157.609089 82.734249 
L 158.373361 82.734249 
L 158.373361 86.275014 
L 159.137632 86.275014 
L 159.137632 89.894463 
L 159.901903 89.894463 
L 159.901903 93.513912 
L 160.666174 93.513912 
L 160.666174 97.054677 
L 161.430445 97.054677 
L 161.430445 100.516759 
L 162.194717 100.516759 
L 162.194717 103.821473 
L 162.958988 103.821473 
L 162.958988 106.968819 
L 163.723259 106.968819 
L 163.723259 110.037483 
L 164.48753 110.037483 
L 164.48753 113.027462 
L 165.251802 113.027462 
L 165.251802 115.860074 
L 166.016073 115.860074 
L 166.016073 118.614002 
L 166.780344 118.614002 
L 166.780344 121.210564 
L 167.544615 121.210564 
L 167.544615 123.649757 
L 168.308886 123.649757 
L 168.308886 125.931584 
L 169.073158 125.931584 
L 169.073158 128.134726 
L 169.837429 128.134726 
L 169.837429 130.180502 
L 170.6017 130.180502 
L 170.6017 132.226277 
L 171.365971 132.226277 
L 171.365971 134.193369 
L 172.130243 134.193369 
L 172.130243 136.081777 
L 172.894514 136.081777 
L 172.894514 137.970185 
L 173.658785 137.970185 
L 173.658785 139.858593 
L 174.423056 139.858593 
L 174.423056 141.668318 
L 175.187327 141.668318 
L 175.187327 143.399358 
L 175.951599 143.399358 
L 175.951599 144.973032 
L 176.71587 144.973032 
L 176.71587 146.546705 
L 177.480141 146.546705 
L 177.480141 147.963011 
L 178.244412 147.963011 
L 178.244412 149.300633 
L 179.008684 149.300633 
L 179.008684 150.559572 
L 179.772955 150.559572 
L 179.772955 151.739827 
L 180.537226 151.739827 
L 180.537226 152.841399 
L 181.301497 152.841399 
L 181.301497 153.785603 
L 182.065768 153.785603 
L 182.065768 154.729807 
L 182.83004 154.729807 
L 182.83004 155.595327 
L 183.594311 155.595327 
L 183.594311 156.30348 
L 184.358582 156.30348 
L 184.358582 156.932949 
L 185.122853 156.932949 
L 185.122853 157.562419 
L 185.887125 157.562419 
L 185.887125 158.034521 
L 186.651396 158.034521 
L 186.651396 158.506623 
L 187.415667 158.506623 
L 187.415667 158.900041 
L 188.179938 158.900041 
L 188.179938 159.214776 
L 188.94421 159.214776 
L 188.94421 159.608194 
L 189.708481 159.608194 
L 189.708481 159.922929 
L 190.472752 159.922929 
L 190.472752 160.237664 
L 191.237023 160.237664 
L 191.237023 160.552398 
L 192.001294 160.552398 
L 192.001294 160.945817 
L 192.765566 160.945817 
L 192.765566 161.260551 
L 193.529837 161.260551 
L 193.529837 161.575286 
L 194.294108 161.575286 
L 194.294108 161.890021 
L 195.058379 161.890021 
L 195.058379 162.204755 
L 195.822651 162.204755 
L 195.822651 162.51949 
L 196.586922 162.51949 
L 196.586922 162.834225 
L 197.351193 162.834225 
L 197.351193 163.070276 
L 198.115464 163.070276 
L 198.115464 163.306327 
L 198.879735 163.306327 
L 198.879735 163.542378 
L 199.644007 163.542378 
L 199.644007 163.699745 
L 200.408278 163.699745 
L 200.408278 163.857112 
L 201.172549 163.857112 
L 201.172549 164.01448 
L 202.701092 164.093163 
L 202.701092 164.171847 
L 203.465363 164.171847 
L 203.465363 164.329214 
L 204.993905 164.407898 
L 204.993905 164.486582 
L 207.286719 164.565265 
L 207.286719 164.643949 
L 209.579533 164.722633 
L 209.579533 164.801316 
L 217.222245 164.801316 
L 217.222245 164.801316 
" clip-path="url(#peb3a03355c)" style="fill: none; stroke: #bf00bf; stroke-width: 1.5; stroke-linecap: square"/>
   </g>
   <g id="patch_3">
    <path d="M 64.368 164.88 
L 64.368 30.984 
" style="fill: none; stroke: #000000; stroke-width: 0.8; stroke-linejoin: miter; stroke-linecap: square"/>
   </g>
   <g id="patch_4">
    <path d="M 217.222245 164.88 
L 217.222245 30.984 
" style="fill: none; stroke: #000000; stroke-width: 0.8; stroke-linejoin: miter; stroke-linecap: square"/>
   </g>
   <g id="patch_5">
    <path d="M 64.368 164.88 
L 217.222245 164.88 
" style="fill: none; stroke: #000000; stroke-width: 0.8; stroke-linejoin: miter; stroke-linecap: square"/>
   </g>
   <g id="patch_6">
    <path d="M 64.368 30.984 
L 217.222245 30.984 
" style="fill: none; stroke: #000000; stroke-width: 0.8; stroke-linejoin: miter; stroke-linecap: square"/>
   </g>
   <g id="text_1">
    <!-- $\Omega_{2,0}$ = ${0.2969}_{-0.0156}^{+0.0148}$ -->
    <g transform="translate(70.585122 24.984) scale(0.14 -0.14)">
     <defs>
      <path id="DejaVuSans-3a9" d="M 4647 556 
L 4647 0 
L 2772 0 
L 2772 556 
Q 3325 859 3634 1378 
Q 3944 1897 3944 2528 
Q 3944 3278 3531 3731 
Q 3119 4184 2444 4184 
Q 1769 4184 1355 3729 
Q 941 3275 941 2528 
Q 941 1897 1250 1378 
Q 1563 859 2119 556 
L 2119 0 
L 244 0 
L 244 556 
L 1241 556 
Q 747 991 519 1456 
Q 294 1922 294 2497 
Q 294 3491 894 4106 
Q 1491 4722 2444 4722 
Q 3391 4722 3994 4106 
Q 4594 3494 4594 2528 
Q 4594 1922 4372 1459 
Q 4150 997 3647 556 
L 4647 556 
z
" transform="scale(0.015625)"/>
      <path id="DejaVuSans-32" d="M 1228 531 
L 3431 531 
L 3431 0 
L 469 0 
L 469 531 
Q 828 903 1448 1529 
Q 2069 2156 2228 2338 
Q 2531 2678 2651 2914 
Q 2772 3150 2772 3378 
Q 2772 3750 2511 3984 
Q 2250 4219 1831 4219 
Q 1534 4219 1204 4116 
Q 875 4013 500 3803 
L 500 4441 
Q 881 4594 1212 4672 
Q 1544 4750 1819 4750 
Q 2544 4750 2975 4387 
Q 3406 4025 3406 3419 
Q 3406 3131 3298 2873 
Q 3191 2616 2906 2266 
Q 2828 2175 2409 1742 
Q 1991 1309 1228 531 
z
" transform="scale(0.015625)"/>
      <path id="DejaVuSans-2c" d="M 750 794 
L 1409 794 
L 1409 256 
L 897 -744 
L 494 -744 
L 750 256 
L 750 794 
z
" transform="scale(0.015625)"/>
      <path id="DejaVuSans-30" d="M 2034 4250 
Q 1547 4250 1301 3770 
Q 1056 3291 1056 2328 
Q 1056 1369 1301 889 
Q 1547 409 2034 409 
Q 2525 409 2770 889 
Q 3016 1369 3016 2328 
Q 3016 3291 2770 3770 
Q 2525 4250 2034 4250 
z
M 2034 4750 
Q 2819 4750 3233 4129 
Q 3647 3509 3647 2328 
Q 3647 1150 3233 529 
Q 2819 -91 2034 -91 
Q 1250 -91 836 529 
Q 422 1150 422 2328 
Q 422 3509 836 4129 
Q 1250 4750 2034 4750 
z
" transform="scale(0.015625)"/>
      <path id="DejaVuSans-20" transform="scale(0.015625)"/>
      <path id="DejaVuSans-3d" d="M 678 2906 
L 4684 2906 
L 4684 2381 
L 678 2381 
L 678 2906 
z
M 678 1631 
L 4684 1631 
L 4684 1100 
L 678 1100 
L 678 1631 
z
" transform="scale(0.015625)"/>
      <path id="DejaVuSans-2e" d="M 684 794 
L 1344 794 
L 1344 0 
L 684 0 
L 684 794 
z
" transform="scale(0.015625)"/>
      <path id="DejaVuSans-39" d="M 703 97 
L 703 672 
Q 941 559 1184 500 
Q 1428 441 1663 441 
Q 2288 441 2617 861 
Q 2947 1281 2994 2138 
Q 2813 1869 2534 1725 
Q 2256 1581 1919 1581 
Q 1219 1581 811 2004 
Q 403 2428 403 3163 
Q 403 3881 828 4315 
Q 1253 4750 1959 4750 
Q 2769 4750 3195 4129 
Q 3622 3509 3622 2328 
Q 3622 1225 3098 567 
Q 2575 -91 1691 -91 
Q 1453 -91 1209 -44 
Q 966 3 703 97 
z
M 1959 2075 
Q 2384 2075 2632 2365 
Q 2881 2656 2881 3163 
Q 2881 3666 2632 3958 
Q 2384 4250 1959 4250 
Q 1534 4250 1286 3958 
Q 1038 3666 1038 3163 
Q 1038 2656 1286 2365 
Q 1534 2075 1959 2075 
z
" transform="scale(0.015625)"/>
      <path id="DejaVuSans-36" d="M 2113 2584 
Q 1688 2584 1439 2293 
Q 1191 2003 1191 1497 
Q 1191 994 1439 701 
Q 1688 409 2113 409 
Q 2538 409 2786 701 
Q 3034 994 3034 1497 
Q 3034 2003 2786 2293 
Q 2538 2584 2113 2584 
z
M 3366 4563 
L 3366 3988 
Q 3128 4100 2886 4159 
Q 2644 4219 2406 4219 
Q 1781 4219 1451 3797 
Q 1122 3375 1075 2522 
Q 1259 2794 1537 2939 
Q 1816 3084 2150 3084 
Q 2853 3084 3261 2657 
Q 3669 2231 3669 1497 
Q 3669 778 3244 343 
Q 2819 -91 2113 -91 
Q 1303 -91 875 529 
Q 447 1150 447 2328 
Q 447 3434 972 4092 
Q 1497 4750 2381 4750 
Q 2619 4750 2861 4703 
Q 3103 4656 3366 4563 
z
" transform="scale(0.015625)"/>
      <path id="DejaVuSans-2b" d="M 2944 4013 
L 2944 2272 
L 4684 2272 
L 4684 1741 
L 2944 1741 
L 2944 0 
L 2419 0 
L 2419 1741 
L 678 1741 
L 678 2272 
L 2419 2272 
L 2419 4013 
L 2944 4013 
z
" transform="scale(0.015625)"/>
      <path id="DejaVuSans-31" d="M 794 531 
L 1825 531 
L 1825 4091 
L 703 3866 
L 703 4441 
L 1819 4666 
L 2450 4666 
L 2450 531 
L 3481 531 
L 3481 0 
L 794 0 
L 794 531 
z
" transform="scale(0.015625)"/>
      <path id="DejaVuSans-34" d="M 2419 4116 
L 825 1625 
L 2419 1625 
L 2419 4116 
z
M 2253 4666 
L 3047 4666 
L 3047 1625 
L 3713 1625 
L 3713 1100 
L 3047 1100 
L 3047 0 
L 2419 0 
L 2419 1100 
L 313 1100 
L 313 1709 
L 2253 4666 
z
" transform="scale(0.015625)"/>
      <path id="DejaVuSans-38" d="M 2034 2216 
Q 1584 2216 1326 1975 
Q 1069 1734 1069 1313 
Q 1069 891 1326 650 
Q 1584 409 2034 409 
Q 2484 409 2743 651 
Q 3003 894 3003 1313 
Q 3003 1734 2745 1975 
Q 2488 2216 2034 2216 
z
M 1403 2484 
Q 997 2584 770 2862 
Q 544 3141 544 3541 
Q 544 4100 942 4425 
Q 1341 4750 2034 4750 
Q 2731 4750 3128 4425 
Q 3525 4100 3525 3541 
Q 3525 3141 3298 2862 
Q 3072 2584 2669 2484 
Q 3125 2378 3379 2068 
Q 3634 1759 3634 1313 
Q 3634 634 3220 271 
Q 2806 -91 2034 -91 
Q 1263 -91 848 271 
Q 434 634 434 1313 
Q 434 1759 690 2068 
Q 947 2378 1403 2484 
z
M 1172 3481 
Q 1172 3119 1398 2916 
Q 1625 2713 2034 2713 
Q 2441 2713 2670 2916 
Q 2900 3119 2900 3481 
Q 2900 3844 2670 4047 
Q 2441 4250 2034 4250 
Q 1625 4250 1398 4047 
Q 1172 3844 1172 3481 
z
" transform="scale(0.015625)"/>
      <path id="DejaVuSans-2212" d="M 678 2272 
L 4684 2272 
L 4684 1741 
L 678 1741 
L 678 2272 
z
" transform="scale(0.015625)"/>
      <path id="DejaVuSans-35" d="M 691 4666 
L 3169 4666 
L 3169 4134 
L 1269 4134 
L 1269 2991 
Q 1406 3038 1543 3061 
Q 1681 3084 1819 3084 
Q 2600 3084 3056 2656 
Q 3513 2228 3513 1497 
Q 3513 744 3044 326 
Q 2575 -91 1722 -91 
Q 1428 -91 1123 -41 
Q 819 9 494 109 
L 494 744 
Q 775 591 1075 516 
Q 1375 441 1709 441 
Q 2250 441 2565 725 
Q 2881 1009 2881 1497 
Q 2881 1984 2565 2268 
Q 2250 2553 1709 2553 
Q 1456 2553 1204 2497 
Q 953 2441 691 2322 
L 691 4666 
z
" transform="scale(0.015625)"/>
     </defs>
     <use xlink:href="#DejaVuSans-3a9" transform="translate(0 0.765625)"/>
     <use xlink:href="#DejaVuSans-32" transform="translate(77.373047 -15.640625) scale(0.7)"/>
     <use xlink:href="#DejaVuSans-2c" transform="translate(121.90918 -15.640625) scale(0.7)"/>
     <use xlink:href="#DejaVuSans-30" transform="translate(157.797852 -15.640625) scale(0.7)"/>
     <use xlink:href="#DejaVuSans-20" transform="translate(205.068359 0.765625)"/>
     <use xlink:href="#DejaVuSans-3d" transform="translate(236.855469 0.765625)"/>
     <use xlink:href="#DejaVuSans-20" transform="translate(320.644531 0.765625)"/>
     <use xlink:href="#DejaVuSans-30" transform="translate(352.431641 0.765625)"/>
     <use xlink:href="#DejaVuSans-2e" transform="translate(416.054688 0.765625)"/>
     <use xlink:href="#DejaVuSans-32" transform="translate(442.341797 0.765625)"/>
     <use xlink:href="#DejaVuSans-39" transform="translate(504.214844 0.765625)"/>
     <use xlink:href="#DejaVuSans-36" transform="translate(567.837891 0.765625)"/>
     <use xlink:href="#DejaVuSans-39" transform="translate(631.460938 0.765625)"/>
     <use xlink:href="#DejaVuSans-2b" transform="translate(696.041016 39.046875) scale(0.7)"/>
     <use xlink:href="#DejaVuSans-30" transform="translate(754.693359 39.046875) scale(0.7)"/>
     <use xlink:href="#DejaVuSans-2e" transform="translate(799.229492 39.046875) scale(0.7)"/>
     <use xlink:href="#DejaVuSans-30" transform="translate(821.480469 39.046875) scale(0.7)"/>
     <use xlink:href="#DejaVuSans-31" transform="translate(866.016602 39.046875) scale(0.7)"/>
     <use xlink:href="#DejaVuSans-34" transform="translate(910.552734 39.046875) scale(0.7)"/>
     <use xlink:href="#DejaVuSans-38" transform="translate(955.088867 39.046875) scale(0.7)"/>
     <use xlink:href="#DejaVuSans-2212" transform="translate(696.041016 -26.578125) scale(0.7)"/>
     <use xlink:href="#DejaVuSans-30" transform="translate(754.693359 -26.578125) scale(0.7)"/>
     <use xlink:href="#DejaVuSans-2e" transform="translate(799.229492 -26.578125) scale(0.7)"/>
     <use xlink:href="#DejaVuSans-30" transform="translate(821.480469 -26.578125) scale(0.7)"/>
     <use xlink:href="#DejaVuSans-31" transform="translate(866.016602 -26.578125) scale(0.7)"/>
     <use xlink:href="#DejaVuSans-35" transform="translate(910.552734 -26.578125) scale(0.7)"/>
     <use xlink:href="#DejaVuSans-36" transform="translate(955.088867 -26.578125) scale(0.7)"/>
    </g>
   </g>
  </g>
  <g id="axes_2">
   <g id="matplotlib.axis_3"/>
   <g id="matplotlib.axis_4"/>
  </g>
  <g id="axes_3">
   <g id="patch_7">
    <path d="M 64.368 329.76 
L 217.222245 329.76 
L 217.222245 195.864 
L 64.368 195.864 
z
" style="fill: #ffffff"/>
   </g>
   <g id="QuadContourSet_1">
    <path d="M 160.666174 302.183022 
L 163.723259 302.344785 
L 166.780344 302.756847 
L 169.837429 303.498613 
L 172.894514 303.214433 
L 175.79968 301.64184 
L 175.951599 301.527632 
L 179.008684 299.339049 
L 179.375949 298.96392 
L 182.065768 296.663179 
L 182.437932 296.286 
L 184.943941 293.60808 
L 185.122853 293.295486 
L 187.14012 290.93016 
L 188.179938 289.481523 
L 188.846329 288.25224 
L 189.720973 285.57432 
L 188.728028 282.8964 
L 188.179938 282.012336 
L 187.475494 280.21848 
L 186.810385 277.54056 
L 185.967663 274.86264 
L 185.122853 272.800991 
L 184.953784 272.18472 
L 183.674541 269.5068 
L 182.065768 267.590214 
L 181.578345 266.82888 
L 180.218786 264.15096 
L 179.008684 262.132483 
L 178.675348 261.47304 
L 176.673312 258.79512 
L 175.951599 257.737136 
L 174.992708 256.1172 
L 173.06595 253.43928 
L 172.894514 253.212343 
L 171.212052 250.76136 
L 169.837429 249.272043 
L 168.651349 248.08344 
L 166.780344 246.532694 
L 165.745767 245.40552 
L 163.723259 243.680938 
L 162.51097 242.7276 
L 160.666174 241.3807 
L 158.254065 240.04968 
L 157.609089 239.591325 
L 154.552004 237.63777 
L 154.033392 237.37176 
L 151.49492 236.067112 
L 149.00252 234.69384 
L 148.437835 234.278147 
L 145.613562 232.01592 
L 145.38075 231.816272 
L 142.323665 229.479815 
L 142.092881 229.338 
L 139.26658 227.540126 
L 137.507893 226.66008 
L 136.209495 225.905646 
L 133.15241 224.579621 
L 130.99713 223.98216 
L 130.095325 223.661326 
L 127.03824 222.863478 
L 123.981155 222.108319 
L 120.924071 221.639626 
L 117.866986 221.30424 
L 117.866986 221.30424 
L 114.809901 220.331329 
L 111.752816 219.832876 
L 108.695731 219.833409 
L 105.638646 220.286016 
L 102.581561 221.077657 
L 102.11584 221.30424 
L 99.524476 223.573061 
L 99.213121 223.98216 
L 96.930881 226.66008 
L 96.467391 227.496779 
L 95.508583 229.338 
L 94.306422 232.01592 
L 93.410307 234.021415 
L 92.901512 234.69384 
L 93.410307 236.227957 
L 93.637374 237.37176 
L 95.093551 240.04968 
L 96.428047 242.7276 
L 96.467391 242.831551 
L 97.051946 245.40552 
L 98.04314 248.08344 
L 99.307869 250.76136 
L 99.524476 251.288756 
L 100.348963 253.43928 
L 102.394891 256.1172 
L 102.581561 256.293996 
L 104.230022 258.79512 
L 105.638646 260.643037 
L 106.165312 261.47304 
L 108.556773 264.15096 
L 108.695731 264.275626 
L 111.069465 266.82888 
L 111.752816 267.553636 
L 113.121285 269.5068 
L 114.809901 271.68626 
L 115.180815 272.18472 
L 117.866986 274.780945 
L 117.985804 274.86264 
L 120.924071 276.770859 
L 122.059968 277.54056 
L 123.981155 279.128377 
L 125.075938 280.21848 
L 127.03824 282.352435 
L 127.596994 282.8964 
L 130.095325 284.880564 
L 131.08454 285.57432 
L 133.15241 287.430359 
L 134.201582 288.25224 
L 136.209495 289.59342 
L 138.330622 290.93016 
L 139.26658 291.579657 
L 142.323665 293.400368 
L 142.712358 293.60808 
L 145.38075 295.548115 
L 146.723873 296.286 
L 148.437835 297.273612 
L 151.49492 298.721032 
L 152.112845 298.96392 
L 154.552004 300.177604 
L 157.609089 301.402034 
L 158.594896 301.64184 
z
" clip-path="url(#p5018c5d368)" style="fill: #ffffff"/>
   </g>
   <g id="QuadContourSet_2">
    <path d="M 62.839458 333.77688 
L 65.896542 333.77688 
L 68.953627 333.77688 
L 72.010712 333.77688 
L 75.067797 333.77688 
L 78.124882 333.77688 
L 81.181967 333.77688 
L 84.239052 333.77688 
L 87.296137 333.77688 
L 90.353222 333.77688 
L 93.410307 333.77688 
L 96.467391 333.77688 
L 99.524476 333.77688 
L 102.581561 333.77688 
L 105.638646 333.77688 
L 108.695731 333.77688 
L 111.752816 333.77688 
L 114.809901 333.77688 
L 117.866986 333.77688 
L 120.924071 333.77688 
L 123.981155 333.77688 
L 127.03824 333.77688 
L 130.095325 333.77688 
L 133.15241 333.77688 
L 136.209495 333.77688 
L 139.26658 333.77688 
L 142.323665 333.77688 
L 145.38075 333.77688 
L 148.437835 333.77688 
L 151.49492 333.77688 
L 154.552004 333.77688 
L 157.609089 333.77688 
L 160.666174 333.77688 
L 163.723259 333.77688 
L 166.780344 333.77688 
L 169.837429 333.77688 
L 172.894514 333.77688 
L 175.951599 333.77688 
L 179.008684 333.77688 
L 182.065768 333.77688 
L 185.122853 333.77688 
L 188.179938 333.77688 
L 191.237023 333.77688 
L 194.294108 333.77688 
L 197.351193 333.77688 
L 200.408278 333.77688 
L 203.465363 333.77688 
L 206.522448 333.77688 
L 209.579533 333.77688 
L 212.636617 333.77688 
L 215.693702 333.77688 
L 218.750787 333.77688 
L 221.807872 333.77688 
L 221.807872 331.09896 
L 221.807872 328.42104 
L 221.807872 325.74312 
L 221.807872 323.0652 
L 221.807872 320.38728 
L 221.807872 317.70936 
L 221.807872 315.03144 
L 221.807872 312.35352 
L 221.807872 309.6756 
L 221.807872 306.99768 
L 221.807872 304.31976 
L 221.807872 301.64184 
L 221.807872 298.96392 
L 221.807872 296.286 
L 221.807872 293.60808 
L 221.807872 290.93016 
L 221.807872 288.25224 
L 221.807872 285.57432 
L 221.807872 282.8964 
L 221.807872 280.21848 
L 221.807872 277.54056 
L 221.807872 274.86264 
L 221.807872 272.18472 
L 221.807872 269.5068 
L 221.807872 266.82888 
L 221.807872 264.15096 
L 221.807872 261.47304 
L 221.807872 258.79512 
L 221.807872 256.1172 
L 221.807872 253.43928 
L 221.807872 250.76136 
L 221.807872 248.08344 
L 221.807872 245.40552 
L 221.807872 242.7276 
L 221.807872 240.04968 
L 221.807872 237.37176 
L 221.807872 234.69384 
L 221.807872 232.01592 
L 221.807872 229.338 
L 221.807872 226.66008 
L 221.807872 223.98216 
L 221.807872 221.30424 
L 221.807872 218.62632 
L 221.807872 215.9484 
L 221.807872 213.27048 
L 221.807872 210.59256 
L 221.807872 207.91464 
L 221.807872 205.23672 
L 221.807872 202.5588 
L 221.807872 199.88088 
L 221.807872 197.20296 
L 221.807872 194.52504 
L 221.807872 191.84712 
L 218.750787 191.84712 
L 215.693702 191.84712 
L 212.636617 191.84712 
L 209.579533 191.84712 
L 206.522448 191.84712 
L 203.465363 191.84712 
L 200.408278 191.84712 
L 197.351193 191.84712 
L 194.294108 191.84712 
L 191.237023 191.84712 
L 188.179938 191.84712 
L 185.122853 191.84712 
L 182.065768 191.84712 
L 179.008684 191.84712 
L 175.951599 191.84712 
L 172.894514 191.84712 
L 169.837429 191.84712 
L 166.780344 191.84712 
L 163.723259 191.84712 
L 160.666174 191.84712 
L 157.609089 191.84712 
L 154.552004 191.84712 
L 151.49492 191.84712 
L 148.437835 191.84712 
L 145.38075 191.84712 
L 142.323665 191.84712 
L 139.26658 191.84712 
L 136.209495 191.84712 
L 133.15241 191.84712 
L 130.095325 191.84712 
L 127.03824 191.84712 
L 123.981155 191.84712 
L 120.924071 191.84712 
L 117.866986 191.84712 
L 114.809901 191.84712 
L 111.752816 191.84712 
L 108.695731 191.84712 
L 105.638646 191.84712 
L 102.581561 191.84712 
L 99.524476 191.84712 
L 96.467391 191.84712 
L 93.410307 191.84712 
L 90.353222 191.84712 
L 87.296137 191.84712 
L 84.239052 191.84712 
L 81.181967 191.84712 
L 78.124882 191.84712 
L 75.067797 191.84712 
L 72.010712 191.84712 
L 68.953627 191.84712 
L 65.896542 191.84712 
L 62.839458 191.84712 
L 59.782373 191.84712 
L 59.782373 194.52504 
L 59.782373 197.20296 
L 59.782373 199.88088 
L 59.782373 202.5588 
L 59.782373 205.23672 
L 59.782373 207.91464 
L 59.782373 210.59256 
L 59.782373 213.27048 
L 59.782373 215.9484 
L 59.782373 218.62632 
L 59.782373 221.30424 
L 59.782373 223.98216 
L 59.782373 226.66008 
L 59.782373 229.338 
L 59.782373 232.01592 
L 59.782373 234.69384 
L 59.782373 237.37176 
L 59.782373 240.04968 
L 59.782373 242.7276 
L 59.782373 245.40552 
L 59.782373 248.08344 
L 59.782373 250.76136 
L 59.782373 253.43928 
L 59.782373 256.1172 
L 59.782373 258.79512 
L 59.782373 261.47304 
L 59.782373 264.15096 
L 59.782373 266.82888 
L 59.782373 269.5068 
L 59.782373 272.18472 
L 59.782373 274.86264 
L 59.782373 277.54056 
L 59.782373 280.21848 
L 59.782373 282.8964 
L 59.782373 285.57432 
L 59.782373 288.25224 
L 59.782373 290.93016 
L 59.782373 293.60808 
L 59.782373 296.286 
L 59.782373 298.96392 
L 59.782373 301.64184 
L 59.782373 304.31976 
L 59.782373 306.99768 
L 59.782373 309.6756 
L 59.782373 312.35352 
L 59.782373 315.03144 
L 59.782373 317.70936 
L 59.782373 320.38728 
L 59.782373 323.0652 
L 59.782373 325.74312 
L 59.782373 328.42104 
L 59.782373 331.09896 
L 59.782373 333.77688 
L 62.839458 333.77688 
z
M 158.594896 301.64184 
L 157.609089 301.402034 
L 154.552004 300.177604 
L 152.112845 298.96392 
L 151.49492 298.721032 
L 148.437835 297.273612 
L 146.723873 296.286 
L 145.38075 295.548115 
L 142.712358 293.60808 
L 142.323665 293.400368 
L 139.26658 291.579657 
L 138.330622 290.93016 
L 136.209495 289.59342 
L 134.201582 288.25224 
L 133.15241 287.430359 
L 131.08454 285.57432 
L 130.095325 284.880564 
L 127.596994 282.8964 
L 127.03824 282.352435 
L 125.075938 280.21848 
L 123.981155 279.128377 
L 122.059968 277.54056 
L 120.924071 276.770859 
L 117.985804 274.86264 
L 117.866986 274.780945 
L 115.180815 272.18472 
L 114.809901 271.68626 
L 113.121285 269.5068 
L 111.752816 267.553636 
L 111.069465 266.82888 
L 108.695731 264.275626 
L 108.556773 264.15096 
L 106.165312 261.47304 
L 105.638646 260.643037 
L 104.230022 258.79512 
L 102.581561 256.293996 
L 102.394891 256.1172 
L 100.348963 253.43928 
L 99.524476 251.288756 
L 99.307869 250.76136 
L 98.04314 248.08344 
L 97.051946 245.40552 
L 96.467391 242.831551 
L 96.428047 242.7276 
L 95.093551 240.04968 
L 93.637374 237.37176 
L 93.410307 236.227957 
L 92.901512 234.69384 
L 93.410307 234.021415 
L 94.306422 232.01592 
L 95.508583 229.338 
L 96.467391 227.496779 
L 96.930881 226.66008 
L 99.213121 223.98216 
L 99.524476 223.573061 
L 102.11584 221.30424 
L 102.581561 221.077657 
L 105.638646 220.286016 
L 108.695731 219.833409 
L 111.752816 219.832876 
L 114.809901 220.331329 
L 117.866986 221.30424 
L 117.866986 221.30424 
L 120.924071 221.639626 
L 123.981155 222.108319 
L 127.03824 222.863478 
L 130.095325 223.661326 
L 130.99713 223.98216 
L 133.15241 224.579621 
L 136.209495 225.905646 
L 137.507893 226.66008 
L 139.26658 227.540126 
L 142.092881 229.338 
L 142.323665 229.479815 
L 145.38075 231.816272 
L 145.613562 232.01592 
L 148.437835 234.278147 
L 149.00252 234.69384 
L 151.49492 236.067112 
L 154.033392 237.37176 
L 154.552004 237.63777 
L 157.609089 239.591325 
L 158.254065 240.04968 
L 160.666174 241.3807 
L 162.51097 242.7276 
L 163.723259 243.680938 
L 165.745767 245.40552 
L 166.780344 246.532694 
L 168.651349 248.08344 
L 169.837429 249.272043 
L 171.212052 250.76136 
L 172.894514 253.212343 
L 173.06595 253.43928 
L 174.992708 256.1172 
L 175.951599 257.737136 
L 176.673312 258.79512 
L 178.675348 261.47304 
L 179.008684 262.132483 
L 180.218786 264.15096 
L 181.578345 266.82888 
L 182.065768 267.590214 
L 183.674541 269.5068 
L 184.953784 272.18472 
L 185.122853 272.800991 
L 185.967663 274.86264 
L 186.810385 277.54056 
L 187.475494 280.21848 
L 188.179938 282.012336 
L 188.728028 282.8964 
L 189.720973 285.57432 
L 188.846329 288.25224 
L 188.179938 289.481523 
L 187.14012 290.93016 
L 185.122853 293.295486 
L 184.943941 293.60808 
L 182.437932 296.286 
L 182.065768 296.663179 
L 179.375949 298.96392 
L 179.008684 299.339049 
L 175.951599 301.527632 
L 175.79968 301.64184 
L 172.894514 303.214433 
L 169.837429 303.498613 
L 166.780344 302.756847 
L 163.723259 302.344785 
L 160.666174 302.183022 
L 158.594896 301.64184 
z
" clip-path="url(#p5018c5d368)" style="fill: none"/>
    <path d="M 160.666174 302.183022 
L 163.723259 302.344785 
L 166.780344 302.756847 
L 169.837429 303.498613 
L 172.894514 303.214433 
L 175.79968 301.64184 
L 175.951599 301.527632 
L 179.008684 299.339049 
L 179.375949 298.96392 
L 182.065768 296.663179 
L 182.437932 296.286 
L 184.943941 293.60808 
L 185.122853 293.295486 
L 187.14012 290.93016 
L 188.179938 289.481523 
L 188.846329 288.25224 
L 189.720973 285.57432 
L 188.728028 282.8964 
L 188.179938 282.012336 
L 187.475494 280.21848 
L 186.810385 277.54056 
L 185.967663 274.86264 
L 185.122853 272.800991 
L 184.953784 272.18472 
L 183.674541 269.5068 
L 182.065768 267.590214 
L 181.578345 266.82888 
L 180.218786 264.15096 
L 179.008684 262.132483 
L 178.675348 261.47304 
L 176.673312 258.79512 
L 175.951599 257.737136 
L 174.992708 256.1172 
L 173.06595 253.43928 
L 172.894514 253.212343 
L 171.212052 250.76136 
L 169.837429 249.272043 
L 168.651349 248.08344 
L 166.780344 246.532694 
L 165.745767 245.40552 
L 163.723259 243.680938 
L 162.51097 242.7276 
L 160.666174 241.3807 
L 158.254065 240.04968 
L 157.609089 239.591325 
L 154.552004 237.63777 
L 154.033392 237.37176 
L 151.49492 236.067112 
L 149.00252 234.69384 
L 148.437835 234.278147 
L 145.613562 232.01592 
L 145.38075 231.816272 
L 142.323665 229.479815 
L 142.092881 229.338 
L 139.26658 227.540126 
L 137.507893 226.66008 
L 136.209495 225.905646 
L 133.15241 224.579621 
L 130.99713 223.98216 
L 130.095325 223.661326 
L 127.03824 222.863478 
L 123.981155 222.108319 
L 120.924071 221.639626 
L 117.866986 221.30424 
L 117.866986 221.30424 
L 114.809901 220.331329 
L 111.752816 219.832876 
L 108.695731 219.833409 
L 105.638646 220.286016 
L 102.581561 221.077657 
L 102.11584 221.30424 
L 99.524476 223.573061 
L 99.213121 223.98216 
L 96.930881 226.66008 
L 96.467391 227.496779 
L 95.508583 229.338 
L 94.306422 232.01592 
L 93.410307 234.021415 
L 92.901512 234.69384 
L 93.410307 236.227957 
L 93.637374 237.37176 
L 95.093551 240.04968 
L 96.428047 242.7276 
L 96.467391 242.831551 
L 97.051946 245.40552 
L 98.04314 248.08344 
L 99.307869 250.76136 
L 99.524476 251.288756 
L 100.348963 253.43928 
L 102.394891 256.1172 
L 102.581561 256.293996 
L 104.230022 258.79512 
L 105.638646 260.643037 
L 106.165312 261.47304 
L 108.556773 264.15096 
L 108.695731 264.275626 
L 111.069465 266.82888 
L 111.752816 267.553636 
L 113.121285 269.5068 
L 114.809901 271.68626 
L 115.180815 272.18472 
L 117.866986 274.780945 
L 117.985804 274.86264 
L 120.924071 276.770859 
L 122.059968 277.54056 
L 123.981155 279.128377 
L 125.075938 280.21848 
L 127.03824 282.352435 
L 127.596994 282.8964 
L 130.095325 284.880564 
L 131.08454 285.57432 
L 133.15241 287.430359 
L 134.201582 288.25224 
L 136.209495 289.59342 
L 138.330622 290.93016 
L 139.26658 291.579657 
L 142.323665 293.400368 
L 142.712358 293.60808 
L 145.38075 295.548115 
L 146.723873 296.286 
L 148.437835 297.273612 
L 151.49492 298.721032 
L 152.112845 298.96392 
L 154.552004 300.177604 
L 157.609089 301.402034 
L 158.594896 301.64184 
z
M 156.877895 285.57432 
L 154.552004 285.293146 
L 151.49492 284.231649 
L 148.437835 283.102662 
L 147.962872 282.8964 
L 145.38075 281.972534 
L 142.323665 280.536462 
L 141.780867 280.21848 
L 139.26658 278.527442 
L 138.011375 277.54056 
L 136.209495 276.243237 
L 134.56623 274.86264 
L 133.15241 273.940091 
L 130.725411 272.18472 
L 130.095325 271.772075 
L 127.03824 269.5068 
L 127.03824 269.5068 
L 124.195209 266.82888 
L 123.981155 266.603887 
L 121.64266 264.15096 
L 120.924071 263.362639 
L 119.355516 261.47304 
L 117.866986 259.133844 
L 117.633594 258.79512 
L 116.049867 256.1172 
L 114.809901 254.039443 
L 114.370579 253.43928 
L 112.616132 250.76136 
L 111.925655 248.08344 
L 111.959157 245.40552 
L 112.172086 242.7276 
L 112.44633 240.04968 
L 113.866742 237.37176 
L 114.809901 236.52444 
L 117.866986 235.315731 
L 120.924071 234.996566 
L 123.981155 235.051389 
L 127.03824 235.504228 
L 130.095325 236.113077 
L 133.15241 237.084076 
L 133.658248 237.37176 
L 136.209495 238.812499 
L 138.375174 240.04968 
L 139.26658 240.388216 
L 142.323665 241.449259 
L 145.009598 242.7276 
L 145.38075 242.895671 
L 148.437835 244.988056 
L 148.976091 245.40552 
L 151.49492 247.717563 
L 151.947613 248.08344 
L 154.552004 250.746118 
L 154.567393 250.76136 
L 157.243821 253.43928 
L 157.609089 253.807248 
L 159.597532 256.1172 
L 160.666174 257.530732 
L 161.790901 258.79512 
L 163.723259 261.142147 
L 163.990387 261.47304 
L 165.512112 264.15096 
L 166.780344 266.616559 
L 166.907041 266.82888 
L 168.066489 269.5068 
L 168.102519 272.18472 
L 167.600099 274.86264 
L 167.153544 277.54056 
L 166.780344 278.546232 
L 166.074382 280.21848 
L 163.723259 282.634421 
L 163.427307 282.8964 
L 160.666174 284.76432 
L 157.960447 285.57432 
L 157.609089 285.657055 
z
" clip-path="url(#p5018c5d368)" style="fill: #bf00bf; fill-opacity: 0.333333"/>
    <path d="M 157.609089 285.657055 
L 157.960447 285.57432 
L 160.666174 284.76432 
L 163.427307 282.8964 
L 163.723259 282.634421 
L 166.074382 280.21848 
L 166.780344 278.546232 
L 167.153544 277.54056 
L 167.600099 274.86264 
L 168.102519 272.18472 
L 168.066489 269.5068 
L 166.907041 266.82888 
L 166.780344 266.616559 
L 165.512112 264.15096 
L 163.990387 261.47304 
L 163.723259 261.142147 
L 161.790901 258.79512 
L 160.666174 257.530732 
L 159.597532 256.1172 
L 157.609089 253.807248 
L 157.243821 253.43928 
L 154.567393 250.76136 
L 154.552004 250.746118 
L 151.947613 248.08344 
L 151.49492 247.717563 
L 148.976091 245.40552 
L 148.437835 244.988056 
L 145.38075 242.895671 
L 145.009598 242.7276 
L 142.323665 241.449259 
L 139.26658 240.388216 
L 138.375174 240.04968 
L 136.209495 238.812499 
L 133.658248 237.37176 
L 133.15241 237.084076 
L 130.095325 236.113077 
L 127.03824 235.504228 
L 123.981155 235.051389 
L 120.924071 234.996566 
L 117.866986 235.315731 
L 114.809901 236.52444 
L 113.866742 237.37176 
L 112.44633 240.04968 
L 112.172086 242.7276 
L 111.959157 245.40552 
L 111.925655 248.08344 
L 112.616132 250.76136 
L 114.370579 253.43928 
L 114.809901 254.039443 
L 116.049867 256.1172 
L 117.633594 258.79512 
L 117.866986 259.133844 
L 119.355516 261.47304 
L 120.924071 263.362639 
L 121.64266 264.15096 
L 123.981155 266.603887 
L 124.195209 266.82888 
L 127.03824 269.5068 
L 127.03824 269.5068 
L 130.095325 271.772075 
L 130.725411 272.18472 
L 133.15241 273.940091 
L 134.56623 274.86264 
L 136.209495 276.243237 
L 138.011375 277.54056 
L 139.26658 278.527442 
L 141.780867 280.21848 
L 142.323665 280.536462 
L 145.38075 281.972534 
L 147.962872 282.8964 
L 148.437835 283.102662 
L 151.49492 284.231649 
L 154.552004 285.293146 
L 156.877895 285.57432 
z
" clip-path="url(#p5018c5d368)" style="fill: #bf00bf"/>
   </g>
   <g id="matplotlib.axis_5">
    <g id="xtick_5">
     <g id="line2d_6">
      <g>
       <use xlink:href="#m6c31081a4a" x="72.343275" y="329.76" style="stroke: #000000; stroke-width: 0.8"/>
      </g>
     </g>
     <g id="text_2">
      <!-- 0.24 -->
      <g transform="translate(66.422361 357.877081) rotate(-45) scale(0.1 -0.1)">
       <use xlink:href="#DejaVuSans-30"/>
       <use xlink:href="#DejaVuSans-2e" x="63.623047"/>
       <use xlink:href="#DejaVuSans-32" x="95.410156"/>
       <use xlink:href="#DejaVuSans-34" x="159.033203"/>
      </g>
     </g>
    </g>
    <g id="xtick_6">
     <g id="line2d_7">
      <g>
       <use xlink:href="#m6c31081a4a" x="108.631735" y="329.76" style="stroke: #000000; stroke-width: 0.8"/>
      </g>
     </g>
     <g id="text_3">
      <!-- 0.27 -->
      <g transform="translate(102.71082 357.877081) rotate(-45) scale(0.1 -0.1)">
       <defs>
        <path id="DejaVuSans-37" d="M 525 4666 
L 3525 4666 
L 3525 4397 
L 1831 0 
L 1172 0 
L 2766 4134 
L 525 4134 
L 525 4666 
z
" transform="scale(0.015625)"/>
       </defs>
       <use xlink:href="#DejaVuSans-30"/>
       <use xlink:href="#DejaVuSans-2e" x="63.623047"/>
       <use xlink:href="#DejaVuSans-32" x="95.410156"/>
       <use xlink:href="#DejaVuSans-37" x="159.033203"/>
      </g>
     </g>
    </g>
    <g id="xtick_7">
     <g id="line2d_8">
      <g>
       <use xlink:href="#m6c31081a4a" x="144.920194" y="329.76" style="stroke: #000000; stroke-width: 0.8"/>
      </g>
     </g>
     <g id="text_4">
      <!-- 0.30 -->
      <g transform="translate(138.99928 357.877081) rotate(-45) scale(0.1 -0.1)">
       <defs>
        <path id="DejaVuSans-33" d="M 2597 2516 
Q 3050 2419 3304 2112 
Q 3559 1806 3559 1356 
Q 3559 666 3084 287 
Q 2609 -91 1734 -91 
Q 1441 -91 1130 -33 
Q 819 25 488 141 
L 488 750 
Q 750 597 1062 519 
Q 1375 441 1716 441 
Q 2309 441 2620 675 
Q 2931 909 2931 1356 
Q 2931 1769 2642 2001 
Q 2353 2234 1838 2234 
L 1294 2234 
L 1294 2753 
L 1863 2753 
Q 2328 2753 2575 2939 
Q 2822 3125 2822 3475 
Q 2822 3834 2567 4026 
Q 2313 4219 1838 4219 
Q 1578 4219 1281 4162 
Q 984 4106 628 3988 
L 628 4550 
Q 988 4650 1302 4700 
Q 1616 4750 1894 4750 
Q 2613 4750 3031 4423 
Q 3450 4097 3450 3541 
Q 3450 3153 3228 2886 
Q 3006 2619 2597 2516 
z
" transform="scale(0.015625)"/>
       </defs>
       <use xlink:href="#DejaVuSans-30"/>
       <use xlink:href="#DejaVuSans-2e" x="63.623047"/>
       <use xlink:href="#DejaVuSans-33" x="95.410156"/>
       <use xlink:href="#DejaVuSans-30" x="159.033203"/>
      </g>
     </g>
    </g>
    <g id="xtick_8">
     <g id="line2d_9">
      <g>
       <use xlink:href="#m6c31081a4a" x="181.208654" y="329.76" style="stroke: #000000; stroke-width: 0.8"/>
      </g>
     </g>
     <g id="text_5">
      <!-- 0.33 -->
      <g transform="translate(175.287739 357.877081) rotate(-45) scale(0.1 -0.1)">
       <use xlink:href="#DejaVuSans-30"/>
       <use xlink:href="#DejaVuSans-2e" x="63.623047"/>
       <use xlink:href="#DejaVuSans-33" x="95.410156"/>
       <use xlink:href="#DejaVuSans-33" x="159.033203"/>
      </g>
     </g>
    </g>
    <g id="text_6">
     <!-- $\Omega_{2,0}$ -->
     <g transform="translate(130.495122 377.3288) scale(0.1 -0.1)">
      <use xlink:href="#DejaVuSans-3a9" transform="translate(0 0.21875)"/>
      <use xlink:href="#DejaVuSans-32" transform="translate(77.373047 -16.1875) scale(0.7)"/>
      <use xlink:href="#DejaVuSans-2c" transform="translate(121.90918 -16.1875) scale(0.7)"/>
      <use xlink:href="#DejaVuSans-30" transform="translate(157.797852 -16.1875) scale(0.7)"/>
     </g>
    </g>
   </g>
   <g id="matplotlib.axis_6">
    <g id="ytick_1">
     <g id="line2d_10">
      <defs>
       <path id="m2848484913" d="M 0 0 
L -3.5 0 
" style="stroke: #000000; stroke-width: 0.8"/>
      </defs>
      <g>
       <use xlink:href="#m2848484913" x="64.368" y="322.477866" style="stroke: #000000; stroke-width: 0.8"/>
      </g>
     </g>
     <g id="text_7">
      <!-- −1.1 -->
      <g transform="translate(38.726897 341.222095) rotate(-45) scale(0.1 -0.1)">
       <use xlink:href="#DejaVuSans-2212"/>
       <use xlink:href="#DejaVuSans-31" x="83.789062"/>
       <use xlink:href="#DejaVuSans-2e" x="147.412109"/>
       <use xlink:href="#DejaVuSans-31" x="179.199219"/>
      </g>
     </g>
    </g>
    <g id="ytick_2">
     <g id="line2d_11">
      <g>
       <use xlink:href="#m2848484913" x="64.368" y="289.29837" style="stroke: #000000; stroke-width: 0.8"/>
      </g>
     </g>
     <g id="text_8">
      <!-- −1.0 -->
      <g transform="translate(38.726897 308.042599) rotate(-45) scale(0.1 -0.1)">
       <use xlink:href="#DejaVuSans-2212"/>
       <use xlink:href="#DejaVuSans-31" x="83.789062"/>
       <use xlink:href="#DejaVuSans-2e" x="147.412109"/>
       <use xlink:href="#DejaVuSans-30" x="179.199219"/>
      </g>
     </g>
    </g>
    <g id="ytick_3">
     <g id="line2d_12">
      <g>
       <use xlink:href="#m2848484913" x="64.368" y="256.118873" style="stroke: #000000; stroke-width: 0.8"/>
      </g>
     </g>
     <g id="text_9">
      <!-- −0.9 -->
      <g transform="translate(38.726897 274.863103) rotate(-45) scale(0.1 -0.1)">
       <use xlink:href="#DejaVuSans-2212"/>
       <use xlink:href="#DejaVuSans-30" x="83.789062"/>
       <use xlink:href="#DejaVuSans-2e" x="147.412109"/>
       <use xlink:href="#DejaVuSans-39" x="179.199219"/>
      </g>
     </g>
    </g>
    <g id="ytick_4">
     <g id="line2d_13">
      <g>
       <use xlink:href="#m2848484913" x="64.368" y="222.939377" style="stroke: #000000; stroke-width: 0.8"/>
      </g>
     </g>
     <g id="text_10">
      <!-- −0.8 -->
      <g transform="translate(38.726897 241.683606) rotate(-45) scale(0.1 -0.1)">
       <use xlink:href="#DejaVuSans-2212"/>
       <use xlink:href="#DejaVuSans-30" x="83.789062"/>
       <use xlink:href="#DejaVuSans-2e" x="147.412109"/>
       <use xlink:href="#DejaVuSans-38" x="179.199219"/>
      </g>
     </g>
    </g>
    <g id="text_11">
     <!-- $w_{IDM}$ -->
     <g transform="translate(16.432039 273.812) rotate(-90) scale(0.1 -0.1)">
      <defs>
       <path id="DejaVuSans-Oblique-77" d="M 544 3500 
L 1113 3500 
L 1259 684 
L 2566 3500 
L 3231 3500 
L 3425 684 
L 4666 3500 
L 5241 3500 
L 3641 0 
L 2969 0 
L 2797 2900 
L 1459 0 
L 781 0 
L 544 3500 
z
" transform="scale(0.015625)"/>
       <path id="DejaVuSans-Oblique-49" d="M 1081 4666 
L 1716 4666 
L 806 0 
L 172 0 
L 1081 4666 
z
" transform="scale(0.015625)"/>
       <path id="DejaVuSans-Oblique-44" d="M 1081 4666 
L 2438 4666 
Q 3519 4666 4070 4208 
Q 4622 3750 4622 2847 
Q 4622 2250 4412 1698 
Q 4203 1147 3834 769 
Q 3463 381 2891 190 
Q 2319 0 1538 0 
L 172 0 
L 1081 4666 
z
M 1613 4147 
L 909 519 
L 1734 519 
Q 2794 519 3375 1128 
Q 3956 1738 3956 2847 
Q 3956 3519 3581 3833 
Q 3206 4147 2406 4147 
L 1613 4147 
z
" transform="scale(0.015625)"/>
       <path id="DejaVuSans-Oblique-4d" d="M 1081 4666 
L 2028 4666 
L 2572 1522 
L 4378 4666 
L 5350 4666 
L 4441 0 
L 3828 0 
L 4622 4091 
L 2791 897 
L 2175 897 
L 1581 4103 
L 788 0 
L 172 0 
L 1081 4666 
z
" transform="scale(0.015625)"/>
      </defs>
      <use xlink:href="#DejaVuSans-Oblique-77" transform="translate(0 0.3125)"/>
      <use xlink:href="#DejaVuSans-Oblique-49" transform="translate(81.787109 -16.09375) scale(0.7)"/>
      <use xlink:href="#DejaVuSans-Oblique-44" transform="translate(102.431641 -16.09375) scale(0.7)"/>
      <use xlink:href="#DejaVuSans-Oblique-4d" transform="translate(156.333008 -16.09375) scale(0.7)"/>
     </g>
    </g>
   </g>
   <g id="QuadContourSet_3">
    <path d="M 160.666174 302.183022 
L 163.723259 302.344785 
L 166.780344 302.756847 
L 169.837429 303.498613 
L 172.894514 303.214433 
L 175.79968 301.64184 
L 175.951599 301.527632 
L 179.008684 299.339049 
L 179.375949 298.96392 
L 182.065768 296.663179 
L 182.437932 296.286 
L 184.943941 293.60808 
L 185.122853 293.295486 
L 187.14012 290.93016 
L 188.179938 289.481523 
L 188.846329 288.25224 
L 189.720973 285.57432 
L 188.728028 282.8964 
L 188.179938 282.012336 
L 187.475494 280.21848 
L 186.810385 277.54056 
L 185.967663 274.86264 
L 185.122853 272.800991 
L 184.953784 272.18472 
L 183.674541 269.5068 
L 182.065768 267.590214 
L 181.578345 266.82888 
L 180.218786 264.15096 
L 179.008684 262.132483 
L 178.675348 261.47304 
L 176.673312 258.79512 
L 175.951599 257.737136 
L 174.992708 256.1172 
L 173.06595 253.43928 
L 172.894514 253.212343 
L 171.212052 250.76136 
L 169.837429 249.272043 
L 168.651349 248.08344 
L 166.780344 246.532694 
L 165.745767 245.40552 
L 163.723259 243.680938 
L 162.51097 242.7276 
L 160.666174 241.3807 
L 158.254065 240.04968 
L 157.609089 239.591325 
L 154.552004 237.63777 
L 154.033392 237.37176 
L 151.49492 236.067112 
L 149.00252 234.69384 
L 148.437835 234.278147 
L 145.613562 232.01592 
L 145.38075 231.816272 
L 142.323665 229.479815 
L 142.092881 229.338 
L 139.26658 227.540126 
L 137.507893 226.66008 
L 136.209495 225.905646 
L 133.15241 224.579621 
L 130.99713 223.98216 
L 130.095325 223.661326 
L 127.03824 222.863478 
L 123.981155 222.108319 
L 120.924071 221.639626 
L 117.866986 221.30424 
L 117.866986 221.30424 
L 114.809901 220.331329 
L 111.752816 219.832876 
L 108.695731 219.833409 
L 105.638646 220.286016 
L 102.581561 221.077657 
L 102.11584 221.30424 
L 99.524476 223.573061 
L 99.213121 223.98216 
L 96.930881 226.66008 
L 96.467391 227.496779 
L 95.508583 229.338 
L 94.306422 232.01592 
L 93.410307 234.021415 
L 92.901512 234.69384 
L 93.410307 236.227957 
L 93.637374 237.37176 
L 95.093551 240.04968 
L 96.428047 242.7276 
L 96.467391 242.831551 
L 97.051946 245.40552 
L 98.04314 248.08344 
L 99.307869 250.76136 
L 99.524476 251.288756 
L 100.348963 253.43928 
L 102.394891 256.1172 
L 102.581561 256.293996 
L 104.230022 258.79512 
L 105.638646 260.643037 
L 106.165312 261.47304 
L 108.556773 264.15096 
L 108.695731 264.275626 
L 111.069465 266.82888 
L 111.752816 267.553636 
L 113.121285 269.5068 
L 114.809901 271.68626 
L 115.180815 272.18472 
L 117.866986 274.780945 
L 117.985804 274.86264 
L 120.924071 276.770859 
L 122.059968 277.54056 
L 123.981155 279.128377 
L 125.075938 280.21848 
L 127.03824 282.352435 
L 127.596994 282.8964 
L 130.095325 284.880564 
L 131.08454 285.57432 
L 133.15241 287.430359 
L 134.201582 288.25224 
L 136.209495 289.59342 
L 138.330622 290.93016 
L 139.26658 291.579657 
L 142.323665 293.400368 
L 142.712358 293.60808 
L 145.38075 295.548115 
L 146.723873 296.286 
L 148.437835 297.273612 
L 151.49492 298.721032 
L 152.112845 298.96392 
L 154.552004 300.177604 
L 157.609089 301.402034 
L 158.594896 301.64184 
L 160.666174 302.183022 
z
" clip-path="url(#p5018c5d368)" style="fill: none; stroke: #bf00bf; stroke-width: 1.5"/>
    <path d="M 157.609089 285.657055 
L 157.960447 285.57432 
L 160.666174 284.76432 
L 163.427307 282.8964 
L 163.723259 282.634421 
L 166.074382 280.21848 
L 166.780344 278.546232 
L 167.153544 277.54056 
L 167.600099 274.86264 
L 168.102519 272.18472 
L 168.066489 269.5068 
L 166.907041 266.82888 
L 166.780344 266.616559 
L 165.512112 264.15096 
L 163.990387 261.47304 
L 163.723259 261.142147 
L 161.790901 258.79512 
L 160.666174 257.530732 
L 159.597532 256.1172 
L 157.609089 253.807248 
L 157.243821 253.43928 
L 154.567393 250.76136 
L 154.552004 250.746118 
L 151.947613 248.08344 
L 151.49492 247.717563 
L 148.976091 245.40552 
L 148.437835 244.988056 
L 145.38075 242.895671 
L 145.009598 242.7276 
L 142.323665 241.449259 
L 139.26658 240.388216 
L 138.375174 240.04968 
L 136.209495 238.812499 
L 133.658248 237.37176 
L 133.15241 237.084076 
L 130.095325 236.113077 
L 127.03824 235.504228 
L 123.981155 235.051389 
L 120.924071 234.996566 
L 117.866986 235.315731 
L 114.809901 236.52444 
L 113.866742 237.37176 
L 112.44633 240.04968 
L 112.172086 242.7276 
L 111.959157 245.40552 
L 111.925655 248.08344 
L 112.616132 250.76136 
L 114.370579 253.43928 
L 114.809901 254.039443 
L 116.049867 256.1172 
L 117.633594 258.79512 
L 117.866986 259.133844 
L 119.355516 261.47304 
L 120.924071 263.362639 
L 121.64266 264.15096 
L 123.981155 266.603887 
L 124.195209 266.82888 
L 127.03824 269.5068 
L 127.03824 269.5068 
L 130.095325 271.772075 
L 130.725411 272.18472 
L 133.15241 273.940091 
L 134.56623 274.86264 
L 136.209495 276.243237 
L 138.011375 277.54056 
L 139.26658 278.527442 
L 141.780867 280.21848 
L 142.323665 280.536462 
L 145.38075 281.972534 
L 147.962872 282.8964 
L 148.437835 283.102662 
L 151.49492 284.231649 
L 154.552004 285.293146 
L 156.877895 285.57432 
L 157.609089 285.657055 
z
" clip-path="url(#p5018c5d368)" style="fill: none; stroke: #bf00bf; stroke-width: 1.5"/>
   </g>
   <g id="patch_8">
    <path d="M 64.368 329.76 
L 64.368 195.864 
" style="fill: none; stroke: #000000; stroke-width: 0.8; stroke-linejoin: miter; stroke-linecap: square"/>
   </g>
   <g id="patch_9">
    <path d="M 217.222245 329.76 
L 217.222245 195.864 
" style="fill: none; stroke: #000000; stroke-width: 0.8; stroke-linejoin: miter; stroke-linecap: square"/>
   </g>
   <g id="patch_10">
    <path d="M 64.368 329.76 
L 217.222245 329.76 
" style="fill: none; stroke: #000000; stroke-width: 0.8; stroke-linejoin: miter; stroke-linecap: square"/>
   </g>
   <g id="patch_11">
    <path d="M 64.368 195.864 
L 217.222245 195.864 
" style="fill: none; stroke: #000000; stroke-width: 0.8; stroke-linejoin: miter; stroke-linecap: square"/>
   </g>
  </g>
  <g id="axes_4">
   <g id="patch_12">
    <path d="M 232.345755 329.76 
L 385.2 329.76 
L 385.2 195.864 
L 232.345755 195.864 
z
" style="fill: #ffffff"/>
   </g>
   <g id="matplotlib.axis_7">
    <g id="xtick_9">
     <g id="line2d_14">
      <g>
       <use xlink:href="#m6c31081a4a" x="240.658962" y="329.76" style="stroke: #000000; stroke-width: 0.8"/>
      </g>
     </g>
     <g id="text_12">
      <!-- −1.1 -->
      <g transform="translate(234.024864 359.303448) rotate(-45) scale(0.1 -0.1)">
       <use xlink:href="#DejaVuSans-2212"/>
       <use xlink:href="#DejaVuSans-31" x="83.789062"/>
       <use xlink:href="#DejaVuSans-2e" x="147.412109"/>
       <use xlink:href="#DejaVuSans-31" x="179.199219"/>
      </g>
     </g>
    </g>
    <g id="xtick_10">
     <g id="line2d_15">
      <g>
       <use xlink:href="#m6c31081a4a" x="278.536321" y="329.76" style="stroke: #000000; stroke-width: 0.8"/>
      </g>
     </g>
     <g id="text_13">
      <!-- −1.0 -->
      <g transform="translate(271.902223 359.303448) rotate(-45) scale(0.1 -0.1)">
       <use xlink:href="#DejaVuSans-2212"/>
       <use xlink:href="#DejaVuSans-31" x="83.789062"/>
       <use xlink:href="#DejaVuSans-2e" x="147.412109"/>
       <use xlink:href="#DejaVuSans-30" x="179.199219"/>
      </g>
     </g>
    </g>
    <g id="xtick_11">
     <g id="line2d_16">
      <g>
       <use xlink:href="#m6c31081a4a" x="316.41368" y="329.76" style="stroke: #000000; stroke-width: 0.8"/>
      </g>
     </g>
     <g id="text_14">
      <!-- −0.9 -->
      <g transform="translate(309.779582 359.303448) rotate(-45) scale(0.1 -0.1)">
       <use xlink:href="#DejaVuSans-2212"/>
       <use xlink:href="#DejaVuSans-30" x="83.789062"/>
       <use xlink:href="#DejaVuSans-2e" x="147.412109"/>
       <use xlink:href="#DejaVuSans-39" x="179.199219"/>
      </g>
     </g>
    </g>
    <g id="xtick_12">
     <g id="line2d_17">
      <g>
       <use xlink:href="#m6c31081a4a" x="354.291039" y="329.76" style="stroke: #000000; stroke-width: 0.8"/>
      </g>
     </g>
     <g id="text_15">
      <!-- −0.8 -->
      <g transform="translate(347.656941 359.303448) rotate(-45) scale(0.1 -0.1)">
       <use xlink:href="#DejaVuSans-2212"/>
       <use xlink:href="#DejaVuSans-30" x="83.789062"/>
       <use xlink:href="#DejaVuSans-2e" x="147.412109"/>
       <use xlink:href="#DejaVuSans-38" x="179.199219"/>
      </g>
     </g>
    </g>
    <g id="text_16">
     <!-- $w_{IDM}$ -->
     <g transform="translate(297.772878 377.527238) scale(0.1 -0.1)">
      <use xlink:href="#DejaVuSans-Oblique-77" transform="translate(0 0.3125)"/>
      <use xlink:href="#DejaVuSans-Oblique-49" transform="translate(81.787109 -16.09375) scale(0.7)"/>
      <use xlink:href="#DejaVuSans-Oblique-44" transform="translate(102.431641 -16.09375) scale(0.7)"/>
      <use xlink:href="#DejaVuSans-Oblique-4d" transform="translate(156.333008 -16.09375) scale(0.7)"/>
     </g>
    </g>
   </g>
   <g id="matplotlib.axis_8"/>
   <g id="line2d_18">
    <path d="M 232.345755 329.68242 
L 240.752739 329.604839 
L 240.752739 329.527259 
L 243.809824 329.449678 
L 243.809824 329.372098 
L 246.866908 329.294518 
L 246.866908 329.216937 
L 249.159722 329.139357 
L 249.159722 329.061776 
L 250.688265 328.984196 
L 250.688265 328.829035 
L 252.216807 328.751455 
L 252.216807 328.673875 
L 252.981078 328.673875 
L 252.981078 328.518714 
L 253.745349 328.518714 
L 253.745349 328.363553 
L 254.509621 328.363553 
L 254.509621 328.130812 
L 255.273892 328.130812 
L 255.273892 327.898071 
L 256.038163 327.898071 
L 256.038163 327.665329 
L 256.802434 327.665329 
L 256.802434 327.432588 
L 257.566706 327.432588 
L 257.566706 327.199847 
L 258.330977 327.199847 
L 258.330977 326.889525 
L 259.095248 326.889525 
L 259.095248 326.579204 
L 259.859519 326.579204 
L 259.859519 326.191302 
L 260.62379 326.191302 
L 260.62379 325.8034 
L 261.388062 325.8034 
L 261.388062 325.415498 
L 262.152333 325.415498 
L 262.152333 324.950016 
L 262.916604 324.950016 
L 262.916604 324.406953 
L 263.680875 324.406953 
L 263.680875 323.941471 
L 264.445147 323.941471 
L 264.445147 323.398408 
L 265.209418 323.398408 
L 265.209418 322.777765 
L 265.973689 322.777765 
L 265.973689 322.234702 
L 266.73796 322.234702 
L 266.73796 321.691639 
L 267.502232 321.691639 
L 267.502232 321.070996 
L 268.266503 321.070996 
L 268.266503 320.372772 
L 269.030774 320.372772 
L 269.030774 319.752129 
L 269.795045 319.752129 
L 269.795045 318.976325 
L 270.559316 318.976325 
L 270.559316 318.122941 
L 271.323588 318.122941 
L 271.323588 317.269557 
L 272.087859 317.269557 
L 272.087859 316.261012 
L 272.85213 316.261012 
L 272.85213 315.174886 
L 273.616401 315.174886 
L 273.616401 313.9336 
L 274.380673 313.9336 
L 274.380673 312.692314 
L 275.144944 312.692314 
L 275.144944 311.295867 
L 275.909215 311.295867 
L 275.909215 309.821839 
L 276.673486 309.821839 
L 276.673486 308.192651 
L 277.437757 308.192651 
L 277.437757 306.408302 
L 278.202029 306.408302 
L 278.202029 304.546372 
L 278.9663 304.546372 
L 278.9663 302.529282 
L 279.730571 302.529282 
L 279.730571 300.512192 
L 280.494842 300.512192 
L 280.494842 298.417521 
L 281.259114 298.417521 
L 281.259114 296.322851 
L 282.023385 296.322851 
L 282.023385 294.22818 
L 282.787656 294.22818 
L 282.787656 292.133509 
L 283.551927 292.133509 
L 283.551927 290.038839 
L 284.316198 290.038839 
L 284.316198 287.866588 
L 285.08047 287.866588 
L 285.08047 285.694337 
L 285.844741 285.694337 
L 285.844741 283.522086 
L 286.609012 283.522086 
L 286.609012 281.194674 
L 287.373283 281.194674 
L 287.373283 278.789682 
L 288.137555 278.789682 
L 288.137555 276.38469 
L 288.901826 276.38469 
L 288.901826 273.902117 
L 289.666097 273.902117 
L 289.666097 271.341964 
L 290.430368 271.341964 
L 290.430368 268.704231 
L 291.194639 268.704231 
L 291.194639 266.066497 
L 291.958911 266.066497 
L 291.958911 263.351184 
L 292.723182 263.351184 
L 292.723182 260.55829 
L 293.487453 260.55829 
L 293.487453 257.687815 
L 294.251724 257.687815 
L 294.251724 254.73976 
L 295.015996 254.73976 
L 295.015996 251.714125 
L 295.780267 251.714125 
L 295.780267 248.688489 
L 296.544538 248.688489 
L 296.544538 245.585274 
L 297.308809 245.585274 
L 297.308809 242.559638 
L 298.07308 242.559638 
L 298.07308 239.611584 
L 298.837352 239.611584 
L 298.837352 236.663529 
L 299.601623 236.663529 
L 299.601623 233.793054 
L 300.365894 233.793054 
L 300.365894 231.07774 
L 301.130165 231.07774 
L 301.130165 228.440007 
L 301.894437 228.440007 
L 301.894437 225.802274 
L 302.658708 225.802274 
L 302.658708 223.319701 
L 303.422979 223.319701 
L 303.422979 220.992289 
L 304.18725 220.992289 
L 304.18725 218.742458 
L 304.951521 218.742458 
L 304.951521 216.647787 
L 305.715793 216.647787 
L 305.715793 214.708277 
L 306.480064 214.708277 
L 306.480064 213.001509 
L 307.244335 213.001509 
L 307.244335 211.449901 
L 308.008606 211.449901 
L 308.008606 210.131034 
L 308.772878 210.131034 
L 308.772878 209.122489 
L 309.537149 209.122489 
L 309.537149 208.424266 
L 310.30142 208.424266 
L 310.30142 208.036364 
L 311.829962 208.036364 
L 311.829962 208.424266 
L 312.594234 208.424266 
L 312.594234 209.122489 
L 313.358505 209.122489 
L 313.358505 210.208615 
L 314.122776 210.208615 
L 314.122776 211.449901 
L 314.887047 211.449901 
L 314.887047 212.923928 
L 315.651319 212.923928 
L 315.651319 214.475536 
L 316.41559 214.475536 
L 316.41559 216.027144 
L 317.179861 216.027144 
L 317.179861 217.501172 
L 317.944132 217.501172 
L 317.944132 218.897619 
L 318.708404 218.897619 
L 318.708404 220.216485 
L 319.472675 220.216485 
L 319.472675 221.535352 
L 320.236946 221.535352 
L 320.236946 222.854219 
L 321.001217 222.854219 
L 321.001217 224.173085 
L 321.765488 224.173085 
L 321.765488 225.647113 
L 322.52976 225.647113 
L 322.52976 227.276301 
L 323.294031 227.276301 
L 323.294031 229.13823 
L 324.058302 229.13823 
L 324.058302 231.232901 
L 324.822573 231.232901 
L 324.822573 233.560313 
L 325.586845 233.560313 
L 325.586845 236.120466 
L 326.351116 236.120466 
L 326.351116 238.91336 
L 327.115387 238.91336 
L 327.115387 241.938995 
L 327.879658 241.938995 
L 327.879658 245.119791 
L 328.643929 245.119791 
L 328.643929 248.533329 
L 329.408201 248.533329 
L 329.408201 252.024446 
L 330.172472 252.024446 
L 330.172472 255.515564 
L 330.936743 255.515564 
L 330.936743 259.084262 
L 331.701014 259.084262 
L 331.701014 262.497799 
L 332.465286 262.497799 
L 332.465286 265.833756 
L 333.229557 265.833756 
L 333.229557 269.014552 
L 333.993828 269.014552 
L 333.993828 271.962607 
L 334.758099 271.962607 
L 334.758099 274.833082 
L 335.52237 274.833082 
L 335.52237 277.470815 
L 336.286642 277.470815 
L 336.286642 280.030968 
L 337.050913 280.030968 
L 337.050913 282.513541 
L 337.815184 282.513541 
L 337.815184 284.840953 
L 338.579455 284.840953 
L 338.579455 287.168364 
L 339.343727 287.168364 
L 339.343727 289.495776 
L 340.107998 289.495776 
L 340.107998 291.745608 
L 340.872269 291.745608 
L 340.872269 293.995439 
L 341.63654 293.995439 
L 341.63654 296.16769 
L 342.400811 296.16769 
L 342.400811 298.262361 
L 343.165083 298.262361 
L 343.165083 300.357031 
L 343.929354 300.357031 
L 343.929354 302.374121 
L 344.693625 302.374121 
L 344.693625 304.313631 
L 345.457896 304.313631 
L 345.457896 306.253141 
L 346.222168 306.253141 
L 346.222168 308.11507 
L 346.986439 308.11507 
L 346.986439 309.899419 
L 347.75071 309.899419 
L 347.75071 311.606188 
L 348.514981 311.606188 
L 348.514981 313.312957 
L 349.279252 313.312957 
L 349.279252 314.786984 
L 350.043524 314.786984 
L 350.043524 316.261012 
L 350.807795 316.261012 
L 350.807795 317.502298 
L 351.572066 317.502298 
L 351.572066 318.666004 
L 352.336337 318.666004 
L 352.336337 319.752129 
L 353.100609 319.752129 
L 353.100609 320.683094 
L 353.86488 320.683094 
L 353.86488 321.536478 
L 354.629151 321.536478 
L 354.629151 322.234702 
L 355.393422 322.234702 
L 355.393422 322.932925 
L 356.157693 322.932925 
L 356.157693 323.553569 
L 356.921965 323.553569 
L 356.921965 324.096631 
L 357.686236 324.096631 
L 357.686236 324.562114 
L 358.450507 324.562114 
L 358.450507 325.027596 
L 359.214778 325.027596 
L 359.214778 325.493078 
L 359.97905 325.493078 
L 359.97905 325.88098 
L 360.743321 325.88098 
L 360.743321 326.268882 
L 361.507592 326.268882 
L 361.507592 326.579204 
L 362.271863 326.579204 
L 362.271863 326.967106 
L 363.036135 326.967106 
L 363.036135 327.277427 
L 363.800406 327.277427 
L 363.800406 327.587749 
L 364.564677 327.587749 
L 364.564677 327.82049 
L 365.328948 327.82049 
L 365.328948 328.130812 
L 366.093219 328.130812 
L 366.093219 328.285973 
L 366.857491 328.285973 
L 366.857491 328.518714 
L 367.621762 328.518714 
L 367.621762 328.673875 
L 368.386033 328.673875 
L 368.386033 328.829035 
L 369.150304 328.829035 
L 369.150304 328.984196 
L 369.914576 328.984196 
L 369.914576 329.139357 
L 371.443118 329.216937 
L 371.443118 329.294518 
L 372.97166 329.372098 
L 372.97166 329.449678 
L 375.264474 329.527259 
L 375.264474 329.604839 
L 379.850101 329.68242 
L 379.850101 329.76 
L 385.2 329.76 
L 385.2 329.76 
" clip-path="url(#pf4b87c340c)" style="fill: none; stroke: #bf00bf; stroke-width: 1.5; stroke-linecap: square"/>
   </g>
   <g id="patch_13">
    <path d="M 232.345755 329.76 
L 232.345755 195.864 
" style="fill: none; stroke: #000000; stroke-width: 0.8; stroke-linejoin: miter; stroke-linecap: square"/>
   </g>
   <g id="patch_14">
    <path d="M 385.2 329.76 
L 385.2 195.864 
" style="fill: none; stroke: #000000; stroke-width: 0.8; stroke-linejoin: miter; stroke-linecap: square"/>
   </g>
   <g id="patch_15">
    <path d="M 232.345755 329.76 
L 385.2 329.76 
" style="fill: none; stroke: #000000; stroke-width: 0.8; stroke-linejoin: miter; stroke-linecap: square"/>
   </g>
   <g id="patch_16">
    <path d="M 232.345755 195.864 
L 385.2 195.864 
" style="fill: none; stroke: #000000; stroke-width: 0.8; stroke-linejoin: miter; stroke-linecap: square"/>
   </g>
   <g id="text_17">
    <!-- $w_{IDM}$ = ${-0.9119}_{-0.0492}^{+0.0480}$ -->
    <g transform="translate(231.212878 189.864) scale(0.14 -0.14)">
     <use xlink:href="#DejaVuSans-Oblique-77" transform="translate(0 0.765625)"/>
     <use xlink:href="#DejaVuSans-Oblique-49" transform="translate(81.787109 -15.640625) scale(0.7)"/>
     <use xlink:href="#DejaVuSans-Oblique-44" transform="translate(102.431641 -15.640625) scale(0.7)"/>
     <use xlink:href="#DejaVuSans-Oblique-4d" transform="translate(156.333008 -15.640625) scale(0.7)"/>
     <use xlink:href="#DejaVuSans-20" transform="translate(219.462891 0.765625)"/>
     <use xlink:href="#DejaVuSans-3d" transform="translate(251.25 0.765625)"/>
     <use xlink:href="#DejaVuSans-20" transform="translate(335.039062 0.765625)"/>
     <use xlink:href="#DejaVuSans-2212" transform="translate(366.826172 0.765625)"/>
     <use xlink:href="#DejaVuSans-30" transform="translate(450.615234 0.765625)"/>
     <use xlink:href="#DejaVuSans-2e" transform="translate(514.238281 0.765625)"/>
     <use xlink:href="#DejaVuSans-39" transform="translate(546.025391 0.765625)"/>
     <use xlink:href="#DejaVuSans-31" transform="translate(609.648438 0.765625)"/>
     <use xlink:href="#DejaVuSans-31" transform="translate(673.271484 0.765625)"/>
     <use xlink:href="#DejaVuSans-39" transform="translate(736.894531 0.765625)"/>
     <use xlink:href="#DejaVuSans-2b" transform="translate(801.474609 39.046875) scale(0.7)"/>
     <use xlink:href="#DejaVuSans-30" transform="translate(860.126953 39.046875) scale(0.7)"/>
     <use xlink:href="#DejaVuSans-2e" transform="translate(904.663086 39.046875) scale(0.7)"/>
     <use xlink:href="#DejaVuSans-30" transform="translate(926.914062 39.046875) scale(0.7)"/>
     <use xlink:href="#DejaVuSans-34" transform="translate(971.450195 39.046875) scale(0.7)"/>
     <use xlink:href="#DejaVuSans-38" transform="translate(1015.986328 39.046875) scale(0.7)"/>
     <use xlink:href="#DejaVuSans-30" transform="translate(1060.522461 39.046875) scale(0.7)"/>
     <use xlink:href="#DejaVuSans-2212" transform="translate(801.474609 -26.578125) scale(0.7)"/>
     <use xlink:href="#DejaVuSans-30" transform="translate(860.126953 -26.578125) scale(0.7)"/>
     <use xlink:href="#DejaVuSans-2e" transform="translate(904.663086 -26.578125) scale(0.7)"/>
     <use xlink:href="#DejaVuSans-30" transform="translate(926.914062 -26.578125) scale(0.7)"/>
     <use xlink:href="#DejaVuSans-34" transform="translate(971.450195 -26.578125) scale(0.7)"/>
     <use xlink:href="#DejaVuSans-39" transform="translate(1015.986328 -26.578125) scale(0.7)"/>
     <use xlink:href="#DejaVuSans-32" transform="translate(1059.297461 -26.578125) scale(0.7)"/>
    </g>
   </g>
  </g>
 </g>
 <defs>
  <clipPath id="peb3a03355c">
   <rect x="64.368" y="30.984" width="152.854245" height="133.896"/>
  </clipPath>
  <clipPath id="p5018c5d368">
   <rect x="64.368" y="195.864" width="152.854245" height="133.896"/>
  </clipPath>
  <clipPath id="pf4b87c340c">
   <rect x="232.345755" y="195.864" width="152.854245" height="133.896"/>
  </clipPath>
 </defs>
</svg>
