<?xml version="1.0" encoding="utf-8" standalone="no"?>
<!DOCTYPE svg PUBLIC "-//W3C//DTD SVG 1.1//EN"
  "http://www.w3.org/Graphics/SVG/1.1/DTD/svg11.dtd">
<svg xmlns:xlink="http://www.w3.org/1999/xlink" width="396pt" height="396pt" viewBox="0 0 396 396" xmlns="http://www.w3.org/2000/svg" version="1.1">
 <metadata>
  <rdf:RDF xmlns:dc="http://purl.org/dc/elements/1.1/" xmlns:cc="http://creativecommons.org/ns#" xmlns:rdf="http://www.w3.org/1999/02/22-rdf-syntax-ns#">
   <cc:Work>
    <dc:type rdf:resource="http://purl.org/dc/dcmitype/StillImage"/>
    <dc:date>2024-11-19T13:39:30.658631</dc:date>
    <dc:format>image/svg+xml</dc:format>
    <dc:creator>
     <cc:Agent>
      <dc:title>Matplotlib v3.9.2, https://matplotlib.org/</dc:title>
     </cc:Agent>
    </dc:creator>
   </cc:Work>
  </rdf:RDF>
 </metadata>
 <defs>
  <style type="text/css">*{stroke-linejoin: round; stroke-linecap: butt}</style>
 </defs>
 <g id="figure_1">
  <g id="patch_1">
   <path d="M 0 396 
L 396 396 
L 396 0 
L 0 0 
z
" style="fill: #ffffff"/>
  </g>
  <g id="axes_1">
   <g id="patch_2">
    <path d="M 64.08 164.88 
L 219.24 164.88 
L 219.24 30.984 
L 64.08 30.984 
z
" style="fill: #ffffff"/>
   </g>
   <g id="matplotlib.axis_1">
    <g id="xtick_1">
     <g id="line2d_1">
      <defs>
       <path id="m8313856bdf" d="M 0 0 
L 0 3.5 
" style="stroke: #000000; stroke-width: 0.8"/>
      </defs>
      <g>
       <use xlink:href="#m8313856bdf" x="95.852501" y="164.88" style="stroke: #000000; stroke-width: 0.8"/>
      </g>
     </g>
    </g>
    <g id="xtick_2">
     <g id="line2d_2">
      <g>
       <use xlink:href="#m8313856bdf" x="127.628061" y="164.88" style="stroke: #000000; stroke-width: 0.8"/>
      </g>
     </g>
    </g>
    <g id="xtick_3">
     <g id="line2d_3">
      <g>
       <use xlink:href="#m8313856bdf" x="159.403621" y="164.88" style="stroke: #000000; stroke-width: 0.8"/>
      </g>
     </g>
    </g>
    <g id="xtick_4">
     <g id="line2d_4">
      <g>
       <use xlink:href="#m8313856bdf" x="191.179181" y="164.88" style="stroke: #000000; stroke-width: 0.8"/>
      </g>
     </g>
    </g>
   </g>
   <g id="matplotlib.axis_2"/>
   <g id="line2d_5">
    <path d="M 64.08 161.191405 
L 65.6316 161.144416 
L 65.6316 161.073934 
L 66.4074 161.073934 
L 66.4074 160.956463 
L 67.1832 160.956463 
L 67.1832 160.815497 
L 67.959 160.815497 
L 67.959 160.674532 
L 68.7348 160.674532 
L 68.7348 160.510072 
L 69.5106 160.510072 
L 69.5106 160.369107 
L 70.2864 160.369107 
L 70.2864 160.251636 
L 71.838 160.157659 
L 71.838 160.087176 
L 76.4928 159.993199 
L 76.4928 159.922716 
L 78.0444 159.828739 
L 78.0444 159.711268 
L 78.8202 159.711268 
L 78.8202 159.523314 
L 79.596 159.523314 
L 79.596 159.33536 
L 80.3718 159.33536 
L 80.3718 159.123912 
L 81.1476 159.123912 
L 81.1476 158.912464 
L 81.9234 158.912464 
L 81.9234 158.72451 
L 82.6992 158.72451 
L 82.6992 158.560051 
L 83.475 158.560051 
L 83.475 158.419085 
L 84.2508 158.419085 
L 84.2508 158.27812 
L 85.0266 158.27812 
L 85.0266 158.160649 
L 85.8024 158.160649 
L 85.8024 158.019683 
L 86.5782 158.019683 
L 86.5782 157.878718 
L 87.354 157.878718 
L 87.354 157.737752 
L 88.1298 157.737752 
L 88.1298 157.596787 
L 88.9056 157.596787 
L 88.9056 157.455821 
L 89.6814 157.455821 
L 89.6814 157.314856 
L 90.4572 157.314856 
L 90.4572 157.150396 
L 91.233 157.150396 
L 91.233 156.985937 
L 92.0088 156.985937 
L 92.0088 156.821477 
L 92.7846 156.821477 
L 92.7846 156.586535 
L 93.5604 156.586535 
L 93.5604 156.328098 
L 94.3362 156.328098 
L 94.3362 155.999179 
L 95.112 155.999179 
L 95.112 155.576283 
L 95.8878 155.576283 
L 95.8878 155.035915 
L 96.6636 155.035915 
L 96.6636 154.378077 
L 97.4394 154.378077 
L 97.4394 153.532284 
L 98.2152 153.532284 
L 98.2152 152.498538 
L 98.991 152.498538 
L 98.991 151.253343 
L 99.7668 151.253343 
L 99.7668 149.749712 
L 100.5426 149.749712 
L 100.5426 147.96415 
L 101.3184 147.96415 
L 101.3184 145.873163 
L 102.0942 145.873163 
L 102.0942 143.453257 
L 102.87 143.453257 
L 102.87 140.75142 
L 103.6458 140.75142 
L 103.6458 137.744157 
L 104.4216 137.744157 
L 104.4216 134.478459 
L 105.1974 134.478459 
L 105.1974 130.977818 
L 105.9732 130.977818 
L 105.9732 127.289223 
L 106.749 127.289223 
L 106.749 123.459662 
L 107.5248 123.459662 
L 107.5248 119.51263 
L 108.3006 119.51263 
L 108.3006 115.448128 
L 109.0764 115.448128 
L 109.0764 111.289648 
L 109.8522 111.289648 
L 109.8522 107.037191 
L 110.628 107.037191 
L 110.628 102.737746 
L 111.4038 102.737746 
L 111.4038 98.367818 
L 112.1796 98.367818 
L 112.1796 93.974396 
L 112.9554 93.974396 
L 112.9554 89.580974 
L 113.7312 89.580974 
L 113.7312 85.211046 
L 114.507 85.211046 
L 114.507 80.911601 
L 115.2828 80.911601 
L 115.2828 76.753121 
L 116.0586 76.753121 
L 116.0586 72.712112 
L 116.8344 72.712112 
L 116.8344 68.882552 
L 117.6102 68.882552 
L 117.6102 65.26444 
L 118.386 65.26444 
L 118.386 61.857775 
L 119.1618 61.857775 
L 119.1618 58.709548 
L 119.9376 58.709548 
L 119.9376 55.819757 
L 120.7134 55.819757 
L 120.7134 53.211897 
L 121.4892 53.211897 
L 121.4892 50.862473 
L 122.265 50.862473 
L 122.265 48.79498 
L 123.0408 48.79498 
L 123.0408 47.009418 
L 123.8166 47.009418 
L 123.8166 45.529281 
L 124.5924 45.529281 
L 124.5924 44.401558 
L 125.3682 44.401558 
L 125.3682 43.602754 
L 126.144 43.602754 
L 126.144 43.179858 
L 127.6956 43.156364 
L 127.6956 43.532271 
L 128.4714 43.532271 
L 128.4714 44.331075 
L 129.2472 44.331075 
L 129.2472 45.552776 
L 130.023 45.552776 
L 130.023 47.150384 
L 130.7988 47.150384 
L 130.7988 49.100405 
L 131.5746 49.100405 
L 131.5746 51.40284 
L 132.3504 51.40284 
L 132.3504 53.987206 
L 133.1262 53.987206 
L 133.1262 56.830009 
L 133.902 56.830009 
L 133.902 59.88426 
L 134.6778 59.88426 
L 134.6778 63.126464 
L 135.4536 63.126464 
L 135.4536 66.509634 
L 136.2294 66.509634 
L 136.2294 70.03377 
L 137.0052 70.03377 
L 137.0052 73.675376 
L 137.781 73.675376 
L 137.781 77.387465 
L 138.5568 77.387465 
L 138.5568 81.193532 
L 139.3326 81.193532 
L 139.3326 85.046586 
L 140.1084 85.046586 
L 140.1084 88.899641 
L 140.8842 88.899641 
L 140.8842 92.752696 
L 141.66 92.752696 
L 141.66 96.558762 
L 142.4358 96.558762 
L 142.4358 100.294345 
L 143.2116 100.294345 
L 143.2116 103.935952 
L 143.9874 103.935952 
L 143.9874 107.436593 
L 144.7632 107.436593 
L 144.7632 110.843257 
L 145.539 110.843257 
L 145.539 114.108956 
L 146.3148 114.108956 
L 146.3148 117.257184 
L 147.0906 117.257184 
L 147.0906 120.264446 
L 147.8664 120.264446 
L 147.8664 123.177731 
L 148.6422 123.177731 
L 148.6422 125.973545 
L 149.418 125.973545 
L 149.418 128.628394 
L 150.1938 128.628394 
L 150.1938 131.189266 
L 150.9696 131.189266 
L 150.9696 133.632666 
L 151.7454 133.632666 
L 151.7454 135.935101 
L 152.5212 135.935101 
L 152.5212 138.14356 
L 153.297 138.14356 
L 153.297 140.234547 
L 154.0728 140.234547 
L 154.0728 142.208062 
L 154.8486 142.208062 
L 154.8486 144.064107 
L 155.6244 144.064107 
L 155.6244 145.826175 
L 156.4002 145.826175 
L 156.4002 147.494265 
L 157.176 147.494265 
L 157.176 149.021391 
L 157.9518 149.021391 
L 157.9518 150.431045 
L 158.7276 150.431045 
L 158.7276 151.723228 
L 159.5034 151.723228 
L 159.5034 152.89794 
L 160.2792 152.89794 
L 160.2792 153.95518 
L 161.055 153.95518 
L 161.055 154.89495 
L 161.8308 154.89495 
L 161.8308 155.740742 
L 162.6066 155.740742 
L 162.6066 156.516052 
L 163.3824 156.516052 
L 163.3824 157.220879 
L 164.1582 157.220879 
L 164.1582 157.878718 
L 164.934 157.878718 
L 164.934 158.489568 
L 165.7098 158.489568 
L 165.7098 159.053429 
L 166.4856 159.053429 
L 166.4856 159.593797 
L 167.2614 159.593797 
L 167.2614 160.087176 
L 168.0372 160.087176 
L 168.0372 160.510072 
L 168.813 160.510072 
L 168.813 160.932968 
L 169.5888 160.932968 
L 169.5888 161.285382 
L 170.3646 161.285382 
L 170.3646 161.614301 
L 171.1404 161.614301 
L 171.1404 161.919726 
L 171.9162 161.919726 
L 171.9162 162.201657 
L 172.692 162.201657 
L 172.692 162.460094 
L 173.4678 162.460094 
L 173.4678 162.695036 
L 174.2436 162.695036 
L 174.2436 162.906484 
L 175.0194 162.906484 
L 175.0194 163.117932 
L 175.7952 163.117932 
L 175.7952 163.282392 
L 176.571 163.282392 
L 176.571 163.446852 
L 177.3468 163.446852 
L 177.3468 163.587817 
L 178.1226 163.587817 
L 178.1226 163.705288 
L 179.6742 163.799265 
L 179.6742 163.893242 
L 181.2258 163.987219 
L 181.2258 164.057702 
L 182.7774 164.128184 
L 182.7774 164.198667 
L 184.329 164.26915 
L 184.329 164.339633 
L 185.8806 164.410115 
L 185.8806 164.457104 
L 188.208 164.551081 
L 188.208 164.598069 
L 191.3112 164.692046 
L 191.3112 164.71554 
L 197.5176 164.809517 
L 197.5176 164.833012 
L 219.24 164.88 
L 219.24 164.88 
" clip-path="url(#pf8810a5b81)" style="fill: none; stroke: #0000ff; stroke-width: 1.5; stroke-linecap: square"/>
   </g>
   <g id="patch_3">
    <path d="M 64.08 164.88 
L 64.08 30.984 
" style="fill: none; stroke: #000000; stroke-width: 0.8; stroke-linejoin: miter; stroke-linecap: square"/>
   </g>
   <g id="patch_4">
    <path d="M 219.24 164.88 
L 219.24 30.984 
" style="fill: none; stroke: #000000; stroke-width: 0.8; stroke-linejoin: miter; stroke-linecap: square"/>
   </g>
   <g id="patch_5">
    <path d="M 64.08 164.88 
L 219.24 164.88 
" style="fill: none; stroke: #000000; stroke-width: 0.8; stroke-linejoin: miter; stroke-linecap: square"/>
   </g>
   <g id="patch_6">
    <path d="M 64.08 30.984 
L 219.24 30.984 
" style="fill: none; stroke: #000000; stroke-width: 0.8; stroke-linejoin: miter; stroke-linecap: square"/>
   </g>
   <g id="text_1">
    <!-- $\Omega_{2,0}$ = ${0.2975}_{-0.0676}^{+0.0695}$ -->
    <g transform="translate(71.45 24.984) scale(0.14 -0.14)">
     <defs>
      <path id="DejaVuSans-3a9" d="M 4647 556 
L 4647 0 
L 2772 0 
L 2772 556 
Q 3325 859 3634 1378 
Q 3944 1897 3944 2528 
Q 3944 3278 3531 3731 
Q 3119 4184 2444 4184 
Q 1769 4184 1355 3729 
Q 941 3275 941 2528 
Q 941 1897 1250 1378 
Q 1563 859 2119 556 
L 2119 0 
L 244 0 
L 244 556 
L 1241 556 
Q 747 991 519 1456 
Q 294 1922 294 2497 
Q 294 3491 894 4106 
Q 1491 4722 2444 4722 
Q 3391 4722 3994 4106 
Q 4594 3494 4594 2528 
Q 4594 1922 4372 1459 
Q 4150 997 3647 556 
L 4647 556 
z
" transform="scale(0.015625)"/>
      <path id="DejaVuSans-32" d="M 1228 531 
L 3431 531 
L 3431 0 
L 469 0 
L 469 531 
Q 828 903 1448 1529 
Q 2069 2156 2228 2338 
Q 2531 2678 2651 2914 
Q 2772 3150 2772 3378 
Q 2772 3750 2511 3984 
Q 2250 4219 1831 4219 
Q 1534 4219 1204 4116 
Q 875 4013 500 3803 
L 500 4441 
Q 881 4594 1212 4672 
Q 1544 4750 1819 4750 
Q 2544 4750 2975 4387 
Q 3406 4025 3406 3419 
Q 3406 3131 3298 2873 
Q 3191 2616 2906 2266 
Q 2828 2175 2409 1742 
Q 1991 1309 1228 531 
z
" transform="scale(0.015625)"/>
      <path id="DejaVuSans-2c" d="M 750 794 
L 1409 794 
L 1409 256 
L 897 -744 
L 494 -744 
L 750 256 
L 750 794 
z
" transform="scale(0.015625)"/>
      <path id="DejaVuSans-30" d="M 2034 4250 
Q 1547 4250 1301 3770 
Q 1056 3291 1056 2328 
Q 1056 1369 1301 889 
Q 1547 409 2034 409 
Q 2525 409 2770 889 
Q 3016 1369 3016 2328 
Q 3016 3291 2770 3770 
Q 2525 4250 2034 4250 
z
M 2034 4750 
Q 2819 4750 3233 4129 
Q 3647 3509 3647 2328 
Q 3647 1150 3233 529 
Q 2819 -91 2034 -91 
Q 1250 -91 836 529 
Q 422 1150 422 2328 
Q 422 3509 836 4129 
Q 1250 4750 2034 4750 
z
" transform="scale(0.015625)"/>
      <path id="DejaVuSans-20" transform="scale(0.015625)"/>
      <path id="DejaVuSans-3d" d="M 678 2906 
L 4684 2906 
L 4684 2381 
L 678 2381 
L 678 2906 
z
M 678 1631 
L 4684 1631 
L 4684 1100 
L 678 1100 
L 678 1631 
z
" transform="scale(0.015625)"/>
      <path id="DejaVuSans-2e" d="M 684 794 
L 1344 794 
L 1344 0 
L 684 0 
L 684 794 
z
" transform="scale(0.015625)"/>
      <path id="DejaVuSans-39" d="M 703 97 
L 703 672 
Q 941 559 1184 500 
Q 1428 441 1663 441 
Q 2288 441 2617 861 
Q 2947 1281 2994 2138 
Q 2813 1869 2534 1725 
Q 2256 1581 1919 1581 
Q 1219 1581 811 2004 
Q 403 2428 403 3163 
Q 403 3881 828 4315 
Q 1253 4750 1959 4750 
Q 2769 4750 3195 4129 
Q 3622 3509 3622 2328 
Q 3622 1225 3098 567 
Q 2575 -91 1691 -91 
Q 1453 -91 1209 -44 
Q 966 3 703 97 
z
M 1959 2075 
Q 2384 2075 2632 2365 
Q 2881 2656 2881 3163 
Q 2881 3666 2632 3958 
Q 2384 4250 1959 4250 
Q 1534 4250 1286 3958 
Q 1038 3666 1038 3163 
Q 1038 2656 1286 2365 
Q 1534 2075 1959 2075 
z
" transform="scale(0.015625)"/>
      <path id="DejaVuSans-37" d="M 525 4666 
L 3525 4666 
L 3525 4397 
L 1831 0 
L 1172 0 
L 2766 4134 
L 525 4134 
L 525 4666 
z
" transform="scale(0.015625)"/>
      <path id="DejaVuSans-35" d="M 691 4666 
L 3169 4666 
L 3169 4134 
L 1269 4134 
L 1269 2991 
Q 1406 3038 1543 3061 
Q 1681 3084 1819 3084 
Q 2600 3084 3056 2656 
Q 3513 2228 3513 1497 
Q 3513 744 3044 326 
Q 2575 -91 1722 -91 
Q 1428 -91 1123 -41 
Q 819 9 494 109 
L 494 744 
Q 775 591 1075 516 
Q 1375 441 1709 441 
Q 2250 441 2565 725 
Q 2881 1009 2881 1497 
Q 2881 1984 2565 2268 
Q 2250 2553 1709 2553 
Q 1456 2553 1204 2497 
Q 953 2441 691 2322 
L 691 4666 
z
" transform="scale(0.015625)"/>
      <path id="DejaVuSans-2b" d="M 2944 4013 
L 2944 2272 
L 4684 2272 
L 4684 1741 
L 2944 1741 
L 2944 0 
L 2419 0 
L 2419 1741 
L 678 1741 
L 678 2272 
L 2419 2272 
L 2419 4013 
L 2944 4013 
z
" transform="scale(0.015625)"/>
      <path id="DejaVuSans-36" d="M 2113 2584 
Q 1688 2584 1439 2293 
Q 1191 2003 1191 1497 
Q 1191 994 1439 701 
Q 1688 409 2113 409 
Q 2538 409 2786 701 
Q 3034 994 3034 1497 
Q 3034 2003 2786 2293 
Q 2538 2584 2113 2584 
z
M 3366 4563 
L 3366 3988 
Q 3128 4100 2886 4159 
Q 2644 4219 2406 4219 
Q 1781 4219 1451 3797 
Q 1122 3375 1075 2522 
Q 1259 2794 1537 2939 
Q 1816 3084 2150 3084 
Q 2853 3084 3261 2657 
Q 3669 2231 3669 1497 
Q 3669 778 3244 343 
Q 2819 -91 2113 -91 
Q 1303 -91 875 529 
Q 447 1150 447 2328 
Q 447 3434 972 4092 
Q 1497 4750 2381 4750 
Q 2619 4750 2861 4703 
Q 3103 4656 3366 4563 
z
" transform="scale(0.015625)"/>
      <path id="DejaVuSans-2212" d="M 678 2272 
L 4684 2272 
L 4684 1741 
L 678 1741 
L 678 2272 
z
" transform="scale(0.015625)"/>
     </defs>
     <use xlink:href="#DejaVuSans-3a9" transform="translate(0 0.765625)"/>
     <use xlink:href="#DejaVuSans-32" transform="translate(77.373047 -15.640625) scale(0.7)"/>
     <use xlink:href="#DejaVuSans-2c" transform="translate(121.90918 -15.640625) scale(0.7)"/>
     <use xlink:href="#DejaVuSans-30" transform="translate(157.797852 -15.640625) scale(0.7)"/>
     <use xlink:href="#DejaVuSans-20" transform="translate(205.068359 0.765625)"/>
     <use xlink:href="#DejaVuSans-3d" transform="translate(236.855469 0.765625)"/>
     <use xlink:href="#DejaVuSans-20" transform="translate(320.644531 0.765625)"/>
     <use xlink:href="#DejaVuSans-30" transform="translate(352.431641 0.765625)"/>
     <use xlink:href="#DejaVuSans-2e" transform="translate(416.054688 0.765625)"/>
     <use xlink:href="#DejaVuSans-32" transform="translate(442.341797 0.765625)"/>
     <use xlink:href="#DejaVuSans-39" transform="translate(504.214844 0.765625)"/>
     <use xlink:href="#DejaVuSans-37" transform="translate(567.837891 0.765625)"/>
     <use xlink:href="#DejaVuSans-35" transform="translate(631.460938 0.765625)"/>
     <use xlink:href="#DejaVuSans-2b" transform="translate(696.041016 39.046875) scale(0.7)"/>
     <use xlink:href="#DejaVuSans-30" transform="translate(754.693359 39.046875) scale(0.7)"/>
     <use xlink:href="#DejaVuSans-2e" transform="translate(799.229492 39.046875) scale(0.7)"/>
     <use xlink:href="#DejaVuSans-30" transform="translate(821.480469 39.046875) scale(0.7)"/>
     <use xlink:href="#DejaVuSans-36" transform="translate(866.016602 39.046875) scale(0.7)"/>
     <use xlink:href="#DejaVuSans-39" transform="translate(910.552734 39.046875) scale(0.7)"/>
     <use xlink:href="#DejaVuSans-35" transform="translate(955.088867 39.046875) scale(0.7)"/>
     <use xlink:href="#DejaVuSans-2212" transform="translate(696.041016 -26.578125) scale(0.7)"/>
     <use xlink:href="#DejaVuSans-30" transform="translate(754.693359 -26.578125) scale(0.7)"/>
     <use xlink:href="#DejaVuSans-2e" transform="translate(799.229492 -26.578125) scale(0.7)"/>
     <use xlink:href="#DejaVuSans-30" transform="translate(821.480469 -26.578125) scale(0.7)"/>
     <use xlink:href="#DejaVuSans-36" transform="translate(866.016602 -26.578125) scale(0.7)"/>
     <use xlink:href="#DejaVuSans-37" transform="translate(910.552734 -26.578125) scale(0.7)"/>
     <use xlink:href="#DejaVuSans-36" transform="translate(955.088867 -26.578125) scale(0.7)"/>
    </g>
   </g>
  </g>
  <g id="axes_2">
   <g id="matplotlib.axis_3"/>
   <g id="matplotlib.axis_4"/>
  </g>
  <g id="axes_3">
   <g id="patch_7">
    <path d="M 64.08 329.76 
L 219.24 329.76 
L 219.24 195.864 
L 64.08 195.864 
z
" style="fill: #ffffff"/>
   </g>
   <g id="QuadContourSet_1">
    <path d="M 62.5284 331.884615 
L 65.6316 331.884615 
L 68.7348 331.935903 
L 71.838 331.691217 
L 74.873121 331.09896 
L 74.873121 328.42104 
L 74.9412 328.409119 
L 78.0444 328.180425 
L 81.1476 328.312199 
L 84.2508 328.343535 
L 87.354 328.157844 
L 90.4572 327.778111 
L 93.5604 327.407736 
L 96.6636 327.078381 
L 99.7668 326.7733 
L 102.87 326.475353 
L 105.9732 326.19222 
L 109.0764 325.853406 
L 109.743009 325.74312 
L 112.1796 325.548289 
L 115.2828 325.138041 
L 118.386 324.59974 
L 121.4892 323.973474 
L 124.5924 323.421223 
L 127.111466 323.0652 
L 127.6956 323.019824 
L 130.7988 322.73654 
L 133.902 322.360517 
L 137.0052 321.690883 
L 140.1084 320.714646 
L 141.329132 320.38728 
L 143.2116 320.028626 
L 146.3148 319.419494 
L 149.418 318.517001 
L 151.228405 317.70936 
L 152.5212 317.219863 
L 155.6244 315.810832 
L 157.088441 315.03144 
L 158.7276 313.997057 
L 160.866107 312.35352 
L 161.8308 311.21291 
L 163.533027 309.6756 
L 164.934 308.113236 
L 166.172609 306.99768 
L 167.952842 304.31976 
L 168.0372 304.001244 
L 168.669784 301.64184 
L 169.031251 298.96392 
L 168.925457 296.286 
L 168.0372 293.944587 
L 167.941162 293.60808 
L 166.986341 290.93016 
L 165.776935 288.25224 
L 164.934 287.10049 
L 164.087532 285.57432 
L 162.597656 282.8964 
L 161.8308 281.613046 
L 161.012615 280.21848 
L 158.7276 277.54056 
L 158.7276 277.54056 
L 156.424283 274.86264 
L 155.6244 273.522125 
L 155.123985 272.18472 
L 153.787389 269.5068 
L 152.5212 267.873647 
L 151.716248 266.82888 
L 149.833656 264.15096 
L 149.418 263.407433 
L 148.481321 261.47304 
L 146.377376 258.79512 
L 146.3148 258.737334 
L 143.775135 256.1172 
L 143.2116 255.448278 
L 141.835 253.43928 
L 140.1084 251.270837 
L 139.724923 250.76136 
L 137.402137 248.08344 
L 137.0052 247.636216 
L 134.975451 245.40552 
L 133.902 244.240399 
L 132.581015 242.7276 
L 130.7988 240.732477 
L 130.314227 240.04968 
L 128.624372 237.37176 
L 127.6956 235.816807 
L 126.979244 234.69384 
L 124.5924 232.126001 
L 124.480343 232.01592 
L 121.4892 229.374953 
L 121.459152 229.338 
L 120.088286 226.66008 
L 118.944613 223.98216 
L 118.386 222.98035 
L 117.294807 221.30424 
L 115.2828 219.069962 
L 114.549091 218.62632 
L 112.1796 217.292668 
L 109.0764 217.735429 
L 108.371848 218.62632 
L 106.87966 221.30424 
L 105.9732 222.995192 
L 105.559872 223.98216 
L 104.324567 226.66008 
L 103.356065 229.338 
L 102.87 230.85152 
L 102.450163 232.01592 
L 101.579125 234.69384 
L 101.213117 237.37176 
L 101.033274 240.04968 
L 100.7309 242.7276 
L 100.515424 245.40552 
L 100.623675 248.08344 
L 100.962065 250.76136 
L 101.35223 253.43928 
L 101.89375 256.1172 
L 102.727158 258.79512 
L 102.87 259.257197 
L 103.258342 261.47304 
L 103.708129 264.15096 
L 104.30316 266.82888 
L 104.965826 269.5068 
L 105.511709 272.18472 
L 105.9732 274.581369 
L 106.002754 274.86264 
L 106.382495 277.54056 
L 106.80387 280.21848 
L 107.139993 282.8964 
L 107.375645 285.57432 
L 107.589719 288.25224 
L 107.835472 290.93016 
L 107.895175 293.60808 
L 107.522433 296.286 
L 106.712111 298.96392 
L 105.9732 300.816438 
L 105.430763 301.64184 
L 103.505265 304.31976 
L 102.87 305.000525 
L 100.782352 306.99768 
L 99.7668 307.656176 
L 96.68799 309.6756 
L 96.6636 309.68691 
L 93.5604 311.105275 
L 91.231475 312.35352 
L 90.4572 312.625077 
L 87.354 313.434825 
L 84.2508 314.293649 
L 81.985164 315.03144 
L 81.1476 315.19075 
L 78.0444 315.782127 
L 74.9412 316.32861 
L 71.838 316.989149 
L 69.365399 317.70936 
L 68.7348 317.832894 
L 65.6316 318.277021 
L 62.5284 318.277021 
L 61.034112 320.38728 
L 60.483538 323.0652 
L 60.610469 325.74312 
L 61.617975 328.42104 
L 61.617975 331.09896 
z
" clip-path="url(#p7805642a2b)" style="fill: #ffffff"/>
   </g>
   <g id="QuadContourSet_2">
    <path d="M 62.5284 333.77688 
L 65.6316 333.77688 
L 68.7348 333.77688 
L 71.838 333.77688 
L 74.9412 333.77688 
L 78.0444 333.77688 
L 81.1476 333.77688 
L 84.2508 333.77688 
L 87.354 333.77688 
L 90.4572 333.77688 
L 93.5604 333.77688 
L 96.6636 333.77688 
L 99.7668 333.77688 
L 102.87 333.77688 
L 105.9732 333.77688 
L 109.0764 333.77688 
L 112.1796 333.77688 
L 115.2828 333.77688 
L 118.386 333.77688 
L 121.4892 333.77688 
L 124.5924 333.77688 
L 127.6956 333.77688 
L 130.7988 333.77688 
L 133.902 333.77688 
L 137.0052 333.77688 
L 140.1084 333.77688 
L 143.2116 333.77688 
L 146.3148 333.77688 
L 149.418 333.77688 
L 152.5212 333.77688 
L 155.6244 333.77688 
L 158.7276 333.77688 
L 161.8308 333.77688 
L 164.934 333.77688 
L 168.0372 333.77688 
L 171.1404 333.77688 
L 174.2436 333.77688 
L 177.3468 333.77688 
L 180.45 333.77688 
L 183.5532 333.77688 
L 186.6564 333.77688 
L 189.7596 333.77688 
L 192.8628 333.77688 
L 195.966 333.77688 
L 199.0692 333.77688 
L 202.1724 333.77688 
L 205.2756 333.77688 
L 208.3788 333.77688 
L 211.482 333.77688 
L 214.5852 333.77688 
L 217.6884 333.77688 
L 220.7916 333.77688 
L 223.8948 333.77688 
L 223.8948 331.09896 
L 223.8948 328.42104 
L 223.8948 325.74312 
L 223.8948 323.0652 
L 223.8948 320.38728 
L 223.8948 317.70936 
L 223.8948 315.03144 
L 223.8948 312.35352 
L 223.8948 309.6756 
L 223.8948 306.99768 
L 223.8948 304.31976 
L 223.8948 301.64184 
L 223.8948 298.96392 
L 223.8948 296.286 
L 223.8948 293.60808 
L 223.8948 290.93016 
L 223.8948 288.25224 
L 223.8948 285.57432 
L 223.8948 282.8964 
L 223.8948 280.21848 
L 223.8948 277.54056 
L 223.8948 274.86264 
L 223.8948 272.18472 
L 223.8948 269.5068 
L 223.8948 266.82888 
L 223.8948 264.15096 
L 223.8948 261.47304 
L 223.8948 258.79512 
L 223.8948 256.1172 
L 223.8948 253.43928 
L 223.8948 250.76136 
L 223.8948 248.08344 
L 223.8948 245.40552 
L 223.8948 242.7276 
L 223.8948 240.04968 
L 223.8948 237.37176 
L 223.8948 234.69384 
L 223.8948 232.01592 
L 223.8948 229.338 
L 223.8948 226.66008 
L 223.8948 223.98216 
L 223.8948 221.30424 
L 223.8948 218.62632 
L 223.8948 215.9484 
L 223.8948 213.27048 
L 223.8948 210.59256 
L 223.8948 207.91464 
L 223.8948 205.23672 
L 223.8948 202.5588 
L 223.8948 199.88088 
L 223.8948 197.20296 
L 223.8948 194.52504 
L 223.8948 191.84712 
L 220.7916 191.84712 
L 217.6884 191.84712 
L 214.5852 191.84712 
L 211.482 191.84712 
L 208.3788 191.84712 
L 205.2756 191.84712 
L 202.1724 191.84712 
L 199.0692 191.84712 
L 195.966 191.84712 
L 192.8628 191.84712 
L 189.7596 191.84712 
L 186.6564 191.84712 
L 183.5532 191.84712 
L 180.45 191.84712 
L 177.3468 191.84712 
L 174.2436 191.84712 
L 171.1404 191.84712 
L 168.0372 191.84712 
L 164.934 191.84712 
L 161.8308 191.84712 
L 158.7276 191.84712 
L 155.6244 191.84712 
L 152.5212 191.84712 
L 149.418 191.84712 
L 146.3148 191.84712 
L 143.2116 191.84712 
L 140.1084 191.84712 
L 137.0052 191.84712 
L 133.902 191.84712 
L 130.7988 191.84712 
L 127.6956 191.84712 
L 124.5924 191.84712 
L 121.4892 191.84712 
L 118.386 191.84712 
L 115.2828 191.84712 
L 112.1796 191.84712 
L 109.0764 191.84712 
L 105.9732 191.84712 
L 102.87 191.84712 
L 99.7668 191.84712 
L 96.6636 191.84712 
L 93.5604 191.84712 
L 90.4572 191.84712 
L 87.354 191.84712 
L 84.2508 191.84712 
L 81.1476 191.84712 
L 78.0444 191.84712 
L 74.9412 191.84712 
L 71.838 191.84712 
L 68.7348 191.84712 
L 65.6316 191.84712 
L 62.5284 191.84712 
L 59.4252 191.84712 
L 59.4252 194.52504 
L 59.4252 197.20296 
L 59.4252 199.88088 
L 59.4252 202.5588 
L 59.4252 205.23672 
L 59.4252 207.91464 
L 59.4252 210.59256 
L 59.4252 213.27048 
L 59.4252 215.9484 
L 59.4252 218.62632 
L 59.4252 221.30424 
L 59.4252 223.98216 
L 59.4252 226.66008 
L 59.4252 229.338 
L 59.4252 232.01592 
L 59.4252 234.69384 
L 59.4252 237.37176 
L 59.4252 240.04968 
L 59.4252 242.7276 
L 59.4252 245.40552 
L 59.4252 248.08344 
L 59.4252 250.76136 
L 59.4252 253.43928 
L 59.4252 256.1172 
L 59.4252 258.79512 
L 59.4252 261.47304 
L 59.4252 264.15096 
L 59.4252 266.82888 
L 59.4252 269.5068 
L 59.4252 272.18472 
L 59.4252 274.86264 
L 59.4252 277.54056 
L 59.4252 280.21848 
L 59.4252 282.8964 
L 59.4252 285.57432 
L 59.4252 288.25224 
L 59.4252 290.93016 
L 59.4252 293.60808 
L 59.4252 296.286 
L 59.4252 298.96392 
L 59.4252 301.64184 
L 59.4252 304.31976 
L 59.4252 306.99768 
L 59.4252 309.6756 
L 59.4252 312.35352 
L 59.4252 315.03144 
L 59.4252 317.70936 
L 59.4252 320.38728 
L 59.4252 323.0652 
L 59.4252 325.74312 
L 59.4252 328.42104 
L 59.4252 331.09896 
L 59.4252 333.77688 
L 62.5284 333.77688 
z
M 61.617975 331.09896 
L 61.617975 328.42104 
L 60.610469 325.74312 
L 60.483538 323.0652 
L 61.034112 320.38728 
L 62.5284 318.277021 
L 65.6316 318.277021 
L 68.7348 317.832894 
L 69.365399 317.70936 
L 71.838 316.989149 
L 74.9412 316.32861 
L 78.0444 315.782127 
L 81.1476 315.19075 
L 81.985164 315.03144 
L 84.2508 314.293649 
L 87.354 313.434825 
L 90.4572 312.625077 
L 91.231475 312.35352 
L 93.5604 311.105275 
L 96.6636 309.68691 
L 96.68799 309.6756 
L 99.7668 307.656176 
L 100.782352 306.99768 
L 102.87 305.000525 
L 103.505265 304.31976 
L 105.430763 301.64184 
L 105.9732 300.816438 
L 106.712111 298.96392 
L 107.522433 296.286 
L 107.895175 293.60808 
L 107.835472 290.93016 
L 107.589719 288.25224 
L 107.375645 285.57432 
L 107.139993 282.8964 
L 106.80387 280.21848 
L 106.382495 277.54056 
L 106.002754 274.86264 
L 105.9732 274.581369 
L 105.511709 272.18472 
L 104.965826 269.5068 
L 104.30316 266.82888 
L 103.708129 264.15096 
L 103.258342 261.47304 
L 102.87 259.257197 
L 102.727158 258.79512 
L 101.89375 256.1172 
L 101.35223 253.43928 
L 100.962065 250.76136 
L 100.623675 248.08344 
L 100.515424 245.40552 
L 100.7309 242.7276 
L 101.033274 240.04968 
L 101.213117 237.37176 
L 101.579125 234.69384 
L 102.450163 232.01592 
L 102.87 230.85152 
L 103.356065 229.338 
L 104.324567 226.66008 
L 105.559872 223.98216 
L 105.9732 222.995192 
L 106.87966 221.30424 
L 108.371848 218.62632 
L 109.0764 217.735429 
L 112.1796 217.292668 
L 114.549091 218.62632 
L 115.2828 219.069962 
L 117.294807 221.30424 
L 118.386 222.98035 
L 118.944613 223.98216 
L 120.088286 226.66008 
L 121.459152 229.338 
L 121.4892 229.374953 
L 124.480343 232.01592 
L 124.5924 232.126001 
L 126.979244 234.69384 
L 127.6956 235.816807 
L 128.624372 237.37176 
L 130.314227 240.04968 
L 130.7988 240.732477 
L 132.581015 242.7276 
L 133.902 244.240399 
L 134.975451 245.40552 
L 137.0052 247.636216 
L 137.402137 248.08344 
L 139.724923 250.76136 
L 140.1084 251.270837 
L 141.835 253.43928 
L 143.2116 255.448278 
L 143.775135 256.1172 
L 146.3148 258.737334 
L 146.377376 258.79512 
L 148.481321 261.47304 
L 149.418 263.407433 
L 149.833656 264.15096 
L 151.716248 266.82888 
L 152.5212 267.873647 
L 153.787389 269.5068 
L 155.123985 272.18472 
L 155.6244 273.522125 
L 156.424283 274.86264 
L 158.7276 277.54056 
L 158.7276 277.54056 
L 161.012615 280.21848 
L 161.8308 281.613046 
L 162.597656 282.8964 
L 164.087532 285.57432 
L 164.934 287.10049 
L 165.776935 288.25224 
L 166.986341 290.93016 
L 167.941162 293.60808 
L 168.0372 293.944587 
L 168.925457 296.286 
L 169.031251 298.96392 
L 168.669784 301.64184 
L 168.0372 304.001244 
L 167.952842 304.31976 
L 166.172609 306.99768 
L 164.934 308.113236 
L 163.533027 309.6756 
L 161.8308 311.21291 
L 160.866107 312.35352 
L 158.7276 313.997057 
L 157.088441 315.03144 
L 155.6244 315.810832 
L 152.5212 317.219863 
L 151.228405 317.70936 
L 149.418 318.517001 
L 146.3148 319.419494 
L 143.2116 320.028626 
L 141.329132 320.38728 
L 140.1084 320.714646 
L 137.0052 321.690883 
L 133.902 322.360517 
L 130.7988 322.73654 
L 127.6956 323.019824 
L 127.111466 323.0652 
L 124.5924 323.421223 
L 121.4892 323.973474 
L 118.386 324.59974 
L 115.2828 325.138041 
L 112.1796 325.548289 
L 109.743009 325.74312 
L 109.0764 325.853406 
L 105.9732 326.19222 
L 102.87 326.475353 
L 99.7668 326.7733 
L 96.6636 327.078381 
L 93.5604 327.407736 
L 90.4572 327.778111 
L 87.354 328.157844 
L 84.2508 328.343535 
L 81.1476 328.312199 
L 78.0444 328.180425 
L 74.9412 328.409119 
L 74.873121 328.42104 
L 74.873121 331.09896 
L 71.838 331.691217 
L 68.7348 331.935903 
L 65.6316 331.884615 
L 62.5284 331.884615 
L 61.617975 331.09896 
z
" clip-path="url(#p7805642a2b)" style="fill: none"/>
    <path d="M 62.5284 331.884615 
L 65.6316 331.884615 
L 68.7348 331.935903 
L 71.838 331.691217 
L 74.873121 331.09896 
L 74.873121 328.42104 
L 74.9412 328.409119 
L 78.0444 328.180425 
L 81.1476 328.312199 
L 84.2508 328.343535 
L 87.354 328.157844 
L 90.4572 327.778111 
L 93.5604 327.407736 
L 96.6636 327.078381 
L 99.7668 326.7733 
L 102.87 326.475353 
L 105.9732 326.19222 
L 109.0764 325.853406 
L 109.743009 325.74312 
L 112.1796 325.548289 
L 115.2828 325.138041 
L 118.386 324.59974 
L 121.4892 323.973474 
L 124.5924 323.421223 
L 127.111466 323.0652 
L 127.6956 323.019824 
L 130.7988 322.73654 
L 133.902 322.360517 
L 137.0052 321.690883 
L 140.1084 320.714646 
L 141.329132 320.38728 
L 143.2116 320.028626 
L 146.3148 319.419494 
L 149.418 318.517001 
L 151.228405 317.70936 
L 152.5212 317.219863 
L 155.6244 315.810832 
L 157.088441 315.03144 
L 158.7276 313.997057 
L 160.866107 312.35352 
L 161.8308 311.21291 
L 163.533027 309.6756 
L 164.934 308.113236 
L 166.172609 306.99768 
L 167.952842 304.31976 
L 168.0372 304.001244 
L 168.669784 301.64184 
L 169.031251 298.96392 
L 168.925457 296.286 
L 168.0372 293.944587 
L 167.941162 293.60808 
L 166.986341 290.93016 
L 165.776935 288.25224 
L 164.934 287.10049 
L 164.087532 285.57432 
L 162.597656 282.8964 
L 161.8308 281.613046 
L 161.012615 280.21848 
L 158.7276 277.54056 
L 158.7276 277.54056 
L 156.424283 274.86264 
L 155.6244 273.522125 
L 155.123985 272.18472 
L 153.787389 269.5068 
L 152.5212 267.873647 
L 151.716248 266.82888 
L 149.833656 264.15096 
L 149.418 263.407433 
L 148.481321 261.47304 
L 146.377376 258.79512 
L 146.3148 258.737334 
L 143.775135 256.1172 
L 143.2116 255.448278 
L 141.835 253.43928 
L 140.1084 251.270837 
L 139.724923 250.76136 
L 137.402137 248.08344 
L 137.0052 247.636216 
L 134.975451 245.40552 
L 133.902 244.240399 
L 132.581015 242.7276 
L 130.7988 240.732477 
L 130.314227 240.04968 
L 128.624372 237.37176 
L 127.6956 235.816807 
L 126.979244 234.69384 
L 124.5924 232.126001 
L 124.480343 232.01592 
L 121.4892 229.374953 
L 121.459152 229.338 
L 120.088286 226.66008 
L 118.944613 223.98216 
L 118.386 222.98035 
L 117.294807 221.30424 
L 115.2828 219.069962 
L 114.549091 218.62632 
L 112.1796 217.292668 
L 109.0764 217.735429 
L 108.371848 218.62632 
L 106.87966 221.30424 
L 105.9732 222.995192 
L 105.559872 223.98216 
L 104.324567 226.66008 
L 103.356065 229.338 
L 102.87 230.85152 
L 102.450163 232.01592 
L 101.579125 234.69384 
L 101.213117 237.37176 
L 101.033274 240.04968 
L 100.7309 242.7276 
L 100.515424 245.40552 
L 100.623675 248.08344 
L 100.962065 250.76136 
L 101.35223 253.43928 
L 101.89375 256.1172 
L 102.727158 258.79512 
L 102.87 259.257197 
L 103.258342 261.47304 
L 103.708129 264.15096 
L 104.30316 266.82888 
L 104.965826 269.5068 
L 105.511709 272.18472 
L 105.9732 274.581369 
L 106.002754 274.86264 
L 106.382495 277.54056 
L 106.80387 280.21848 
L 107.139993 282.8964 
L 107.375645 285.57432 
L 107.589719 288.25224 
L 107.835472 290.93016 
L 107.895175 293.60808 
L 107.522433 296.286 
L 106.712111 298.96392 
L 105.9732 300.816438 
L 105.430763 301.64184 
L 103.505265 304.31976 
L 102.87 305.000525 
L 100.782352 306.99768 
L 99.7668 307.656176 
L 96.68799 309.6756 
L 96.6636 309.68691 
L 93.5604 311.105275 
L 91.231475 312.35352 
L 90.4572 312.625077 
L 87.354 313.434825 
L 84.2508 314.293649 
L 81.985164 315.03144 
L 81.1476 315.19075 
L 78.0444 315.782127 
L 74.9412 316.32861 
L 71.838 316.989149 
L 69.365399 317.70936 
L 68.7348 317.832894 
L 65.6316 318.277021 
L 62.5284 318.277021 
L 61.034112 320.38728 
L 60.483538 323.0652 
L 60.610469 325.74312 
L 61.617975 328.42104 
L 61.617975 331.09896 
z
M 94.970479 320.38728 
L 96.6636 318.24409 
L 96.709959 317.70936 
L 99.7668 315.496079 
L 100.204328 315.03144 
L 102.87 313.564345 
L 105.151847 312.35352 
L 105.9732 311.898103 
L 109.0764 309.886843 
L 109.298968 309.6756 
L 111.581541 306.99768 
L 112.1796 306.123987 
L 113.233399 304.31976 
L 114.342892 301.64184 
L 115.070811 298.96392 
L 115.2828 297.659605 
L 115.471462 296.286 
L 115.702554 293.60808 
L 115.742785 290.93016 
L 115.585575 288.25224 
L 115.428024 285.57432 
L 115.2828 283.282294 
L 115.253584 282.8964 
L 114.681975 280.21848 
L 114.037268 277.54056 
L 113.609161 274.86264 
L 113.280157 272.18472 
L 112.912374 269.5068 
L 112.51424 266.82888 
L 112.1796 264.990187 
L 112.011814 264.15096 
L 111.493593 261.47304 
L 111.34398 258.79512 
L 111.258683 256.1172 
L 111.028183 253.43928 
L 111.283665 250.76136 
L 112.1796 248.180066 
L 112.403842 248.08344 
L 115.2828 247.258896 
L 116.513816 248.08344 
L 118.386 248.874005 
L 120.705385 250.76136 
L 121.4892 251.306731 
L 123.950691 253.43928 
L 124.5924 253.972553 
L 126.87635 256.1172 
L 127.6956 256.842845 
L 129.734406 258.79512 
L 130.7988 259.762184 
L 132.591178 261.47304 
L 133.902 262.977742 
L 134.848265 264.15096 
L 136.86646 266.82888 
L 137.0052 267.003992 
L 139.018974 269.5068 
L 140.1084 270.879054 
L 141.155686 272.18472 
L 143.054698 274.86264 
L 143.2116 275.073302 
L 145.056634 277.54056 
L 146.3148 279.256876 
L 147.056578 280.21848 
L 148.70377 282.8964 
L 149.418 284.489536 
L 150.019891 285.57432 
L 151.218577 288.25224 
L 152.209647 290.93016 
L 152.5212 292.002617 
L 153.031361 293.60808 
L 153.288357 296.286 
L 153.120178 298.96392 
L 152.5212 301.036111 
L 152.377052 301.64184 
L 151.021439 304.31976 
L 149.418 306.708343 
L 149.216231 306.99768 
L 146.540782 309.6756 
L 146.3148 309.837106 
L 143.2116 311.659003 
L 141.707471 312.35352 
L 140.1084 312.997517 
L 137.0052 314.054305 
L 134.419945 315.03144 
L 133.902 315.223852 
L 130.7988 316.214727 
L 127.6956 316.912637 
L 124.5924 317.562654 
L 123.86814 317.70936 
L 121.4892 318.200472 
L 118.386 318.760742 
L 115.2828 319.194004 
L 112.1796 319.688987 
L 109.0764 320.38728 
L 109.0764 320.38728 
L 105.9732 320.78604 
L 102.87 320.81449 
L 99.7668 320.644806 
L 96.6636 320.462821 
z
" clip-path="url(#p7805642a2b)" style="fill: #0000ff; fill-opacity: 0.333333"/>
    <path d="M 96.6636 320.462821 
L 99.7668 320.644806 
L 102.87 320.81449 
L 105.9732 320.78604 
L 109.0764 320.38728 
L 109.0764 320.38728 
L 112.1796 319.688987 
L 115.2828 319.194004 
L 118.386 318.760742 
L 121.4892 318.200472 
L 123.86814 317.70936 
L 124.5924 317.562654 
L 127.6956 316.912637 
L 130.7988 316.214727 
L 133.902 315.223852 
L 134.419945 315.03144 
L 137.0052 314.054305 
L 140.1084 312.997517 
L 141.707471 312.35352 
L 143.2116 311.659003 
L 146.3148 309.837106 
L 146.540782 309.6756 
L 149.216231 306.99768 
L 149.418 306.708343 
L 151.021439 304.31976 
L 152.377052 301.64184 
L 152.5212 301.036111 
L 153.120178 298.96392 
L 153.288357 296.286 
L 153.031361 293.60808 
L 152.5212 292.002617 
L 152.209647 290.93016 
L 151.218577 288.25224 
L 150.019891 285.57432 
L 149.418 284.489536 
L 148.70377 282.8964 
L 147.056578 280.21848 
L 146.3148 279.256876 
L 145.056634 277.54056 
L 143.2116 275.073302 
L 143.054698 274.86264 
L 141.155686 272.18472 
L 140.1084 270.879054 
L 139.018974 269.5068 
L 137.0052 267.003992 
L 136.86646 266.82888 
L 134.848265 264.15096 
L 133.902 262.977742 
L 132.591178 261.47304 
L 130.7988 259.762184 
L 129.734406 258.79512 
L 127.6956 256.842845 
L 126.87635 256.1172 
L 124.5924 253.972553 
L 123.950691 253.43928 
L 121.4892 251.306731 
L 120.705385 250.76136 
L 118.386 248.874005 
L 116.513816 248.08344 
L 115.2828 247.258896 
L 112.403842 248.08344 
L 112.1796 248.180066 
L 111.283665 250.76136 
L 111.028183 253.43928 
L 111.258683 256.1172 
L 111.34398 258.79512 
L 111.493593 261.47304 
L 112.011814 264.15096 
L 112.1796 264.990187 
L 112.51424 266.82888 
L 112.912374 269.5068 
L 113.280157 272.18472 
L 113.609161 274.86264 
L 114.037268 277.54056 
L 114.681975 280.21848 
L 115.253584 282.8964 
L 115.2828 283.282294 
L 115.428024 285.57432 
L 115.585575 288.25224 
L 115.742785 290.93016 
L 115.702554 293.60808 
L 115.471462 296.286 
L 115.2828 297.659605 
L 115.070811 298.96392 
L 114.342892 301.64184 
L 113.233399 304.31976 
L 112.1796 306.123987 
L 111.581541 306.99768 
L 109.298968 309.6756 
L 109.0764 309.886843 
L 105.9732 311.898103 
L 105.151847 312.35352 
L 102.87 313.564345 
L 100.204328 315.03144 
L 99.7668 315.496079 
L 96.709959 317.70936 
L 96.6636 318.24409 
L 94.970479 320.38728 
z
" clip-path="url(#p7805642a2b)" style="fill: #0000ff"/>
   </g>
   <g id="matplotlib.axis_5">
    <g id="xtick_5">
     <g id="line2d_6">
      <g>
       <use xlink:href="#m8313856bdf" x="95.852501" y="329.76" style="stroke: #000000; stroke-width: 0.8"/>
      </g>
     </g>
     <g id="text_2">
      <!-- 0.15 -->
      <g transform="translate(89.931586 357.877081) rotate(-45) scale(0.1 -0.1)">
       <defs>
        <path id="DejaVuSans-31" d="M 794 531 
L 1825 531 
L 1825 4091 
L 703 3866 
L 703 4441 
L 1819 4666 
L 2450 4666 
L 2450 531 
L 3481 531 
L 3481 0 
L 794 0 
L 794 531 
z
" transform="scale(0.015625)"/>
       </defs>
       <use xlink:href="#DejaVuSans-30"/>
       <use xlink:href="#DejaVuSans-2e" x="63.623047"/>
       <use xlink:href="#DejaVuSans-31" x="95.410156"/>
       <use xlink:href="#DejaVuSans-35" x="159.033203"/>
      </g>
     </g>
    </g>
    <g id="xtick_6">
     <g id="line2d_7">
      <g>
       <use xlink:href="#m8313856bdf" x="127.628061" y="329.76" style="stroke: #000000; stroke-width: 0.8"/>
      </g>
     </g>
     <g id="text_3">
      <!-- 0.30 -->
      <g transform="translate(121.707146 357.877081) rotate(-45) scale(0.1 -0.1)">
       <defs>
        <path id="DejaVuSans-33" d="M 2597 2516 
Q 3050 2419 3304 2112 
Q 3559 1806 3559 1356 
Q 3559 666 3084 287 
Q 2609 -91 1734 -91 
Q 1441 -91 1130 -33 
Q 819 25 488 141 
L 488 750 
Q 750 597 1062 519 
Q 1375 441 1716 441 
Q 2309 441 2620 675 
Q 2931 909 2931 1356 
Q 2931 1769 2642 2001 
Q 2353 2234 1838 2234 
L 1294 2234 
L 1294 2753 
L 1863 2753 
Q 2328 2753 2575 2939 
Q 2822 3125 2822 3475 
Q 2822 3834 2567 4026 
Q 2313 4219 1838 4219 
Q 1578 4219 1281 4162 
Q 984 4106 628 3988 
L 628 4550 
Q 988 4650 1302 4700 
Q 1616 4750 1894 4750 
Q 2613 4750 3031 4423 
Q 3450 4097 3450 3541 
Q 3450 3153 3228 2886 
Q 3006 2619 2597 2516 
z
" transform="scale(0.015625)"/>
       </defs>
       <use xlink:href="#DejaVuSans-30"/>
       <use xlink:href="#DejaVuSans-2e" x="63.623047"/>
       <use xlink:href="#DejaVuSans-33" x="95.410156"/>
       <use xlink:href="#DejaVuSans-30" x="159.033203"/>
      </g>
     </g>
    </g>
    <g id="xtick_7">
     <g id="line2d_8">
      <g>
       <use xlink:href="#m8313856bdf" x="159.403621" y="329.76" style="stroke: #000000; stroke-width: 0.8"/>
      </g>
     </g>
     <g id="text_4">
      <!-- 0.45 -->
      <g transform="translate(153.482706 357.877081) rotate(-45) scale(0.1 -0.1)">
       <defs>
        <path id="DejaVuSans-34" d="M 2419 4116 
L 825 1625 
L 2419 1625 
L 2419 4116 
z
M 2253 4666 
L 3047 4666 
L 3047 1625 
L 3713 1625 
L 3713 1100 
L 3047 1100 
L 3047 0 
L 2419 0 
L 2419 1100 
L 313 1100 
L 313 1709 
L 2253 4666 
z
" transform="scale(0.015625)"/>
       </defs>
       <use xlink:href="#DejaVuSans-30"/>
       <use xlink:href="#DejaVuSans-2e" x="63.623047"/>
       <use xlink:href="#DejaVuSans-34" x="95.410156"/>
       <use xlink:href="#DejaVuSans-35" x="159.033203"/>
      </g>
     </g>
    </g>
    <g id="xtick_8">
     <g id="line2d_9">
      <g>
       <use xlink:href="#m8313856bdf" x="191.179181" y="329.76" style="stroke: #000000; stroke-width: 0.8"/>
      </g>
     </g>
     <g id="text_5">
      <!-- 0.60 -->
      <g transform="translate(185.258266 357.877081) rotate(-45) scale(0.1 -0.1)">
       <use xlink:href="#DejaVuSans-30"/>
       <use xlink:href="#DejaVuSans-2e" x="63.623047"/>
       <use xlink:href="#DejaVuSans-36" x="95.410156"/>
       <use xlink:href="#DejaVuSans-30" x="159.033203"/>
      </g>
     </g>
    </g>
    <g id="text_6">
     <!-- $\Omega_{2,0}$ -->
     <g transform="translate(131.36 377.3288) scale(0.1 -0.1)">
      <use xlink:href="#DejaVuSans-3a9" transform="translate(0 0.21875)"/>
      <use xlink:href="#DejaVuSans-32" transform="translate(77.373047 -16.1875) scale(0.7)"/>
      <use xlink:href="#DejaVuSans-2c" transform="translate(121.90918 -16.1875) scale(0.7)"/>
      <use xlink:href="#DejaVuSans-30" transform="translate(157.797852 -16.1875) scale(0.7)"/>
     </g>
    </g>
   </g>
   <g id="matplotlib.axis_6">
    <g id="ytick_1">
     <g id="line2d_10">
      <defs>
       <path id="m94a5bd4f9e" d="M 0 0 
L -3.5 0 
" style="stroke: #000000; stroke-width: 0.8"/>
      </defs>
      <g>
       <use xlink:href="#m94a5bd4f9e" x="64.08" y="302.086718" style="stroke: #000000; stroke-width: 0.8"/>
      </g>
     </g>
     <g id="text_7">
      <!-- 0 -->
      <g transform="translate(51.110472 308.159372) rotate(-45) scale(0.1 -0.1)">
       <use xlink:href="#DejaVuSans-30"/>
      </g>
     </g>
    </g>
    <g id="ytick_2">
     <g id="line2d_11">
      <g>
       <use xlink:href="#m94a5bd4f9e" x="64.08" y="270.192375" style="stroke: #000000; stroke-width: 0.8"/>
      </g>
     </g>
     <g id="text_8">
      <!-- 3 -->
      <g transform="translate(51.110472 276.265029) rotate(-45) scale(0.1 -0.1)">
       <use xlink:href="#DejaVuSans-33"/>
      </g>
     </g>
    </g>
    <g id="ytick_3">
     <g id="line2d_12">
      <g>
       <use xlink:href="#m94a5bd4f9e" x="64.08" y="238.298032" style="stroke: #000000; stroke-width: 0.8"/>
      </g>
     </g>
     <g id="text_9">
      <!-- 6 -->
      <g transform="translate(51.110472 244.370686) rotate(-45) scale(0.1 -0.1)">
       <use xlink:href="#DejaVuSans-36"/>
      </g>
     </g>
    </g>
    <g id="ytick_4">
     <g id="line2d_13">
      <g>
       <use xlink:href="#m94a5bd4f9e" x="64.08" y="206.403689" style="stroke: #000000; stroke-width: 0.8"/>
      </g>
     </g>
     <g id="text_10">
      <!-- 9 -->
      <g transform="translate(51.110472 212.476343) rotate(-45) scale(0.1 -0.1)">
       <use xlink:href="#DejaVuSans-39"/>
      </g>
     </g>
    </g>
    <g id="text_11">
     <!-- $n$ -->
     <g transform="translate(15.452313 266.012) rotate(-90) scale(0.1 -0.1)">
      <defs>
       <path id="DejaVuSans-Oblique-6e" d="M 3566 2113 
L 3156 0 
L 2578 0 
L 2988 2091 
Q 3016 2238 3031 2350 
Q 3047 2463 3047 2528 
Q 3047 2791 2881 2937 
Q 2716 3084 2419 3084 
Q 1956 3084 1622 2776 
Q 1288 2469 1184 1941 
L 800 0 
L 225 0 
L 903 3500 
L 1478 3500 
L 1363 2950 
Q 1603 3253 1940 3418 
Q 2278 3584 2650 3584 
Q 3113 3584 3367 3334 
Q 3622 3084 3622 2631 
Q 3622 2519 3608 2391 
Q 3594 2263 3566 2113 
z
" transform="scale(0.015625)"/>
      </defs>
      <use xlink:href="#DejaVuSans-Oblique-6e"/>
     </g>
    </g>
   </g>
   <g id="QuadContourSet_3">
    <path d="M 62.5284 331.884615 
L 65.6316 331.884615 
L 68.7348 331.935903 
L 71.838 331.691217 
L 74.873121 331.09896 
L 74.873121 328.42104 
L 74.9412 328.409119 
L 78.0444 328.180425 
L 81.1476 328.312199 
L 84.2508 328.343535 
L 87.354 328.157844 
L 90.4572 327.778111 
L 93.5604 327.407736 
L 96.6636 327.078381 
L 99.7668 326.7733 
L 102.87 326.475353 
L 105.9732 326.19222 
L 109.0764 325.853406 
L 109.743009 325.74312 
L 112.1796 325.548289 
L 115.2828 325.138041 
L 118.386 324.59974 
L 121.4892 323.973474 
L 124.5924 323.421223 
L 127.111466 323.0652 
L 127.6956 323.019824 
L 130.7988 322.73654 
L 133.902 322.360517 
L 137.0052 321.690883 
L 140.1084 320.714646 
L 141.329132 320.38728 
L 143.2116 320.028626 
L 146.3148 319.419494 
L 149.418 318.517001 
L 151.228405 317.70936 
L 152.5212 317.219863 
L 155.6244 315.810832 
L 157.088441 315.03144 
L 158.7276 313.997057 
L 160.866107 312.35352 
L 161.8308 311.21291 
L 163.533027 309.6756 
L 164.934 308.113236 
L 166.172609 306.99768 
L 167.952842 304.31976 
L 168.0372 304.001244 
L 168.669784 301.64184 
L 169.031251 298.96392 
L 168.925457 296.286 
L 168.0372 293.944587 
L 167.941162 293.60808 
L 166.986341 290.93016 
L 165.776935 288.25224 
L 164.934 287.10049 
L 164.087532 285.57432 
L 162.597656 282.8964 
L 161.8308 281.613046 
L 161.012615 280.21848 
L 158.7276 277.54056 
L 158.7276 277.54056 
L 156.424283 274.86264 
L 155.6244 273.522125 
L 155.123985 272.18472 
L 153.787389 269.5068 
L 152.5212 267.873647 
L 151.716248 266.82888 
L 149.833656 264.15096 
L 149.418 263.407433 
L 148.481321 261.47304 
L 146.377376 258.79512 
L 146.3148 258.737334 
L 143.775135 256.1172 
L 143.2116 255.448278 
L 141.835 253.43928 
L 140.1084 251.270837 
L 139.724923 250.76136 
L 137.402137 248.08344 
L 137.0052 247.636216 
L 134.975451 245.40552 
L 133.902 244.240399 
L 132.581015 242.7276 
L 130.7988 240.732477 
L 130.314227 240.04968 
L 128.624372 237.37176 
L 127.6956 235.816807 
L 126.979244 234.69384 
L 124.5924 232.126001 
L 124.480343 232.01592 
L 121.4892 229.374953 
L 121.459152 229.338 
L 120.088286 226.66008 
L 118.944613 223.98216 
L 118.386 222.98035 
L 117.294807 221.30424 
L 115.2828 219.069962 
L 114.549091 218.62632 
L 112.1796 217.292668 
L 109.0764 217.735429 
L 108.371848 218.62632 
L 106.87966 221.30424 
L 105.9732 222.995192 
L 105.559872 223.98216 
L 104.324567 226.66008 
L 103.356065 229.338 
L 102.87 230.85152 
L 102.450163 232.01592 
L 101.579125 234.69384 
L 101.213117 237.37176 
L 101.033274 240.04968 
L 100.7309 242.7276 
L 100.515424 245.40552 
L 100.623675 248.08344 
L 100.962065 250.76136 
L 101.35223 253.43928 
L 101.89375 256.1172 
L 102.727158 258.79512 
L 102.87 259.257197 
L 103.258342 261.47304 
L 103.708129 264.15096 
L 104.30316 266.82888 
L 104.965826 269.5068 
L 105.511709 272.18472 
L 105.9732 274.581369 
L 106.002754 274.86264 
L 106.382495 277.54056 
L 106.80387 280.21848 
L 107.139993 282.8964 
L 107.375645 285.57432 
L 107.589719 288.25224 
L 107.835472 290.93016 
L 107.895175 293.60808 
L 107.522433 296.286 
L 106.712111 298.96392 
L 105.9732 300.816438 
L 105.430763 301.64184 
L 103.505265 304.31976 
L 102.87 305.000525 
L 100.782352 306.99768 
L 99.7668 307.656176 
L 96.68799 309.6756 
L 96.6636 309.68691 
L 93.5604 311.105275 
L 91.231475 312.35352 
L 90.4572 312.625077 
L 87.354 313.434825 
L 84.2508 314.293649 
L 81.985164 315.03144 
L 81.1476 315.19075 
L 78.0444 315.782127 
L 74.9412 316.32861 
L 71.838 316.989149 
L 69.365399 317.70936 
L 68.7348 317.832894 
L 65.6316 318.277021 
L 62.5284 318.277021 
L 61.034112 320.38728 
L 60.483538 323.0652 
L 60.610469 325.74312 
L 61.617975 328.42104 
L 61.617975 331.09896 
L 62.5284 331.884615 
z
" clip-path="url(#p7805642a2b)" style="fill: none; stroke: #0000ff; stroke-width: 1.5"/>
    <path d="M 96.6636 320.462821 
L 99.7668 320.644806 
L 102.87 320.81449 
L 105.9732 320.78604 
L 109.0764 320.38728 
L 109.0764 320.38728 
L 112.1796 319.688987 
L 115.2828 319.194004 
L 118.386 318.760742 
L 121.4892 318.200472 
L 123.86814 317.70936 
L 124.5924 317.562654 
L 127.6956 316.912637 
L 130.7988 316.214727 
L 133.902 315.223852 
L 134.419945 315.03144 
L 137.0052 314.054305 
L 140.1084 312.997517 
L 141.707471 312.35352 
L 143.2116 311.659003 
L 146.3148 309.837106 
L 146.540782 309.6756 
L 149.216231 306.99768 
L 149.418 306.708343 
L 151.021439 304.31976 
L 152.377052 301.64184 
L 152.5212 301.036111 
L 153.120178 298.96392 
L 153.288357 296.286 
L 153.031361 293.60808 
L 152.5212 292.002617 
L 152.209647 290.93016 
L 151.218577 288.25224 
L 150.019891 285.57432 
L 149.418 284.489536 
L 148.70377 282.8964 
L 147.056578 280.21848 
L 146.3148 279.256876 
L 145.056634 277.54056 
L 143.2116 275.073302 
L 143.054698 274.86264 
L 141.155686 272.18472 
L 140.1084 270.879054 
L 139.018974 269.5068 
L 137.0052 267.003992 
L 136.86646 266.82888 
L 134.848265 264.15096 
L 133.902 262.977742 
L 132.591178 261.47304 
L 130.7988 259.762184 
L 129.734406 258.79512 
L 127.6956 256.842845 
L 126.87635 256.1172 
L 124.5924 253.972553 
L 123.950691 253.43928 
L 121.4892 251.306731 
L 120.705385 250.76136 
L 118.386 248.874005 
L 116.513816 248.08344 
L 115.2828 247.258896 
L 112.403842 248.08344 
L 112.1796 248.180066 
L 111.283665 250.76136 
L 111.028183 253.43928 
L 111.258683 256.1172 
L 111.34398 258.79512 
L 111.493593 261.47304 
L 112.011814 264.15096 
L 112.1796 264.990187 
L 112.51424 266.82888 
L 112.912374 269.5068 
L 113.280157 272.18472 
L 113.609161 274.86264 
L 114.037268 277.54056 
L 114.681975 280.21848 
L 115.253584 282.8964 
L 115.2828 283.282294 
L 115.428024 285.57432 
L 115.585575 288.25224 
L 115.742785 290.93016 
L 115.702554 293.60808 
L 115.471462 296.286 
L 115.2828 297.659605 
L 115.070811 298.96392 
L 114.342892 301.64184 
L 113.233399 304.31976 
L 112.1796 306.123987 
L 111.581541 306.99768 
L 109.298968 309.6756 
L 109.0764 309.886843 
L 105.9732 311.898103 
L 105.151847 312.35352 
L 102.87 313.564345 
L 100.204328 315.03144 
L 99.7668 315.496079 
L 96.709959 317.70936 
L 96.6636 318.24409 
L 94.970479 320.38728 
L 96.6636 320.462821 
z
" clip-path="url(#p7805642a2b)" style="fill: none; stroke: #0000ff; stroke-width: 1.5"/>
   </g>
   <g id="patch_8">
    <path d="M 64.08 329.76 
L 64.08 195.864 
" style="fill: none; stroke: #000000; stroke-width: 0.8; stroke-linejoin: miter; stroke-linecap: square"/>
   </g>
   <g id="patch_9">
    <path d="M 219.24 329.76 
L 219.24 195.864 
" style="fill: none; stroke: #000000; stroke-width: 0.8; stroke-linejoin: miter; stroke-linecap: square"/>
   </g>
   <g id="patch_10">
    <path d="M 64.08 329.76 
L 219.24 329.76 
" style="fill: none; stroke: #000000; stroke-width: 0.8; stroke-linejoin: miter; stroke-linecap: square"/>
   </g>
   <g id="patch_11">
    <path d="M 64.08 195.864 
L 219.24 195.864 
" style="fill: none; stroke: #000000; stroke-width: 0.8; stroke-linejoin: miter; stroke-linecap: square"/>
   </g>
  </g>
  <g id="axes_4">
   <g id="patch_12">
    <path d="M 230.04 329.76 
L 385.2 329.76 
L 385.2 195.864 
L 230.04 195.864 
z
" style="fill: #ffffff"/>
   </g>
   <g id="matplotlib.axis_7">
    <g id="xtick_9">
     <g id="line2d_14">
      <g>
       <use xlink:href="#m8313856bdf" x="262.108071" y="329.76" style="stroke: #000000; stroke-width: 0.8"/>
      </g>
     </g>
     <g id="text_12">
      <!-- 0 -->
      <g transform="translate(261.809761 346.631874) rotate(-45) scale(0.1 -0.1)">
       <use xlink:href="#DejaVuSans-30"/>
      </g>
     </g>
    </g>
    <g id="xtick_10">
     <g id="line2d_15">
      <g>
       <use xlink:href="#m8313856bdf" x="299.067549" y="329.76" style="stroke: #000000; stroke-width: 0.8"/>
      </g>
     </g>
     <g id="text_13">
      <!-- 3 -->
      <g transform="translate(298.769239 346.631874) rotate(-45) scale(0.1 -0.1)">
       <use xlink:href="#DejaVuSans-33"/>
      </g>
     </g>
    </g>
    <g id="xtick_11">
     <g id="line2d_16">
      <g>
       <use xlink:href="#m8313856bdf" x="336.027027" y="329.76" style="stroke: #000000; stroke-width: 0.8"/>
      </g>
     </g>
     <g id="text_14">
      <!-- 6 -->
      <g transform="translate(335.728717 346.631874) rotate(-45) scale(0.1 -0.1)">
       <use xlink:href="#DejaVuSans-36"/>
      </g>
     </g>
    </g>
    <g id="xtick_12">
     <g id="line2d_17">
      <g>
       <use xlink:href="#m8313856bdf" x="372.986505" y="329.76" style="stroke: #000000; stroke-width: 0.8"/>
      </g>
     </g>
     <g id="text_15">
      <!-- 9 -->
      <g transform="translate(372.688195 346.631874) rotate(-45) scale(0.1 -0.1)">
       <use xlink:href="#DejaVuSans-39"/>
      </g>
     </g>
    </g>
    <g id="text_16">
     <!-- $n$ -->
     <g transform="translate(304.42 377.527238) scale(0.1 -0.1)">
      <use xlink:href="#DejaVuSans-Oblique-6e"/>
     </g>
    </g>
   </g>
   <g id="matplotlib.axis_8"/>
   <g id="line2d_18">
    <path d="M 230.04 323.340067 
L 230.8158 323.340067 
L 230.8158 322.362196 
L 231.5916 322.362196 
L 231.5916 320.363939 
L 232.3674 320.363939 
L 232.3674 317.430327 
L 233.1432 317.430327 
L 233.1432 313.518844 
L 233.919 313.518844 
L 233.919 308.799555 
L 234.6948 308.799555 
L 234.6948 303.357493 
L 235.4706 303.357493 
L 235.4706 297.362721 
L 236.2464 297.362721 
L 236.2464 291.02782 
L 237.0222 291.02782 
L 237.0222 284.56537 
L 237.798 284.56537 
L 237.798 278.315501 
L 238.5738 278.315501 
L 238.5738 272.405761 
L 239.3496 272.405761 
L 239.3496 267.091247 
L 240.1254 267.091247 
L 240.1254 262.45699 
L 240.9012 262.45699 
L 240.9012 258.502992 
L 241.677 258.502992 
L 241.677 255.229251 
L 242.4528 255.229251 
L 242.4528 252.50822 
L 243.2286 252.50822 
L 243.2286 250.212349 
L 244.0044 250.212349 
L 244.0044 248.12906 
L 244.7802 248.12906 
L 244.7802 246.215835 
L 245.556 246.215835 
L 245.556 244.345126 
L 246.3318 244.345126 
L 246.3318 242.516933 
L 247.1076 242.516933 
L 247.1076 240.68874 
L 247.8834 240.68874 
L 247.8834 238.945579 
L 248.6592 238.945579 
L 248.6592 237.287451 
L 249.435 237.287451 
L 249.435 235.75687 
L 250.2108 235.75687 
L 250.2108 234.311323 
L 250.9866 234.311323 
L 250.9866 232.950807 
L 251.7624 232.950807 
L 251.7624 231.675323 
L 252.5382 231.675323 
L 252.5382 230.442356 
L 253.314 230.442356 
L 253.314 229.166873 
L 254.0898 229.166873 
L 254.0898 227.891389 
L 254.8656 227.891389 
L 254.8656 226.57339 
L 255.6414 226.57339 
L 255.6414 225.25539 
L 256.4172 225.25539 
L 256.4172 223.852358 
L 257.193 223.852358 
L 257.193 222.449327 
L 257.9688 222.449327 
L 257.9688 220.918746 
L 258.7446 220.918746 
L 258.7446 219.388166 
L 259.5204 219.388166 
L 259.5204 217.81507 
L 260.2962 217.81507 
L 260.2962 216.28449 
L 261.072 216.28449 
L 261.072 214.796426 
L 261.8478 214.796426 
L 261.8478 213.43591 
L 262.6236 213.43591 
L 262.6236 212.202943 
L 263.3994 212.202943 
L 263.3994 211.14004 
L 264.1752 211.14004 
L 264.1752 210.289718 
L 264.951 210.289718 
L 264.951 209.566944 
L 265.7268 209.566944 
L 265.7268 208.971718 
L 266.5026 208.971718 
L 266.5026 208.546557 
L 267.2784 208.546557 
L 267.2784 208.248944 
L 268.0542 208.248944 
L 268.0542 208.07888 
L 270.3816 208.163912 
L 270.3816 208.461525 
L 271.1574 208.461525 
L 271.1574 208.971718 
L 271.9332 208.971718 
L 271.9332 209.651976 
L 272.709 209.651976 
L 272.709 210.459782 
L 273.4848 210.459782 
L 273.4848 211.480169 
L 274.2606 211.480169 
L 274.2606 212.543072 
L 275.0364 212.543072 
L 275.0364 213.691007 
L 275.8122 213.691007 
L 275.8122 214.838942 
L 276.588 214.838942 
L 276.588 216.029393 
L 277.3638 216.029393 
L 277.3638 217.134812 
L 278.1396 217.134812 
L 278.1396 218.282747 
L 278.9154 218.282747 
L 278.9154 219.430682 
L 279.6912 219.430682 
L 279.6912 220.578617 
L 280.467 220.578617 
L 280.467 221.811585 
L 281.2428 221.811585 
L 281.2428 223.129584 
L 282.0186 223.129584 
L 282.0186 224.4901 
L 282.7944 224.4901 
L 282.7944 225.935648 
L 283.5702 225.935648 
L 283.5702 227.381196 
L 284.346 227.381196 
L 284.346 228.86926 
L 285.1218 228.86926 
L 285.1218 230.314808 
L 285.8976 230.314808 
L 285.8976 231.71784 
L 286.6734 231.71784 
L 286.6734 233.120871 
L 287.4492 233.120871 
L 287.4492 234.523903 
L 288.225 234.523903 
L 288.225 235.884419 
L 289.0008 235.884419 
L 289.0008 237.329967 
L 289.7766 237.329967 
L 289.7766 238.860547 
L 290.5524 238.860547 
L 290.5524 240.433643 
L 291.3282 240.433643 
L 291.3282 242.091772 
L 292.104 242.091772 
L 292.104 243.834932 
L 292.8798 243.834932 
L 292.8798 245.578093 
L 293.6556 245.578093 
L 293.6556 247.321254 
L 294.4314 247.321254 
L 294.4314 249.064414 
L 295.2072 249.064414 
L 295.2072 250.765059 
L 295.983 250.765059 
L 295.983 252.380671 
L 296.7588 252.380671 
L 296.7588 253.996284 
L 297.5346 253.996284 
L 297.5346 255.56938 
L 298.3104 255.56938 
L 298.3104 257.09996 
L 299.0862 257.09996 
L 299.0862 258.588024 
L 299.862 258.588024 
L 299.862 260.118604 
L 300.6378 260.118604 
L 300.6378 261.606668 
L 301.4136 261.606668 
L 301.4136 263.094732 
L 302.1894 263.094732 
L 302.1894 264.582796 
L 302.9652 264.582796 
L 302.9652 265.985828 
L 303.741 265.985828 
L 303.741 267.38886 
L 304.5168 267.38886 
L 304.5168 268.664343 
L 305.2926 268.664343 
L 305.2926 269.897311 
L 306.0684 269.897311 
L 306.0684 271.087762 
L 306.8442 271.087762 
L 306.8442 272.235697 
L 307.62 272.235697 
L 307.62 273.383632 
L 308.3958 273.383632 
L 308.3958 274.574083 
L 309.1716 274.574083 
L 309.1716 275.849567 
L 309.9474 275.849567 
L 309.9474 277.167566 
L 310.7232 277.167566 
L 310.7232 278.528082 
L 311.499 278.528082 
L 311.499 279.931114 
L 312.2748 279.931114 
L 312.2748 281.291629 
L 313.0506 281.291629 
L 313.0506 282.652145 
L 313.8264 282.652145 
L 313.8264 283.927628 
L 314.6022 283.927628 
L 314.6022 285.075563 
L 315.378 285.075563 
L 315.378 286.180982 
L 316.1538 286.180982 
L 316.1538 287.243885 
L 316.9296 287.243885 
L 316.9296 288.306788 
L 317.7054 288.306788 
L 317.7054 289.369691 
L 318.4812 289.369691 
L 318.4812 290.47511 
L 319.257 290.47511 
L 319.257 291.623045 
L 320.0328 291.623045 
L 320.0328 292.813496 
L 320.8086 292.813496 
L 320.8086 294.046464 
L 321.5844 294.046464 
L 321.5844 295.236915 
L 322.3602 295.236915 
L 322.3602 296.38485 
L 323.136 296.38485 
L 323.136 297.490269 
L 323.9118 297.490269 
L 323.9118 298.510656 
L 324.6876 298.510656 
L 324.6876 299.488526 
L 325.4634 299.488526 
L 325.4634 300.423881 
L 326.2392 300.423881 
L 326.2392 301.274203 
L 327.015 301.274203 
L 327.015 302.082009 
L 327.7908 302.082009 
L 327.7908 302.889816 
L 328.5666 302.889816 
L 328.5666 303.697622 
L 329.3424 303.697622 
L 329.3424 304.505428 
L 330.1182 304.505428 
L 330.1182 305.313234 
L 330.894 305.313234 
L 330.894 306.163556 
L 331.6698 306.163556 
L 331.6698 307.013879 
L 332.4456 307.013879 
L 332.4456 307.864201 
L 333.2214 307.864201 
L 333.2214 308.672007 
L 333.9972 308.672007 
L 333.9972 309.522329 
L 334.773 309.522329 
L 334.773 310.287619 
L 335.5488 310.287619 
L 335.5488 311.05291 
L 336.3246 311.05291 
L 336.3246 311.775683 
L 337.1004 311.775683 
L 337.1004 312.498457 
L 337.8762 312.498457 
L 337.8762 313.178715 
L 338.652 313.178715 
L 338.652 313.816457 
L 339.4278 313.816457 
L 339.4278 314.496715 
L 340.2036 314.496715 
L 340.2036 315.176973 
L 340.9794 315.176973 
L 340.9794 315.85723 
L 341.7552 315.85723 
L 341.7552 316.537488 
L 342.531 316.537488 
L 342.531 317.217746 
L 343.3068 317.217746 
L 343.3068 317.855488 
L 344.0826 317.855488 
L 344.0826 318.49323 
L 344.8584 318.49323 
L 344.8584 319.130971 
L 345.6342 319.130971 
L 345.6342 319.683681 
L 346.41 319.683681 
L 346.41 320.23639 
L 347.1858 320.23639 
L 347.1858 320.746584 
L 347.9616 320.746584 
L 347.9616 321.214261 
L 348.7374 321.214261 
L 348.7374 321.639422 
L 349.5132 321.639422 
L 349.5132 322.064583 
L 350.289 322.064583 
L 350.289 322.447228 
L 351.0648 322.447228 
L 351.0648 322.787357 
L 351.8406 322.787357 
L 351.8406 323.127486 
L 352.6164 323.127486 
L 352.6164 323.467615 
L 353.3922 323.467615 
L 353.3922 323.765228 
L 354.168 323.765228 
L 354.168 324.062841 
L 354.9438 324.062841 
L 354.9438 324.317937 
L 355.7196 324.317937 
L 355.7196 324.61555 
L 356.4954 324.61555 
L 356.4954 324.870647 
L 357.2712 324.870647 
L 357.2712 325.125743 
L 358.047 325.125743 
L 358.047 325.38084 
L 358.8228 325.38084 
L 358.8228 325.635937 
L 359.5986 325.635937 
L 359.5986 325.891034 
L 360.3744 325.891034 
L 360.3744 326.103614 
L 361.1502 326.103614 
L 361.1502 326.358711 
L 361.926 326.358711 
L 361.926 326.613808 
L 362.7018 326.613808 
L 362.7018 326.826388 
L 363.4776 326.826388 
L 363.4776 327.038969 
L 364.2534 327.038969 
L 364.2534 327.251549 
L 365.0292 327.251549 
L 365.0292 327.46413 
L 365.805 327.46413 
L 365.805 327.634194 
L 366.5808 327.634194 
L 366.5808 327.804259 
L 367.3566 327.804259 
L 367.3566 327.931807 
L 368.1324 327.931807 
L 368.1324 328.059355 
L 368.9082 328.059355 
L 368.9082 328.186904 
L 370.4598 328.271936 
L 370.4598 328.356968 
L 372.7872 328.442 
L 372.7872 328.484517 
L 375.1146 328.569549 
L 375.1146 328.612065 
L 376.6662 328.654581 
L 376.6662 328.739613 
L 378.2178 328.824645 
L 378.2178 328.867162 
L 379.7694 328.952194 
L 379.7694 329.037226 
L 382.0968 329.122258 
L 382.0968 329.164774 
L 385.2 329.207291 
L 385.2 329.207291 
" clip-path="url(#p0b7cfda72e)" style="fill: none; stroke: #0000ff; stroke-width: 1.5; stroke-linecap: square"/>
   </g>
   <g id="patch_13">
    <path d="M 230.04 329.76 
L 230.04 195.864 
" style="fill: none; stroke: #000000; stroke-width: 0.8; stroke-linejoin: miter; stroke-linecap: square"/>
   </g>
   <g id="patch_14">
    <path d="M 385.2 329.76 
L 385.2 195.864 
" style="fill: none; stroke: #000000; stroke-width: 0.8; stroke-linejoin: miter; stroke-linecap: square"/>
   </g>
   <g id="patch_15">
    <path d="M 230.04 329.76 
L 385.2 329.76 
" style="fill: none; stroke: #000000; stroke-width: 0.8; stroke-linejoin: miter; stroke-linecap: square"/>
   </g>
   <g id="patch_16">
    <path d="M 230.04 195.864 
L 385.2 195.864 
" style="fill: none; stroke: #000000; stroke-width: 0.8; stroke-linejoin: miter; stroke-linecap: square"/>
   </g>
   <g id="text_17">
    <!-- $n$ = ${1.1177}_{-1.9436}^{+2.5735}$ -->
    <g transform="translate(246.93 189.864) scale(0.14 -0.14)">
     <use xlink:href="#DejaVuSans-Oblique-6e" transform="translate(0 0.765625)"/>
     <use xlink:href="#DejaVuSans-20" transform="translate(63.378906 0.765625)"/>
     <use xlink:href="#DejaVuSans-3d" transform="translate(95.166016 0.765625)"/>
     <use xlink:href="#DejaVuSans-20" transform="translate(178.955078 0.765625)"/>
     <use xlink:href="#DejaVuSans-31" transform="translate(210.742188 0.765625)"/>
     <use xlink:href="#DejaVuSans-2e" transform="translate(274.365234 0.765625)"/>
     <use xlink:href="#DejaVuSans-31" transform="translate(306.152344 0.765625)"/>
     <use xlink:href="#DejaVuSans-31" transform="translate(369.775391 0.765625)"/>
     <use xlink:href="#DejaVuSans-37" transform="translate(433.398438 0.765625)"/>
     <use xlink:href="#DejaVuSans-37" transform="translate(495.271484 0.765625)"/>
     <use xlink:href="#DejaVuSans-2b" transform="translate(559.851562 39.046875) scale(0.7)"/>
     <use xlink:href="#DejaVuSans-32" transform="translate(618.503906 39.046875) scale(0.7)"/>
     <use xlink:href="#DejaVuSans-2e" transform="translate(663.040039 39.046875) scale(0.7)"/>
     <use xlink:href="#DejaVuSans-35" transform="translate(685.291016 39.046875) scale(0.7)"/>
     <use xlink:href="#DejaVuSans-37" transform="translate(724.752148 39.046875) scale(0.7)"/>
     <use xlink:href="#DejaVuSans-33" transform="translate(769.288281 39.046875) scale(0.7)"/>
     <use xlink:href="#DejaVuSans-35" transform="translate(813.824414 39.046875) scale(0.7)"/>
     <use xlink:href="#DejaVuSans-2212" transform="translate(559.851562 -26.578125) scale(0.7)"/>
     <use xlink:href="#DejaVuSans-31" transform="translate(618.503906 -26.578125) scale(0.7)"/>
     <use xlink:href="#DejaVuSans-2e" transform="translate(663.040039 -26.578125) scale(0.7)"/>
     <use xlink:href="#DejaVuSans-39" transform="translate(685.291016 -26.578125) scale(0.7)"/>
     <use xlink:href="#DejaVuSans-34" transform="translate(729.827148 -26.578125) scale(0.7)"/>
     <use xlink:href="#DejaVuSans-33" transform="translate(774.363281 -26.578125) scale(0.7)"/>
     <use xlink:href="#DejaVuSans-36" transform="translate(818.899414 -26.578125) scale(0.7)"/>
    </g>
   </g>
  </g>
 </g>
 <defs>
  <clipPath id="pf8810a5b81">
   <rect x="64.08" y="30.984" width="155.16" height="133.896"/>
  </clipPath>
  <clipPath id="p7805642a2b">
   <rect x="64.08" y="195.864" width="155.16" height="133.896"/>
  </clipPath>
  <clipPath id="p0b7cfda72e">
   <rect x="230.04" y="195.864" width="155.16" height="133.896"/>
  </clipPath>
 </defs>
</svg>
