<?xml version="1.0" encoding="utf-8" standalone="no"?>
<!DOCTYPE svg PUBLIC "-//W3C//DTD SVG 1.1//EN"
  "http://www.w3.org/Graphics/SVG/1.1/DTD/svg11.dtd">
<svg xmlns:xlink="http://www.w3.org/1999/xlink" width="396pt" height="396pt" viewBox="0 0 396 396" xmlns="http://www.w3.org/2000/svg" version="1.1">
 <metadata>
  <rdf:RDF xmlns:dc="http://purl.org/dc/elements/1.1/" xmlns:cc="http://creativecommons.org/ns#" xmlns:rdf="http://www.w3.org/1999/02/22-rdf-syntax-ns#">
   <cc:Work>
    <dc:type rdf:resource="http://purl.org/dc/dcmitype/StillImage"/>
    <dc:date>2024-11-19T12:56:14.857691</dc:date>
    <dc:format>image/svg+xml</dc:format>
    <dc:creator>
     <cc:Agent>
      <dc:title>Matplotlib v3.9.2, https://matplotlib.org/</dc:title>
     </cc:Agent>
    </dc:creator>
   </cc:Work>
  </rdf:RDF>
 </metadata>
 <defs>
  <style type="text/css">*{stroke-linejoin: round; stroke-linecap: butt}</style>
 </defs>
 <g id="figure_1">
  <g id="patch_1">
   <path d="M 0 396 
L 396 396 
L 396 0 
L 0 0 
z
" style="fill: #ffffff"/>
  </g>
  <g id="axes_1">
   <g id="patch_2">
    <path d="M 66.96 164.52 
L 216.28513 164.52 
L 216.28513 30.984 
L 66.96 30.984 
z
" style="fill: #ffffff"/>
   </g>
   <g id="matplotlib.axis_1">
    <g id="xtick_1">
     <g id="line2d_1">
      <defs>
       <path id="m34aadc2ec4" d="M 0 0 
L 0 3.5 
" style="stroke: #000000; stroke-width: 0.8"/>
      </defs>
      <g>
       <use xlink:href="#m34aadc2ec4" x="92.677107" y="164.52" style="stroke: #000000; stroke-width: 0.8"/>
      </g>
     </g>
    </g>
    <g id="xtick_2">
     <g id="line2d_2">
      <g>
       <use xlink:href="#m34aadc2ec4" x="134.932932" y="164.52" style="stroke: #000000; stroke-width: 0.8"/>
      </g>
     </g>
    </g>
    <g id="xtick_3">
     <g id="line2d_3">
      <g>
       <use xlink:href="#m34aadc2ec4" x="177.188756" y="164.52" style="stroke: #000000; stroke-width: 0.8"/>
      </g>
     </g>
    </g>
   </g>
   <g id="matplotlib.axis_2"/>
   <g id="line2d_4">
    <path d="M 66.96 164.363258 
L 72.18638 164.284888 
L 72.18638 164.206517 
L 81.892513 164.128146 
L 81.892513 164.049775 
L 84.13239 163.971404 
L 84.13239 163.814663 
L 84.879016 163.814663 
L 84.879016 163.657921 
L 86.372267 163.57955 
L 86.372267 163.344438 
L 87.118893 163.344438 
L 87.118893 163.187696 
L 87.865518 163.187696 
L 87.865518 163.030955 
L 88.612144 163.030955 
L 88.612144 162.795842 
L 89.35877 162.795842 
L 89.35877 162.639101 
L 90.105395 162.639101 
L 90.105395 162.482359 
L 90.852021 162.482359 
L 90.852021 162.325618 
L 91.598647 162.325618 
L 91.598647 162.168876 
L 92.345272 162.168876 
L 92.345272 162.012135 
L 93.091898 162.012135 
L 93.091898 161.855393 
L 93.838523 161.855393 
L 93.838523 161.698651 
L 94.585149 161.698651 
L 94.585149 161.54191 
L 95.331775 161.54191 
L 95.331775 161.306797 
L 96.0784 161.306797 
L 96.0784 160.993314 
L 96.825026 160.993314 
L 96.825026 160.679831 
L 97.571652 160.679831 
L 97.571652 160.287977 
L 98.318277 160.287977 
L 98.318277 159.817752 
L 99.064903 159.817752 
L 99.064903 159.190786 
L 99.811529 159.190786 
L 99.811529 158.563819 
L 100.558154 158.563819 
L 100.558154 157.780112 
L 101.30478 157.780112 
L 101.30478 156.918033 
L 102.051406 156.918033 
L 102.051406 155.977583 
L 102.798031 155.977583 
L 102.798031 154.880392 
L 103.544657 154.880392 
L 103.544657 153.70483 
L 104.291283 153.70483 
L 104.291283 152.450897 
L 105.037908 152.450897 
L 105.037908 151.118594 
L 105.784534 151.118594 
L 105.784534 149.707919 
L 106.53116 149.707919 
L 106.53116 148.218874 
L 107.277785 148.218874 
L 107.277785 146.651458 
L 108.024411 146.651458 
L 108.024411 145.005672 
L 108.771036 145.005672 
L 108.771036 143.281514 
L 109.517662 143.281514 
L 109.517662 141.478986 
L 110.264288 141.478986 
L 110.264288 139.598087 
L 111.010913 139.598087 
L 111.010913 137.560446 
L 111.757539 137.560446 
L 111.757539 135.287693 
L 112.504165 135.287693 
L 112.504165 132.858198 
L 113.25079 132.858198 
L 113.25079 130.271962 
L 113.997416 130.271962 
L 113.997416 127.372243 
L 114.744042 127.372243 
L 114.744042 124.315781 
L 115.490667 124.315781 
L 115.490667 121.18095 
L 116.237293 121.18095 
L 116.237293 117.811005 
L 116.983919 117.811005 
L 116.983919 114.36269 
L 117.730544 114.36269 
L 117.730544 110.836004 
L 118.47717 110.836004 
L 118.47717 107.152577 
L 119.223796 107.152577 
L 119.223796 103.46915 
L 119.970421 103.46915 
L 119.970421 99.785722 
L 120.717047 99.785722 
L 120.717047 96.023924 
L 121.463673 96.023924 
L 121.463673 92.262126 
L 122.210298 92.262126 
L 122.210298 88.500327 
L 122.956924 88.500327 
L 122.956924 84.8169 
L 123.70355 84.8169 
L 123.70355 81.133473 
L 124.450175 81.133473 
L 124.450175 77.450045 
L 125.196801 77.450045 
L 125.196801 73.844989 
L 125.943426 73.844989 
L 125.943426 70.239932 
L 126.690052 70.239932 
L 126.690052 66.713246 
L 127.436678 66.713246 
L 127.436678 63.18656 
L 128.183303 63.18656 
L 128.183303 59.738245 
L 128.929929 59.738245 
L 128.929929 56.368301 
L 129.676555 56.368301 
L 129.676555 53.233469 
L 130.42318 53.233469 
L 130.42318 50.41212 
L 131.169806 50.41212 
L 131.169806 47.982626 
L 131.916432 47.982626 
L 131.916432 46.101727 
L 132.663057 46.101727 
L 132.663057 44.612681 
L 133.409683 44.612681 
L 133.409683 43.672232 
L 134.156309 43.672232 
L 134.156309 43.202007 
L 136.396186 43.280378 
L 136.396186 43.750603 
L 137.142811 43.750603 
L 137.142811 44.377569 
L 137.889437 44.377569 
L 137.889437 45.082906 
L 138.636063 45.082906 
L 138.636063 45.944985 
L 139.382688 45.944985 
L 139.382688 46.807064 
L 140.129314 46.807064 
L 140.129314 47.747513 
L 140.87594 47.747513 
L 140.87594 48.766334 
L 141.622565 48.766334 
L 141.622565 49.785154 
L 142.369191 49.785154 
L 142.369191 50.882345 
L 143.115816 50.882345 
L 143.115816 52.057907 
L 143.862442 52.057907 
L 143.862442 53.31184 
L 144.609068 53.31184 
L 144.609068 54.722514 
L 145.355693 54.722514 
L 145.355693 56.368301 
L 146.102319 56.368301 
L 146.102319 58.170829 
L 146.848945 58.170829 
L 146.848945 60.20847 
L 147.59557 60.20847 
L 147.59557 62.402852 
L 148.342196 62.402852 
L 148.342196 64.675605 
L 149.088822 64.675605 
L 149.088822 67.1051 
L 149.835447 67.1051 
L 149.835447 69.534595 
L 150.582073 69.534595 
L 150.582073 72.04246 
L 151.328699 72.04246 
L 151.328699 74.628697 
L 152.075324 74.628697 
L 152.075324 77.214933 
L 152.82195 77.214933 
L 152.82195 79.87954 
L 153.568576 79.87954 
L 153.568576 82.700889 
L 154.315201 82.700889 
L 154.315201 85.600608 
L 155.061827 85.600608 
L 155.061827 88.657069 
L 155.808453 88.657069 
L 155.808453 91.791901 
L 156.555078 91.791901 
L 156.555078 94.926733 
L 157.301704 94.926733 
L 157.301704 97.983194 
L 158.048329 97.983194 
L 158.048329 101.039655 
L 158.794955 101.039655 
L 158.794955 104.017745 
L 159.541581 104.017745 
L 159.541581 106.839094 
L 160.288206 106.839094 
L 160.288206 109.503701 
L 161.034832 109.503701 
L 161.034832 111.933196 
L 161.781458 111.933196 
L 161.781458 114.28432 
L 162.528083 114.28432 
L 162.528083 116.478702 
L 163.274709 116.478702 
L 163.274709 118.516343 
L 164.021335 118.516343 
L 164.021335 120.475612 
L 164.76796 120.475612 
L 164.76796 122.434882 
L 165.514586 122.434882 
L 165.514586 124.237411 
L 166.261212 124.237411 
L 166.261212 126.039939 
L 167.007837 126.039939 
L 167.007837 127.842467 
L 167.754463 127.842467 
L 167.754463 129.566625 
L 168.501089 129.566625 
L 168.501089 131.290782 
L 169.247714 131.290782 
L 169.247714 132.936569 
L 169.99434 132.936569 
L 169.99434 134.660727 
L 170.740966 134.660727 
L 170.740966 136.306513 
L 171.487591 136.306513 
L 171.487591 137.873929 
L 172.234217 137.873929 
L 172.234217 139.441345 
L 172.980843 139.441345 
L 172.980843 140.93039 
L 173.727468 140.93039 
L 173.727468 142.341065 
L 174.474094 142.341065 
L 174.474094 143.673368 
L 175.220719 143.673368 
L 175.220719 145.005672 
L 175.967345 145.005672 
L 175.967345 146.259604 
L 176.713971 146.259604 
L 176.713971 147.435166 
L 177.460596 147.435166 
L 177.460596 148.532358 
L 178.207222 148.532358 
L 178.207222 149.551178 
L 178.953848 149.551178 
L 178.953848 150.491627 
L 179.700473 150.491627 
L 179.700473 151.353706 
L 180.447099 151.353706 
L 180.447099 152.137414 
L 181.193725 152.137414 
L 181.193725 152.999493 
L 181.94035 152.999493 
L 181.94035 153.70483 
L 182.686976 153.70483 
L 182.686976 154.488538 
L 183.433602 154.488538 
L 183.433602 155.193875 
L 184.180227 155.193875 
L 184.180227 155.899212 
L 184.926853 155.899212 
L 184.926853 156.60455 
L 185.673479 156.60455 
L 185.673479 157.309887 
L 186.420104 157.309887 
L 186.420104 157.936853 
L 187.16673 157.936853 
L 187.16673 158.485449 
L 187.913356 158.485449 
L 187.913356 159.112415 
L 188.659981 159.112415 
L 188.659981 159.58264 
L 189.406607 159.58264 
L 189.406607 160.052865 
L 190.153233 160.052865 
L 190.153233 160.523089 
L 190.899858 160.523089 
L 190.899858 160.914943 
L 191.646484 160.914943 
L 191.646484 161.306797 
L 192.393109 161.306797 
L 192.393109 161.620281 
L 193.139735 161.620281 
L 193.139735 161.933764 
L 193.886361 161.933764 
L 193.886361 162.168876 
L 194.632986 162.168876 
L 194.632986 162.403988 
L 195.379612 162.403988 
L 195.379612 162.639101 
L 196.126238 162.639101 
L 196.126238 162.874213 
L 196.872863 162.874213 
L 196.872863 163.030955 
L 197.619489 163.030955 
L 197.619489 163.266067 
L 198.366115 163.266067 
L 198.366115 163.50118 
L 199.11274 163.50118 
L 199.11274 163.657921 
L 199.859366 163.657921 
L 199.859366 163.814663 
L 201.352617 163.893034 
L 201.352617 164.049775 
L 202.845869 164.128146 
L 202.845869 164.206517 
L 208.818874 164.284888 
L 208.818874 164.363258 
L 214.045253 164.441629 
L 214.045253 164.52 
L 216.28513 164.52 
L 216.28513 164.52 
" clip-path="url(#p496ea73a7b)" style="fill: none; stroke: #0000ff; stroke-width: 1.5; stroke-linecap: square"/>
   </g>
   <g id="patch_3">
    <path d="M 66.96 164.52 
L 66.96 30.984 
" style="fill: none; stroke: #000000; stroke-width: 0.8; stroke-linejoin: miter; stroke-linecap: square"/>
   </g>
   <g id="patch_4">
    <path d="M 216.28513 164.52 
L 216.28513 30.984 
" style="fill: none; stroke: #000000; stroke-width: 0.8; stroke-linejoin: miter; stroke-linecap: square"/>
   </g>
   <g id="patch_5">
    <path d="M 66.96 164.52 
L 216.28513 164.52 
" style="fill: none; stroke: #000000; stroke-width: 0.8; stroke-linejoin: miter; stroke-linecap: square"/>
   </g>
   <g id="patch_6">
    <path d="M 66.96 30.984 
L 216.28513 30.984 
" style="fill: none; stroke: #000000; stroke-width: 0.8; stroke-linejoin: miter; stroke-linecap: square"/>
   </g>
   <g id="text_1">
    <!-- $\Omega_{2,0}$ = ${0.3172}_{-0.0565}^{+0.0654}$ -->
    <g transform="translate(70.922565 24.984) scale(0.14 -0.14)">
     <defs>
      <path id="DejaVuSans-3a9" d="M 4647 556 
L 4647 0 
L 2772 0 
L 2772 556 
Q 3325 859 3634 1378 
Q 3944 1897 3944 2528 
Q 3944 3278 3531 3731 
Q 3119 4184 2444 4184 
Q 1769 4184 1355 3729 
Q 941 3275 941 2528 
Q 941 1897 1250 1378 
Q 1563 859 2119 556 
L 2119 0 
L 244 0 
L 244 556 
L 1241 556 
Q 747 991 519 1456 
Q 294 1922 294 2497 
Q 294 3491 894 4106 
Q 1491 4722 2444 4722 
Q 3391 4722 3994 4106 
Q 4594 3494 4594 2528 
Q 4594 1922 4372 1459 
Q 4150 997 3647 556 
L 4647 556 
z
" transform="scale(0.015625)"/>
      <path id="DejaVuSans-32" d="M 1228 531 
L 3431 531 
L 3431 0 
L 469 0 
L 469 531 
Q 828 903 1448 1529 
Q 2069 2156 2228 2338 
Q 2531 2678 2651 2914 
Q 2772 3150 2772 3378 
Q 2772 3750 2511 3984 
Q 2250 4219 1831 4219 
Q 1534 4219 1204 4116 
Q 875 4013 500 3803 
L 500 4441 
Q 881 4594 1212 4672 
Q 1544 4750 1819 4750 
Q 2544 4750 2975 4387 
Q 3406 4025 3406 3419 
Q 3406 3131 3298 2873 
Q 3191 2616 2906 2266 
Q 2828 2175 2409 1742 
Q 1991 1309 1228 531 
z
" transform="scale(0.015625)"/>
      <path id="DejaVuSans-2c" d="M 750 794 
L 1409 794 
L 1409 256 
L 897 -744 
L 494 -744 
L 750 256 
L 750 794 
z
" transform="scale(0.015625)"/>
      <path id="DejaVuSans-30" d="M 2034 4250 
Q 1547 4250 1301 3770 
Q 1056 3291 1056 2328 
Q 1056 1369 1301 889 
Q 1547 409 2034 409 
Q 2525 409 2770 889 
Q 3016 1369 3016 2328 
Q 3016 3291 2770 3770 
Q 2525 4250 2034 4250 
z
M 2034 4750 
Q 2819 4750 3233 4129 
Q 3647 3509 3647 2328 
Q 3647 1150 3233 529 
Q 2819 -91 2034 -91 
Q 1250 -91 836 529 
Q 422 1150 422 2328 
Q 422 3509 836 4129 
Q 1250 4750 2034 4750 
z
" transform="scale(0.015625)"/>
      <path id="DejaVuSans-20" transform="scale(0.015625)"/>
      <path id="DejaVuSans-3d" d="M 678 2906 
L 4684 2906 
L 4684 2381 
L 678 2381 
L 678 2906 
z
M 678 1631 
L 4684 1631 
L 4684 1100 
L 678 1100 
L 678 1631 
z
" transform="scale(0.015625)"/>
      <path id="DejaVuSans-2e" d="M 684 794 
L 1344 794 
L 1344 0 
L 684 0 
L 684 794 
z
" transform="scale(0.015625)"/>
      <path id="DejaVuSans-33" d="M 2597 2516 
Q 3050 2419 3304 2112 
Q 3559 1806 3559 1356 
Q 3559 666 3084 287 
Q 2609 -91 1734 -91 
Q 1441 -91 1130 -33 
Q 819 25 488 141 
L 488 750 
Q 750 597 1062 519 
Q 1375 441 1716 441 
Q 2309 441 2620 675 
Q 2931 909 2931 1356 
Q 2931 1769 2642 2001 
Q 2353 2234 1838 2234 
L 1294 2234 
L 1294 2753 
L 1863 2753 
Q 2328 2753 2575 2939 
Q 2822 3125 2822 3475 
Q 2822 3834 2567 4026 
Q 2313 4219 1838 4219 
Q 1578 4219 1281 4162 
Q 984 4106 628 3988 
L 628 4550 
Q 988 4650 1302 4700 
Q 1616 4750 1894 4750 
Q 2613 4750 3031 4423 
Q 3450 4097 3450 3541 
Q 3450 3153 3228 2886 
Q 3006 2619 2597 2516 
z
" transform="scale(0.015625)"/>
      <path id="DejaVuSans-31" d="M 794 531 
L 1825 531 
L 1825 4091 
L 703 3866 
L 703 4441 
L 1819 4666 
L 2450 4666 
L 2450 531 
L 3481 531 
L 3481 0 
L 794 0 
L 794 531 
z
" transform="scale(0.015625)"/>
      <path id="DejaVuSans-37" d="M 525 4666 
L 3525 4666 
L 3525 4397 
L 1831 0 
L 1172 0 
L 2766 4134 
L 525 4134 
L 525 4666 
z
" transform="scale(0.015625)"/>
      <path id="DejaVuSans-2b" d="M 2944 4013 
L 2944 2272 
L 4684 2272 
L 4684 1741 
L 2944 1741 
L 2944 0 
L 2419 0 
L 2419 1741 
L 678 1741 
L 678 2272 
L 2419 2272 
L 2419 4013 
L 2944 4013 
z
" transform="scale(0.015625)"/>
      <path id="DejaVuSans-36" d="M 2113 2584 
Q 1688 2584 1439 2293 
Q 1191 2003 1191 1497 
Q 1191 994 1439 701 
Q 1688 409 2113 409 
Q 2538 409 2786 701 
Q 3034 994 3034 1497 
Q 3034 2003 2786 2293 
Q 2538 2584 2113 2584 
z
M 3366 4563 
L 3366 3988 
Q 3128 4100 2886 4159 
Q 2644 4219 2406 4219 
Q 1781 4219 1451 3797 
Q 1122 3375 1075 2522 
Q 1259 2794 1537 2939 
Q 1816 3084 2150 3084 
Q 2853 3084 3261 2657 
Q 3669 2231 3669 1497 
Q 3669 778 3244 343 
Q 2819 -91 2113 -91 
Q 1303 -91 875 529 
Q 447 1150 447 2328 
Q 447 3434 972 4092 
Q 1497 4750 2381 4750 
Q 2619 4750 2861 4703 
Q 3103 4656 3366 4563 
z
" transform="scale(0.015625)"/>
      <path id="DejaVuSans-35" d="M 691 4666 
L 3169 4666 
L 3169 4134 
L 1269 4134 
L 1269 2991 
Q 1406 3038 1543 3061 
Q 1681 3084 1819 3084 
Q 2600 3084 3056 2656 
Q 3513 2228 3513 1497 
Q 3513 744 3044 326 
Q 2575 -91 1722 -91 
Q 1428 -91 1123 -41 
Q 819 9 494 109 
L 494 744 
Q 775 591 1075 516 
Q 1375 441 1709 441 
Q 2250 441 2565 725 
Q 2881 1009 2881 1497 
Q 2881 1984 2565 2268 
Q 2250 2553 1709 2553 
Q 1456 2553 1204 2497 
Q 953 2441 691 2322 
L 691 4666 
z
" transform="scale(0.015625)"/>
      <path id="DejaVuSans-34" d="M 2419 4116 
L 825 1625 
L 2419 1625 
L 2419 4116 
z
M 2253 4666 
L 3047 4666 
L 3047 1625 
L 3713 1625 
L 3713 1100 
L 3047 1100 
L 3047 0 
L 2419 0 
L 2419 1100 
L 313 1100 
L 313 1709 
L 2253 4666 
z
" transform="scale(0.015625)"/>
      <path id="DejaVuSans-2212" d="M 678 2272 
L 4684 2272 
L 4684 1741 
L 678 1741 
L 678 2272 
z
" transform="scale(0.015625)"/>
     </defs>
     <use xlink:href="#DejaVuSans-3a9" transform="translate(0 0.765625)"/>
     <use xlink:href="#DejaVuSans-32" transform="translate(77.373047 -15.640625) scale(0.7)"/>
     <use xlink:href="#DejaVuSans-2c" transform="translate(121.90918 -15.640625) scale(0.7)"/>
     <use xlink:href="#DejaVuSans-30" transform="translate(157.797852 -15.640625) scale(0.7)"/>
     <use xlink:href="#DejaVuSans-20" transform="translate(205.068359 0.765625)"/>
     <use xlink:href="#DejaVuSans-3d" transform="translate(236.855469 0.765625)"/>
     <use xlink:href="#DejaVuSans-20" transform="translate(320.644531 0.765625)"/>
     <use xlink:href="#DejaVuSans-30" transform="translate(352.431641 0.765625)"/>
     <use xlink:href="#DejaVuSans-2e" transform="translate(416.054688 0.765625)"/>
     <use xlink:href="#DejaVuSans-33" transform="translate(447.841797 0.765625)"/>
     <use xlink:href="#DejaVuSans-31" transform="translate(511.464844 0.765625)"/>
     <use xlink:href="#DejaVuSans-37" transform="translate(575.087891 0.765625)"/>
     <use xlink:href="#DejaVuSans-32" transform="translate(638.710938 0.765625)"/>
     <use xlink:href="#DejaVuSans-2b" transform="translate(703.291016 39.046875) scale(0.7)"/>
     <use xlink:href="#DejaVuSans-30" transform="translate(761.943359 39.046875) scale(0.7)"/>
     <use xlink:href="#DejaVuSans-2e" transform="translate(806.479492 39.046875) scale(0.7)"/>
     <use xlink:href="#DejaVuSans-30" transform="translate(828.730469 39.046875) scale(0.7)"/>
     <use xlink:href="#DejaVuSans-36" transform="translate(873.266602 39.046875) scale(0.7)"/>
     <use xlink:href="#DejaVuSans-35" transform="translate(917.802734 39.046875) scale(0.7)"/>
     <use xlink:href="#DejaVuSans-34" transform="translate(962.338867 39.046875) scale(0.7)"/>
     <use xlink:href="#DejaVuSans-2212" transform="translate(703.291016 -26.578125) scale(0.7)"/>
     <use xlink:href="#DejaVuSans-30" transform="translate(761.943359 -26.578125) scale(0.7)"/>
     <use xlink:href="#DejaVuSans-2e" transform="translate(806.479492 -26.578125) scale(0.7)"/>
     <use xlink:href="#DejaVuSans-30" transform="translate(828.730469 -26.578125) scale(0.7)"/>
     <use xlink:href="#DejaVuSans-35" transform="translate(873.266602 -26.578125) scale(0.7)"/>
     <use xlink:href="#DejaVuSans-36" transform="translate(917.802734 -26.578125) scale(0.7)"/>
     <use xlink:href="#DejaVuSans-35" transform="translate(962.338867 -26.578125) scale(0.7)"/>
    </g>
   </g>
  </g>
  <g id="axes_2">
   <g id="matplotlib.axis_3"/>
   <g id="matplotlib.axis_4"/>
  </g>
  <g id="axes_3">
   <g id="patch_7">
    <path d="M 66.96 329.04 
L 216.28513 329.04 
L 216.28513 195.504 
L 66.96 195.504 
z
" style="fill: #ffffff"/>
   </g>
   <g id="QuadContourSet_1">
    <path d="M 92.345272 330.375726 
L 92.346552 330.37536 
L 92.346552 327.70464 
L 95.331775 326.742859 
L 98.318277 325.728767 
L 101.30478 325.758385 
L 104.291283 326.205844 
L 107.277785 326.247023 
L 110.264288 325.720207 
L 111.988862 325.03392 
L 113.25079 324.69578 
L 116.237293 324.052673 
L 119.223796 323.667621 
L 122.210298 323.187129 
L 125.196801 322.3632 
L 125.196801 322.3632 
L 128.183303 321.881108 
L 131.169806 321.374077 
L 134.156309 320.759491 
L 137.142811 320.083859 
L 138.709565 319.69248 
L 140.129314 319.494773 
L 143.115816 318.889193 
L 146.102319 317.888226 
L 148.085559 317.02176 
L 149.088822 316.685237 
L 152.075324 315.779011 
L 155.061827 314.500861 
L 155.366519 314.35104 
L 158.048329 313.00712 
L 160.325804 311.68032 
L 161.034832 311.260806 
L 164.021335 309.834475 
L 166.377417 309.0096 
L 167.007837 308.787588 
L 169.99434 307.901055 
L 172.384263 306.33888 
L 172.980843 305.802017 
L 175.167694 303.66816 
L 175.967345 302.173198 
L 176.804588 300.99744 
L 177.963321 298.32672 
L 178.881564 295.656 
L 178.953848 295.41248 
L 179.727994 292.98528 
L 179.812192 290.31456 
L 178.953848 288.801673 
L 178.469245 287.64384 
L 177.755516 284.97312 
L 178.057645 282.3024 
L 178.953848 279.994402 
L 179.183891 279.63168 
L 179.886991 276.96096 
L 179.585413 274.29024 
L 179.489103 271.61952 
L 179.314789 268.9488 
L 180.005554 266.27808 
L 181.94035 263.828539 
L 182.149093 263.60736 
L 182.685028 260.93664 
L 181.94035 258.767313 
L 181.845895 258.26592 
L 181.94035 257.590395 
L 182.28655 255.5952 
L 182.116565 252.92448 
L 181.94035 252.580678 
L 180.880144 250.25376 
L 179.441798 247.58304 
L 178.953848 246.357266 
L 178.506712 244.91232 
L 177.952865 242.2416 
L 177.19524 239.57088 
L 176.495097 236.90016 
L 176.239786 234.22944 
L 176.414965 231.55872 
L 177.301021 228.888 
L 177.75714 226.21728 
L 178.268205 223.54656 
L 178.617437 220.87584 
L 178.953848 218.995026 
L 179.163613 218.20512 
L 180.118869 215.5344 
L 180.939207 212.86368 
L 179.927705 210.19296 
L 178.953848 209.569853 
L 176.641607 207.52224 
L 176.417456 204.85152 
L 177.439187 202.1808 
L 175.967345 200.539381 
L 175.083305 199.51008 
L 172.980843 198.467345 
L 170.830807 196.83936 
L 170.830807 194.16864 
L 169.99434 193.906901 
L 167.007837 193.209225 
L 164.021335 192.842355 
L 161.034832 192.54946 
L 158.048329 192.418413 
L 155.061827 192.363636 
L 152.075324 192.212559 
L 149.088822 192.0881 
L 146.102319 192.020952 
L 143.115816 191.991289 
L 140.129314 191.979449 
L 137.142811 191.962493 
L 134.156309 191.925236 
L 131.169806 191.925317 
L 128.183303 191.97287 
L 125.196801 192.043371 
L 122.210298 192.170216 
L 119.223796 192.43239 
L 116.237293 192.924636 
L 113.25079 193.82083 
L 112.301591 194.16864 
L 112.301591 196.83936 
L 111.792634 199.51008 
L 111.100001 202.1808 
L 110.45124 204.85152 
L 110.264288 205.292711 
L 109.229358 207.52224 
L 108.680443 210.19296 
L 108.808777 212.86368 
L 109.079706 215.5344 
L 108.512094 218.20512 
L 108.268476 220.87584 
L 108.865194 223.54656 
L 109.362304 226.21728 
L 109.120112 228.888 
L 109.017556 231.55872 
L 108.930058 234.22944 
L 108.834091 236.90016 
L 109.002098 239.57088 
L 109.654464 242.2416 
L 110.264288 244.40228 
L 110.39241 244.91232 
L 110.276461 247.58304 
L 110.264288 247.638911 
L 109.553875 250.25376 
L 109.464039 252.92448 
L 110.252839 255.5952 
L 110.264288 255.632197 
L 111.022593 258.26592 
L 111.482121 260.93664 
L 111.143119 263.60736 
L 110.679058 266.27808 
L 110.466266 268.9488 
L 110.264288 270.651525 
L 110.134269 271.61952 
L 109.284132 274.29024 
L 108.914315 276.96096 
L 109.623345 279.63168 
L 110.264288 282.207885 
L 110.280348 282.3024 
L 110.294837 284.97312 
L 110.41768 287.64384 
L 110.767941 290.31456 
L 110.686506 292.98528 
L 110.41154 295.656 
L 110.353973 298.32672 
L 110.264288 298.9274 
L 109.873066 300.99744 
L 108.694038 303.66816 
L 107.830484 306.33888 
L 107.277785 307.413216 
L 106.218525 309.0096 
L 104.291283 310.72759 
L 103.315641 311.68032 
L 101.30478 313.171842 
L 99.804457 314.35104 
L 98.318277 315.170123 
L 95.506218 317.02176 
L 95.331775 317.14146 
L 92.345272 319.029768 
L 91.101368 319.69248 
L 89.35877 320.641044 
L 86.977821 322.3632 
L 87.447794 325.03392 
L 89.35877 326.851163 
L 92.343211 327.70464 
L 92.343211 330.37536 
z
" clip-path="url(#p461bfac6ad)" style="fill: #ffffff"/>
   </g>
   <g id="QuadContourSet_2">
    <path d="M 65.466749 333.04608 
L 68.453251 333.04608 
L 71.439754 333.04608 
L 74.426257 333.04608 
L 77.412759 333.04608 
L 80.399262 333.04608 
L 83.385764 333.04608 
L 86.372267 333.04608 
L 89.35877 333.04608 
L 92.345272 333.04608 
L 95.331775 333.04608 
L 98.318277 333.04608 
L 101.30478 333.04608 
L 104.291283 333.04608 
L 107.277785 333.04608 
L 110.264288 333.04608 
L 113.25079 333.04608 
L 116.237293 333.04608 
L 119.223796 333.04608 
L 122.210298 333.04608 
L 125.196801 333.04608 
L 128.183303 333.04608 
L 131.169806 333.04608 
L 134.156309 333.04608 
L 137.142811 333.04608 
L 140.129314 333.04608 
L 143.115816 333.04608 
L 146.102319 333.04608 
L 149.088822 333.04608 
L 152.075324 333.04608 
L 155.061827 333.04608 
L 158.048329 333.04608 
L 161.034832 333.04608 
L 164.021335 333.04608 
L 167.007837 333.04608 
L 169.99434 333.04608 
L 172.980843 333.04608 
L 175.967345 333.04608 
L 178.953848 333.04608 
L 181.94035 333.04608 
L 184.926853 333.04608 
L 187.913356 333.04608 
L 190.899858 333.04608 
L 193.886361 333.04608 
L 196.872863 333.04608 
L 199.859366 333.04608 
L 202.845869 333.04608 
L 205.832371 333.04608 
L 208.818874 333.04608 
L 211.805376 333.04608 
L 214.791879 333.04608 
L 217.778382 333.04608 
L 220.764884 333.04608 
L 220.764884 330.37536 
L 220.764884 327.70464 
L 220.764884 325.03392 
L 220.764884 322.3632 
L 220.764884 319.69248 
L 220.764884 317.02176 
L 220.764884 314.35104 
L 220.764884 311.68032 
L 220.764884 309.0096 
L 220.764884 306.33888 
L 220.764884 303.66816 
L 220.764884 300.99744 
L 220.764884 298.32672 
L 220.764884 295.656 
L 220.764884 292.98528 
L 220.764884 290.31456 
L 220.764884 287.64384 
L 220.764884 284.97312 
L 220.764884 282.3024 
L 220.764884 279.63168 
L 220.764884 276.96096 
L 220.764884 274.29024 
L 220.764884 271.61952 
L 220.764884 268.9488 
L 220.764884 266.27808 
L 220.764884 263.60736 
L 220.764884 260.93664 
L 220.764884 258.26592 
L 220.764884 255.5952 
L 220.764884 252.92448 
L 220.764884 250.25376 
L 220.764884 247.58304 
L 220.764884 244.91232 
L 220.764884 242.2416 
L 220.764884 239.57088 
L 220.764884 236.90016 
L 220.764884 234.22944 
L 220.764884 231.55872 
L 220.764884 228.888 
L 220.764884 226.21728 
L 220.764884 223.54656 
L 220.764884 220.87584 
L 220.764884 218.20512 
L 220.764884 215.5344 
L 220.764884 212.86368 
L 220.764884 210.19296 
L 220.764884 207.52224 
L 220.764884 204.85152 
L 220.764884 202.1808 
L 220.764884 199.51008 
L 220.764884 196.83936 
L 220.764884 194.16864 
L 220.764884 191.49792 
L 217.778382 191.49792 
L 214.791879 191.49792 
L 211.805376 191.49792 
L 208.818874 191.49792 
L 205.832371 191.49792 
L 202.845869 191.49792 
L 199.859366 191.49792 
L 196.872863 191.49792 
L 193.886361 191.49792 
L 190.899858 191.49792 
L 187.913356 191.49792 
L 184.926853 191.49792 
L 181.94035 191.49792 
L 178.953848 191.49792 
L 175.967345 191.49792 
L 172.980843 191.49792 
L 169.99434 191.49792 
L 167.007837 191.49792 
L 164.021335 191.49792 
L 161.034832 191.49792 
L 158.048329 191.49792 
L 155.061827 191.49792 
L 152.075324 191.49792 
L 149.088822 191.49792 
L 146.102319 191.49792 
L 143.115816 191.49792 
L 140.129314 191.49792 
L 137.142811 191.49792 
L 134.156309 191.49792 
L 131.169806 191.49792 
L 128.183303 191.49792 
L 125.196801 191.49792 
L 122.210298 191.49792 
L 119.223796 191.49792 
L 116.237293 191.49792 
L 113.25079 191.49792 
L 110.264288 191.49792 
L 107.277785 191.49792 
L 104.291283 191.49792 
L 101.30478 191.49792 
L 98.318277 191.49792 
L 95.331775 191.49792 
L 92.345272 191.49792 
L 89.35877 191.49792 
L 86.372267 191.49792 
L 83.385764 191.49792 
L 80.399262 191.49792 
L 77.412759 191.49792 
L 74.426257 191.49792 
L 71.439754 191.49792 
L 68.453251 191.49792 
L 65.466749 191.49792 
L 62.480246 191.49792 
L 62.480246 194.16864 
L 62.480246 196.83936 
L 62.480246 199.51008 
L 62.480246 202.1808 
L 62.480246 204.85152 
L 62.480246 207.52224 
L 62.480246 210.19296 
L 62.480246 212.86368 
L 62.480246 215.5344 
L 62.480246 218.20512 
L 62.480246 220.87584 
L 62.480246 223.54656 
L 62.480246 226.21728 
L 62.480246 228.888 
L 62.480246 231.55872 
L 62.480246 234.22944 
L 62.480246 236.90016 
L 62.480246 239.57088 
L 62.480246 242.2416 
L 62.480246 244.91232 
L 62.480246 247.58304 
L 62.480246 250.25376 
L 62.480246 252.92448 
L 62.480246 255.5952 
L 62.480246 258.26592 
L 62.480246 260.93664 
L 62.480246 263.60736 
L 62.480246 266.27808 
L 62.480246 268.9488 
L 62.480246 271.61952 
L 62.480246 274.29024 
L 62.480246 276.96096 
L 62.480246 279.63168 
L 62.480246 282.3024 
L 62.480246 284.97312 
L 62.480246 287.64384 
L 62.480246 290.31456 
L 62.480246 292.98528 
L 62.480246 295.656 
L 62.480246 298.32672 
L 62.480246 300.99744 
L 62.480246 303.66816 
L 62.480246 306.33888 
L 62.480246 309.0096 
L 62.480246 311.68032 
L 62.480246 314.35104 
L 62.480246 317.02176 
L 62.480246 319.69248 
L 62.480246 322.3632 
L 62.480246 325.03392 
L 62.480246 327.70464 
L 62.480246 330.37536 
L 62.480246 333.04608 
L 65.466749 333.04608 
z
M 92.343211 330.37536 
L 92.343211 327.70464 
L 89.35877 326.851163 
L 87.447794 325.03392 
L 86.977821 322.3632 
L 89.35877 320.641044 
L 91.101368 319.69248 
L 92.345272 319.029768 
L 95.331775 317.14146 
L 95.506218 317.02176 
L 98.318277 315.170123 
L 99.804457 314.35104 
L 101.30478 313.171842 
L 103.315641 311.68032 
L 104.291283 310.72759 
L 106.218525 309.0096 
L 107.277785 307.413216 
L 107.830484 306.33888 
L 108.694038 303.66816 
L 109.873066 300.99744 
L 110.264288 298.9274 
L 110.353973 298.32672 
L 110.41154 295.656 
L 110.686506 292.98528 
L 110.767941 290.31456 
L 110.41768 287.64384 
L 110.294837 284.97312 
L 110.280348 282.3024 
L 110.264288 282.207885 
L 109.623345 279.63168 
L 108.914315 276.96096 
L 109.284132 274.29024 
L 110.134269 271.61952 
L 110.264288 270.651525 
L 110.466266 268.9488 
L 110.679058 266.27808 
L 111.143119 263.60736 
L 111.482121 260.93664 
L 111.022593 258.26592 
L 110.264288 255.632197 
L 110.252839 255.5952 
L 109.464039 252.92448 
L 109.553875 250.25376 
L 110.264288 247.638911 
L 110.276461 247.58304 
L 110.39241 244.91232 
L 110.264288 244.40228 
L 109.654464 242.2416 
L 109.002098 239.57088 
L 108.834091 236.90016 
L 108.930058 234.22944 
L 109.017556 231.55872 
L 109.120112 228.888 
L 109.362304 226.21728 
L 108.865194 223.54656 
L 108.268476 220.87584 
L 108.512094 218.20512 
L 109.079706 215.5344 
L 108.808777 212.86368 
L 108.680443 210.19296 
L 109.229358 207.52224 
L 110.264288 205.292711 
L 110.45124 204.85152 
L 111.100001 202.1808 
L 111.792634 199.51008 
L 112.301591 196.83936 
L 112.301591 194.16864 
L 113.25079 193.82083 
L 116.237293 192.924636 
L 119.223796 192.43239 
L 122.210298 192.170216 
L 125.196801 192.043371 
L 128.183303 191.97287 
L 131.169806 191.925317 
L 134.156309 191.925236 
L 137.142811 191.962493 
L 140.129314 191.979449 
L 143.115816 191.991289 
L 146.102319 192.020952 
L 149.088822 192.0881 
L 152.075324 192.212559 
L 155.061827 192.363636 
L 158.048329 192.418413 
L 161.034832 192.54946 
L 164.021335 192.842355 
L 167.007837 193.209225 
L 169.99434 193.906901 
L 170.830807 194.16864 
L 170.830807 196.83936 
L 172.980843 198.467345 
L 175.083305 199.51008 
L 175.967345 200.539381 
L 177.439187 202.1808 
L 176.417456 204.85152 
L 176.641607 207.52224 
L 178.953848 209.569853 
L 179.927705 210.19296 
L 180.939207 212.86368 
L 180.118869 215.5344 
L 179.163613 218.20512 
L 178.953848 218.995026 
L 178.617437 220.87584 
L 178.268205 223.54656 
L 177.75714 226.21728 
L 177.301021 228.888 
L 176.414965 231.55872 
L 176.239786 234.22944 
L 176.495097 236.90016 
L 177.19524 239.57088 
L 177.952865 242.2416 
L 178.506712 244.91232 
L 178.953848 246.357266 
L 179.441798 247.58304 
L 180.880144 250.25376 
L 181.94035 252.580678 
L 182.116565 252.92448 
L 182.28655 255.5952 
L 181.94035 257.590395 
L 181.845895 258.26592 
L 181.94035 258.767313 
L 182.685028 260.93664 
L 182.149093 263.60736 
L 181.94035 263.828539 
L 180.005554 266.27808 
L 179.314789 268.9488 
L 179.489103 271.61952 
L 179.585413 274.29024 
L 179.886991 276.96096 
L 179.183891 279.63168 
L 178.953848 279.994402 
L 178.057645 282.3024 
L 177.755516 284.97312 
L 178.469245 287.64384 
L 178.953848 288.801673 
L 179.812192 290.31456 
L 179.727994 292.98528 
L 178.953848 295.41248 
L 178.881564 295.656 
L 177.963321 298.32672 
L 176.804588 300.99744 
L 175.967345 302.173198 
L 175.167694 303.66816 
L 172.980843 305.802017 
L 172.384263 306.33888 
L 169.99434 307.901055 
L 167.007837 308.787588 
L 166.377417 309.0096 
L 164.021335 309.834475 
L 161.034832 311.260806 
L 160.325804 311.68032 
L 158.048329 313.00712 
L 155.366519 314.35104 
L 155.061827 314.500861 
L 152.075324 315.779011 
L 149.088822 316.685237 
L 148.085559 317.02176 
L 146.102319 317.888226 
L 143.115816 318.889193 
L 140.129314 319.494773 
L 138.709565 319.69248 
L 137.142811 320.083859 
L 134.156309 320.759491 
L 131.169806 321.374077 
L 128.183303 321.881108 
L 125.196801 322.3632 
L 125.196801 322.3632 
L 122.210298 323.187129 
L 119.223796 323.667621 
L 116.237293 324.052673 
L 113.25079 324.69578 
L 111.988862 325.03392 
L 110.264288 325.720207 
L 107.277785 326.247023 
L 104.291283 326.205844 
L 101.30478 325.758385 
L 98.318277 325.728767 
L 95.331775 326.742859 
L 92.346552 327.70464 
L 92.346552 330.37536 
L 92.345272 330.375726 
L 92.343211 330.37536 
z
" clip-path="url(#p461bfac6ad)" style="fill: none"/>
    <path d="M 92.345272 330.375726 
L 92.346552 330.37536 
L 92.346552 327.70464 
L 95.331775 326.742859 
L 98.318277 325.728767 
L 101.30478 325.758385 
L 104.291283 326.205844 
L 107.277785 326.247023 
L 110.264288 325.720207 
L 111.988862 325.03392 
L 113.25079 324.69578 
L 116.237293 324.052673 
L 119.223796 323.667621 
L 122.210298 323.187129 
L 125.196801 322.3632 
L 125.196801 322.3632 
L 128.183303 321.881108 
L 131.169806 321.374077 
L 134.156309 320.759491 
L 137.142811 320.083859 
L 138.709565 319.69248 
L 140.129314 319.494773 
L 143.115816 318.889193 
L 146.102319 317.888226 
L 148.085559 317.02176 
L 149.088822 316.685237 
L 152.075324 315.779011 
L 155.061827 314.500861 
L 155.366519 314.35104 
L 158.048329 313.00712 
L 160.325804 311.68032 
L 161.034832 311.260806 
L 164.021335 309.834475 
L 166.377417 309.0096 
L 167.007837 308.787588 
L 169.99434 307.901055 
L 172.384263 306.33888 
L 172.980843 305.802017 
L 175.167694 303.66816 
L 175.967345 302.173198 
L 176.804588 300.99744 
L 177.963321 298.32672 
L 178.881564 295.656 
L 178.953848 295.41248 
L 179.727994 292.98528 
L 179.812192 290.31456 
L 178.953848 288.801673 
L 178.469245 287.64384 
L 177.755516 284.97312 
L 178.057645 282.3024 
L 178.953848 279.994402 
L 179.183891 279.63168 
L 179.886991 276.96096 
L 179.585413 274.29024 
L 179.489103 271.61952 
L 179.314789 268.9488 
L 180.005554 266.27808 
L 181.94035 263.828539 
L 182.149093 263.60736 
L 182.685028 260.93664 
L 181.94035 258.767313 
L 181.845895 258.26592 
L 181.94035 257.590395 
L 182.28655 255.5952 
L 182.116565 252.92448 
L 181.94035 252.580678 
L 180.880144 250.25376 
L 179.441798 247.58304 
L 178.953848 246.357266 
L 178.506712 244.91232 
L 177.952865 242.2416 
L 177.19524 239.57088 
L 176.495097 236.90016 
L 176.239786 234.22944 
L 176.414965 231.55872 
L 177.301021 228.888 
L 177.75714 226.21728 
L 178.268205 223.54656 
L 178.617437 220.87584 
L 178.953848 218.995026 
L 179.163613 218.20512 
L 180.118869 215.5344 
L 180.939207 212.86368 
L 179.927705 210.19296 
L 178.953848 209.569853 
L 176.641607 207.52224 
L 176.417456 204.85152 
L 177.439187 202.1808 
L 175.967345 200.539381 
L 175.083305 199.51008 
L 172.980843 198.467345 
L 170.830807 196.83936 
L 170.830807 194.16864 
L 169.99434 193.906901 
L 167.007837 193.209225 
L 164.021335 192.842355 
L 161.034832 192.54946 
L 158.048329 192.418413 
L 155.061827 192.363636 
L 152.075324 192.212559 
L 149.088822 192.0881 
L 146.102319 192.020952 
L 143.115816 191.991289 
L 140.129314 191.979449 
L 137.142811 191.962493 
L 134.156309 191.925236 
L 131.169806 191.925317 
L 128.183303 191.97287 
L 125.196801 192.043371 
L 122.210298 192.170216 
L 119.223796 192.43239 
L 116.237293 192.924636 
L 113.25079 193.82083 
L 112.301591 194.16864 
L 112.301591 196.83936 
L 111.792634 199.51008 
L 111.100001 202.1808 
L 110.45124 204.85152 
L 110.264288 205.292711 
L 109.229358 207.52224 
L 108.680443 210.19296 
L 108.808777 212.86368 
L 109.079706 215.5344 
L 108.512094 218.20512 
L 108.268476 220.87584 
L 108.865194 223.54656 
L 109.362304 226.21728 
L 109.120112 228.888 
L 109.017556 231.55872 
L 108.930058 234.22944 
L 108.834091 236.90016 
L 109.002098 239.57088 
L 109.654464 242.2416 
L 110.264288 244.40228 
L 110.39241 244.91232 
L 110.276461 247.58304 
L 110.264288 247.638911 
L 109.553875 250.25376 
L 109.464039 252.92448 
L 110.252839 255.5952 
L 110.264288 255.632197 
L 111.022593 258.26592 
L 111.482121 260.93664 
L 111.143119 263.60736 
L 110.679058 266.27808 
L 110.466266 268.9488 
L 110.264288 270.651525 
L 110.134269 271.61952 
L 109.284132 274.29024 
L 108.914315 276.96096 
L 109.623345 279.63168 
L 110.264288 282.207885 
L 110.280348 282.3024 
L 110.294837 284.97312 
L 110.41768 287.64384 
L 110.767941 290.31456 
L 110.686506 292.98528 
L 110.41154 295.656 
L 110.353973 298.32672 
L 110.264288 298.9274 
L 109.873066 300.99744 
L 108.694038 303.66816 
L 107.830484 306.33888 
L 107.277785 307.413216 
L 106.218525 309.0096 
L 104.291283 310.72759 
L 103.315641 311.68032 
L 101.30478 313.171842 
L 99.804457 314.35104 
L 98.318277 315.170123 
L 95.506218 317.02176 
L 95.331775 317.14146 
L 92.345272 319.029768 
L 91.101368 319.69248 
L 89.35877 320.641044 
L 86.977821 322.3632 
L 87.447794 325.03392 
L 89.35877 326.851163 
L 92.343211 327.70464 
L 92.343211 330.37536 
z
M 103.628672 319.69248 
L 104.291283 319.087035 
L 107.277785 317.376207 
L 108.552946 317.02176 
L 110.264288 316.662371 
L 113.25079 314.804471 
L 113.516925 314.35104 
L 116.237293 311.790886 
L 116.357128 311.68032 
L 118.831156 309.0096 
L 119.223796 308.558522 
L 121.359896 306.33888 
L 122.210298 304.579226 
L 122.591508 303.66816 
L 123.286107 300.99744 
L 124.488773 298.32672 
L 124.706319 295.656 
L 124.199137 292.98528 
L 124.223383 290.31456 
L 124.558253 287.64384 
L 124.934647 284.97312 
L 124.633544 282.3024 
L 123.44782 279.63168 
L 122.672989 276.96096 
L 122.71117 274.29024 
L 123.199233 271.61952 
L 123.528454 268.9488 
L 123.527008 266.27808 
L 123.489218 263.60736 
L 122.859311 260.93664 
L 122.210298 258.424994 
L 122.167899 258.26592 
L 121.631193 255.5952 
L 121.270551 252.92448 
L 121.512151 250.25376 
L 122.210298 247.645101 
L 122.226124 247.58304 
L 122.528734 244.91232 
L 122.210298 243.468397 
L 121.897069 242.2416 
L 120.831693 239.57088 
L 120.213603 236.90016 
L 121.072426 234.22944 
L 122.210298 232.583401 
L 122.889223 231.55872 
L 123.261164 228.888 
L 122.501089 226.21728 
L 122.210298 224.803087 
L 121.893529 223.54656 
L 122.210298 221.923673 
L 122.419804 220.87584 
L 122.842938 218.20512 
L 122.448237 215.5344 
L 122.210298 213.619069 
L 122.120214 212.86368 
L 121.991106 210.19296 
L 121.753538 207.52224 
L 121.651517 204.85152 
L 121.701727 202.1808 
L 122.12948 199.51008 
L 122.210298 199.29857 
L 123.512896 196.83936 
L 123.512896 194.16864 
L 125.196801 193.884524 
L 128.183303 193.576049 
L 131.169806 193.367982 
L 134.156309 193.367625 
L 137.142811 193.530644 
L 140.129314 193.604835 
L 143.115816 193.656641 
L 146.102319 193.786428 
L 149.088822 194.080231 
L 149.656484 194.16864 
L 149.656484 196.83936 
L 152.075324 198.441509 
L 153.58424 199.51008 
L 155.061827 200.710486 
L 157.375644 202.1808 
L 158.048329 203.350722 
L 158.710509 204.85152 
L 158.62717 207.52224 
L 158.048329 209.296605 
L 157.803709 210.19296 
L 158.048329 212.86368 
L 158.048329 212.86368 
L 158.984572 215.5344 
L 158.905653 218.20512 
L 159.031339 220.87584 
L 159.390038 223.54656 
L 158.765827 226.21728 
L 158.048329 227.784489 
L 157.647224 228.888 
L 156.978893 231.55872 
L 157.005728 234.22944 
L 157.591222 236.90016 
L 157.994297 239.57088 
L 158.048329 240.316417 
L 158.208067 242.2416 
L 158.048329 244.752184 
L 158.03749 244.91232 
L 157.701718 247.58304 
L 157.552119 250.25376 
L 157.426346 252.92448 
L 157.546237 255.5952 
L 158.048329 257.191019 
L 158.413587 258.26592 
L 158.960694 260.93664 
L 158.372931 263.60736 
L 158.048329 264.528236 
L 157.423761 266.27808 
L 157.353083 268.9488 
L 158.048329 271.127671 
L 158.206537 271.61952 
L 158.1245 274.29024 
L 158.048329 274.59593 
L 157.535012 276.96096 
L 157.746484 279.63168 
L 158.048329 281.218076 
L 158.261772 282.3024 
L 158.439713 284.97312 
L 158.512674 287.64384 
L 158.216636 290.31456 
L 158.048329 290.745257 
L 157.280101 292.98528 
L 156.392069 295.656 
L 155.870901 298.32672 
L 155.13375 300.99744 
L 155.061827 301.094591 
L 153.169817 303.66816 
L 152.075324 305.235542 
L 151.578366 306.33888 
L 149.642538 309.0096 
L 149.088822 309.452338 
L 146.102319 311.4276 
L 145.507875 311.68032 
L 143.115816 312.637351 
L 140.129314 313.909646 
L 139.473252 314.35104 
L 137.142811 315.226761 
L 134.156309 316.263212 
L 131.169806 316.83312 
L 129.6633 317.02176 
L 128.183303 317.2152 
L 125.196801 317.891147 
L 122.210298 318.582909 
L 119.223796 319.12842 
L 116.237293 319.140836 
L 113.25079 318.544375 
L 110.965938 319.69248 
L 110.264288 319.909784 
L 107.277785 321.108184 
L 104.291283 320.402232 
z
" clip-path="url(#p461bfac6ad)" style="fill: #0000ff; fill-opacity: 0.333333"/>
    <path d="M 104.291283 320.402232 
L 107.277785 321.108184 
L 110.264288 319.909784 
L 110.965938 319.69248 
L 113.25079 318.544375 
L 116.237293 319.140836 
L 119.223796 319.12842 
L 122.210298 318.582909 
L 125.196801 317.891147 
L 128.183303 317.2152 
L 129.6633 317.02176 
L 131.169806 316.83312 
L 134.156309 316.263212 
L 137.142811 315.226761 
L 139.473252 314.35104 
L 140.129314 313.909646 
L 143.115816 312.637351 
L 145.507875 311.68032 
L 146.102319 311.4276 
L 149.088822 309.452338 
L 149.642538 309.0096 
L 151.578366 306.33888 
L 152.075324 305.235542 
L 153.169817 303.66816 
L 155.061827 301.094591 
L 155.13375 300.99744 
L 155.870901 298.32672 
L 156.392069 295.656 
L 157.280101 292.98528 
L 158.048329 290.745257 
L 158.216636 290.31456 
L 158.512674 287.64384 
L 158.439713 284.97312 
L 158.261772 282.3024 
L 158.048329 281.218076 
L 157.746484 279.63168 
L 157.535012 276.96096 
L 158.048329 274.59593 
L 158.1245 274.29024 
L 158.206537 271.61952 
L 158.048329 271.127671 
L 157.353083 268.9488 
L 157.423761 266.27808 
L 158.048329 264.528236 
L 158.372931 263.60736 
L 158.960694 260.93664 
L 158.413587 258.26592 
L 158.048329 257.191019 
L 157.546237 255.5952 
L 157.426346 252.92448 
L 157.552119 250.25376 
L 157.701718 247.58304 
L 158.03749 244.91232 
L 158.048329 244.752184 
L 158.208067 242.2416 
L 158.048329 240.316417 
L 157.994297 239.57088 
L 157.591222 236.90016 
L 157.005728 234.22944 
L 156.978893 231.55872 
L 157.647224 228.888 
L 158.048329 227.784489 
L 158.765827 226.21728 
L 159.390038 223.54656 
L 159.031339 220.87584 
L 158.905653 218.20512 
L 158.984572 215.5344 
L 158.048329 212.86368 
L 158.048329 212.86368 
L 157.803709 210.19296 
L 158.048329 209.296605 
L 158.62717 207.52224 
L 158.710509 204.85152 
L 158.048329 203.350722 
L 157.375644 202.1808 
L 155.061827 200.710486 
L 153.58424 199.51008 
L 152.075324 198.441509 
L 149.656484 196.83936 
L 149.656484 194.16864 
L 149.088822 194.080231 
L 146.102319 193.786428 
L 143.115816 193.656641 
L 140.129314 193.604835 
L 137.142811 193.530644 
L 134.156309 193.367625 
L 131.169806 193.367982 
L 128.183303 193.576049 
L 125.196801 193.884524 
L 123.512896 194.16864 
L 123.512896 196.83936 
L 122.210298 199.29857 
L 122.12948 199.51008 
L 121.701727 202.1808 
L 121.651517 204.85152 
L 121.753538 207.52224 
L 121.991106 210.19296 
L 122.120214 212.86368 
L 122.210298 213.619069 
L 122.448237 215.5344 
L 122.842938 218.20512 
L 122.419804 220.87584 
L 122.210298 221.923673 
L 121.893529 223.54656 
L 122.210298 224.803087 
L 122.501089 226.21728 
L 123.261164 228.888 
L 122.889223 231.55872 
L 122.210298 232.583401 
L 121.072426 234.22944 
L 120.213603 236.90016 
L 120.831693 239.57088 
L 121.897069 242.2416 
L 122.210298 243.468397 
L 122.528734 244.91232 
L 122.226124 247.58304 
L 122.210298 247.645101 
L 121.512151 250.25376 
L 121.270551 252.92448 
L 121.631193 255.5952 
L 122.167899 258.26592 
L 122.210298 258.424994 
L 122.859311 260.93664 
L 123.489218 263.60736 
L 123.527008 266.27808 
L 123.528454 268.9488 
L 123.199233 271.61952 
L 122.71117 274.29024 
L 122.672989 276.96096 
L 123.44782 279.63168 
L 124.633544 282.3024 
L 124.934647 284.97312 
L 124.558253 287.64384 
L 124.223383 290.31456 
L 124.199137 292.98528 
L 124.706319 295.656 
L 124.488773 298.32672 
L 123.286107 300.99744 
L 122.591508 303.66816 
L 122.210298 304.579226 
L 121.359896 306.33888 
L 119.223796 308.558522 
L 118.831156 309.0096 
L 116.357128 311.68032 
L 116.237293 311.790886 
L 113.516925 314.35104 
L 113.25079 314.804471 
L 110.264288 316.662371 
L 108.552946 317.02176 
L 107.277785 317.376207 
L 104.291283 319.087035 
L 103.628672 319.69248 
z
" clip-path="url(#p461bfac6ad)" style="fill: #0000ff"/>
   </g>
   <g id="matplotlib.axis_5">
    <g id="xtick_4">
     <g id="line2d_5">
      <g>
       <use xlink:href="#m34aadc2ec4" x="92.677107" y="329.04" style="stroke: #000000; stroke-width: 0.8"/>
      </g>
     </g>
     <g id="text_2">
      <!-- 0.15 -->
      <g transform="translate(86.756193 357.157081) rotate(-45) scale(0.1 -0.1)">
       <use xlink:href="#DejaVuSans-30"/>
       <use xlink:href="#DejaVuSans-2e" x="63.623047"/>
       <use xlink:href="#DejaVuSans-31" x="95.410156"/>
       <use xlink:href="#DejaVuSans-35" x="159.033203"/>
      </g>
     </g>
    </g>
    <g id="xtick_5">
     <g id="line2d_6">
      <g>
       <use xlink:href="#m34aadc2ec4" x="134.932932" y="329.04" style="stroke: #000000; stroke-width: 0.8"/>
      </g>
     </g>
     <g id="text_3">
      <!-- 0.30 -->
      <g transform="translate(129.012017 357.157081) rotate(-45) scale(0.1 -0.1)">
       <use xlink:href="#DejaVuSans-30"/>
       <use xlink:href="#DejaVuSans-2e" x="63.623047"/>
       <use xlink:href="#DejaVuSans-33" x="95.410156"/>
       <use xlink:href="#DejaVuSans-30" x="159.033203"/>
      </g>
     </g>
    </g>
    <g id="xtick_6">
     <g id="line2d_7">
      <g>
       <use xlink:href="#m34aadc2ec4" x="177.188756" y="329.04" style="stroke: #000000; stroke-width: 0.8"/>
      </g>
     </g>
     <g id="text_4">
      <!-- 0.45 -->
      <g transform="translate(171.267842 357.157081) rotate(-45) scale(0.1 -0.1)">
       <use xlink:href="#DejaVuSans-30"/>
       <use xlink:href="#DejaVuSans-2e" x="63.623047"/>
       <use xlink:href="#DejaVuSans-34" x="95.410156"/>
       <use xlink:href="#DejaVuSans-35" x="159.033203"/>
      </g>
     </g>
    </g>
    <g id="text_5">
     <!-- $\Omega_{2,0}$ -->
     <g transform="translate(131.322565 376.5008) scale(0.1 -0.1)">
      <use xlink:href="#DejaVuSans-3a9" transform="translate(0 0.21875)"/>
      <use xlink:href="#DejaVuSans-32" transform="translate(77.373047 -16.1875) scale(0.7)"/>
      <use xlink:href="#DejaVuSans-2c" transform="translate(121.90918 -16.1875) scale(0.7)"/>
      <use xlink:href="#DejaVuSans-30" transform="translate(157.797852 -16.1875) scale(0.7)"/>
     </g>
    </g>
   </g>
   <g id="matplotlib.axis_6">
    <g id="ytick_1">
     <g id="line2d_8">
      <defs>
       <path id="m953a1d56b4" d="M 0 0 
L -3.5 0 
" style="stroke: #000000; stroke-width: 0.8"/>
      </defs>
      <g>
       <use xlink:href="#m953a1d56b4" x="66.96" y="320.231789" style="stroke: #000000; stroke-width: 0.8"/>
      </g>
     </g>
     <g id="text_6">
      <!-- −10 -->
      <g transform="translate(43.566171 336.728744) rotate(-45) scale(0.1 -0.1)">
       <use xlink:href="#DejaVuSans-2212"/>
       <use xlink:href="#DejaVuSans-31" x="83.789062"/>
       <use xlink:href="#DejaVuSans-30" x="147.412109"/>
      </g>
     </g>
    </g>
    <g id="ytick_2">
     <g id="line2d_9">
      <g>
       <use xlink:href="#m953a1d56b4" x="66.96" y="289.405838" style="stroke: #000000; stroke-width: 0.8"/>
      </g>
     </g>
     <g id="text_7">
      <!-- −8 -->
      <g transform="translate(48.065138 301.403826) rotate(-45) scale(0.1 -0.1)">
       <defs>
        <path id="DejaVuSans-38" d="M 2034 2216 
Q 1584 2216 1326 1975 
Q 1069 1734 1069 1313 
Q 1069 891 1326 650 
Q 1584 409 2034 409 
Q 2484 409 2743 651 
Q 3003 894 3003 1313 
Q 3003 1734 2745 1975 
Q 2488 2216 2034 2216 
z
M 1403 2484 
Q 997 2584 770 2862 
Q 544 3141 544 3541 
Q 544 4100 942 4425 
Q 1341 4750 2034 4750 
Q 2731 4750 3128 4425 
Q 3525 4100 3525 3541 
Q 3525 3141 3298 2862 
Q 3072 2584 2669 2484 
Q 3125 2378 3379 2068 
Q 3634 1759 3634 1313 
Q 3634 634 3220 271 
Q 2806 -91 2034 -91 
Q 1263 -91 848 271 
Q 434 634 434 1313 
Q 434 1759 690 2068 
Q 947 2378 1403 2484 
z
M 1172 3481 
Q 1172 3119 1398 2916 
Q 1625 2713 2034 2713 
Q 2441 2713 2670 2916 
Q 2900 3119 2900 3481 
Q 2900 3844 2670 4047 
Q 2441 4250 2034 4250 
Q 1625 4250 1398 4047 
Q 1172 3844 1172 3481 
z
" transform="scale(0.015625)"/>
       </defs>
       <use xlink:href="#DejaVuSans-2212"/>
       <use xlink:href="#DejaVuSans-38" x="83.789062"/>
      </g>
     </g>
    </g>
    <g id="ytick_3">
     <g id="line2d_10">
      <g>
       <use xlink:href="#m953a1d56b4" x="66.96" y="258.579887" style="stroke: #000000; stroke-width: 0.8"/>
      </g>
     </g>
     <g id="text_8">
      <!-- −6 -->
      <g transform="translate(48.065138 270.577875) rotate(-45) scale(0.1 -0.1)">
       <use xlink:href="#DejaVuSans-2212"/>
       <use xlink:href="#DejaVuSans-36" x="83.789062"/>
      </g>
     </g>
    </g>
    <g id="ytick_4">
     <g id="line2d_11">
      <g>
       <use xlink:href="#m953a1d56b4" x="66.96" y="227.753935" style="stroke: #000000; stroke-width: 0.8"/>
      </g>
     </g>
     <g id="text_9">
      <!-- −4 -->
      <g transform="translate(48.065138 239.751924) rotate(-45) scale(0.1 -0.1)">
       <use xlink:href="#DejaVuSans-2212"/>
       <use xlink:href="#DejaVuSans-34" x="83.789062"/>
      </g>
     </g>
    </g>
    <g id="ytick_5">
     <g id="line2d_12">
      <g>
       <use xlink:href="#m953a1d56b4" x="66.96" y="196.927984" style="stroke: #000000; stroke-width: 0.8"/>
      </g>
     </g>
     <g id="text_10">
      <!-- −2 -->
      <g transform="translate(48.065138 208.925973) rotate(-45) scale(0.1 -0.1)">
       <use xlink:href="#DejaVuSans-2212"/>
       <use xlink:href="#DejaVuSans-32" x="83.789062"/>
      </g>
     </g>
    </g>
    <g id="text_11">
     <!-- $\log_{10}(M_x$/GeV) -->
     <g transform="translate(20.062461 297.872) rotate(-90) scale(0.1 -0.1)">
      <defs>
       <path id="DejaVuSans-6c" d="M 603 4863 
L 1178 4863 
L 1178 0 
L 603 0 
L 603 4863 
z
" transform="scale(0.015625)"/>
       <path id="DejaVuSans-6f" d="M 1959 3097 
Q 1497 3097 1228 2736 
Q 959 2375 959 1747 
Q 959 1119 1226 758 
Q 1494 397 1959 397 
Q 2419 397 2687 759 
Q 2956 1122 2956 1747 
Q 2956 2369 2687 2733 
Q 2419 3097 1959 3097 
z
M 1959 3584 
Q 2709 3584 3137 3096 
Q 3566 2609 3566 1747 
Q 3566 888 3137 398 
Q 2709 -91 1959 -91 
Q 1206 -91 779 398 
Q 353 888 353 1747 
Q 353 2609 779 3096 
Q 1206 3584 1959 3584 
z
" transform="scale(0.015625)"/>
       <path id="DejaVuSans-67" d="M 2906 1791 
Q 2906 2416 2648 2759 
Q 2391 3103 1925 3103 
Q 1463 3103 1205 2759 
Q 947 2416 947 1791 
Q 947 1169 1205 825 
Q 1463 481 1925 481 
Q 2391 481 2648 825 
Q 2906 1169 2906 1791 
z
M 3481 434 
Q 3481 -459 3084 -895 
Q 2688 -1331 1869 -1331 
Q 1566 -1331 1297 -1286 
Q 1028 -1241 775 -1147 
L 775 -588 
Q 1028 -725 1275 -790 
Q 1522 -856 1778 -856 
Q 2344 -856 2625 -561 
Q 2906 -266 2906 331 
L 2906 616 
Q 2728 306 2450 153 
Q 2172 0 1784 0 
Q 1141 0 747 490 
Q 353 981 353 1791 
Q 353 2603 747 3093 
Q 1141 3584 1784 3584 
Q 2172 3584 2450 3431 
Q 2728 3278 2906 2969 
L 2906 3500 
L 3481 3500 
L 3481 434 
z
" transform="scale(0.015625)"/>
       <path id="DejaVuSans-28" d="M 1984 4856 
Q 1566 4138 1362 3434 
Q 1159 2731 1159 2009 
Q 1159 1288 1364 580 
Q 1569 -128 1984 -844 
L 1484 -844 
Q 1016 -109 783 600 
Q 550 1309 550 2009 
Q 550 2706 781 3412 
Q 1013 4119 1484 4856 
L 1984 4856 
z
" transform="scale(0.015625)"/>
       <path id="DejaVuSans-Oblique-4d" d="M 1081 4666 
L 2028 4666 
L 2572 1522 
L 4378 4666 
L 5350 4666 
L 4441 0 
L 3828 0 
L 4622 4091 
L 2791 897 
L 2175 897 
L 1581 4103 
L 788 0 
L 172 0 
L 1081 4666 
z
" transform="scale(0.015625)"/>
       <path id="DejaVuSans-Oblique-78" d="M 3841 3500 
L 2234 1784 
L 3219 0 
L 2559 0 
L 1819 1388 
L 531 0 
L -166 0 
L 1556 1844 
L 641 3500 
L 1300 3500 
L 1972 2234 
L 3144 3500 
L 3841 3500 
z
" transform="scale(0.015625)"/>
       <path id="DejaVuSans-2f" d="M 1625 4666 
L 2156 4666 
L 531 -594 
L 0 -594 
L 1625 4666 
z
" transform="scale(0.015625)"/>
       <path id="DejaVuSans-47" d="M 3809 666 
L 3809 1919 
L 2778 1919 
L 2778 2438 
L 4434 2438 
L 4434 434 
Q 4069 175 3628 42 
Q 3188 -91 2688 -91 
Q 1594 -91 976 548 
Q 359 1188 359 2328 
Q 359 3472 976 4111 
Q 1594 4750 2688 4750 
Q 3144 4750 3555 4637 
Q 3966 4525 4313 4306 
L 4313 3634 
Q 3963 3931 3569 4081 
Q 3175 4231 2741 4231 
Q 1884 4231 1454 3753 
Q 1025 3275 1025 2328 
Q 1025 1384 1454 906 
Q 1884 428 2741 428 
Q 3075 428 3337 486 
Q 3600 544 3809 666 
z
" transform="scale(0.015625)"/>
       <path id="DejaVuSans-65" d="M 3597 1894 
L 3597 1613 
L 953 1613 
Q 991 1019 1311 708 
Q 1631 397 2203 397 
Q 2534 397 2845 478 
Q 3156 559 3463 722 
L 3463 178 
Q 3153 47 2828 -22 
Q 2503 -91 2169 -91 
Q 1331 -91 842 396 
Q 353 884 353 1716 
Q 353 2575 817 3079 
Q 1281 3584 2069 3584 
Q 2775 3584 3186 3129 
Q 3597 2675 3597 1894 
z
M 3022 2063 
Q 3016 2534 2758 2815 
Q 2500 3097 2075 3097 
Q 1594 3097 1305 2825 
Q 1016 2553 972 2059 
L 3022 2063 
z
" transform="scale(0.015625)"/>
       <path id="DejaVuSans-56" d="M 1831 0 
L 50 4666 
L 709 4666 
L 2188 738 
L 3669 4666 
L 4325 4666 
L 2547 0 
L 1831 0 
z
" transform="scale(0.015625)"/>
       <path id="DejaVuSans-29" d="M 513 4856 
L 1013 4856 
Q 1481 4119 1714 3412 
Q 1947 2706 1947 2009 
Q 1947 1309 1714 600 
Q 1481 -109 1013 -844 
L 513 -844 
Q 928 -128 1133 580 
Q 1338 1288 1338 2009 
Q 1338 2731 1133 3434 
Q 928 4138 513 4856 
z
" transform="scale(0.015625)"/>
      </defs>
      <use xlink:href="#DejaVuSans-6c" transform="translate(0 0.015625)"/>
      <use xlink:href="#DejaVuSans-6f" transform="translate(27.783203 0.015625)"/>
      <use xlink:href="#DejaVuSans-67" transform="translate(88.964844 0.015625)"/>
      <use xlink:href="#DejaVuSans-31" transform="translate(153.398438 -16.390625) scale(0.7)"/>
      <use xlink:href="#DejaVuSans-30" transform="translate(197.93457 -16.390625) scale(0.7)"/>
      <use xlink:href="#DejaVuSans-28" transform="translate(261.440754 0.015625)"/>
      <use xlink:href="#DejaVuSans-Oblique-4d" transform="translate(300.454426 0.015625)"/>
      <use xlink:href="#DejaVuSans-Oblique-78" transform="translate(386.733723 -16.390625) scale(0.7)"/>
      <use xlink:href="#DejaVuSans-2f" transform="translate(430.893879 0.015625)"/>
      <use xlink:href="#DejaVuSans-47" transform="translate(464.585286 0.015625)"/>
      <use xlink:href="#DejaVuSans-65" transform="translate(542.07552 0.015625)"/>
      <use xlink:href="#DejaVuSans-56" transform="translate(603.598958 0.015625)"/>
      <use xlink:href="#DejaVuSans-29" transform="translate(672.007161 0.015625)"/>
     </g>
    </g>
   </g>
   <g id="QuadContourSet_3">
    <path d="M 92.345272 330.375726 
L 92.346552 330.37536 
L 92.346552 327.70464 
L 95.331775 326.742859 
L 98.318277 325.728767 
L 101.30478 325.758385 
L 104.291283 326.205844 
L 107.277785 326.247023 
L 110.264288 325.720207 
L 111.988862 325.03392 
L 113.25079 324.69578 
L 116.237293 324.052673 
L 119.223796 323.667621 
L 122.210298 323.187129 
L 125.196801 322.3632 
L 125.196801 322.3632 
L 128.183303 321.881108 
L 131.169806 321.374077 
L 134.156309 320.759491 
L 137.142811 320.083859 
L 138.709565 319.69248 
L 140.129314 319.494773 
L 143.115816 318.889193 
L 146.102319 317.888226 
L 148.085559 317.02176 
L 149.088822 316.685237 
L 152.075324 315.779011 
L 155.061827 314.500861 
L 155.366519 314.35104 
L 158.048329 313.00712 
L 160.325804 311.68032 
L 161.034832 311.260806 
L 164.021335 309.834475 
L 166.377417 309.0096 
L 167.007837 308.787588 
L 169.99434 307.901055 
L 172.384263 306.33888 
L 172.980843 305.802017 
L 175.167694 303.66816 
L 175.967345 302.173198 
L 176.804588 300.99744 
L 177.963321 298.32672 
L 178.881564 295.656 
L 178.953848 295.41248 
L 179.727994 292.98528 
L 179.812192 290.31456 
L 178.953848 288.801673 
L 178.469245 287.64384 
L 177.755516 284.97312 
L 178.057645 282.3024 
L 178.953848 279.994402 
L 179.183891 279.63168 
L 179.886991 276.96096 
L 179.585413 274.29024 
L 179.489103 271.61952 
L 179.314789 268.9488 
L 180.005554 266.27808 
L 181.94035 263.828539 
L 182.149093 263.60736 
L 182.685028 260.93664 
L 181.94035 258.767313 
L 181.845895 258.26592 
L 181.94035 257.590395 
L 182.28655 255.5952 
L 182.116565 252.92448 
L 181.94035 252.580678 
L 180.880144 250.25376 
L 179.441798 247.58304 
L 178.953848 246.357266 
L 178.506712 244.91232 
L 177.952865 242.2416 
L 177.19524 239.57088 
L 176.495097 236.90016 
L 176.239786 234.22944 
L 176.414965 231.55872 
L 177.301021 228.888 
L 177.75714 226.21728 
L 178.268205 223.54656 
L 178.617437 220.87584 
L 178.953848 218.995026 
L 179.163613 218.20512 
L 180.118869 215.5344 
L 180.939207 212.86368 
L 179.927705 210.19296 
L 178.953848 209.569853 
L 176.641607 207.52224 
L 176.417456 204.85152 
L 177.439187 202.1808 
L 175.967345 200.539381 
L 175.083305 199.51008 
L 172.980843 198.467345 
L 170.830807 196.83936 
L 170.830807 194.16864 
L 169.99434 193.906901 
L 167.007837 193.209225 
L 164.021335 192.842355 
L 161.034832 192.54946 
L 158.048329 192.418413 
L 155.061827 192.363636 
L 152.075324 192.212559 
L 149.088822 192.0881 
L 146.102319 192.020952 
L 143.115816 191.991289 
L 140.129314 191.979449 
L 137.142811 191.962493 
L 134.156309 191.925236 
L 131.169806 191.925317 
L 128.183303 191.97287 
L 125.196801 192.043371 
L 122.210298 192.170216 
L 119.223796 192.43239 
L 116.237293 192.924636 
L 113.25079 193.82083 
L 112.301591 194.16864 
L 112.301591 196.83936 
L 111.792634 199.51008 
L 111.100001 202.1808 
L 110.45124 204.85152 
L 110.264288 205.292711 
L 109.229358 207.52224 
L 108.680443 210.19296 
L 108.808777 212.86368 
L 109.079706 215.5344 
L 108.512094 218.20512 
L 108.268476 220.87584 
L 108.865194 223.54656 
L 109.362304 226.21728 
L 109.120112 228.888 
L 109.017556 231.55872 
L 108.930058 234.22944 
L 108.834091 236.90016 
L 109.002098 239.57088 
L 109.654464 242.2416 
L 110.264288 244.40228 
L 110.39241 244.91232 
L 110.276461 247.58304 
L 110.264288 247.638911 
L 109.553875 250.25376 
L 109.464039 252.92448 
L 110.252839 255.5952 
L 110.264288 255.632197 
L 111.022593 258.26592 
L 111.482121 260.93664 
L 111.143119 263.60736 
L 110.679058 266.27808 
L 110.466266 268.9488 
L 110.264288 270.651525 
L 110.134269 271.61952 
L 109.284132 274.29024 
L 108.914315 276.96096 
L 109.623345 279.63168 
L 110.264288 282.207885 
L 110.280348 282.3024 
L 110.294837 284.97312 
L 110.41768 287.64384 
L 110.767941 290.31456 
L 110.686506 292.98528 
L 110.41154 295.656 
L 110.353973 298.32672 
L 110.264288 298.9274 
L 109.873066 300.99744 
L 108.694038 303.66816 
L 107.830484 306.33888 
L 107.277785 307.413216 
L 106.218525 309.0096 
L 104.291283 310.72759 
L 103.315641 311.68032 
L 101.30478 313.171842 
L 99.804457 314.35104 
L 98.318277 315.170123 
L 95.506218 317.02176 
L 95.331775 317.14146 
L 92.345272 319.029768 
L 91.101368 319.69248 
L 89.35877 320.641044 
L 86.977821 322.3632 
L 87.447794 325.03392 
L 89.35877 326.851163 
L 92.343211 327.70464 
L 92.343211 330.37536 
L 92.345272 330.375726 
z
" clip-path="url(#p461bfac6ad)" style="fill: none; stroke: #0000ff; stroke-width: 1.5"/>
    <path d="M 104.291283 320.402232 
L 107.277785 321.108184 
L 110.264288 319.909784 
L 110.965938 319.69248 
L 113.25079 318.544375 
L 116.237293 319.140836 
L 119.223796 319.12842 
L 122.210298 318.582909 
L 125.196801 317.891147 
L 128.183303 317.2152 
L 129.6633 317.02176 
L 131.169806 316.83312 
L 134.156309 316.263212 
L 137.142811 315.226761 
L 139.473252 314.35104 
L 140.129314 313.909646 
L 143.115816 312.637351 
L 145.507875 311.68032 
L 146.102319 311.4276 
L 149.088822 309.452338 
L 149.642538 309.0096 
L 151.578366 306.33888 
L 152.075324 305.235542 
L 153.169817 303.66816 
L 155.061827 301.094591 
L 155.13375 300.99744 
L 155.870901 298.32672 
L 156.392069 295.656 
L 157.280101 292.98528 
L 158.048329 290.745257 
L 158.216636 290.31456 
L 158.512674 287.64384 
L 158.439713 284.97312 
L 158.261772 282.3024 
L 158.048329 281.218076 
L 157.746484 279.63168 
L 157.535012 276.96096 
L 158.048329 274.59593 
L 158.1245 274.29024 
L 158.206537 271.61952 
L 158.048329 271.127671 
L 157.353083 268.9488 
L 157.423761 266.27808 
L 158.048329 264.528236 
L 158.372931 263.60736 
L 158.960694 260.93664 
L 158.413587 258.26592 
L 158.048329 257.191019 
L 157.546237 255.5952 
L 157.426346 252.92448 
L 157.552119 250.25376 
L 157.701718 247.58304 
L 158.03749 244.91232 
L 158.048329 244.752184 
L 158.208067 242.2416 
L 158.048329 240.316417 
L 157.994297 239.57088 
L 157.591222 236.90016 
L 157.005728 234.22944 
L 156.978893 231.55872 
L 157.647224 228.888 
L 158.048329 227.784489 
L 158.765827 226.21728 
L 159.390038 223.54656 
L 159.031339 220.87584 
L 158.905653 218.20512 
L 158.984572 215.5344 
L 158.048329 212.86368 
L 158.048329 212.86368 
L 157.803709 210.19296 
L 158.048329 209.296605 
L 158.62717 207.52224 
L 158.710509 204.85152 
L 158.048329 203.350722 
L 157.375644 202.1808 
L 155.061827 200.710486 
L 153.58424 199.51008 
L 152.075324 198.441509 
L 149.656484 196.83936 
L 149.656484 194.16864 
L 149.088822 194.080231 
L 146.102319 193.786428 
L 143.115816 193.656641 
L 140.129314 193.604835 
L 137.142811 193.530644 
L 134.156309 193.367625 
L 131.169806 193.367982 
L 128.183303 193.576049 
L 125.196801 193.884524 
L 123.512896 194.16864 
L 123.512896 196.83936 
L 122.210298 199.29857 
L 122.12948 199.51008 
L 121.701727 202.1808 
L 121.651517 204.85152 
L 121.753538 207.52224 
L 121.991106 210.19296 
L 122.120214 212.86368 
L 122.210298 213.619069 
L 122.448237 215.5344 
L 122.842938 218.20512 
L 122.419804 220.87584 
L 122.210298 221.923673 
L 121.893529 223.54656 
L 122.210298 224.803087 
L 122.501089 226.21728 
L 123.261164 228.888 
L 122.889223 231.55872 
L 122.210298 232.583401 
L 121.072426 234.22944 
L 120.213603 236.90016 
L 120.831693 239.57088 
L 121.897069 242.2416 
L 122.210298 243.468397 
L 122.528734 244.91232 
L 122.226124 247.58304 
L 122.210298 247.645101 
L 121.512151 250.25376 
L 121.270551 252.92448 
L 121.631193 255.5952 
L 122.167899 258.26592 
L 122.210298 258.424994 
L 122.859311 260.93664 
L 123.489218 263.60736 
L 123.527008 266.27808 
L 123.528454 268.9488 
L 123.199233 271.61952 
L 122.71117 274.29024 
L 122.672989 276.96096 
L 123.44782 279.63168 
L 124.633544 282.3024 
L 124.934647 284.97312 
L 124.558253 287.64384 
L 124.223383 290.31456 
L 124.199137 292.98528 
L 124.706319 295.656 
L 124.488773 298.32672 
L 123.286107 300.99744 
L 122.591508 303.66816 
L 122.210298 304.579226 
L 121.359896 306.33888 
L 119.223796 308.558522 
L 118.831156 309.0096 
L 116.357128 311.68032 
L 116.237293 311.790886 
L 113.516925 314.35104 
L 113.25079 314.804471 
L 110.264288 316.662371 
L 108.552946 317.02176 
L 107.277785 317.376207 
L 104.291283 319.087035 
L 103.628672 319.69248 
L 104.291283 320.402232 
z
" clip-path="url(#p461bfac6ad)" style="fill: none; stroke: #0000ff; stroke-width: 1.5"/>
   </g>
   <g id="patch_8">
    <path d="M 66.96 329.04 
L 66.96 195.504 
" style="fill: none; stroke: #000000; stroke-width: 0.8; stroke-linejoin: miter; stroke-linecap: square"/>
   </g>
   <g id="patch_9">
    <path d="M 216.28513 329.04 
L 216.28513 195.504 
" style="fill: none; stroke: #000000; stroke-width: 0.8; stroke-linejoin: miter; stroke-linecap: square"/>
   </g>
   <g id="patch_10">
    <path d="M 66.96 329.04 
L 216.28513 329.04 
" style="fill: none; stroke: #000000; stroke-width: 0.8; stroke-linejoin: miter; stroke-linecap: square"/>
   </g>
   <g id="patch_11">
    <path d="M 66.96 195.504 
L 216.28513 195.504 
" style="fill: none; stroke: #000000; stroke-width: 0.8; stroke-linejoin: miter; stroke-linecap: square"/>
   </g>
  </g>
  <g id="axes_4">
   <g id="patch_12">
    <path d="M 228.628172 329.04 
L 377.953303 329.04 
L 377.953303 195.504 
L 228.628172 195.504 
z
" style="fill: #ffffff"/>
   </g>
   <g id="matplotlib.axis_7">
    <g id="xtick_7">
     <g id="line2d_13">
      <g>
       <use xlink:href="#m34aadc2ec4" x="238.477855" y="329.04" style="stroke: #000000; stroke-width: 0.8"/>
      </g>
     </g>
     <g id="text_12">
      <!-- −10 -->
      <g transform="translate(232.967394 356.336174) rotate(-45) scale(0.1 -0.1)">
       <use xlink:href="#DejaVuSans-2212"/>
       <use xlink:href="#DejaVuSans-31" x="83.789062"/>
       <use xlink:href="#DejaVuSans-30" x="147.412109"/>
      </g>
     </g>
    </g>
    <g id="xtick_8">
     <g id="line2d_14">
      <g>
       <use xlink:href="#m34aadc2ec4" x="272.948629" y="329.04" style="stroke: #000000; stroke-width: 0.8"/>
      </g>
     </g>
     <g id="text_13">
      <!-- −8 -->
      <g transform="translate(269.687651 351.837207) rotate(-45) scale(0.1 -0.1)">
       <use xlink:href="#DejaVuSans-2212"/>
       <use xlink:href="#DejaVuSans-38" x="83.789062"/>
      </g>
     </g>
    </g>
    <g id="xtick_9">
     <g id="line2d_15">
      <g>
       <use xlink:href="#m34aadc2ec4" x="307.419402" y="329.04" style="stroke: #000000; stroke-width: 0.8"/>
      </g>
     </g>
     <g id="text_14">
      <!-- −6 -->
      <g transform="translate(304.158424 351.837207) rotate(-45) scale(0.1 -0.1)">
       <use xlink:href="#DejaVuSans-2212"/>
       <use xlink:href="#DejaVuSans-36" x="83.789062"/>
      </g>
     </g>
    </g>
    <g id="xtick_10">
     <g id="line2d_16">
      <g>
       <use xlink:href="#m34aadc2ec4" x="341.890175" y="329.04" style="stroke: #000000; stroke-width: 0.8"/>
      </g>
     </g>
     <g id="text_15">
      <!-- −4 -->
      <g transform="translate(338.629197 351.837207) rotate(-45) scale(0.1 -0.1)">
       <use xlink:href="#DejaVuSans-2212"/>
       <use xlink:href="#DejaVuSans-34" x="83.789062"/>
      </g>
     </g>
    </g>
    <g id="xtick_11">
     <g id="line2d_17">
      <g>
       <use xlink:href="#m34aadc2ec4" x="376.360948" y="329.04" style="stroke: #000000; stroke-width: 0.8"/>
      </g>
     </g>
     <g id="text_16">
      <!-- −2 -->
      <g transform="translate(373.099971 351.837207) rotate(-45) scale(0.1 -0.1)">
       <use xlink:href="#DejaVuSans-2212"/>
       <use xlink:href="#DejaVuSans-32" x="83.789062"/>
      </g>
     </g>
    </g>
    <g id="text_17">
     <!-- $\log_{10}(M_x$/GeV) -->
     <g transform="translate(267.690737 376.7008) scale(0.1 -0.1)">
      <use xlink:href="#DejaVuSans-6c" transform="translate(0 0.015625)"/>
      <use xlink:href="#DejaVuSans-6f" transform="translate(27.783203 0.015625)"/>
      <use xlink:href="#DejaVuSans-67" transform="translate(88.964844 0.015625)"/>
      <use xlink:href="#DejaVuSans-31" transform="translate(153.398438 -16.390625) scale(0.7)"/>
      <use xlink:href="#DejaVuSans-30" transform="translate(197.93457 -16.390625) scale(0.7)"/>
      <use xlink:href="#DejaVuSans-28" transform="translate(261.440754 0.015625)"/>
      <use xlink:href="#DejaVuSans-Oblique-4d" transform="translate(300.454426 0.015625)"/>
      <use xlink:href="#DejaVuSans-Oblique-78" transform="translate(386.733723 -16.390625) scale(0.7)"/>
      <use xlink:href="#DejaVuSans-2f" transform="translate(430.893879 0.015625)"/>
      <use xlink:href="#DejaVuSans-47" transform="translate(464.585286 0.015625)"/>
      <use xlink:href="#DejaVuSans-65" transform="translate(542.07552 0.015625)"/>
      <use xlink:href="#DejaVuSans-56" transform="translate(603.598958 0.015625)"/>
      <use xlink:href="#DejaVuSans-29" transform="translate(672.007161 0.015625)"/>
     </g>
    </g>
   </g>
   <g id="matplotlib.axis_8"/>
   <g id="line2d_18">
    <path d="M 228.628172 323.016516 
L 229.374798 323.016516 
L 229.374798 322.553171 
L 230.121424 322.553171 
L 230.121424 321.163137 
L 230.868049 321.163137 
L 230.868049 319.309757 
L 231.614675 319.309757 
L 231.614675 316.76136 
L 232.361301 316.76136 
L 232.361301 313.286273 
L 233.107926 313.286273 
L 233.107926 309.579514 
L 233.854552 309.579514 
L 233.854552 304.946065 
L 234.601178 304.946065 
L 234.601178 300.080944 
L 235.347803 300.080944 
L 235.347803 295.215822 
L 236.094429 295.215822 
L 236.094429 289.887356 
L 236.841054 289.887356 
L 236.841054 284.790562 
L 237.58768 284.790562 
L 237.58768 279.925441 
L 238.334306 279.925441 
L 238.334306 275.060319 
L 239.080931 275.060319 
L 239.080931 270.195198 
L 239.827557 270.195198 
L 239.827557 265.793421 
L 240.574183 265.793421 
L 240.574183 261.391645 
L 241.320808 261.391645 
L 241.320808 257.453213 
L 242.067434 257.453213 
L 242.067434 253.746454 
L 242.81406 253.746454 
L 242.81406 250.50304 
L 243.560685 250.50304 
L 243.560685 247.491298 
L 244.307311 247.491298 
L 244.307311 245.174573 
L 245.053937 245.174573 
L 245.053937 242.857849 
L 245.800562 242.857849 
L 245.800562 241.004469 
L 246.547188 241.004469 
L 246.547188 239.15109 
L 247.293814 239.15109 
L 247.293814 237.529382 
L 248.040439 237.529382 
L 248.040439 236.139348 
L 248.787065 236.139348 
L 248.787065 234.749313 
L 249.533691 234.749313 
L 249.533691 233.359278 
L 250.280316 233.359278 
L 250.280316 232.200916 
L 251.026942 232.200916 
L 251.026942 231.042554 
L 251.773567 231.042554 
L 251.773567 230.115864 
L 252.520193 230.115864 
L 252.520193 229.189174 
L 253.266819 229.189174 
L 253.266819 228.725829 
L 254.013444 228.725829 
L 254.013444 228.262484 
L 254.76007 228.262484 
L 254.76007 228.030812 
L 255.506696 228.030812 
L 255.506696 227.799139 
L 257.746573 227.799139 
L 257.746573 228.030812 
L 258.493198 228.030812 
L 258.493198 228.262484 
L 259.239824 228.262484 
L 259.239824 228.494157 
L 260.733075 228.494157 
L 260.733075 228.725829 
L 262.226327 228.725829 
L 262.226327 228.494157 
L 262.972952 228.494157 
L 262.972952 228.030812 
L 263.719578 228.030812 
L 263.719578 227.335795 
L 264.466204 227.335795 
L 264.466204 226.409105 
L 265.212829 226.409105 
L 265.212829 225.250743 
L 265.959455 225.250743 
L 265.959455 224.09238 
L 266.706081 224.09238 
L 266.706081 222.702346 
L 267.452706 222.702346 
L 267.452706 221.543983 
L 268.199332 221.543983 
L 268.199332 220.385621 
L 268.945957 220.385621 
L 268.945957 219.458931 
L 269.692583 219.458931 
L 269.692583 218.763914 
L 270.439209 218.763914 
L 270.439209 218.068897 
L 271.185834 218.068897 
L 271.185834 217.837224 
L 271.93246 217.837224 
L 271.93246 217.605552 
L 273.425711 217.605552 
L 273.425711 217.837224 
L 274.172337 217.837224 
L 274.172337 218.068897 
L 274.918963 218.068897 
L 274.918963 218.300569 
L 275.665588 218.300569 
L 275.665588 218.532241 
L 276.412214 218.532241 
L 276.412214 218.763914 
L 278.652091 218.763914 
L 278.652091 218.532241 
L 279.398717 218.532241 
L 279.398717 218.300569 
L 280.145342 218.300569 
L 280.145342 217.837224 
L 280.891968 217.837224 
L 280.891968 217.605552 
L 281.638594 217.605552 
L 281.638594 217.142207 
L 282.385219 217.142207 
L 282.385219 216.910534 
L 283.878471 216.910534 
L 283.878471 216.678862 
L 286.118347 216.678862 
L 286.118347 216.447189 
L 287.611599 216.447189 
L 287.611599 216.215517 
L 289.851476 216.215517 
L 289.851476 216.447189 
L 290.598101 216.447189 
L 290.598101 216.678862 
L 291.344727 216.678862 
L 291.344727 216.910534 
L 292.091353 216.910534 
L 292.091353 217.142207 
L 292.837978 217.142207 
L 292.837978 217.605552 
L 293.584604 217.605552 
L 293.584604 218.068897 
L 294.33123 218.068897 
L 294.33123 218.300569 
L 295.077855 218.300569 
L 295.077855 218.532241 
L 295.824481 218.532241 
L 295.824481 218.763914 
L 296.571107 218.763914 
L 296.571107 218.995586 
L 298.810984 218.995586 
L 298.810984 218.763914 
L 299.557609 218.763914 
L 299.557609 218.300569 
L 300.304235 218.300569 
L 300.304235 217.605552 
L 301.05086 217.605552 
L 301.05086 216.678862 
L 301.797486 216.678862 
L 301.797486 215.5205 
L 302.544112 215.5205 
L 302.544112 214.362137 
L 303.290737 214.362137 
L 303.290737 213.203775 
L 304.037363 213.203775 
L 304.037363 212.277085 
L 304.783989 212.277085 
L 304.783989 211.582068 
L 305.530614 211.582068 
L 305.530614 210.887051 
L 306.27724 210.887051 
L 306.27724 210.655378 
L 308.517117 210.655378 
L 308.517117 210.887051 
L 309.263743 210.887051 
L 309.263743 211.118723 
L 310.010368 211.118723 
L 310.010368 211.350396 
L 311.50362 211.350396 
L 311.50362 211.582068 
L 313.743497 211.582068 
L 313.743497 211.81374 
L 315.236748 211.81374 
L 315.236748 212.045413 
L 315.983374 212.045413 
L 315.983374 212.277085 
L 316.729999 212.277085 
L 316.729999 212.508758 
L 318.969876 212.508758 
L 318.969876 212.277085 
L 319.716502 212.277085 
L 319.716502 211.81374 
L 320.463127 211.81374 
L 320.463127 211.350396 
L 321.209753 211.350396 
L 321.209753 210.655378 
L 321.956379 210.655378 
L 321.956379 209.960361 
L 322.703004 209.960361 
L 322.703004 209.265344 
L 323.44963 209.265344 
L 323.44963 208.801999 
L 324.196256 208.801999 
L 324.196256 208.338654 
L 324.942881 208.338654 
L 324.942881 208.106981 
L 326.436133 208.106981 
L 326.436133 208.570326 
L 327.182758 208.570326 
L 327.182758 209.265344 
L 327.929384 209.265344 
L 327.929384 209.960361 
L 328.67601 209.960361 
L 328.67601 210.887051 
L 329.422635 210.887051 
L 329.422635 211.81374 
L 330.169261 211.81374 
L 330.169261 212.74043 
L 330.915887 212.74043 
L 330.915887 213.435448 
L 331.662512 213.435448 
L 331.662512 214.130465 
L 332.409138 214.130465 
L 332.409138 214.59381 
L 333.155764 214.59381 
L 333.155764 215.057155 
L 333.902389 215.057155 
L 333.902389 215.288827 
L 336.888892 215.288827 
L 336.888892 215.057155 
L 337.635517 215.057155 
L 337.635517 214.825482 
L 338.382143 214.825482 
L 338.382143 214.362137 
L 339.128769 214.362137 
L 339.128769 213.66712 
L 339.875394 213.66712 
L 339.875394 213.203775 
L 340.62202 213.203775 
L 340.62202 212.508758 
L 341.368646 212.508758 
L 341.368646 211.582068 
L 342.115271 211.582068 
L 342.115271 210.887051 
L 342.861897 210.887051 
L 342.861897 209.960361 
L 343.608523 209.960361 
L 343.608523 209.265344 
L 344.355148 209.265344 
L 344.355148 208.570326 
L 345.101774 208.570326 
L 345.101774 207.875309 
L 345.8484 207.875309 
L 345.8484 207.643636 
L 346.595025 207.643636 
L 346.595025 207.875309 
L 347.341651 207.875309 
L 347.341651 208.106981 
L 348.088277 208.106981 
L 348.088277 208.801999 
L 348.834902 208.801999 
L 348.834902 209.497016 
L 349.581528 209.497016 
L 349.581528 210.192033 
L 350.328153 210.192033 
L 350.328153 210.887051 
L 351.074779 210.887051 
L 351.074779 211.118723 
L 351.821405 211.118723 
L 351.821405 211.350396 
L 353.314656 211.350396 
L 353.314656 211.118723 
L 354.061282 211.118723 
L 354.061282 210.655378 
L 354.807907 210.655378 
L 354.807907 210.423706 
L 357.79441 210.423706 
L 357.79441 210.655378 
L 358.541036 210.655378 
L 358.541036 211.118723 
L 359.287661 211.118723 
L 359.287661 211.350396 
L 362.274164 211.350396 
L 362.274164 210.887051 
L 363.02079 210.887051 
L 363.02079 210.655378 
L 363.767415 210.655378 
L 363.767415 210.423706 
L 364.514041 210.423706 
L 364.514041 209.960361 
L 366.007292 209.960361 
L 366.007292 209.728688 
L 366.753918 209.728688 
L 366.753918 209.497016 
L 367.500543 209.497016 
L 367.500543 209.728688 
L 368.993795 209.728688 
L 368.993795 210.192033 
L 369.74042 210.192033 
L 369.74042 211.118723 
L 370.487046 211.118723 
L 370.487046 212.508758 
L 371.233672 212.508758 
L 371.233672 214.59381 
L 371.980297 214.59381 
L 371.980297 217.837224 
L 372.726923 217.837224 
L 372.726923 222.007328 
L 373.473549 222.007328 
L 373.473549 227.104122 
L 374.220174 227.104122 
L 374.220174 232.895933 
L 374.9668 232.895933 
L 374.9668 238.687745 
L 375.713426 238.687745 
L 375.713426 244.016211 
L 376.460051 244.016211 
L 376.460051 248.186315 
L 377.206677 248.186315 
L 377.206677 250.50304 
L 377.953303 250.50304 
L 377.953303 250.50304 
" clip-path="url(#p9f4ba8a770)" style="fill: none; stroke: #0000ff; stroke-width: 1.5; stroke-linecap: square"/>
   </g>
   <g id="patch_13">
    <path d="M 228.628172 329.04 
L 228.628172 195.504 
" style="fill: none; stroke: #000000; stroke-width: 0.8; stroke-linejoin: miter; stroke-linecap: square"/>
   </g>
   <g id="patch_14">
    <path d="M 377.953303 329.04 
L 377.953303 195.504 
" style="fill: none; stroke: #000000; stroke-width: 0.8; stroke-linejoin: miter; stroke-linecap: square"/>
   </g>
   <g id="patch_15">
    <path d="M 228.628172 329.04 
L 377.953303 329.04 
" style="fill: none; stroke: #000000; stroke-width: 0.8; stroke-linejoin: miter; stroke-linecap: square"/>
   </g>
   <g id="patch_16">
    <path d="M 228.628172 195.504 
L 377.953303 195.504 
" style="fill: none; stroke: #000000; stroke-width: 0.8; stroke-linejoin: miter; stroke-linecap: square"/>
   </g>
   <g id="text_18">
    <!-- $\log_{10}(M_x$/GeV) = ${-5.8066}_{-2.7431}^{+2.6086}$ -->
    <g transform="translate(191.500737 189.504) scale(0.14 -0.14)">
     <use xlink:href="#DejaVuSans-6c" transform="translate(0 0.765625)"/>
     <use xlink:href="#DejaVuSans-6f" transform="translate(27.783203 0.765625)"/>
     <use xlink:href="#DejaVuSans-67" transform="translate(88.964844 0.765625)"/>
     <use xlink:href="#DejaVuSans-31" transform="translate(153.398438 -15.640625) scale(0.7)"/>
     <use xlink:href="#DejaVuSans-30" transform="translate(197.93457 -15.640625) scale(0.7)"/>
     <use xlink:href="#DejaVuSans-28" transform="translate(261.440754 0.765625)"/>
     <use xlink:href="#DejaVuSans-Oblique-4d" transform="translate(300.454426 0.765625)"/>
     <use xlink:href="#DejaVuSans-Oblique-78" transform="translate(386.733723 -15.640625) scale(0.7)"/>
     <use xlink:href="#DejaVuSans-2f" transform="translate(430.893879 0.765625)"/>
     <use xlink:href="#DejaVuSans-47" transform="translate(464.585286 0.765625)"/>
     <use xlink:href="#DejaVuSans-65" transform="translate(542.07552 0.765625)"/>
     <use xlink:href="#DejaVuSans-56" transform="translate(603.598958 0.765625)"/>
     <use xlink:href="#DejaVuSans-29" transform="translate(672.007161 0.765625)"/>
     <use xlink:href="#DejaVuSans-20" transform="translate(711.020833 0.765625)"/>
     <use xlink:href="#DejaVuSans-3d" transform="translate(742.807942 0.765625)"/>
     <use xlink:href="#DejaVuSans-20" transform="translate(826.597004 0.765625)"/>
     <use xlink:href="#DejaVuSans-2212" transform="translate(858.384114 0.765625)"/>
     <use xlink:href="#DejaVuSans-35" transform="translate(942.173176 0.765625)"/>
     <use xlink:href="#DejaVuSans-2e" transform="translate(1005.796223 0.765625)"/>
     <use xlink:href="#DejaVuSans-38" transform="translate(1034.958333 0.765625)"/>
     <use xlink:href="#DejaVuSans-30" transform="translate(1098.581379 0.765625)"/>
     <use xlink:href="#DejaVuSans-36" transform="translate(1162.204426 0.765625)"/>
     <use xlink:href="#DejaVuSans-36" transform="translate(1225.827473 0.765625)"/>
     <use xlink:href="#DejaVuSans-2b" transform="translate(1290.407551 39.046875) scale(0.7)"/>
     <use xlink:href="#DejaVuSans-32" transform="translate(1349.059895 39.046875) scale(0.7)"/>
     <use xlink:href="#DejaVuSans-2e" transform="translate(1393.596028 39.046875) scale(0.7)"/>
     <use xlink:href="#DejaVuSans-36" transform="translate(1415.847004 39.046875) scale(0.7)"/>
     <use xlink:href="#DejaVuSans-30" transform="translate(1460.383137 39.046875) scale(0.7)"/>
     <use xlink:href="#DejaVuSans-38" transform="translate(1504.91927 39.046875) scale(0.7)"/>
     <use xlink:href="#DejaVuSans-36" transform="translate(1549.455403 39.046875) scale(0.7)"/>
     <use xlink:href="#DejaVuSans-2212" transform="translate(1290.407551 -26.578125) scale(0.7)"/>
     <use xlink:href="#DejaVuSans-32" transform="translate(1349.059895 -26.578125) scale(0.7)"/>
     <use xlink:href="#DejaVuSans-2e" transform="translate(1393.596028 -26.578125) scale(0.7)"/>
     <use xlink:href="#DejaVuSans-37" transform="translate(1410.422004 -26.578125) scale(0.7)"/>
     <use xlink:href="#DejaVuSans-34" transform="translate(1454.958137 -26.578125) scale(0.7)"/>
     <use xlink:href="#DejaVuSans-33" transform="translate(1499.49427 -26.578125) scale(0.7)"/>
     <use xlink:href="#DejaVuSans-31" transform="translate(1544.030403 -26.578125) scale(0.7)"/>
    </g>
   </g>
  </g>
 </g>
 <defs>
  <clipPath id="p496ea73a7b">
   <rect x="66.96" y="30.984" width="149.32513" height="133.536"/>
  </clipPath>
  <clipPath id="p461bfac6ad">
   <rect x="66.96" y="195.504" width="149.32513" height="133.536"/>
  </clipPath>
  <clipPath id="p9f4ba8a770">
   <rect x="228.628172" y="195.504" width="149.32513" height="133.536"/>
  </clipPath>
 </defs>
</svg>
