<?xml version="1.0" encoding="utf-8" standalone="no"?>
<!DOCTYPE svg PUBLIC "-//W3C//DTD SVG 1.1//EN"
  "http://www.w3.org/Graphics/SVG/1.1/DTD/svg11.dtd">
<svg xmlns:xlink="http://www.w3.org/1999/xlink" width="396pt" height="396pt" viewBox="0 0 396 396" xmlns="http://www.w3.org/2000/svg" version="1.1">
 <metadata>
  <rdf:RDF xmlns:dc="http://purl.org/dc/elements/1.1/" xmlns:cc="http://creativecommons.org/ns#" xmlns:rdf="http://www.w3.org/1999/02/22-rdf-syntax-ns#">
   <cc:Work>
    <dc:type rdf:resource="http://purl.org/dc/dcmitype/StillImage"/>
    <dc:date>2024-11-19T13:39:22.193804</dc:date>
    <dc:format>image/svg+xml</dc:format>
    <dc:creator>
     <cc:Agent>
      <dc:title>Matplotlib v3.9.2, https://matplotlib.org/</dc:title>
     </cc:Agent>
    </dc:creator>
   </cc:Work>
  </rdf:RDF>
 </metadata>
 <defs>
  <style type="text/css">*{stroke-linejoin: round; stroke-linecap: butt}</style>
 </defs>
 <g id="figure_1">
  <g id="patch_1">
   <path d="M 0 396 
L 396 396 
L 396 0 
L 0 0 
z
" style="fill: #ffffff"/>
  </g>
  <g id="axes_1">
   <g id="patch_2">
    <path d="M 69.552 163.224 
L 221.976 163.224 
L 221.976 30.984 
L 69.552 30.984 
z
" style="fill: #ffffff"/>
   </g>
   <g id="matplotlib.axis_1">
    <g id="xtick_1">
     <g id="line2d_1">
      <defs>
       <path id="m49124001ba" d="M 0 0 
L 0 3.5 
" style="stroke: #000000; stroke-width: 0.8"/>
      </defs>
      <g>
       <use xlink:href="#m49124001ba" x="72.551373" y="163.224" style="stroke: #000000; stroke-width: 0.8"/>
      </g>
     </g>
    </g>
    <g id="xtick_2">
     <g id="line2d_2">
      <g>
       <use xlink:href="#m49124001ba" x="105.92103" y="163.224" style="stroke: #000000; stroke-width: 0.8"/>
      </g>
     </g>
    </g>
    <g id="xtick_3">
     <g id="line2d_3">
      <g>
       <use xlink:href="#m49124001ba" x="139.290687" y="163.224" style="stroke: #000000; stroke-width: 0.8"/>
      </g>
     </g>
    </g>
    <g id="xtick_4">
     <g id="line2d_4">
      <g>
       <use xlink:href="#m49124001ba" x="172.660344" y="163.224" style="stroke: #000000; stroke-width: 0.8"/>
      </g>
     </g>
    </g>
    <g id="xtick_5">
     <g id="line2d_5">
      <g>
       <use xlink:href="#m49124001ba" x="206.030002" y="163.224" style="stroke: #000000; stroke-width: 0.8"/>
      </g>
     </g>
    </g>
   </g>
   <g id="matplotlib.axis_2"/>
   <g id="line2d_6">
    <path d="M 69.552 163.149654 
L 79.45956 163.075307 
L 79.45956 163.000961 
L 83.27016 162.926614 
L 83.27016 162.852268 
L 84.7944 162.777921 
L 84.7944 162.703575 
L 85.55652 162.703575 
L 85.55652 162.554882 
L 87.08076 162.480536 
L 87.08076 162.257496 
L 87.84288 162.257496 
L 87.84288 162.108804 
L 88.605 162.108804 
L 88.605 161.885764 
L 89.36712 161.885764 
L 89.36712 161.662725 
L 90.12924 161.662725 
L 90.12924 161.365339 
L 90.89136 161.365339 
L 90.89136 161.067953 
L 91.65348 161.067953 
L 91.65348 160.770568 
L 92.4156 160.770568 
L 92.4156 160.398836 
L 93.17772 160.398836 
L 93.17772 159.952757 
L 93.93984 159.952757 
L 93.93984 159.506678 
L 94.70196 159.506678 
L 94.70196 158.986253 
L 95.46408 158.986253 
L 95.46408 158.465828 
L 96.2262 158.465828 
L 96.2262 157.79671 
L 96.98832 157.79671 
L 96.98832 157.127593 
L 97.75044 157.127593 
L 97.75044 156.384128 
L 98.51256 156.384128 
L 98.51256 155.566317 
L 99.27468 155.566317 
L 99.27468 154.67416 
L 100.0368 154.67416 
L 100.0368 153.707657 
L 100.79892 153.707657 
L 100.79892 152.666807 
L 101.56104 152.666807 
L 101.56104 151.477264 
L 102.32316 151.477264 
L 102.32316 150.287721 
L 103.08528 150.287721 
L 103.08528 148.949485 
L 103.8474 148.949485 
L 103.8474 147.611249 
L 104.60952 147.611249 
L 104.60952 146.12432 
L 105.37164 146.12432 
L 105.37164 144.563045 
L 106.13376 144.563045 
L 106.13376 142.853077 
L 106.89588 142.853077 
L 106.89588 141.143109 
L 107.658 141.143109 
L 107.658 139.358795 
L 108.42012 139.358795 
L 108.42012 137.425788 
L 109.18224 137.425788 
L 109.18224 135.418434 
L 109.94436 135.418434 
L 109.94436 133.336734 
L 110.70648 133.336734 
L 110.70648 131.031995 
L 111.4686 131.031995 
L 111.4686 128.652909 
L 112.23072 128.652909 
L 112.23072 126.199476 
L 112.99284 126.199476 
L 112.99284 123.597351 
L 113.75496 123.597351 
L 113.75496 120.995226 
L 114.51708 120.995226 
L 114.51708 118.318755 
L 115.2792 118.318755 
L 115.2792 115.642283 
L 116.04132 115.642283 
L 116.04132 112.965811 
L 116.80344 112.965811 
L 116.80344 110.28934 
L 117.56556 110.28934 
L 117.56556 107.538522 
L 118.32768 107.538522 
L 118.32768 104.713357 
L 119.0898 104.713357 
L 119.0898 101.7395 
L 119.85192 101.7395 
L 119.85192 98.765643 
L 120.61404 98.765643 
L 120.61404 95.791785 
L 121.37616 95.791785 
L 121.37616 92.817928 
L 122.13828 92.817928 
L 122.13828 89.844071 
L 122.9004 89.844071 
L 122.9004 86.870214 
L 123.66252 86.870214 
L 123.66252 83.970703 
L 124.42464 83.970703 
L 124.42464 81.145538 
L 125.18676 81.145538 
L 125.18676 78.246027 
L 125.94888 78.246027 
L 125.94888 75.346516 
L 126.711 75.346516 
L 126.711 72.372659 
L 127.47312 72.372659 
L 127.47312 69.473148 
L 128.23524 69.473148 
L 128.23524 66.499291 
L 128.99736 66.499291 
L 128.99736 63.525434 
L 129.75948 63.525434 
L 129.75948 60.700269 
L 130.5216 60.700269 
L 130.5216 57.875105 
L 131.28372 57.875105 
L 131.28372 55.27298 
L 132.04584 55.27298 
L 132.04584 52.893894 
L 132.80796 52.893894 
L 132.80796 50.663501 
L 133.57008 50.663501 
L 133.57008 48.730494 
L 134.3322 48.730494 
L 134.3322 47.094872 
L 135.09432 47.094872 
L 135.09432 45.756636 
L 135.85644 45.756636 
L 135.85644 44.715786 
L 136.61856 44.715786 
L 136.61856 43.897975 
L 137.38068 43.897975 
L 137.38068 43.37755 
L 138.1428 43.37755 
L 138.1428 43.080165 
L 139.66704 43.005818 
L 139.66704 43.228857 
L 140.42916 43.228857 
L 140.42916 43.60059 
L 141.19128 43.60059 
L 141.19128 44.269708 
L 141.9534 44.269708 
L 141.9534 45.236211 
L 142.71552 45.236211 
L 142.71552 46.351408 
L 143.47764 46.351408 
L 143.47764 47.76399 
L 144.23976 47.76399 
L 144.23976 49.399611 
L 145.00188 49.399611 
L 145.00188 51.258272 
L 145.764 51.258272 
L 145.764 53.191279 
L 146.52612 53.191279 
L 146.52612 55.347326 
L 147.28824 55.347326 
L 147.28824 57.652065 
L 148.05036 57.652065 
L 148.05036 59.956805 
L 148.81248 59.956805 
L 148.81248 62.484584 
L 149.5746 62.484584 
L 149.5746 65.086709 
L 150.33672 65.086709 
L 150.33672 67.76318 
L 151.09884 67.76318 
L 151.09884 70.662691 
L 151.86096 70.662691 
L 151.86096 73.710895 
L 152.62308 73.710895 
L 152.62308 76.907792 
L 153.3852 76.907792 
L 153.3852 80.327727 
L 154.14732 80.327727 
L 154.14732 83.747663 
L 154.90944 83.747663 
L 154.90944 87.390639 
L 155.67156 87.390639 
L 155.67156 91.033614 
L 156.43368 91.033614 
L 156.43368 94.676589 
L 157.1958 94.676589 
L 157.1958 98.393911 
L 157.95792 98.393911 
L 157.95792 102.111232 
L 158.72004 102.111232 
L 158.72004 105.754207 
L 159.48216 105.754207 
L 159.48216 109.24849 
L 160.24428 109.24849 
L 160.24428 112.594079 
L 161.0064 112.594079 
L 161.0064 115.716629 
L 161.76852 115.716629 
L 161.76852 118.690487 
L 162.53064 118.690487 
L 162.53064 121.515651 
L 163.29276 121.515651 
L 163.29276 124.04343 
L 164.05488 124.04343 
L 164.05488 126.496862 
L 164.817 126.496862 
L 164.817 128.801602 
L 165.57912 128.801602 
L 165.57912 130.957648 
L 166.34124 130.957648 
L 166.34124 133.039348 
L 167.10336 133.039348 
L 167.10336 135.046702 
L 167.86548 135.046702 
L 167.86548 136.979709 
L 168.6276 136.979709 
L 168.6276 138.764024 
L 169.38972 138.764024 
L 169.38972 140.473992 
L 170.15184 140.473992 
L 170.15184 142.109613 
L 170.91396 142.109613 
L 170.91396 143.670888 
L 171.67608 143.670888 
L 171.67608 145.08347 
L 172.4382 145.08347 
L 172.4382 146.421706 
L 173.20032 146.421706 
L 173.20032 147.685596 
L 173.96244 147.685596 
L 173.96244 148.875138 
L 174.72456 148.875138 
L 174.72456 150.064681 
L 175.48668 150.064681 
L 175.48668 151.105531 
L 176.2488 151.105531 
L 176.2488 152.146382 
L 177.01092 152.146382 
L 177.01092 153.112885 
L 177.77304 153.112885 
L 177.77304 154.005042 
L 178.53516 154.005042 
L 178.53516 154.822853 
L 179.29728 154.822853 
L 179.29728 155.640664 
L 180.0594 155.640664 
L 180.0594 156.384128 
L 180.82152 156.384128 
L 180.82152 157.053246 
L 181.58364 157.053246 
L 181.58364 157.722364 
L 182.34576 157.722364 
L 182.34576 158.317135 
L 183.10788 158.317135 
L 183.10788 158.83756 
L 183.87 158.83756 
L 183.87 159.357985 
L 184.63212 159.357985 
L 184.63212 159.804064 
L 185.39424 159.804064 
L 185.39424 160.175796 
L 186.15636 160.175796 
L 186.15636 160.547528 
L 186.91848 160.547528 
L 186.91848 160.770568 
L 187.6806 160.770568 
L 187.6806 160.993607 
L 188.44272 160.993607 
L 188.44272 161.216646 
L 189.96696 161.290993 
L 189.96696 161.439686 
L 191.4912 161.514032 
L 191.4912 161.588378 
L 193.01544 161.662725 
L 193.01544 161.811418 
L 194.53968 161.885764 
L 194.53968 162.034457 
L 196.06392 162.108804 
L 196.06392 162.257496 
L 196.82604 162.257496 
L 196.82604 162.406189 
L 198.35028 162.480536 
L 198.35028 162.629229 
L 199.87452 162.703575 
L 199.87452 162.777921 
L 201.39876 162.852268 
L 201.39876 162.926614 
L 204.44724 163.000961 
L 204.44724 163.075307 
L 216.64116 163.149654 
L 216.64116 163.224 
L 221.976 163.224 
L 221.976 163.224 
" clip-path="url(#p77e39e46a7)" style="fill: none; stroke: #bf00bf; stroke-width: 1.5; stroke-linecap: square"/>
   </g>
   <g id="patch_3">
    <path d="M 69.552 163.224 
L 69.552 30.984 
" style="fill: none; stroke: #000000; stroke-width: 0.8; stroke-linejoin: miter; stroke-linecap: square"/>
   </g>
   <g id="patch_4">
    <path d="M 221.976 163.224 
L 221.976 30.984 
" style="fill: none; stroke: #000000; stroke-width: 0.8; stroke-linejoin: miter; stroke-linecap: square"/>
   </g>
   <g id="patch_5">
    <path d="M 69.552 163.224 
L 221.976 163.224 
" style="fill: none; stroke: #000000; stroke-width: 0.8; stroke-linejoin: miter; stroke-linecap: square"/>
   </g>
   <g id="patch_6">
    <path d="M 69.552 30.984 
L 221.976 30.984 
" style="fill: none; stroke: #000000; stroke-width: 0.8; stroke-linejoin: miter; stroke-linecap: square"/>
   </g>
   <g id="text_1">
    <!-- $\Omega_{2,0}$ = ${0.3248}_{-0.0126}^{+0.0123}$ -->
    <g transform="translate(75.064 24.984) scale(0.14 -0.14)">
     <defs>
      <path id="DejaVuSans-3a9" d="M 4647 556 
L 4647 0 
L 2772 0 
L 2772 556 
Q 3325 859 3634 1378 
Q 3944 1897 3944 2528 
Q 3944 3278 3531 3731 
Q 3119 4184 2444 4184 
Q 1769 4184 1355 3729 
Q 941 3275 941 2528 
Q 941 1897 1250 1378 
Q 1563 859 2119 556 
L 2119 0 
L 244 0 
L 244 556 
L 1241 556 
Q 747 991 519 1456 
Q 294 1922 294 2497 
Q 294 3491 894 4106 
Q 1491 4722 2444 4722 
Q 3391 4722 3994 4106 
Q 4594 3494 4594 2528 
Q 4594 1922 4372 1459 
Q 4150 997 3647 556 
L 4647 556 
z
" transform="scale(0.015625)"/>
      <path id="DejaVuSans-32" d="M 1228 531 
L 3431 531 
L 3431 0 
L 469 0 
L 469 531 
Q 828 903 1448 1529 
Q 2069 2156 2228 2338 
Q 2531 2678 2651 2914 
Q 2772 3150 2772 3378 
Q 2772 3750 2511 3984 
Q 2250 4219 1831 4219 
Q 1534 4219 1204 4116 
Q 875 4013 500 3803 
L 500 4441 
Q 881 4594 1212 4672 
Q 1544 4750 1819 4750 
Q 2544 4750 2975 4387 
Q 3406 4025 3406 3419 
Q 3406 3131 3298 2873 
Q 3191 2616 2906 2266 
Q 2828 2175 2409 1742 
Q 1991 1309 1228 531 
z
" transform="scale(0.015625)"/>
      <path id="DejaVuSans-2c" d="M 750 794 
L 1409 794 
L 1409 256 
L 897 -744 
L 494 -744 
L 750 256 
L 750 794 
z
" transform="scale(0.015625)"/>
      <path id="DejaVuSans-30" d="M 2034 4250 
Q 1547 4250 1301 3770 
Q 1056 3291 1056 2328 
Q 1056 1369 1301 889 
Q 1547 409 2034 409 
Q 2525 409 2770 889 
Q 3016 1369 3016 2328 
Q 3016 3291 2770 3770 
Q 2525 4250 2034 4250 
z
M 2034 4750 
Q 2819 4750 3233 4129 
Q 3647 3509 3647 2328 
Q 3647 1150 3233 529 
Q 2819 -91 2034 -91 
Q 1250 -91 836 529 
Q 422 1150 422 2328 
Q 422 3509 836 4129 
Q 1250 4750 2034 4750 
z
" transform="scale(0.015625)"/>
      <path id="DejaVuSans-20" transform="scale(0.015625)"/>
      <path id="DejaVuSans-3d" d="M 678 2906 
L 4684 2906 
L 4684 2381 
L 678 2381 
L 678 2906 
z
M 678 1631 
L 4684 1631 
L 4684 1100 
L 678 1100 
L 678 1631 
z
" transform="scale(0.015625)"/>
      <path id="DejaVuSans-2e" d="M 684 794 
L 1344 794 
L 1344 0 
L 684 0 
L 684 794 
z
" transform="scale(0.015625)"/>
      <path id="DejaVuSans-33" d="M 2597 2516 
Q 3050 2419 3304 2112 
Q 3559 1806 3559 1356 
Q 3559 666 3084 287 
Q 2609 -91 1734 -91 
Q 1441 -91 1130 -33 
Q 819 25 488 141 
L 488 750 
Q 750 597 1062 519 
Q 1375 441 1716 441 
Q 2309 441 2620 675 
Q 2931 909 2931 1356 
Q 2931 1769 2642 2001 
Q 2353 2234 1838 2234 
L 1294 2234 
L 1294 2753 
L 1863 2753 
Q 2328 2753 2575 2939 
Q 2822 3125 2822 3475 
Q 2822 3834 2567 4026 
Q 2313 4219 1838 4219 
Q 1578 4219 1281 4162 
Q 984 4106 628 3988 
L 628 4550 
Q 988 4650 1302 4700 
Q 1616 4750 1894 4750 
Q 2613 4750 3031 4423 
Q 3450 4097 3450 3541 
Q 3450 3153 3228 2886 
Q 3006 2619 2597 2516 
z
" transform="scale(0.015625)"/>
      <path id="DejaVuSans-34" d="M 2419 4116 
L 825 1625 
L 2419 1625 
L 2419 4116 
z
M 2253 4666 
L 3047 4666 
L 3047 1625 
L 3713 1625 
L 3713 1100 
L 3047 1100 
L 3047 0 
L 2419 0 
L 2419 1100 
L 313 1100 
L 313 1709 
L 2253 4666 
z
" transform="scale(0.015625)"/>
      <path id="DejaVuSans-38" d="M 2034 2216 
Q 1584 2216 1326 1975 
Q 1069 1734 1069 1313 
Q 1069 891 1326 650 
Q 1584 409 2034 409 
Q 2484 409 2743 651 
Q 3003 894 3003 1313 
Q 3003 1734 2745 1975 
Q 2488 2216 2034 2216 
z
M 1403 2484 
Q 997 2584 770 2862 
Q 544 3141 544 3541 
Q 544 4100 942 4425 
Q 1341 4750 2034 4750 
Q 2731 4750 3128 4425 
Q 3525 4100 3525 3541 
Q 3525 3141 3298 2862 
Q 3072 2584 2669 2484 
Q 3125 2378 3379 2068 
Q 3634 1759 3634 1313 
Q 3634 634 3220 271 
Q 2806 -91 2034 -91 
Q 1263 -91 848 271 
Q 434 634 434 1313 
Q 434 1759 690 2068 
Q 947 2378 1403 2484 
z
M 1172 3481 
Q 1172 3119 1398 2916 
Q 1625 2713 2034 2713 
Q 2441 2713 2670 2916 
Q 2900 3119 2900 3481 
Q 2900 3844 2670 4047 
Q 2441 4250 2034 4250 
Q 1625 4250 1398 4047 
Q 1172 3844 1172 3481 
z
" transform="scale(0.015625)"/>
      <path id="DejaVuSans-2b" d="M 2944 4013 
L 2944 2272 
L 4684 2272 
L 4684 1741 
L 2944 1741 
L 2944 0 
L 2419 0 
L 2419 1741 
L 678 1741 
L 678 2272 
L 2419 2272 
L 2419 4013 
L 2944 4013 
z
" transform="scale(0.015625)"/>
      <path id="DejaVuSans-31" d="M 794 531 
L 1825 531 
L 1825 4091 
L 703 3866 
L 703 4441 
L 1819 4666 
L 2450 4666 
L 2450 531 
L 3481 531 
L 3481 0 
L 794 0 
L 794 531 
z
" transform="scale(0.015625)"/>
      <path id="DejaVuSans-2212" d="M 678 2272 
L 4684 2272 
L 4684 1741 
L 678 1741 
L 678 2272 
z
" transform="scale(0.015625)"/>
      <path id="DejaVuSans-36" d="M 2113 2584 
Q 1688 2584 1439 2293 
Q 1191 2003 1191 1497 
Q 1191 994 1439 701 
Q 1688 409 2113 409 
Q 2538 409 2786 701 
Q 3034 994 3034 1497 
Q 3034 2003 2786 2293 
Q 2538 2584 2113 2584 
z
M 3366 4563 
L 3366 3988 
Q 3128 4100 2886 4159 
Q 2644 4219 2406 4219 
Q 1781 4219 1451 3797 
Q 1122 3375 1075 2522 
Q 1259 2794 1537 2939 
Q 1816 3084 2150 3084 
Q 2853 3084 3261 2657 
Q 3669 2231 3669 1497 
Q 3669 778 3244 343 
Q 2819 -91 2113 -91 
Q 1303 -91 875 529 
Q 447 1150 447 2328 
Q 447 3434 972 4092 
Q 1497 4750 2381 4750 
Q 2619 4750 2861 4703 
Q 3103 4656 3366 4563 
z
" transform="scale(0.015625)"/>
     </defs>
     <use xlink:href="#DejaVuSans-3a9" transform="translate(0 0.765625)"/>
     <use xlink:href="#DejaVuSans-32" transform="translate(77.373047 -15.640625) scale(0.7)"/>
     <use xlink:href="#DejaVuSans-2c" transform="translate(121.90918 -15.640625) scale(0.7)"/>
     <use xlink:href="#DejaVuSans-30" transform="translate(157.797852 -15.640625) scale(0.7)"/>
     <use xlink:href="#DejaVuSans-20" transform="translate(205.068359 0.765625)"/>
     <use xlink:href="#DejaVuSans-3d" transform="translate(236.855469 0.765625)"/>
     <use xlink:href="#DejaVuSans-20" transform="translate(320.644531 0.765625)"/>
     <use xlink:href="#DejaVuSans-30" transform="translate(352.431641 0.765625)"/>
     <use xlink:href="#DejaVuSans-2e" transform="translate(416.054688 0.765625)"/>
     <use xlink:href="#DejaVuSans-33" transform="translate(447.841797 0.765625)"/>
     <use xlink:href="#DejaVuSans-32" transform="translate(511.464844 0.765625)"/>
     <use xlink:href="#DejaVuSans-34" transform="translate(575.087891 0.765625)"/>
     <use xlink:href="#DejaVuSans-38" transform="translate(638.710938 0.765625)"/>
     <use xlink:href="#DejaVuSans-2b" transform="translate(703.291016 39.046875) scale(0.7)"/>
     <use xlink:href="#DejaVuSans-30" transform="translate(761.943359 39.046875) scale(0.7)"/>
     <use xlink:href="#DejaVuSans-2e" transform="translate(806.479492 39.046875) scale(0.7)"/>
     <use xlink:href="#DejaVuSans-30" transform="translate(828.730469 39.046875) scale(0.7)"/>
     <use xlink:href="#DejaVuSans-31" transform="translate(873.266602 39.046875) scale(0.7)"/>
     <use xlink:href="#DejaVuSans-32" transform="translate(917.802734 39.046875) scale(0.7)"/>
     <use xlink:href="#DejaVuSans-33" transform="translate(962.338867 39.046875) scale(0.7)"/>
     <use xlink:href="#DejaVuSans-2212" transform="translate(703.291016 -26.578125) scale(0.7)"/>
     <use xlink:href="#DejaVuSans-30" transform="translate(761.943359 -26.578125) scale(0.7)"/>
     <use xlink:href="#DejaVuSans-2e" transform="translate(806.479492 -26.578125) scale(0.7)"/>
     <use xlink:href="#DejaVuSans-30" transform="translate(828.730469 -26.578125) scale(0.7)"/>
     <use xlink:href="#DejaVuSans-31" transform="translate(873.266602 -26.578125) scale(0.7)"/>
     <use xlink:href="#DejaVuSans-32" transform="translate(917.802734 -26.578125) scale(0.7)"/>
     <use xlink:href="#DejaVuSans-36" transform="translate(962.338867 -26.578125) scale(0.7)"/>
    </g>
   </g>
  </g>
  <g id="axes_2">
   <g id="matplotlib.axis_3"/>
   <g id="matplotlib.axis_4"/>
  </g>
  <g id="axes_3">
   <g id="patch_7">
    <path d="M 69.552 326.448 
L 221.976 326.448 
L 221.976 194.208 
L 69.552 194.208 
z
" style="fill: #ffffff"/>
   </g>
   <g id="QuadContourSet_1">
    <path d="M 107.658 328.299903 
L 110.70648 328.822984 
L 113.75496 329.220732 
L 116.80344 329.579921 
L 119.85192 329.820997 
L 122.9004 329.945952 
L 125.94888 329.986273 
L 128.99736 329.995347 
L 132.04584 330.017705 
L 135.09432 330.065732 
L 138.1428 330.113943 
L 141.19128 330.125897 
L 144.23976 330.107392 
L 147.28824 330.102397 
L 150.33672 330.102787 
L 153.3852 330.059623 
L 156.43368 329.964491 
L 159.48216 329.816667 
L 162.53064 329.662494 
L 165.57912 329.486201 
L 168.6276 329.114208 
L 171.67608 328.51407 
L 174.448589 327.7704 
L 174.448589 325.1256 
L 174.72456 324.388431 
L 175.668886 322.4808 
L 175.712328 319.836 
L 174.72456 317.409871 
L 174.654044 317.1912 
L 174.047414 314.5464 
L 173.842212 311.9016 
L 173.303795 309.2568 
L 174.105635 306.612 
L 174.72456 306.015908 
L 176.399099 303.9672 
L 177.418095 301.3224 
L 176.910294 298.6776 
L 176.225101 296.0328 
L 175.781965 293.388 
L 175.701645 290.7432 
L 175.674903 288.0984 
L 175.814539 285.4536 
L 176.174177 282.8088 
L 176.511307 280.164 
L 176.83685 277.5192 
L 176.879718 274.8744 
L 177.133062 272.2296 
L 177.669866 269.5848 
L 177.615 266.94 
L 176.818912 264.2952 
L 175.952995 261.6504 
L 175.785641 259.0056 
L 175.810542 256.3608 
L 175.092592 253.716 
L 174.72456 252.489466 
L 174.415057 251.0712 
L 174.536079 248.4264 
L 174.72456 247.187718 
L 175.066431 245.7816 
L 175.758733 243.1368 
L 175.563016 240.492 
L 174.746968 237.8472 
L 174.72456 237.692774 
L 174.493944 235.2024 
L 173.713794 232.5576 
L 172.738249 229.9128 
L 171.939685 227.268 
L 171.67608 225.27885 
L 171.604694 224.6232 
L 171.306605 221.9784 
L 170.025423 219.3336 
L 168.6276 217.367234 
L 167.971398 216.6888 
L 165.832974 214.044 
L 165.57912 213.823882 
L 163.770015 211.3992 
L 162.53064 210.443454 
L 159.48216 209.24335 
L 157.722358 208.7544 
L 156.43368 208.307287 
L 153.3852 206.798991 
L 151.947461 206.1096 
L 150.33672 205.065783 
L 147.28824 204.156049 
L 144.23976 203.850581 
L 141.388547 203.4648 
L 141.19128 203.431961 
L 138.1428 202.510192 
L 135.09432 201.727276 
L 132.04584 201.389189 
L 128.99736 201.279783 
L 125.94888 201.11327 
L 122.9004 200.856159 
L 122.317156 200.82 
L 119.85192 200.581481 
L 116.80344 200.165882 
L 113.75496 199.661305 
L 110.70648 199.614056 
L 107.658 200.82 
L 107.658 200.82 
L 104.60952 202.973145 
L 103.651787 203.4648 
L 102.723105 206.1096 
L 102.561368 208.7544 
L 102.323806 211.3992 
L 102.388784 214.044 
L 102.62881 216.6888 
L 103.083847 219.3336 
L 104.019756 221.9784 
L 104.60952 224.200205 
L 104.696229 224.6232 
L 104.60952 225.25796 
L 104.27956 227.268 
L 103.920116 229.9128 
L 104.60952 232.449574 
L 104.635525 232.5576 
L 105.104105 235.2024 
L 105.439623 237.8472 
L 106.907216 240.492 
L 107.431232 243.1368 
L 106.508446 245.7816 
L 105.953104 248.4264 
L 106.05236 251.0712 
L 106.213068 253.716 
L 104.936381 256.3608 
L 104.60952 256.702443 
L 102.89149 259.0056 
L 101.908734 261.6504 
L 101.56104 263.767644 
L 101.454729 264.2952 
L 101.56104 265.253916 
L 101.744387 266.94 
L 103.460507 269.5848 
L 104.60952 271.067138 
L 105.231602 272.2296 
L 105.846862 274.8744 
L 105.535725 277.5192 
L 104.754787 280.164 
L 104.760206 282.8088 
L 105.036747 285.4536 
L 104.921027 288.0984 
L 104.60952 289.130431 
L 103.719503 290.7432 
L 102.770573 293.388 
L 102.966609 296.0328 
L 103.312089 298.6776 
L 103.25801 301.3224 
L 103.443879 303.9672 
L 104.219894 306.612 
L 103.675007 309.2568 
L 102.374823 311.9016 
L 102.144702 314.5464 
L 102.415046 317.1912 
L 102.967648 319.836 
L 104.044737 322.4808 
L 104.60952 323.650826 
L 105.370084 325.1256 
L 105.370084 327.7704 
z
" clip-path="url(#p8976a2e032)" style="fill: #ffffff"/>
   </g>
   <g id="QuadContourSet_2">
    <path d="M 68.02776 330.4152 
L 71.07624 330.4152 
L 74.12472 330.4152 
L 77.1732 330.4152 
L 80.22168 330.4152 
L 83.27016 330.4152 
L 86.31864 330.4152 
L 89.36712 330.4152 
L 92.4156 330.4152 
L 95.46408 330.4152 
L 98.51256 330.4152 
L 101.56104 330.4152 
L 104.60952 330.4152 
L 107.658 330.4152 
L 110.70648 330.4152 
L 113.75496 330.4152 
L 116.80344 330.4152 
L 119.85192 330.4152 
L 122.9004 330.4152 
L 125.94888 330.4152 
L 128.99736 330.4152 
L 132.04584 330.4152 
L 135.09432 330.4152 
L 138.1428 330.4152 
L 141.19128 330.4152 
L 144.23976 330.4152 
L 147.28824 330.4152 
L 150.33672 330.4152 
L 153.3852 330.4152 
L 156.43368 330.4152 
L 159.48216 330.4152 
L 162.53064 330.4152 
L 165.57912 330.4152 
L 168.6276 330.4152 
L 171.67608 330.4152 
L 174.72456 330.4152 
L 177.77304 330.4152 
L 180.82152 330.4152 
L 183.87 330.4152 
L 186.91848 330.4152 
L 189.96696 330.4152 
L 193.01544 330.4152 
L 196.06392 330.4152 
L 199.1124 330.4152 
L 202.16088 330.4152 
L 205.20936 330.4152 
L 208.25784 330.4152 
L 211.30632 330.4152 
L 214.3548 330.4152 
L 217.40328 330.4152 
L 220.45176 330.4152 
L 223.50024 330.4152 
L 226.54872 330.4152 
L 226.54872 327.7704 
L 226.54872 325.1256 
L 226.54872 322.4808 
L 226.54872 319.836 
L 226.54872 317.1912 
L 226.54872 314.5464 
L 226.54872 311.9016 
L 226.54872 309.2568 
L 226.54872 306.612 
L 226.54872 303.9672 
L 226.54872 301.3224 
L 226.54872 298.6776 
L 226.54872 296.0328 
L 226.54872 293.388 
L 226.54872 290.7432 
L 226.54872 288.0984 
L 226.54872 285.4536 
L 226.54872 282.8088 
L 226.54872 280.164 
L 226.54872 277.5192 
L 226.54872 274.8744 
L 226.54872 272.2296 
L 226.54872 269.5848 
L 226.54872 266.94 
L 226.54872 264.2952 
L 226.54872 261.6504 
L 226.54872 259.0056 
L 226.54872 256.3608 
L 226.54872 253.716 
L 226.54872 251.0712 
L 226.54872 248.4264 
L 226.54872 245.7816 
L 226.54872 243.1368 
L 226.54872 240.492 
L 226.54872 237.8472 
L 226.54872 235.2024 
L 226.54872 232.5576 
L 226.54872 229.9128 
L 226.54872 227.268 
L 226.54872 224.6232 
L 226.54872 221.9784 
L 226.54872 219.3336 
L 226.54872 216.6888 
L 226.54872 214.044 
L 226.54872 211.3992 
L 226.54872 208.7544 
L 226.54872 206.1096 
L 226.54872 203.4648 
L 226.54872 200.82 
L 226.54872 198.1752 
L 226.54872 195.5304 
L 226.54872 192.8856 
L 226.54872 190.2408 
L 223.50024 190.2408 
L 220.45176 190.2408 
L 217.40328 190.2408 
L 214.3548 190.2408 
L 211.30632 190.2408 
L 208.25784 190.2408 
L 205.20936 190.2408 
L 202.16088 190.2408 
L 199.1124 190.2408 
L 196.06392 190.2408 
L 193.01544 190.2408 
L 189.96696 190.2408 
L 186.91848 190.2408 
L 183.87 190.2408 
L 180.82152 190.2408 
L 177.77304 190.2408 
L 174.72456 190.2408 
L 171.67608 190.2408 
L 168.6276 190.2408 
L 165.57912 190.2408 
L 162.53064 190.2408 
L 159.48216 190.2408 
L 156.43368 190.2408 
L 153.3852 190.2408 
L 150.33672 190.2408 
L 147.28824 190.2408 
L 144.23976 190.2408 
L 141.19128 190.2408 
L 138.1428 190.2408 
L 135.09432 190.2408 
L 132.04584 190.2408 
L 128.99736 190.2408 
L 125.94888 190.2408 
L 122.9004 190.2408 
L 119.85192 190.2408 
L 116.80344 190.2408 
L 113.75496 190.2408 
L 110.70648 190.2408 
L 107.658 190.2408 
L 104.60952 190.2408 
L 101.56104 190.2408 
L 98.51256 190.2408 
L 95.46408 190.2408 
L 92.4156 190.2408 
L 89.36712 190.2408 
L 86.31864 190.2408 
L 83.27016 190.2408 
L 80.22168 190.2408 
L 77.1732 190.2408 
L 74.12472 190.2408 
L 71.07624 190.2408 
L 68.02776 190.2408 
L 64.97928 190.2408 
L 64.97928 192.8856 
L 64.97928 195.5304 
L 64.97928 198.1752 
L 64.97928 200.82 
L 64.97928 203.4648 
L 64.97928 206.1096 
L 64.97928 208.7544 
L 64.97928 211.3992 
L 64.97928 214.044 
L 64.97928 216.6888 
L 64.97928 219.3336 
L 64.97928 221.9784 
L 64.97928 224.6232 
L 64.97928 227.268 
L 64.97928 229.9128 
L 64.97928 232.5576 
L 64.97928 235.2024 
L 64.97928 237.8472 
L 64.97928 240.492 
L 64.97928 243.1368 
L 64.97928 245.7816 
L 64.97928 248.4264 
L 64.97928 251.0712 
L 64.97928 253.716 
L 64.97928 256.3608 
L 64.97928 259.0056 
L 64.97928 261.6504 
L 64.97928 264.2952 
L 64.97928 266.94 
L 64.97928 269.5848 
L 64.97928 272.2296 
L 64.97928 274.8744 
L 64.97928 277.5192 
L 64.97928 280.164 
L 64.97928 282.8088 
L 64.97928 285.4536 
L 64.97928 288.0984 
L 64.97928 290.7432 
L 64.97928 293.388 
L 64.97928 296.0328 
L 64.97928 298.6776 
L 64.97928 301.3224 
L 64.97928 303.9672 
L 64.97928 306.612 
L 64.97928 309.2568 
L 64.97928 311.9016 
L 64.97928 314.5464 
L 64.97928 317.1912 
L 64.97928 319.836 
L 64.97928 322.4808 
L 64.97928 325.1256 
L 64.97928 327.7704 
L 64.97928 330.4152 
L 68.02776 330.4152 
z
M 105.370084 327.7704 
L 105.370084 325.1256 
L 104.60952 323.650826 
L 104.044737 322.4808 
L 102.967648 319.836 
L 102.415046 317.1912 
L 102.144702 314.5464 
L 102.374823 311.9016 
L 103.675007 309.2568 
L 104.219894 306.612 
L 103.443879 303.9672 
L 103.25801 301.3224 
L 103.312089 298.6776 
L 102.966609 296.0328 
L 102.770573 293.388 
L 103.719503 290.7432 
L 104.60952 289.130431 
L 104.921027 288.0984 
L 105.036747 285.4536 
L 104.760206 282.8088 
L 104.754787 280.164 
L 105.535725 277.5192 
L 105.846862 274.8744 
L 105.231602 272.2296 
L 104.60952 271.067138 
L 103.460507 269.5848 
L 101.744387 266.94 
L 101.56104 265.253916 
L 101.454729 264.2952 
L 101.56104 263.767644 
L 101.908734 261.6504 
L 102.89149 259.0056 
L 104.60952 256.702443 
L 104.936381 256.3608 
L 106.213068 253.716 
L 106.05236 251.0712 
L 105.953104 248.4264 
L 106.508446 245.7816 
L 107.431232 243.1368 
L 106.907216 240.492 
L 105.439623 237.8472 
L 105.104105 235.2024 
L 104.635525 232.5576 
L 104.60952 232.449574 
L 103.920116 229.9128 
L 104.27956 227.268 
L 104.60952 225.25796 
L 104.696229 224.6232 
L 104.60952 224.200205 
L 104.019756 221.9784 
L 103.083847 219.3336 
L 102.62881 216.6888 
L 102.388784 214.044 
L 102.323806 211.3992 
L 102.561368 208.7544 
L 102.723105 206.1096 
L 103.651787 203.4648 
L 104.60952 202.973145 
L 107.658 200.82 
L 107.658 200.82 
L 110.70648 199.614056 
L 113.75496 199.661305 
L 116.80344 200.165882 
L 119.85192 200.581481 
L 122.317156 200.82 
L 122.9004 200.856159 
L 125.94888 201.11327 
L 128.99736 201.279783 
L 132.04584 201.389189 
L 135.09432 201.727276 
L 138.1428 202.510192 
L 141.19128 203.431961 
L 141.388547 203.4648 
L 144.23976 203.850581 
L 147.28824 204.156049 
L 150.33672 205.065783 
L 151.947461 206.1096 
L 153.3852 206.798991 
L 156.43368 208.307287 
L 157.722358 208.7544 
L 159.48216 209.24335 
L 162.53064 210.443454 
L 163.770015 211.3992 
L 165.57912 213.823882 
L 165.832974 214.044 
L 167.971398 216.6888 
L 168.6276 217.367234 
L 170.025423 219.3336 
L 171.306605 221.9784 
L 171.604694 224.6232 
L 171.67608 225.27885 
L 171.939685 227.268 
L 172.738249 229.9128 
L 173.713794 232.5576 
L 174.493944 235.2024 
L 174.72456 237.692774 
L 174.746968 237.8472 
L 175.563016 240.492 
L 175.758733 243.1368 
L 175.066431 245.7816 
L 174.72456 247.187718 
L 174.536079 248.4264 
L 174.415057 251.0712 
L 174.72456 252.489466 
L 175.092592 253.716 
L 175.810542 256.3608 
L 175.785641 259.0056 
L 175.952995 261.6504 
L 176.818912 264.2952 
L 177.615 266.94 
L 177.669866 269.5848 
L 177.133062 272.2296 
L 176.879718 274.8744 
L 176.83685 277.5192 
L 176.511307 280.164 
L 176.174177 282.8088 
L 175.814539 285.4536 
L 175.674903 288.0984 
L 175.701645 290.7432 
L 175.781965 293.388 
L 176.225101 296.0328 
L 176.910294 298.6776 
L 177.418095 301.3224 
L 176.399099 303.9672 
L 174.72456 306.015908 
L 174.105635 306.612 
L 173.303795 309.2568 
L 173.842212 311.9016 
L 174.047414 314.5464 
L 174.654044 317.1912 
L 174.72456 317.409871 
L 175.712328 319.836 
L 175.668886 322.4808 
L 174.72456 324.388431 
L 174.448589 325.1256 
L 174.448589 327.7704 
L 171.67608 328.51407 
L 168.6276 329.114208 
L 165.57912 329.486201 
L 162.53064 329.662494 
L 159.48216 329.816667 
L 156.43368 329.964491 
L 153.3852 330.059623 
L 150.33672 330.102787 
L 147.28824 330.102397 
L 144.23976 330.107392 
L 141.19128 330.125897 
L 138.1428 330.113943 
L 135.09432 330.065732 
L 132.04584 330.017705 
L 128.99736 329.995347 
L 125.94888 329.986273 
L 122.9004 329.945952 
L 119.85192 329.820997 
L 116.80344 329.579921 
L 113.75496 329.220732 
L 110.70648 328.822984 
L 107.658 328.299903 
L 105.370084 327.7704 
z
" clip-path="url(#p8976a2e032)" style="fill: none"/>
    <path d="M 107.658 328.299903 
L 110.70648 328.822984 
L 113.75496 329.220732 
L 116.80344 329.579921 
L 119.85192 329.820997 
L 122.9004 329.945952 
L 125.94888 329.986273 
L 128.99736 329.995347 
L 132.04584 330.017705 
L 135.09432 330.065732 
L 138.1428 330.113943 
L 141.19128 330.125897 
L 144.23976 330.107392 
L 147.28824 330.102397 
L 150.33672 330.102787 
L 153.3852 330.059623 
L 156.43368 329.964491 
L 159.48216 329.816667 
L 162.53064 329.662494 
L 165.57912 329.486201 
L 168.6276 329.114208 
L 171.67608 328.51407 
L 174.448589 327.7704 
L 174.448589 325.1256 
L 174.72456 324.388431 
L 175.668886 322.4808 
L 175.712328 319.836 
L 174.72456 317.409871 
L 174.654044 317.1912 
L 174.047414 314.5464 
L 173.842212 311.9016 
L 173.303795 309.2568 
L 174.105635 306.612 
L 174.72456 306.015908 
L 176.399099 303.9672 
L 177.418095 301.3224 
L 176.910294 298.6776 
L 176.225101 296.0328 
L 175.781965 293.388 
L 175.701645 290.7432 
L 175.674903 288.0984 
L 175.814539 285.4536 
L 176.174177 282.8088 
L 176.511307 280.164 
L 176.83685 277.5192 
L 176.879718 274.8744 
L 177.133062 272.2296 
L 177.669866 269.5848 
L 177.615 266.94 
L 176.818912 264.2952 
L 175.952995 261.6504 
L 175.785641 259.0056 
L 175.810542 256.3608 
L 175.092592 253.716 
L 174.72456 252.489466 
L 174.415057 251.0712 
L 174.536079 248.4264 
L 174.72456 247.187718 
L 175.066431 245.7816 
L 175.758733 243.1368 
L 175.563016 240.492 
L 174.746968 237.8472 
L 174.72456 237.692774 
L 174.493944 235.2024 
L 173.713794 232.5576 
L 172.738249 229.9128 
L 171.939685 227.268 
L 171.67608 225.27885 
L 171.604694 224.6232 
L 171.306605 221.9784 
L 170.025423 219.3336 
L 168.6276 217.367234 
L 167.971398 216.6888 
L 165.832974 214.044 
L 165.57912 213.823882 
L 163.770015 211.3992 
L 162.53064 210.443454 
L 159.48216 209.24335 
L 157.722358 208.7544 
L 156.43368 208.307287 
L 153.3852 206.798991 
L 151.947461 206.1096 
L 150.33672 205.065783 
L 147.28824 204.156049 
L 144.23976 203.850581 
L 141.388547 203.4648 
L 141.19128 203.431961 
L 138.1428 202.510192 
L 135.09432 201.727276 
L 132.04584 201.389189 
L 128.99736 201.279783 
L 125.94888 201.11327 
L 122.9004 200.856159 
L 122.317156 200.82 
L 119.85192 200.581481 
L 116.80344 200.165882 
L 113.75496 199.661305 
L 110.70648 199.614056 
L 107.658 200.82 
L 107.658 200.82 
L 104.60952 202.973145 
L 103.651787 203.4648 
L 102.723105 206.1096 
L 102.561368 208.7544 
L 102.323806 211.3992 
L 102.388784 214.044 
L 102.62881 216.6888 
L 103.083847 219.3336 
L 104.019756 221.9784 
L 104.60952 224.200205 
L 104.696229 224.6232 
L 104.60952 225.25796 
L 104.27956 227.268 
L 103.920116 229.9128 
L 104.60952 232.449574 
L 104.635525 232.5576 
L 105.104105 235.2024 
L 105.439623 237.8472 
L 106.907216 240.492 
L 107.431232 243.1368 
L 106.508446 245.7816 
L 105.953104 248.4264 
L 106.05236 251.0712 
L 106.213068 253.716 
L 104.936381 256.3608 
L 104.60952 256.702443 
L 102.89149 259.0056 
L 101.908734 261.6504 
L 101.56104 263.767644 
L 101.454729 264.2952 
L 101.56104 265.253916 
L 101.744387 266.94 
L 103.460507 269.5848 
L 104.60952 271.067138 
L 105.231602 272.2296 
L 105.846862 274.8744 
L 105.535725 277.5192 
L 104.754787 280.164 
L 104.760206 282.8088 
L 105.036747 285.4536 
L 104.921027 288.0984 
L 104.60952 289.130431 
L 103.719503 290.7432 
L 102.770573 293.388 
L 102.966609 296.0328 
L 103.312089 298.6776 
L 103.25801 301.3224 
L 103.443879 303.9672 
L 104.219894 306.612 
L 103.675007 309.2568 
L 102.374823 311.9016 
L 102.144702 314.5464 
L 102.415046 317.1912 
L 102.967648 319.836 
L 104.044737 322.4808 
L 104.60952 323.650826 
L 105.370084 325.1256 
L 105.370084 327.7704 
z
M 120.734818 327.7704 
L 120.734818 325.1256 
L 121.360213 322.4808 
L 120.927884 319.836 
L 120.387516 317.1912 
L 120.043127 314.5464 
L 119.85192 311.9016 
L 120.188916 309.2568 
L 120.213322 306.612 
L 119.996145 303.9672 
L 120.298867 301.3224 
L 120.451838 298.6776 
L 120.16273 296.0328 
L 119.950726 293.388 
L 119.85192 292.430552 
L 119.675304 290.7432 
L 119.358573 288.0984 
L 119.346577 285.4536 
L 119.806646 282.8088 
L 119.85192 282.546214 
L 120.338692 280.164 
L 121.082398 277.5192 
L 121.481762 274.8744 
L 120.969124 272.2296 
L 120.722986 269.5848 
L 121.306141 266.94 
L 122.105085 264.2952 
L 122.556282 261.6504 
L 122.9004 260.335106 
L 123.290605 259.0056 
L 123.057288 256.3608 
L 122.9004 255.73217 
L 122.394282 253.716 
L 122.387939 251.0712 
L 122.80635 248.4264 
L 122.9004 246.64752 
L 122.947691 245.7816 
L 122.9004 245.545614 
L 122.353908 243.1368 
L 122.431639 240.492 
L 122.814113 237.8472 
L 122.729897 235.2024 
L 122.727539 232.5576 
L 122.9004 230.26515 
L 122.929431 229.9128 
L 122.9004 229.601043 
L 122.594755 227.268 
L 121.65002 224.6232 
L 121.770766 221.9784 
L 122.9004 221.048622 
L 124.033377 219.3336 
L 125.522543 216.6888 
L 125.889305 214.044 
L 125.94888 213.878537 
L 126.806639 211.3992 
L 128.99736 209.546658 
L 132.04584 208.876357 
L 135.09432 210.139346 
L 137.977391 211.3992 
L 138.1428 211.464264 
L 141.19128 212.10677 
L 144.23976 213.177483 
L 146.123044 214.044 
L 147.28824 214.690727 
L 150.33672 215.727926 
L 152.20096 216.6888 
L 153.3852 217.726734 
L 154.360448 219.3336 
L 155.015946 221.9784 
L 155.701555 224.6232 
L 156.070503 227.268 
L 155.95601 229.9128 
L 156.154092 232.5576 
L 156.268888 235.2024 
L 156.387763 237.8472 
L 156.43368 238.521148 
L 156.591428 240.492 
L 156.86753 243.1368 
L 157.518372 245.7816 
L 158.24832 248.4264 
L 157.981673 251.0712 
L 157.276456 253.716 
L 157.825916 256.3608 
L 158.269209 259.0056 
L 158.286633 261.6504 
L 158.085568 264.2952 
L 157.691344 266.94 
L 157.776671 269.5848 
L 157.436113 272.2296 
L 156.961163 274.8744 
L 157.349585 277.5192 
L 158.402461 280.164 
L 159.274667 282.8088 
L 159.48216 284.296245 
L 159.607515 285.4536 
L 159.637704 288.0984 
L 159.48216 289.532316 
L 159.33747 290.7432 
L 158.963801 293.388 
L 158.370359 296.0328 
L 157.533681 298.6776 
L 157.308791 301.3224 
L 157.37444 303.9672 
L 157.11434 306.612 
L 157.548529 309.2568 
L 158.727786 311.9016 
L 159.021838 314.5464 
L 158.475407 317.1912 
L 158.246157 319.836 
L 158.336481 322.4808 
L 158.692383 325.1256 
L 158.692383 327.7704 
L 156.43368 328.254376 
L 153.3852 328.710466 
L 150.33672 328.917406 
L 147.28824 328.915539 
L 144.23976 328.939483 
L 141.19128 329.028203 
L 138.1428 328.97089 
L 135.09432 328.739757 
L 132.04584 328.509499 
L 128.99736 328.402309 
L 125.94888 328.358808 
L 122.9004 328.165498 
z
" clip-path="url(#p8976a2e032)" style="fill: #bf00bf; fill-opacity: 0.333333"/>
    <path d="M 122.9004 328.165498 
L 125.94888 328.358808 
L 128.99736 328.402309 
L 132.04584 328.509499 
L 135.09432 328.739757 
L 138.1428 328.97089 
L 141.19128 329.028203 
L 144.23976 328.939483 
L 147.28824 328.915539 
L 150.33672 328.917406 
L 153.3852 328.710466 
L 156.43368 328.254376 
L 158.692383 327.7704 
L 158.692383 325.1256 
L 158.336481 322.4808 
L 158.246157 319.836 
L 158.475407 317.1912 
L 159.021838 314.5464 
L 158.727786 311.9016 
L 157.548529 309.2568 
L 157.11434 306.612 
L 157.37444 303.9672 
L 157.308791 301.3224 
L 157.533681 298.6776 
L 158.370359 296.0328 
L 158.963801 293.388 
L 159.33747 290.7432 
L 159.48216 289.532316 
L 159.637704 288.0984 
L 159.607515 285.4536 
L 159.48216 284.296245 
L 159.274667 282.8088 
L 158.402461 280.164 
L 157.349585 277.5192 
L 156.961163 274.8744 
L 157.436113 272.2296 
L 157.776671 269.5848 
L 157.691344 266.94 
L 158.085568 264.2952 
L 158.286633 261.6504 
L 158.269209 259.0056 
L 157.825916 256.3608 
L 157.276456 253.716 
L 157.981673 251.0712 
L 158.24832 248.4264 
L 157.518372 245.7816 
L 156.86753 243.1368 
L 156.591428 240.492 
L 156.43368 238.521148 
L 156.387763 237.8472 
L 156.268888 235.2024 
L 156.154092 232.5576 
L 155.95601 229.9128 
L 156.070503 227.268 
L 155.701555 224.6232 
L 155.015946 221.9784 
L 154.360448 219.3336 
L 153.3852 217.726734 
L 152.20096 216.6888 
L 150.33672 215.727926 
L 147.28824 214.690727 
L 146.123044 214.044 
L 144.23976 213.177483 
L 141.19128 212.10677 
L 138.1428 211.464264 
L 137.977391 211.3992 
L 135.09432 210.139346 
L 132.04584 208.876357 
L 128.99736 209.546658 
L 126.806639 211.3992 
L 125.94888 213.878537 
L 125.889305 214.044 
L 125.522543 216.6888 
L 124.033377 219.3336 
L 122.9004 221.048622 
L 121.770766 221.9784 
L 121.65002 224.6232 
L 122.594755 227.268 
L 122.9004 229.601043 
L 122.929431 229.9128 
L 122.9004 230.26515 
L 122.727539 232.5576 
L 122.729897 235.2024 
L 122.814113 237.8472 
L 122.431639 240.492 
L 122.353908 243.1368 
L 122.9004 245.545614 
L 122.947691 245.7816 
L 122.9004 246.64752 
L 122.80635 248.4264 
L 122.387939 251.0712 
L 122.394282 253.716 
L 122.9004 255.73217 
L 123.057288 256.3608 
L 123.290605 259.0056 
L 122.9004 260.335106 
L 122.556282 261.6504 
L 122.105085 264.2952 
L 121.306141 266.94 
L 120.722986 269.5848 
L 120.969124 272.2296 
L 121.481762 274.8744 
L 121.082398 277.5192 
L 120.338692 280.164 
L 119.85192 282.546214 
L 119.806646 282.8088 
L 119.346577 285.4536 
L 119.358573 288.0984 
L 119.675304 290.7432 
L 119.85192 292.430552 
L 119.950726 293.388 
L 120.16273 296.0328 
L 120.451838 298.6776 
L 120.298867 301.3224 
L 119.996145 303.9672 
L 120.213322 306.612 
L 120.188916 309.2568 
L 119.85192 311.9016 
L 120.043127 314.5464 
L 120.387516 317.1912 
L 120.927884 319.836 
L 121.360213 322.4808 
L 120.734818 325.1256 
L 120.734818 327.7704 
z
" clip-path="url(#p8976a2e032)" style="fill: #bf00bf"/>
   </g>
   <g id="matplotlib.axis_5">
    <g id="xtick_6">
     <g id="line2d_7">
      <g>
       <use xlink:href="#m49124001ba" x="72.551373" y="326.448" style="stroke: #000000; stroke-width: 0.8"/>
      </g>
     </g>
     <g id="text_2">
      <!-- 0.275 -->
      <g transform="translate(64.380975 359.064048) rotate(-45) scale(0.1 -0.1)">
       <defs>
        <path id="DejaVuSans-37" d="M 525 4666 
L 3525 4666 
L 3525 4397 
L 1831 0 
L 1172 0 
L 2766 4134 
L 525 4134 
L 525 4666 
z
" transform="scale(0.015625)"/>
        <path id="DejaVuSans-35" d="M 691 4666 
L 3169 4666 
L 3169 4134 
L 1269 4134 
L 1269 2991 
Q 1406 3038 1543 3061 
Q 1681 3084 1819 3084 
Q 2600 3084 3056 2656 
Q 3513 2228 3513 1497 
Q 3513 744 3044 326 
Q 2575 -91 1722 -91 
Q 1428 -91 1123 -41 
Q 819 9 494 109 
L 494 744 
Q 775 591 1075 516 
Q 1375 441 1709 441 
Q 2250 441 2565 725 
Q 2881 1009 2881 1497 
Q 2881 1984 2565 2268 
Q 2250 2553 1709 2553 
Q 1456 2553 1204 2497 
Q 953 2441 691 2322 
L 691 4666 
z
" transform="scale(0.015625)"/>
       </defs>
       <use xlink:href="#DejaVuSans-30"/>
       <use xlink:href="#DejaVuSans-2e" x="63.623047"/>
       <use xlink:href="#DejaVuSans-32" x="95.410156"/>
       <use xlink:href="#DejaVuSans-37" x="159.033203"/>
       <use xlink:href="#DejaVuSans-35" x="222.65625"/>
      </g>
     </g>
    </g>
    <g id="xtick_7">
     <g id="line2d_8">
      <g>
       <use xlink:href="#m49124001ba" x="105.92103" y="326.448" style="stroke: #000000; stroke-width: 0.8"/>
      </g>
     </g>
     <g id="text_3">
      <!-- 0.300 -->
      <g transform="translate(97.750632 359.064048) rotate(-45) scale(0.1 -0.1)">
       <use xlink:href="#DejaVuSans-30"/>
       <use xlink:href="#DejaVuSans-2e" x="63.623047"/>
       <use xlink:href="#DejaVuSans-33" x="95.410156"/>
       <use xlink:href="#DejaVuSans-30" x="159.033203"/>
       <use xlink:href="#DejaVuSans-30" x="222.65625"/>
      </g>
     </g>
    </g>
    <g id="xtick_8">
     <g id="line2d_9">
      <g>
       <use xlink:href="#m49124001ba" x="139.290687" y="326.448" style="stroke: #000000; stroke-width: 0.8"/>
      </g>
     </g>
     <g id="text_4">
      <!-- 0.325 -->
      <g transform="translate(131.120289 359.064048) rotate(-45) scale(0.1 -0.1)">
       <use xlink:href="#DejaVuSans-30"/>
       <use xlink:href="#DejaVuSans-2e" x="63.623047"/>
       <use xlink:href="#DejaVuSans-33" x="95.410156"/>
       <use xlink:href="#DejaVuSans-32" x="159.033203"/>
       <use xlink:href="#DejaVuSans-35" x="222.65625"/>
      </g>
     </g>
    </g>
    <g id="xtick_9">
     <g id="line2d_10">
      <g>
       <use xlink:href="#m49124001ba" x="172.660344" y="326.448" style="stroke: #000000; stroke-width: 0.8"/>
      </g>
     </g>
     <g id="text_5">
      <!-- 0.350 -->
      <g transform="translate(164.489947 359.064048) rotate(-45) scale(0.1 -0.1)">
       <use xlink:href="#DejaVuSans-30"/>
       <use xlink:href="#DejaVuSans-2e" x="63.623047"/>
       <use xlink:href="#DejaVuSans-33" x="95.410156"/>
       <use xlink:href="#DejaVuSans-35" x="159.033203"/>
       <use xlink:href="#DejaVuSans-30" x="222.65625"/>
      </g>
     </g>
    </g>
    <g id="xtick_10">
     <g id="line2d_11">
      <g>
       <use xlink:href="#m49124001ba" x="206.030002" y="326.448" style="stroke: #000000; stroke-width: 0.8"/>
      </g>
     </g>
     <g id="text_6">
      <!-- 0.375 -->
      <g transform="translate(197.859604 359.064048) rotate(-45) scale(0.1 -0.1)">
       <use xlink:href="#DejaVuSans-30"/>
       <use xlink:href="#DejaVuSans-2e" x="63.623047"/>
       <use xlink:href="#DejaVuSans-33" x="95.410156"/>
       <use xlink:href="#DejaVuSans-37" x="159.033203"/>
       <use xlink:href="#DejaVuSans-35" x="222.65625"/>
      </g>
     </g>
    </g>
    <g id="text_7">
     <!-- $\Omega_{2,0}$ -->
     <g transform="translate(135.464 373.52) scale(0.1 -0.1)">
      <use xlink:href="#DejaVuSans-3a9" transform="translate(0 0.21875)"/>
      <use xlink:href="#DejaVuSans-32" transform="translate(77.373047 -16.1875) scale(0.7)"/>
      <use xlink:href="#DejaVuSans-2c" transform="translate(121.90918 -16.1875) scale(0.7)"/>
      <use xlink:href="#DejaVuSans-30" transform="translate(157.797852 -16.1875) scale(0.7)"/>
     </g>
    </g>
   </g>
   <g id="matplotlib.axis_6">
    <g id="ytick_1">
     <g id="line2d_12">
      <defs>
       <path id="mf6d63eb43c" d="M 0 0 
L -3.5 0 
" style="stroke: #000000; stroke-width: 0.8"/>
      </defs>
      <g>
       <use xlink:href="#mf6d63eb43c" x="69.552" y="291.649666" style="stroke: #000000; stroke-width: 0.8"/>
      </g>
     </g>
     <g id="text_8">
      <!-- −8 -->
      <g transform="translate(50.657138 303.647654) rotate(-45) scale(0.1 -0.1)">
       <use xlink:href="#DejaVuSans-2212"/>
       <use xlink:href="#DejaVuSans-38" x="83.789062"/>
      </g>
     </g>
    </g>
    <g id="ytick_2">
     <g id="line2d_13">
      <g>
       <use xlink:href="#mf6d63eb43c" x="69.552" y="256.8486" style="stroke: #000000; stroke-width: 0.8"/>
      </g>
     </g>
     <g id="text_9">
      <!-- −6 -->
      <g transform="translate(50.657138 268.846589) rotate(-45) scale(0.1 -0.1)">
       <use xlink:href="#DejaVuSans-2212"/>
       <use xlink:href="#DejaVuSans-36" x="83.789062"/>
      </g>
     </g>
    </g>
    <g id="ytick_3">
     <g id="line2d_14">
      <g>
       <use xlink:href="#mf6d63eb43c" x="69.552" y="222.047534" style="stroke: #000000; stroke-width: 0.8"/>
      </g>
     </g>
     <g id="text_10">
      <!-- −4 -->
      <g transform="translate(50.657138 234.045523) rotate(-45) scale(0.1 -0.1)">
       <use xlink:href="#DejaVuSans-2212"/>
       <use xlink:href="#DejaVuSans-34" x="83.789062"/>
      </g>
     </g>
    </g>
    <g id="text_11">
     <!-- $\log_{10}(\kappa C_1/$Gyr${}^{-1})$ -->
     <g transform="translate(21.7248 302.028) rotate(-90) scale(0.1 -0.1)">
      <defs>
       <path id="DejaVuSans-6c" d="M 603 4863 
L 1178 4863 
L 1178 0 
L 603 0 
L 603 4863 
z
" transform="scale(0.015625)"/>
       <path id="DejaVuSans-6f" d="M 1959 3097 
Q 1497 3097 1228 2736 
Q 959 2375 959 1747 
Q 959 1119 1226 758 
Q 1494 397 1959 397 
Q 2419 397 2687 759 
Q 2956 1122 2956 1747 
Q 2956 2369 2687 2733 
Q 2419 3097 1959 3097 
z
M 1959 3584 
Q 2709 3584 3137 3096 
Q 3566 2609 3566 1747 
Q 3566 888 3137 398 
Q 2709 -91 1959 -91 
Q 1206 -91 779 398 
Q 353 888 353 1747 
Q 353 2609 779 3096 
Q 1206 3584 1959 3584 
z
" transform="scale(0.015625)"/>
       <path id="DejaVuSans-67" d="M 2906 1791 
Q 2906 2416 2648 2759 
Q 2391 3103 1925 3103 
Q 1463 3103 1205 2759 
Q 947 2416 947 1791 
Q 947 1169 1205 825 
Q 1463 481 1925 481 
Q 2391 481 2648 825 
Q 2906 1169 2906 1791 
z
M 3481 434 
Q 3481 -459 3084 -895 
Q 2688 -1331 1869 -1331 
Q 1566 -1331 1297 -1286 
Q 1028 -1241 775 -1147 
L 775 -588 
Q 1028 -725 1275 -790 
Q 1522 -856 1778 -856 
Q 2344 -856 2625 -561 
Q 2906 -266 2906 331 
L 2906 616 
Q 2728 306 2450 153 
Q 2172 0 1784 0 
Q 1141 0 747 490 
Q 353 981 353 1791 
Q 353 2603 747 3093 
Q 1141 3584 1784 3584 
Q 2172 3584 2450 3431 
Q 2728 3278 2906 2969 
L 2906 3500 
L 3481 3500 
L 3481 434 
z
" transform="scale(0.015625)"/>
       <path id="DejaVuSans-28" d="M 1984 4856 
Q 1566 4138 1362 3434 
Q 1159 2731 1159 2009 
Q 1159 1288 1364 580 
Q 1569 -128 1984 -844 
L 1484 -844 
Q 1016 -109 783 600 
Q 550 1309 550 2009 
Q 550 2706 781 3412 
Q 1013 4119 1484 4856 
L 1984 4856 
z
" transform="scale(0.015625)"/>
       <path id="DejaVuSans-Oblique-3ba" d="M 938 3500 
L 1531 3500 
L 1247 2047 
L 3041 3500 
L 3741 3500 
L 2106 2181 
L 3275 0 
L 2572 0 
L 1628 1806 
L 1122 1403 
L 850 0 
L 256 0 
L 938 3500 
z
" transform="scale(0.015625)"/>
       <path id="DejaVuSans-Oblique-43" d="M 4447 4306 
L 4319 3641 
Q 4019 3944 3683 4091 
Q 3347 4238 2956 4238 
Q 2422 4238 2017 3981 
Q 1613 3725 1319 3200 
Q 1131 2863 1032 2486 
Q 934 2109 934 1728 
Q 934 1091 1264 756 
Q 1594 422 2222 422 
Q 2656 422 3056 561 
Q 3456 700 3834 978 
L 3688 231 
Q 3316 72 2936 -9 
Q 2556 -91 2175 -91 
Q 1278 -91 773 396 
Q 269 884 269 1753 
Q 269 2309 461 2846 
Q 653 3384 1013 3828 
Q 1394 4300 1883 4525 
Q 2372 4750 3022 4750 
Q 3422 4750 3780 4639 
Q 4138 4528 4447 4306 
z
" transform="scale(0.015625)"/>
       <path id="DejaVuSans-2f" d="M 1625 4666 
L 2156 4666 
L 531 -594 
L 0 -594 
L 1625 4666 
z
" transform="scale(0.015625)"/>
       <path id="DejaVuSans-47" d="M 3809 666 
L 3809 1919 
L 2778 1919 
L 2778 2438 
L 4434 2438 
L 4434 434 
Q 4069 175 3628 42 
Q 3188 -91 2688 -91 
Q 1594 -91 976 548 
Q 359 1188 359 2328 
Q 359 3472 976 4111 
Q 1594 4750 2688 4750 
Q 3144 4750 3555 4637 
Q 3966 4525 4313 4306 
L 4313 3634 
Q 3963 3931 3569 4081 
Q 3175 4231 2741 4231 
Q 1884 4231 1454 3753 
Q 1025 3275 1025 2328 
Q 1025 1384 1454 906 
Q 1884 428 2741 428 
Q 3075 428 3337 486 
Q 3600 544 3809 666 
z
" transform="scale(0.015625)"/>
       <path id="DejaVuSans-79" d="M 2059 -325 
Q 1816 -950 1584 -1140 
Q 1353 -1331 966 -1331 
L 506 -1331 
L 506 -850 
L 844 -850 
Q 1081 -850 1212 -737 
Q 1344 -625 1503 -206 
L 1606 56 
L 191 3500 
L 800 3500 
L 1894 763 
L 2988 3500 
L 3597 3500 
L 2059 -325 
z
" transform="scale(0.015625)"/>
       <path id="DejaVuSans-72" d="M 2631 2963 
Q 2534 3019 2420 3045 
Q 2306 3072 2169 3072 
Q 1681 3072 1420 2755 
Q 1159 2438 1159 1844 
L 1159 0 
L 581 0 
L 581 3500 
L 1159 3500 
L 1159 2956 
Q 1341 3275 1631 3429 
Q 1922 3584 2338 3584 
Q 2397 3584 2469 3576 
Q 2541 3569 2628 3553 
L 2631 2963 
z
" transform="scale(0.015625)"/>
       <path id="DejaVuSans-29" d="M 513 4856 
L 1013 4856 
Q 1481 4119 1714 3412 
Q 1947 2706 1947 2009 
Q 1947 1309 1714 600 
Q 1481 -109 1013 -844 
L 513 -844 
Q 928 -128 1133 580 
Q 1338 1288 1338 2009 
Q 1338 2731 1133 3434 
Q 928 4138 513 4856 
z
" transform="scale(0.015625)"/>
      </defs>
      <use xlink:href="#DejaVuSans-6c" transform="translate(0 0.684375)"/>
      <use xlink:href="#DejaVuSans-6f" transform="translate(27.783203 0.684375)"/>
      <use xlink:href="#DejaVuSans-67" transform="translate(88.964844 0.684375)"/>
      <use xlink:href="#DejaVuSans-31" transform="translate(153.398438 -15.721875) scale(0.7)"/>
      <use xlink:href="#DejaVuSans-30" transform="translate(197.93457 -15.721875) scale(0.7)"/>
      <use xlink:href="#DejaVuSans-28" transform="translate(261.440754 0.684375)"/>
      <use xlink:href="#DejaVuSans-Oblique-3ba" transform="translate(300.454426 0.684375)"/>
      <use xlink:href="#DejaVuSans-Oblique-43" transform="translate(359.389973 0.684375)"/>
      <use xlink:href="#DejaVuSans-31" transform="translate(429.214192 -15.721875) scale(0.7)"/>
      <use xlink:href="#DejaVuSans-2f" transform="translate(476.4847 0.684375)"/>
      <use xlink:href="#DejaVuSans-47" transform="translate(510.176106 0.684375)"/>
      <use xlink:href="#DejaVuSans-79" transform="translate(587.66634 0.684375)"/>
      <use xlink:href="#DejaVuSans-72" transform="translate(646.846028 0.684375)"/>
      <use xlink:href="#DejaVuSans-2212" transform="translate(688.91634 38.965625) scale(0.7)"/>
      <use xlink:href="#DejaVuSans-31" transform="translate(747.568684 38.965625) scale(0.7)"/>
      <use xlink:href="#DejaVuSans-29" transform="translate(794.839192 0.684375)"/>
     </g>
    </g>
   </g>
   <g id="QuadContourSet_3">
    <path d="M 107.658 328.299903 
L 110.70648 328.822984 
L 113.75496 329.220732 
L 116.80344 329.579921 
L 119.85192 329.820997 
L 122.9004 329.945952 
L 125.94888 329.986273 
L 128.99736 329.995347 
L 132.04584 330.017705 
L 135.09432 330.065732 
L 138.1428 330.113943 
L 141.19128 330.125897 
L 144.23976 330.107392 
L 147.28824 330.102397 
L 150.33672 330.102787 
L 153.3852 330.059623 
L 156.43368 329.964491 
L 159.48216 329.816667 
L 162.53064 329.662494 
L 165.57912 329.486201 
L 168.6276 329.114208 
L 171.67608 328.51407 
L 174.448589 327.7704 
L 174.448589 325.1256 
L 174.72456 324.388431 
L 175.668886 322.4808 
L 175.712328 319.836 
L 174.72456 317.409871 
L 174.654044 317.1912 
L 174.047414 314.5464 
L 173.842212 311.9016 
L 173.303795 309.2568 
L 174.105635 306.612 
L 174.72456 306.015908 
L 176.399099 303.9672 
L 177.418095 301.3224 
L 176.910294 298.6776 
L 176.225101 296.0328 
L 175.781965 293.388 
L 175.701645 290.7432 
L 175.674903 288.0984 
L 175.814539 285.4536 
L 176.174177 282.8088 
L 176.511307 280.164 
L 176.83685 277.5192 
L 176.879718 274.8744 
L 177.133062 272.2296 
L 177.669866 269.5848 
L 177.615 266.94 
L 176.818912 264.2952 
L 175.952995 261.6504 
L 175.785641 259.0056 
L 175.810542 256.3608 
L 175.092592 253.716 
L 174.72456 252.489466 
L 174.415057 251.0712 
L 174.536079 248.4264 
L 174.72456 247.187718 
L 175.066431 245.7816 
L 175.758733 243.1368 
L 175.563016 240.492 
L 174.746968 237.8472 
L 174.72456 237.692774 
L 174.493944 235.2024 
L 173.713794 232.5576 
L 172.738249 229.9128 
L 171.939685 227.268 
L 171.67608 225.27885 
L 171.604694 224.6232 
L 171.306605 221.9784 
L 170.025423 219.3336 
L 168.6276 217.367234 
L 167.971398 216.6888 
L 165.832974 214.044 
L 165.57912 213.823882 
L 163.770015 211.3992 
L 162.53064 210.443454 
L 159.48216 209.24335 
L 157.722358 208.7544 
L 156.43368 208.307287 
L 153.3852 206.798991 
L 151.947461 206.1096 
L 150.33672 205.065783 
L 147.28824 204.156049 
L 144.23976 203.850581 
L 141.388547 203.4648 
L 141.19128 203.431961 
L 138.1428 202.510192 
L 135.09432 201.727276 
L 132.04584 201.389189 
L 128.99736 201.279783 
L 125.94888 201.11327 
L 122.9004 200.856159 
L 122.317156 200.82 
L 119.85192 200.581481 
L 116.80344 200.165882 
L 113.75496 199.661305 
L 110.70648 199.614056 
L 107.658 200.82 
L 107.658 200.82 
L 104.60952 202.973145 
L 103.651787 203.4648 
L 102.723105 206.1096 
L 102.561368 208.7544 
L 102.323806 211.3992 
L 102.388784 214.044 
L 102.62881 216.6888 
L 103.083847 219.3336 
L 104.019756 221.9784 
L 104.60952 224.200205 
L 104.696229 224.6232 
L 104.60952 225.25796 
L 104.27956 227.268 
L 103.920116 229.9128 
L 104.60952 232.449574 
L 104.635525 232.5576 
L 105.104105 235.2024 
L 105.439623 237.8472 
L 106.907216 240.492 
L 107.431232 243.1368 
L 106.508446 245.7816 
L 105.953104 248.4264 
L 106.05236 251.0712 
L 106.213068 253.716 
L 104.936381 256.3608 
L 104.60952 256.702443 
L 102.89149 259.0056 
L 101.908734 261.6504 
L 101.56104 263.767644 
L 101.454729 264.2952 
L 101.56104 265.253916 
L 101.744387 266.94 
L 103.460507 269.5848 
L 104.60952 271.067138 
L 105.231602 272.2296 
L 105.846862 274.8744 
L 105.535725 277.5192 
L 104.754787 280.164 
L 104.760206 282.8088 
L 105.036747 285.4536 
L 104.921027 288.0984 
L 104.60952 289.130431 
L 103.719503 290.7432 
L 102.770573 293.388 
L 102.966609 296.0328 
L 103.312089 298.6776 
L 103.25801 301.3224 
L 103.443879 303.9672 
L 104.219894 306.612 
L 103.675007 309.2568 
L 102.374823 311.9016 
L 102.144702 314.5464 
L 102.415046 317.1912 
L 102.967648 319.836 
L 104.044737 322.4808 
L 104.60952 323.650826 
L 105.370084 325.1256 
L 105.370084 327.7704 
L 107.658 328.299903 
z
" clip-path="url(#p8976a2e032)" style="fill: none; stroke: #bf00bf; stroke-width: 1.5"/>
    <path d="M 122.9004 328.165498 
L 125.94888 328.358808 
L 128.99736 328.402309 
L 132.04584 328.509499 
L 135.09432 328.739757 
L 138.1428 328.97089 
L 141.19128 329.028203 
L 144.23976 328.939483 
L 147.28824 328.915539 
L 150.33672 328.917406 
L 153.3852 328.710466 
L 156.43368 328.254376 
L 158.692383 327.7704 
L 158.692383 325.1256 
L 158.336481 322.4808 
L 158.246157 319.836 
L 158.475407 317.1912 
L 159.021838 314.5464 
L 158.727786 311.9016 
L 157.548529 309.2568 
L 157.11434 306.612 
L 157.37444 303.9672 
L 157.308791 301.3224 
L 157.533681 298.6776 
L 158.370359 296.0328 
L 158.963801 293.388 
L 159.33747 290.7432 
L 159.48216 289.532316 
L 159.637704 288.0984 
L 159.607515 285.4536 
L 159.48216 284.296245 
L 159.274667 282.8088 
L 158.402461 280.164 
L 157.349585 277.5192 
L 156.961163 274.8744 
L 157.436113 272.2296 
L 157.776671 269.5848 
L 157.691344 266.94 
L 158.085568 264.2952 
L 158.286633 261.6504 
L 158.269209 259.0056 
L 157.825916 256.3608 
L 157.276456 253.716 
L 157.981673 251.0712 
L 158.24832 248.4264 
L 157.518372 245.7816 
L 156.86753 243.1368 
L 156.591428 240.492 
L 156.43368 238.521148 
L 156.387763 237.8472 
L 156.268888 235.2024 
L 156.154092 232.5576 
L 155.95601 229.9128 
L 156.070503 227.268 
L 155.701555 224.6232 
L 155.015946 221.9784 
L 154.360448 219.3336 
L 153.3852 217.726734 
L 152.20096 216.6888 
L 150.33672 215.727926 
L 147.28824 214.690727 
L 146.123044 214.044 
L 144.23976 213.177483 
L 141.19128 212.10677 
L 138.1428 211.464264 
L 137.977391 211.3992 
L 135.09432 210.139346 
L 132.04584 208.876357 
L 128.99736 209.546658 
L 126.806639 211.3992 
L 125.94888 213.878537 
L 125.889305 214.044 
L 125.522543 216.6888 
L 124.033377 219.3336 
L 122.9004 221.048622 
L 121.770766 221.9784 
L 121.65002 224.6232 
L 122.594755 227.268 
L 122.9004 229.601043 
L 122.929431 229.9128 
L 122.9004 230.26515 
L 122.727539 232.5576 
L 122.729897 235.2024 
L 122.814113 237.8472 
L 122.431639 240.492 
L 122.353908 243.1368 
L 122.9004 245.545614 
L 122.947691 245.7816 
L 122.9004 246.64752 
L 122.80635 248.4264 
L 122.387939 251.0712 
L 122.394282 253.716 
L 122.9004 255.73217 
L 123.057288 256.3608 
L 123.290605 259.0056 
L 122.9004 260.335106 
L 122.556282 261.6504 
L 122.105085 264.2952 
L 121.306141 266.94 
L 120.722986 269.5848 
L 120.969124 272.2296 
L 121.481762 274.8744 
L 121.082398 277.5192 
L 120.338692 280.164 
L 119.85192 282.546214 
L 119.806646 282.8088 
L 119.346577 285.4536 
L 119.358573 288.0984 
L 119.675304 290.7432 
L 119.85192 292.430552 
L 119.950726 293.388 
L 120.16273 296.0328 
L 120.451838 298.6776 
L 120.298867 301.3224 
L 119.996145 303.9672 
L 120.213322 306.612 
L 120.188916 309.2568 
L 119.85192 311.9016 
L 120.043127 314.5464 
L 120.387516 317.1912 
L 120.927884 319.836 
L 121.360213 322.4808 
L 120.734818 325.1256 
L 120.734818 327.7704 
L 122.9004 328.165498 
z
" clip-path="url(#p8976a2e032)" style="fill: none; stroke: #bf00bf; stroke-width: 1.5"/>
   </g>
   <g id="patch_8">
    <path d="M 69.552 326.448 
L 69.552 194.208 
" style="fill: none; stroke: #000000; stroke-width: 0.8; stroke-linejoin: miter; stroke-linecap: square"/>
   </g>
   <g id="patch_9">
    <path d="M 221.976 326.448 
L 221.976 194.208 
" style="fill: none; stroke: #000000; stroke-width: 0.8; stroke-linejoin: miter; stroke-linecap: square"/>
   </g>
   <g id="patch_10">
    <path d="M 69.552 326.448 
L 221.976 326.448 
" style="fill: none; stroke: #000000; stroke-width: 0.8; stroke-linejoin: miter; stroke-linecap: square"/>
   </g>
   <g id="patch_11">
    <path d="M 69.552 194.208 
L 221.976 194.208 
" style="fill: none; stroke: #000000; stroke-width: 0.8; stroke-linejoin: miter; stroke-linecap: square"/>
   </g>
  </g>
  <g id="axes_4">
   <g id="patch_12">
    <path d="M 232.776 326.448 
L 385.2 326.448 
L 385.2 194.208 
L 232.776 194.208 
z
" style="fill: #ffffff"/>
   </g>
   <g id="matplotlib.axis_7">
    <g id="xtick_11">
     <g id="line2d_15">
      <g>
       <use xlink:href="#m49124001ba" x="272.885659" y="326.448" style="stroke: #000000; stroke-width: 0.8"/>
      </g>
     </g>
     <g id="text_12">
      <!-- −8 -->
      <g transform="translate(269.624681 349.245207) rotate(-45) scale(0.1 -0.1)">
       <use xlink:href="#DejaVuSans-2212"/>
       <use xlink:href="#DejaVuSans-38" x="83.789062"/>
      </g>
     </g>
    </g>
    <g id="xtick_12">
     <g id="line2d_16">
      <g>
       <use xlink:href="#m49124001ba" x="312.998466" y="326.448" style="stroke: #000000; stroke-width: 0.8"/>
      </g>
     </g>
     <g id="text_13">
      <!-- −6 -->
      <g transform="translate(309.737489 349.245207) rotate(-45) scale(0.1 -0.1)">
       <use xlink:href="#DejaVuSans-2212"/>
       <use xlink:href="#DejaVuSans-36" x="83.789062"/>
      </g>
     </g>
    </g>
    <g id="xtick_13">
     <g id="line2d_17">
      <g>
       <use xlink:href="#m49124001ba" x="353.111274" y="326.448" style="stroke: #000000; stroke-width: 0.8"/>
      </g>
     </g>
     <g id="text_14">
      <!-- −4 -->
      <g transform="translate(349.850296 349.245207) rotate(-45) scale(0.1 -0.1)">
       <use xlink:href="#DejaVuSans-2212"/>
       <use xlink:href="#DejaVuSans-34" x="83.789062"/>
      </g>
     </g>
    </g>
    <g id="text_15">
     <!-- $\log_{10}(\kappa C_1/$Gyr${}^{-1})$ -->
     <g transform="translate(267.288 375.12) scale(0.1 -0.1)">
      <use xlink:href="#DejaVuSans-6c" transform="translate(0 0.684375)"/>
      <use xlink:href="#DejaVuSans-6f" transform="translate(27.783203 0.684375)"/>
      <use xlink:href="#DejaVuSans-67" transform="translate(88.964844 0.684375)"/>
      <use xlink:href="#DejaVuSans-31" transform="translate(153.398438 -15.721875) scale(0.7)"/>
      <use xlink:href="#DejaVuSans-30" transform="translate(197.93457 -15.721875) scale(0.7)"/>
      <use xlink:href="#DejaVuSans-28" transform="translate(261.440754 0.684375)"/>
      <use xlink:href="#DejaVuSans-Oblique-3ba" transform="translate(300.454426 0.684375)"/>
      <use xlink:href="#DejaVuSans-Oblique-43" transform="translate(359.389973 0.684375)"/>
      <use xlink:href="#DejaVuSans-31" transform="translate(429.214192 -15.721875) scale(0.7)"/>
      <use xlink:href="#DejaVuSans-2f" transform="translate(476.4847 0.684375)"/>
      <use xlink:href="#DejaVuSans-47" transform="translate(510.176106 0.684375)"/>
      <use xlink:href="#DejaVuSans-79" transform="translate(587.66634 0.684375)"/>
      <use xlink:href="#DejaVuSans-72" transform="translate(646.846028 0.684375)"/>
      <use xlink:href="#DejaVuSans-2212" transform="translate(688.91634 38.965625) scale(0.7)"/>
      <use xlink:href="#DejaVuSans-31" transform="translate(747.568684 38.965625) scale(0.7)"/>
      <use xlink:href="#DejaVuSans-29" transform="translate(794.839192 0.684375)"/>
     </g>
    </g>
   </g>
   <g id="matplotlib.axis_8"/>
   <g id="line2d_18">
    <path d="M 232.776 216.140278 
L 235.82448 216.140278 
L 235.82448 215.709388 
L 236.5866 215.709388 
L 236.5866 215.063054 
L 237.34872 215.063054 
L 237.34872 213.98583 
L 238.11084 213.98583 
L 238.11084 212.693161 
L 238.87296 212.693161 
L 238.87296 211.185048 
L 239.63508 211.185048 
L 239.63508 209.676935 
L 240.3972 209.676935 
L 240.3972 208.384266 
L 241.15932 208.384266 
L 241.15932 207.307042 
L 241.92144 207.307042 
L 241.92144 206.660708 
L 242.68356 206.660708 
L 242.68356 206.229818 
L 243.44568 206.229818 
L 243.44568 206.445263 
L 244.2078 206.445263 
L 244.2078 206.660708 
L 244.96992 206.660708 
L 244.96992 207.307042 
L 245.73204 207.307042 
L 245.73204 207.953376 
L 246.49416 207.953376 
L 246.49416 208.815155 
L 247.25628 208.815155 
L 247.25628 209.46149 
L 248.0184 209.46149 
L 248.0184 210.323269 
L 248.78052 210.323269 
L 248.78052 211.185048 
L 249.54264 211.185048 
L 249.54264 212.046827 
L 250.30476 212.046827 
L 250.30476 212.693161 
L 251.06688 212.693161 
L 251.06688 213.55494 
L 251.829 213.55494 
L 251.829 214.201275 
L 252.59112 214.201275 
L 252.59112 214.632164 
L 253.35324 214.632164 
L 253.35324 214.847609 
L 254.11536 214.847609 
L 254.11536 215.063054 
L 254.87748 215.063054 
L 254.87748 214.847609 
L 255.6396 214.847609 
L 255.6396 214.632164 
L 256.40172 214.632164 
L 256.40172 214.201275 
L 257.16384 214.201275 
L 257.16384 213.55494 
L 257.92596 213.55494 
L 257.92596 212.908606 
L 258.68808 212.908606 
L 258.68808 212.262272 
L 259.4502 212.262272 
L 259.4502 211.831382 
L 260.21232 211.831382 
L 260.21232 211.615937 
L 260.97444 211.615937 
L 260.97444 211.185048 
L 262.49868 211.185048 
L 262.49868 210.969603 
L 264.78504 210.969603 
L 264.78504 210.754158 
L 265.54716 210.754158 
L 265.54716 210.323269 
L 266.30928 210.323269 
L 266.30928 209.892379 
L 267.0714 209.892379 
L 267.0714 209.46149 
L 267.83352 209.46149 
L 267.83352 208.815155 
L 268.59564 208.815155 
L 268.59564 208.384266 
L 269.35776 208.384266 
L 269.35776 207.953376 
L 270.11988 207.953376 
L 270.11988 207.737932 
L 270.882 207.737932 
L 270.882 207.953376 
L 271.64412 207.953376 
L 271.64412 208.168821 
L 272.40624 208.168821 
L 272.40624 208.599711 
L 273.16836 208.599711 
L 273.16836 209.246045 
L 273.93048 209.246045 
L 273.93048 209.892379 
L 274.6926 209.892379 
L 274.6926 210.323269 
L 275.45472 210.323269 
L 275.45472 210.754158 
L 276.21684 210.754158 
L 276.21684 211.185048 
L 276.97896 211.185048 
L 276.97896 211.615937 
L 277.74108 211.615937 
L 277.74108 212.046827 
L 278.5032 212.046827 
L 278.5032 212.262272 
L 279.26532 212.262272 
L 279.26532 212.693161 
L 280.02744 212.693161 
L 280.02744 213.124051 
L 280.78956 213.124051 
L 280.78956 213.55494 
L 281.55168 213.55494 
L 281.55168 213.770385 
L 282.3138 213.770385 
L 282.3138 214.201275 
L 283.07592 214.201275 
L 283.07592 214.416719 
L 283.83804 214.416719 
L 283.83804 214.847609 
L 284.60016 214.847609 
L 284.60016 215.278499 
L 285.36228 215.278499 
L 285.36228 215.709388 
L 286.1244 215.709388 
L 286.1244 216.140278 
L 286.88652 216.140278 
L 286.88652 216.786612 
L 287.64864 216.786612 
L 287.64864 217.432946 
L 288.41076 217.432946 
L 288.41076 218.294725 
L 289.17288 218.294725 
L 289.17288 218.94106 
L 289.935 218.94106 
L 289.935 219.587394 
L 290.69712 219.587394 
L 290.69712 220.233728 
L 291.45924 220.233728 
L 291.45924 220.449173 
L 292.22136 220.449173 
L 292.22136 220.664618 
L 292.98348 220.664618 
L 292.98348 220.449173 
L 293.7456 220.449173 
L 293.7456 220.018283 
L 294.50772 220.018283 
L 294.50772 219.371949 
L 295.26984 219.371949 
L 295.26984 218.51017 
L 296.03196 218.51017 
L 296.03196 217.648391 
L 296.79408 217.648391 
L 296.79408 216.786612 
L 297.5562 216.786612 
L 297.5562 216.140278 
L 298.31832 216.140278 
L 298.31832 215.709388 
L 299.08044 215.709388 
L 299.08044 215.493943 
L 300.60468 215.493943 
L 300.60468 215.709388 
L 301.3668 215.709388 
L 301.3668 216.140278 
L 302.12892 216.140278 
L 302.12892 216.571167 
L 302.89104 216.571167 
L 302.89104 217.002057 
L 303.65316 217.002057 
L 303.65316 217.432946 
L 304.41528 217.432946 
L 304.41528 217.863836 
L 305.1774 217.863836 
L 305.1774 218.294725 
L 305.93952 218.294725 
L 305.93952 218.725615 
L 306.70164 218.725615 
L 306.70164 219.371949 
L 307.46376 219.371949 
L 307.46376 220.018283 
L 308.22588 220.018283 
L 308.22588 220.664618 
L 308.988 220.664618 
L 308.988 221.310952 
L 309.75012 221.310952 
L 309.75012 222.172731 
L 310.51224 222.172731 
L 310.51224 222.603621 
L 311.27436 222.603621 
L 311.27436 223.03451 
L 312.03648 223.03451 
L 312.03648 223.249955 
L 314.32284 223.249955 
L 314.32284 222.819065 
L 315.08496 222.819065 
L 315.08496 222.603621 
L 315.84708 222.603621 
L 315.84708 222.172731 
L 316.6092 222.172731 
L 316.6092 221.957286 
L 317.37132 221.957286 
L 317.37132 221.526397 
L 318.13344 221.526397 
L 318.13344 221.310952 
L 318.89556 221.310952 
L 318.89556 221.095507 
L 319.65768 221.095507 
L 319.65768 220.880063 
L 322.70616 220.880063 
L 322.70616 221.095507 
L 323.46828 221.095507 
L 323.46828 221.310952 
L 324.2304 221.310952 
L 324.2304 221.526397 
L 331.08948 221.526397 
L 331.08948 221.741842 
L 334.13796 221.741842 
L 334.13796 221.526397 
L 335.6622 221.526397 
L 335.6622 221.310952 
L 337.18644 221.310952 
L 337.18644 221.526397 
L 337.94856 221.526397 
L 337.94856 221.741842 
L 338.71068 221.741842 
L 338.71068 221.957286 
L 339.4728 221.957286 
L 339.4728 222.388176 
L 340.23492 222.388176 
L 340.23492 222.819065 
L 340.99704 222.819065 
L 340.99704 223.249955 
L 341.75916 223.249955 
L 341.75916 223.4654 
L 342.52128 223.4654 
L 342.52128 223.680845 
L 343.2834 223.680845 
L 343.2834 223.896289 
L 345.56976 223.896289 
L 345.56976 223.680845 
L 348.61824 223.680845 
L 348.61824 223.896289 
L 349.38036 223.896289 
L 349.38036 224.111734 
L 350.14248 224.111734 
L 350.14248 224.758068 
L 350.9046 224.758068 
L 350.9046 225.404403 
L 351.66672 225.404403 
L 351.66672 226.481627 
L 352.42884 226.481627 
L 352.42884 227.774295 
L 353.19096 227.774295 
L 353.19096 229.066964 
L 353.95308 229.066964 
L 353.95308 230.575077 
L 354.7152 230.575077 
L 354.7152 232.298635 
L 355.47732 232.298635 
L 355.47732 233.806749 
L 356.23944 233.806749 
L 356.23944 235.314862 
L 357.00156 235.314862 
L 357.00156 236.822976 
L 357.76368 236.822976 
L 357.76368 238.546534 
L 358.5258 238.546534 
L 358.5258 240.054647 
L 359.28792 240.054647 
L 359.28792 241.99365 
L 360.05004 241.99365 
L 360.05004 243.932653 
L 360.81216 243.932653 
L 360.81216 246.087101 
L 361.57428 246.087101 
L 361.57428 248.456993 
L 362.3364 248.456993 
L 362.3364 250.826886 
L 363.09852 250.826886 
L 363.09852 253.412223 
L 363.86064 253.412223 
L 363.86064 256.213005 
L 364.62276 256.213005 
L 364.62276 258.798342 
L 365.38488 258.798342 
L 365.38488 261.599124 
L 366.147 261.599124 
L 366.147 264.615351 
L 366.90912 264.615351 
L 366.90912 267.416133 
L 367.67124 267.416133 
L 367.67124 270.647804 
L 368.43336 270.647804 
L 368.43336 273.879476 
L 369.19548 273.879476 
L 369.19548 277.111148 
L 369.9576 277.111148 
L 369.9576 280.558264 
L 370.71972 280.558264 
L 370.71972 284.220825 
L 371.48184 284.220825 
L 371.48184 287.667941 
L 372.24396 287.667941 
L 372.24396 291.330502 
L 373.00608 291.330502 
L 373.00608 294.993064 
L 373.7682 294.993064 
L 373.7682 298.44018 
L 374.53032 298.44018 
L 374.53032 301.887296 
L 375.29244 301.887296 
L 375.29244 305.118968 
L 376.05456 305.118968 
L 376.05456 308.350639 
L 376.81668 308.350639 
L 376.81668 311.151421 
L 377.5788 311.151421 
L 377.5788 313.736759 
L 378.34092 313.736759 
L 378.34092 316.106651 
L 379.10304 316.106651 
L 379.10304 318.261099 
L 379.86516 318.261099 
L 379.86516 319.984657 
L 380.62728 319.984657 
L 380.62728 321.49277 
L 381.3894 321.49277 
L 381.3894 322.569994 
L 382.15152 322.569994 
L 382.15152 323.431773 
L 382.91364 323.431773 
L 382.91364 324.078108 
L 383.67576 324.078108 
L 383.67576 324.724442 
L 384.43788 324.724442 
L 384.43788 324.939887 
L 385.2 324.939887 
L 385.2 324.939887 
" clip-path="url(#pe117bbaa2f)" style="fill: none; stroke: #bf00bf; stroke-width: 1.5; stroke-linecap: square"/>
   </g>
   <g id="patch_13">
    <path d="M 232.776 326.448 
L 232.776 194.208 
" style="fill: none; stroke: #000000; stroke-width: 0.8; stroke-linejoin: miter; stroke-linecap: square"/>
   </g>
   <g id="patch_14">
    <path d="M 385.2 326.448 
L 385.2 194.208 
" style="fill: none; stroke: #000000; stroke-width: 0.8; stroke-linejoin: miter; stroke-linecap: square"/>
   </g>
   <g id="patch_15">
    <path d="M 232.776 326.448 
L 385.2 326.448 
" style="fill: none; stroke: #000000; stroke-width: 0.8; stroke-linejoin: miter; stroke-linecap: square"/>
   </g>
   <g id="patch_16">
    <path d="M 232.776 194.208 
L 385.2 194.208 
" style="fill: none; stroke: #000000; stroke-width: 0.8; stroke-linejoin: miter; stroke-linecap: square"/>
   </g>
   <g id="text_16">
    <!-- $\log_{10}(\kappa C_1/$Gyr${}^{-1})$ = ${-6.7567}_{-2.2238}^{+2.3692}$ -->
    <g transform="translate(189.008 188.208) scale(0.14 -0.14)">
     <defs>
      <path id="DejaVuSans-39" d="M 703 97 
L 703 672 
Q 941 559 1184 500 
Q 1428 441 1663 441 
Q 2288 441 2617 861 
Q 2947 1281 2994 2138 
Q 2813 1869 2534 1725 
Q 2256 1581 1919 1581 
Q 1219 1581 811 2004 
Q 403 2428 403 3163 
Q 403 3881 828 4315 
Q 1253 4750 1959 4750 
Q 2769 4750 3195 4129 
Q 3622 3509 3622 2328 
Q 3622 1225 3098 567 
Q 2575 -91 1691 -91 
Q 1453 -91 1209 -44 
Q 966 3 703 97 
z
M 1959 2075 
Q 2384 2075 2632 2365 
Q 2881 2656 2881 3163 
Q 2881 3666 2632 3958 
Q 2384 4250 1959 4250 
Q 1534 4250 1286 3958 
Q 1038 3666 1038 3163 
Q 1038 2656 1286 2365 
Q 1534 2075 1959 2075 
z
" transform="scale(0.015625)"/>
     </defs>
     <use xlink:href="#DejaVuSans-6c" transform="translate(0 0.765625)"/>
     <use xlink:href="#DejaVuSans-6f" transform="translate(27.783203 0.765625)"/>
     <use xlink:href="#DejaVuSans-67" transform="translate(88.964844 0.765625)"/>
     <use xlink:href="#DejaVuSans-31" transform="translate(153.398438 -15.640625) scale(0.7)"/>
     <use xlink:href="#DejaVuSans-30" transform="translate(197.93457 -15.640625) scale(0.7)"/>
     <use xlink:href="#DejaVuSans-28" transform="translate(261.440754 0.765625)"/>
     <use xlink:href="#DejaVuSans-Oblique-3ba" transform="translate(300.454426 0.765625)"/>
     <use xlink:href="#DejaVuSans-Oblique-43" transform="translate(359.389973 0.765625)"/>
     <use xlink:href="#DejaVuSans-31" transform="translate(429.214192 -15.640625) scale(0.7)"/>
     <use xlink:href="#DejaVuSans-2f" transform="translate(476.4847 0.765625)"/>
     <use xlink:href="#DejaVuSans-47" transform="translate(510.176106 0.765625)"/>
     <use xlink:href="#DejaVuSans-79" transform="translate(587.66634 0.765625)"/>
     <use xlink:href="#DejaVuSans-72" transform="translate(646.846028 0.765625)"/>
     <use xlink:href="#DejaVuSans-2212" transform="translate(688.91634 39.046875) scale(0.7)"/>
     <use xlink:href="#DejaVuSans-31" transform="translate(747.568684 39.046875) scale(0.7)"/>
     <use xlink:href="#DejaVuSans-29" transform="translate(794.839192 0.765625)"/>
     <use xlink:href="#DejaVuSans-20" transform="translate(833.852864 0.765625)"/>
     <use xlink:href="#DejaVuSans-3d" transform="translate(865.639973 0.765625)"/>
     <use xlink:href="#DejaVuSans-20" transform="translate(949.429036 0.765625)"/>
     <use xlink:href="#DejaVuSans-2212" transform="translate(981.216145 0.765625)"/>
     <use xlink:href="#DejaVuSans-36" transform="translate(1065.005208 0.765625)"/>
     <use xlink:href="#DejaVuSans-2e" transform="translate(1128.628254 0.765625)"/>
     <use xlink:href="#DejaVuSans-37" transform="translate(1152.665364 0.765625)"/>
     <use xlink:href="#DejaVuSans-35" transform="translate(1216.288411 0.765625)"/>
     <use xlink:href="#DejaVuSans-36" transform="translate(1279.911458 0.765625)"/>
     <use xlink:href="#DejaVuSans-37" transform="translate(1343.534504 0.765625)"/>
     <use xlink:href="#DejaVuSans-2b" transform="translate(1408.114583 39.046875) scale(0.7)"/>
     <use xlink:href="#DejaVuSans-32" transform="translate(1466.766926 39.046875) scale(0.7)"/>
     <use xlink:href="#DejaVuSans-2e" transform="translate(1511.303059 39.046875) scale(0.7)"/>
     <use xlink:href="#DejaVuSans-33" transform="translate(1533.554036 39.046875) scale(0.7)"/>
     <use xlink:href="#DejaVuSans-36" transform="translate(1578.090168 39.046875) scale(0.7)"/>
     <use xlink:href="#DejaVuSans-39" transform="translate(1622.626301 39.046875) scale(0.7)"/>
     <use xlink:href="#DejaVuSans-32" transform="translate(1665.937434 39.046875) scale(0.7)"/>
     <use xlink:href="#DejaVuSans-2212" transform="translate(1408.114583 -26.578125) scale(0.7)"/>
     <use xlink:href="#DejaVuSans-32" transform="translate(1466.766926 -26.578125) scale(0.7)"/>
     <use xlink:href="#DejaVuSans-2e" transform="translate(1511.303059 -26.578125) scale(0.7)"/>
     <use xlink:href="#DejaVuSans-32" transform="translate(1529.704036 -26.578125) scale(0.7)"/>
     <use xlink:href="#DejaVuSans-32" transform="translate(1574.240168 -26.578125) scale(0.7)"/>
     <use xlink:href="#DejaVuSans-33" transform="translate(1618.776301 -26.578125) scale(0.7)"/>
     <use xlink:href="#DejaVuSans-38" transform="translate(1663.312434 -26.578125) scale(0.7)"/>
    </g>
   </g>
  </g>
 </g>
 <defs>
  <clipPath id="p77e39e46a7">
   <rect x="69.552" y="30.984" width="152.424" height="132.24"/>
  </clipPath>
  <clipPath id="p8976a2e032">
   <rect x="69.552" y="194.208" width="152.424" height="132.24"/>
  </clipPath>
  <clipPath id="pe117bbaa2f">
   <rect x="232.776" y="194.208" width="152.424" height="132.24"/>
  </clipPath>
 </defs>
</svg>
