<?xml version="1.0" encoding="utf-8" standalone="no"?>
<!DOCTYPE svg PUBLIC "-//W3C//DTD SVG 1.1//EN"
  "http://www.w3.org/Graphics/SVG/1.1/DTD/svg11.dtd">
<svg xmlns:xlink="http://www.w3.org/1999/xlink" width="396pt" height="396pt" viewBox="0 0 396 396" xmlns="http://www.w3.org/2000/svg" version="1.1">
 <metadata>
  <rdf:RDF xmlns:dc="http://purl.org/dc/elements/1.1/" xmlns:cc="http://creativecommons.org/ns#" xmlns:rdf="http://www.w3.org/1999/02/22-rdf-syntax-ns#">
   <cc:Work>
    <dc:type rdf:resource="http://purl.org/dc/dcmitype/StillImage"/>
    <dc:date>2024-11-19T13:49:18.718380</dc:date>
    <dc:format>image/svg+xml</dc:format>
    <dc:creator>
     <cc:Agent>
      <dc:title>Matplotlib v3.9.2, https://matplotlib.org/</dc:title>
     </cc:Agent>
    </dc:creator>
   </cc:Work>
  </rdf:RDF>
 </metadata>
 <defs>
  <style type="text/css">*{stroke-linejoin: round; stroke-linecap: butt}</style>
 </defs>
 <g id="figure_1">
  <g id="patch_1">
   <path d="M 0 396 
L 396 396 
L 396 0 
L 0 0 
z
" style="fill: #ffffff"/>
  </g>
  <g id="axes_1">
   <g id="patch_2">
    <path d="M 64.08 164.88 
L 211.610234 164.88 
L 211.610234 30.984 
L 64.08 30.984 
z
" style="fill: #ffffff"/>
   </g>
   <g id="matplotlib.axis_1">
    <g id="xtick_1">
     <g id="line2d_1">
      <defs>
       <path id="mfb60e9e55c" d="M 0 0 
L 0 3.5 
" style="stroke: #000000; stroke-width: 0.8"/>
      </defs>
      <g>
       <use xlink:href="#mfb60e9e55c" x="99.626608" y="164.88" style="stroke: #000000; stroke-width: 0.8"/>
      </g>
     </g>
    </g>
    <g id="xtick_2">
     <g id="line2d_2">
      <g>
       <use xlink:href="#mfb60e9e55c" x="136.012444" y="164.88" style="stroke: #000000; stroke-width: 0.8"/>
      </g>
     </g>
    </g>
    <g id="xtick_3">
     <g id="line2d_3">
      <g>
       <use xlink:href="#mfb60e9e55c" x="172.398281" y="164.88" style="stroke: #000000; stroke-width: 0.8"/>
      </g>
     </g>
    </g>
    <g id="xtick_4">
     <g id="line2d_4">
      <g>
       <use xlink:href="#mfb60e9e55c" x="208.784118" y="164.88" style="stroke: #000000; stroke-width: 0.8"/>
      </g>
     </g>
    </g>
   </g>
   <g id="matplotlib.axis_2"/>
   <g id="line2d_5">
    <path d="M 64.08 164.525895 
L 68.505907 164.437369 
L 68.505907 164.348842 
L 70.718861 164.260316 
L 70.718861 164.17179 
L 72.931814 164.083263 
L 72.931814 163.994737 
L 75.144768 163.906211 
L 75.144768 163.817685 
L 77.357721 163.729158 
L 77.357721 163.640632 
L 78.833023 163.552106 
L 78.833023 163.46358 
L 79.570675 163.46358 
L 79.570675 163.286527 
L 80.308326 163.286527 
L 80.308326 163.109474 
L 81.045977 163.109474 
L 81.045977 162.932422 
L 81.783628 162.932422 
L 81.783628 162.755369 
L 82.521279 162.755369 
L 82.521279 162.48979 
L 83.25893 162.48979 
L 83.25893 162.312738 
L 83.996582 162.312738 
L 83.996582 162.047159 
L 84.734233 162.047159 
L 84.734233 161.78158 
L 85.471884 161.78158 
L 85.471884 161.516001 
L 86.209535 161.516001 
L 86.209535 161.250422 
L 86.947186 161.250422 
L 86.947186 160.984844 
L 87.684837 160.984844 
L 87.684837 160.719265 
L 88.422489 160.719265 
L 88.422489 160.453686 
L 89.16014 160.453686 
L 89.16014 160.188107 
L 89.897791 160.188107 
L 89.897791 159.922528 
L 90.635442 159.922528 
L 90.635442 159.568423 
L 91.373093 159.568423 
L 91.373093 159.214318 
L 92.110745 159.214318 
L 92.110745 158.948739 
L 92.848396 158.948739 
L 92.848396 158.594634 
L 93.586047 158.594634 
L 93.586047 158.152003 
L 94.323698 158.152003 
L 94.323698 157.797898 
L 95.061349 157.797898 
L 95.061349 157.443792 
L 95.799 157.443792 
L 95.799 157.001161 
L 96.536652 157.001161 
L 96.536652 156.55853 
L 97.274303 156.55853 
L 97.274303 156.027372 
L 98.011954 156.027372 
L 98.011954 155.496214 
L 98.749605 155.496214 
L 98.749605 154.965057 
L 99.487256 154.965057 
L 99.487256 154.345373 
L 100.224907 154.345373 
L 100.224907 153.725689 
L 100.962559 153.725689 
L 100.962559 153.017478 
L 101.70021 153.017478 
L 101.70021 152.309268 
L 102.437861 152.309268 
L 102.437861 151.512532 
L 103.175512 151.512532 
L 103.175512 150.715795 
L 103.913163 150.715795 
L 103.913163 149.830532 
L 104.650814 149.830532 
L 104.650814 148.856743 
L 105.388466 148.856743 
L 105.388466 147.882954 
L 106.126117 147.882954 
L 106.126117 146.909165 
L 106.863768 146.909165 
L 106.863768 145.758323 
L 107.601419 145.758323 
L 107.601419 144.696008 
L 108.33907 144.696008 
L 108.33907 143.45664 
L 109.076721 143.45664 
L 109.076721 142.217272 
L 109.814373 142.217272 
L 109.814373 140.889378 
L 110.552024 140.889378 
L 110.552024 139.561484 
L 111.289675 139.561484 
L 111.289675 138.145063 
L 112.027326 138.145063 
L 112.027326 136.640116 
L 112.764977 136.640116 
L 112.764977 135.13517 
L 113.502629 135.13517 
L 113.502629 133.541697 
L 114.24028 133.541697 
L 114.24028 131.859697 
L 114.977931 131.859697 
L 114.977931 130.089172 
L 115.715582 130.089172 
L 115.715582 128.23012 
L 116.453233 128.23012 
L 116.453233 126.282541 
L 117.190884 126.282541 
L 117.190884 124.334963 
L 117.928536 124.334963 
L 117.928536 122.387385 
L 118.666187 122.387385 
L 118.666187 120.262754 
L 119.403838 120.262754 
L 119.403838 118.138124 
L 120.141489 118.138124 
L 120.141489 116.013493 
L 120.87914 116.013493 
L 120.87914 113.71181 
L 121.616791 113.71181 
L 121.616791 111.3216 
L 122.354443 111.3216 
L 122.354443 108.93139 
L 123.092094 108.93139 
L 123.092094 106.452655 
L 123.829745 106.452655 
L 123.829745 103.885392 
L 124.567396 103.885392 
L 124.567396 101.406657 
L 125.305047 101.406657 
L 125.305047 98.927921 
L 126.042698 98.927921 
L 126.042698 96.449185 
L 126.78035 96.449185 
L 126.78035 94.147501 
L 127.518001 94.147501 
L 127.518001 91.845818 
L 128.255652 91.845818 
L 128.255652 89.544135 
L 128.993303 89.544135 
L 128.993303 87.330978 
L 129.730954 87.330978 
L 129.730954 85.029295 
L 130.468605 85.029295 
L 130.468605 82.727611 
L 131.206257 82.727611 
L 131.206257 80.425928 
L 131.943908 80.425928 
L 131.943908 78.035718 
L 132.681559 78.035718 
L 132.681559 75.556982 
L 133.41921 75.556982 
L 133.41921 73.078247 
L 134.156861 73.078247 
L 134.156861 70.599511 
L 134.894512 70.599511 
L 134.894512 68.120775 
L 135.632164 68.120775 
L 135.632164 65.819092 
L 136.369815 65.819092 
L 136.369815 63.517408 
L 137.107466 63.517408 
L 137.107466 61.304251 
L 137.845117 61.304251 
L 137.845117 59.17962 
L 138.582768 59.17962 
L 138.582768 57.143516 
L 139.32042 57.143516 
L 139.32042 55.284464 
L 140.058071 55.284464 
L 140.058071 53.513939 
L 140.795722 53.513939 
L 140.795722 51.831939 
L 141.533373 51.831939 
L 141.533373 50.238466 
L 142.271024 50.238466 
L 142.271024 48.822046 
L 143.008675 48.822046 
L 143.008675 47.582678 
L 143.746327 47.582678 
L 143.746327 46.608889 
L 144.483978 46.608889 
L 144.483978 45.723626 
L 145.221629 45.723626 
L 145.221629 45.015416 
L 145.95928 45.015416 
L 145.95928 44.484258 
L 146.696931 44.484258 
L 146.696931 44.041626 
L 147.434582 44.041626 
L 147.434582 43.687521 
L 148.172234 43.687521 
L 148.172234 43.421942 
L 148.909885 43.421942 
L 148.909885 43.24489 
L 151.122838 43.156364 
L 151.122838 43.421942 
L 151.860489 43.421942 
L 151.860489 43.864574 
L 152.598141 43.864574 
L 152.598141 44.484258 
L 153.335792 44.484258 
L 153.335792 45.369521 
L 154.073443 45.369521 
L 154.073443 46.431836 
L 154.811094 46.431836 
L 154.811094 47.671204 
L 155.548745 47.671204 
L 155.548745 48.999098 
L 156.286396 48.999098 
L 156.286396 50.415519 
L 157.024048 50.415519 
L 157.024048 51.920465 
L 157.761699 51.920465 
L 157.761699 53.513939 
L 158.49935 53.513939 
L 158.49935 55.195938 
L 159.237001 55.195938 
L 159.237001 56.966463 
L 159.974652 56.966463 
L 159.974652 58.914042 
L 160.712304 58.914042 
L 160.712304 60.950146 
L 161.449955 60.950146 
L 161.449955 63.163303 
L 162.187606 63.163303 
L 162.187606 65.553513 
L 162.925257 65.553513 
L 162.925257 68.209301 
L 163.662908 68.209301 
L 163.662908 70.953616 
L 164.400559 70.953616 
L 164.400559 73.874983 
L 165.138211 73.874983 
L 165.138211 76.884877 
L 165.875862 76.884877 
L 165.875862 79.89477 
L 166.613513 79.89477 
L 166.613513 82.99319 
L 167.351164 82.99319 
L 167.351164 86.003084 
L 168.088815 86.003084 
L 168.088815 89.012977 
L 168.826466 89.012977 
L 168.826466 92.022871 
L 169.564118 92.022871 
L 169.564118 94.944238 
L 170.301769 94.944238 
L 170.301769 97.777079 
L 171.03942 97.777079 
L 171.03942 100.60992 
L 171.777071 100.60992 
L 171.777071 103.354235 
L 172.514722 103.354235 
L 172.514722 106.187076 
L 173.252373 106.187076 
L 173.252373 109.019917 
L 173.990025 109.019917 
L 173.990025 111.941284 
L 174.727676 111.941284 
L 174.727676 114.951178 
L 175.465327 114.951178 
L 175.465327 117.872545 
L 176.202978 117.872545 
L 176.202978 120.882438 
L 176.940629 120.882438 
L 176.940629 123.803806 
L 177.67828 123.803806 
L 177.67828 126.636647 
L 178.415932 126.636647 
L 178.415932 129.380961 
L 179.153583 129.380961 
L 179.153583 132.03675 
L 179.891234 132.03675 
L 179.891234 134.515486 
L 180.628885 134.515486 
L 180.628885 136.905695 
L 181.366536 136.905695 
L 181.366536 139.118852 
L 182.104187 139.118852 
L 182.104187 141.154957 
L 182.841839 141.154957 
L 182.841839 143.102535 
L 183.57949 143.102535 
L 183.57949 144.87306 
L 184.317141 144.87306 
L 184.317141 146.55506 
L 185.054792 146.55506 
L 185.054792 148.060007 
L 185.792443 148.060007 
L 185.792443 149.564953 
L 186.530095 149.564953 
L 186.530095 150.892848 
L 187.267746 150.892848 
L 187.267746 152.220742 
L 188.005397 152.220742 
L 188.005397 153.371583 
L 188.743048 153.371583 
L 188.743048 154.522425 
L 189.480699 154.522425 
L 189.480699 155.58474 
L 190.21835 155.58474 
L 190.21835 156.55853 
L 190.956002 156.55853 
L 190.956002 157.532319 
L 191.693653 157.532319 
L 191.693653 158.417581 
L 192.431304 158.417581 
L 192.431304 159.214318 
L 193.168955 159.214318 
L 193.168955 159.922528 
L 193.906606 159.922528 
L 193.906606 160.542212 
L 194.644257 160.542212 
L 194.644257 161.07337 
L 195.381909 161.07337 
L 195.381909 161.516001 
L 196.11956 161.516001 
L 196.11956 161.958633 
L 196.857211 161.958633 
L 196.857211 162.312738 
L 197.594862 162.312738 
L 197.594862 162.578317 
L 198.332513 162.578317 
L 198.332513 162.843896 
L 199.070164 162.843896 
L 199.070164 163.020948 
L 199.807816 163.020948 
L 199.807816 163.286527 
L 200.545467 163.286527 
L 200.545467 163.46358 
L 201.283118 163.46358 
L 201.283118 163.640632 
L 202.020769 163.640632 
L 202.020769 163.817685 
L 202.75842 163.817685 
L 202.75842 163.994737 
L 203.496071 163.994737 
L 203.496071 164.17179 
L 204.971374 164.260316 
L 204.971374 164.437369 
L 206.446676 164.525895 
L 206.446676 164.614421 
L 209.397281 164.702947 
L 209.397281 164.791474 
L 211.610234 164.791474 
L 211.610234 164.791474 
" clip-path="url(#p6f6384956f)" style="fill: none; stroke: #00bfbf; stroke-width: 1.5; stroke-linecap: square"/>
   </g>
   <g id="patch_3">
    <path d="M 64.08 164.88 
L 64.08 30.984 
" style="fill: none; stroke: #000000; stroke-width: 0.8; stroke-linejoin: miter; stroke-linecap: square"/>
   </g>
   <g id="patch_4">
    <path d="M 211.610234 164.88 
L 211.610234 30.984 
" style="fill: none; stroke: #000000; stroke-width: 0.8; stroke-linejoin: miter; stroke-linecap: square"/>
   </g>
   <g id="patch_5">
    <path d="M 64.08 164.88 
L 211.610234 164.88 
" style="fill: none; stroke: #000000; stroke-width: 0.8; stroke-linejoin: miter; stroke-linecap: square"/>
   </g>
   <g id="patch_6">
    <path d="M 64.08 30.984 
L 211.610234 30.984 
" style="fill: none; stroke: #000000; stroke-width: 0.8; stroke-linejoin: miter; stroke-linecap: square"/>
   </g>
   <g id="text_1">
    <!-- $\Omega_{2,0}$ = ${0.2316}_{-0.0577}^{+0.0521}$ -->
    <g transform="translate(67.495117 24.984) scale(0.14 -0.14)">
     <defs>
      <path id="DejaVuSans-3a9" d="M 4647 556 
L 4647 0 
L 2772 0 
L 2772 556 
Q 3325 859 3634 1378 
Q 3944 1897 3944 2528 
Q 3944 3278 3531 3731 
Q 3119 4184 2444 4184 
Q 1769 4184 1355 3729 
Q 941 3275 941 2528 
Q 941 1897 1250 1378 
Q 1563 859 2119 556 
L 2119 0 
L 244 0 
L 244 556 
L 1241 556 
Q 747 991 519 1456 
Q 294 1922 294 2497 
Q 294 3491 894 4106 
Q 1491 4722 2444 4722 
Q 3391 4722 3994 4106 
Q 4594 3494 4594 2528 
Q 4594 1922 4372 1459 
Q 4150 997 3647 556 
L 4647 556 
z
" transform="scale(0.015625)"/>
      <path id="DejaVuSans-32" d="M 1228 531 
L 3431 531 
L 3431 0 
L 469 0 
L 469 531 
Q 828 903 1448 1529 
Q 2069 2156 2228 2338 
Q 2531 2678 2651 2914 
Q 2772 3150 2772 3378 
Q 2772 3750 2511 3984 
Q 2250 4219 1831 4219 
Q 1534 4219 1204 4116 
Q 875 4013 500 3803 
L 500 4441 
Q 881 4594 1212 4672 
Q 1544 4750 1819 4750 
Q 2544 4750 2975 4387 
Q 3406 4025 3406 3419 
Q 3406 3131 3298 2873 
Q 3191 2616 2906 2266 
Q 2828 2175 2409 1742 
Q 1991 1309 1228 531 
z
" transform="scale(0.015625)"/>
      <path id="DejaVuSans-2c" d="M 750 794 
L 1409 794 
L 1409 256 
L 897 -744 
L 494 -744 
L 750 256 
L 750 794 
z
" transform="scale(0.015625)"/>
      <path id="DejaVuSans-30" d="M 2034 4250 
Q 1547 4250 1301 3770 
Q 1056 3291 1056 2328 
Q 1056 1369 1301 889 
Q 1547 409 2034 409 
Q 2525 409 2770 889 
Q 3016 1369 3016 2328 
Q 3016 3291 2770 3770 
Q 2525 4250 2034 4250 
z
M 2034 4750 
Q 2819 4750 3233 4129 
Q 3647 3509 3647 2328 
Q 3647 1150 3233 529 
Q 2819 -91 2034 -91 
Q 1250 -91 836 529 
Q 422 1150 422 2328 
Q 422 3509 836 4129 
Q 1250 4750 2034 4750 
z
" transform="scale(0.015625)"/>
      <path id="DejaVuSans-20" transform="scale(0.015625)"/>
      <path id="DejaVuSans-3d" d="M 678 2906 
L 4684 2906 
L 4684 2381 
L 678 2381 
L 678 2906 
z
M 678 1631 
L 4684 1631 
L 4684 1100 
L 678 1100 
L 678 1631 
z
" transform="scale(0.015625)"/>
      <path id="DejaVuSans-2e" d="M 684 794 
L 1344 794 
L 1344 0 
L 684 0 
L 684 794 
z
" transform="scale(0.015625)"/>
      <path id="DejaVuSans-33" d="M 2597 2516 
Q 3050 2419 3304 2112 
Q 3559 1806 3559 1356 
Q 3559 666 3084 287 
Q 2609 -91 1734 -91 
Q 1441 -91 1130 -33 
Q 819 25 488 141 
L 488 750 
Q 750 597 1062 519 
Q 1375 441 1716 441 
Q 2309 441 2620 675 
Q 2931 909 2931 1356 
Q 2931 1769 2642 2001 
Q 2353 2234 1838 2234 
L 1294 2234 
L 1294 2753 
L 1863 2753 
Q 2328 2753 2575 2939 
Q 2822 3125 2822 3475 
Q 2822 3834 2567 4026 
Q 2313 4219 1838 4219 
Q 1578 4219 1281 4162 
Q 984 4106 628 3988 
L 628 4550 
Q 988 4650 1302 4700 
Q 1616 4750 1894 4750 
Q 2613 4750 3031 4423 
Q 3450 4097 3450 3541 
Q 3450 3153 3228 2886 
Q 3006 2619 2597 2516 
z
" transform="scale(0.015625)"/>
      <path id="DejaVuSans-31" d="M 794 531 
L 1825 531 
L 1825 4091 
L 703 3866 
L 703 4441 
L 1819 4666 
L 2450 4666 
L 2450 531 
L 3481 531 
L 3481 0 
L 794 0 
L 794 531 
z
" transform="scale(0.015625)"/>
      <path id="DejaVuSans-36" d="M 2113 2584 
Q 1688 2584 1439 2293 
Q 1191 2003 1191 1497 
Q 1191 994 1439 701 
Q 1688 409 2113 409 
Q 2538 409 2786 701 
Q 3034 994 3034 1497 
Q 3034 2003 2786 2293 
Q 2538 2584 2113 2584 
z
M 3366 4563 
L 3366 3988 
Q 3128 4100 2886 4159 
Q 2644 4219 2406 4219 
Q 1781 4219 1451 3797 
Q 1122 3375 1075 2522 
Q 1259 2794 1537 2939 
Q 1816 3084 2150 3084 
Q 2853 3084 3261 2657 
Q 3669 2231 3669 1497 
Q 3669 778 3244 343 
Q 2819 -91 2113 -91 
Q 1303 -91 875 529 
Q 447 1150 447 2328 
Q 447 3434 972 4092 
Q 1497 4750 2381 4750 
Q 2619 4750 2861 4703 
Q 3103 4656 3366 4563 
z
" transform="scale(0.015625)"/>
      <path id="DejaVuSans-2b" d="M 2944 4013 
L 2944 2272 
L 4684 2272 
L 4684 1741 
L 2944 1741 
L 2944 0 
L 2419 0 
L 2419 1741 
L 678 1741 
L 678 2272 
L 2419 2272 
L 2419 4013 
L 2944 4013 
z
" transform="scale(0.015625)"/>
      <path id="DejaVuSans-35" d="M 691 4666 
L 3169 4666 
L 3169 4134 
L 1269 4134 
L 1269 2991 
Q 1406 3038 1543 3061 
Q 1681 3084 1819 3084 
Q 2600 3084 3056 2656 
Q 3513 2228 3513 1497 
Q 3513 744 3044 326 
Q 2575 -91 1722 -91 
Q 1428 -91 1123 -41 
Q 819 9 494 109 
L 494 744 
Q 775 591 1075 516 
Q 1375 441 1709 441 
Q 2250 441 2565 725 
Q 2881 1009 2881 1497 
Q 2881 1984 2565 2268 
Q 2250 2553 1709 2553 
Q 1456 2553 1204 2497 
Q 953 2441 691 2322 
L 691 4666 
z
" transform="scale(0.015625)"/>
      <path id="DejaVuSans-2212" d="M 678 2272 
L 4684 2272 
L 4684 1741 
L 678 1741 
L 678 2272 
z
" transform="scale(0.015625)"/>
      <path id="DejaVuSans-37" d="M 525 4666 
L 3525 4666 
L 3525 4397 
L 1831 0 
L 1172 0 
L 2766 4134 
L 525 4134 
L 525 4666 
z
" transform="scale(0.015625)"/>
     </defs>
     <use xlink:href="#DejaVuSans-3a9" transform="translate(0 0.765625)"/>
     <use xlink:href="#DejaVuSans-32" transform="translate(77.373047 -15.640625) scale(0.7)"/>
     <use xlink:href="#DejaVuSans-2c" transform="translate(121.90918 -15.640625) scale(0.7)"/>
     <use xlink:href="#DejaVuSans-30" transform="translate(157.797852 -15.640625) scale(0.7)"/>
     <use xlink:href="#DejaVuSans-20" transform="translate(205.068359 0.765625)"/>
     <use xlink:href="#DejaVuSans-3d" transform="translate(236.855469 0.765625)"/>
     <use xlink:href="#DejaVuSans-20" transform="translate(320.644531 0.765625)"/>
     <use xlink:href="#DejaVuSans-30" transform="translate(352.431641 0.765625)"/>
     <use xlink:href="#DejaVuSans-2e" transform="translate(416.054688 0.765625)"/>
     <use xlink:href="#DejaVuSans-32" transform="translate(442.341797 0.765625)"/>
     <use xlink:href="#DejaVuSans-33" transform="translate(505.964844 0.765625)"/>
     <use xlink:href="#DejaVuSans-31" transform="translate(569.587891 0.765625)"/>
     <use xlink:href="#DejaVuSans-36" transform="translate(633.210938 0.765625)"/>
     <use xlink:href="#DejaVuSans-2b" transform="translate(697.791016 39.046875) scale(0.7)"/>
     <use xlink:href="#DejaVuSans-30" transform="translate(756.443359 39.046875) scale(0.7)"/>
     <use xlink:href="#DejaVuSans-2e" transform="translate(800.979492 39.046875) scale(0.7)"/>
     <use xlink:href="#DejaVuSans-30" transform="translate(823.230469 39.046875) scale(0.7)"/>
     <use xlink:href="#DejaVuSans-35" transform="translate(867.766602 39.046875) scale(0.7)"/>
     <use xlink:href="#DejaVuSans-32" transform="translate(912.302734 39.046875) scale(0.7)"/>
     <use xlink:href="#DejaVuSans-31" transform="translate(956.838867 39.046875) scale(0.7)"/>
     <use xlink:href="#DejaVuSans-2212" transform="translate(697.791016 -26.578125) scale(0.7)"/>
     <use xlink:href="#DejaVuSans-30" transform="translate(756.443359 -26.578125) scale(0.7)"/>
     <use xlink:href="#DejaVuSans-2e" transform="translate(800.979492 -26.578125) scale(0.7)"/>
     <use xlink:href="#DejaVuSans-30" transform="translate(823.230469 -26.578125) scale(0.7)"/>
     <use xlink:href="#DejaVuSans-35" transform="translate(867.766602 -26.578125) scale(0.7)"/>
     <use xlink:href="#DejaVuSans-37" transform="translate(907.227734 -26.578125) scale(0.7)"/>
     <use xlink:href="#DejaVuSans-37" transform="translate(950.538867 -26.578125) scale(0.7)"/>
    </g>
   </g>
  </g>
  <g id="axes_2">
   <g id="matplotlib.axis_3"/>
   <g id="matplotlib.axis_4"/>
  </g>
  <g id="axes_3">
   <g id="patch_7">
    <path d="M 64.08 329.76 
L 211.610234 329.76 
L 211.610234 195.864 
L 64.08 195.864 
z
" style="fill: #ffffff"/>
   </g>
   <g id="QuadContourSet_1">
    <path d="M 89.16014 315.559432 
L 92.110745 315.906148 
L 95.061349 315.601548 
L 97.205402 315.03144 
L 98.011954 314.862437 
L 100.962559 314.238125 
L 103.913163 313.453107 
L 106.863768 312.437054 
L 107.072053 312.35352 
L 109.814373 311.734488 
L 112.764977 310.788954 
L 115.154068 309.6756 
L 115.715582 309.501817 
L 118.666187 308.445222 
L 121.316979 306.99768 
L 121.616791 306.893479 
L 124.567396 305.970559 
L 127.518001 304.418239 
L 127.680771 304.31976 
L 130.468605 303.291807 
L 133.272627 301.64184 
L 133.41921 301.58157 
L 136.369815 300.230115 
L 138.337571 298.96392 
L 139.32042 298.493311 
L 142.271024 296.487008 
L 142.532906 296.286 
L 145.221629 294.707984 
L 146.656989 293.60808 
L 148.172234 292.693455 
L 150.511499 290.93016 
L 151.122838 290.528979 
L 154.073443 288.25224 
L 154.073443 288.25224 
L 157.024048 285.923517 
L 157.423615 285.57432 
L 159.974652 283.39684 
L 160.515247 282.8964 
L 162.925257 280.772903 
L 163.549837 280.21848 
L 165.875862 278.28635 
L 166.724219 277.54056 
L 168.826466 275.572809 
L 169.594526 274.86264 
L 171.777071 272.491378 
L 172.11446 272.18472 
L 174.640897 269.5068 
L 174.727676 269.396883 
L 176.980786 266.82888 
L 177.67828 265.67557 
L 178.823141 264.15096 
L 180.482996 261.47304 
L 180.628885 261.217728 
L 182.523738 258.79512 
L 183.57949 256.70158 
L 184.036299 256.1172 
L 185.652743 253.43928 
L 186.530095 251.134181 
L 186.743226 250.76136 
L 188.079069 248.08344 
L 188.935059 245.40552 
L 189.480699 242.91696 
L 189.54224 242.7276 
L 190.116594 240.04968 
L 190.351115 237.37176 
L 190.311607 234.69384 
L 190.102612 232.01592 
L 189.480699 230.12674 
L 186.530095 229.63518 
L 183.57949 230.9132 
L 181.979483 232.01592 
L 180.628885 232.7523 
L 177.982878 234.69384 
L 177.67828 234.873783 
L 174.727676 237.023867 
L 174.308266 237.37176 
L 171.777071 238.968245 
L 170.513621 240.04968 
L 168.826466 241.458952 
L 167.460717 242.7276 
L 165.875862 243.964571 
L 164.103074 245.40552 
L 162.925257 246.29188 
L 160.911097 248.08344 
L 159.974652 248.897763 
L 157.949168 250.76136 
L 157.024048 251.532926 
L 154.920402 253.43928 
L 154.073443 254.145476 
L 151.7696 256.1172 
L 151.122838 256.614072 
L 148.586535 258.79512 
L 148.172234 259.164004 
L 145.631443 261.47304 
L 145.221629 261.842761 
L 142.639906 264.15096 
L 142.271024 264.45858 
L 139.645244 266.82888 
L 139.32042 267.112197 
L 136.712616 269.5068 
L 136.369815 269.825056 
L 133.846785 272.18472 
L 133.41921 272.581332 
L 130.801526 274.86264 
L 130.468605 275.111069 
L 127.518001 277.116574 
L 126.938436 277.54056 
L 124.567396 279.099975 
L 123.256177 280.21848 
L 121.616791 281.786916 
L 120.526756 282.8964 
L 118.666187 285.009532 
L 118.070932 285.57432 
L 115.715582 287.552774 
L 114.829726 288.25224 
L 112.764977 289.758438 
L 111.315995 290.93016 
L 109.814373 292.23526 
L 108.33227 293.60808 
L 106.863768 294.981647 
L 105.309748 296.286 
L 103.913163 297.40709 
L 102.015872 298.96392 
L 100.962559 299.881097 
L 98.652874 301.64184 
L 98.011954 302.166955 
L 95.406492 304.31976 
L 95.061349 304.733374 
L 92.923884 306.99768 
L 92.110745 308.200211 
L 90.668152 309.6756 
L 89.16014 311.669203 
L 88.482148 312.35352 
L 88.009352 315.03144 
z
" clip-path="url(#pb4c69416b8)" style="fill: #ffffff"/>
   </g>
   <g id="QuadContourSet_2">
    <path d="M 62.604698 333.77688 
L 65.555302 333.77688 
L 68.505907 333.77688 
L 71.456512 333.77688 
L 74.407116 333.77688 
L 77.357721 333.77688 
L 80.308326 333.77688 
L 83.25893 333.77688 
L 86.209535 333.77688 
L 89.16014 333.77688 
L 92.110745 333.77688 
L 95.061349 333.77688 
L 98.011954 333.77688 
L 100.962559 333.77688 
L 103.913163 333.77688 
L 106.863768 333.77688 
L 109.814373 333.77688 
L 112.764977 333.77688 
L 115.715582 333.77688 
L 118.666187 333.77688 
L 121.616791 333.77688 
L 124.567396 333.77688 
L 127.518001 333.77688 
L 130.468605 333.77688 
L 133.41921 333.77688 
L 136.369815 333.77688 
L 139.32042 333.77688 
L 142.271024 333.77688 
L 145.221629 333.77688 
L 148.172234 333.77688 
L 151.122838 333.77688 
L 154.073443 333.77688 
L 157.024048 333.77688 
L 159.974652 333.77688 
L 162.925257 333.77688 
L 165.875862 333.77688 
L 168.826466 333.77688 
L 171.777071 333.77688 
L 174.727676 333.77688 
L 177.67828 333.77688 
L 180.628885 333.77688 
L 183.57949 333.77688 
L 186.530095 333.77688 
L 189.480699 333.77688 
L 192.431304 333.77688 
L 195.381909 333.77688 
L 198.332513 333.77688 
L 201.283118 333.77688 
L 204.233723 333.77688 
L 207.184327 333.77688 
L 210.134932 333.77688 
L 213.085537 333.77688 
L 216.036141 333.77688 
L 216.036141 331.09896 
L 216.036141 328.42104 
L 216.036141 325.74312 
L 216.036141 323.0652 
L 216.036141 320.38728 
L 216.036141 317.70936 
L 216.036141 315.03144 
L 216.036141 312.35352 
L 216.036141 309.6756 
L 216.036141 306.99768 
L 216.036141 304.31976 
L 216.036141 301.64184 
L 216.036141 298.96392 
L 216.036141 296.286 
L 216.036141 293.60808 
L 216.036141 290.93016 
L 216.036141 288.25224 
L 216.036141 285.57432 
L 216.036141 282.8964 
L 216.036141 280.21848 
L 216.036141 277.54056 
L 216.036141 274.86264 
L 216.036141 272.18472 
L 216.036141 269.5068 
L 216.036141 266.82888 
L 216.036141 264.15096 
L 216.036141 261.47304 
L 216.036141 258.79512 
L 216.036141 256.1172 
L 216.036141 253.43928 
L 216.036141 250.76136 
L 216.036141 248.08344 
L 216.036141 245.40552 
L 216.036141 242.7276 
L 216.036141 240.04968 
L 216.036141 237.37176 
L 216.036141 234.69384 
L 216.036141 232.01592 
L 216.036141 229.338 
L 216.036141 226.66008 
L 216.036141 223.98216 
L 216.036141 221.30424 
L 216.036141 218.62632 
L 216.036141 215.9484 
L 216.036141 213.27048 
L 216.036141 210.59256 
L 216.036141 207.91464 
L 216.036141 205.23672 
L 216.036141 202.5588 
L 216.036141 199.88088 
L 216.036141 197.20296 
L 216.036141 194.52504 
L 216.036141 191.84712 
L 213.085537 191.84712 
L 210.134932 191.84712 
L 207.184327 191.84712 
L 204.233723 191.84712 
L 201.283118 191.84712 
L 198.332513 191.84712 
L 195.381909 191.84712 
L 192.431304 191.84712 
L 189.480699 191.84712 
L 186.530095 191.84712 
L 183.57949 191.84712 
L 180.628885 191.84712 
L 177.67828 191.84712 
L 174.727676 191.84712 
L 171.777071 191.84712 
L 168.826466 191.84712 
L 165.875862 191.84712 
L 162.925257 191.84712 
L 159.974652 191.84712 
L 157.024048 191.84712 
L 154.073443 191.84712 
L 151.122838 191.84712 
L 148.172234 191.84712 
L 145.221629 191.84712 
L 142.271024 191.84712 
L 139.32042 191.84712 
L 136.369815 191.84712 
L 133.41921 191.84712 
L 130.468605 191.84712 
L 127.518001 191.84712 
L 124.567396 191.84712 
L 121.616791 191.84712 
L 118.666187 191.84712 
L 115.715582 191.84712 
L 112.764977 191.84712 
L 109.814373 191.84712 
L 106.863768 191.84712 
L 103.913163 191.84712 
L 100.962559 191.84712 
L 98.011954 191.84712 
L 95.061349 191.84712 
L 92.110745 191.84712 
L 89.16014 191.84712 
L 86.209535 191.84712 
L 83.25893 191.84712 
L 80.308326 191.84712 
L 77.357721 191.84712 
L 74.407116 191.84712 
L 71.456512 191.84712 
L 68.505907 191.84712 
L 65.555302 191.84712 
L 62.604698 191.84712 
L 59.654093 191.84712 
L 59.654093 194.52504 
L 59.654093 197.20296 
L 59.654093 199.88088 
L 59.654093 202.5588 
L 59.654093 205.23672 
L 59.654093 207.91464 
L 59.654093 210.59256 
L 59.654093 213.27048 
L 59.654093 215.9484 
L 59.654093 218.62632 
L 59.654093 221.30424 
L 59.654093 223.98216 
L 59.654093 226.66008 
L 59.654093 229.338 
L 59.654093 232.01592 
L 59.654093 234.69384 
L 59.654093 237.37176 
L 59.654093 240.04968 
L 59.654093 242.7276 
L 59.654093 245.40552 
L 59.654093 248.08344 
L 59.654093 250.76136 
L 59.654093 253.43928 
L 59.654093 256.1172 
L 59.654093 258.79512 
L 59.654093 261.47304 
L 59.654093 264.15096 
L 59.654093 266.82888 
L 59.654093 269.5068 
L 59.654093 272.18472 
L 59.654093 274.86264 
L 59.654093 277.54056 
L 59.654093 280.21848 
L 59.654093 282.8964 
L 59.654093 285.57432 
L 59.654093 288.25224 
L 59.654093 290.93016 
L 59.654093 293.60808 
L 59.654093 296.286 
L 59.654093 298.96392 
L 59.654093 301.64184 
L 59.654093 304.31976 
L 59.654093 306.99768 
L 59.654093 309.6756 
L 59.654093 312.35352 
L 59.654093 315.03144 
L 59.654093 317.70936 
L 59.654093 320.38728 
L 59.654093 323.0652 
L 59.654093 325.74312 
L 59.654093 328.42104 
L 59.654093 331.09896 
L 59.654093 333.77688 
L 62.604698 333.77688 
z
M 88.009352 315.03144 
L 88.482148 312.35352 
L 89.16014 311.669203 
L 90.668152 309.6756 
L 92.110745 308.200211 
L 92.923884 306.99768 
L 95.061349 304.733374 
L 95.406492 304.31976 
L 98.011954 302.166955 
L 98.652874 301.64184 
L 100.962559 299.881097 
L 102.015872 298.96392 
L 103.913163 297.40709 
L 105.309748 296.286 
L 106.863768 294.981647 
L 108.33227 293.60808 
L 109.814373 292.23526 
L 111.315995 290.93016 
L 112.764977 289.758438 
L 114.829726 288.25224 
L 115.715582 287.552774 
L 118.070932 285.57432 
L 118.666187 285.009532 
L 120.526756 282.8964 
L 121.616791 281.786916 
L 123.256177 280.21848 
L 124.567396 279.099975 
L 126.938436 277.54056 
L 127.518001 277.116574 
L 130.468605 275.111069 
L 130.801526 274.86264 
L 133.41921 272.581332 
L 133.846785 272.18472 
L 136.369815 269.825056 
L 136.712616 269.5068 
L 139.32042 267.112197 
L 139.645244 266.82888 
L 142.271024 264.45858 
L 142.639906 264.15096 
L 145.221629 261.842761 
L 145.631443 261.47304 
L 148.172234 259.164004 
L 148.586535 258.79512 
L 151.122838 256.614072 
L 151.7696 256.1172 
L 154.073443 254.145476 
L 154.920402 253.43928 
L 157.024048 251.532926 
L 157.949168 250.76136 
L 159.974652 248.897763 
L 160.911097 248.08344 
L 162.925257 246.29188 
L 164.103074 245.40552 
L 165.875862 243.964571 
L 167.460717 242.7276 
L 168.826466 241.458952 
L 170.513621 240.04968 
L 171.777071 238.968245 
L 174.308266 237.37176 
L 174.727676 237.023867 
L 177.67828 234.873783 
L 177.982878 234.69384 
L 180.628885 232.7523 
L 181.979483 232.01592 
L 183.57949 230.9132 
L 186.530095 229.63518 
L 189.480699 230.12674 
L 190.102612 232.01592 
L 190.311607 234.69384 
L 190.351115 237.37176 
L 190.116594 240.04968 
L 189.54224 242.7276 
L 189.480699 242.91696 
L 188.935059 245.40552 
L 188.079069 248.08344 
L 186.743226 250.76136 
L 186.530095 251.134181 
L 185.652743 253.43928 
L 184.036299 256.1172 
L 183.57949 256.70158 
L 182.523738 258.79512 
L 180.628885 261.217728 
L 180.482996 261.47304 
L 178.823141 264.15096 
L 177.67828 265.67557 
L 176.980786 266.82888 
L 174.727676 269.396883 
L 174.640897 269.5068 
L 172.11446 272.18472 
L 171.777071 272.491378 
L 169.594526 274.86264 
L 168.826466 275.572809 
L 166.724219 277.54056 
L 165.875862 278.28635 
L 163.549837 280.21848 
L 162.925257 280.772903 
L 160.515247 282.8964 
L 159.974652 283.39684 
L 157.423615 285.57432 
L 157.024048 285.923517 
L 154.073443 288.25224 
L 154.073443 288.25224 
L 151.122838 290.528979 
L 150.511499 290.93016 
L 148.172234 292.693455 
L 146.656989 293.60808 
L 145.221629 294.707984 
L 142.532906 296.286 
L 142.271024 296.487008 
L 139.32042 298.493311 
L 138.337571 298.96392 
L 136.369815 300.230115 
L 133.41921 301.58157 
L 133.272627 301.64184 
L 130.468605 303.291807 
L 127.680771 304.31976 
L 127.518001 304.418239 
L 124.567396 305.970559 
L 121.616791 306.893479 
L 121.316979 306.99768 
L 118.666187 308.445222 
L 115.715582 309.501817 
L 115.154068 309.6756 
L 112.764977 310.788954 
L 109.814373 311.734488 
L 107.072053 312.35352 
L 106.863768 312.437054 
L 103.913163 313.453107 
L 100.962559 314.238125 
L 98.011954 314.862437 
L 97.205402 315.03144 
L 95.061349 315.601548 
L 92.110745 315.906148 
L 89.16014 315.559432 
L 88.009352 315.03144 
z
" clip-path="url(#pb4c69416b8)" style="fill: none"/>
    <path d="M 89.16014 315.559432 
L 92.110745 315.906148 
L 95.061349 315.601548 
L 97.205402 315.03144 
L 98.011954 314.862437 
L 100.962559 314.238125 
L 103.913163 313.453107 
L 106.863768 312.437054 
L 107.072053 312.35352 
L 109.814373 311.734488 
L 112.764977 310.788954 
L 115.154068 309.6756 
L 115.715582 309.501817 
L 118.666187 308.445222 
L 121.316979 306.99768 
L 121.616791 306.893479 
L 124.567396 305.970559 
L 127.518001 304.418239 
L 127.680771 304.31976 
L 130.468605 303.291807 
L 133.272627 301.64184 
L 133.41921 301.58157 
L 136.369815 300.230115 
L 138.337571 298.96392 
L 139.32042 298.493311 
L 142.271024 296.487008 
L 142.532906 296.286 
L 145.221629 294.707984 
L 146.656989 293.60808 
L 148.172234 292.693455 
L 150.511499 290.93016 
L 151.122838 290.528979 
L 154.073443 288.25224 
L 154.073443 288.25224 
L 157.024048 285.923517 
L 157.423615 285.57432 
L 159.974652 283.39684 
L 160.515247 282.8964 
L 162.925257 280.772903 
L 163.549837 280.21848 
L 165.875862 278.28635 
L 166.724219 277.54056 
L 168.826466 275.572809 
L 169.594526 274.86264 
L 171.777071 272.491378 
L 172.11446 272.18472 
L 174.640897 269.5068 
L 174.727676 269.396883 
L 176.980786 266.82888 
L 177.67828 265.67557 
L 178.823141 264.15096 
L 180.482996 261.47304 
L 180.628885 261.217728 
L 182.523738 258.79512 
L 183.57949 256.70158 
L 184.036299 256.1172 
L 185.652743 253.43928 
L 186.530095 251.134181 
L 186.743226 250.76136 
L 188.079069 248.08344 
L 188.935059 245.40552 
L 189.480699 242.91696 
L 189.54224 242.7276 
L 190.116594 240.04968 
L 190.351115 237.37176 
L 190.311607 234.69384 
L 190.102612 232.01592 
L 189.480699 230.12674 
L 186.530095 229.63518 
L 183.57949 230.9132 
L 181.979483 232.01592 
L 180.628885 232.7523 
L 177.982878 234.69384 
L 177.67828 234.873783 
L 174.727676 237.023867 
L 174.308266 237.37176 
L 171.777071 238.968245 
L 170.513621 240.04968 
L 168.826466 241.458952 
L 167.460717 242.7276 
L 165.875862 243.964571 
L 164.103074 245.40552 
L 162.925257 246.29188 
L 160.911097 248.08344 
L 159.974652 248.897763 
L 157.949168 250.76136 
L 157.024048 251.532926 
L 154.920402 253.43928 
L 154.073443 254.145476 
L 151.7696 256.1172 
L 151.122838 256.614072 
L 148.586535 258.79512 
L 148.172234 259.164004 
L 145.631443 261.47304 
L 145.221629 261.842761 
L 142.639906 264.15096 
L 142.271024 264.45858 
L 139.645244 266.82888 
L 139.32042 267.112197 
L 136.712616 269.5068 
L 136.369815 269.825056 
L 133.846785 272.18472 
L 133.41921 272.581332 
L 130.801526 274.86264 
L 130.468605 275.111069 
L 127.518001 277.116574 
L 126.938436 277.54056 
L 124.567396 279.099975 
L 123.256177 280.21848 
L 121.616791 281.786916 
L 120.526756 282.8964 
L 118.666187 285.009532 
L 118.070932 285.57432 
L 115.715582 287.552774 
L 114.829726 288.25224 
L 112.764977 289.758438 
L 111.315995 290.93016 
L 109.814373 292.23526 
L 108.33227 293.60808 
L 106.863768 294.981647 
L 105.309748 296.286 
L 103.913163 297.40709 
L 102.015872 298.96392 
L 100.962559 299.881097 
L 98.652874 301.64184 
L 98.011954 302.166955 
L 95.406492 304.31976 
L 95.061349 304.733374 
L 92.923884 306.99768 
L 92.110745 308.200211 
L 90.668152 309.6756 
L 89.16014 311.669203 
L 88.482148 312.35352 
L 88.009352 315.03144 
z
M 115.023098 298.96392 
L 115.715582 297.17531 
L 115.978734 296.286 
L 118.067481 293.60808 
L 118.666187 293.042908 
L 120.654632 290.93016 
L 121.616791 290.053463 
L 123.399778 288.25224 
L 124.567396 287.089681 
L 126.022812 285.57432 
L 127.518001 284.177271 
L 128.914544 282.8964 
L 130.468605 281.620737 
L 132.257355 280.21848 
L 133.41921 279.316355 
L 135.5449 277.54056 
L 136.369815 276.810822 
L 138.500953 274.86264 
L 139.32042 274.111509 
L 141.5155 272.18472 
L 142.271024 271.515584 
L 144.635008 269.5068 
L 145.221629 268.999609 
L 147.738347 266.82888 
L 148.172234 266.447603 
L 150.755424 264.15096 
L 151.122838 263.81535 
L 153.900434 261.47304 
L 154.073443 261.327565 
L 157.024048 259.148031 
L 157.579143 258.79512 
L 159.974652 257.030061 
L 161.452497 256.1172 
L 162.925257 255.043227 
L 165.602601 253.43928 
L 165.875862 253.240211 
L 168.826466 251.597082 
L 171.358964 250.76136 
L 171.777071 250.596181 
L 172.575066 250.76136 
L 174.727676 252.491813 
L 174.954089 253.43928 
L 174.727676 254.46535 
L 174.362968 256.1172 
L 173.176025 258.79512 
L 171.777071 261.47304 
L 171.777071 261.47304 
L 170.326335 264.15096 
L 168.826466 266.185695 
L 168.407842 266.82888 
L 166.157687 269.5068 
L 165.875862 269.809513 
L 163.753392 272.18472 
L 162.925257 272.998924 
L 161.064925 274.86264 
L 159.974652 275.858132 
L 158.218798 277.54056 
L 157.024048 278.586028 
L 155.153581 280.21848 
L 154.073443 281.150836 
L 152.015486 282.8964 
L 151.122838 283.658635 
L 148.688874 285.57432 
L 148.172234 285.986872 
L 145.221629 288.181668 
L 145.122274 288.25224 
L 142.271024 290.245163 
L 141.074927 290.93016 
L 139.32042 292.073273 
L 136.398795 293.60808 
L 136.369815 293.626372 
L 133.41921 295.204832 
L 130.969562 296.286 
L 130.468605 296.549723 
L 127.518001 297.861385 
L 124.587634 298.96392 
L 124.567396 298.972795 
L 121.616791 299.920886 
L 118.666187 300.45564 
L 115.715582 299.896024 
z
" clip-path="url(#pb4c69416b8)" style="fill: #00bfbf; fill-opacity: 0.333333"/>
    <path d="M 115.715582 299.896024 
L 118.666187 300.45564 
L 121.616791 299.920886 
L 124.567396 298.972795 
L 124.587634 298.96392 
L 127.518001 297.861385 
L 130.468605 296.549723 
L 130.969562 296.286 
L 133.41921 295.204832 
L 136.369815 293.626372 
L 136.398795 293.60808 
L 139.32042 292.073273 
L 141.074927 290.93016 
L 142.271024 290.245163 
L 145.122274 288.25224 
L 145.221629 288.181668 
L 148.172234 285.986872 
L 148.688874 285.57432 
L 151.122838 283.658635 
L 152.015486 282.8964 
L 154.073443 281.150836 
L 155.153581 280.21848 
L 157.024048 278.586028 
L 158.218798 277.54056 
L 159.974652 275.858132 
L 161.064925 274.86264 
L 162.925257 272.998924 
L 163.753392 272.18472 
L 165.875862 269.809513 
L 166.157687 269.5068 
L 168.407842 266.82888 
L 168.826466 266.185695 
L 170.326335 264.15096 
L 171.777071 261.47304 
L 171.777071 261.47304 
L 173.176025 258.79512 
L 174.362968 256.1172 
L 174.727676 254.46535 
L 174.954089 253.43928 
L 174.727676 252.491813 
L 172.575066 250.76136 
L 171.777071 250.596181 
L 171.358964 250.76136 
L 168.826466 251.597082 
L 165.875862 253.240211 
L 165.602601 253.43928 
L 162.925257 255.043227 
L 161.452497 256.1172 
L 159.974652 257.030061 
L 157.579143 258.79512 
L 157.024048 259.148031 
L 154.073443 261.327565 
L 153.900434 261.47304 
L 151.122838 263.81535 
L 150.755424 264.15096 
L 148.172234 266.447603 
L 147.738347 266.82888 
L 145.221629 268.999609 
L 144.635008 269.5068 
L 142.271024 271.515584 
L 141.5155 272.18472 
L 139.32042 274.111509 
L 138.500953 274.86264 
L 136.369815 276.810822 
L 135.5449 277.54056 
L 133.41921 279.316355 
L 132.257355 280.21848 
L 130.468605 281.620737 
L 128.914544 282.8964 
L 127.518001 284.177271 
L 126.022812 285.57432 
L 124.567396 287.089681 
L 123.399778 288.25224 
L 121.616791 290.053463 
L 120.654632 290.93016 
L 118.666187 293.042908 
L 118.067481 293.60808 
L 115.978734 296.286 
L 115.715582 297.17531 
L 115.023098 298.96392 
z
" clip-path="url(#pb4c69416b8)" style="fill: #00bfbf"/>
   </g>
   <g id="matplotlib.axis_5">
    <g id="xtick_5">
     <g id="line2d_6">
      <g>
       <use xlink:href="#mfb60e9e55c" x="99.626608" y="329.76" style="stroke: #000000; stroke-width: 0.8"/>
      </g>
     </g>
     <g id="text_2">
      <!-- 0.1 -->
      <g transform="translate(95.955177 353.378114) rotate(-45) scale(0.1 -0.1)">
       <use xlink:href="#DejaVuSans-30"/>
       <use xlink:href="#DejaVuSans-2e" x="63.623047"/>
       <use xlink:href="#DejaVuSans-31" x="95.410156"/>
      </g>
     </g>
    </g>
    <g id="xtick_6">
     <g id="line2d_7">
      <g>
       <use xlink:href="#mfb60e9e55c" x="136.012444" y="329.76" style="stroke: #000000; stroke-width: 0.8"/>
      </g>
     </g>
     <g id="text_3">
      <!-- 0.2 -->
      <g transform="translate(132.341013 353.378114) rotate(-45) scale(0.1 -0.1)">
       <use xlink:href="#DejaVuSans-30"/>
       <use xlink:href="#DejaVuSans-2e" x="63.623047"/>
       <use xlink:href="#DejaVuSans-32" x="95.410156"/>
      </g>
     </g>
    </g>
    <g id="xtick_7">
     <g id="line2d_8">
      <g>
       <use xlink:href="#mfb60e9e55c" x="172.398281" y="329.76" style="stroke: #000000; stroke-width: 0.8"/>
      </g>
     </g>
     <g id="text_4">
      <!-- 0.3 -->
      <g transform="translate(168.72685 353.378114) rotate(-45) scale(0.1 -0.1)">
       <use xlink:href="#DejaVuSans-30"/>
       <use xlink:href="#DejaVuSans-2e" x="63.623047"/>
       <use xlink:href="#DejaVuSans-33" x="95.410156"/>
      </g>
     </g>
    </g>
    <g id="xtick_8">
     <g id="line2d_9">
      <g>
       <use xlink:href="#mfb60e9e55c" x="208.784118" y="329.76" style="stroke: #000000; stroke-width: 0.8"/>
      </g>
     </g>
     <g id="text_5">
      <!-- 0.4 -->
      <g transform="translate(205.112687 353.378114) rotate(-45) scale(0.1 -0.1)">
       <defs>
        <path id="DejaVuSans-34" d="M 2419 4116 
L 825 1625 
L 2419 1625 
L 2419 4116 
z
M 2253 4666 
L 3047 4666 
L 3047 1625 
L 3713 1625 
L 3713 1100 
L 3047 1100 
L 3047 0 
L 2419 0 
L 2419 1100 
L 313 1100 
L 313 1709 
L 2253 4666 
z
" transform="scale(0.015625)"/>
       </defs>
       <use xlink:href="#DejaVuSans-30"/>
       <use xlink:href="#DejaVuSans-2e" x="63.623047"/>
       <use xlink:href="#DejaVuSans-34" x="95.410156"/>
      </g>
     </g>
    </g>
    <g id="text_6">
     <!-- $\Omega_{2,0}$ -->
     <g transform="translate(127.545117 377.3288) scale(0.1 -0.1)">
      <use xlink:href="#DejaVuSans-3a9" transform="translate(0 0.21875)"/>
      <use xlink:href="#DejaVuSans-32" transform="translate(77.373047 -16.1875) scale(0.7)"/>
      <use xlink:href="#DejaVuSans-2c" transform="translate(121.90918 -16.1875) scale(0.7)"/>
      <use xlink:href="#DejaVuSans-30" transform="translate(157.797852 -16.1875) scale(0.7)"/>
     </g>
    </g>
   </g>
   <g id="matplotlib.axis_6">
    <g id="ytick_1">
     <g id="line2d_10">
      <defs>
       <path id="mf1a659bf59" d="M 0 0 
L -3.5 0 
" style="stroke: #000000; stroke-width: 0.8"/>
      </defs>
      <g>
       <use xlink:href="#mf1a659bf59" x="64.08" y="326.660803" style="stroke: #000000; stroke-width: 0.8"/>
      </g>
     </g>
     <g id="text_7">
      <!-- −1.5 -->
      <g transform="translate(38.438897 345.405032) rotate(-45) scale(0.1 -0.1)">
       <use xlink:href="#DejaVuSans-2212"/>
       <use xlink:href="#DejaVuSans-31" x="83.789062"/>
       <use xlink:href="#DejaVuSans-2e" x="147.412109"/>
       <use xlink:href="#DejaVuSans-35" x="179.199219"/>
      </g>
     </g>
    </g>
    <g id="ytick_2">
     <g id="line2d_11">
      <g>
       <use xlink:href="#mf1a659bf59" x="64.08" y="297.782344" style="stroke: #000000; stroke-width: 0.8"/>
      </g>
     </g>
     <g id="text_8">
      <!-- −1.0 -->
      <g transform="translate(38.438897 316.526574) rotate(-45) scale(0.1 -0.1)">
       <use xlink:href="#DejaVuSans-2212"/>
       <use xlink:href="#DejaVuSans-31" x="83.789062"/>
       <use xlink:href="#DejaVuSans-2e" x="147.412109"/>
       <use xlink:href="#DejaVuSans-30" x="179.199219"/>
      </g>
     </g>
    </g>
    <g id="ytick_3">
     <g id="line2d_12">
      <g>
       <use xlink:href="#mf1a659bf59" x="64.08" y="268.903886" style="stroke: #000000; stroke-width: 0.8"/>
      </g>
     </g>
     <g id="text_9">
      <!-- −0.5 -->
      <g transform="translate(38.438897 287.648115) rotate(-45) scale(0.1 -0.1)">
       <use xlink:href="#DejaVuSans-2212"/>
       <use xlink:href="#DejaVuSans-30" x="83.789062"/>
       <use xlink:href="#DejaVuSans-2e" x="147.412109"/>
       <use xlink:href="#DejaVuSans-35" x="179.199219"/>
      </g>
     </g>
    </g>
    <g id="ytick_4">
     <g id="line2d_13">
      <g>
       <use xlink:href="#mf1a659bf59" x="64.08" y="240.025428" style="stroke: #000000; stroke-width: 0.8"/>
      </g>
     </g>
     <g id="text_10">
      <!-- 0.0 -->
      <g transform="translate(44.364231 252.844323) rotate(-45) scale(0.1 -0.1)">
       <use xlink:href="#DejaVuSans-30"/>
       <use xlink:href="#DejaVuSans-2e" x="63.623047"/>
       <use xlink:href="#DejaVuSans-30" x="95.410156"/>
      </g>
     </g>
    </g>
    <g id="ytick_5">
     <g id="line2d_14">
      <g>
       <use xlink:href="#mf1a659bf59" x="64.08" y="211.14697" style="stroke: #000000; stroke-width: 0.8"/>
      </g>
     </g>
     <g id="text_11">
      <!-- 0.5 -->
      <g transform="translate(44.364231 223.965865) rotate(-45) scale(0.1 -0.1)">
       <use xlink:href="#DejaVuSans-30"/>
       <use xlink:href="#DejaVuSans-2e" x="63.623047"/>
       <use xlink:href="#DejaVuSans-35" x="95.410156"/>
      </g>
     </g>
    </g>
    <g id="text_12">
     <!-- $n$ -->
     <g transform="translate(17.741242 266.012) rotate(-90) scale(0.1 -0.1)">
      <defs>
       <path id="DejaVuSans-Oblique-6e" d="M 3566 2113 
L 3156 0 
L 2578 0 
L 2988 2091 
Q 3016 2238 3031 2350 
Q 3047 2463 3047 2528 
Q 3047 2791 2881 2937 
Q 2716 3084 2419 3084 
Q 1956 3084 1622 2776 
Q 1288 2469 1184 1941 
L 800 0 
L 225 0 
L 903 3500 
L 1478 3500 
L 1363 2950 
Q 1603 3253 1940 3418 
Q 2278 3584 2650 3584 
Q 3113 3584 3367 3334 
Q 3622 3084 3622 2631 
Q 3622 2519 3608 2391 
Q 3594 2263 3566 2113 
z
" transform="scale(0.015625)"/>
      </defs>
      <use xlink:href="#DejaVuSans-Oblique-6e"/>
     </g>
    </g>
   </g>
   <g id="QuadContourSet_3">
    <path d="M 89.16014 315.559432 
L 92.110745 315.906148 
L 95.061349 315.601548 
L 97.205402 315.03144 
L 98.011954 314.862437 
L 100.962559 314.238125 
L 103.913163 313.453107 
L 106.863768 312.437054 
L 107.072053 312.35352 
L 109.814373 311.734488 
L 112.764977 310.788954 
L 115.154068 309.6756 
L 115.715582 309.501817 
L 118.666187 308.445222 
L 121.316979 306.99768 
L 121.616791 306.893479 
L 124.567396 305.970559 
L 127.518001 304.418239 
L 127.680771 304.31976 
L 130.468605 303.291807 
L 133.272627 301.64184 
L 133.41921 301.58157 
L 136.369815 300.230115 
L 138.337571 298.96392 
L 139.32042 298.493311 
L 142.271024 296.487008 
L 142.532906 296.286 
L 145.221629 294.707984 
L 146.656989 293.60808 
L 148.172234 292.693455 
L 150.511499 290.93016 
L 151.122838 290.528979 
L 154.073443 288.25224 
L 154.073443 288.25224 
L 157.024048 285.923517 
L 157.423615 285.57432 
L 159.974652 283.39684 
L 160.515247 282.8964 
L 162.925257 280.772903 
L 163.549837 280.21848 
L 165.875862 278.28635 
L 166.724219 277.54056 
L 168.826466 275.572809 
L 169.594526 274.86264 
L 171.777071 272.491378 
L 172.11446 272.18472 
L 174.640897 269.5068 
L 174.727676 269.396883 
L 176.980786 266.82888 
L 177.67828 265.67557 
L 178.823141 264.15096 
L 180.482996 261.47304 
L 180.628885 261.217728 
L 182.523738 258.79512 
L 183.57949 256.70158 
L 184.036299 256.1172 
L 185.652743 253.43928 
L 186.530095 251.134181 
L 186.743226 250.76136 
L 188.079069 248.08344 
L 188.935059 245.40552 
L 189.480699 242.91696 
L 189.54224 242.7276 
L 190.116594 240.04968 
L 190.351115 237.37176 
L 190.311607 234.69384 
L 190.102612 232.01592 
L 189.480699 230.12674 
L 186.530095 229.63518 
L 183.57949 230.9132 
L 181.979483 232.01592 
L 180.628885 232.7523 
L 177.982878 234.69384 
L 177.67828 234.873783 
L 174.727676 237.023867 
L 174.308266 237.37176 
L 171.777071 238.968245 
L 170.513621 240.04968 
L 168.826466 241.458952 
L 167.460717 242.7276 
L 165.875862 243.964571 
L 164.103074 245.40552 
L 162.925257 246.29188 
L 160.911097 248.08344 
L 159.974652 248.897763 
L 157.949168 250.76136 
L 157.024048 251.532926 
L 154.920402 253.43928 
L 154.073443 254.145476 
L 151.7696 256.1172 
L 151.122838 256.614072 
L 148.586535 258.79512 
L 148.172234 259.164004 
L 145.631443 261.47304 
L 145.221629 261.842761 
L 142.639906 264.15096 
L 142.271024 264.45858 
L 139.645244 266.82888 
L 139.32042 267.112197 
L 136.712616 269.5068 
L 136.369815 269.825056 
L 133.846785 272.18472 
L 133.41921 272.581332 
L 130.801526 274.86264 
L 130.468605 275.111069 
L 127.518001 277.116574 
L 126.938436 277.54056 
L 124.567396 279.099975 
L 123.256177 280.21848 
L 121.616791 281.786916 
L 120.526756 282.8964 
L 118.666187 285.009532 
L 118.070932 285.57432 
L 115.715582 287.552774 
L 114.829726 288.25224 
L 112.764977 289.758438 
L 111.315995 290.93016 
L 109.814373 292.23526 
L 108.33227 293.60808 
L 106.863768 294.981647 
L 105.309748 296.286 
L 103.913163 297.40709 
L 102.015872 298.96392 
L 100.962559 299.881097 
L 98.652874 301.64184 
L 98.011954 302.166955 
L 95.406492 304.31976 
L 95.061349 304.733374 
L 92.923884 306.99768 
L 92.110745 308.200211 
L 90.668152 309.6756 
L 89.16014 311.669203 
L 88.482148 312.35352 
L 88.009352 315.03144 
L 89.16014 315.559432 
z
" clip-path="url(#pb4c69416b8)" style="fill: none; stroke: #00bfbf; stroke-width: 1.5"/>
    <path d="M 115.715582 299.896024 
L 118.666187 300.45564 
L 121.616791 299.920886 
L 124.567396 298.972795 
L 124.587634 298.96392 
L 127.518001 297.861385 
L 130.468605 296.549723 
L 130.969562 296.286 
L 133.41921 295.204832 
L 136.369815 293.626372 
L 136.398795 293.60808 
L 139.32042 292.073273 
L 141.074927 290.93016 
L 142.271024 290.245163 
L 145.122274 288.25224 
L 145.221629 288.181668 
L 148.172234 285.986872 
L 148.688874 285.57432 
L 151.122838 283.658635 
L 152.015486 282.8964 
L 154.073443 281.150836 
L 155.153581 280.21848 
L 157.024048 278.586028 
L 158.218798 277.54056 
L 159.974652 275.858132 
L 161.064925 274.86264 
L 162.925257 272.998924 
L 163.753392 272.18472 
L 165.875862 269.809513 
L 166.157687 269.5068 
L 168.407842 266.82888 
L 168.826466 266.185695 
L 170.326335 264.15096 
L 171.777071 261.47304 
L 171.777071 261.47304 
L 173.176025 258.79512 
L 174.362968 256.1172 
L 174.727676 254.46535 
L 174.954089 253.43928 
L 174.727676 252.491813 
L 172.575066 250.76136 
L 171.777071 250.596181 
L 171.358964 250.76136 
L 168.826466 251.597082 
L 165.875862 253.240211 
L 165.602601 253.43928 
L 162.925257 255.043227 
L 161.452497 256.1172 
L 159.974652 257.030061 
L 157.579143 258.79512 
L 157.024048 259.148031 
L 154.073443 261.327565 
L 153.900434 261.47304 
L 151.122838 263.81535 
L 150.755424 264.15096 
L 148.172234 266.447603 
L 147.738347 266.82888 
L 145.221629 268.999609 
L 144.635008 269.5068 
L 142.271024 271.515584 
L 141.5155 272.18472 
L 139.32042 274.111509 
L 138.500953 274.86264 
L 136.369815 276.810822 
L 135.5449 277.54056 
L 133.41921 279.316355 
L 132.257355 280.21848 
L 130.468605 281.620737 
L 128.914544 282.8964 
L 127.518001 284.177271 
L 126.022812 285.57432 
L 124.567396 287.089681 
L 123.399778 288.25224 
L 121.616791 290.053463 
L 120.654632 290.93016 
L 118.666187 293.042908 
L 118.067481 293.60808 
L 115.978734 296.286 
L 115.715582 297.17531 
L 115.023098 298.96392 
L 115.715582 299.896024 
z
" clip-path="url(#pb4c69416b8)" style="fill: none; stroke: #00bfbf; stroke-width: 1.5"/>
   </g>
   <g id="patch_8">
    <path d="M 64.08 329.76 
L 64.08 195.864 
" style="fill: none; stroke: #000000; stroke-width: 0.8; stroke-linejoin: miter; stroke-linecap: square"/>
   </g>
   <g id="patch_9">
    <path d="M 211.610234 329.76 
L 211.610234 195.864 
" style="fill: none; stroke: #000000; stroke-width: 0.8; stroke-linejoin: miter; stroke-linecap: square"/>
   </g>
   <g id="patch_10">
    <path d="M 64.08 329.76 
L 211.610234 329.76 
" style="fill: none; stroke: #000000; stroke-width: 0.8; stroke-linejoin: miter; stroke-linecap: square"/>
   </g>
   <g id="patch_11">
    <path d="M 64.08 195.864 
L 211.610234 195.864 
" style="fill: none; stroke: #000000; stroke-width: 0.8; stroke-linejoin: miter; stroke-linecap: square"/>
   </g>
  </g>
  <g id="axes_4">
   <g id="patch_12">
    <path d="M 237.669766 329.76 
L 385.2 329.76 
L 385.2 195.864 
L 237.669766 195.864 
z
" style="fill: #ffffff"/>
   </g>
   <g id="matplotlib.axis_7">
    <g id="xtick_9">
     <g id="line2d_15">
      <g>
       <use xlink:href="#mfb60e9e55c" x="241.084545" y="329.76" style="stroke: #000000; stroke-width: 0.8"/>
      </g>
     </g>
     <g id="text_13">
      <!-- −1.5 -->
      <g transform="translate(234.450447 359.303448) rotate(-45) scale(0.1 -0.1)">
       <use xlink:href="#DejaVuSans-2212"/>
       <use xlink:href="#DejaVuSans-31" x="83.789062"/>
       <use xlink:href="#DejaVuSans-2e" x="147.412109"/>
       <use xlink:href="#DejaVuSans-35" x="179.199219"/>
      </g>
     </g>
    </g>
    <g id="xtick_10">
     <g id="line2d_16">
      <g>
       <use xlink:href="#mfb60e9e55c" x="272.903611" y="329.76" style="stroke: #000000; stroke-width: 0.8"/>
      </g>
     </g>
     <g id="text_14">
      <!-- −1.0 -->
      <g transform="translate(266.269514 359.303448) rotate(-45) scale(0.1 -0.1)">
       <use xlink:href="#DejaVuSans-2212"/>
       <use xlink:href="#DejaVuSans-31" x="83.789062"/>
       <use xlink:href="#DejaVuSans-2e" x="147.412109"/>
       <use xlink:href="#DejaVuSans-30" x="179.199219"/>
      </g>
     </g>
    </g>
    <g id="xtick_11">
     <g id="line2d_17">
      <g>
       <use xlink:href="#mfb60e9e55c" x="304.722678" y="329.76" style="stroke: #000000; stroke-width: 0.8"/>
      </g>
     </g>
     <g id="text_15">
      <!-- −0.5 -->
      <g transform="translate(298.08858 359.303448) rotate(-45) scale(0.1 -0.1)">
       <use xlink:href="#DejaVuSans-2212"/>
       <use xlink:href="#DejaVuSans-30" x="83.789062"/>
       <use xlink:href="#DejaVuSans-2e" x="147.412109"/>
       <use xlink:href="#DejaVuSans-35" x="179.199219"/>
      </g>
     </g>
    </g>
    <g id="xtick_12">
     <g id="line2d_18">
      <g>
       <use xlink:href="#mfb60e9e55c" x="336.541744" y="329.76" style="stroke: #000000; stroke-width: 0.8"/>
      </g>
     </g>
     <g id="text_16">
      <!-- 0.0 -->
      <g transform="translate(332.870313 353.378114) rotate(-45) scale(0.1 -0.1)">
       <use xlink:href="#DejaVuSans-30"/>
       <use xlink:href="#DejaVuSans-2e" x="63.623047"/>
       <use xlink:href="#DejaVuSans-30" x="95.410156"/>
      </g>
     </g>
    </g>
    <g id="xtick_13">
     <g id="line2d_19">
      <g>
       <use xlink:href="#mfb60e9e55c" x="368.360811" y="329.76" style="stroke: #000000; stroke-width: 0.8"/>
      </g>
     </g>
     <g id="text_17">
      <!-- 0.5 -->
      <g transform="translate(364.68938 353.378114) rotate(-45) scale(0.1 -0.1)">
       <use xlink:href="#DejaVuSans-30"/>
       <use xlink:href="#DejaVuSans-2e" x="63.623047"/>
       <use xlink:href="#DejaVuSans-35" x="95.410156"/>
      </g>
     </g>
    </g>
    <g id="text_18">
     <!-- $n$ -->
     <g transform="translate(308.234883 377.527238) scale(0.1 -0.1)">
      <use xlink:href="#DejaVuSans-Oblique-6e"/>
     </g>
    </g>
   </g>
   <g id="matplotlib.axis_8"/>
   <g id="line2d_20">
    <path d="M 237.669766 329.509368 
L 239.882719 329.425824 
L 239.882719 329.34228 
L 241.358021 329.258736 
L 241.358021 329.175192 
L 242.095673 329.175192 
L 242.095673 329.008104 
L 243.570975 328.92456 
L 243.570975 328.757472 
L 244.308626 328.757472 
L 244.308626 328.50684 
L 245.046277 328.50684 
L 245.046277 328.339752 
L 245.783929 328.339752 
L 245.783929 328.08912 
L 246.52158 328.08912 
L 246.52158 327.754944 
L 247.259231 327.754944 
L 247.259231 327.420767 
L 247.996882 327.420767 
L 247.996882 327.003047 
L 248.734533 327.003047 
L 248.734533 326.585327 
L 249.472184 326.585327 
L 249.472184 326.084063 
L 250.209836 326.084063 
L 250.209836 325.499255 
L 250.947487 325.499255 
L 250.947487 324.830903 
L 251.685138 324.830903 
L 251.685138 324.162551 
L 252.422789 324.162551 
L 252.422789 323.410655 
L 253.16044 323.410655 
L 253.16044 322.658758 
L 253.898091 322.658758 
L 253.898091 321.823318 
L 254.635743 321.823318 
L 254.635743 320.987878 
L 255.373394 320.987878 
L 255.373394 320.068894 
L 256.111045 320.068894 
L 256.111045 319.14991 
L 256.848696 319.14991 
L 256.848696 318.063837 
L 257.586347 318.063837 
L 257.586347 316.894221 
L 258.323998 316.894221 
L 258.323998 315.641061 
L 259.06165 315.641061 
L 259.06165 314.220812 
L 259.799301 314.220812 
L 259.799301 312.71702 
L 260.536952 312.71702 
L 260.536952 311.04614 
L 261.274603 311.04614 
L 261.274603 309.208171 
L 262.012254 309.208171 
L 262.012254 307.370203 
L 262.749905 307.370203 
L 262.749905 305.365146 
L 263.487557 305.365146 
L 263.487557 303.276546 
L 264.225208 303.276546 
L 264.225208 301.104401 
L 264.962859 301.104401 
L 264.962859 298.932257 
L 265.70051 298.932257 
L 265.70051 296.50948 
L 266.438161 296.50948 
L 266.438161 294.086704 
L 267.175813 294.086704 
L 267.175813 291.496839 
L 267.913464 291.496839 
L 267.913464 288.82343 
L 268.651115 288.82343 
L 268.651115 286.066478 
L 269.388766 286.066478 
L 269.388766 283.142437 
L 270.126417 283.142437 
L 270.126417 280.134852 
L 270.864068 280.134852 
L 270.864068 276.96018 
L 271.60172 276.96018 
L 271.60172 273.785507 
L 272.339371 273.785507 
L 272.339371 270.52729 
L 273.077022 270.52729 
L 273.077022 267.185529 
L 273.814673 267.185529 
L 273.814673 263.843769 
L 274.552324 263.843769 
L 274.552324 260.502008 
L 275.289975 260.502008 
L 275.289975 257.076703 
L 276.027627 257.076703 
L 276.027627 253.734942 
L 276.765278 253.734942 
L 276.765278 250.393182 
L 277.502929 250.393182 
L 277.502929 247.134965 
L 278.24058 247.134965 
L 278.24058 243.876748 
L 278.978231 243.876748 
L 278.978231 240.618531 
L 279.715882 240.618531 
L 279.715882 237.443858 
L 280.453534 237.443858 
L 280.453534 234.269186 
L 281.191185 234.269186 
L 281.191185 231.094513 
L 281.928836 231.094513 
L 281.928836 228.003384 
L 282.666487 228.003384 
L 282.666487 224.9958 
L 283.404138 224.9958 
L 283.404138 222.071759 
L 284.141789 222.071759 
L 284.141789 219.39835 
L 284.879441 219.39835 
L 284.879441 216.89203 
L 285.617092 216.89203 
L 285.617092 214.719885 
L 286.354743 214.719885 
L 286.354743 212.881917 
L 287.092394 212.881917 
L 287.092394 211.378124 
L 287.830045 211.378124 
L 287.830045 210.208508 
L 288.567696 210.208508 
L 288.567696 209.373068 
L 289.305348 209.373068 
L 289.305348 208.704716 
L 290.042999 208.704716 
L 290.042999 208.37054 
L 290.78065 208.37054 
L 290.78065 208.119908 
L 294.468906 208.203452 
L 294.468906 208.37054 
L 295.206557 208.37054 
L 295.206557 208.704716 
L 295.944208 208.704716 
L 295.944208 209.122436 
L 296.681859 209.122436 
L 296.681859 209.6237 
L 297.419511 209.6237 
L 297.419511 210.45914 
L 298.157162 210.45914 
L 298.157162 211.378124 
L 298.894813 211.378124 
L 298.894813 212.464197 
L 299.632464 212.464197 
L 299.632464 213.717357 
L 300.370115 213.717357 
L 300.370115 215.054061 
L 301.107766 215.054061 
L 301.107766 216.390766 
L 301.845418 216.390766 
L 301.845418 217.72747 
L 302.583069 217.72747 
L 302.583069 218.98063 
L 303.32072 218.98063 
L 303.32072 220.23379 
L 304.058371 220.23379 
L 304.058371 221.486951 
L 304.796022 221.486951 
L 304.796022 222.823655 
L 305.533673 222.823655 
L 305.533673 224.327447 
L 306.271325 224.327447 
L 306.271325 225.998328 
L 307.008976 225.998328 
L 307.008976 227.836296 
L 307.746627 227.836296 
L 307.746627 230.008441 
L 308.484278 230.008441 
L 308.484278 232.431217 
L 309.221929 232.431217 
L 309.221929 235.021082 
L 309.95958 235.021082 
L 309.95958 237.861579 
L 310.697232 237.861579 
L 310.697232 240.785619 
L 311.434883 240.785619 
L 311.434883 243.876748 
L 312.172534 243.876748 
L 312.172534 246.967877 
L 312.910185 246.967877 
L 312.910185 250.059005 
L 313.647836 250.059005 
L 313.647836 253.233678 
L 314.385488 253.233678 
L 314.385488 256.241263 
L 315.123139 256.241263 
L 315.123139 259.248848 
L 315.86079 259.248848 
L 315.86079 262.172888 
L 316.598441 262.172888 
L 316.598441 265.013385 
L 317.336092 265.013385 
L 317.336092 267.853882 
L 318.073743 267.853882 
L 318.073743 270.52729 
L 318.811395 270.52729 
L 318.811395 273.117155 
L 319.549046 273.117155 
L 319.549046 275.707019 
L 320.286697 275.707019 
L 320.286697 278.129796 
L 321.024348 278.129796 
L 321.024348 280.552573 
L 321.761999 280.552573 
L 321.761999 282.891805 
L 322.49965 282.891805 
L 322.49965 285.147494 
L 323.237302 285.147494 
L 323.237302 287.319638 
L 323.974953 287.319638 
L 323.974953 289.491783 
L 324.712604 289.491783 
L 324.712604 291.580383 
L 325.450255 291.580383 
L 325.450255 293.668984 
L 326.187906 293.668984 
L 326.187906 295.67404 
L 326.925557 295.67404 
L 326.925557 297.679097 
L 327.663209 297.679097 
L 327.663209 299.600609 
L 328.40086 299.600609 
L 328.40086 301.438577 
L 329.138511 301.438577 
L 329.138511 303.276546 
L 329.876162 303.276546 
L 329.876162 305.114514 
L 330.613813 305.114514 
L 330.613813 306.785395 
L 331.351464 306.785395 
L 331.351464 308.372731 
L 332.089116 308.372731 
L 332.089116 309.876523 
L 332.826767 309.876523 
L 332.826767 311.296772 
L 333.564418 311.296772 
L 333.564418 312.633476 
L 334.302069 312.633476 
L 334.302069 313.803092 
L 335.03972 313.803092 
L 335.03972 314.889165 
L 335.777371 314.889165 
L 335.777371 315.975237 
L 336.515023 315.975237 
L 336.515023 316.977765 
L 337.252674 316.977765 
L 337.252674 317.813205 
L 337.990325 317.813205 
L 337.990325 318.732189 
L 338.727976 318.732189 
L 338.727976 319.484086 
L 339.465627 319.484086 
L 339.465627 320.152438 
L 340.203279 320.152438 
L 340.203279 320.82079 
L 340.94093 320.82079 
L 340.94093 321.405598 
L 341.678581 321.405598 
L 341.678581 321.990406 
L 342.416232 321.990406 
L 342.416232 322.49167 
L 343.153883 322.49167 
L 343.153883 322.90939 
L 343.891534 322.90939 
L 343.891534 323.410655 
L 344.629186 323.410655 
L 344.629186 323.828375 
L 345.366837 323.828375 
L 345.366837 324.162551 
L 346.104488 324.162551 
L 346.104488 324.496727 
L 346.842139 324.496727 
L 346.842139 324.830903 
L 347.57979 324.830903 
L 347.57979 325.165079 
L 348.317441 325.165079 
L 348.317441 325.415711 
L 349.055093 325.415711 
L 349.055093 325.666343 
L 349.792744 325.666343 
L 349.792744 325.916975 
L 350.530395 325.916975 
L 350.530395 326.251151 
L 351.268046 326.251151 
L 351.268046 326.501783 
L 352.005697 326.501783 
L 352.005697 326.752415 
L 352.743348 326.752415 
L 352.743348 327.003047 
L 353.481 327.003047 
L 353.481 327.253679 
L 354.218651 327.253679 
L 354.218651 327.504311 
L 354.956302 327.504311 
L 354.956302 327.754944 
L 355.693953 327.754944 
L 355.693953 327.922032 
L 356.431604 327.922032 
L 356.431604 328.08912 
L 357.169255 328.08912 
L 357.169255 328.256208 
L 358.644558 328.339752 
L 358.644558 328.50684 
L 360.11986 328.590384 
L 360.11986 328.673928 
L 361.595163 328.757472 
L 361.595163 328.841016 
L 363.070465 328.92456 
L 363.070465 329.008104 
L 363.808116 329.008104 
L 363.808116 329.175192 
L 365.283418 329.258736 
L 365.283418 329.34228 
L 366.758721 329.425824 
L 366.758721 329.509368 
L 370.446977 329.592912 
L 370.446977 329.676456 
L 385.2 329.76 
L 385.2 329.76 
" clip-path="url(#p4cff9e27b3)" style="fill: none; stroke: #00bfbf; stroke-width: 1.5; stroke-linecap: square"/>
   </g>
   <g id="patch_13">
    <path d="M 237.669766 329.76 
L 237.669766 195.864 
" style="fill: none; stroke: #000000; stroke-width: 0.8; stroke-linejoin: miter; stroke-linecap: square"/>
   </g>
   <g id="patch_14">
    <path d="M 385.2 329.76 
L 385.2 195.864 
" style="fill: none; stroke: #000000; stroke-width: 0.8; stroke-linejoin: miter; stroke-linecap: square"/>
   </g>
   <g id="patch_15">
    <path d="M 237.669766 329.76 
L 385.2 329.76 
" style="fill: none; stroke: #000000; stroke-width: 0.8; stroke-linejoin: miter; stroke-linecap: square"/>
   </g>
   <g id="patch_16">
    <path d="M 237.669766 195.864 
L 385.2 195.864 
" style="fill: none; stroke: #000000; stroke-width: 0.8; stroke-linejoin: miter; stroke-linecap: square"/>
   </g>
   <g id="text_19">
    <!-- $n$ = ${-0.6388}_{-0.2781}^{+0.3007}$ -->
    <g transform="translate(244.794883 189.864) scale(0.14 -0.14)">
     <defs>
      <path id="DejaVuSans-38" d="M 2034 2216 
Q 1584 2216 1326 1975 
Q 1069 1734 1069 1313 
Q 1069 891 1326 650 
Q 1584 409 2034 409 
Q 2484 409 2743 651 
Q 3003 894 3003 1313 
Q 3003 1734 2745 1975 
Q 2488 2216 2034 2216 
z
M 1403 2484 
Q 997 2584 770 2862 
Q 544 3141 544 3541 
Q 544 4100 942 4425 
Q 1341 4750 2034 4750 
Q 2731 4750 3128 4425 
Q 3525 4100 3525 3541 
Q 3525 3141 3298 2862 
Q 3072 2584 2669 2484 
Q 3125 2378 3379 2068 
Q 3634 1759 3634 1313 
Q 3634 634 3220 271 
Q 2806 -91 2034 -91 
Q 1263 -91 848 271 
Q 434 634 434 1313 
Q 434 1759 690 2068 
Q 947 2378 1403 2484 
z
M 1172 3481 
Q 1172 3119 1398 2916 
Q 1625 2713 2034 2713 
Q 2441 2713 2670 2916 
Q 2900 3119 2900 3481 
Q 2900 3844 2670 4047 
Q 2441 4250 2034 4250 
Q 1625 4250 1398 4047 
Q 1172 3844 1172 3481 
z
" transform="scale(0.015625)"/>
     </defs>
     <use xlink:href="#DejaVuSans-Oblique-6e" transform="translate(0 0.765625)"/>
     <use xlink:href="#DejaVuSans-20" transform="translate(63.378906 0.765625)"/>
     <use xlink:href="#DejaVuSans-3d" transform="translate(95.166016 0.765625)"/>
     <use xlink:href="#DejaVuSans-20" transform="translate(178.955078 0.765625)"/>
     <use xlink:href="#DejaVuSans-2212" transform="translate(210.742188 0.765625)"/>
     <use xlink:href="#DejaVuSans-30" transform="translate(294.53125 0.765625)"/>
     <use xlink:href="#DejaVuSans-2e" transform="translate(358.154297 0.765625)"/>
     <use xlink:href="#DejaVuSans-36" transform="translate(389.941406 0.765625)"/>
     <use xlink:href="#DejaVuSans-33" transform="translate(453.564453 0.765625)"/>
     <use xlink:href="#DejaVuSans-38" transform="translate(517.1875 0.765625)"/>
     <use xlink:href="#DejaVuSans-38" transform="translate(580.810547 0.765625)"/>
     <use xlink:href="#DejaVuSans-2b" transform="translate(645.390625 39.046875) scale(0.7)"/>
     <use xlink:href="#DejaVuSans-30" transform="translate(704.042969 39.046875) scale(0.7)"/>
     <use xlink:href="#DejaVuSans-2e" transform="translate(748.579102 39.046875) scale(0.7)"/>
     <use xlink:href="#DejaVuSans-33" transform="translate(770.830078 39.046875) scale(0.7)"/>
     <use xlink:href="#DejaVuSans-30" transform="translate(815.366211 39.046875) scale(0.7)"/>
     <use xlink:href="#DejaVuSans-30" transform="translate(859.902344 39.046875) scale(0.7)"/>
     <use xlink:href="#DejaVuSans-37" transform="translate(904.438477 39.046875) scale(0.7)"/>
     <use xlink:href="#DejaVuSans-2212" transform="translate(645.390625 -26.578125) scale(0.7)"/>
     <use xlink:href="#DejaVuSans-30" transform="translate(704.042969 -26.578125) scale(0.7)"/>
     <use xlink:href="#DejaVuSans-2e" transform="translate(748.579102 -26.578125) scale(0.7)"/>
     <use xlink:href="#DejaVuSans-32" transform="translate(766.980078 -26.578125) scale(0.7)"/>
     <use xlink:href="#DejaVuSans-37" transform="translate(811.516211 -26.578125) scale(0.7)"/>
     <use xlink:href="#DejaVuSans-38" transform="translate(856.052344 -26.578125) scale(0.7)"/>
     <use xlink:href="#DejaVuSans-31" transform="translate(900.588477 -26.578125) scale(0.7)"/>
    </g>
   </g>
  </g>
 </g>
 <defs>
  <clipPath id="p6f6384956f">
   <rect x="64.08" y="30.984" width="147.530234" height="133.896"/>
  </clipPath>
  <clipPath id="pb4c69416b8">
   <rect x="64.08" y="195.864" width="147.530234" height="133.896"/>
  </clipPath>
  <clipPath id="p4cff9e27b3">
   <rect x="237.669766" y="195.864" width="147.530234" height="133.896"/>
  </clipPath>
 </defs>
</svg>
