<?xml version="1.0" encoding="utf-8" standalone="no"?>
<!DOCTYPE svg PUBLIC "-//W3C//DTD SVG 1.1//EN"
  "http://www.w3.org/Graphics/SVG/1.1/DTD/svg11.dtd">
<svg xmlns:xlink="http://www.w3.org/1999/xlink" width="396pt" height="396pt" viewBox="0 0 396 396" xmlns="http://www.w3.org/2000/svg" version="1.1">
 <metadata>
  <rdf:RDF xmlns:dc="http://purl.org/dc/elements/1.1/" xmlns:cc="http://creativecommons.org/ns#" xmlns:rdf="http://www.w3.org/1999/02/22-rdf-syntax-ns#">
   <cc:Work>
    <dc:type rdf:resource="http://purl.org/dc/dcmitype/StillImage"/>
    <dc:date>2024-11-19T13:39:30.852304</dc:date>
    <dc:format>image/svg+xml</dc:format>
    <dc:creator>
     <cc:Agent>
      <dc:title>Matplotlib v3.9.2, https://matplotlib.org/</dc:title>
     </cc:Agent>
    </dc:creator>
   </cc:Work>
  </rdf:RDF>
 </metadata>
 <defs>
  <style type="text/css">*{stroke-linejoin: round; stroke-linecap: butt}</style>
 </defs>
 <g id="figure_1">
  <g id="patch_1">
   <path d="M 0 396 
L 396 396 
L 396 0 
L 0 0 
z
" style="fill: #ffffff"/>
  </g>
  <g id="axes_1">
   <g id="patch_2">
    <path d="M 64.368 164.88 
L 219.384 164.88 
L 219.384 30.984 
L 64.368 30.984 
z
" style="fill: #ffffff"/>
   </g>
   <g id="matplotlib.axis_1">
    <g id="xtick_1">
     <g id="line2d_1">
      <defs>
       <path id="m03f57cc6c0" d="M 0 0 
L 0 3.5 
" style="stroke: #000000; stroke-width: 0.8"/>
      </defs>
      <g>
       <use xlink:href="#m03f57cc6c0" x="96.111014" y="164.88" style="stroke: #000000; stroke-width: 0.8"/>
      </g>
     </g>
    </g>
    <g id="xtick_2">
     <g id="line2d_2">
      <g>
       <use xlink:href="#m03f57cc6c0" x="127.857083" y="164.88" style="stroke: #000000; stroke-width: 0.8"/>
      </g>
     </g>
    </g>
    <g id="xtick_3">
     <g id="line2d_3">
      <g>
       <use xlink:href="#m03f57cc6c0" x="159.603153" y="164.88" style="stroke: #000000; stroke-width: 0.8"/>
      </g>
     </g>
    </g>
    <g id="xtick_4">
     <g id="line2d_4">
      <g>
       <use xlink:href="#m03f57cc6c0" x="191.349223" y="164.88" style="stroke: #000000; stroke-width: 0.8"/>
      </g>
     </g>
    </g>
   </g>
   <g id="matplotlib.axis_2"/>
   <g id="line2d_5">
    <path d="M 64.368 161.191405 
L 65.91816 161.144416 
L 65.91816 161.073934 
L 66.69324 161.073934 
L 66.69324 160.956463 
L 67.46832 160.956463 
L 67.46832 160.815497 
L 68.2434 160.815497 
L 68.2434 160.674532 
L 69.01848 160.674532 
L 69.01848 160.510072 
L 69.79356 160.510072 
L 69.79356 160.369107 
L 70.56864 160.369107 
L 70.56864 160.251636 
L 72.1188 160.157659 
L 72.1188 160.087176 
L 76.76928 159.993199 
L 76.76928 159.922716 
L 78.31944 159.828739 
L 78.31944 159.711268 
L 79.09452 159.711268 
L 79.09452 159.523314 
L 79.8696 159.523314 
L 79.8696 159.33536 
L 80.64468 159.33536 
L 80.64468 159.123912 
L 81.41976 159.123912 
L 81.41976 158.912464 
L 82.19484 158.912464 
L 82.19484 158.72451 
L 82.96992 158.72451 
L 82.96992 158.560051 
L 83.745 158.560051 
L 83.745 158.419085 
L 84.52008 158.419085 
L 84.52008 158.27812 
L 85.29516 158.27812 
L 85.29516 158.160649 
L 86.07024 158.160649 
L 86.07024 158.019683 
L 86.84532 158.019683 
L 86.84532 157.878718 
L 87.6204 157.878718 
L 87.6204 157.737752 
L 88.39548 157.737752 
L 88.39548 157.596787 
L 89.17056 157.596787 
L 89.17056 157.455821 
L 89.94564 157.455821 
L 89.94564 157.314856 
L 90.72072 157.314856 
L 90.72072 157.150396 
L 91.4958 157.150396 
L 91.4958 156.985937 
L 92.27088 156.985937 
L 92.27088 156.821477 
L 93.04596 156.821477 
L 93.04596 156.586535 
L 93.82104 156.586535 
L 93.82104 156.328098 
L 94.59612 156.328098 
L 94.59612 155.999179 
L 95.3712 155.999179 
L 95.3712 155.576283 
L 96.14628 155.576283 
L 96.14628 155.035915 
L 96.92136 155.035915 
L 96.92136 154.378077 
L 97.69644 154.378077 
L 97.69644 153.532284 
L 98.47152 153.532284 
L 98.47152 152.498538 
L 99.2466 152.498538 
L 99.2466 151.253343 
L 100.02168 151.253343 
L 100.02168 149.749712 
L 100.79676 149.749712 
L 100.79676 147.96415 
L 101.57184 147.96415 
L 101.57184 145.873163 
L 102.34692 145.873163 
L 102.34692 143.453257 
L 103.122 143.453257 
L 103.122 140.75142 
L 103.89708 140.75142 
L 103.89708 137.744157 
L 104.67216 137.744157 
L 104.67216 134.478459 
L 105.44724 134.478459 
L 105.44724 130.977818 
L 106.22232 130.977818 
L 106.22232 127.289223 
L 106.9974 127.289223 
L 106.9974 123.459662 
L 107.77248 123.459662 
L 107.77248 119.51263 
L 108.54756 119.51263 
L 108.54756 115.448128 
L 109.32264 115.448128 
L 109.32264 111.289648 
L 110.09772 111.289648 
L 110.09772 107.037191 
L 110.8728 107.037191 
L 110.8728 102.737746 
L 111.64788 102.737746 
L 111.64788 98.367818 
L 112.42296 98.367818 
L 112.42296 93.974396 
L 113.19804 93.974396 
L 113.19804 89.580974 
L 113.97312 89.580974 
L 113.97312 85.211046 
L 114.7482 85.211046 
L 114.7482 80.911601 
L 115.52328 80.911601 
L 115.52328 76.753121 
L 116.29836 76.753121 
L 116.29836 72.712112 
L 117.07344 72.712112 
L 117.07344 68.882552 
L 117.84852 68.882552 
L 117.84852 65.26444 
L 118.6236 65.26444 
L 118.6236 61.857775 
L 119.39868 61.857775 
L 119.39868 58.709548 
L 120.17376 58.709548 
L 120.17376 55.819757 
L 120.94884 55.819757 
L 120.94884 53.211897 
L 121.72392 53.211897 
L 121.72392 50.862473 
L 122.499 50.862473 
L 122.499 48.79498 
L 123.27408 48.79498 
L 123.27408 47.009418 
L 124.04916 47.009418 
L 124.04916 45.529281 
L 124.82424 45.529281 
L 124.82424 44.401558 
L 125.59932 44.401558 
L 125.59932 43.602754 
L 126.3744 43.602754 
L 126.3744 43.179858 
L 127.92456 43.156364 
L 127.92456 43.532271 
L 128.69964 43.532271 
L 128.69964 44.331075 
L 129.47472 44.331075 
L 129.47472 45.552776 
L 130.2498 45.552776 
L 130.2498 47.150384 
L 131.02488 47.150384 
L 131.02488 49.100405 
L 131.79996 49.100405 
L 131.79996 51.40284 
L 132.57504 51.40284 
L 132.57504 53.987206 
L 133.35012 53.987206 
L 133.35012 56.830009 
L 134.1252 56.830009 
L 134.1252 59.88426 
L 134.90028 59.88426 
L 134.90028 63.126464 
L 135.67536 63.126464 
L 135.67536 66.509634 
L 136.45044 66.509634 
L 136.45044 70.03377 
L 137.22552 70.03377 
L 137.22552 73.675376 
L 138.0006 73.675376 
L 138.0006 77.387465 
L 138.77568 77.387465 
L 138.77568 81.193532 
L 139.55076 81.193532 
L 139.55076 85.046586 
L 140.32584 85.046586 
L 140.32584 88.899641 
L 141.10092 88.899641 
L 141.10092 92.752696 
L 141.876 92.752696 
L 141.876 96.558762 
L 142.65108 96.558762 
L 142.65108 100.294345 
L 143.42616 100.294345 
L 143.42616 103.935952 
L 144.20124 103.935952 
L 144.20124 107.436593 
L 144.97632 107.436593 
L 144.97632 110.843257 
L 145.7514 110.843257 
L 145.7514 114.108956 
L 146.52648 114.108956 
L 146.52648 117.257184 
L 147.30156 117.257184 
L 147.30156 120.264446 
L 148.07664 120.264446 
L 148.07664 123.177731 
L 148.85172 123.177731 
L 148.85172 125.973545 
L 149.6268 125.973545 
L 149.6268 128.628394 
L 150.40188 128.628394 
L 150.40188 131.189266 
L 151.17696 131.189266 
L 151.17696 133.632666 
L 151.95204 133.632666 
L 151.95204 135.935101 
L 152.72712 135.935101 
L 152.72712 138.14356 
L 153.5022 138.14356 
L 153.5022 140.234547 
L 154.27728 140.234547 
L 154.27728 142.208062 
L 155.05236 142.208062 
L 155.05236 144.064107 
L 155.82744 144.064107 
L 155.82744 145.826175 
L 156.60252 145.826175 
L 156.60252 147.494265 
L 157.3776 147.494265 
L 157.3776 149.021391 
L 158.15268 149.021391 
L 158.15268 150.431045 
L 158.92776 150.431045 
L 158.92776 151.723228 
L 159.70284 151.723228 
L 159.70284 152.89794 
L 160.47792 152.89794 
L 160.47792 153.95518 
L 161.253 153.95518 
L 161.253 154.89495 
L 162.02808 154.89495 
L 162.02808 155.740742 
L 162.80316 155.740742 
L 162.80316 156.516052 
L 163.57824 156.516052 
L 163.57824 157.220879 
L 164.35332 157.220879 
L 164.35332 157.878718 
L 165.1284 157.878718 
L 165.1284 158.489568 
L 165.90348 158.489568 
L 165.90348 159.053429 
L 166.67856 159.053429 
L 166.67856 159.593797 
L 167.45364 159.593797 
L 167.45364 160.087176 
L 168.22872 160.087176 
L 168.22872 160.510072 
L 169.0038 160.510072 
L 169.0038 160.932968 
L 169.77888 160.932968 
L 169.77888 161.285382 
L 170.55396 161.285382 
L 170.55396 161.614301 
L 171.32904 161.614301 
L 171.32904 161.919726 
L 172.10412 161.919726 
L 172.10412 162.201657 
L 172.8792 162.201657 
L 172.8792 162.460094 
L 173.65428 162.460094 
L 173.65428 162.695036 
L 174.42936 162.695036 
L 174.42936 162.906484 
L 175.20444 162.906484 
L 175.20444 163.117932 
L 175.97952 163.117932 
L 175.97952 163.282392 
L 176.7546 163.282392 
L 176.7546 163.446852 
L 177.52968 163.446852 
L 177.52968 163.587817 
L 178.30476 163.587817 
L 178.30476 163.705288 
L 179.85492 163.799265 
L 179.85492 163.893242 
L 181.40508 163.987219 
L 181.40508 164.057702 
L 182.95524 164.128184 
L 182.95524 164.198667 
L 184.5054 164.26915 
L 184.5054 164.339633 
L 186.05556 164.410115 
L 186.05556 164.457104 
L 188.3808 164.551081 
L 188.3808 164.598069 
L 191.48112 164.692046 
L 191.48112 164.71554 
L 197.68176 164.809517 
L 197.68176 164.833012 
L 219.384 164.88 
L 219.384 164.88 
" clip-path="url(#p620b9b216f)" style="fill: none; stroke: #0000ff; stroke-width: 1.5; stroke-linecap: square"/>
   </g>
   <g id="patch_3">
    <path d="M 64.368 164.88 
L 64.368 30.984 
" style="fill: none; stroke: #000000; stroke-width: 0.8; stroke-linejoin: miter; stroke-linecap: square"/>
   </g>
   <g id="patch_4">
    <path d="M 219.384 164.88 
L 219.384 30.984 
" style="fill: none; stroke: #000000; stroke-width: 0.8; stroke-linejoin: miter; stroke-linecap: square"/>
   </g>
   <g id="patch_5">
    <path d="M 64.368 164.88 
L 219.384 164.88 
" style="fill: none; stroke: #000000; stroke-width: 0.8; stroke-linejoin: miter; stroke-linecap: square"/>
   </g>
   <g id="patch_6">
    <path d="M 64.368 30.984 
L 219.384 30.984 
" style="fill: none; stroke: #000000; stroke-width: 0.8; stroke-linejoin: miter; stroke-linecap: square"/>
   </g>
   <g id="text_1">
    <!-- $\Omega_{2,0}$ = ${0.2975}_{-0.0676}^{+0.0695}$ -->
    <g transform="translate(71.666 24.984) scale(0.14 -0.14)">
     <defs>
      <path id="DejaVuSans-3a9" d="M 4647 556 
L 4647 0 
L 2772 0 
L 2772 556 
Q 3325 859 3634 1378 
Q 3944 1897 3944 2528 
Q 3944 3278 3531 3731 
Q 3119 4184 2444 4184 
Q 1769 4184 1355 3729 
Q 941 3275 941 2528 
Q 941 1897 1250 1378 
Q 1563 859 2119 556 
L 2119 0 
L 244 0 
L 244 556 
L 1241 556 
Q 747 991 519 1456 
Q 294 1922 294 2497 
Q 294 3491 894 4106 
Q 1491 4722 2444 4722 
Q 3391 4722 3994 4106 
Q 4594 3494 4594 2528 
Q 4594 1922 4372 1459 
Q 4150 997 3647 556 
L 4647 556 
z
" transform="scale(0.015625)"/>
      <path id="DejaVuSans-32" d="M 1228 531 
L 3431 531 
L 3431 0 
L 469 0 
L 469 531 
Q 828 903 1448 1529 
Q 2069 2156 2228 2338 
Q 2531 2678 2651 2914 
Q 2772 3150 2772 3378 
Q 2772 3750 2511 3984 
Q 2250 4219 1831 4219 
Q 1534 4219 1204 4116 
Q 875 4013 500 3803 
L 500 4441 
Q 881 4594 1212 4672 
Q 1544 4750 1819 4750 
Q 2544 4750 2975 4387 
Q 3406 4025 3406 3419 
Q 3406 3131 3298 2873 
Q 3191 2616 2906 2266 
Q 2828 2175 2409 1742 
Q 1991 1309 1228 531 
z
" transform="scale(0.015625)"/>
      <path id="DejaVuSans-2c" d="M 750 794 
L 1409 794 
L 1409 256 
L 897 -744 
L 494 -744 
L 750 256 
L 750 794 
z
" transform="scale(0.015625)"/>
      <path id="DejaVuSans-30" d="M 2034 4250 
Q 1547 4250 1301 3770 
Q 1056 3291 1056 2328 
Q 1056 1369 1301 889 
Q 1547 409 2034 409 
Q 2525 409 2770 889 
Q 3016 1369 3016 2328 
Q 3016 3291 2770 3770 
Q 2525 4250 2034 4250 
z
M 2034 4750 
Q 2819 4750 3233 4129 
Q 3647 3509 3647 2328 
Q 3647 1150 3233 529 
Q 2819 -91 2034 -91 
Q 1250 -91 836 529 
Q 422 1150 422 2328 
Q 422 3509 836 4129 
Q 1250 4750 2034 4750 
z
" transform="scale(0.015625)"/>
      <path id="DejaVuSans-20" transform="scale(0.015625)"/>
      <path id="DejaVuSans-3d" d="M 678 2906 
L 4684 2906 
L 4684 2381 
L 678 2381 
L 678 2906 
z
M 678 1631 
L 4684 1631 
L 4684 1100 
L 678 1100 
L 678 1631 
z
" transform="scale(0.015625)"/>
      <path id="DejaVuSans-2e" d="M 684 794 
L 1344 794 
L 1344 0 
L 684 0 
L 684 794 
z
" transform="scale(0.015625)"/>
      <path id="DejaVuSans-39" d="M 703 97 
L 703 672 
Q 941 559 1184 500 
Q 1428 441 1663 441 
Q 2288 441 2617 861 
Q 2947 1281 2994 2138 
Q 2813 1869 2534 1725 
Q 2256 1581 1919 1581 
Q 1219 1581 811 2004 
Q 403 2428 403 3163 
Q 403 3881 828 4315 
Q 1253 4750 1959 4750 
Q 2769 4750 3195 4129 
Q 3622 3509 3622 2328 
Q 3622 1225 3098 567 
Q 2575 -91 1691 -91 
Q 1453 -91 1209 -44 
Q 966 3 703 97 
z
M 1959 2075 
Q 2384 2075 2632 2365 
Q 2881 2656 2881 3163 
Q 2881 3666 2632 3958 
Q 2384 4250 1959 4250 
Q 1534 4250 1286 3958 
Q 1038 3666 1038 3163 
Q 1038 2656 1286 2365 
Q 1534 2075 1959 2075 
z
" transform="scale(0.015625)"/>
      <path id="DejaVuSans-37" d="M 525 4666 
L 3525 4666 
L 3525 4397 
L 1831 0 
L 1172 0 
L 2766 4134 
L 525 4134 
L 525 4666 
z
" transform="scale(0.015625)"/>
      <path id="DejaVuSans-35" d="M 691 4666 
L 3169 4666 
L 3169 4134 
L 1269 4134 
L 1269 2991 
Q 1406 3038 1543 3061 
Q 1681 3084 1819 3084 
Q 2600 3084 3056 2656 
Q 3513 2228 3513 1497 
Q 3513 744 3044 326 
Q 2575 -91 1722 -91 
Q 1428 -91 1123 -41 
Q 819 9 494 109 
L 494 744 
Q 775 591 1075 516 
Q 1375 441 1709 441 
Q 2250 441 2565 725 
Q 2881 1009 2881 1497 
Q 2881 1984 2565 2268 
Q 2250 2553 1709 2553 
Q 1456 2553 1204 2497 
Q 953 2441 691 2322 
L 691 4666 
z
" transform="scale(0.015625)"/>
      <path id="DejaVuSans-2b" d="M 2944 4013 
L 2944 2272 
L 4684 2272 
L 4684 1741 
L 2944 1741 
L 2944 0 
L 2419 0 
L 2419 1741 
L 678 1741 
L 678 2272 
L 2419 2272 
L 2419 4013 
L 2944 4013 
z
" transform="scale(0.015625)"/>
      <path id="DejaVuSans-36" d="M 2113 2584 
Q 1688 2584 1439 2293 
Q 1191 2003 1191 1497 
Q 1191 994 1439 701 
Q 1688 409 2113 409 
Q 2538 409 2786 701 
Q 3034 994 3034 1497 
Q 3034 2003 2786 2293 
Q 2538 2584 2113 2584 
z
M 3366 4563 
L 3366 3988 
Q 3128 4100 2886 4159 
Q 2644 4219 2406 4219 
Q 1781 4219 1451 3797 
Q 1122 3375 1075 2522 
Q 1259 2794 1537 2939 
Q 1816 3084 2150 3084 
Q 2853 3084 3261 2657 
Q 3669 2231 3669 1497 
Q 3669 778 3244 343 
Q 2819 -91 2113 -91 
Q 1303 -91 875 529 
Q 447 1150 447 2328 
Q 447 3434 972 4092 
Q 1497 4750 2381 4750 
Q 2619 4750 2861 4703 
Q 3103 4656 3366 4563 
z
" transform="scale(0.015625)"/>
      <path id="DejaVuSans-2212" d="M 678 2272 
L 4684 2272 
L 4684 1741 
L 678 1741 
L 678 2272 
z
" transform="scale(0.015625)"/>
     </defs>
     <use xlink:href="#DejaVuSans-3a9" transform="translate(0 0.765625)"/>
     <use xlink:href="#DejaVuSans-32" transform="translate(77.373047 -15.640625) scale(0.7)"/>
     <use xlink:href="#DejaVuSans-2c" transform="translate(121.90918 -15.640625) scale(0.7)"/>
     <use xlink:href="#DejaVuSans-30" transform="translate(157.797852 -15.640625) scale(0.7)"/>
     <use xlink:href="#DejaVuSans-20" transform="translate(205.068359 0.765625)"/>
     <use xlink:href="#DejaVuSans-3d" transform="translate(236.855469 0.765625)"/>
     <use xlink:href="#DejaVuSans-20" transform="translate(320.644531 0.765625)"/>
     <use xlink:href="#DejaVuSans-30" transform="translate(352.431641 0.765625)"/>
     <use xlink:href="#DejaVuSans-2e" transform="translate(416.054688 0.765625)"/>
     <use xlink:href="#DejaVuSans-32" transform="translate(442.341797 0.765625)"/>
     <use xlink:href="#DejaVuSans-39" transform="translate(504.214844 0.765625)"/>
     <use xlink:href="#DejaVuSans-37" transform="translate(567.837891 0.765625)"/>
     <use xlink:href="#DejaVuSans-35" transform="translate(631.460938 0.765625)"/>
     <use xlink:href="#DejaVuSans-2b" transform="translate(696.041016 39.046875) scale(0.7)"/>
     <use xlink:href="#DejaVuSans-30" transform="translate(754.693359 39.046875) scale(0.7)"/>
     <use xlink:href="#DejaVuSans-2e" transform="translate(799.229492 39.046875) scale(0.7)"/>
     <use xlink:href="#DejaVuSans-30" transform="translate(821.480469 39.046875) scale(0.7)"/>
     <use xlink:href="#DejaVuSans-36" transform="translate(866.016602 39.046875) scale(0.7)"/>
     <use xlink:href="#DejaVuSans-39" transform="translate(910.552734 39.046875) scale(0.7)"/>
     <use xlink:href="#DejaVuSans-35" transform="translate(955.088867 39.046875) scale(0.7)"/>
     <use xlink:href="#DejaVuSans-2212" transform="translate(696.041016 -26.578125) scale(0.7)"/>
     <use xlink:href="#DejaVuSans-30" transform="translate(754.693359 -26.578125) scale(0.7)"/>
     <use xlink:href="#DejaVuSans-2e" transform="translate(799.229492 -26.578125) scale(0.7)"/>
     <use xlink:href="#DejaVuSans-30" transform="translate(821.480469 -26.578125) scale(0.7)"/>
     <use xlink:href="#DejaVuSans-36" transform="translate(866.016602 -26.578125) scale(0.7)"/>
     <use xlink:href="#DejaVuSans-37" transform="translate(910.552734 -26.578125) scale(0.7)"/>
     <use xlink:href="#DejaVuSans-36" transform="translate(955.088867 -26.578125) scale(0.7)"/>
    </g>
   </g>
  </g>
  <g id="axes_2">
   <g id="matplotlib.axis_3"/>
   <g id="matplotlib.axis_4"/>
  </g>
  <g id="axes_3">
   <g id="patch_7">
    <path d="M 64.368 329.76 
L 219.384 329.76 
L 219.384 195.864 
L 64.368 195.864 
z
" style="fill: #ffffff"/>
   </g>
   <g id="QuadContourSet_1">
    <path d="M 109.32264 307.888571 
L 112.42296 308.331332 
L 114.790251 306.99768 
L 115.52328 306.554038 
L 117.53342 304.31976 
L 118.6236 302.64365 
L 119.181695 301.64184 
L 120.324306 298.96392 
L 121.6939 296.286 
L 121.72392 296.249047 
L 124.712287 293.60808 
L 124.82424 293.497999 
L 127.208869 290.93016 
L 127.92456 289.807193 
L 128.85247 288.25224 
L 130.540757 285.57432 
L 131.02488 284.891523 
L 132.805441 282.8964 
L 134.1252 281.383601 
L 135.197654 280.21848 
L 137.22552 277.987784 
L 137.622089 277.54056 
L 139.942719 274.86264 
L 140.32584 274.353163 
L 142.050837 272.18472 
L 143.42616 270.175722 
L 143.989172 269.5068 
L 146.52648 266.886666 
L 146.588998 266.82888 
L 148.690991 264.15096 
L 149.6268 262.216567 
L 150.04207 261.47304 
L 151.922915 258.79512 
L 152.72712 257.750353 
L 153.992134 256.1172 
L 155.32749 253.43928 
L 155.82744 252.101875 
L 156.626581 250.76136 
L 158.92776 248.08344 
L 158.92776 248.08344 
L 161.210655 245.40552 
L 162.02808 244.010954 
L 162.794225 242.7276 
L 164.282718 240.04968 
L 165.1284 238.52351 
L 165.970553 237.37176 
L 167.178837 234.69384 
L 168.132771 232.01592 
L 168.22872 231.679413 
L 169.116153 229.338 
L 169.221848 226.66008 
L 168.860717 223.98216 
L 168.22872 221.622756 
L 168.14444 221.30424 
L 166.36586 218.62632 
L 165.1284 217.510764 
L 163.728728 215.9484 
L 162.02808 214.41109 
L 161.064282 213.27048 
L 158.92776 211.626943 
L 157.290122 210.59256 
L 155.82744 209.813168 
L 152.72712 208.404137 
L 151.435524 207.91464 
L 149.6268 207.106999 
L 146.52648 206.204506 
L 143.42616 205.595374 
L 141.545439 205.23672 
L 140.32584 204.909354 
L 137.22552 203.933117 
L 134.1252 203.263483 
L 131.02488 202.88746 
L 127.92456 202.604176 
L 127.340968 202.5588 
L 124.82424 202.202777 
L 121.72392 201.650526 
L 118.6236 201.02426 
L 115.52328 200.485959 
L 112.42296 200.075711 
L 109.988631 199.88088 
L 109.32264 199.770594 
L 106.22232 199.43178 
L 103.122 199.148647 
L 100.02168 198.8507 
L 96.92136 198.545619 
L 93.82104 198.216264 
L 90.72072 197.845889 
L 87.6204 197.466156 
L 84.52008 197.280465 
L 81.41976 197.311801 
L 78.31944 197.443575 
L 75.21912 197.214881 
L 75.151104 197.20296 
L 75.151104 194.52504 
L 72.1188 193.932783 
L 69.01848 193.688097 
L 65.91816 193.739385 
L 62.81784 193.739385 
L 61.90826 194.52504 
L 61.90826 197.20296 
L 60.901689 199.88088 
L 60.774876 202.5588 
L 61.324939 205.23672 
L 62.81784 207.346979 
L 65.91816 207.346979 
L 69.01848 207.791106 
L 69.648494 207.91464 
L 72.1188 208.634851 
L 75.21912 209.29539 
L 78.31944 209.841873 
L 81.41976 210.43325 
L 82.256547 210.59256 
L 84.52008 211.330351 
L 87.6204 212.189175 
L 90.72072 212.998923 
L 91.494276 213.27048 
L 93.82104 214.518725 
L 96.92136 215.93709 
L 96.945728 215.9484 
L 100.02168 217.967824 
L 101.03629 218.62632 
L 103.122 220.623475 
L 103.756675 221.30424 
L 105.680386 223.98216 
L 106.22232 224.807562 
L 106.960545 226.66008 
L 107.770115 229.338 
L 108.142511 232.01592 
L 108.082864 234.69384 
L 107.837338 237.37176 
L 107.623464 240.04968 
L 107.38803 242.7276 
L 107.052219 245.40552 
L 106.631235 248.08344 
L 106.251847 250.76136 
L 106.22232 251.042631 
L 105.761258 253.43928 
L 105.215881 256.1172 
L 104.553829 258.79512 
L 103.959351 261.47304 
L 103.509982 264.15096 
L 103.122 266.366803 
L 102.979291 266.82888 
L 102.146656 269.5068 
L 101.605638 272.18472 
L 101.215836 274.86264 
L 100.87776 277.54056 
L 100.769609 280.21848 
L 100.984885 282.8964 
L 101.286978 285.57432 
L 101.466655 288.25224 
L 101.832323 290.93016 
L 102.702553 293.60808 
L 103.122 294.77248 
L 103.607614 296.286 
L 104.575217 298.96392 
L 105.809376 301.64184 
L 106.22232 302.628808 
L 107.127938 304.31976 
L 108.618741 306.99768 
z
" clip-path="url(#p5bfd613885)" style="fill: #ffffff"/>
   </g>
   <g id="QuadContourSet_2">
    <path d="M 62.81784 333.77688 
L 65.91816 333.77688 
L 69.01848 333.77688 
L 72.1188 333.77688 
L 75.21912 333.77688 
L 78.31944 333.77688 
L 81.41976 333.77688 
L 84.52008 333.77688 
L 87.6204 333.77688 
L 90.72072 333.77688 
L 93.82104 333.77688 
L 96.92136 333.77688 
L 100.02168 333.77688 
L 103.122 333.77688 
L 106.22232 333.77688 
L 109.32264 333.77688 
L 112.42296 333.77688 
L 115.52328 333.77688 
L 118.6236 333.77688 
L 121.72392 333.77688 
L 124.82424 333.77688 
L 127.92456 333.77688 
L 131.02488 333.77688 
L 134.1252 333.77688 
L 137.22552 333.77688 
L 140.32584 333.77688 
L 143.42616 333.77688 
L 146.52648 333.77688 
L 149.6268 333.77688 
L 152.72712 333.77688 
L 155.82744 333.77688 
L 158.92776 333.77688 
L 162.02808 333.77688 
L 165.1284 333.77688 
L 168.22872 333.77688 
L 171.32904 333.77688 
L 174.42936 333.77688 
L 177.52968 333.77688 
L 180.63 333.77688 
L 183.73032 333.77688 
L 186.83064 333.77688 
L 189.93096 333.77688 
L 193.03128 333.77688 
L 196.1316 333.77688 
L 199.23192 333.77688 
L 202.33224 333.77688 
L 205.43256 333.77688 
L 208.53288 333.77688 
L 211.6332 333.77688 
L 214.73352 333.77688 
L 217.83384 333.77688 
L 220.93416 333.77688 
L 224.03448 333.77688 
L 224.03448 331.09896 
L 224.03448 328.42104 
L 224.03448 325.74312 
L 224.03448 323.0652 
L 224.03448 320.38728 
L 224.03448 317.70936 
L 224.03448 315.03144 
L 224.03448 312.35352 
L 224.03448 309.6756 
L 224.03448 306.99768 
L 224.03448 304.31976 
L 224.03448 301.64184 
L 224.03448 298.96392 
L 224.03448 296.286 
L 224.03448 293.60808 
L 224.03448 290.93016 
L 224.03448 288.25224 
L 224.03448 285.57432 
L 224.03448 282.8964 
L 224.03448 280.21848 
L 224.03448 277.54056 
L 224.03448 274.86264 
L 224.03448 272.18472 
L 224.03448 269.5068 
L 224.03448 266.82888 
L 224.03448 264.15096 
L 224.03448 261.47304 
L 224.03448 258.79512 
L 224.03448 256.1172 
L 224.03448 253.43928 
L 224.03448 250.76136 
L 224.03448 248.08344 
L 224.03448 245.40552 
L 224.03448 242.7276 
L 224.03448 240.04968 
L 224.03448 237.37176 
L 224.03448 234.69384 
L 224.03448 232.01592 
L 224.03448 229.338 
L 224.03448 226.66008 
L 224.03448 223.98216 
L 224.03448 221.30424 
L 224.03448 218.62632 
L 224.03448 215.9484 
L 224.03448 213.27048 
L 224.03448 210.59256 
L 224.03448 207.91464 
L 224.03448 205.23672 
L 224.03448 202.5588 
L 224.03448 199.88088 
L 224.03448 197.20296 
L 224.03448 194.52504 
L 224.03448 191.84712 
L 220.93416 191.84712 
L 217.83384 191.84712 
L 214.73352 191.84712 
L 211.6332 191.84712 
L 208.53288 191.84712 
L 205.43256 191.84712 
L 202.33224 191.84712 
L 199.23192 191.84712 
L 196.1316 191.84712 
L 193.03128 191.84712 
L 189.93096 191.84712 
L 186.83064 191.84712 
L 183.73032 191.84712 
L 180.63 191.84712 
L 177.52968 191.84712 
L 174.42936 191.84712 
L 171.32904 191.84712 
L 168.22872 191.84712 
L 165.1284 191.84712 
L 162.02808 191.84712 
L 158.92776 191.84712 
L 155.82744 191.84712 
L 152.72712 191.84712 
L 149.6268 191.84712 
L 146.52648 191.84712 
L 143.42616 191.84712 
L 140.32584 191.84712 
L 137.22552 191.84712 
L 134.1252 191.84712 
L 131.02488 191.84712 
L 127.92456 191.84712 
L 124.82424 191.84712 
L 121.72392 191.84712 
L 118.6236 191.84712 
L 115.52328 191.84712 
L 112.42296 191.84712 
L 109.32264 191.84712 
L 106.22232 191.84712 
L 103.122 191.84712 
L 100.02168 191.84712 
L 96.92136 191.84712 
L 93.82104 191.84712 
L 90.72072 191.84712 
L 87.6204 191.84712 
L 84.52008 191.84712 
L 81.41976 191.84712 
L 78.31944 191.84712 
L 75.21912 191.84712 
L 72.1188 191.84712 
L 69.01848 191.84712 
L 65.91816 191.84712 
L 62.81784 191.84712 
L 59.71752 191.84712 
L 59.71752 194.52504 
L 59.71752 197.20296 
L 59.71752 199.88088 
L 59.71752 202.5588 
L 59.71752 205.23672 
L 59.71752 207.91464 
L 59.71752 210.59256 
L 59.71752 213.27048 
L 59.71752 215.9484 
L 59.71752 218.62632 
L 59.71752 221.30424 
L 59.71752 223.98216 
L 59.71752 226.66008 
L 59.71752 229.338 
L 59.71752 232.01592 
L 59.71752 234.69384 
L 59.71752 237.37176 
L 59.71752 240.04968 
L 59.71752 242.7276 
L 59.71752 245.40552 
L 59.71752 248.08344 
L 59.71752 250.76136 
L 59.71752 253.43928 
L 59.71752 256.1172 
L 59.71752 258.79512 
L 59.71752 261.47304 
L 59.71752 264.15096 
L 59.71752 266.82888 
L 59.71752 269.5068 
L 59.71752 272.18472 
L 59.71752 274.86264 
L 59.71752 277.54056 
L 59.71752 280.21848 
L 59.71752 282.8964 
L 59.71752 285.57432 
L 59.71752 288.25224 
L 59.71752 290.93016 
L 59.71752 293.60808 
L 59.71752 296.286 
L 59.71752 298.96392 
L 59.71752 301.64184 
L 59.71752 304.31976 
L 59.71752 306.99768 
L 59.71752 309.6756 
L 59.71752 312.35352 
L 59.71752 315.03144 
L 59.71752 317.70936 
L 59.71752 320.38728 
L 59.71752 323.0652 
L 59.71752 325.74312 
L 59.71752 328.42104 
L 59.71752 331.09896 
L 59.71752 333.77688 
L 62.81784 333.77688 
z
M 108.618741 306.99768 
L 107.127938 304.31976 
L 106.22232 302.628808 
L 105.809376 301.64184 
L 104.575217 298.96392 
L 103.607614 296.286 
L 103.122 294.77248 
L 102.702553 293.60808 
L 101.832323 290.93016 
L 101.466655 288.25224 
L 101.286978 285.57432 
L 100.984885 282.8964 
L 100.769609 280.21848 
L 100.87776 277.54056 
L 101.215836 274.86264 
L 101.605638 272.18472 
L 102.146656 269.5068 
L 102.979291 266.82888 
L 103.122 266.366803 
L 103.509982 264.15096 
L 103.959351 261.47304 
L 104.553829 258.79512 
L 105.215881 256.1172 
L 105.761258 253.43928 
L 106.22232 251.042631 
L 106.251847 250.76136 
L 106.631235 248.08344 
L 107.052219 245.40552 
L 107.38803 242.7276 
L 107.623464 240.04968 
L 107.837338 237.37176 
L 108.082864 234.69384 
L 108.142511 232.01592 
L 107.770115 229.338 
L 106.960545 226.66008 
L 106.22232 224.807562 
L 105.680386 223.98216 
L 103.756675 221.30424 
L 103.122 220.623475 
L 101.03629 218.62632 
L 100.02168 217.967824 
L 96.945728 215.9484 
L 96.92136 215.93709 
L 93.82104 214.518725 
L 91.494276 213.27048 
L 90.72072 212.998923 
L 87.6204 212.189175 
L 84.52008 211.330351 
L 82.256547 210.59256 
L 81.41976 210.43325 
L 78.31944 209.841873 
L 75.21912 209.29539 
L 72.1188 208.634851 
L 69.648494 207.91464 
L 69.01848 207.791106 
L 65.91816 207.346979 
L 62.81784 207.346979 
L 61.324939 205.23672 
L 60.774876 202.5588 
L 60.901689 199.88088 
L 61.90826 197.20296 
L 61.90826 194.52504 
L 62.81784 193.739385 
L 65.91816 193.739385 
L 69.01848 193.688097 
L 72.1188 193.932783 
L 75.151104 194.52504 
L 75.151104 197.20296 
L 75.21912 197.214881 
L 78.31944 197.443575 
L 81.41976 197.311801 
L 84.52008 197.280465 
L 87.6204 197.466156 
L 90.72072 197.845889 
L 93.82104 198.216264 
L 96.92136 198.545619 
L 100.02168 198.8507 
L 103.122 199.148647 
L 106.22232 199.43178 
L 109.32264 199.770594 
L 109.988631 199.88088 
L 112.42296 200.075711 
L 115.52328 200.485959 
L 118.6236 201.02426 
L 121.72392 201.650526 
L 124.82424 202.202777 
L 127.340968 202.5588 
L 127.92456 202.604176 
L 131.02488 202.88746 
L 134.1252 203.263483 
L 137.22552 203.933117 
L 140.32584 204.909354 
L 141.545439 205.23672 
L 143.42616 205.595374 
L 146.52648 206.204506 
L 149.6268 207.106999 
L 151.435524 207.91464 
L 152.72712 208.404137 
L 155.82744 209.813168 
L 157.290122 210.59256 
L 158.92776 211.626943 
L 161.064282 213.27048 
L 162.02808 214.41109 
L 163.728728 215.9484 
L 165.1284 217.510764 
L 166.36586 218.62632 
L 168.14444 221.30424 
L 168.22872 221.622756 
L 168.860717 223.98216 
L 169.221848 226.66008 
L 169.116153 229.338 
L 168.22872 231.679413 
L 168.132771 232.01592 
L 167.178837 234.69384 
L 165.970553 237.37176 
L 165.1284 238.52351 
L 164.282718 240.04968 
L 162.794225 242.7276 
L 162.02808 244.010954 
L 161.210655 245.40552 
L 158.92776 248.08344 
L 158.92776 248.08344 
L 156.626581 250.76136 
L 155.82744 252.101875 
L 155.32749 253.43928 
L 153.992134 256.1172 
L 152.72712 257.750353 
L 151.922915 258.79512 
L 150.04207 261.47304 
L 149.6268 262.216567 
L 148.690991 264.15096 
L 146.588998 266.82888 
L 146.52648 266.886666 
L 143.989172 269.5068 
L 143.42616 270.175722 
L 142.050837 272.18472 
L 140.32584 274.353163 
L 139.942719 274.86264 
L 137.622089 277.54056 
L 137.22552 277.987784 
L 135.197654 280.21848 
L 134.1252 281.383601 
L 132.805441 282.8964 
L 131.02488 284.891523 
L 130.540757 285.57432 
L 128.85247 288.25224 
L 127.92456 289.807193 
L 127.208869 290.93016 
L 124.82424 293.497999 
L 124.712287 293.60808 
L 121.72392 296.249047 
L 121.6939 296.286 
L 120.324306 298.96392 
L 119.181695 301.64184 
L 118.6236 302.64365 
L 117.53342 304.31976 
L 115.52328 306.554038 
L 114.790251 306.99768 
L 112.42296 308.331332 
L 109.32264 307.888571 
L 108.618741 306.99768 
z
" clip-path="url(#p5bfd613885)" style="fill: none"/>
    <path d="M 109.32264 307.888571 
L 112.42296 308.331332 
L 114.790251 306.99768 
L 115.52328 306.554038 
L 117.53342 304.31976 
L 118.6236 302.64365 
L 119.181695 301.64184 
L 120.324306 298.96392 
L 121.6939 296.286 
L 121.72392 296.249047 
L 124.712287 293.60808 
L 124.82424 293.497999 
L 127.208869 290.93016 
L 127.92456 289.807193 
L 128.85247 288.25224 
L 130.540757 285.57432 
L 131.02488 284.891523 
L 132.805441 282.8964 
L 134.1252 281.383601 
L 135.197654 280.21848 
L 137.22552 277.987784 
L 137.622089 277.54056 
L 139.942719 274.86264 
L 140.32584 274.353163 
L 142.050837 272.18472 
L 143.42616 270.175722 
L 143.989172 269.5068 
L 146.52648 266.886666 
L 146.588998 266.82888 
L 148.690991 264.15096 
L 149.6268 262.216567 
L 150.04207 261.47304 
L 151.922915 258.79512 
L 152.72712 257.750353 
L 153.992134 256.1172 
L 155.32749 253.43928 
L 155.82744 252.101875 
L 156.626581 250.76136 
L 158.92776 248.08344 
L 158.92776 248.08344 
L 161.210655 245.40552 
L 162.02808 244.010954 
L 162.794225 242.7276 
L 164.282718 240.04968 
L 165.1284 238.52351 
L 165.970553 237.37176 
L 167.178837 234.69384 
L 168.132771 232.01592 
L 168.22872 231.679413 
L 169.116153 229.338 
L 169.221848 226.66008 
L 168.860717 223.98216 
L 168.22872 221.622756 
L 168.14444 221.30424 
L 166.36586 218.62632 
L 165.1284 217.510764 
L 163.728728 215.9484 
L 162.02808 214.41109 
L 161.064282 213.27048 
L 158.92776 211.626943 
L 157.290122 210.59256 
L 155.82744 209.813168 
L 152.72712 208.404137 
L 151.435524 207.91464 
L 149.6268 207.106999 
L 146.52648 206.204506 
L 143.42616 205.595374 
L 141.545439 205.23672 
L 140.32584 204.909354 
L 137.22552 203.933117 
L 134.1252 203.263483 
L 131.02488 202.88746 
L 127.92456 202.604176 
L 127.340968 202.5588 
L 124.82424 202.202777 
L 121.72392 201.650526 
L 118.6236 201.02426 
L 115.52328 200.485959 
L 112.42296 200.075711 
L 109.988631 199.88088 
L 109.32264 199.770594 
L 106.22232 199.43178 
L 103.122 199.148647 
L 100.02168 198.8507 
L 96.92136 198.545619 
L 93.82104 198.216264 
L 90.72072 197.845889 
L 87.6204 197.466156 
L 84.52008 197.280465 
L 81.41976 197.311801 
L 78.31944 197.443575 
L 75.21912 197.214881 
L 75.151104 197.20296 
L 75.151104 194.52504 
L 72.1188 193.932783 
L 69.01848 193.688097 
L 65.91816 193.739385 
L 62.81784 193.739385 
L 61.90826 194.52504 
L 61.90826 197.20296 
L 60.901689 199.88088 
L 60.774876 202.5588 
L 61.324939 205.23672 
L 62.81784 207.346979 
L 65.91816 207.346979 
L 69.01848 207.791106 
L 69.648494 207.91464 
L 72.1188 208.634851 
L 75.21912 209.29539 
L 78.31944 209.841873 
L 81.41976 210.43325 
L 82.256547 210.59256 
L 84.52008 211.330351 
L 87.6204 212.189175 
L 90.72072 212.998923 
L 91.494276 213.27048 
L 93.82104 214.518725 
L 96.92136 215.93709 
L 96.945728 215.9484 
L 100.02168 217.967824 
L 101.03629 218.62632 
L 103.122 220.623475 
L 103.756675 221.30424 
L 105.680386 223.98216 
L 106.22232 224.807562 
L 106.960545 226.66008 
L 107.770115 229.338 
L 108.142511 232.01592 
L 108.082864 234.69384 
L 107.837338 237.37176 
L 107.623464 240.04968 
L 107.38803 242.7276 
L 107.052219 245.40552 
L 106.631235 248.08344 
L 106.251847 250.76136 
L 106.22232 251.042631 
L 105.761258 253.43928 
L 105.215881 256.1172 
L 104.553829 258.79512 
L 103.959351 261.47304 
L 103.509982 264.15096 
L 103.122 266.366803 
L 102.979291 266.82888 
L 102.146656 269.5068 
L 101.605638 272.18472 
L 101.215836 274.86264 
L 100.87776 277.54056 
L 100.769609 280.21848 
L 100.984885 282.8964 
L 101.286978 285.57432 
L 101.466655 288.25224 
L 101.832323 290.93016 
L 102.702553 293.60808 
L 103.122 294.77248 
L 103.607614 296.286 
L 104.575217 298.96392 
L 105.809376 301.64184 
L 106.22232 302.628808 
L 107.127938 304.31976 
L 108.618741 306.99768 
z
M 112.646994 277.54056 
L 112.42296 277.443934 
L 111.527857 274.86264 
L 111.272612 272.18472 
L 111.502898 269.5068 
L 111.588115 266.82888 
L 111.73759 264.15096 
L 112.25533 261.47304 
L 112.42296 260.633813 
L 112.757289 258.79512 
L 113.155054 256.1172 
L 113.522496 253.43928 
L 113.851195 250.76136 
L 114.278904 248.08344 
L 114.923012 245.40552 
L 115.494091 242.7276 
L 115.52328 242.341706 
L 115.66837 240.04968 
L 115.825774 237.37176 
L 115.982838 234.69384 
L 115.942644 232.01592 
L 115.711766 229.338 
L 115.52328 227.964395 
L 115.311488 226.66008 
L 114.584245 223.98216 
L 113.475781 221.30424 
L 112.42296 219.500013 
L 111.825456 218.62632 
L 109.545001 215.9484 
L 109.32264 215.737157 
L 106.22232 213.725897 
L 105.401729 213.27048 
L 103.122 212.059655 
L 100.458802 210.59256 
L 100.02168 210.127921 
L 96.967676 207.91464 
L 96.92136 207.37991 
L 95.22981 205.23672 
L 96.92136 205.161179 
L 100.02168 204.979194 
L 103.122 204.80951 
L 106.22232 204.83796 
L 109.32264 205.23672 
L 109.32264 205.23672 
L 112.42296 205.935013 
L 115.52328 206.429996 
L 118.6236 206.863258 
L 121.72392 207.423528 
L 124.100652 207.91464 
L 124.82424 208.061346 
L 127.92456 208.711363 
L 131.02488 209.409273 
L 134.1252 210.400148 
L 134.642665 210.59256 
L 137.22552 211.569695 
L 140.32584 212.626483 
L 141.923427 213.27048 
L 143.42616 213.964997 
L 146.52648 215.786894 
L 146.752252 215.9484 
L 149.425218 218.62632 
L 149.6268 218.915657 
L 151.228751 221.30424 
L 152.583106 223.98216 
L 152.72712 224.587889 
L 153.325542 226.66008 
L 153.493565 229.338 
L 153.236807 232.01592 
L 152.72712 233.621383 
L 152.415856 234.69384 
L 151.425706 237.37176 
L 150.228132 240.04968 
L 149.6268 241.134464 
L 148.913233 242.7276 
L 147.26757 245.40552 
L 146.52648 246.367124 
L 145.269482 248.08344 
L 143.42616 250.550698 
L 143.269404 250.76136 
L 141.372154 253.43928 
L 140.32584 254.744946 
L 139.237425 256.1172 
L 137.22552 258.620008 
L 137.086909 258.79512 
L 135.070586 261.47304 
L 134.1252 262.646258 
L 132.815595 264.15096 
L 131.02488 265.861816 
L 129.961474 266.82888 
L 127.92456 268.781155 
L 127.106071 269.5068 
L 124.82424 271.651447 
L 124.183126 272.18472 
L 121.72392 274.317269 
L 120.940833 274.86264 
L 118.6236 276.749995 
L 116.753154 277.54056 
L 115.52328 278.365104 
z
" clip-path="url(#p5bfd613885)" style="fill: #0000ff; fill-opacity: 0.333333"/>
    <path d="M 115.52328 278.365104 
L 116.753154 277.54056 
L 118.6236 276.749995 
L 120.940833 274.86264 
L 121.72392 274.317269 
L 124.183126 272.18472 
L 124.82424 271.651447 
L 127.106071 269.5068 
L 127.92456 268.781155 
L 129.961474 266.82888 
L 131.02488 265.861816 
L 132.815595 264.15096 
L 134.1252 262.646258 
L 135.070586 261.47304 
L 137.086909 258.79512 
L 137.22552 258.620008 
L 139.237425 256.1172 
L 140.32584 254.744946 
L 141.372154 253.43928 
L 143.269404 250.76136 
L 143.42616 250.550698 
L 145.269482 248.08344 
L 146.52648 246.367124 
L 147.26757 245.40552 
L 148.913233 242.7276 
L 149.6268 241.134464 
L 150.228132 240.04968 
L 151.425706 237.37176 
L 152.415856 234.69384 
L 152.72712 233.621383 
L 153.236807 232.01592 
L 153.493565 229.338 
L 153.325542 226.66008 
L 152.72712 224.587889 
L 152.583106 223.98216 
L 151.228751 221.30424 
L 149.6268 218.915657 
L 149.425218 218.62632 
L 146.752252 215.9484 
L 146.52648 215.786894 
L 143.42616 213.964997 
L 141.923427 213.27048 
L 140.32584 212.626483 
L 137.22552 211.569695 
L 134.642665 210.59256 
L 134.1252 210.400148 
L 131.02488 209.409273 
L 127.92456 208.711363 
L 124.82424 208.061346 
L 124.100652 207.91464 
L 121.72392 207.423528 
L 118.6236 206.863258 
L 115.52328 206.429996 
L 112.42296 205.935013 
L 109.32264 205.23672 
L 109.32264 205.23672 
L 106.22232 204.83796 
L 103.122 204.80951 
L 100.02168 204.979194 
L 96.92136 205.161179 
L 95.22981 205.23672 
L 96.92136 207.37991 
L 96.967676 207.91464 
L 100.02168 210.127921 
L 100.458802 210.59256 
L 103.122 212.059655 
L 105.401729 213.27048 
L 106.22232 213.725897 
L 109.32264 215.737157 
L 109.545001 215.9484 
L 111.825456 218.62632 
L 112.42296 219.500013 
L 113.475781 221.30424 
L 114.584245 223.98216 
L 115.311488 226.66008 
L 115.52328 227.964395 
L 115.711766 229.338 
L 115.942644 232.01592 
L 115.982838 234.69384 
L 115.825774 237.37176 
L 115.66837 240.04968 
L 115.52328 242.341706 
L 115.494091 242.7276 
L 114.923012 245.40552 
L 114.278904 248.08344 
L 113.851195 250.76136 
L 113.522496 253.43928 
L 113.155054 256.1172 
L 112.757289 258.79512 
L 112.42296 260.633813 
L 112.25533 261.47304 
L 111.73759 264.15096 
L 111.588115 266.82888 
L 111.502898 269.5068 
L 111.272612 272.18472 
L 111.527857 274.86264 
L 112.42296 277.443934 
L 112.646994 277.54056 
z
" clip-path="url(#p5bfd613885)" style="fill: #0000ff"/>
   </g>
   <g id="matplotlib.axis_5">
    <g id="xtick_5">
     <g id="line2d_6">
      <g>
       <use xlink:href="#m03f57cc6c0" x="96.111014" y="329.76" style="stroke: #000000; stroke-width: 0.8"/>
      </g>
     </g>
     <g id="text_2">
      <!-- 0.15 -->
      <g transform="translate(90.190099 357.877081) rotate(-45) scale(0.1 -0.1)">
       <defs>
        <path id="DejaVuSans-31" d="M 794 531 
L 1825 531 
L 1825 4091 
L 703 3866 
L 703 4441 
L 1819 4666 
L 2450 4666 
L 2450 531 
L 3481 531 
L 3481 0 
L 794 0 
L 794 531 
z
" transform="scale(0.015625)"/>
       </defs>
       <use xlink:href="#DejaVuSans-30"/>
       <use xlink:href="#DejaVuSans-2e" x="63.623047"/>
       <use xlink:href="#DejaVuSans-31" x="95.410156"/>
       <use xlink:href="#DejaVuSans-35" x="159.033203"/>
      </g>
     </g>
    </g>
    <g id="xtick_6">
     <g id="line2d_7">
      <g>
       <use xlink:href="#m03f57cc6c0" x="127.857083" y="329.76" style="stroke: #000000; stroke-width: 0.8"/>
      </g>
     </g>
     <g id="text_3">
      <!-- 0.30 -->
      <g transform="translate(121.936169 357.877081) rotate(-45) scale(0.1 -0.1)">
       <defs>
        <path id="DejaVuSans-33" d="M 2597 2516 
Q 3050 2419 3304 2112 
Q 3559 1806 3559 1356 
Q 3559 666 3084 287 
Q 2609 -91 1734 -91 
Q 1441 -91 1130 -33 
Q 819 25 488 141 
L 488 750 
Q 750 597 1062 519 
Q 1375 441 1716 441 
Q 2309 441 2620 675 
Q 2931 909 2931 1356 
Q 2931 1769 2642 2001 
Q 2353 2234 1838 2234 
L 1294 2234 
L 1294 2753 
L 1863 2753 
Q 2328 2753 2575 2939 
Q 2822 3125 2822 3475 
Q 2822 3834 2567 4026 
Q 2313 4219 1838 4219 
Q 1578 4219 1281 4162 
Q 984 4106 628 3988 
L 628 4550 
Q 988 4650 1302 4700 
Q 1616 4750 1894 4750 
Q 2613 4750 3031 4423 
Q 3450 4097 3450 3541 
Q 3450 3153 3228 2886 
Q 3006 2619 2597 2516 
z
" transform="scale(0.015625)"/>
       </defs>
       <use xlink:href="#DejaVuSans-30"/>
       <use xlink:href="#DejaVuSans-2e" x="63.623047"/>
       <use xlink:href="#DejaVuSans-33" x="95.410156"/>
       <use xlink:href="#DejaVuSans-30" x="159.033203"/>
      </g>
     </g>
    </g>
    <g id="xtick_7">
     <g id="line2d_8">
      <g>
       <use xlink:href="#m03f57cc6c0" x="159.603153" y="329.76" style="stroke: #000000; stroke-width: 0.8"/>
      </g>
     </g>
     <g id="text_4">
      <!-- 0.45 -->
      <g transform="translate(153.682239 357.877081) rotate(-45) scale(0.1 -0.1)">
       <defs>
        <path id="DejaVuSans-34" d="M 2419 4116 
L 825 1625 
L 2419 1625 
L 2419 4116 
z
M 2253 4666 
L 3047 4666 
L 3047 1625 
L 3713 1625 
L 3713 1100 
L 3047 1100 
L 3047 0 
L 2419 0 
L 2419 1100 
L 313 1100 
L 313 1709 
L 2253 4666 
z
" transform="scale(0.015625)"/>
       </defs>
       <use xlink:href="#DejaVuSans-30"/>
       <use xlink:href="#DejaVuSans-2e" x="63.623047"/>
       <use xlink:href="#DejaVuSans-34" x="95.410156"/>
       <use xlink:href="#DejaVuSans-35" x="159.033203"/>
      </g>
     </g>
    </g>
    <g id="xtick_8">
     <g id="line2d_9">
      <g>
       <use xlink:href="#m03f57cc6c0" x="191.349223" y="329.76" style="stroke: #000000; stroke-width: 0.8"/>
      </g>
     </g>
     <g id="text_5">
      <!-- 0.60 -->
      <g transform="translate(185.428309 357.877081) rotate(-45) scale(0.1 -0.1)">
       <use xlink:href="#DejaVuSans-30"/>
       <use xlink:href="#DejaVuSans-2e" x="63.623047"/>
       <use xlink:href="#DejaVuSans-36" x="95.410156"/>
       <use xlink:href="#DejaVuSans-30" x="159.033203"/>
      </g>
     </g>
    </g>
    <g id="text_6">
     <!-- $\Omega_{2,0}$ -->
     <g transform="translate(131.576 377.3288) scale(0.1 -0.1)">
      <use xlink:href="#DejaVuSans-3a9" transform="translate(0 0.21875)"/>
      <use xlink:href="#DejaVuSans-32" transform="translate(77.373047 -16.1875) scale(0.7)"/>
      <use xlink:href="#DejaVuSans-2c" transform="translate(121.90918 -16.1875) scale(0.7)"/>
      <use xlink:href="#DejaVuSans-30" transform="translate(157.797852 -16.1875) scale(0.7)"/>
     </g>
    </g>
   </g>
   <g id="matplotlib.axis_6">
    <g id="ytick_1">
     <g id="line2d_10">
      <defs>
       <path id="mb83838b995" d="M 0 0 
L -3.5 0 
" style="stroke: #000000; stroke-width: 0.8"/>
      </defs>
      <g>
       <use xlink:href="#mb83838b995" x="64.368" y="319.220311" style="stroke: #000000; stroke-width: 0.8"/>
      </g>
     </g>
     <g id="text_7">
      <!-- −4 -->
      <g transform="translate(45.473138 331.2183) rotate(-45) scale(0.1 -0.1)">
       <use xlink:href="#DejaVuSans-2212"/>
       <use xlink:href="#DejaVuSans-34" x="83.789062"/>
      </g>
     </g>
    </g>
    <g id="ytick_2">
     <g id="line2d_11">
      <g>
       <use xlink:href="#mb83838b995" x="64.368" y="287.325968" style="stroke: #000000; stroke-width: 0.8"/>
      </g>
     </g>
     <g id="text_8">
      <!-- −3 -->
      <g transform="translate(45.473138 299.323957) rotate(-45) scale(0.1 -0.1)">
       <use xlink:href="#DejaVuSans-2212"/>
       <use xlink:href="#DejaVuSans-33" x="83.789062"/>
      </g>
     </g>
    </g>
    <g id="ytick_3">
     <g id="line2d_12">
      <g>
       <use xlink:href="#mb83838b995" x="64.368" y="255.431625" style="stroke: #000000; stroke-width: 0.8"/>
      </g>
     </g>
     <g id="text_9">
      <!-- −2 -->
      <g transform="translate(45.473138 267.429614) rotate(-45) scale(0.1 -0.1)">
       <use xlink:href="#DejaVuSans-2212"/>
       <use xlink:href="#DejaVuSans-32" x="83.789062"/>
      </g>
     </g>
    </g>
    <g id="ytick_4">
     <g id="line2d_13">
      <g>
       <use xlink:href="#mb83838b995" x="64.368" y="223.537282" style="stroke: #000000; stroke-width: 0.8"/>
      </g>
     </g>
     <g id="text_10">
      <!-- −1 -->
      <g transform="translate(45.473138 235.535271) rotate(-45) scale(0.1 -0.1)">
       <use xlink:href="#DejaVuSans-2212"/>
       <use xlink:href="#DejaVuSans-31" x="83.789062"/>
      </g>
     </g>
    </g>
    <g id="text_11">
     <!-- $w_{IDM}$ -->
     <g transform="translate(15.783512 273.812) rotate(-90) scale(0.1 -0.1)">
      <defs>
       <path id="DejaVuSans-Oblique-77" d="M 544 3500 
L 1113 3500 
L 1259 684 
L 2566 3500 
L 3231 3500 
L 3425 684 
L 4666 3500 
L 5241 3500 
L 3641 0 
L 2969 0 
L 2797 2900 
L 1459 0 
L 781 0 
L 544 3500 
z
" transform="scale(0.015625)"/>
       <path id="DejaVuSans-Oblique-49" d="M 1081 4666 
L 1716 4666 
L 806 0 
L 172 0 
L 1081 4666 
z
" transform="scale(0.015625)"/>
       <path id="DejaVuSans-Oblique-44" d="M 1081 4666 
L 2438 4666 
Q 3519 4666 4070 4208 
Q 4622 3750 4622 2847 
Q 4622 2250 4412 1698 
Q 4203 1147 3834 769 
Q 3463 381 2891 190 
Q 2319 0 1538 0 
L 172 0 
L 1081 4666 
z
M 1613 4147 
L 909 519 
L 1734 519 
Q 2794 519 3375 1128 
Q 3956 1738 3956 2847 
Q 3956 3519 3581 3833 
Q 3206 4147 2406 4147 
L 1613 4147 
z
" transform="scale(0.015625)"/>
       <path id="DejaVuSans-Oblique-4d" d="M 1081 4666 
L 2028 4666 
L 2572 1522 
L 4378 4666 
L 5350 4666 
L 4441 0 
L 3828 0 
L 4622 4091 
L 2791 897 
L 2175 897 
L 1581 4103 
L 788 0 
L 172 0 
L 1081 4666 
z
" transform="scale(0.015625)"/>
      </defs>
      <use xlink:href="#DejaVuSans-Oblique-77" transform="translate(0 0.3125)"/>
      <use xlink:href="#DejaVuSans-Oblique-49" transform="translate(81.787109 -16.09375) scale(0.7)"/>
      <use xlink:href="#DejaVuSans-Oblique-44" transform="translate(102.431641 -16.09375) scale(0.7)"/>
      <use xlink:href="#DejaVuSans-Oblique-4d" transform="translate(156.333008 -16.09375) scale(0.7)"/>
     </g>
    </g>
   </g>
   <g id="QuadContourSet_3">
    <path d="M 109.32264 307.888571 
L 112.42296 308.331332 
L 114.790251 306.99768 
L 115.52328 306.554038 
L 117.53342 304.31976 
L 118.6236 302.64365 
L 119.181695 301.64184 
L 120.324306 298.96392 
L 121.6939 296.286 
L 121.72392 296.249047 
L 124.712287 293.60808 
L 124.82424 293.497999 
L 127.208869 290.93016 
L 127.92456 289.807193 
L 128.85247 288.25224 
L 130.540757 285.57432 
L 131.02488 284.891523 
L 132.805441 282.8964 
L 134.1252 281.383601 
L 135.197654 280.21848 
L 137.22552 277.987784 
L 137.622089 277.54056 
L 139.942719 274.86264 
L 140.32584 274.353163 
L 142.050837 272.18472 
L 143.42616 270.175722 
L 143.989172 269.5068 
L 146.52648 266.886666 
L 146.588998 266.82888 
L 148.690991 264.15096 
L 149.6268 262.216567 
L 150.04207 261.47304 
L 151.922915 258.79512 
L 152.72712 257.750353 
L 153.992134 256.1172 
L 155.32749 253.43928 
L 155.82744 252.101875 
L 156.626581 250.76136 
L 158.92776 248.08344 
L 158.92776 248.08344 
L 161.210655 245.40552 
L 162.02808 244.010954 
L 162.794225 242.7276 
L 164.282718 240.04968 
L 165.1284 238.52351 
L 165.970553 237.37176 
L 167.178837 234.69384 
L 168.132771 232.01592 
L 168.22872 231.679413 
L 169.116153 229.338 
L 169.221848 226.66008 
L 168.860717 223.98216 
L 168.22872 221.622756 
L 168.14444 221.30424 
L 166.36586 218.62632 
L 165.1284 217.510764 
L 163.728728 215.9484 
L 162.02808 214.41109 
L 161.064282 213.27048 
L 158.92776 211.626943 
L 157.290122 210.59256 
L 155.82744 209.813168 
L 152.72712 208.404137 
L 151.435524 207.91464 
L 149.6268 207.106999 
L 146.52648 206.204506 
L 143.42616 205.595374 
L 141.545439 205.23672 
L 140.32584 204.909354 
L 137.22552 203.933117 
L 134.1252 203.263483 
L 131.02488 202.88746 
L 127.92456 202.604176 
L 127.340968 202.5588 
L 124.82424 202.202777 
L 121.72392 201.650526 
L 118.6236 201.02426 
L 115.52328 200.485959 
L 112.42296 200.075711 
L 109.988631 199.88088 
L 109.32264 199.770594 
L 106.22232 199.43178 
L 103.122 199.148647 
L 100.02168 198.8507 
L 96.92136 198.545619 
L 93.82104 198.216264 
L 90.72072 197.845889 
L 87.6204 197.466156 
L 84.52008 197.280465 
L 81.41976 197.311801 
L 78.31944 197.443575 
L 75.21912 197.214881 
L 75.151104 197.20296 
L 75.151104 194.52504 
L 72.1188 193.932783 
L 69.01848 193.688097 
L 65.91816 193.739385 
L 62.81784 193.739385 
L 61.90826 194.52504 
L 61.90826 197.20296 
L 60.901689 199.88088 
L 60.774876 202.5588 
L 61.324939 205.23672 
L 62.81784 207.346979 
L 65.91816 207.346979 
L 69.01848 207.791106 
L 69.648494 207.91464 
L 72.1188 208.634851 
L 75.21912 209.29539 
L 78.31944 209.841873 
L 81.41976 210.43325 
L 82.256547 210.59256 
L 84.52008 211.330351 
L 87.6204 212.189175 
L 90.72072 212.998923 
L 91.494276 213.27048 
L 93.82104 214.518725 
L 96.92136 215.93709 
L 96.945728 215.9484 
L 100.02168 217.967824 
L 101.03629 218.62632 
L 103.122 220.623475 
L 103.756675 221.30424 
L 105.680386 223.98216 
L 106.22232 224.807562 
L 106.960545 226.66008 
L 107.770115 229.338 
L 108.142511 232.01592 
L 108.082864 234.69384 
L 107.837338 237.37176 
L 107.623464 240.04968 
L 107.38803 242.7276 
L 107.052219 245.40552 
L 106.631235 248.08344 
L 106.251847 250.76136 
L 106.22232 251.042631 
L 105.761258 253.43928 
L 105.215881 256.1172 
L 104.553829 258.79512 
L 103.959351 261.47304 
L 103.509982 264.15096 
L 103.122 266.366803 
L 102.979291 266.82888 
L 102.146656 269.5068 
L 101.605638 272.18472 
L 101.215836 274.86264 
L 100.87776 277.54056 
L 100.769609 280.21848 
L 100.984885 282.8964 
L 101.286978 285.57432 
L 101.466655 288.25224 
L 101.832323 290.93016 
L 102.702553 293.60808 
L 103.122 294.77248 
L 103.607614 296.286 
L 104.575217 298.96392 
L 105.809376 301.64184 
L 106.22232 302.628808 
L 107.127938 304.31976 
L 108.618741 306.99768 
L 109.32264 307.888571 
z
" clip-path="url(#p5bfd613885)" style="fill: none; stroke: #0000ff; stroke-width: 1.5"/>
    <path d="M 115.52328 278.365104 
L 116.753154 277.54056 
L 118.6236 276.749995 
L 120.940833 274.86264 
L 121.72392 274.317269 
L 124.183126 272.18472 
L 124.82424 271.651447 
L 127.106071 269.5068 
L 127.92456 268.781155 
L 129.961474 266.82888 
L 131.02488 265.861816 
L 132.815595 264.15096 
L 134.1252 262.646258 
L 135.070586 261.47304 
L 137.086909 258.79512 
L 137.22552 258.620008 
L 139.237425 256.1172 
L 140.32584 254.744946 
L 141.372154 253.43928 
L 143.269404 250.76136 
L 143.42616 250.550698 
L 145.269482 248.08344 
L 146.52648 246.367124 
L 147.26757 245.40552 
L 148.913233 242.7276 
L 149.6268 241.134464 
L 150.228132 240.04968 
L 151.425706 237.37176 
L 152.415856 234.69384 
L 152.72712 233.621383 
L 153.236807 232.01592 
L 153.493565 229.338 
L 153.325542 226.66008 
L 152.72712 224.587889 
L 152.583106 223.98216 
L 151.228751 221.30424 
L 149.6268 218.915657 
L 149.425218 218.62632 
L 146.752252 215.9484 
L 146.52648 215.786894 
L 143.42616 213.964997 
L 141.923427 213.27048 
L 140.32584 212.626483 
L 137.22552 211.569695 
L 134.642665 210.59256 
L 134.1252 210.400148 
L 131.02488 209.409273 
L 127.92456 208.711363 
L 124.82424 208.061346 
L 124.100652 207.91464 
L 121.72392 207.423528 
L 118.6236 206.863258 
L 115.52328 206.429996 
L 112.42296 205.935013 
L 109.32264 205.23672 
L 109.32264 205.23672 
L 106.22232 204.83796 
L 103.122 204.80951 
L 100.02168 204.979194 
L 96.92136 205.161179 
L 95.22981 205.23672 
L 96.92136 207.37991 
L 96.967676 207.91464 
L 100.02168 210.127921 
L 100.458802 210.59256 
L 103.122 212.059655 
L 105.401729 213.27048 
L 106.22232 213.725897 
L 109.32264 215.737157 
L 109.545001 215.9484 
L 111.825456 218.62632 
L 112.42296 219.500013 
L 113.475781 221.30424 
L 114.584245 223.98216 
L 115.311488 226.66008 
L 115.52328 227.964395 
L 115.711766 229.338 
L 115.942644 232.01592 
L 115.982838 234.69384 
L 115.825774 237.37176 
L 115.66837 240.04968 
L 115.52328 242.341706 
L 115.494091 242.7276 
L 114.923012 245.40552 
L 114.278904 248.08344 
L 113.851195 250.76136 
L 113.522496 253.43928 
L 113.155054 256.1172 
L 112.757289 258.79512 
L 112.42296 260.633813 
L 112.25533 261.47304 
L 111.73759 264.15096 
L 111.588115 266.82888 
L 111.502898 269.5068 
L 111.272612 272.18472 
L 111.527857 274.86264 
L 112.42296 277.443934 
L 112.646994 277.54056 
L 115.52328 278.365104 
z
" clip-path="url(#p5bfd613885)" style="fill: none; stroke: #0000ff; stroke-width: 1.5"/>
   </g>
   <g id="patch_8">
    <path d="M 64.368 329.76 
L 64.368 195.864 
" style="fill: none; stroke: #000000; stroke-width: 0.8; stroke-linejoin: miter; stroke-linecap: square"/>
   </g>
   <g id="patch_9">
    <path d="M 219.384 329.76 
L 219.384 195.864 
" style="fill: none; stroke: #000000; stroke-width: 0.8; stroke-linejoin: miter; stroke-linecap: square"/>
   </g>
   <g id="patch_10">
    <path d="M 64.368 329.76 
L 219.384 329.76 
" style="fill: none; stroke: #000000; stroke-width: 0.8; stroke-linejoin: miter; stroke-linecap: square"/>
   </g>
   <g id="patch_11">
    <path d="M 64.368 195.864 
L 219.384 195.864 
" style="fill: none; stroke: #000000; stroke-width: 0.8; stroke-linejoin: miter; stroke-linecap: square"/>
   </g>
  </g>
  <g id="axes_4">
   <g id="patch_12">
    <path d="M 230.184 329.76 
L 385.2 329.76 
L 385.2 195.864 
L 230.184 195.864 
z
" style="fill: #ffffff"/>
   </g>
   <g id="matplotlib.axis_7">
    <g id="xtick_9">
     <g id="line2d_14">
      <g>
       <use xlink:href="#m03f57cc6c0" x="242.38616" y="329.76" style="stroke: #000000; stroke-width: 0.8"/>
      </g>
     </g>
     <g id="text_12">
      <!-- −4 -->
      <g transform="translate(239.125182 352.557207) rotate(-45) scale(0.1 -0.1)">
       <use xlink:href="#DejaVuSans-2212"/>
       <use xlink:href="#DejaVuSans-34" x="83.789062"/>
      </g>
     </g>
    </g>
    <g id="xtick_10">
     <g id="line2d_15">
      <g>
       <use xlink:href="#m03f57cc6c0" x="279.311336" y="329.76" style="stroke: #000000; stroke-width: 0.8"/>
      </g>
     </g>
     <g id="text_13">
      <!-- −3 -->
      <g transform="translate(276.050359 352.557207) rotate(-45) scale(0.1 -0.1)">
       <use xlink:href="#DejaVuSans-2212"/>
       <use xlink:href="#DejaVuSans-33" x="83.789062"/>
      </g>
     </g>
    </g>
    <g id="xtick_11">
     <g id="line2d_16">
      <g>
       <use xlink:href="#m03f57cc6c0" x="316.236513" y="329.76" style="stroke: #000000; stroke-width: 0.8"/>
      </g>
     </g>
     <g id="text_14">
      <!-- −2 -->
      <g transform="translate(312.975536 352.557207) rotate(-45) scale(0.1 -0.1)">
       <use xlink:href="#DejaVuSans-2212"/>
       <use xlink:href="#DejaVuSans-32" x="83.789062"/>
      </g>
     </g>
    </g>
    <g id="xtick_12">
     <g id="line2d_17">
      <g>
       <use xlink:href="#m03f57cc6c0" x="353.16169" y="329.76" style="stroke: #000000; stroke-width: 0.8"/>
      </g>
     </g>
     <g id="text_15">
      <!-- −1 -->
      <g transform="translate(349.900712 352.557207) rotate(-45) scale(0.1 -0.1)">
       <use xlink:href="#DejaVuSans-2212"/>
       <use xlink:href="#DejaVuSans-31" x="83.789062"/>
      </g>
     </g>
    </g>
    <g id="text_16">
     <!-- $w_{IDM}$ -->
     <g transform="translate(296.692 377.527238) scale(0.1 -0.1)">
      <use xlink:href="#DejaVuSans-Oblique-77" transform="translate(0 0.3125)"/>
      <use xlink:href="#DejaVuSans-Oblique-49" transform="translate(81.787109 -16.09375) scale(0.7)"/>
      <use xlink:href="#DejaVuSans-Oblique-44" transform="translate(102.431641 -16.09375) scale(0.7)"/>
      <use xlink:href="#DejaVuSans-Oblique-4d" transform="translate(156.333008 -16.09375) scale(0.7)"/>
     </g>
    </g>
   </g>
   <g id="matplotlib.axis_8"/>
   <g id="line2d_18">
    <path d="M 230.184 329.207291 
L 234.0594 329.122258 
L 234.0594 329.079742 
L 235.60956 329.037226 
L 235.60956 328.952194 
L 237.15972 328.867162 
L 237.15972 328.824645 
L 238.70988 328.739613 
L 238.70988 328.654581 
L 241.03512 328.569549 
L 241.03512 328.527033 
L 243.36036 328.442 
L 243.36036 328.399484 
L 244.91052 328.356968 
L 244.91052 328.271936 
L 246.46068 328.186904 
L 246.46068 328.059355 
L 247.23576 328.059355 
L 247.23576 327.931807 
L 248.01084 327.931807 
L 248.01084 327.804259 
L 248.78592 327.804259 
L 248.78592 327.634194 
L 249.561 327.634194 
L 249.561 327.46413 
L 250.33608 327.46413 
L 250.33608 327.251549 
L 251.11116 327.251549 
L 251.11116 327.038969 
L 251.88624 327.038969 
L 251.88624 326.826388 
L 252.66132 326.826388 
L 252.66132 326.613808 
L 253.4364 326.613808 
L 253.4364 326.358711 
L 254.21148 326.358711 
L 254.21148 326.103614 
L 254.98656 326.103614 
L 254.98656 325.891034 
L 255.76164 325.891034 
L 255.76164 325.635937 
L 256.53672 325.635937 
L 256.53672 325.38084 
L 257.3118 325.38084 
L 257.3118 325.125743 
L 258.08688 325.125743 
L 258.08688 324.870647 
L 258.86196 324.870647 
L 258.86196 324.61555 
L 259.63704 324.61555 
L 259.63704 324.317937 
L 260.41212 324.317937 
L 260.41212 324.062841 
L 261.1872 324.062841 
L 261.1872 323.765228 
L 261.96228 323.765228 
L 261.96228 323.467615 
L 262.73736 323.467615 
L 262.73736 323.127486 
L 263.51244 323.127486 
L 263.51244 322.787357 
L 264.28752 322.787357 
L 264.28752 322.447228 
L 265.0626 322.447228 
L 265.0626 322.064583 
L 265.83768 322.064583 
L 265.83768 321.639422 
L 266.61276 321.639422 
L 266.61276 321.214261 
L 267.38784 321.214261 
L 267.38784 320.746584 
L 268.16292 320.746584 
L 268.16292 320.23639 
L 268.938 320.23639 
L 268.938 319.683681 
L 269.71308 319.683681 
L 269.71308 319.130971 
L 270.48816 319.130971 
L 270.48816 318.49323 
L 271.26324 318.49323 
L 271.26324 317.855488 
L 272.03832 317.855488 
L 272.03832 317.217746 
L 272.8134 317.217746 
L 272.8134 316.537488 
L 273.58848 316.537488 
L 273.58848 315.85723 
L 274.36356 315.85723 
L 274.36356 315.176973 
L 275.13864 315.176973 
L 275.13864 314.496715 
L 275.91372 314.496715 
L 275.91372 313.816457 
L 276.6888 313.816457 
L 276.6888 313.178715 
L 277.46388 313.178715 
L 277.46388 312.498457 
L 278.23896 312.498457 
L 278.23896 311.775683 
L 279.01404 311.775683 
L 279.01404 311.05291 
L 279.78912 311.05291 
L 279.78912 310.287619 
L 280.5642 310.287619 
L 280.5642 309.522329 
L 281.33928 309.522329 
L 281.33928 308.672007 
L 282.11436 308.672007 
L 282.11436 307.864201 
L 282.88944 307.864201 
L 282.88944 307.013879 
L 283.66452 307.013879 
L 283.66452 306.163556 
L 284.4396 306.163556 
L 284.4396 305.313234 
L 285.21468 305.313234 
L 285.21468 304.505428 
L 285.98976 304.505428 
L 285.98976 303.697622 
L 286.76484 303.697622 
L 286.76484 302.889816 
L 287.53992 302.889816 
L 287.53992 302.082009 
L 288.315 302.082009 
L 288.315 301.274203 
L 289.09008 301.274203 
L 289.09008 300.423881 
L 289.86516 300.423881 
L 289.86516 299.488526 
L 290.64024 299.488526 
L 290.64024 298.510656 
L 291.41532 298.510656 
L 291.41532 297.490269 
L 292.1904 297.490269 
L 292.1904 296.38485 
L 292.96548 296.38485 
L 292.96548 295.236915 
L 293.74056 295.236915 
L 293.74056 294.046464 
L 294.51564 294.046464 
L 294.51564 292.813496 
L 295.29072 292.813496 
L 295.29072 291.623045 
L 296.0658 291.623045 
L 296.0658 290.47511 
L 296.84088 290.47511 
L 296.84088 289.369691 
L 297.61596 289.369691 
L 297.61596 288.306788 
L 298.39104 288.306788 
L 298.39104 287.243885 
L 299.16612 287.243885 
L 299.16612 286.180982 
L 299.9412 286.180982 
L 299.9412 285.075563 
L 300.71628 285.075563 
L 300.71628 283.927628 
L 301.49136 283.927628 
L 301.49136 282.652145 
L 302.26644 282.652145 
L 302.26644 281.291629 
L 303.04152 281.291629 
L 303.04152 279.931114 
L 303.8166 279.931114 
L 303.8166 278.528082 
L 304.59168 278.528082 
L 304.59168 277.167566 
L 305.36676 277.167566 
L 305.36676 275.849567 
L 306.14184 275.849567 
L 306.14184 274.574083 
L 306.91692 274.574083 
L 306.91692 273.383632 
L 307.692 273.383632 
L 307.692 272.235697 
L 308.46708 272.235697 
L 308.46708 271.087762 
L 309.24216 271.087762 
L 309.24216 269.897311 
L 310.01724 269.897311 
L 310.01724 268.664343 
L 310.79232 268.664343 
L 310.79232 267.38886 
L 311.5674 267.38886 
L 311.5674 265.985828 
L 312.34248 265.985828 
L 312.34248 264.582796 
L 313.11756 264.582796 
L 313.11756 263.094732 
L 313.89264 263.094732 
L 313.89264 261.606668 
L 314.66772 261.606668 
L 314.66772 260.118604 
L 315.4428 260.118604 
L 315.4428 258.588024 
L 316.21788 258.588024 
L 316.21788 257.09996 
L 316.99296 257.09996 
L 316.99296 255.56938 
L 317.76804 255.56938 
L 317.76804 253.996284 
L 318.54312 253.996284 
L 318.54312 252.380671 
L 319.3182 252.380671 
L 319.3182 250.765059 
L 320.09328 250.765059 
L 320.09328 249.064414 
L 320.86836 249.064414 
L 320.86836 247.321254 
L 321.64344 247.321254 
L 321.64344 245.578093 
L 322.41852 245.578093 
L 322.41852 243.834932 
L 323.1936 243.834932 
L 323.1936 242.091772 
L 323.96868 242.091772 
L 323.96868 240.433643 
L 324.74376 240.433643 
L 324.74376 238.860547 
L 325.51884 238.860547 
L 325.51884 237.329967 
L 326.29392 237.329967 
L 326.29392 235.884419 
L 327.069 235.884419 
L 327.069 234.523903 
L 327.84408 234.523903 
L 327.84408 233.120871 
L 328.61916 233.120871 
L 328.61916 231.71784 
L 329.39424 231.71784 
L 329.39424 230.314808 
L 330.16932 230.314808 
L 330.16932 228.86926 
L 330.9444 228.86926 
L 330.9444 227.381196 
L 331.71948 227.381196 
L 331.71948 225.935648 
L 332.49456 225.935648 
L 332.49456 224.4901 
L 333.26964 224.4901 
L 333.26964 223.129584 
L 334.04472 223.129584 
L 334.04472 221.811585 
L 334.8198 221.811585 
L 334.8198 220.578617 
L 335.59488 220.578617 
L 335.59488 219.430682 
L 336.36996 219.430682 
L 336.36996 218.282747 
L 337.14504 218.282747 
L 337.14504 217.134812 
L 337.92012 217.134812 
L 337.92012 216.029393 
L 338.6952 216.029393 
L 338.6952 214.838942 
L 339.47028 214.838942 
L 339.47028 213.691007 
L 340.24536 213.691007 
L 340.24536 212.543072 
L 341.02044 212.543072 
L 341.02044 211.480169 
L 341.79552 211.480169 
L 341.79552 210.459782 
L 342.5706 210.459782 
L 342.5706 209.651976 
L 343.34568 209.651976 
L 343.34568 208.971718 
L 344.12076 208.971718 
L 344.12076 208.461525 
L 344.89584 208.461525 
L 344.89584 208.163912 
L 345.67092 208.163912 
L 345.67092 208.036364 
L 347.22108 208.07888 
L 347.22108 208.248944 
L 347.99616 208.248944 
L 347.99616 208.546557 
L 348.77124 208.546557 
L 348.77124 208.971718 
L 349.54632 208.971718 
L 349.54632 209.566944 
L 350.3214 209.566944 
L 350.3214 210.289718 
L 351.09648 210.289718 
L 351.09648 211.14004 
L 351.87156 211.14004 
L 351.87156 212.202943 
L 352.64664 212.202943 
L 352.64664 213.43591 
L 353.42172 213.43591 
L 353.42172 214.796426 
L 354.1968 214.796426 
L 354.1968 216.28449 
L 354.97188 216.28449 
L 354.97188 217.81507 
L 355.74696 217.81507 
L 355.74696 219.388166 
L 356.52204 219.388166 
L 356.52204 220.918746 
L 357.29712 220.918746 
L 357.29712 222.449327 
L 358.0722 222.449327 
L 358.0722 223.852358 
L 358.84728 223.852358 
L 358.84728 225.25539 
L 359.62236 225.25539 
L 359.62236 226.57339 
L 360.39744 226.57339 
L 360.39744 227.891389 
L 361.17252 227.891389 
L 361.17252 229.166873 
L 361.9476 229.166873 
L 361.9476 230.442356 
L 362.72268 230.442356 
L 362.72268 231.675323 
L 363.49776 231.675323 
L 363.49776 232.950807 
L 364.27284 232.950807 
L 364.27284 234.311323 
L 365.04792 234.311323 
L 365.04792 235.75687 
L 365.823 235.75687 
L 365.823 237.287451 
L 366.59808 237.287451 
L 366.59808 238.945579 
L 367.37316 238.945579 
L 367.37316 240.68874 
L 368.14824 240.68874 
L 368.14824 242.516933 
L 368.92332 242.516933 
L 368.92332 244.345126 
L 369.6984 244.345126 
L 369.6984 246.215835 
L 370.47348 246.215835 
L 370.47348 248.12906 
L 371.24856 248.12906 
L 371.24856 250.212349 
L 372.02364 250.212349 
L 372.02364 252.50822 
L 372.79872 252.50822 
L 372.79872 255.229251 
L 373.5738 255.229251 
L 373.5738 258.502992 
L 374.34888 258.502992 
L 374.34888 262.45699 
L 375.12396 262.45699 
L 375.12396 267.091247 
L 375.89904 267.091247 
L 375.89904 272.405761 
L 376.67412 272.405761 
L 376.67412 278.315501 
L 377.4492 278.315501 
L 377.4492 284.56537 
L 378.22428 284.56537 
L 378.22428 291.02782 
L 378.99936 291.02782 
L 378.99936 297.362721 
L 379.77444 297.362721 
L 379.77444 303.357493 
L 380.54952 303.357493 
L 380.54952 308.799555 
L 381.3246 308.799555 
L 381.3246 313.518844 
L 382.09968 313.518844 
L 382.09968 317.430327 
L 382.87476 317.430327 
L 382.87476 320.363939 
L 383.64984 320.363939 
L 383.64984 322.362196 
L 384.42492 322.362196 
L 384.42492 323.340067 
L 385.2 323.340067 
L 385.2 323.340067 
" clip-path="url(#pd5f3a4d9ab)" style="fill: none; stroke: #0000ff; stroke-width: 1.5; stroke-linecap: square"/>
   </g>
   <g id="patch_13">
    <path d="M 230.184 329.76 
L 230.184 195.864 
" style="fill: none; stroke: #000000; stroke-width: 0.8; stroke-linejoin: miter; stroke-linecap: square"/>
   </g>
   <g id="patch_14">
    <path d="M 385.2 329.76 
L 385.2 195.864 
" style="fill: none; stroke: #000000; stroke-width: 0.8; stroke-linejoin: miter; stroke-linecap: square"/>
   </g>
   <g id="patch_15">
    <path d="M 230.184 329.76 
L 385.2 329.76 
" style="fill: none; stroke: #000000; stroke-width: 0.8; stroke-linejoin: miter; stroke-linecap: square"/>
   </g>
   <g id="patch_16">
    <path d="M 230.184 195.864 
L 385.2 195.864 
" style="fill: none; stroke: #000000; stroke-width: 0.8; stroke-linejoin: miter; stroke-linecap: square"/>
   </g>
   <g id="text_17">
    <!-- $w_{IDM}$ = ${-1.3726}_{-0.8578}^{+0.6479}$ -->
    <g transform="translate(230.132 189.864) scale(0.14 -0.14)">
     <defs>
      <path id="DejaVuSans-38" d="M 2034 2216 
Q 1584 2216 1326 1975 
Q 1069 1734 1069 1313 
Q 1069 891 1326 650 
Q 1584 409 2034 409 
Q 2484 409 2743 651 
Q 3003 894 3003 1313 
Q 3003 1734 2745 1975 
Q 2488 2216 2034 2216 
z
M 1403 2484 
Q 997 2584 770 2862 
Q 544 3141 544 3541 
Q 544 4100 942 4425 
Q 1341 4750 2034 4750 
Q 2731 4750 3128 4425 
Q 3525 4100 3525 3541 
Q 3525 3141 3298 2862 
Q 3072 2584 2669 2484 
Q 3125 2378 3379 2068 
Q 3634 1759 3634 1313 
Q 3634 634 3220 271 
Q 2806 -91 2034 -91 
Q 1263 -91 848 271 
Q 434 634 434 1313 
Q 434 1759 690 2068 
Q 947 2378 1403 2484 
z
M 1172 3481 
Q 1172 3119 1398 2916 
Q 1625 2713 2034 2713 
Q 2441 2713 2670 2916 
Q 2900 3119 2900 3481 
Q 2900 3844 2670 4047 
Q 2441 4250 2034 4250 
Q 1625 4250 1398 4047 
Q 1172 3844 1172 3481 
z
" transform="scale(0.015625)"/>
     </defs>
     <use xlink:href="#DejaVuSans-Oblique-77" transform="translate(0 0.765625)"/>
     <use xlink:href="#DejaVuSans-Oblique-49" transform="translate(81.787109 -15.640625) scale(0.7)"/>
     <use xlink:href="#DejaVuSans-Oblique-44" transform="translate(102.431641 -15.640625) scale(0.7)"/>
     <use xlink:href="#DejaVuSans-Oblique-4d" transform="translate(156.333008 -15.640625) scale(0.7)"/>
     <use xlink:href="#DejaVuSans-20" transform="translate(219.462891 0.765625)"/>
     <use xlink:href="#DejaVuSans-3d" transform="translate(251.25 0.765625)"/>
     <use xlink:href="#DejaVuSans-20" transform="translate(335.039062 0.765625)"/>
     <use xlink:href="#DejaVuSans-2212" transform="translate(366.826172 0.765625)"/>
     <use xlink:href="#DejaVuSans-31" transform="translate(450.615234 0.765625)"/>
     <use xlink:href="#DejaVuSans-2e" transform="translate(514.238281 0.765625)"/>
     <use xlink:href="#DejaVuSans-33" transform="translate(546.025391 0.765625)"/>
     <use xlink:href="#DejaVuSans-37" transform="translate(609.648438 0.765625)"/>
     <use xlink:href="#DejaVuSans-32" transform="translate(673.271484 0.765625)"/>
     <use xlink:href="#DejaVuSans-36" transform="translate(736.894531 0.765625)"/>
     <use xlink:href="#DejaVuSans-2b" transform="translate(801.474609 39.046875) scale(0.7)"/>
     <use xlink:href="#DejaVuSans-30" transform="translate(860.126953 39.046875) scale(0.7)"/>
     <use xlink:href="#DejaVuSans-2e" transform="translate(904.663086 39.046875) scale(0.7)"/>
     <use xlink:href="#DejaVuSans-36" transform="translate(926.914062 39.046875) scale(0.7)"/>
     <use xlink:href="#DejaVuSans-34" transform="translate(971.450195 39.046875) scale(0.7)"/>
     <use xlink:href="#DejaVuSans-37" transform="translate(1015.986328 39.046875) scale(0.7)"/>
     <use xlink:href="#DejaVuSans-39" transform="translate(1060.522461 39.046875) scale(0.7)"/>
     <use xlink:href="#DejaVuSans-2212" transform="translate(801.474609 -26.578125) scale(0.7)"/>
     <use xlink:href="#DejaVuSans-30" transform="translate(860.126953 -26.578125) scale(0.7)"/>
     <use xlink:href="#DejaVuSans-2e" transform="translate(904.663086 -26.578125) scale(0.7)"/>
     <use xlink:href="#DejaVuSans-38" transform="translate(925.076563 -26.578125) scale(0.7)"/>
     <use xlink:href="#DejaVuSans-35" transform="translate(969.612695 -26.578125) scale(0.7)"/>
     <use xlink:href="#DejaVuSans-37" transform="translate(1009.073828 -26.578125) scale(0.7)"/>
     <use xlink:href="#DejaVuSans-38" transform="translate(1053.609961 -26.578125) scale(0.7)"/>
    </g>
   </g>
  </g>
 </g>
 <defs>
  <clipPath id="p620b9b216f">
   <rect x="64.368" y="30.984" width="155.016" height="133.896"/>
  </clipPath>
  <clipPath id="p5bfd613885">
   <rect x="64.368" y="195.864" width="155.016" height="133.896"/>
  </clipPath>
  <clipPath id="pd5f3a4d9ab">
   <rect x="230.184" y="195.864" width="155.016" height="133.896"/>
  </clipPath>
 </defs>
</svg>
