<?xml version="1.0" encoding="utf-8" standalone="no"?>
<!DOCTYPE svg PUBLIC "-//W3C//DTD SVG 1.1//EN"
  "http://www.w3.org/Graphics/SVG/1.1/DTD/svg11.dtd">
<svg xmlns:xlink="http://www.w3.org/1999/xlink" width="396pt" height="396pt" viewBox="0 0 396 396" xmlns="http://www.w3.org/2000/svg" version="1.1">
 <metadata>
  <rdf:RDF xmlns:dc="http://purl.org/dc/elements/1.1/" xmlns:cc="http://creativecommons.org/ns#" xmlns:rdf="http://www.w3.org/1999/02/22-rdf-syntax-ns#">
   <cc:Work>
    <dc:type rdf:resource="http://purl.org/dc/dcmitype/StillImage"/>
    <dc:date>2024-11-19T13:39:22.351120</dc:date>
    <dc:format>image/svg+xml</dc:format>
    <dc:creator>
     <cc:Agent>
      <dc:title>Matplotlib v3.9.2, https://matplotlib.org/</dc:title>
     </cc:Agent>
    </dc:creator>
   </cc:Work>
  </rdf:RDF>
 </metadata>
 <defs>
  <style type="text/css">*{stroke-linejoin: round; stroke-linecap: butt}</style>
 </defs>
 <g id="figure_1">
  <g id="patch_1">
   <path d="M 0 396 
L 396 396 
L 396 0 
L 0 0 
z
" style="fill: #ffffff"/>
  </g>
  <g id="axes_1">
   <g id="patch_2">
    <path d="M 66.96 164.52 
L 216.571523 164.52 
L 216.571523 30.984 
L 66.96 30.984 
z
" style="fill: #ffffff"/>
   </g>
   <g id="matplotlib.axis_1">
    <g id="xtick_1">
     <g id="line2d_1">
      <defs>
       <path id="mc4f61cac98" d="M 0 0 
L 0 3.5 
" style="stroke: #000000; stroke-width: 0.8"/>
      </defs>
      <g>
       <use xlink:href="#mc4f61cac98" x="69.904029" y="164.52" style="stroke: #000000; stroke-width: 0.8"/>
      </g>
     </g>
    </g>
    <g id="xtick_2">
     <g id="line2d_2">
      <g>
       <use xlink:href="#mc4f61cac98" x="102.657961" y="164.52" style="stroke: #000000; stroke-width: 0.8"/>
      </g>
     </g>
    </g>
    <g id="xtick_3">
     <g id="line2d_3">
      <g>
       <use xlink:href="#mc4f61cac98" x="135.411892" y="164.52" style="stroke: #000000; stroke-width: 0.8"/>
      </g>
     </g>
    </g>
    <g id="xtick_4">
     <g id="line2d_4">
      <g>
       <use xlink:href="#mc4f61cac98" x="168.165823" y="164.52" style="stroke: #000000; stroke-width: 0.8"/>
      </g>
     </g>
    </g>
    <g id="xtick_5">
     <g id="line2d_5">
      <g>
       <use xlink:href="#mc4f61cac98" x="200.919755" y="164.52" style="stroke: #000000; stroke-width: 0.8"/>
      </g>
     </g>
    </g>
   </g>
   <g id="matplotlib.axis_2"/>
   <g id="line2d_6">
    <path d="M 66.96 164.444925 
L 76.684749 164.36985 
L 76.684749 164.294775 
L 80.425037 164.2197 
L 80.425037 164.144625 
L 81.921152 164.06955 
L 81.921152 163.994475 
L 82.66921 163.994475 
L 82.66921 163.844325 
L 84.165325 163.769249 
L 84.165325 163.544024 
L 84.913383 163.544024 
L 84.913383 163.393874 
L 85.66144 163.393874 
L 85.66144 163.168649 
L 86.409498 163.168649 
L 86.409498 162.943424 
L 87.157556 162.943424 
L 87.157556 162.643124 
L 87.905613 162.643124 
L 87.905613 162.342823 
L 88.653671 162.342823 
L 88.653671 162.042523 
L 89.401728 162.042523 
L 89.401728 161.667148 
L 90.149786 161.667148 
L 90.149786 161.216698 
L 90.897844 161.216698 
L 90.897844 160.766247 
L 91.645901 160.766247 
L 91.645901 160.240722 
L 92.393959 160.240722 
L 92.393959 159.715196 
L 93.142017 159.715196 
L 93.142017 159.039521 
L 93.890074 159.039521 
L 93.890074 158.363846 
L 94.638132 158.363846 
L 94.638132 157.613095 
L 95.386189 157.613095 
L 95.386189 156.787269 
L 96.134247 156.787269 
L 96.134247 155.886369 
L 96.882305 155.886369 
L 96.882305 154.910393 
L 97.630362 154.910393 
L 97.630362 153.859342 
L 98.37842 153.859342 
L 98.37842 152.658141 
L 99.126477 152.658141 
L 99.126477 151.45694 
L 99.874535 151.45694 
L 99.874535 150.105589 
L 100.622593 150.105589 
L 100.622593 148.754238 
L 101.37065 148.754238 
L 101.37065 147.252737 
L 102.118708 147.252737 
L 102.118708 145.676161 
L 102.866765 145.676161 
L 102.866765 143.949435 
L 103.614823 143.949435 
L 103.614823 142.222709 
L 104.362881 142.222709 
L 104.362881 140.420907 
L 105.110938 140.420907 
L 105.110938 138.468956 
L 105.858996 138.468956 
L 105.858996 136.441929 
L 106.607054 136.441929 
L 106.607054 134.339828 
L 107.355111 134.339828 
L 107.355111 132.012501 
L 108.103169 132.012501 
L 108.103169 129.6101 
L 108.851226 129.6101 
L 108.851226 127.132623 
L 109.599284 127.132623 
L 109.599284 124.504996 
L 110.347342 124.504996 
L 110.347342 121.877369 
L 111.095399 121.877369 
L 111.095399 119.174667 
L 111.843457 119.174667 
L 111.843457 116.471965 
L 112.591514 116.471965 
L 112.591514 113.769263 
L 113.339572 113.769263 
L 113.339572 111.066561 
L 114.08763 111.066561 
L 114.08763 108.288784 
L 114.835687 108.288784 
L 114.835687 105.435932 
L 115.583745 105.435932 
L 115.583745 102.43293 
L 116.331803 102.43293 
L 116.331803 99.429927 
L 117.07986 99.429927 
L 117.07986 96.426925 
L 117.827918 96.426925 
L 117.827918 93.423923 
L 118.575975 93.423923 
L 118.575975 90.420921 
L 119.324033 90.420921 
L 119.324033 87.417919 
L 120.072091 87.417919 
L 120.072091 84.489992 
L 120.820148 84.489992 
L 120.820148 81.637139 
L 121.568206 81.637139 
L 121.568206 78.709212 
L 122.316263 78.709212 
L 122.316263 75.781285 
L 123.064321 75.781285 
L 123.064321 72.778283 
L 123.812379 72.778283 
L 123.812379 69.850356 
L 124.560436 69.850356 
L 124.560436 66.847354 
L 125.308494 66.847354 
L 125.308494 63.844351 
L 126.056552 63.844351 
L 126.056552 60.991499 
L 126.804609 60.991499 
L 126.804609 58.138647 
L 127.552667 58.138647 
L 127.552667 55.51102 
L 128.300724 55.51102 
L 128.300724 53.108619 
L 129.048782 53.108619 
L 129.048782 50.856367 
L 129.79684 50.856367 
L 129.79684 48.904416 
L 130.544897 48.904416 
L 130.544897 47.252764 
L 131.292955 47.252764 
L 131.292955 45.901413 
L 132.041012 45.901413 
L 132.041012 44.850363 
L 132.78907 44.850363 
L 132.78907 44.024537 
L 133.537128 44.024537 
L 133.537128 43.499012 
L 134.285185 43.499012 
L 134.285185 43.198711 
L 135.781301 43.123636 
L 135.781301 43.348862 
L 136.529358 43.348862 
L 136.529358 43.724237 
L 137.277416 43.724237 
L 137.277416 44.399912 
L 138.025473 44.399912 
L 138.025473 45.375888 
L 138.773531 45.375888 
L 138.773531 46.502014 
L 139.521589 46.502014 
L 139.521589 47.92844 
L 140.269646 47.92844 
L 140.269646 49.580091 
L 141.017704 49.580091 
L 141.017704 51.456967 
L 141.765761 51.456967 
L 141.765761 53.408919 
L 142.513819 53.408919 
L 142.513819 55.586095 
L 143.261877 55.586095 
L 143.261877 57.913422 
L 144.009934 57.913422 
L 144.009934 60.240749 
L 144.757992 60.240749 
L 144.757992 62.793301 
L 145.50605 62.793301 
L 145.50605 65.420928 
L 146.254107 65.420928 
L 146.254107 68.12363 
L 147.002165 68.12363 
L 147.002165 71.051557 
L 147.750222 71.051557 
L 147.750222 74.129634 
L 148.49828 74.129634 
L 148.49828 77.357861 
L 149.246338 77.357861 
L 149.246338 80.811314 
L 149.994395 80.811314 
L 149.994395 84.264766 
L 150.742453 84.264766 
L 150.742453 87.943444 
L 151.49051 87.943444 
L 151.49051 91.622122 
L 152.238568 91.622122 
L 152.238568 95.300799 
L 152.986626 95.300799 
L 152.986626 99.054552 
L 153.734683 99.054552 
L 153.734683 102.808305 
L 154.482741 102.808305 
L 154.482741 106.486983 
L 155.230799 106.486983 
L 155.230799 110.01551 
L 155.978856 110.01551 
L 155.978856 113.393888 
L 156.726914 113.393888 
L 156.726914 116.54704 
L 157.474971 116.54704 
L 157.474971 119.550042 
L 158.223029 119.550042 
L 158.223029 122.402894 
L 158.971087 122.402894 
L 158.971087 124.955446 
L 159.719144 124.955446 
L 159.719144 127.432923 
L 160.467202 127.432923 
L 160.467202 129.76025 
L 161.215259 129.76025 
L 161.215259 131.937426 
L 161.963317 131.937426 
L 161.963317 134.039528 
L 162.711375 134.039528 
L 162.711375 136.066554 
L 163.459432 136.066554 
L 163.459432 138.018506 
L 164.20749 138.018506 
L 164.20749 139.820307 
L 164.955547 139.820307 
L 164.955547 141.547033 
L 165.703605 141.547033 
L 165.703605 143.198684 
L 166.451663 143.198684 
L 166.451663 144.775261 
L 167.19972 144.775261 
L 167.19972 146.201687 
L 167.947778 146.201687 
L 167.947778 147.553038 
L 168.695836 147.553038 
L 168.695836 148.829314 
L 169.443893 148.829314 
L 169.443893 150.030514 
L 170.191951 150.030514 
L 170.191951 151.231715 
L 170.940008 151.231715 
L 170.940008 152.282766 
L 171.688066 152.282766 
L 171.688066 153.333817 
L 172.436124 153.333817 
L 172.436124 154.309793 
L 173.184181 154.309793 
L 173.184181 155.210693 
L 173.932239 155.210693 
L 173.932239 156.036519 
L 174.680296 156.036519 
L 174.680296 156.862344 
L 175.428354 156.862344 
L 175.428354 157.613095 
L 176.176412 157.613095 
L 176.176412 158.28877 
L 176.924469 158.28877 
L 176.924469 158.964446 
L 177.672527 158.964446 
L 177.672527 159.565046 
L 178.420585 159.565046 
L 178.420585 160.090572 
L 179.168642 160.090572 
L 179.168642 160.616097 
L 179.9167 160.616097 
L 179.9167 161.066547 
L 180.664757 161.066547 
L 180.664757 161.441923 
L 181.412815 161.441923 
L 181.412815 161.817298 
L 182.160873 161.817298 
L 182.160873 162.042523 
L 182.90893 162.042523 
L 182.90893 162.267748 
L 183.656988 162.267748 
L 183.656988 162.492974 
L 185.153103 162.568049 
L 185.153103 162.718199 
L 186.649218 162.793274 
L 186.649218 162.868349 
L 188.145334 162.943424 
L 188.145334 163.093574 
L 189.641449 163.168649 
L 189.641449 163.318799 
L 191.137564 163.393874 
L 191.137564 163.544024 
L 191.885622 163.544024 
L 191.885622 163.694174 
L 193.381737 163.769249 
L 193.381737 163.9194 
L 194.877852 163.994475 
L 194.877852 164.06955 
L 196.373967 164.144625 
L 196.373967 164.2197 
L 199.366198 164.294775 
L 199.366198 164.36985 
L 211.33512 164.444925 
L 211.33512 164.52 
L 216.571523 164.52 
L 216.571523 164.52 
" clip-path="url(#p336892b149)" style="fill: none; stroke: #bf00bf; stroke-width: 1.5; stroke-linecap: square"/>
   </g>
   <g id="patch_3">
    <path d="M 66.96 164.52 
L 66.96 30.984 
" style="fill: none; stroke: #000000; stroke-width: 0.8; stroke-linejoin: miter; stroke-linecap: square"/>
   </g>
   <g id="patch_4">
    <path d="M 216.571523 164.52 
L 216.571523 30.984 
" style="fill: none; stroke: #000000; stroke-width: 0.8; stroke-linejoin: miter; stroke-linecap: square"/>
   </g>
   <g id="patch_5">
    <path d="M 66.96 164.52 
L 216.571523 164.52 
" style="fill: none; stroke: #000000; stroke-width: 0.8; stroke-linejoin: miter; stroke-linecap: square"/>
   </g>
   <g id="patch_6">
    <path d="M 66.96 30.984 
L 216.571523 30.984 
" style="fill: none; stroke: #000000; stroke-width: 0.8; stroke-linejoin: miter; stroke-linecap: square"/>
   </g>
   <g id="text_1">
    <!-- $\Omega_{2,0}$ = ${0.3248}_{-0.0126}^{+0.0123}$ -->
    <g transform="translate(71.065761 24.984) scale(0.14 -0.14)">
     <defs>
      <path id="DejaVuSans-3a9" d="M 4647 556 
L 4647 0 
L 2772 0 
L 2772 556 
Q 3325 859 3634 1378 
Q 3944 1897 3944 2528 
Q 3944 3278 3531 3731 
Q 3119 4184 2444 4184 
Q 1769 4184 1355 3729 
Q 941 3275 941 2528 
Q 941 1897 1250 1378 
Q 1563 859 2119 556 
L 2119 0 
L 244 0 
L 244 556 
L 1241 556 
Q 747 991 519 1456 
Q 294 1922 294 2497 
Q 294 3491 894 4106 
Q 1491 4722 2444 4722 
Q 3391 4722 3994 4106 
Q 4594 3494 4594 2528 
Q 4594 1922 4372 1459 
Q 4150 997 3647 556 
L 4647 556 
z
" transform="scale(0.015625)"/>
      <path id="DejaVuSans-32" d="M 1228 531 
L 3431 531 
L 3431 0 
L 469 0 
L 469 531 
Q 828 903 1448 1529 
Q 2069 2156 2228 2338 
Q 2531 2678 2651 2914 
Q 2772 3150 2772 3378 
Q 2772 3750 2511 3984 
Q 2250 4219 1831 4219 
Q 1534 4219 1204 4116 
Q 875 4013 500 3803 
L 500 4441 
Q 881 4594 1212 4672 
Q 1544 4750 1819 4750 
Q 2544 4750 2975 4387 
Q 3406 4025 3406 3419 
Q 3406 3131 3298 2873 
Q 3191 2616 2906 2266 
Q 2828 2175 2409 1742 
Q 1991 1309 1228 531 
z
" transform="scale(0.015625)"/>
      <path id="DejaVuSans-2c" d="M 750 794 
L 1409 794 
L 1409 256 
L 897 -744 
L 494 -744 
L 750 256 
L 750 794 
z
" transform="scale(0.015625)"/>
      <path id="DejaVuSans-30" d="M 2034 4250 
Q 1547 4250 1301 3770 
Q 1056 3291 1056 2328 
Q 1056 1369 1301 889 
Q 1547 409 2034 409 
Q 2525 409 2770 889 
Q 3016 1369 3016 2328 
Q 3016 3291 2770 3770 
Q 2525 4250 2034 4250 
z
M 2034 4750 
Q 2819 4750 3233 4129 
Q 3647 3509 3647 2328 
Q 3647 1150 3233 529 
Q 2819 -91 2034 -91 
Q 1250 -91 836 529 
Q 422 1150 422 2328 
Q 422 3509 836 4129 
Q 1250 4750 2034 4750 
z
" transform="scale(0.015625)"/>
      <path id="DejaVuSans-20" transform="scale(0.015625)"/>
      <path id="DejaVuSans-3d" d="M 678 2906 
L 4684 2906 
L 4684 2381 
L 678 2381 
L 678 2906 
z
M 678 1631 
L 4684 1631 
L 4684 1100 
L 678 1100 
L 678 1631 
z
" transform="scale(0.015625)"/>
      <path id="DejaVuSans-2e" d="M 684 794 
L 1344 794 
L 1344 0 
L 684 0 
L 684 794 
z
" transform="scale(0.015625)"/>
      <path id="DejaVuSans-33" d="M 2597 2516 
Q 3050 2419 3304 2112 
Q 3559 1806 3559 1356 
Q 3559 666 3084 287 
Q 2609 -91 1734 -91 
Q 1441 -91 1130 -33 
Q 819 25 488 141 
L 488 750 
Q 750 597 1062 519 
Q 1375 441 1716 441 
Q 2309 441 2620 675 
Q 2931 909 2931 1356 
Q 2931 1769 2642 2001 
Q 2353 2234 1838 2234 
L 1294 2234 
L 1294 2753 
L 1863 2753 
Q 2328 2753 2575 2939 
Q 2822 3125 2822 3475 
Q 2822 3834 2567 4026 
Q 2313 4219 1838 4219 
Q 1578 4219 1281 4162 
Q 984 4106 628 3988 
L 628 4550 
Q 988 4650 1302 4700 
Q 1616 4750 1894 4750 
Q 2613 4750 3031 4423 
Q 3450 4097 3450 3541 
Q 3450 3153 3228 2886 
Q 3006 2619 2597 2516 
z
" transform="scale(0.015625)"/>
      <path id="DejaVuSans-34" d="M 2419 4116 
L 825 1625 
L 2419 1625 
L 2419 4116 
z
M 2253 4666 
L 3047 4666 
L 3047 1625 
L 3713 1625 
L 3713 1100 
L 3047 1100 
L 3047 0 
L 2419 0 
L 2419 1100 
L 313 1100 
L 313 1709 
L 2253 4666 
z
" transform="scale(0.015625)"/>
      <path id="DejaVuSans-38" d="M 2034 2216 
Q 1584 2216 1326 1975 
Q 1069 1734 1069 1313 
Q 1069 891 1326 650 
Q 1584 409 2034 409 
Q 2484 409 2743 651 
Q 3003 894 3003 1313 
Q 3003 1734 2745 1975 
Q 2488 2216 2034 2216 
z
M 1403 2484 
Q 997 2584 770 2862 
Q 544 3141 544 3541 
Q 544 4100 942 4425 
Q 1341 4750 2034 4750 
Q 2731 4750 3128 4425 
Q 3525 4100 3525 3541 
Q 3525 3141 3298 2862 
Q 3072 2584 2669 2484 
Q 3125 2378 3379 2068 
Q 3634 1759 3634 1313 
Q 3634 634 3220 271 
Q 2806 -91 2034 -91 
Q 1263 -91 848 271 
Q 434 634 434 1313 
Q 434 1759 690 2068 
Q 947 2378 1403 2484 
z
M 1172 3481 
Q 1172 3119 1398 2916 
Q 1625 2713 2034 2713 
Q 2441 2713 2670 2916 
Q 2900 3119 2900 3481 
Q 2900 3844 2670 4047 
Q 2441 4250 2034 4250 
Q 1625 4250 1398 4047 
Q 1172 3844 1172 3481 
z
" transform="scale(0.015625)"/>
      <path id="DejaVuSans-2b" d="M 2944 4013 
L 2944 2272 
L 4684 2272 
L 4684 1741 
L 2944 1741 
L 2944 0 
L 2419 0 
L 2419 1741 
L 678 1741 
L 678 2272 
L 2419 2272 
L 2419 4013 
L 2944 4013 
z
" transform="scale(0.015625)"/>
      <path id="DejaVuSans-31" d="M 794 531 
L 1825 531 
L 1825 4091 
L 703 3866 
L 703 4441 
L 1819 4666 
L 2450 4666 
L 2450 531 
L 3481 531 
L 3481 0 
L 794 0 
L 794 531 
z
" transform="scale(0.015625)"/>
      <path id="DejaVuSans-2212" d="M 678 2272 
L 4684 2272 
L 4684 1741 
L 678 1741 
L 678 2272 
z
" transform="scale(0.015625)"/>
      <path id="DejaVuSans-36" d="M 2113 2584 
Q 1688 2584 1439 2293 
Q 1191 2003 1191 1497 
Q 1191 994 1439 701 
Q 1688 409 2113 409 
Q 2538 409 2786 701 
Q 3034 994 3034 1497 
Q 3034 2003 2786 2293 
Q 2538 2584 2113 2584 
z
M 3366 4563 
L 3366 3988 
Q 3128 4100 2886 4159 
Q 2644 4219 2406 4219 
Q 1781 4219 1451 3797 
Q 1122 3375 1075 2522 
Q 1259 2794 1537 2939 
Q 1816 3084 2150 3084 
Q 2853 3084 3261 2657 
Q 3669 2231 3669 1497 
Q 3669 778 3244 343 
Q 2819 -91 2113 -91 
Q 1303 -91 875 529 
Q 447 1150 447 2328 
Q 447 3434 972 4092 
Q 1497 4750 2381 4750 
Q 2619 4750 2861 4703 
Q 3103 4656 3366 4563 
z
" transform="scale(0.015625)"/>
     </defs>
     <use xlink:href="#DejaVuSans-3a9" transform="translate(0 0.765625)"/>
     <use xlink:href="#DejaVuSans-32" transform="translate(77.373047 -15.640625) scale(0.7)"/>
     <use xlink:href="#DejaVuSans-2c" transform="translate(121.90918 -15.640625) scale(0.7)"/>
     <use xlink:href="#DejaVuSans-30" transform="translate(157.797852 -15.640625) scale(0.7)"/>
     <use xlink:href="#DejaVuSans-20" transform="translate(205.068359 0.765625)"/>
     <use xlink:href="#DejaVuSans-3d" transform="translate(236.855469 0.765625)"/>
     <use xlink:href="#DejaVuSans-20" transform="translate(320.644531 0.765625)"/>
     <use xlink:href="#DejaVuSans-30" transform="translate(352.431641 0.765625)"/>
     <use xlink:href="#DejaVuSans-2e" transform="translate(416.054688 0.765625)"/>
     <use xlink:href="#DejaVuSans-33" transform="translate(447.841797 0.765625)"/>
     <use xlink:href="#DejaVuSans-32" transform="translate(511.464844 0.765625)"/>
     <use xlink:href="#DejaVuSans-34" transform="translate(575.087891 0.765625)"/>
     <use xlink:href="#DejaVuSans-38" transform="translate(638.710938 0.765625)"/>
     <use xlink:href="#DejaVuSans-2b" transform="translate(703.291016 39.046875) scale(0.7)"/>
     <use xlink:href="#DejaVuSans-30" transform="translate(761.943359 39.046875) scale(0.7)"/>
     <use xlink:href="#DejaVuSans-2e" transform="translate(806.479492 39.046875) scale(0.7)"/>
     <use xlink:href="#DejaVuSans-30" transform="translate(828.730469 39.046875) scale(0.7)"/>
     <use xlink:href="#DejaVuSans-31" transform="translate(873.266602 39.046875) scale(0.7)"/>
     <use xlink:href="#DejaVuSans-32" transform="translate(917.802734 39.046875) scale(0.7)"/>
     <use xlink:href="#DejaVuSans-33" transform="translate(962.338867 39.046875) scale(0.7)"/>
     <use xlink:href="#DejaVuSans-2212" transform="translate(703.291016 -26.578125) scale(0.7)"/>
     <use xlink:href="#DejaVuSans-30" transform="translate(761.943359 -26.578125) scale(0.7)"/>
     <use xlink:href="#DejaVuSans-2e" transform="translate(806.479492 -26.578125) scale(0.7)"/>
     <use xlink:href="#DejaVuSans-30" transform="translate(828.730469 -26.578125) scale(0.7)"/>
     <use xlink:href="#DejaVuSans-31" transform="translate(873.266602 -26.578125) scale(0.7)"/>
     <use xlink:href="#DejaVuSans-32" transform="translate(917.802734 -26.578125) scale(0.7)"/>
     <use xlink:href="#DejaVuSans-36" transform="translate(962.338867 -26.578125) scale(0.7)"/>
    </g>
   </g>
  </g>
  <g id="axes_2">
   <g id="matplotlib.axis_3"/>
   <g id="matplotlib.axis_4"/>
  </g>
  <g id="axes_3">
   <g id="patch_7">
    <path d="M 66.96 329.04 
L 216.571523 329.04 
L 216.571523 195.504 
L 66.96 195.504 
z
" style="fill: #ffffff"/>
   </g>
   <g id="QuadContourSet_1">
    <path d="M 104.362881 322.44256 
L 107.355111 323.64526 
L 110.347342 323.602551 
L 113.339572 323.172758 
L 116.331803 322.82688 
L 119.324033 322.48186 
L 120.220155 322.3632 
L 122.316263 322.183841 
L 125.308494 322.090257 
L 128.300724 322.040719 
L 131.292955 321.745607 
L 134.285185 321.015522 
L 137.277416 320.125387 
L 139.566689 319.69248 
L 140.269646 319.589968 
L 143.261877 319.392281 
L 146.254107 318.668151 
L 148.739119 317.02176 
L 149.246338 316.758335 
L 152.238568 315.386375 
L 155.220788 314.35104 
L 155.230799 314.348081 
L 158.223029 313.11703 
L 159.914343 311.68032 
L 161.215259 309.821707 
L 162.194303 309.0096 
L 164.20749 306.864943 
L 164.630853 306.33888 
L 166.232864 303.66816 
L 166.981176 300.99744 
L 167.150346 298.32672 
L 167.19972 297.924353 
L 167.553841 295.656 
L 168.0493 292.98528 
L 168.892019 290.31456 
L 169.803193 287.64384 
L 170.191951 285.410024 
L 170.314231 284.97312 
L 171.55169 282.3024 
L 171.538494 279.63168 
L 170.583279 276.96096 
L 170.191951 274.676138 
L 170.147288 274.29024 
L 169.978528 271.61952 
L 170.191951 270.621064 
L 170.702477 268.9488 
L 171.536253 266.27808 
L 171.316675 263.60736 
L 171.622079 260.93664 
L 172.625164 258.26592 
L 173.013132 255.5952 
L 172.771677 252.92448 
L 172.46649 250.25376 
L 172.456141 247.58304 
L 171.985446 244.91232 
L 171.523392 242.2416 
L 171.326775 239.57088 
L 171.213049 236.90016 
L 171.27897 234.22944 
L 171.449449 231.55872 
L 171.503647 228.888 
L 171.905344 226.21728 
L 172.569843 223.54656 
L 172.503139 220.87584 
L 171.334092 218.20512 
L 170.191951 216.303431 
L 169.583239 215.5344 
L 169.051495 212.86368 
L 169.348572 210.19296 
L 170.030954 207.52224 
L 170.191951 207.0012 
L 170.900598 204.85152 
L 171.080075 202.1808 
L 170.191951 199.99205 
L 169.992774 199.51008 
L 168.49551 196.83936 
L 168.49551 194.16864 
L 167.19972 193.787057 
L 164.20749 192.997762 
L 161.215259 192.539509 
L 158.223029 192.32096 
L 155.230799 192.150601 
L 152.238568 191.993888 
L 149.246338 191.886965 
L 146.254107 191.835493 
L 143.261877 191.833997 
L 140.269646 191.827416 
L 137.277416 191.806041 
L 134.285185 191.817381 
L 131.292955 191.867069 
L 128.300724 191.916775 
L 125.308494 191.936553 
L 122.316263 191.941272 
L 119.324033 191.981278 
L 116.331803 192.11051 
L 113.339572 192.358862 
L 110.347342 192.728154 
L 107.355111 193.123925 
L 104.362881 193.635894 
L 102.101389 194.16864 
L 102.101389 196.83936 
L 101.37065 198.278711 
L 100.792893 199.51008 
L 99.735987 202.1808 
L 99.186917 204.85152 
L 98.917273 207.52224 
L 99.144302 210.19296 
L 100.439165 212.86368 
L 101.059317 215.5344 
L 100.312639 218.20512 
L 100.062178 220.87584 
L 100.014959 223.54656 
L 99.695096 226.21728 
L 99.551628 228.888 
L 100.52261 231.55872 
L 101.37065 233.123478 
L 101.693719 234.22944 
L 101.780348 236.90016 
L 101.420572 239.57088 
L 101.391545 242.2416 
L 102.210123 244.91232 
L 102.54828 247.58304 
L 101.980459 250.25376 
L 101.37065 251.414665 
L 100.223133 252.92448 
L 98.532477 255.5952 
L 98.37842 257.072109 
L 98.251364 258.26592 
L 98.37842 258.912825 
L 98.703648 260.93664 
L 99.636964 263.60736 
L 101.37065 266.025868 
L 101.597056 266.27808 
L 102.925959 268.9488 
L 102.815553 271.61952 
L 102.710315 274.29024 
L 103.202288 276.96096 
L 104.117577 279.63168 
L 103.644016 282.3024 
L 102.187527 284.97312 
L 101.796746 287.64384 
L 101.37065 290.31456 
L 101.37065 290.31456 
L 100.702887 292.98528 
L 101.030221 295.656 
L 101.37065 297.64982 
L 101.465607 298.32672 
L 101.37065 298.830908 
L 100.832075 300.99744 
L 99.835634 303.66816 
L 99.348707 306.33888 
L 99.203119 309.0096 
L 99.178554 311.68032 
L 99.343862 314.35104 
L 99.442501 317.02176 
L 100.133359 319.69248 
L 101.37065 320.371695 
L 104.1912 322.3632 
z
" clip-path="url(#p2ab8bfd4e3)" style="fill: #ffffff"/>
   </g>
   <g id="QuadContourSet_2">
    <path d="M 65.463885 333.04608 
L 68.456115 333.04608 
L 71.448346 333.04608 
L 74.440576 333.04608 
L 77.432807 333.04608 
L 80.425037 333.04608 
L 83.417268 333.04608 
L 86.409498 333.04608 
L 89.401728 333.04608 
L 92.393959 333.04608 
L 95.386189 333.04608 
L 98.37842 333.04608 
L 101.37065 333.04608 
L 104.362881 333.04608 
L 107.355111 333.04608 
L 110.347342 333.04608 
L 113.339572 333.04608 
L 116.331803 333.04608 
L 119.324033 333.04608 
L 122.316263 333.04608 
L 125.308494 333.04608 
L 128.300724 333.04608 
L 131.292955 333.04608 
L 134.285185 333.04608 
L 137.277416 333.04608 
L 140.269646 333.04608 
L 143.261877 333.04608 
L 146.254107 333.04608 
L 149.246338 333.04608 
L 152.238568 333.04608 
L 155.230799 333.04608 
L 158.223029 333.04608 
L 161.215259 333.04608 
L 164.20749 333.04608 
L 167.19972 333.04608 
L 170.191951 333.04608 
L 173.184181 333.04608 
L 176.176412 333.04608 
L 179.168642 333.04608 
L 182.160873 333.04608 
L 185.153103 333.04608 
L 188.145334 333.04608 
L 191.137564 333.04608 
L 194.129794 333.04608 
L 197.122025 333.04608 
L 200.114255 333.04608 
L 203.106486 333.04608 
L 206.098716 333.04608 
L 209.090947 333.04608 
L 212.083177 333.04608 
L 215.075408 333.04608 
L 218.067638 333.04608 
L 221.059869 333.04608 
L 221.059869 330.37536 
L 221.059869 327.70464 
L 221.059869 325.03392 
L 221.059869 322.3632 
L 221.059869 319.69248 
L 221.059869 317.02176 
L 221.059869 314.35104 
L 221.059869 311.68032 
L 221.059869 309.0096 
L 221.059869 306.33888 
L 221.059869 303.66816 
L 221.059869 300.99744 
L 221.059869 298.32672 
L 221.059869 295.656 
L 221.059869 292.98528 
L 221.059869 290.31456 
L 221.059869 287.64384 
L 221.059869 284.97312 
L 221.059869 282.3024 
L 221.059869 279.63168 
L 221.059869 276.96096 
L 221.059869 274.29024 
L 221.059869 271.61952 
L 221.059869 268.9488 
L 221.059869 266.27808 
L 221.059869 263.60736 
L 221.059869 260.93664 
L 221.059869 258.26592 
L 221.059869 255.5952 
L 221.059869 252.92448 
L 221.059869 250.25376 
L 221.059869 247.58304 
L 221.059869 244.91232 
L 221.059869 242.2416 
L 221.059869 239.57088 
L 221.059869 236.90016 
L 221.059869 234.22944 
L 221.059869 231.55872 
L 221.059869 228.888 
L 221.059869 226.21728 
L 221.059869 223.54656 
L 221.059869 220.87584 
L 221.059869 218.20512 
L 221.059869 215.5344 
L 221.059869 212.86368 
L 221.059869 210.19296 
L 221.059869 207.52224 
L 221.059869 204.85152 
L 221.059869 202.1808 
L 221.059869 199.51008 
L 221.059869 196.83936 
L 221.059869 194.16864 
L 221.059869 191.49792 
L 218.067638 191.49792 
L 215.075408 191.49792 
L 212.083177 191.49792 
L 209.090947 191.49792 
L 206.098716 191.49792 
L 203.106486 191.49792 
L 200.114255 191.49792 
L 197.122025 191.49792 
L 194.129794 191.49792 
L 191.137564 191.49792 
L 188.145334 191.49792 
L 185.153103 191.49792 
L 182.160873 191.49792 
L 179.168642 191.49792 
L 176.176412 191.49792 
L 173.184181 191.49792 
L 170.191951 191.49792 
L 167.19972 191.49792 
L 164.20749 191.49792 
L 161.215259 191.49792 
L 158.223029 191.49792 
L 155.230799 191.49792 
L 152.238568 191.49792 
L 149.246338 191.49792 
L 146.254107 191.49792 
L 143.261877 191.49792 
L 140.269646 191.49792 
L 137.277416 191.49792 
L 134.285185 191.49792 
L 131.292955 191.49792 
L 128.300724 191.49792 
L 125.308494 191.49792 
L 122.316263 191.49792 
L 119.324033 191.49792 
L 116.331803 191.49792 
L 113.339572 191.49792 
L 110.347342 191.49792 
L 107.355111 191.49792 
L 104.362881 191.49792 
L 101.37065 191.49792 
L 98.37842 191.49792 
L 95.386189 191.49792 
L 92.393959 191.49792 
L 89.401728 191.49792 
L 86.409498 191.49792 
L 83.417268 191.49792 
L 80.425037 191.49792 
L 77.432807 191.49792 
L 74.440576 191.49792 
L 71.448346 191.49792 
L 68.456115 191.49792 
L 65.463885 191.49792 
L 62.471654 191.49792 
L 62.471654 194.16864 
L 62.471654 196.83936 
L 62.471654 199.51008 
L 62.471654 202.1808 
L 62.471654 204.85152 
L 62.471654 207.52224 
L 62.471654 210.19296 
L 62.471654 212.86368 
L 62.471654 215.5344 
L 62.471654 218.20512 
L 62.471654 220.87584 
L 62.471654 223.54656 
L 62.471654 226.21728 
L 62.471654 228.888 
L 62.471654 231.55872 
L 62.471654 234.22944 
L 62.471654 236.90016 
L 62.471654 239.57088 
L 62.471654 242.2416 
L 62.471654 244.91232 
L 62.471654 247.58304 
L 62.471654 250.25376 
L 62.471654 252.92448 
L 62.471654 255.5952 
L 62.471654 258.26592 
L 62.471654 260.93664 
L 62.471654 263.60736 
L 62.471654 266.27808 
L 62.471654 268.9488 
L 62.471654 271.61952 
L 62.471654 274.29024 
L 62.471654 276.96096 
L 62.471654 279.63168 
L 62.471654 282.3024 
L 62.471654 284.97312 
L 62.471654 287.64384 
L 62.471654 290.31456 
L 62.471654 292.98528 
L 62.471654 295.656 
L 62.471654 298.32672 
L 62.471654 300.99744 
L 62.471654 303.66816 
L 62.471654 306.33888 
L 62.471654 309.0096 
L 62.471654 311.68032 
L 62.471654 314.35104 
L 62.471654 317.02176 
L 62.471654 319.69248 
L 62.471654 322.3632 
L 62.471654 325.03392 
L 62.471654 327.70464 
L 62.471654 330.37536 
L 62.471654 333.04608 
L 65.463885 333.04608 
z
M 104.1912 322.3632 
L 101.37065 320.371695 
L 100.133359 319.69248 
L 99.442501 317.02176 
L 99.343862 314.35104 
L 99.178554 311.68032 
L 99.203119 309.0096 
L 99.348707 306.33888 
L 99.835634 303.66816 
L 100.832075 300.99744 
L 101.37065 298.830908 
L 101.465607 298.32672 
L 101.37065 297.64982 
L 101.030221 295.656 
L 100.702887 292.98528 
L 101.37065 290.31456 
L 101.37065 290.31456 
L 101.796746 287.64384 
L 102.187527 284.97312 
L 103.644016 282.3024 
L 104.117577 279.63168 
L 103.202288 276.96096 
L 102.710315 274.29024 
L 102.815553 271.61952 
L 102.925959 268.9488 
L 101.597056 266.27808 
L 101.37065 266.025868 
L 99.636964 263.60736 
L 98.703648 260.93664 
L 98.37842 258.912825 
L 98.251364 258.26592 
L 98.37842 257.072109 
L 98.532477 255.5952 
L 100.223133 252.92448 
L 101.37065 251.414665 
L 101.980459 250.25376 
L 102.54828 247.58304 
L 102.210123 244.91232 
L 101.391545 242.2416 
L 101.420572 239.57088 
L 101.780348 236.90016 
L 101.693719 234.22944 
L 101.37065 233.123478 
L 100.52261 231.55872 
L 99.551628 228.888 
L 99.695096 226.21728 
L 100.014959 223.54656 
L 100.062178 220.87584 
L 100.312639 218.20512 
L 101.059317 215.5344 
L 100.439165 212.86368 
L 99.144302 210.19296 
L 98.917273 207.52224 
L 99.186917 204.85152 
L 99.735987 202.1808 
L 100.792893 199.51008 
L 101.37065 198.278711 
L 102.101389 196.83936 
L 102.101389 194.16864 
L 104.362881 193.635894 
L 107.355111 193.123925 
L 110.347342 192.728154 
L 113.339572 192.358862 
L 116.331803 192.11051 
L 119.324033 191.981278 
L 122.316263 191.941272 
L 125.308494 191.936553 
L 128.300724 191.916775 
L 131.292955 191.867069 
L 134.285185 191.817381 
L 137.277416 191.806041 
L 140.269646 191.827416 
L 143.261877 191.833997 
L 146.254107 191.835493 
L 149.246338 191.886965 
L 152.238568 191.993888 
L 155.230799 192.150601 
L 158.223029 192.32096 
L 161.215259 192.539509 
L 164.20749 192.997762 
L 167.19972 193.787057 
L 168.49551 194.16864 
L 168.49551 196.83936 
L 169.992774 199.51008 
L 170.191951 199.99205 
L 171.080075 202.1808 
L 170.900598 204.85152 
L 170.191951 207.0012 
L 170.030954 207.52224 
L 169.348572 210.19296 
L 169.051495 212.86368 
L 169.583239 215.5344 
L 170.191951 216.303431 
L 171.334092 218.20512 
L 172.503139 220.87584 
L 172.569843 223.54656 
L 171.905344 226.21728 
L 171.503647 228.888 
L 171.449449 231.55872 
L 171.27897 234.22944 
L 171.213049 236.90016 
L 171.326775 239.57088 
L 171.523392 242.2416 
L 171.985446 244.91232 
L 172.456141 247.58304 
L 172.46649 250.25376 
L 172.771677 252.92448 
L 173.013132 255.5952 
L 172.625164 258.26592 
L 171.622079 260.93664 
L 171.316675 263.60736 
L 171.536253 266.27808 
L 170.702477 268.9488 
L 170.191951 270.621064 
L 169.978528 271.61952 
L 170.147288 274.29024 
L 170.191951 274.676138 
L 170.583279 276.96096 
L 171.538494 279.63168 
L 171.55169 282.3024 
L 170.314231 284.97312 
L 170.191951 285.410024 
L 169.803193 287.64384 
L 168.892019 290.31456 
L 168.0493 292.98528 
L 167.553841 295.656 
L 167.19972 297.924353 
L 167.150346 298.32672 
L 166.981176 300.99744 
L 166.232864 303.66816 
L 164.630853 306.33888 
L 164.20749 306.864943 
L 162.194303 309.0096 
L 161.215259 309.821707 
L 159.914343 311.68032 
L 158.223029 313.11703 
L 155.230799 314.348081 
L 155.220788 314.35104 
L 152.238568 315.386375 
L 149.246338 316.758335 
L 148.739119 317.02176 
L 146.254107 318.668151 
L 143.261877 319.392281 
L 140.269646 319.589968 
L 139.566689 319.69248 
L 137.277416 320.125387 
L 134.285185 321.015522 
L 131.292955 321.745607 
L 128.300724 322.040719 
L 125.308494 322.090257 
L 122.316263 322.183841 
L 120.220155 322.3632 
L 119.324033 322.48186 
L 116.331803 322.82688 
L 113.339572 323.172758 
L 110.347342 323.602551 
L 107.355111 323.64526 
L 104.362881 322.44256 
L 104.1912 322.3632 
z
" clip-path="url(#p2ab8bfd4e3)" style="fill: none"/>
    <path d="M 104.362881 322.44256 
L 107.355111 323.64526 
L 110.347342 323.602551 
L 113.339572 323.172758 
L 116.331803 322.82688 
L 119.324033 322.48186 
L 120.220155 322.3632 
L 122.316263 322.183841 
L 125.308494 322.090257 
L 128.300724 322.040719 
L 131.292955 321.745607 
L 134.285185 321.015522 
L 137.277416 320.125387 
L 139.566689 319.69248 
L 140.269646 319.589968 
L 143.261877 319.392281 
L 146.254107 318.668151 
L 148.739119 317.02176 
L 149.246338 316.758335 
L 152.238568 315.386375 
L 155.220788 314.35104 
L 155.230799 314.348081 
L 158.223029 313.11703 
L 159.914343 311.68032 
L 161.215259 309.821707 
L 162.194303 309.0096 
L 164.20749 306.864943 
L 164.630853 306.33888 
L 166.232864 303.66816 
L 166.981176 300.99744 
L 167.150346 298.32672 
L 167.19972 297.924353 
L 167.553841 295.656 
L 168.0493 292.98528 
L 168.892019 290.31456 
L 169.803193 287.64384 
L 170.191951 285.410024 
L 170.314231 284.97312 
L 171.55169 282.3024 
L 171.538494 279.63168 
L 170.583279 276.96096 
L 170.191951 274.676138 
L 170.147288 274.29024 
L 169.978528 271.61952 
L 170.191951 270.621064 
L 170.702477 268.9488 
L 171.536253 266.27808 
L 171.316675 263.60736 
L 171.622079 260.93664 
L 172.625164 258.26592 
L 173.013132 255.5952 
L 172.771677 252.92448 
L 172.46649 250.25376 
L 172.456141 247.58304 
L 171.985446 244.91232 
L 171.523392 242.2416 
L 171.326775 239.57088 
L 171.213049 236.90016 
L 171.27897 234.22944 
L 171.449449 231.55872 
L 171.503647 228.888 
L 171.905344 226.21728 
L 172.569843 223.54656 
L 172.503139 220.87584 
L 171.334092 218.20512 
L 170.191951 216.303431 
L 169.583239 215.5344 
L 169.051495 212.86368 
L 169.348572 210.19296 
L 170.030954 207.52224 
L 170.191951 207.0012 
L 170.900598 204.85152 
L 171.080075 202.1808 
L 170.191951 199.99205 
L 169.992774 199.51008 
L 168.49551 196.83936 
L 168.49551 194.16864 
L 167.19972 193.787057 
L 164.20749 192.997762 
L 161.215259 192.539509 
L 158.223029 192.32096 
L 155.230799 192.150601 
L 152.238568 191.993888 
L 149.246338 191.886965 
L 146.254107 191.835493 
L 143.261877 191.833997 
L 140.269646 191.827416 
L 137.277416 191.806041 
L 134.285185 191.817381 
L 131.292955 191.867069 
L 128.300724 191.916775 
L 125.308494 191.936553 
L 122.316263 191.941272 
L 119.324033 191.981278 
L 116.331803 192.11051 
L 113.339572 192.358862 
L 110.347342 192.728154 
L 107.355111 193.123925 
L 104.362881 193.635894 
L 102.101389 194.16864 
L 102.101389 196.83936 
L 101.37065 198.278711 
L 100.792893 199.51008 
L 99.735987 202.1808 
L 99.186917 204.85152 
L 98.917273 207.52224 
L 99.144302 210.19296 
L 100.439165 212.86368 
L 101.059317 215.5344 
L 100.312639 218.20512 
L 100.062178 220.87584 
L 100.014959 223.54656 
L 99.695096 226.21728 
L 99.551628 228.888 
L 100.52261 231.55872 
L 101.37065 233.123478 
L 101.693719 234.22944 
L 101.780348 236.90016 
L 101.420572 239.57088 
L 101.391545 242.2416 
L 102.210123 244.91232 
L 102.54828 247.58304 
L 101.980459 250.25376 
L 101.37065 251.414665 
L 100.223133 252.92448 
L 98.532477 255.5952 
L 98.37842 257.072109 
L 98.251364 258.26592 
L 98.37842 258.912825 
L 98.703648 260.93664 
L 99.636964 263.60736 
L 101.37065 266.025868 
L 101.597056 266.27808 
L 102.925959 268.9488 
L 102.815553 271.61952 
L 102.710315 274.29024 
L 103.202288 276.96096 
L 104.117577 279.63168 
L 103.644016 282.3024 
L 102.187527 284.97312 
L 101.796746 287.64384 
L 101.37065 290.31456 
L 101.37065 290.31456 
L 100.702887 292.98528 
L 101.030221 295.656 
L 101.37065 297.64982 
L 101.465607 298.32672 
L 101.37065 298.830908 
L 100.832075 300.99744 
L 99.835634 303.66816 
L 99.348707 306.33888 
L 99.203119 309.0096 
L 99.178554 311.68032 
L 99.343862 314.35104 
L 99.442501 317.02176 
L 100.133359 319.69248 
L 101.37065 320.371695 
L 104.1912 322.3632 
z
M 127.842648 314.35104 
L 125.308494 313.717053 
L 122.887311 311.68032 
L 122.316263 309.986741 
L 121.97444 309.0096 
L 121.549946 306.33888 
L 120.176995 303.66816 
L 119.324033 302.076317 
L 118.169504 300.99744 
L 118.278599 298.32672 
L 119.124217 295.656 
L 119.324033 293.804075 
L 119.390785 292.98528 
L 119.324033 292.479002 
L 119.083894 290.31456 
L 119.093166 287.64384 
L 119.127354 284.97312 
L 118.669636 282.3024 
L 118.624072 279.63168 
L 119.324033 276.96096 
L 119.324033 276.96096 
L 119.337147 274.29024 
L 119.324033 274.22889 
L 118.840185 271.61952 
L 118.804195 268.9488 
L 119.324033 266.986228 
L 119.513103 266.27808 
L 119.753259 263.60736 
L 119.324033 262.139355 
L 119.024055 260.93664 
L 118.428197 258.26592 
L 117.597227 255.5952 
L 117.10888 252.92448 
L 117.490658 250.25376 
L 117.944398 247.58304 
L 117.434811 244.91232 
L 116.670039 242.2416 
L 116.331803 240.353471 
L 116.217514 239.57088 
L 115.787435 236.90016 
L 115.892142 234.22944 
L 116.165898 231.55872 
L 116.331803 229.330957 
L 116.363702 228.888 
L 116.688521 226.21728 
L 117.080218 223.54656 
L 116.861289 220.87584 
L 116.331803 218.545924 
L 116.269395 218.20512 
L 116.331803 217.500995 
L 116.479819 215.5344 
L 116.697829 212.86368 
L 116.390196 210.19296 
L 116.461986 207.52224 
L 116.87782 204.85152 
L 117.525778 202.1808 
L 118.009624 199.51008 
L 117.460559 196.83936 
L 117.460559 194.16864 
L 119.324033 193.817761 
L 122.316263 193.625756 
L 125.308494 193.603109 
L 128.300724 193.508182 
L 131.292955 193.269622 
L 134.285185 193.031148 
L 137.277416 192.976725 
L 140.269646 193.079312 
L 143.261877 193.110899 
L 146.254107 193.118077 
L 149.246338 193.365111 
L 152.238568 193.878284 
L 153.593424 194.16864 
L 153.593424 196.83936 
L 153.506368 199.51008 
L 153.860457 202.1808 
L 154.241994 204.85152 
L 154.682091 207.52224 
L 154.614616 210.19296 
L 153.571923 212.86368 
L 152.979592 215.5344 
L 153.271991 218.20512 
L 153.154739 220.87584 
L 153.323077 223.54656 
L 154.05791 226.21728 
L 154.535551 228.888 
L 154.860939 231.55872 
L 155.230799 233.421819 
L 155.369867 234.22944 
L 155.446646 236.90016 
L 155.230799 239.57051 
L 155.230761 239.57088 
L 154.409237 242.2416 
L 153.32927 244.91232 
L 152.832685 247.58304 
L 153.260307 250.25376 
L 153.445115 252.92448 
L 153.157161 255.5952 
L 153.763975 258.26592 
L 154.159125 260.93664 
L 154.084263 263.60736 
L 153.80025 266.27808 
L 153.204786 268.9488 
L 153.465632 271.61952 
L 153.960577 274.29024 
L 153.564108 276.96096 
L 152.925322 279.63168 
L 152.336 282.3024 
L 152.238568 283.198127 
L 152.076816 284.97312 
L 152.084994 287.64384 
L 152.149553 290.31456 
L 151.932463 292.98528 
L 151.787363 295.656 
L 151.417339 298.32672 
L 151.087934 300.99744 
L 150.577176 303.66816 
L 149.246338 305.931885 
L 148.845801 306.33888 
L 146.254107 307.831875 
L 143.261877 308.847033 
L 142.977611 309.0096 
L 140.269646 310.431759 
L 137.277416 311.626347 
L 136.995573 311.68032 
L 134.285185 312.256094 
L 131.292955 313.344251 
L 128.589592 314.35104 
L 128.300724 314.439445 
z
" clip-path="url(#p2ab8bfd4e3)" style="fill: #bf00bf; fill-opacity: 0.333333"/>
    <path d="M 128.300724 314.439445 
L 128.589592 314.35104 
L 131.292955 313.344251 
L 134.285185 312.256094 
L 136.995573 311.68032 
L 137.277416 311.626347 
L 140.269646 310.431759 
L 142.977611 309.0096 
L 143.261877 308.847033 
L 146.254107 307.831875 
L 148.845801 306.33888 
L 149.246338 305.931885 
L 150.577176 303.66816 
L 151.087934 300.99744 
L 151.417339 298.32672 
L 151.787363 295.656 
L 151.932463 292.98528 
L 152.149553 290.31456 
L 152.084994 287.64384 
L 152.076816 284.97312 
L 152.238568 283.198127 
L 152.336 282.3024 
L 152.925322 279.63168 
L 153.564108 276.96096 
L 153.960577 274.29024 
L 153.465632 271.61952 
L 153.204786 268.9488 
L 153.80025 266.27808 
L 154.084263 263.60736 
L 154.159125 260.93664 
L 153.763975 258.26592 
L 153.157161 255.5952 
L 153.445115 252.92448 
L 153.260307 250.25376 
L 152.832685 247.58304 
L 153.32927 244.91232 
L 154.409237 242.2416 
L 155.230761 239.57088 
L 155.230799 239.57051 
L 155.446646 236.90016 
L 155.369867 234.22944 
L 155.230799 233.421819 
L 154.860939 231.55872 
L 154.535551 228.888 
L 154.05791 226.21728 
L 153.323077 223.54656 
L 153.154739 220.87584 
L 153.271991 218.20512 
L 152.979592 215.5344 
L 153.571923 212.86368 
L 154.614616 210.19296 
L 154.682091 207.52224 
L 154.241994 204.85152 
L 153.860457 202.1808 
L 153.506368 199.51008 
L 153.593424 196.83936 
L 153.593424 194.16864 
L 152.238568 193.878284 
L 149.246338 193.365111 
L 146.254107 193.118077 
L 143.261877 193.110899 
L 140.269646 193.079312 
L 137.277416 192.976725 
L 134.285185 193.031148 
L 131.292955 193.269622 
L 128.300724 193.508182 
L 125.308494 193.603109 
L 122.316263 193.625756 
L 119.324033 193.817761 
L 117.460559 194.16864 
L 117.460559 196.83936 
L 118.009624 199.51008 
L 117.525778 202.1808 
L 116.87782 204.85152 
L 116.461986 207.52224 
L 116.390196 210.19296 
L 116.697829 212.86368 
L 116.479819 215.5344 
L 116.331803 217.500995 
L 116.269395 218.20512 
L 116.331803 218.545924 
L 116.861289 220.87584 
L 117.080218 223.54656 
L 116.688521 226.21728 
L 116.363702 228.888 
L 116.331803 229.330957 
L 116.165898 231.55872 
L 115.892142 234.22944 
L 115.787435 236.90016 
L 116.217514 239.57088 
L 116.331803 240.353471 
L 116.670039 242.2416 
L 117.434811 244.91232 
L 117.944398 247.58304 
L 117.490658 250.25376 
L 117.10888 252.92448 
L 117.597227 255.5952 
L 118.428197 258.26592 
L 119.024055 260.93664 
L 119.324033 262.139355 
L 119.753259 263.60736 
L 119.513103 266.27808 
L 119.324033 266.986228 
L 118.804195 268.9488 
L 118.840185 271.61952 
L 119.324033 274.22889 
L 119.337147 274.29024 
L 119.324033 276.96096 
L 119.324033 276.96096 
L 118.624072 279.63168 
L 118.669636 282.3024 
L 119.127354 284.97312 
L 119.093166 287.64384 
L 119.083894 290.31456 
L 119.324033 292.479002 
L 119.390785 292.98528 
L 119.324033 293.804075 
L 119.124217 295.656 
L 118.278599 298.32672 
L 118.169504 300.99744 
L 119.324033 302.076317 
L 120.176995 303.66816 
L 121.549946 306.33888 
L 121.97444 309.0096 
L 122.316263 309.986741 
L 122.887311 311.68032 
L 125.308494 313.717053 
L 127.842648 314.35104 
z
" clip-path="url(#p2ab8bfd4e3)" style="fill: #bf00bf"/>
   </g>
   <g id="matplotlib.axis_5">
    <g id="xtick_6">
     <g id="line2d_7">
      <g>
       <use xlink:href="#mc4f61cac98" x="69.904029" y="329.04" style="stroke: #000000; stroke-width: 0.8"/>
      </g>
     </g>
     <g id="text_2">
      <!-- 0.275 -->
      <g transform="translate(61.733631 361.656048) rotate(-45) scale(0.1 -0.1)">
       <defs>
        <path id="DejaVuSans-37" d="M 525 4666 
L 3525 4666 
L 3525 4397 
L 1831 0 
L 1172 0 
L 2766 4134 
L 525 4134 
L 525 4666 
z
" transform="scale(0.015625)"/>
        <path id="DejaVuSans-35" d="M 691 4666 
L 3169 4666 
L 3169 4134 
L 1269 4134 
L 1269 2991 
Q 1406 3038 1543 3061 
Q 1681 3084 1819 3084 
Q 2600 3084 3056 2656 
Q 3513 2228 3513 1497 
Q 3513 744 3044 326 
Q 2575 -91 1722 -91 
Q 1428 -91 1123 -41 
Q 819 9 494 109 
L 494 744 
Q 775 591 1075 516 
Q 1375 441 1709 441 
Q 2250 441 2565 725 
Q 2881 1009 2881 1497 
Q 2881 1984 2565 2268 
Q 2250 2553 1709 2553 
Q 1456 2553 1204 2497 
Q 953 2441 691 2322 
L 691 4666 
z
" transform="scale(0.015625)"/>
       </defs>
       <use xlink:href="#DejaVuSans-30"/>
       <use xlink:href="#DejaVuSans-2e" x="63.623047"/>
       <use xlink:href="#DejaVuSans-32" x="95.410156"/>
       <use xlink:href="#DejaVuSans-37" x="159.033203"/>
       <use xlink:href="#DejaVuSans-35" x="222.65625"/>
      </g>
     </g>
    </g>
    <g id="xtick_7">
     <g id="line2d_8">
      <g>
       <use xlink:href="#mc4f61cac98" x="102.657961" y="329.04" style="stroke: #000000; stroke-width: 0.8"/>
      </g>
     </g>
     <g id="text_3">
      <!-- 0.300 -->
      <g transform="translate(94.487563 361.656048) rotate(-45) scale(0.1 -0.1)">
       <use xlink:href="#DejaVuSans-30"/>
       <use xlink:href="#DejaVuSans-2e" x="63.623047"/>
       <use xlink:href="#DejaVuSans-33" x="95.410156"/>
       <use xlink:href="#DejaVuSans-30" x="159.033203"/>
       <use xlink:href="#DejaVuSans-30" x="222.65625"/>
      </g>
     </g>
    </g>
    <g id="xtick_8">
     <g id="line2d_9">
      <g>
       <use xlink:href="#mc4f61cac98" x="135.411892" y="329.04" style="stroke: #000000; stroke-width: 0.8"/>
      </g>
     </g>
     <g id="text_4">
      <!-- 0.325 -->
      <g transform="translate(127.241494 361.656048) rotate(-45) scale(0.1 -0.1)">
       <use xlink:href="#DejaVuSans-30"/>
       <use xlink:href="#DejaVuSans-2e" x="63.623047"/>
       <use xlink:href="#DejaVuSans-33" x="95.410156"/>
       <use xlink:href="#DejaVuSans-32" x="159.033203"/>
       <use xlink:href="#DejaVuSans-35" x="222.65625"/>
      </g>
     </g>
    </g>
    <g id="xtick_9">
     <g id="line2d_10">
      <g>
       <use xlink:href="#mc4f61cac98" x="168.165823" y="329.04" style="stroke: #000000; stroke-width: 0.8"/>
      </g>
     </g>
     <g id="text_5">
      <!-- 0.350 -->
      <g transform="translate(159.995426 361.656048) rotate(-45) scale(0.1 -0.1)">
       <use xlink:href="#DejaVuSans-30"/>
       <use xlink:href="#DejaVuSans-2e" x="63.623047"/>
       <use xlink:href="#DejaVuSans-33" x="95.410156"/>
       <use xlink:href="#DejaVuSans-35" x="159.033203"/>
       <use xlink:href="#DejaVuSans-30" x="222.65625"/>
      </g>
     </g>
    </g>
    <g id="xtick_10">
     <g id="line2d_11">
      <g>
       <use xlink:href="#mc4f61cac98" x="200.919755" y="329.04" style="stroke: #000000; stroke-width: 0.8"/>
      </g>
     </g>
     <g id="text_6">
      <!-- 0.375 -->
      <g transform="translate(192.749357 361.656048) rotate(-45) scale(0.1 -0.1)">
       <use xlink:href="#DejaVuSans-30"/>
       <use xlink:href="#DejaVuSans-2e" x="63.623047"/>
       <use xlink:href="#DejaVuSans-33" x="95.410156"/>
       <use xlink:href="#DejaVuSans-37" x="159.033203"/>
       <use xlink:href="#DejaVuSans-35" x="222.65625"/>
      </g>
     </g>
    </g>
    <g id="text_7">
     <!-- $\Omega_{2,0}$ -->
     <g transform="translate(131.465761 376.5008) scale(0.1 -0.1)">
      <use xlink:href="#DejaVuSans-3a9" transform="translate(0 0.21875)"/>
      <use xlink:href="#DejaVuSans-32" transform="translate(77.373047 -16.1875) scale(0.7)"/>
      <use xlink:href="#DejaVuSans-2c" transform="translate(121.90918 -16.1875) scale(0.7)"/>
      <use xlink:href="#DejaVuSans-30" transform="translate(157.797852 -16.1875) scale(0.7)"/>
     </g>
    </g>
   </g>
   <g id="matplotlib.axis_6">
    <g id="ytick_1">
     <g id="line2d_12">
      <defs>
       <path id="m3d7d7d5740" d="M 0 0 
L -3.5 0 
" style="stroke: #000000; stroke-width: 0.8"/>
      </defs>
      <g>
       <use xlink:href="#m3d7d7d5740" x="66.96" y="301.520505" style="stroke: #000000; stroke-width: 0.8"/>
      </g>
     </g>
     <g id="text_8">
      <!-- −8 -->
      <g transform="translate(48.065138 313.518493) rotate(-45) scale(0.1 -0.1)">
       <use xlink:href="#DejaVuSans-2212"/>
       <use xlink:href="#DejaVuSans-38" x="83.789062"/>
      </g>
     </g>
    </g>
    <g id="ytick_2">
     <g id="line2d_13">
      <g>
       <use xlink:href="#m3d7d7d5740" x="66.96" y="266.356414" style="stroke: #000000; stroke-width: 0.8"/>
      </g>
     </g>
     <g id="text_9">
      <!-- −6 -->
      <g transform="translate(48.065138 278.354403) rotate(-45) scale(0.1 -0.1)">
       <use xlink:href="#DejaVuSans-2212"/>
       <use xlink:href="#DejaVuSans-36" x="83.789062"/>
      </g>
     </g>
    </g>
    <g id="ytick_3">
     <g id="line2d_14">
      <g>
       <use xlink:href="#m3d7d7d5740" x="66.96" y="231.192323" style="stroke: #000000; stroke-width: 0.8"/>
      </g>
     </g>
     <g id="text_10">
      <!-- −4 -->
      <g transform="translate(48.065138 243.190312) rotate(-45) scale(0.1 -0.1)">
       <use xlink:href="#DejaVuSans-2212"/>
       <use xlink:href="#DejaVuSans-34" x="83.789062"/>
      </g>
     </g>
    </g>
    <g id="ytick_4">
     <g id="line2d_15">
      <g>
       <use xlink:href="#m3d7d7d5740" x="66.96" y="196.028233" style="stroke: #000000; stroke-width: 0.8"/>
      </g>
     </g>
     <g id="text_11">
      <!-- −2 -->
      <g transform="translate(48.065138 208.026221) rotate(-45) scale(0.1 -0.1)">
       <use xlink:href="#DejaVuSans-2212"/>
       <use xlink:href="#DejaVuSans-32" x="83.789062"/>
      </g>
     </g>
    </g>
    <g id="text_12">
     <!-- $\log_{10}(M_x$/GeV) -->
     <g transform="translate(19.976543 297.872) rotate(-90) scale(0.1 -0.1)">
      <defs>
       <path id="DejaVuSans-6c" d="M 603 4863 
L 1178 4863 
L 1178 0 
L 603 0 
L 603 4863 
z
" transform="scale(0.015625)"/>
       <path id="DejaVuSans-6f" d="M 1959 3097 
Q 1497 3097 1228 2736 
Q 959 2375 959 1747 
Q 959 1119 1226 758 
Q 1494 397 1959 397 
Q 2419 397 2687 759 
Q 2956 1122 2956 1747 
Q 2956 2369 2687 2733 
Q 2419 3097 1959 3097 
z
M 1959 3584 
Q 2709 3584 3137 3096 
Q 3566 2609 3566 1747 
Q 3566 888 3137 398 
Q 2709 -91 1959 -91 
Q 1206 -91 779 398 
Q 353 888 353 1747 
Q 353 2609 779 3096 
Q 1206 3584 1959 3584 
z
" transform="scale(0.015625)"/>
       <path id="DejaVuSans-67" d="M 2906 1791 
Q 2906 2416 2648 2759 
Q 2391 3103 1925 3103 
Q 1463 3103 1205 2759 
Q 947 2416 947 1791 
Q 947 1169 1205 825 
Q 1463 481 1925 481 
Q 2391 481 2648 825 
Q 2906 1169 2906 1791 
z
M 3481 434 
Q 3481 -459 3084 -895 
Q 2688 -1331 1869 -1331 
Q 1566 -1331 1297 -1286 
Q 1028 -1241 775 -1147 
L 775 -588 
Q 1028 -725 1275 -790 
Q 1522 -856 1778 -856 
Q 2344 -856 2625 -561 
Q 2906 -266 2906 331 
L 2906 616 
Q 2728 306 2450 153 
Q 2172 0 1784 0 
Q 1141 0 747 490 
Q 353 981 353 1791 
Q 353 2603 747 3093 
Q 1141 3584 1784 3584 
Q 2172 3584 2450 3431 
Q 2728 3278 2906 2969 
L 2906 3500 
L 3481 3500 
L 3481 434 
z
" transform="scale(0.015625)"/>
       <path id="DejaVuSans-28" d="M 1984 4856 
Q 1566 4138 1362 3434 
Q 1159 2731 1159 2009 
Q 1159 1288 1364 580 
Q 1569 -128 1984 -844 
L 1484 -844 
Q 1016 -109 783 600 
Q 550 1309 550 2009 
Q 550 2706 781 3412 
Q 1013 4119 1484 4856 
L 1984 4856 
z
" transform="scale(0.015625)"/>
       <path id="DejaVuSans-Oblique-4d" d="M 1081 4666 
L 2028 4666 
L 2572 1522 
L 4378 4666 
L 5350 4666 
L 4441 0 
L 3828 0 
L 4622 4091 
L 2791 897 
L 2175 897 
L 1581 4103 
L 788 0 
L 172 0 
L 1081 4666 
z
" transform="scale(0.015625)"/>
       <path id="DejaVuSans-Oblique-78" d="M 3841 3500 
L 2234 1784 
L 3219 0 
L 2559 0 
L 1819 1388 
L 531 0 
L -166 0 
L 1556 1844 
L 641 3500 
L 1300 3500 
L 1972 2234 
L 3144 3500 
L 3841 3500 
z
" transform="scale(0.015625)"/>
       <path id="DejaVuSans-2f" d="M 1625 4666 
L 2156 4666 
L 531 -594 
L 0 -594 
L 1625 4666 
z
" transform="scale(0.015625)"/>
       <path id="DejaVuSans-47" d="M 3809 666 
L 3809 1919 
L 2778 1919 
L 2778 2438 
L 4434 2438 
L 4434 434 
Q 4069 175 3628 42 
Q 3188 -91 2688 -91 
Q 1594 -91 976 548 
Q 359 1188 359 2328 
Q 359 3472 976 4111 
Q 1594 4750 2688 4750 
Q 3144 4750 3555 4637 
Q 3966 4525 4313 4306 
L 4313 3634 
Q 3963 3931 3569 4081 
Q 3175 4231 2741 4231 
Q 1884 4231 1454 3753 
Q 1025 3275 1025 2328 
Q 1025 1384 1454 906 
Q 1884 428 2741 428 
Q 3075 428 3337 486 
Q 3600 544 3809 666 
z
" transform="scale(0.015625)"/>
       <path id="DejaVuSans-65" d="M 3597 1894 
L 3597 1613 
L 953 1613 
Q 991 1019 1311 708 
Q 1631 397 2203 397 
Q 2534 397 2845 478 
Q 3156 559 3463 722 
L 3463 178 
Q 3153 47 2828 -22 
Q 2503 -91 2169 -91 
Q 1331 -91 842 396 
Q 353 884 353 1716 
Q 353 2575 817 3079 
Q 1281 3584 2069 3584 
Q 2775 3584 3186 3129 
Q 3597 2675 3597 1894 
z
M 3022 2063 
Q 3016 2534 2758 2815 
Q 2500 3097 2075 3097 
Q 1594 3097 1305 2825 
Q 1016 2553 972 2059 
L 3022 2063 
z
" transform="scale(0.015625)"/>
       <path id="DejaVuSans-56" d="M 1831 0 
L 50 4666 
L 709 4666 
L 2188 738 
L 3669 4666 
L 4325 4666 
L 2547 0 
L 1831 0 
z
" transform="scale(0.015625)"/>
       <path id="DejaVuSans-29" d="M 513 4856 
L 1013 4856 
Q 1481 4119 1714 3412 
Q 1947 2706 1947 2009 
Q 1947 1309 1714 600 
Q 1481 -109 1013 -844 
L 513 -844 
Q 928 -128 1133 580 
Q 1338 1288 1338 2009 
Q 1338 2731 1133 3434 
Q 928 4138 513 4856 
z
" transform="scale(0.015625)"/>
      </defs>
      <use xlink:href="#DejaVuSans-6c" transform="translate(0 0.015625)"/>
      <use xlink:href="#DejaVuSans-6f" transform="translate(27.783203 0.015625)"/>
      <use xlink:href="#DejaVuSans-67" transform="translate(88.964844 0.015625)"/>
      <use xlink:href="#DejaVuSans-31" transform="translate(153.398438 -16.390625) scale(0.7)"/>
      <use xlink:href="#DejaVuSans-30" transform="translate(197.93457 -16.390625) scale(0.7)"/>
      <use xlink:href="#DejaVuSans-28" transform="translate(261.440754 0.015625)"/>
      <use xlink:href="#DejaVuSans-Oblique-4d" transform="translate(300.454426 0.015625)"/>
      <use xlink:href="#DejaVuSans-Oblique-78" transform="translate(386.733723 -16.390625) scale(0.7)"/>
      <use xlink:href="#DejaVuSans-2f" transform="translate(430.893879 0.015625)"/>
      <use xlink:href="#DejaVuSans-47" transform="translate(464.585286 0.015625)"/>
      <use xlink:href="#DejaVuSans-65" transform="translate(542.07552 0.015625)"/>
      <use xlink:href="#DejaVuSans-56" transform="translate(603.598958 0.015625)"/>
      <use xlink:href="#DejaVuSans-29" transform="translate(672.007161 0.015625)"/>
     </g>
    </g>
   </g>
   <g id="QuadContourSet_3">
    <path d="M 104.362881 322.44256 
L 107.355111 323.64526 
L 110.347342 323.602551 
L 113.339572 323.172758 
L 116.331803 322.82688 
L 119.324033 322.48186 
L 120.220155 322.3632 
L 122.316263 322.183841 
L 125.308494 322.090257 
L 128.300724 322.040719 
L 131.292955 321.745607 
L 134.285185 321.015522 
L 137.277416 320.125387 
L 139.566689 319.69248 
L 140.269646 319.589968 
L 143.261877 319.392281 
L 146.254107 318.668151 
L 148.739119 317.02176 
L 149.246338 316.758335 
L 152.238568 315.386375 
L 155.220788 314.35104 
L 155.230799 314.348081 
L 158.223029 313.11703 
L 159.914343 311.68032 
L 161.215259 309.821707 
L 162.194303 309.0096 
L 164.20749 306.864943 
L 164.630853 306.33888 
L 166.232864 303.66816 
L 166.981176 300.99744 
L 167.150346 298.32672 
L 167.19972 297.924353 
L 167.553841 295.656 
L 168.0493 292.98528 
L 168.892019 290.31456 
L 169.803193 287.64384 
L 170.191951 285.410024 
L 170.314231 284.97312 
L 171.55169 282.3024 
L 171.538494 279.63168 
L 170.583279 276.96096 
L 170.191951 274.676138 
L 170.147288 274.29024 
L 169.978528 271.61952 
L 170.191951 270.621064 
L 170.702477 268.9488 
L 171.536253 266.27808 
L 171.316675 263.60736 
L 171.622079 260.93664 
L 172.625164 258.26592 
L 173.013132 255.5952 
L 172.771677 252.92448 
L 172.46649 250.25376 
L 172.456141 247.58304 
L 171.985446 244.91232 
L 171.523392 242.2416 
L 171.326775 239.57088 
L 171.213049 236.90016 
L 171.27897 234.22944 
L 171.449449 231.55872 
L 171.503647 228.888 
L 171.905344 226.21728 
L 172.569843 223.54656 
L 172.503139 220.87584 
L 171.334092 218.20512 
L 170.191951 216.303431 
L 169.583239 215.5344 
L 169.051495 212.86368 
L 169.348572 210.19296 
L 170.030954 207.52224 
L 170.191951 207.0012 
L 170.900598 204.85152 
L 171.080075 202.1808 
L 170.191951 199.99205 
L 169.992774 199.51008 
L 168.49551 196.83936 
L 168.49551 194.16864 
L 167.19972 193.787057 
L 164.20749 192.997762 
L 161.215259 192.539509 
L 158.223029 192.32096 
L 155.230799 192.150601 
L 152.238568 191.993888 
L 149.246338 191.886965 
L 146.254107 191.835493 
L 143.261877 191.833997 
L 140.269646 191.827416 
L 137.277416 191.806041 
L 134.285185 191.817381 
L 131.292955 191.867069 
L 128.300724 191.916775 
L 125.308494 191.936553 
L 122.316263 191.941272 
L 119.324033 191.981278 
L 116.331803 192.11051 
L 113.339572 192.358862 
L 110.347342 192.728154 
L 107.355111 193.123925 
L 104.362881 193.635894 
L 102.101389 194.16864 
L 102.101389 196.83936 
L 101.37065 198.278711 
L 100.792893 199.51008 
L 99.735987 202.1808 
L 99.186917 204.85152 
L 98.917273 207.52224 
L 99.144302 210.19296 
L 100.439165 212.86368 
L 101.059317 215.5344 
L 100.312639 218.20512 
L 100.062178 220.87584 
L 100.014959 223.54656 
L 99.695096 226.21728 
L 99.551628 228.888 
L 100.52261 231.55872 
L 101.37065 233.123478 
L 101.693719 234.22944 
L 101.780348 236.90016 
L 101.420572 239.57088 
L 101.391545 242.2416 
L 102.210123 244.91232 
L 102.54828 247.58304 
L 101.980459 250.25376 
L 101.37065 251.414665 
L 100.223133 252.92448 
L 98.532477 255.5952 
L 98.37842 257.072109 
L 98.251364 258.26592 
L 98.37842 258.912825 
L 98.703648 260.93664 
L 99.636964 263.60736 
L 101.37065 266.025868 
L 101.597056 266.27808 
L 102.925959 268.9488 
L 102.815553 271.61952 
L 102.710315 274.29024 
L 103.202288 276.96096 
L 104.117577 279.63168 
L 103.644016 282.3024 
L 102.187527 284.97312 
L 101.796746 287.64384 
L 101.37065 290.31456 
L 101.37065 290.31456 
L 100.702887 292.98528 
L 101.030221 295.656 
L 101.37065 297.64982 
L 101.465607 298.32672 
L 101.37065 298.830908 
L 100.832075 300.99744 
L 99.835634 303.66816 
L 99.348707 306.33888 
L 99.203119 309.0096 
L 99.178554 311.68032 
L 99.343862 314.35104 
L 99.442501 317.02176 
L 100.133359 319.69248 
L 101.37065 320.371695 
L 104.1912 322.3632 
L 104.362881 322.44256 
z
" clip-path="url(#p2ab8bfd4e3)" style="fill: none; stroke: #bf00bf; stroke-width: 1.5"/>
    <path d="M 128.300724 314.439445 
L 128.589592 314.35104 
L 131.292955 313.344251 
L 134.285185 312.256094 
L 136.995573 311.68032 
L 137.277416 311.626347 
L 140.269646 310.431759 
L 142.977611 309.0096 
L 143.261877 308.847033 
L 146.254107 307.831875 
L 148.845801 306.33888 
L 149.246338 305.931885 
L 150.577176 303.66816 
L 151.087934 300.99744 
L 151.417339 298.32672 
L 151.787363 295.656 
L 151.932463 292.98528 
L 152.149553 290.31456 
L 152.084994 287.64384 
L 152.076816 284.97312 
L 152.238568 283.198127 
L 152.336 282.3024 
L 152.925322 279.63168 
L 153.564108 276.96096 
L 153.960577 274.29024 
L 153.465632 271.61952 
L 153.204786 268.9488 
L 153.80025 266.27808 
L 154.084263 263.60736 
L 154.159125 260.93664 
L 153.763975 258.26592 
L 153.157161 255.5952 
L 153.445115 252.92448 
L 153.260307 250.25376 
L 152.832685 247.58304 
L 153.32927 244.91232 
L 154.409237 242.2416 
L 155.230761 239.57088 
L 155.230799 239.57051 
L 155.446646 236.90016 
L 155.369867 234.22944 
L 155.230799 233.421819 
L 154.860939 231.55872 
L 154.535551 228.888 
L 154.05791 226.21728 
L 153.323077 223.54656 
L 153.154739 220.87584 
L 153.271991 218.20512 
L 152.979592 215.5344 
L 153.571923 212.86368 
L 154.614616 210.19296 
L 154.682091 207.52224 
L 154.241994 204.85152 
L 153.860457 202.1808 
L 153.506368 199.51008 
L 153.593424 196.83936 
L 153.593424 194.16864 
L 152.238568 193.878284 
L 149.246338 193.365111 
L 146.254107 193.118077 
L 143.261877 193.110899 
L 140.269646 193.079312 
L 137.277416 192.976725 
L 134.285185 193.031148 
L 131.292955 193.269622 
L 128.300724 193.508182 
L 125.308494 193.603109 
L 122.316263 193.625756 
L 119.324033 193.817761 
L 117.460559 194.16864 
L 117.460559 196.83936 
L 118.009624 199.51008 
L 117.525778 202.1808 
L 116.87782 204.85152 
L 116.461986 207.52224 
L 116.390196 210.19296 
L 116.697829 212.86368 
L 116.479819 215.5344 
L 116.331803 217.500995 
L 116.269395 218.20512 
L 116.331803 218.545924 
L 116.861289 220.87584 
L 117.080218 223.54656 
L 116.688521 226.21728 
L 116.363702 228.888 
L 116.331803 229.330957 
L 116.165898 231.55872 
L 115.892142 234.22944 
L 115.787435 236.90016 
L 116.217514 239.57088 
L 116.331803 240.353471 
L 116.670039 242.2416 
L 117.434811 244.91232 
L 117.944398 247.58304 
L 117.490658 250.25376 
L 117.10888 252.92448 
L 117.597227 255.5952 
L 118.428197 258.26592 
L 119.024055 260.93664 
L 119.324033 262.139355 
L 119.753259 263.60736 
L 119.513103 266.27808 
L 119.324033 266.986228 
L 118.804195 268.9488 
L 118.840185 271.61952 
L 119.324033 274.22889 
L 119.337147 274.29024 
L 119.324033 276.96096 
L 119.324033 276.96096 
L 118.624072 279.63168 
L 118.669636 282.3024 
L 119.127354 284.97312 
L 119.093166 287.64384 
L 119.083894 290.31456 
L 119.324033 292.479002 
L 119.390785 292.98528 
L 119.324033 293.804075 
L 119.124217 295.656 
L 118.278599 298.32672 
L 118.169504 300.99744 
L 119.324033 302.076317 
L 120.176995 303.66816 
L 121.549946 306.33888 
L 121.97444 309.0096 
L 122.316263 309.986741 
L 122.887311 311.68032 
L 125.308494 313.717053 
L 127.842648 314.35104 
L 128.300724 314.439445 
z
" clip-path="url(#p2ab8bfd4e3)" style="fill: none; stroke: #bf00bf; stroke-width: 1.5"/>
   </g>
   <g id="patch_8">
    <path d="M 66.96 329.04 
L 66.96 195.504 
" style="fill: none; stroke: #000000; stroke-width: 0.8; stroke-linejoin: miter; stroke-linecap: square"/>
   </g>
   <g id="patch_9">
    <path d="M 216.571523 329.04 
L 216.571523 195.504 
" style="fill: none; stroke: #000000; stroke-width: 0.8; stroke-linejoin: miter; stroke-linecap: square"/>
   </g>
   <g id="patch_10">
    <path d="M 66.96 329.04 
L 216.571523 329.04 
" style="fill: none; stroke: #000000; stroke-width: 0.8; stroke-linejoin: miter; stroke-linecap: square"/>
   </g>
   <g id="patch_11">
    <path d="M 66.96 195.504 
L 216.571523 195.504 
" style="fill: none; stroke: #000000; stroke-width: 0.8; stroke-linejoin: miter; stroke-linecap: square"/>
   </g>
  </g>
  <g id="axes_4">
   <g id="patch_12">
    <path d="M 227.371523 329.04 
L 376.983046 329.04 
L 376.983046 195.504 
L 227.371523 195.504 
z
" style="fill: #ffffff"/>
   </g>
   <g id="matplotlib.axis_7">
    <g id="xtick_11">
     <g id="line2d_16">
      <g>
       <use xlink:href="#mc4f61cac98" x="258.20391" y="329.04" style="stroke: #000000; stroke-width: 0.8"/>
      </g>
     </g>
     <g id="text_13">
      <!-- −8 -->
      <g transform="translate(254.942932 351.837207) rotate(-45) scale(0.1 -0.1)">
       <use xlink:href="#DejaVuSans-2212"/>
       <use xlink:href="#DejaVuSans-38" x="83.789062"/>
      </g>
     </g>
    </g>
    <g id="xtick_12">
     <g id="line2d_17">
      <g>
       <use xlink:href="#mc4f61cac98" x="297.601175" y="329.04" style="stroke: #000000; stroke-width: 0.8"/>
      </g>
     </g>
     <g id="text_14">
      <!-- −6 -->
      <g transform="translate(294.340197 351.837207) rotate(-45) scale(0.1 -0.1)">
       <use xlink:href="#DejaVuSans-2212"/>
       <use xlink:href="#DejaVuSans-36" x="83.789062"/>
      </g>
     </g>
    </g>
    <g id="xtick_13">
     <g id="line2d_18">
      <g>
       <use xlink:href="#mc4f61cac98" x="336.998439" y="329.04" style="stroke: #000000; stroke-width: 0.8"/>
      </g>
     </g>
     <g id="text_15">
      <!-- −4 -->
      <g transform="translate(333.737462 351.837207) rotate(-45) scale(0.1 -0.1)">
       <use xlink:href="#DejaVuSans-2212"/>
       <use xlink:href="#DejaVuSans-34" x="83.789062"/>
      </g>
     </g>
    </g>
    <g id="xtick_14">
     <g id="line2d_19">
      <g>
       <use xlink:href="#mc4f61cac98" x="376.395704" y="329.04" style="stroke: #000000; stroke-width: 0.8"/>
      </g>
     </g>
     <g id="text_16">
      <!-- −2 -->
      <g transform="translate(373.134727 351.837207) rotate(-45) scale(0.1 -0.1)">
       <use xlink:href="#DejaVuSans-2212"/>
       <use xlink:href="#DejaVuSans-32" x="83.789062"/>
      </g>
     </g>
    </g>
    <g id="text_17">
     <!-- $\log_{10}(M_x$/GeV) -->
     <g transform="translate(266.577284 376.7008) scale(0.1 -0.1)">
      <use xlink:href="#DejaVuSans-6c" transform="translate(0 0.015625)"/>
      <use xlink:href="#DejaVuSans-6f" transform="translate(27.783203 0.015625)"/>
      <use xlink:href="#DejaVuSans-67" transform="translate(88.964844 0.015625)"/>
      <use xlink:href="#DejaVuSans-31" transform="translate(153.398438 -16.390625) scale(0.7)"/>
      <use xlink:href="#DejaVuSans-30" transform="translate(197.93457 -16.390625) scale(0.7)"/>
      <use xlink:href="#DejaVuSans-28" transform="translate(261.440754 0.015625)"/>
      <use xlink:href="#DejaVuSans-Oblique-4d" transform="translate(300.454426 0.015625)"/>
      <use xlink:href="#DejaVuSans-Oblique-78" transform="translate(386.733723 -16.390625) scale(0.7)"/>
      <use xlink:href="#DejaVuSans-2f" transform="translate(430.893879 0.015625)"/>
      <use xlink:href="#DejaVuSans-47" transform="translate(464.585286 0.015625)"/>
      <use xlink:href="#DejaVuSans-65" transform="translate(542.07552 0.015625)"/>
      <use xlink:href="#DejaVuSans-56" transform="translate(603.598958 0.015625)"/>
      <use xlink:href="#DejaVuSans-29" transform="translate(672.007161 0.015625)"/>
     </g>
    </g>
   </g>
   <g id="matplotlib.axis_8"/>
   <g id="line2d_20">
    <path d="M 227.371523 327.296426 
L 228.119581 327.296426 
L 228.119581 327.078479 
L 228.867638 327.078479 
L 228.867638 326.642585 
L 229.615696 326.642585 
L 229.615696 325.770798 
L 230.363753 325.770798 
L 230.363753 324.899011 
L 231.111811 324.899011 
L 231.111811 323.59133 
L 231.859869 323.59133 
L 231.859869 322.065703 
L 232.607926 322.065703 
L 232.607926 320.104181 
L 233.355984 320.104181 
L 233.355984 317.924714 
L 234.104041 317.924714 
L 234.104041 315.309352 
L 234.852099 315.309352 
L 234.852099 312.476044 
L 235.600157 312.476044 
L 235.600157 309.424789 
L 236.348214 309.424789 
L 236.348214 306.155587 
L 237.096272 306.155587 
L 237.096272 302.886385 
L 237.844329 302.886385 
L 237.844329 299.181289 
L 238.592387 299.181289 
L 238.592387 295.476194 
L 239.340445 295.476194 
L 239.340445 291.989045 
L 240.088502 291.989045 
L 240.088502 288.28395 
L 240.83656 288.28395 
L 240.83656 284.578854 
L 241.584618 284.578854 
L 241.584618 280.873759 
L 242.332675 280.873759 
L 242.332675 277.38661 
L 243.080733 277.38661 
L 243.080733 273.899461 
L 243.82879 273.899461 
L 243.82879 270.63026 
L 244.576848 270.63026 
L 244.576848 267.579004 
L 245.324906 267.579004 
L 245.324906 264.527749 
L 246.072963 264.527749 
L 246.072963 261.476494 
L 246.821021 261.476494 
L 246.821021 258.643186 
L 247.569078 258.643186 
L 247.569078 256.027824 
L 248.317136 256.027824 
L 248.317136 253.412463 
L 249.065194 253.412463 
L 249.065194 250.797101 
L 249.813251 250.797101 
L 249.813251 248.399687 
L 250.561309 248.399687 
L 250.561309 246.220219 
L 251.309367 246.220219 
L 251.309367 244.258698 
L 252.057424 244.258698 
L 252.057424 242.297176 
L 252.805482 242.297176 
L 252.805482 240.771549 
L 253.553539 240.771549 
L 253.553539 239.027975 
L 254.301597 239.027975 
L 254.301597 237.502347 
L 255.049655 237.502347 
L 255.049655 235.976719 
L 255.797712 235.976719 
L 255.797712 234.233145 
L 256.54577 234.233145 
L 256.54577 232.707518 
L 257.293827 232.707518 
L 257.293827 231.18189 
L 258.041885 231.18189 
L 258.041885 229.656262 
L 258.789943 229.656262 
L 258.789943 228.348582 
L 259.538 228.348582 
L 259.538 227.040901 
L 260.286058 227.040901 
L 260.286058 226.387061 
L 261.034116 226.387061 
L 261.034116 225.73322 
L 261.782173 225.73322 
L 261.782173 225.297327 
L 263.278288 225.297327 
L 263.278288 225.07938 
L 264.026346 225.07938 
L 264.026346 225.297327 
L 267.766634 225.297327 
L 267.766634 225.07938 
L 268.514692 225.07938 
L 268.514692 224.861433 
L 269.262749 224.861433 
L 269.262749 224.425539 
L 270.010807 224.425539 
L 270.010807 224.207593 
L 270.758865 224.207593 
L 270.758865 223.771699 
L 271.506922 223.771699 
L 271.506922 223.335805 
L 272.25498 223.335805 
L 272.25498 223.117859 
L 273.003037 223.117859 
L 273.003037 222.899912 
L 275.995268 222.899912 
L 275.995268 223.117859 
L 276.743325 223.117859 
L 276.743325 223.335805 
L 280.483614 223.335805 
L 280.483614 223.117859 
L 281.979729 223.117859 
L 281.979729 222.899912 
L 285.720017 222.899912 
L 285.720017 222.681965 
L 286.468074 222.681965 
L 286.468074 222.464018 
L 287.96419 222.464018 
L 287.96419 222.246071 
L 290.95642 222.246071 
L 290.95642 222.464018 
L 291.704478 222.464018 
L 291.704478 222.681965 
L 292.452535 222.681965 
L 292.452535 223.117859 
L 293.200593 223.117859 
L 293.200593 223.335805 
L 293.948651 223.335805 
L 293.948651 223.553752 
L 294.696708 223.553752 
L 294.696708 223.989646 
L 295.444766 223.989646 
L 295.444766 224.207593 
L 296.192823 224.207593 
L 296.192823 224.425539 
L 296.940881 224.425539 
L 296.940881 224.643486 
L 299.185054 224.643486 
L 299.185054 224.207593 
L 299.933112 224.207593 
L 299.933112 223.771699 
L 300.681169 223.771699 
L 300.681169 223.335805 
L 301.429227 223.335805 
L 301.429227 222.464018 
L 302.177284 222.464018 
L 302.177284 221.810178 
L 302.925342 221.810178 
L 302.925342 221.156338 
L 303.6734 221.156338 
L 303.6734 220.720444 
L 304.421457 220.720444 
L 304.421457 220.066604 
L 305.169515 220.066604 
L 305.169515 219.63071 
L 305.917572 219.63071 
L 305.917572 219.194816 
L 306.66563 219.194816 
L 306.66563 218.758923 
L 307.413688 218.758923 
L 307.413688 218.105082 
L 308.161745 218.105082 
L 308.161745 217.669189 
L 308.909803 217.669189 
L 308.909803 217.233295 
L 309.65786 217.233295 
L 309.65786 216.797402 
L 310.405918 216.797402 
L 310.405918 216.579455 
L 311.153976 216.579455 
L 311.153976 216.797402 
L 311.902033 216.797402 
L 311.902033 217.233295 
L 312.650091 217.233295 
L 312.650091 217.887136 
L 313.398149 217.887136 
L 313.398149 218.540976 
L 314.146206 218.540976 
L 314.146206 219.63071 
L 314.894264 219.63071 
L 314.894264 220.502497 
L 315.642321 220.502497 
L 315.642321 221.156338 
L 316.390379 221.156338 
L 316.390379 221.810178 
L 317.138437 221.810178 
L 317.138437 222.028125 
L 318.634552 222.028125 
L 318.634552 221.810178 
L 319.382609 221.810178 
L 319.382609 221.374284 
L 320.130667 221.374284 
L 320.130667 220.720444 
L 320.878725 220.720444 
L 320.878725 220.066604 
L 321.626782 220.066604 
L 321.626782 219.412763 
L 322.37484 219.412763 
L 322.37484 218.540976 
L 323.122898 218.540976 
L 323.122898 217.887136 
L 323.870955 217.887136 
L 323.870955 217.451242 
L 324.619013 217.451242 
L 324.619013 217.015348 
L 325.36707 217.015348 
L 325.36707 216.579455 
L 326.115128 216.579455 
L 326.115128 216.143561 
L 326.863186 216.143561 
L 326.863186 215.925614 
L 327.611243 215.925614 
L 327.611243 215.489721 
L 328.359301 215.489721 
L 328.359301 215.053827 
L 329.107358 215.053827 
L 329.107358 214.617934 
L 329.855416 214.617934 
L 329.855416 214.18204 
L 330.603474 214.18204 
L 330.603474 213.964093 
L 331.351531 213.964093 
L 331.351531 213.5282 
L 332.099589 213.5282 
L 332.099589 213.092306 
L 332.847647 213.092306 
L 332.847647 212.656413 
L 333.595704 212.656413 
L 333.595704 212.220519 
L 334.343762 212.220519 
L 334.343762 211.784625 
L 335.091819 211.784625 
L 335.091819 211.348732 
L 335.839877 211.348732 
L 335.839877 210.694891 
L 336.587935 210.694891 
L 336.587935 210.041051 
L 337.335992 210.041051 
L 337.335992 209.605157 
L 338.08405 209.605157 
L 338.08405 209.169264 
L 338.832107 209.169264 
L 338.832107 208.951317 
L 340.328223 208.951317 
L 340.328223 209.169264 
L 341.07628 209.169264 
L 341.07628 209.823104 
L 341.824338 209.823104 
L 341.824338 210.476945 
L 342.572396 210.476945 
L 342.572396 210.912838 
L 343.320453 210.912838 
L 343.320453 211.566679 
L 344.068511 211.566679 
L 344.068511 212.002572 
L 344.816568 212.002572 
L 344.816568 212.220519 
L 345.564626 212.220519 
L 345.564626 212.438466 
L 347.808799 212.438466 
L 347.808799 212.656413 
L 349.304914 212.656413 
L 349.304914 212.874359 
L 350.052972 212.874359 
L 350.052972 213.310253 
L 350.801029 213.310253 
L 350.801029 213.964093 
L 351.549087 213.964093 
L 351.549087 214.399987 
L 352.297145 214.399987 
L 352.297145 215.053827 
L 353.045202 215.053827 
L 353.045202 215.707668 
L 353.79326 215.707668 
L 353.79326 216.143561 
L 354.541317 216.143561 
L 354.541317 216.361508 
L 356.037433 216.361508 
L 356.037433 216.143561 
L 356.78549 216.143561 
L 356.78549 215.707668 
L 357.533548 215.707668 
L 357.533548 215.053827 
L 358.281605 215.053827 
L 358.281605 214.399987 
L 359.029663 214.399987 
L 359.029663 213.5282 
L 359.777721 213.5282 
L 359.777721 212.656413 
L 360.525778 212.656413 
L 360.525778 212.002572 
L 361.273836 212.002572 
L 361.273836 211.130785 
L 362.021894 211.130785 
L 362.021894 210.258998 
L 362.769951 210.258998 
L 362.769951 209.605157 
L 363.518009 209.605157 
L 363.518009 208.951317 
L 364.266066 208.951317 
L 364.266066 208.297477 
L 365.014124 208.297477 
L 365.014124 207.861583 
L 365.762182 207.861583 
L 365.762182 207.643636 
L 367.258297 207.643636 
L 367.258297 208.297477 
L 368.006354 208.297477 
L 368.006354 209.169264 
L 368.754412 209.169264 
L 368.754412 210.476945 
L 369.50247 210.476945 
L 369.50247 212.220519 
L 370.250527 212.220519 
L 370.250527 214.18204 
L 370.998585 214.18204 
L 370.998585 216.361508 
L 371.746642 216.361508 
L 371.746642 218.323029 
L 372.4947 218.323029 
L 372.4947 220.502497 
L 373.242758 220.502497 
L 373.242758 222.464018 
L 373.990815 222.464018 
L 373.990815 224.207593 
L 374.738873 224.207593 
L 374.738873 225.515273 
L 375.486931 225.515273 
L 375.486931 226.605007 
L 376.234988 226.605007 
L 376.234988 227.040901 
L 376.983046 227.040901 
L 376.983046 227.040901 
" clip-path="url(#p817b6d401b)" style="fill: none; stroke: #bf00bf; stroke-width: 1.5; stroke-linecap: square"/>
   </g>
   <g id="patch_13">
    <path d="M 227.371523 329.04 
L 227.371523 195.504 
" style="fill: none; stroke: #000000; stroke-width: 0.8; stroke-linejoin: miter; stroke-linecap: square"/>
   </g>
   <g id="patch_14">
    <path d="M 376.983046 329.04 
L 376.983046 195.504 
" style="fill: none; stroke: #000000; stroke-width: 0.8; stroke-linejoin: miter; stroke-linecap: square"/>
   </g>
   <g id="patch_15">
    <path d="M 227.371523 329.04 
L 376.983046 329.04 
" style="fill: none; stroke: #000000; stroke-width: 0.8; stroke-linejoin: miter; stroke-linecap: square"/>
   </g>
   <g id="patch_16">
    <path d="M 227.371523 195.504 
L 376.983046 195.504 
" style="fill: none; stroke: #000000; stroke-width: 0.8; stroke-linejoin: miter; stroke-linecap: square"/>
   </g>
   <g id="text_18">
    <!-- $\log_{10}(M_x$/GeV) = ${-5.2301}_{-2.3678}^{+2.2228}$ -->
    <g transform="translate(190.597284 189.504) scale(0.14 -0.14)">
     <use xlink:href="#DejaVuSans-6c" transform="translate(0 0.765625)"/>
     <use xlink:href="#DejaVuSans-6f" transform="translate(27.783203 0.765625)"/>
     <use xlink:href="#DejaVuSans-67" transform="translate(88.964844 0.765625)"/>
     <use xlink:href="#DejaVuSans-31" transform="translate(153.398438 -15.640625) scale(0.7)"/>
     <use xlink:href="#DejaVuSans-30" transform="translate(197.93457 -15.640625) scale(0.7)"/>
     <use xlink:href="#DejaVuSans-28" transform="translate(261.440754 0.765625)"/>
     <use xlink:href="#DejaVuSans-Oblique-4d" transform="translate(300.454426 0.765625)"/>
     <use xlink:href="#DejaVuSans-Oblique-78" transform="translate(386.733723 -15.640625) scale(0.7)"/>
     <use xlink:href="#DejaVuSans-2f" transform="translate(430.893879 0.765625)"/>
     <use xlink:href="#DejaVuSans-47" transform="translate(464.585286 0.765625)"/>
     <use xlink:href="#DejaVuSans-65" transform="translate(542.07552 0.765625)"/>
     <use xlink:href="#DejaVuSans-56" transform="translate(603.598958 0.765625)"/>
     <use xlink:href="#DejaVuSans-29" transform="translate(672.007161 0.765625)"/>
     <use xlink:href="#DejaVuSans-20" transform="translate(711.020833 0.765625)"/>
     <use xlink:href="#DejaVuSans-3d" transform="translate(742.807942 0.765625)"/>
     <use xlink:href="#DejaVuSans-20" transform="translate(826.597004 0.765625)"/>
     <use xlink:href="#DejaVuSans-2212" transform="translate(858.384114 0.765625)"/>
     <use xlink:href="#DejaVuSans-35" transform="translate(942.173176 0.765625)"/>
     <use xlink:href="#DejaVuSans-2e" transform="translate(1005.796223 0.765625)"/>
     <use xlink:href="#DejaVuSans-32" transform="translate(1032.083333 0.765625)"/>
     <use xlink:href="#DejaVuSans-33" transform="translate(1095.706379 0.765625)"/>
     <use xlink:href="#DejaVuSans-30" transform="translate(1159.329426 0.765625)"/>
     <use xlink:href="#DejaVuSans-31" transform="translate(1222.952473 0.765625)"/>
     <use xlink:href="#DejaVuSans-2b" transform="translate(1287.532551 39.046875) scale(0.7)"/>
     <use xlink:href="#DejaVuSans-32" transform="translate(1346.184895 39.046875) scale(0.7)"/>
     <use xlink:href="#DejaVuSans-2e" transform="translate(1390.721028 39.046875) scale(0.7)"/>
     <use xlink:href="#DejaVuSans-32" transform="translate(1409.122004 39.046875) scale(0.7)"/>
     <use xlink:href="#DejaVuSans-32" transform="translate(1453.658137 39.046875) scale(0.7)"/>
     <use xlink:href="#DejaVuSans-32" transform="translate(1498.19427 39.046875) scale(0.7)"/>
     <use xlink:href="#DejaVuSans-38" transform="translate(1542.730403 39.046875) scale(0.7)"/>
     <use xlink:href="#DejaVuSans-2212" transform="translate(1287.532551 -26.578125) scale(0.7)"/>
     <use xlink:href="#DejaVuSans-32" transform="translate(1346.184895 -26.578125) scale(0.7)"/>
     <use xlink:href="#DejaVuSans-2e" transform="translate(1390.721028 -26.578125) scale(0.7)"/>
     <use xlink:href="#DejaVuSans-33" transform="translate(1412.972004 -26.578125) scale(0.7)"/>
     <use xlink:href="#DejaVuSans-36" transform="translate(1457.508137 -26.578125) scale(0.7)"/>
     <use xlink:href="#DejaVuSans-37" transform="translate(1502.04427 -26.578125) scale(0.7)"/>
     <use xlink:href="#DejaVuSans-38" transform="translate(1546.580403 -26.578125) scale(0.7)"/>
    </g>
   </g>
  </g>
 </g>
 <defs>
  <clipPath id="p336892b149">
   <rect x="66.96" y="30.984" width="149.611523" height="133.536"/>
  </clipPath>
  <clipPath id="p2ab8bfd4e3">
   <rect x="66.96" y="195.504" width="149.611523" height="133.536"/>
  </clipPath>
  <clipPath id="p817b6d401b">
   <rect x="227.371523" y="195.504" width="149.611523" height="133.536"/>
  </clipPath>
 </defs>
</svg>
