<?xml version="1.0" encoding="utf-8" standalone="no"?>
<!DOCTYPE svg PUBLIC "-//W3C//DTD SVG 1.1//EN"
  "http://www.w3.org/Graphics/SVG/1.1/DTD/svg11.dtd">
<svg xmlns:xlink="http://www.w3.org/1999/xlink" width="396pt" height="396pt" viewBox="0 0 396 396" xmlns="http://www.w3.org/2000/svg" version="1.1">
 <metadata>
  <rdf:RDF xmlns:dc="http://purl.org/dc/elements/1.1/" xmlns:cc="http://creativecommons.org/ns#" xmlns:rdf="http://www.w3.org/1999/02/22-rdf-syntax-ns#">
   <cc:Work>
    <dc:type rdf:resource="http://purl.org/dc/dcmitype/StillImage"/>
    <dc:date>2024-11-19T13:49:18.886786</dc:date>
    <dc:format>image/svg+xml</dc:format>
    <dc:creator>
     <cc:Agent>
      <dc:title>Matplotlib v3.9.2, https://matplotlib.org/</dc:title>
     </cc:Agent>
    </dc:creator>
   </cc:Work>
  </rdf:RDF>
 </metadata>
 <defs>
  <style type="text/css">*{stroke-linejoin: round; stroke-linecap: butt}</style>
 </defs>
 <g id="figure_1">
  <g id="patch_1">
   <path d="M 0 396 
L 396 396 
L 396 0 
L 0 0 
z
" style="fill: #ffffff"/>
  </g>
  <g id="axes_1">
   <g id="patch_2">
    <path d="M 64.368 164.88 
L 215.200057 164.88 
L 215.200057 30.984 
L 64.368 30.984 
z
" style="fill: #ffffff"/>
   </g>
   <g id="matplotlib.axis_1">
    <g id="xtick_1">
     <g id="line2d_1">
      <defs>
       <path id="m580bd5e835" d="M 0 0 
L 0 3.5 
" style="stroke: #000000; stroke-width: 0.8"/>
      </defs>
      <g>
       <use xlink:href="#m580bd5e835" x="100.710164" y="164.88" style="stroke: #000000; stroke-width: 0.8"/>
      </g>
     </g>
    </g>
    <g id="xtick_2">
     <g id="line2d_2">
      <g>
       <use xlink:href="#m580bd5e835" x="137.910339" y="164.88" style="stroke: #000000; stroke-width: 0.8"/>
      </g>
     </g>
    </g>
    <g id="xtick_3">
     <g id="line2d_3">
      <g>
       <use xlink:href="#m580bd5e835" x="175.110515" y="164.88" style="stroke: #000000; stroke-width: 0.8"/>
      </g>
     </g>
    </g>
    <g id="xtick_4">
     <g id="line2d_4">
      <g>
       <use xlink:href="#m580bd5e835" x="212.31069" y="164.88" style="stroke: #000000; stroke-width: 0.8"/>
      </g>
     </g>
    </g>
   </g>
   <g id="matplotlib.axis_2"/>
   <g id="line2d_5">
    <path d="M 64.368 164.525895 
L 68.892962 164.437369 
L 68.892962 164.348842 
L 71.155443 164.260316 
L 71.155443 164.17179 
L 73.417923 164.083263 
L 73.417923 163.994737 
L 75.680404 163.906211 
L 75.680404 163.817685 
L 77.942885 163.729158 
L 77.942885 163.640632 
L 79.451206 163.552106 
L 79.451206 163.46358 
L 80.205366 163.46358 
L 80.205366 163.286527 
L 80.959526 163.286527 
L 80.959526 163.109474 
L 81.713687 163.109474 
L 81.713687 162.932422 
L 82.467847 162.932422 
L 82.467847 162.755369 
L 83.222007 162.755369 
L 83.222007 162.48979 
L 83.976167 162.48979 
L 83.976167 162.312738 
L 84.730328 162.312738 
L 84.730328 162.047159 
L 85.484488 162.047159 
L 85.484488 161.78158 
L 86.238648 161.78158 
L 86.238648 161.516001 
L 86.992808 161.516001 
L 86.992808 161.250422 
L 87.746969 161.250422 
L 87.746969 160.984844 
L 88.501129 160.984844 
L 88.501129 160.719265 
L 89.255289 160.719265 
L 89.255289 160.453686 
L 90.00945 160.453686 
L 90.00945 160.188107 
L 90.76361 160.188107 
L 90.76361 159.922528 
L 91.51777 159.922528 
L 91.51777 159.568423 
L 92.27193 159.568423 
L 92.27193 159.214318 
L 93.026091 159.214318 
L 93.026091 158.948739 
L 93.780251 158.948739 
L 93.780251 158.594634 
L 94.534411 158.594634 
L 94.534411 158.152003 
L 95.288572 158.152003 
L 95.288572 157.797898 
L 96.042732 157.797898 
L 96.042732 157.443792 
L 96.796892 157.443792 
L 96.796892 157.001161 
L 97.551052 157.001161 
L 97.551052 156.55853 
L 98.305213 156.55853 
L 98.305213 156.027372 
L 99.059373 156.027372 
L 99.059373 155.496214 
L 99.813533 155.496214 
L 99.813533 154.965057 
L 100.567694 154.965057 
L 100.567694 154.345373 
L 101.321854 154.345373 
L 101.321854 153.725689 
L 102.076014 153.725689 
L 102.076014 153.017478 
L 102.830174 153.017478 
L 102.830174 152.309268 
L 103.584335 152.309268 
L 103.584335 151.512532 
L 104.338495 151.512532 
L 104.338495 150.715795 
L 105.092655 150.715795 
L 105.092655 149.830532 
L 105.846816 149.830532 
L 105.846816 148.856743 
L 106.600976 148.856743 
L 106.600976 147.882954 
L 107.355136 147.882954 
L 107.355136 146.909165 
L 108.109296 146.909165 
L 108.109296 145.758323 
L 108.863457 145.758323 
L 108.863457 144.696008 
L 109.617617 144.696008 
L 109.617617 143.45664 
L 110.371777 143.45664 
L 110.371777 142.217272 
L 111.125938 142.217272 
L 111.125938 140.889378 
L 111.880098 140.889378 
L 111.880098 139.561484 
L 112.634258 139.561484 
L 112.634258 138.145063 
L 113.388418 138.145063 
L 113.388418 136.640116 
L 114.142579 136.640116 
L 114.142579 135.13517 
L 114.896739 135.13517 
L 114.896739 133.541697 
L 115.650899 133.541697 
L 115.650899 131.859697 
L 116.40506 131.859697 
L 116.40506 130.089172 
L 117.15922 130.089172 
L 117.15922 128.23012 
L 117.91338 128.23012 
L 117.91338 126.282541 
L 118.66754 126.282541 
L 118.66754 124.334963 
L 119.421701 124.334963 
L 119.421701 122.387385 
L 120.175861 122.387385 
L 120.175861 120.262754 
L 120.930021 120.262754 
L 120.930021 118.138124 
L 121.684181 118.138124 
L 121.684181 116.013493 
L 122.438342 116.013493 
L 122.438342 113.71181 
L 123.192502 113.71181 
L 123.192502 111.3216 
L 123.946662 111.3216 
L 123.946662 108.93139 
L 124.700823 108.93139 
L 124.700823 106.452655 
L 125.454983 106.452655 
L 125.454983 103.885392 
L 126.209143 103.885392 
L 126.209143 101.406657 
L 126.963303 101.406657 
L 126.963303 98.927921 
L 127.717464 98.927921 
L 127.717464 96.449185 
L 128.471624 96.449185 
L 128.471624 94.147501 
L 129.225784 94.147501 
L 129.225784 91.845818 
L 129.979945 91.845818 
L 129.979945 89.544135 
L 130.734105 89.544135 
L 130.734105 87.330978 
L 131.488265 87.330978 
L 131.488265 85.029295 
L 132.242425 85.029295 
L 132.242425 82.727611 
L 132.996586 82.727611 
L 132.996586 80.425928 
L 133.750746 80.425928 
L 133.750746 78.035718 
L 134.504906 78.035718 
L 134.504906 75.556982 
L 135.259067 75.556982 
L 135.259067 73.078247 
L 136.013227 73.078247 
L 136.013227 70.599511 
L 136.767387 70.599511 
L 136.767387 68.120775 
L 137.521547 68.120775 
L 137.521547 65.819092 
L 138.275708 65.819092 
L 138.275708 63.517408 
L 139.029868 63.517408 
L 139.029868 61.304251 
L 139.784028 61.304251 
L 139.784028 59.17962 
L 140.538189 59.17962 
L 140.538189 57.143516 
L 141.292349 57.143516 
L 141.292349 55.284464 
L 142.046509 55.284464 
L 142.046509 53.513939 
L 142.800669 53.513939 
L 142.800669 51.831939 
L 143.55483 51.831939 
L 143.55483 50.238466 
L 144.30899 50.238466 
L 144.30899 48.822046 
L 145.06315 48.822046 
L 145.06315 47.582678 
L 145.817311 47.582678 
L 145.817311 46.608889 
L 146.571471 46.608889 
L 146.571471 45.723626 
L 147.325631 45.723626 
L 147.325631 45.015416 
L 148.079791 45.015416 
L 148.079791 44.484258 
L 148.833952 44.484258 
L 148.833952 44.041626 
L 149.588112 44.041626 
L 149.588112 43.687521 
L 150.342272 43.687521 
L 150.342272 43.421942 
L 151.096433 43.421942 
L 151.096433 43.24489 
L 153.358913 43.156364 
L 153.358913 43.421942 
L 154.113074 43.421942 
L 154.113074 43.864574 
L 154.867234 43.864574 
L 154.867234 44.484258 
L 155.621394 44.484258 
L 155.621394 45.369521 
L 156.375555 45.369521 
L 156.375555 46.431836 
L 157.129715 46.431836 
L 157.129715 47.671204 
L 157.883875 47.671204 
L 157.883875 48.999098 
L 158.638035 48.999098 
L 158.638035 50.415519 
L 159.392196 50.415519 
L 159.392196 51.920465 
L 160.146356 51.920465 
L 160.146356 53.513939 
L 160.900516 53.513939 
L 160.900516 55.195938 
L 161.654676 55.195938 
L 161.654676 56.966463 
L 162.408837 56.966463 
L 162.408837 58.914042 
L 163.162997 58.914042 
L 163.162997 60.950146 
L 163.917157 60.950146 
L 163.917157 63.163303 
L 164.671318 63.163303 
L 164.671318 65.553513 
L 165.425478 65.553513 
L 165.425478 68.209301 
L 166.179638 68.209301 
L 166.179638 70.953616 
L 166.933798 70.953616 
L 166.933798 73.874983 
L 167.687959 73.874983 
L 167.687959 76.884877 
L 168.442119 76.884877 
L 168.442119 79.89477 
L 169.196279 79.89477 
L 169.196279 82.99319 
L 169.95044 82.99319 
L 169.95044 86.003084 
L 170.7046 86.003084 
L 170.7046 89.012977 
L 171.45876 89.012977 
L 171.45876 92.022871 
L 172.21292 92.022871 
L 172.21292 94.944238 
L 172.967081 94.944238 
L 172.967081 97.777079 
L 173.721241 97.777079 
L 173.721241 100.60992 
L 174.475401 100.60992 
L 174.475401 103.354235 
L 175.229562 103.354235 
L 175.229562 106.187076 
L 175.983722 106.187076 
L 175.983722 109.019917 
L 176.737882 109.019917 
L 176.737882 111.941284 
L 177.492042 111.941284 
L 177.492042 114.951178 
L 178.246203 114.951178 
L 178.246203 117.872545 
L 179.000363 117.872545 
L 179.000363 120.882438 
L 179.754523 120.882438 
L 179.754523 123.803806 
L 180.508684 123.803806 
L 180.508684 126.636647 
L 181.262844 126.636647 
L 181.262844 129.380961 
L 182.017004 129.380961 
L 182.017004 132.03675 
L 182.771164 132.03675 
L 182.771164 134.515486 
L 183.525325 134.515486 
L 183.525325 136.905695 
L 184.279485 136.905695 
L 184.279485 139.118852 
L 185.033645 139.118852 
L 185.033645 141.154957 
L 185.787806 141.154957 
L 185.787806 143.102535 
L 186.541966 143.102535 
L 186.541966 144.87306 
L 187.296126 144.87306 
L 187.296126 146.55506 
L 188.050286 146.55506 
L 188.050286 148.060007 
L 188.804447 148.060007 
L 188.804447 149.564953 
L 189.558607 149.564953 
L 189.558607 150.892848 
L 190.312767 150.892848 
L 190.312767 152.220742 
L 191.066928 152.220742 
L 191.066928 153.371583 
L 191.821088 153.371583 
L 191.821088 154.522425 
L 192.575248 154.522425 
L 192.575248 155.58474 
L 193.329408 155.58474 
L 193.329408 156.55853 
L 194.083569 156.55853 
L 194.083569 157.532319 
L 194.837729 157.532319 
L 194.837729 158.417581 
L 195.591889 158.417581 
L 195.591889 159.214318 
L 196.346049 159.214318 
L 196.346049 159.922528 
L 197.10021 159.922528 
L 197.10021 160.542212 
L 197.85437 160.542212 
L 197.85437 161.07337 
L 198.60853 161.07337 
L 198.60853 161.516001 
L 199.362691 161.516001 
L 199.362691 161.958633 
L 200.116851 161.958633 
L 200.116851 162.312738 
L 200.871011 162.312738 
L 200.871011 162.578317 
L 201.625171 162.578317 
L 201.625171 162.843896 
L 202.379332 162.843896 
L 202.379332 163.020948 
L 203.133492 163.020948 
L 203.133492 163.286527 
L 203.887652 163.286527 
L 203.887652 163.46358 
L 204.641813 163.46358 
L 204.641813 163.640632 
L 205.395973 163.640632 
L 205.395973 163.817685 
L 206.150133 163.817685 
L 206.150133 163.994737 
L 206.904293 163.994737 
L 206.904293 164.17179 
L 208.412614 164.260316 
L 208.412614 164.437369 
L 209.920935 164.525895 
L 209.920935 164.614421 
L 212.937576 164.702947 
L 212.937576 164.791474 
L 215.200057 164.791474 
L 215.200057 164.791474 
" clip-path="url(#p1a27e22f72)" style="fill: none; stroke: #00bfbf; stroke-width: 1.5; stroke-linecap: square"/>
   </g>
   <g id="patch_3">
    <path d="M 64.368 164.88 
L 64.368 30.984 
" style="fill: none; stroke: #000000; stroke-width: 0.8; stroke-linejoin: miter; stroke-linecap: square"/>
   </g>
   <g id="patch_4">
    <path d="M 215.200057 164.88 
L 215.200057 30.984 
" style="fill: none; stroke: #000000; stroke-width: 0.8; stroke-linejoin: miter; stroke-linecap: square"/>
   </g>
   <g id="patch_5">
    <path d="M 64.368 164.88 
L 215.200057 164.88 
" style="fill: none; stroke: #000000; stroke-width: 0.8; stroke-linejoin: miter; stroke-linecap: square"/>
   </g>
   <g id="patch_6">
    <path d="M 64.368 30.984 
L 215.200057 30.984 
" style="fill: none; stroke: #000000; stroke-width: 0.8; stroke-linejoin: miter; stroke-linecap: square"/>
   </g>
   <g id="text_1">
    <!-- $\Omega_{2,0}$ = ${0.2316}_{-0.0577}^{+0.0521}$ -->
    <g transform="translate(69.434028 24.984) scale(0.14 -0.14)">
     <defs>
      <path id="DejaVuSans-3a9" d="M 4647 556 
L 4647 0 
L 2772 0 
L 2772 556 
Q 3325 859 3634 1378 
Q 3944 1897 3944 2528 
Q 3944 3278 3531 3731 
Q 3119 4184 2444 4184 
Q 1769 4184 1355 3729 
Q 941 3275 941 2528 
Q 941 1897 1250 1378 
Q 1563 859 2119 556 
L 2119 0 
L 244 0 
L 244 556 
L 1241 556 
Q 747 991 519 1456 
Q 294 1922 294 2497 
Q 294 3491 894 4106 
Q 1491 4722 2444 4722 
Q 3391 4722 3994 4106 
Q 4594 3494 4594 2528 
Q 4594 1922 4372 1459 
Q 4150 997 3647 556 
L 4647 556 
z
" transform="scale(0.015625)"/>
      <path id="DejaVuSans-32" d="M 1228 531 
L 3431 531 
L 3431 0 
L 469 0 
L 469 531 
Q 828 903 1448 1529 
Q 2069 2156 2228 2338 
Q 2531 2678 2651 2914 
Q 2772 3150 2772 3378 
Q 2772 3750 2511 3984 
Q 2250 4219 1831 4219 
Q 1534 4219 1204 4116 
Q 875 4013 500 3803 
L 500 4441 
Q 881 4594 1212 4672 
Q 1544 4750 1819 4750 
Q 2544 4750 2975 4387 
Q 3406 4025 3406 3419 
Q 3406 3131 3298 2873 
Q 3191 2616 2906 2266 
Q 2828 2175 2409 1742 
Q 1991 1309 1228 531 
z
" transform="scale(0.015625)"/>
      <path id="DejaVuSans-2c" d="M 750 794 
L 1409 794 
L 1409 256 
L 897 -744 
L 494 -744 
L 750 256 
L 750 794 
z
" transform="scale(0.015625)"/>
      <path id="DejaVuSans-30" d="M 2034 4250 
Q 1547 4250 1301 3770 
Q 1056 3291 1056 2328 
Q 1056 1369 1301 889 
Q 1547 409 2034 409 
Q 2525 409 2770 889 
Q 3016 1369 3016 2328 
Q 3016 3291 2770 3770 
Q 2525 4250 2034 4250 
z
M 2034 4750 
Q 2819 4750 3233 4129 
Q 3647 3509 3647 2328 
Q 3647 1150 3233 529 
Q 2819 -91 2034 -91 
Q 1250 -91 836 529 
Q 422 1150 422 2328 
Q 422 3509 836 4129 
Q 1250 4750 2034 4750 
z
" transform="scale(0.015625)"/>
      <path id="DejaVuSans-20" transform="scale(0.015625)"/>
      <path id="DejaVuSans-3d" d="M 678 2906 
L 4684 2906 
L 4684 2381 
L 678 2381 
L 678 2906 
z
M 678 1631 
L 4684 1631 
L 4684 1100 
L 678 1100 
L 678 1631 
z
" transform="scale(0.015625)"/>
      <path id="DejaVuSans-2e" d="M 684 794 
L 1344 794 
L 1344 0 
L 684 0 
L 684 794 
z
" transform="scale(0.015625)"/>
      <path id="DejaVuSans-33" d="M 2597 2516 
Q 3050 2419 3304 2112 
Q 3559 1806 3559 1356 
Q 3559 666 3084 287 
Q 2609 -91 1734 -91 
Q 1441 -91 1130 -33 
Q 819 25 488 141 
L 488 750 
Q 750 597 1062 519 
Q 1375 441 1716 441 
Q 2309 441 2620 675 
Q 2931 909 2931 1356 
Q 2931 1769 2642 2001 
Q 2353 2234 1838 2234 
L 1294 2234 
L 1294 2753 
L 1863 2753 
Q 2328 2753 2575 2939 
Q 2822 3125 2822 3475 
Q 2822 3834 2567 4026 
Q 2313 4219 1838 4219 
Q 1578 4219 1281 4162 
Q 984 4106 628 3988 
L 628 4550 
Q 988 4650 1302 4700 
Q 1616 4750 1894 4750 
Q 2613 4750 3031 4423 
Q 3450 4097 3450 3541 
Q 3450 3153 3228 2886 
Q 3006 2619 2597 2516 
z
" transform="scale(0.015625)"/>
      <path id="DejaVuSans-31" d="M 794 531 
L 1825 531 
L 1825 4091 
L 703 3866 
L 703 4441 
L 1819 4666 
L 2450 4666 
L 2450 531 
L 3481 531 
L 3481 0 
L 794 0 
L 794 531 
z
" transform="scale(0.015625)"/>
      <path id="DejaVuSans-36" d="M 2113 2584 
Q 1688 2584 1439 2293 
Q 1191 2003 1191 1497 
Q 1191 994 1439 701 
Q 1688 409 2113 409 
Q 2538 409 2786 701 
Q 3034 994 3034 1497 
Q 3034 2003 2786 2293 
Q 2538 2584 2113 2584 
z
M 3366 4563 
L 3366 3988 
Q 3128 4100 2886 4159 
Q 2644 4219 2406 4219 
Q 1781 4219 1451 3797 
Q 1122 3375 1075 2522 
Q 1259 2794 1537 2939 
Q 1816 3084 2150 3084 
Q 2853 3084 3261 2657 
Q 3669 2231 3669 1497 
Q 3669 778 3244 343 
Q 2819 -91 2113 -91 
Q 1303 -91 875 529 
Q 447 1150 447 2328 
Q 447 3434 972 4092 
Q 1497 4750 2381 4750 
Q 2619 4750 2861 4703 
Q 3103 4656 3366 4563 
z
" transform="scale(0.015625)"/>
      <path id="DejaVuSans-2b" d="M 2944 4013 
L 2944 2272 
L 4684 2272 
L 4684 1741 
L 2944 1741 
L 2944 0 
L 2419 0 
L 2419 1741 
L 678 1741 
L 678 2272 
L 2419 2272 
L 2419 4013 
L 2944 4013 
z
" transform="scale(0.015625)"/>
      <path id="DejaVuSans-35" d="M 691 4666 
L 3169 4666 
L 3169 4134 
L 1269 4134 
L 1269 2991 
Q 1406 3038 1543 3061 
Q 1681 3084 1819 3084 
Q 2600 3084 3056 2656 
Q 3513 2228 3513 1497 
Q 3513 744 3044 326 
Q 2575 -91 1722 -91 
Q 1428 -91 1123 -41 
Q 819 9 494 109 
L 494 744 
Q 775 591 1075 516 
Q 1375 441 1709 441 
Q 2250 441 2565 725 
Q 2881 1009 2881 1497 
Q 2881 1984 2565 2268 
Q 2250 2553 1709 2553 
Q 1456 2553 1204 2497 
Q 953 2441 691 2322 
L 691 4666 
z
" transform="scale(0.015625)"/>
      <path id="DejaVuSans-2212" d="M 678 2272 
L 4684 2272 
L 4684 1741 
L 678 1741 
L 678 2272 
z
" transform="scale(0.015625)"/>
      <path id="DejaVuSans-37" d="M 525 4666 
L 3525 4666 
L 3525 4397 
L 1831 0 
L 1172 0 
L 2766 4134 
L 525 4134 
L 525 4666 
z
" transform="scale(0.015625)"/>
     </defs>
     <use xlink:href="#DejaVuSans-3a9" transform="translate(0 0.765625)"/>
     <use xlink:href="#DejaVuSans-32" transform="translate(77.373047 -15.640625) scale(0.7)"/>
     <use xlink:href="#DejaVuSans-2c" transform="translate(121.90918 -15.640625) scale(0.7)"/>
     <use xlink:href="#DejaVuSans-30" transform="translate(157.797852 -15.640625) scale(0.7)"/>
     <use xlink:href="#DejaVuSans-20" transform="translate(205.068359 0.765625)"/>
     <use xlink:href="#DejaVuSans-3d" transform="translate(236.855469 0.765625)"/>
     <use xlink:href="#DejaVuSans-20" transform="translate(320.644531 0.765625)"/>
     <use xlink:href="#DejaVuSans-30" transform="translate(352.431641 0.765625)"/>
     <use xlink:href="#DejaVuSans-2e" transform="translate(416.054688 0.765625)"/>
     <use xlink:href="#DejaVuSans-32" transform="translate(442.341797 0.765625)"/>
     <use xlink:href="#DejaVuSans-33" transform="translate(505.964844 0.765625)"/>
     <use xlink:href="#DejaVuSans-31" transform="translate(569.587891 0.765625)"/>
     <use xlink:href="#DejaVuSans-36" transform="translate(633.210938 0.765625)"/>
     <use xlink:href="#DejaVuSans-2b" transform="translate(697.791016 39.046875) scale(0.7)"/>
     <use xlink:href="#DejaVuSans-30" transform="translate(756.443359 39.046875) scale(0.7)"/>
     <use xlink:href="#DejaVuSans-2e" transform="translate(800.979492 39.046875) scale(0.7)"/>
     <use xlink:href="#DejaVuSans-30" transform="translate(823.230469 39.046875) scale(0.7)"/>
     <use xlink:href="#DejaVuSans-35" transform="translate(867.766602 39.046875) scale(0.7)"/>
     <use xlink:href="#DejaVuSans-32" transform="translate(912.302734 39.046875) scale(0.7)"/>
     <use xlink:href="#DejaVuSans-31" transform="translate(956.838867 39.046875) scale(0.7)"/>
     <use xlink:href="#DejaVuSans-2212" transform="translate(697.791016 -26.578125) scale(0.7)"/>
     <use xlink:href="#DejaVuSans-30" transform="translate(756.443359 -26.578125) scale(0.7)"/>
     <use xlink:href="#DejaVuSans-2e" transform="translate(800.979492 -26.578125) scale(0.7)"/>
     <use xlink:href="#DejaVuSans-30" transform="translate(823.230469 -26.578125) scale(0.7)"/>
     <use xlink:href="#DejaVuSans-35" transform="translate(867.766602 -26.578125) scale(0.7)"/>
     <use xlink:href="#DejaVuSans-37" transform="translate(907.227734 -26.578125) scale(0.7)"/>
     <use xlink:href="#DejaVuSans-37" transform="translate(950.538867 -26.578125) scale(0.7)"/>
    </g>
   </g>
  </g>
  <g id="axes_2">
   <g id="matplotlib.axis_3"/>
   <g id="matplotlib.axis_4"/>
  </g>
  <g id="axes_3">
   <g id="patch_7">
    <path d="M 64.368 329.76 
L 215.200057 329.76 
L 215.200057 195.864 
L 64.368 195.864 
z
" style="fill: #ffffff"/>
   </g>
   <g id="QuadContourSet_1">
    <path d="M 186.541966 294.7108 
L 189.558607 295.98882 
L 192.575248 295.49726 
L 193.21108 293.60808 
L 193.424752 290.93016 
L 193.465145 288.25224 
L 193.225374 285.57432 
L 192.638166 282.8964 
L 192.575248 282.70704 
L 192.017396 280.21848 
L 191.142248 277.54056 
L 189.776509 274.86264 
L 189.558607 274.489819 
L 188.66162 272.18472 
L 187.008999 269.5068 
L 186.541966 268.92242 
L 185.462585 266.82888 
L 183.525325 264.406272 
L 183.37617 264.15096 
L 181.679167 261.47304 
L 180.508684 259.94843 
L 179.795578 258.79512 
L 177.492042 256.227117 
L 177.403321 256.1172 
L 174.820342 253.43928 
L 174.475401 253.132622 
L 172.24401 250.76136 
L 171.45876 250.051191 
L 169.309463 248.08344 
L 168.442119 247.33765 
L 166.064037 245.40552 
L 165.425478 244.851097 
L 162.961531 242.7276 
L 162.408837 242.22716 
L 159.800706 240.04968 
L 159.392196 239.700483 
L 156.375555 237.37176 
L 156.375555 237.37176 
L 153.358913 235.095021 
L 152.733892 234.69384 
L 150.342272 232.930545 
L 148.793116 232.01592 
L 147.325631 230.916016 
L 144.576733 229.338 
L 144.30899 229.136992 
L 141.292349 227.130689 
L 140.287504 226.66008 
L 138.275708 225.393885 
L 135.259067 224.04243 
L 135.109203 223.98216 
L 132.242425 222.332193 
L 129.392197 221.30424 
L 129.225784 221.205761 
L 126.209143 219.653441 
L 123.192502 218.730521 
L 122.88598 218.62632 
L 120.175861 217.178778 
L 117.15922 216.122183 
L 116.585138 215.9484 
L 114.142579 214.835046 
L 111.125938 213.889512 
L 108.322243 213.27048 
L 108.109296 213.186946 
L 105.092655 212.170893 
L 102.076014 211.385875 
L 99.059373 210.761563 
L 98.23477 210.59256 
L 96.042732 210.022452 
L 93.026091 209.717852 
L 90.00945 210.064568 
L 88.832907 210.59256 
L 89.316284 213.27048 
L 90.00945 213.954797 
L 91.551212 215.9484 
L 93.026091 217.423789 
L 93.857429 218.62632 
L 96.042732 220.890626 
L 96.395599 221.30424 
L 99.059373 223.457045 
L 99.714637 223.98216 
L 102.076014 225.742903 
L 103.152902 226.66008 
L 105.092655 228.21691 
L 106.520496 229.338 
L 108.109296 230.642353 
L 109.610665 232.01592 
L 111.125938 233.38874 
L 112.661167 234.69384 
L 114.142579 235.865562 
L 116.253538 237.37176 
L 117.15922 238.071226 
L 119.567284 240.04968 
L 120.175861 240.614468 
L 122.078071 242.7276 
L 123.192502 243.837084 
L 124.868578 245.40552 
L 126.209143 246.524025 
L 128.633248 248.08344 
L 129.225784 248.507426 
L 132.242425 250.512931 
L 132.582797 250.76136 
L 135.259067 253.042668 
L 135.696211 253.43928 
L 138.275708 255.798944 
L 138.626181 256.1172 
L 141.292349 258.511803 
L 141.624443 258.79512 
L 144.30899 261.16542 
L 144.686127 261.47304 
L 147.325631 263.781239 
L 147.744617 264.15096 
L 150.342272 266.459996 
L 150.765846 266.82888 
L 153.358913 269.009928 
L 154.02015 269.5068 
L 156.375555 271.478524 
L 157.241469 272.18472 
L 159.392196 274.091074 
L 160.338021 274.86264 
L 162.408837 276.726237 
L 163.36624 277.54056 
L 165.425478 279.33212 
L 166.629655 280.21848 
L 168.442119 281.659429 
L 170.062444 282.8964 
L 171.45876 284.165048 
L 173.183675 285.57432 
L 174.475401 286.655755 
L 177.063246 288.25224 
L 177.492042 288.600133 
L 180.508684 290.750217 
L 180.820098 290.93016 
L 183.525325 292.8717 
L 184.90615 293.60808 
z
" clip-path="url(#p40cafb81d5)" style="fill: #ffffff"/>
   </g>
   <g id="QuadContourSet_2">
    <path d="M 62.859679 333.77688 
L 65.876321 333.77688 
L 68.892962 333.77688 
L 71.909603 333.77688 
L 74.926244 333.77688 
L 77.942885 333.77688 
L 80.959526 333.77688 
L 83.976167 333.77688 
L 86.992808 333.77688 
L 90.00945 333.77688 
L 93.026091 333.77688 
L 96.042732 333.77688 
L 99.059373 333.77688 
L 102.076014 333.77688 
L 105.092655 333.77688 
L 108.109296 333.77688 
L 111.125938 333.77688 
L 114.142579 333.77688 
L 117.15922 333.77688 
L 120.175861 333.77688 
L 123.192502 333.77688 
L 126.209143 333.77688 
L 129.225784 333.77688 
L 132.242425 333.77688 
L 135.259067 333.77688 
L 138.275708 333.77688 
L 141.292349 333.77688 
L 144.30899 333.77688 
L 147.325631 333.77688 
L 150.342272 333.77688 
L 153.358913 333.77688 
L 156.375555 333.77688 
L 159.392196 333.77688 
L 162.408837 333.77688 
L 165.425478 333.77688 
L 168.442119 333.77688 
L 171.45876 333.77688 
L 174.475401 333.77688 
L 177.492042 333.77688 
L 180.508684 333.77688 
L 183.525325 333.77688 
L 186.541966 333.77688 
L 189.558607 333.77688 
L 192.575248 333.77688 
L 195.591889 333.77688 
L 198.60853 333.77688 
L 201.625171 333.77688 
L 204.641813 333.77688 
L 207.658454 333.77688 
L 210.675095 333.77688 
L 213.691736 333.77688 
L 216.708377 333.77688 
L 219.725018 333.77688 
L 219.725018 331.09896 
L 219.725018 328.42104 
L 219.725018 325.74312 
L 219.725018 323.0652 
L 219.725018 320.38728 
L 219.725018 317.70936 
L 219.725018 315.03144 
L 219.725018 312.35352 
L 219.725018 309.6756 
L 219.725018 306.99768 
L 219.725018 304.31976 
L 219.725018 301.64184 
L 219.725018 298.96392 
L 219.725018 296.286 
L 219.725018 293.60808 
L 219.725018 290.93016 
L 219.725018 288.25224 
L 219.725018 285.57432 
L 219.725018 282.8964 
L 219.725018 280.21848 
L 219.725018 277.54056 
L 219.725018 274.86264 
L 219.725018 272.18472 
L 219.725018 269.5068 
L 219.725018 266.82888 
L 219.725018 264.15096 
L 219.725018 261.47304 
L 219.725018 258.79512 
L 219.725018 256.1172 
L 219.725018 253.43928 
L 219.725018 250.76136 
L 219.725018 248.08344 
L 219.725018 245.40552 
L 219.725018 242.7276 
L 219.725018 240.04968 
L 219.725018 237.37176 
L 219.725018 234.69384 
L 219.725018 232.01592 
L 219.725018 229.338 
L 219.725018 226.66008 
L 219.725018 223.98216 
L 219.725018 221.30424 
L 219.725018 218.62632 
L 219.725018 215.9484 
L 219.725018 213.27048 
L 219.725018 210.59256 
L 219.725018 207.91464 
L 219.725018 205.23672 
L 219.725018 202.5588 
L 219.725018 199.88088 
L 219.725018 197.20296 
L 219.725018 194.52504 
L 219.725018 191.84712 
L 216.708377 191.84712 
L 213.691736 191.84712 
L 210.675095 191.84712 
L 207.658454 191.84712 
L 204.641813 191.84712 
L 201.625171 191.84712 
L 198.60853 191.84712 
L 195.591889 191.84712 
L 192.575248 191.84712 
L 189.558607 191.84712 
L 186.541966 191.84712 
L 183.525325 191.84712 
L 180.508684 191.84712 
L 177.492042 191.84712 
L 174.475401 191.84712 
L 171.45876 191.84712 
L 168.442119 191.84712 
L 165.425478 191.84712 
L 162.408837 191.84712 
L 159.392196 191.84712 
L 156.375555 191.84712 
L 153.358913 191.84712 
L 150.342272 191.84712 
L 147.325631 191.84712 
L 144.30899 191.84712 
L 141.292349 191.84712 
L 138.275708 191.84712 
L 135.259067 191.84712 
L 132.242425 191.84712 
L 129.225784 191.84712 
L 126.209143 191.84712 
L 123.192502 191.84712 
L 120.175861 191.84712 
L 117.15922 191.84712 
L 114.142579 191.84712 
L 111.125938 191.84712 
L 108.109296 191.84712 
L 105.092655 191.84712 
L 102.076014 191.84712 
L 99.059373 191.84712 
L 96.042732 191.84712 
L 93.026091 191.84712 
L 90.00945 191.84712 
L 86.992808 191.84712 
L 83.976167 191.84712 
L 80.959526 191.84712 
L 77.942885 191.84712 
L 74.926244 191.84712 
L 71.909603 191.84712 
L 68.892962 191.84712 
L 65.876321 191.84712 
L 62.859679 191.84712 
L 59.843038 191.84712 
L 59.843038 194.52504 
L 59.843038 197.20296 
L 59.843038 199.88088 
L 59.843038 202.5588 
L 59.843038 205.23672 
L 59.843038 207.91464 
L 59.843038 210.59256 
L 59.843038 213.27048 
L 59.843038 215.9484 
L 59.843038 218.62632 
L 59.843038 221.30424 
L 59.843038 223.98216 
L 59.843038 226.66008 
L 59.843038 229.338 
L 59.843038 232.01592 
L 59.843038 234.69384 
L 59.843038 237.37176 
L 59.843038 240.04968 
L 59.843038 242.7276 
L 59.843038 245.40552 
L 59.843038 248.08344 
L 59.843038 250.76136 
L 59.843038 253.43928 
L 59.843038 256.1172 
L 59.843038 258.79512 
L 59.843038 261.47304 
L 59.843038 264.15096 
L 59.843038 266.82888 
L 59.843038 269.5068 
L 59.843038 272.18472 
L 59.843038 274.86264 
L 59.843038 277.54056 
L 59.843038 280.21848 
L 59.843038 282.8964 
L 59.843038 285.57432 
L 59.843038 288.25224 
L 59.843038 290.93016 
L 59.843038 293.60808 
L 59.843038 296.286 
L 59.843038 298.96392 
L 59.843038 301.64184 
L 59.843038 304.31976 
L 59.843038 306.99768 
L 59.843038 309.6756 
L 59.843038 312.35352 
L 59.843038 315.03144 
L 59.843038 317.70936 
L 59.843038 320.38728 
L 59.843038 323.0652 
L 59.843038 325.74312 
L 59.843038 328.42104 
L 59.843038 331.09896 
L 59.843038 333.77688 
L 62.859679 333.77688 
z
M 184.90615 293.60808 
L 183.525325 292.8717 
L 180.820098 290.93016 
L 180.508684 290.750217 
L 177.492042 288.600133 
L 177.063246 288.25224 
L 174.475401 286.655755 
L 173.183675 285.57432 
L 171.45876 284.165048 
L 170.062444 282.8964 
L 168.442119 281.659429 
L 166.629655 280.21848 
L 165.425478 279.33212 
L 163.36624 277.54056 
L 162.408837 276.726237 
L 160.338021 274.86264 
L 159.392196 274.091074 
L 157.241469 272.18472 
L 156.375555 271.478524 
L 154.02015 269.5068 
L 153.358913 269.009928 
L 150.765846 266.82888 
L 150.342272 266.459996 
L 147.744617 264.15096 
L 147.325631 263.781239 
L 144.686127 261.47304 
L 144.30899 261.16542 
L 141.624443 258.79512 
L 141.292349 258.511803 
L 138.626181 256.1172 
L 138.275708 255.798944 
L 135.696211 253.43928 
L 135.259067 253.042668 
L 132.582797 250.76136 
L 132.242425 250.512931 
L 129.225784 248.507426 
L 128.633248 248.08344 
L 126.209143 246.524025 
L 124.868578 245.40552 
L 123.192502 243.837084 
L 122.078071 242.7276 
L 120.175861 240.614468 
L 119.567284 240.04968 
L 117.15922 238.071226 
L 116.253538 237.37176 
L 114.142579 235.865562 
L 112.661167 234.69384 
L 111.125938 233.38874 
L 109.610665 232.01592 
L 108.109296 230.642353 
L 106.520496 229.338 
L 105.092655 228.21691 
L 103.152902 226.66008 
L 102.076014 225.742903 
L 99.714637 223.98216 
L 99.059373 223.457045 
L 96.395599 221.30424 
L 96.042732 220.890626 
L 93.857429 218.62632 
L 93.026091 217.423789 
L 91.551212 215.9484 
L 90.00945 213.954797 
L 89.316284 213.27048 
L 88.832907 210.59256 
L 90.00945 210.064568 
L 93.026091 209.717852 
L 96.042732 210.022452 
L 98.23477 210.59256 
L 99.059373 210.761563 
L 102.076014 211.385875 
L 105.092655 212.170893 
L 108.109296 213.186946 
L 108.322243 213.27048 
L 111.125938 213.889512 
L 114.142579 214.835046 
L 116.585138 215.9484 
L 117.15922 216.122183 
L 120.175861 217.178778 
L 122.88598 218.62632 
L 123.192502 218.730521 
L 126.209143 219.653441 
L 129.225784 221.205761 
L 129.392197 221.30424 
L 132.242425 222.332193 
L 135.109203 223.98216 
L 135.259067 224.04243 
L 138.275708 225.393885 
L 140.287504 226.66008 
L 141.292349 227.130689 
L 144.30899 229.136992 
L 144.576733 229.338 
L 147.325631 230.916016 
L 148.793116 232.01592 
L 150.342272 232.930545 
L 152.733892 234.69384 
L 153.358913 235.095021 
L 156.375555 237.37176 
L 156.375555 237.37176 
L 159.392196 239.700483 
L 159.800706 240.04968 
L 162.408837 242.22716 
L 162.961531 242.7276 
L 165.425478 244.851097 
L 166.064037 245.40552 
L 168.442119 247.33765 
L 169.309463 248.08344 
L 171.45876 250.051191 
L 172.24401 250.76136 
L 174.475401 253.132622 
L 174.820342 253.43928 
L 177.403321 256.1172 
L 177.492042 256.227117 
L 179.795578 258.79512 
L 180.508684 259.94843 
L 181.679167 261.47304 
L 183.37617 264.15096 
L 183.525325 264.406272 
L 185.462585 266.82888 
L 186.541966 268.92242 
L 187.008999 269.5068 
L 188.66162 272.18472 
L 189.558607 274.489819 
L 189.776509 274.86264 
L 191.142248 277.54056 
L 192.017396 280.21848 
L 192.575248 282.70704 
L 192.638166 282.8964 
L 193.225374 285.57432 
L 193.465145 288.25224 
L 193.424752 290.93016 
L 193.21108 293.60808 
L 192.575248 295.49726 
L 189.558607 295.98882 
L 186.541966 294.7108 
L 184.90615 293.60808 
z
" clip-path="url(#p40cafb81d5)" style="fill: none"/>
    <path d="M 186.541966 294.7108 
L 189.558607 295.98882 
L 192.575248 295.49726 
L 193.21108 293.60808 
L 193.424752 290.93016 
L 193.465145 288.25224 
L 193.225374 285.57432 
L 192.638166 282.8964 
L 192.575248 282.70704 
L 192.017396 280.21848 
L 191.142248 277.54056 
L 189.776509 274.86264 
L 189.558607 274.489819 
L 188.66162 272.18472 
L 187.008999 269.5068 
L 186.541966 268.92242 
L 185.462585 266.82888 
L 183.525325 264.406272 
L 183.37617 264.15096 
L 181.679167 261.47304 
L 180.508684 259.94843 
L 179.795578 258.79512 
L 177.492042 256.227117 
L 177.403321 256.1172 
L 174.820342 253.43928 
L 174.475401 253.132622 
L 172.24401 250.76136 
L 171.45876 250.051191 
L 169.309463 248.08344 
L 168.442119 247.33765 
L 166.064037 245.40552 
L 165.425478 244.851097 
L 162.961531 242.7276 
L 162.408837 242.22716 
L 159.800706 240.04968 
L 159.392196 239.700483 
L 156.375555 237.37176 
L 156.375555 237.37176 
L 153.358913 235.095021 
L 152.733892 234.69384 
L 150.342272 232.930545 
L 148.793116 232.01592 
L 147.325631 230.916016 
L 144.576733 229.338 
L 144.30899 229.136992 
L 141.292349 227.130689 
L 140.287504 226.66008 
L 138.275708 225.393885 
L 135.259067 224.04243 
L 135.109203 223.98216 
L 132.242425 222.332193 
L 129.392197 221.30424 
L 129.225784 221.205761 
L 126.209143 219.653441 
L 123.192502 218.730521 
L 122.88598 218.62632 
L 120.175861 217.178778 
L 117.15922 216.122183 
L 116.585138 215.9484 
L 114.142579 214.835046 
L 111.125938 213.889512 
L 108.322243 213.27048 
L 108.109296 213.186946 
L 105.092655 212.170893 
L 102.076014 211.385875 
L 99.059373 210.761563 
L 98.23477 210.59256 
L 96.042732 210.022452 
L 93.026091 209.717852 
L 90.00945 210.064568 
L 88.832907 210.59256 
L 89.316284 213.27048 
L 90.00945 213.954797 
L 91.551212 215.9484 
L 93.026091 217.423789 
L 93.857429 218.62632 
L 96.042732 220.890626 
L 96.395599 221.30424 
L 99.059373 223.457045 
L 99.714637 223.98216 
L 102.076014 225.742903 
L 103.152902 226.66008 
L 105.092655 228.21691 
L 106.520496 229.338 
L 108.109296 230.642353 
L 109.610665 232.01592 
L 111.125938 233.38874 
L 112.661167 234.69384 
L 114.142579 235.865562 
L 116.253538 237.37176 
L 117.15922 238.071226 
L 119.567284 240.04968 
L 120.175861 240.614468 
L 122.078071 242.7276 
L 123.192502 243.837084 
L 124.868578 245.40552 
L 126.209143 246.524025 
L 128.633248 248.08344 
L 129.225784 248.507426 
L 132.242425 250.512931 
L 132.582797 250.76136 
L 135.259067 253.042668 
L 135.696211 253.43928 
L 138.275708 255.798944 
L 138.626181 256.1172 
L 141.292349 258.511803 
L 141.624443 258.79512 
L 144.30899 261.16542 
L 144.686127 261.47304 
L 147.325631 263.781239 
L 147.744617 264.15096 
L 150.342272 266.459996 
L 150.765846 266.82888 
L 153.358913 269.009928 
L 154.02015 269.5068 
L 156.375555 271.478524 
L 157.241469 272.18472 
L 159.392196 274.091074 
L 160.338021 274.86264 
L 162.408837 276.726237 
L 163.36624 277.54056 
L 165.425478 279.33212 
L 166.629655 280.21848 
L 168.442119 281.659429 
L 170.062444 282.8964 
L 171.45876 284.165048 
L 173.183675 285.57432 
L 174.475401 286.655755 
L 177.063246 288.25224 
L 177.492042 288.600133 
L 180.508684 290.750217 
L 180.820098 290.93016 
L 183.525325 292.8717 
L 184.90615 293.60808 
z
M 174.047937 274.86264 
L 171.45876 274.026918 
L 168.442119 272.383789 
L 168.162742 272.18472 
L 165.425478 270.580773 
L 163.919756 269.5068 
L 162.408837 268.593939 
L 159.959715 266.82888 
L 159.392196 266.475969 
L 156.375555 264.296435 
L 156.198673 264.15096 
L 153.358913 261.80865 
L 152.983276 261.47304 
L 150.342272 259.176397 
L 149.898675 258.79512 
L 147.325631 256.624391 
L 146.725881 256.1172 
L 144.30899 254.108416 
L 143.536556 253.43928 
L 141.292349 251.512491 
L 140.454542 250.76136 
L 138.275708 248.813178 
L 137.43233 248.08344 
L 135.259067 246.307645 
L 134.071209 245.40552 
L 132.242425 244.003263 
L 130.653583 242.7276 
L 129.225784 241.446729 
L 127.697133 240.04968 
L 126.209143 238.534319 
L 125.015393 237.37176 
L 123.192502 235.570537 
L 122.208809 234.69384 
L 120.175861 232.581092 
L 119.563756 232.01592 
L 117.428261 229.338 
L 117.15922 228.44869 
L 116.451238 226.66008 
L 117.15922 225.727976 
L 120.175861 225.16836 
L 123.192502 225.703114 
L 126.209143 226.651205 
L 126.229834 226.66008 
L 129.225784 227.762615 
L 132.242425 229.074277 
L 132.754593 229.338 
L 135.259067 230.419168 
L 138.275708 231.997628 
L 138.305336 232.01592 
L 141.292349 233.550727 
L 143.086124 234.69384 
L 144.30899 235.378837 
L 147.224053 237.37176 
L 147.325631 237.442332 
L 150.342272 239.637128 
L 150.870475 240.04968 
L 153.358913 241.965365 
L 154.271539 242.7276 
L 156.375555 244.473164 
L 157.479867 245.40552 
L 159.392196 247.037972 
L 160.613686 248.08344 
L 162.408837 249.765868 
L 163.52351 250.76136 
L 165.425478 252.625076 
L 166.272147 253.43928 
L 168.442119 255.814487 
L 168.730252 256.1172 
L 171.030767 258.79512 
L 171.45876 259.438305 
L 172.992197 261.47304 
L 174.475401 264.15096 
L 174.475401 264.15096 
L 175.905665 266.82888 
L 177.119172 269.5068 
L 177.492042 271.15865 
L 177.723523 272.18472 
L 177.492042 273.132187 
L 175.291256 274.86264 
L 174.475401 275.027819 
z
" clip-path="url(#p40cafb81d5)" style="fill: #00bfbf; fill-opacity: 0.333333"/>
    <path d="M 174.475401 275.027819 
L 175.291256 274.86264 
L 177.492042 273.132187 
L 177.723523 272.18472 
L 177.492042 271.15865 
L 177.119172 269.5068 
L 175.905665 266.82888 
L 174.475401 264.15096 
L 174.475401 264.15096 
L 172.992197 261.47304 
L 171.45876 259.438305 
L 171.030767 258.79512 
L 168.730252 256.1172 
L 168.442119 255.814487 
L 166.272147 253.43928 
L 165.425478 252.625076 
L 163.52351 250.76136 
L 162.408837 249.765868 
L 160.613686 248.08344 
L 159.392196 247.037972 
L 157.479867 245.40552 
L 156.375555 244.473164 
L 154.271539 242.7276 
L 153.358913 241.965365 
L 150.870475 240.04968 
L 150.342272 239.637128 
L 147.325631 237.442332 
L 147.224053 237.37176 
L 144.30899 235.378837 
L 143.086124 234.69384 
L 141.292349 233.550727 
L 138.305336 232.01592 
L 138.275708 231.997628 
L 135.259067 230.419168 
L 132.754593 229.338 
L 132.242425 229.074277 
L 129.225784 227.762615 
L 126.229834 226.66008 
L 126.209143 226.651205 
L 123.192502 225.703114 
L 120.175861 225.16836 
L 117.15922 225.727976 
L 116.451238 226.66008 
L 117.15922 228.44869 
L 117.428261 229.338 
L 119.563756 232.01592 
L 120.175861 232.581092 
L 122.208809 234.69384 
L 123.192502 235.570537 
L 125.015393 237.37176 
L 126.209143 238.534319 
L 127.697133 240.04968 
L 129.225784 241.446729 
L 130.653583 242.7276 
L 132.242425 244.003263 
L 134.071209 245.40552 
L 135.259067 246.307645 
L 137.43233 248.08344 
L 138.275708 248.813178 
L 140.454542 250.76136 
L 141.292349 251.512491 
L 143.536556 253.43928 
L 144.30899 254.108416 
L 146.725881 256.1172 
L 147.325631 256.624391 
L 149.898675 258.79512 
L 150.342272 259.176397 
L 152.983276 261.47304 
L 153.358913 261.80865 
L 156.198673 264.15096 
L 156.375555 264.296435 
L 159.392196 266.475969 
L 159.959715 266.82888 
L 162.408837 268.593939 
L 163.919756 269.5068 
L 165.425478 270.580773 
L 168.162742 272.18472 
L 168.442119 272.383789 
L 171.45876 274.026918 
L 174.047937 274.86264 
z
" clip-path="url(#p40cafb81d5)" style="fill: #00bfbf"/>
   </g>
   <g id="matplotlib.axis_5">
    <g id="xtick_5">
     <g id="line2d_6">
      <g>
       <use xlink:href="#m580bd5e835" x="100.710164" y="329.76" style="stroke: #000000; stroke-width: 0.8"/>
      </g>
     </g>
     <g id="text_2">
      <!-- 0.1 -->
      <g transform="translate(97.038733 353.378114) rotate(-45) scale(0.1 -0.1)">
       <use xlink:href="#DejaVuSans-30"/>
       <use xlink:href="#DejaVuSans-2e" x="63.623047"/>
       <use xlink:href="#DejaVuSans-31" x="95.410156"/>
      </g>
     </g>
    </g>
    <g id="xtick_6">
     <g id="line2d_7">
      <g>
       <use xlink:href="#m580bd5e835" x="137.910339" y="329.76" style="stroke: #000000; stroke-width: 0.8"/>
      </g>
     </g>
     <g id="text_3">
      <!-- 0.2 -->
      <g transform="translate(134.238908 353.378114) rotate(-45) scale(0.1 -0.1)">
       <use xlink:href="#DejaVuSans-30"/>
       <use xlink:href="#DejaVuSans-2e" x="63.623047"/>
       <use xlink:href="#DejaVuSans-32" x="95.410156"/>
      </g>
     </g>
    </g>
    <g id="xtick_7">
     <g id="line2d_8">
      <g>
       <use xlink:href="#m580bd5e835" x="175.110515" y="329.76" style="stroke: #000000; stroke-width: 0.8"/>
      </g>
     </g>
     <g id="text_4">
      <!-- 0.3 -->
      <g transform="translate(171.439084 353.378114) rotate(-45) scale(0.1 -0.1)">
       <use xlink:href="#DejaVuSans-30"/>
       <use xlink:href="#DejaVuSans-2e" x="63.623047"/>
       <use xlink:href="#DejaVuSans-33" x="95.410156"/>
      </g>
     </g>
    </g>
    <g id="xtick_8">
     <g id="line2d_9">
      <g>
       <use xlink:href="#m580bd5e835" x="212.31069" y="329.76" style="stroke: #000000; stroke-width: 0.8"/>
      </g>
     </g>
     <g id="text_5">
      <!-- 0.4 -->
      <g transform="translate(208.639259 353.378114) rotate(-45) scale(0.1 -0.1)">
       <defs>
        <path id="DejaVuSans-34" d="M 2419 4116 
L 825 1625 
L 2419 1625 
L 2419 4116 
z
M 2253 4666 
L 3047 4666 
L 3047 1625 
L 3713 1625 
L 3713 1100 
L 3047 1100 
L 3047 0 
L 2419 0 
L 2419 1100 
L 313 1100 
L 313 1709 
L 2253 4666 
z
" transform="scale(0.015625)"/>
       </defs>
       <use xlink:href="#DejaVuSans-30"/>
       <use xlink:href="#DejaVuSans-2e" x="63.623047"/>
       <use xlink:href="#DejaVuSans-34" x="95.410156"/>
      </g>
     </g>
    </g>
    <g id="text_6">
     <!-- $\Omega_{2,0}$ -->
     <g transform="translate(129.484028 377.3288) scale(0.1 -0.1)">
      <use xlink:href="#DejaVuSans-3a9" transform="translate(0 0.21875)"/>
      <use xlink:href="#DejaVuSans-32" transform="translate(77.373047 -16.1875) scale(0.7)"/>
      <use xlink:href="#DejaVuSans-2c" transform="translate(121.90918 -16.1875) scale(0.7)"/>
      <use xlink:href="#DejaVuSans-30" transform="translate(157.797852 -16.1875) scale(0.7)"/>
     </g>
    </g>
   </g>
   <g id="matplotlib.axis_6">
    <g id="ytick_1">
     <g id="line2d_10">
      <defs>
       <path id="m34915ac985" d="M 0 0 
L -3.5 0 
" style="stroke: #000000; stroke-width: 0.8"/>
      </defs>
      <g>
       <use xlink:href="#m34915ac985" x="64.368" y="320.252722" style="stroke: #000000; stroke-width: 0.8"/>
      </g>
     </g>
     <g id="text_7">
      <!-- −1.2 -->
      <g transform="translate(38.726897 338.996951) rotate(-45) scale(0.1 -0.1)">
       <use xlink:href="#DejaVuSans-2212"/>
       <use xlink:href="#DejaVuSans-31" x="83.789062"/>
       <use xlink:href="#DejaVuSans-2e" x="147.412109"/>
       <use xlink:href="#DejaVuSans-32" x="179.199219"/>
      </g>
     </g>
    </g>
    <g id="ytick_2">
     <g id="line2d_11">
      <g>
       <use xlink:href="#m34915ac985" x="64.368" y="285.598572" style="stroke: #000000; stroke-width: 0.8"/>
      </g>
     </g>
     <g id="text_8">
      <!-- −1.0 -->
      <g transform="translate(38.726897 304.342801) rotate(-45) scale(0.1 -0.1)">
       <use xlink:href="#DejaVuSans-2212"/>
       <use xlink:href="#DejaVuSans-31" x="83.789062"/>
       <use xlink:href="#DejaVuSans-2e" x="147.412109"/>
       <use xlink:href="#DejaVuSans-30" x="179.199219"/>
      </g>
     </g>
    </g>
    <g id="ytick_3">
     <g id="line2d_12">
      <g>
       <use xlink:href="#m34915ac985" x="64.368" y="250.944422" style="stroke: #000000; stroke-width: 0.8"/>
      </g>
     </g>
     <g id="text_9">
      <!-- −0.8 -->
      <g transform="translate(38.726897 269.688652) rotate(-45) scale(0.1 -0.1)">
       <defs>
        <path id="DejaVuSans-38" d="M 2034 2216 
Q 1584 2216 1326 1975 
Q 1069 1734 1069 1313 
Q 1069 891 1326 650 
Q 1584 409 2034 409 
Q 2484 409 2743 651 
Q 3003 894 3003 1313 
Q 3003 1734 2745 1975 
Q 2488 2216 2034 2216 
z
M 1403 2484 
Q 997 2584 770 2862 
Q 544 3141 544 3541 
Q 544 4100 942 4425 
Q 1341 4750 2034 4750 
Q 2731 4750 3128 4425 
Q 3525 4100 3525 3541 
Q 3525 3141 3298 2862 
Q 3072 2584 2669 2484 
Q 3125 2378 3379 2068 
Q 3634 1759 3634 1313 
Q 3634 634 3220 271 
Q 2806 -91 2034 -91 
Q 1263 -91 848 271 
Q 434 634 434 1313 
Q 434 1759 690 2068 
Q 947 2378 1403 2484 
z
M 1172 3481 
Q 1172 3119 1398 2916 
Q 1625 2713 2034 2713 
Q 2441 2713 2670 2916 
Q 2900 3119 2900 3481 
Q 2900 3844 2670 4047 
Q 2441 4250 2034 4250 
Q 1625 4250 1398 4047 
Q 1172 3844 1172 3481 
z
" transform="scale(0.015625)"/>
       </defs>
       <use xlink:href="#DejaVuSans-2212"/>
       <use xlink:href="#DejaVuSans-30" x="83.789062"/>
       <use xlink:href="#DejaVuSans-2e" x="147.412109"/>
       <use xlink:href="#DejaVuSans-38" x="179.199219"/>
      </g>
     </g>
    </g>
    <g id="ytick_4">
     <g id="line2d_13">
      <g>
       <use xlink:href="#m34915ac985" x="64.368" y="216.290272" style="stroke: #000000; stroke-width: 0.8"/>
      </g>
     </g>
     <g id="text_10">
      <!-- −0.6 -->
      <g transform="translate(38.726897 235.034502) rotate(-45) scale(0.1 -0.1)">
       <use xlink:href="#DejaVuSans-2212"/>
       <use xlink:href="#DejaVuSans-30" x="83.789062"/>
       <use xlink:href="#DejaVuSans-2e" x="147.412109"/>
       <use xlink:href="#DejaVuSans-36" x="179.199219"/>
      </g>
     </g>
    </g>
    <g id="text_11">
     <!-- $w_{IDM}$ -->
     <g transform="translate(17.038696 273.812) rotate(-90) scale(0.1 -0.1)">
      <defs>
       <path id="DejaVuSans-Oblique-77" d="M 544 3500 
L 1113 3500 
L 1259 684 
L 2566 3500 
L 3231 3500 
L 3425 684 
L 4666 3500 
L 5241 3500 
L 3641 0 
L 2969 0 
L 2797 2900 
L 1459 0 
L 781 0 
L 544 3500 
z
" transform="scale(0.015625)"/>
       <path id="DejaVuSans-Oblique-49" d="M 1081 4666 
L 1716 4666 
L 806 0 
L 172 0 
L 1081 4666 
z
" transform="scale(0.015625)"/>
       <path id="DejaVuSans-Oblique-44" d="M 1081 4666 
L 2438 4666 
Q 3519 4666 4070 4208 
Q 4622 3750 4622 2847 
Q 4622 2250 4412 1698 
Q 4203 1147 3834 769 
Q 3463 381 2891 190 
Q 2319 0 1538 0 
L 172 0 
L 1081 4666 
z
M 1613 4147 
L 909 519 
L 1734 519 
Q 2794 519 3375 1128 
Q 3956 1738 3956 2847 
Q 3956 3519 3581 3833 
Q 3206 4147 2406 4147 
L 1613 4147 
z
" transform="scale(0.015625)"/>
       <path id="DejaVuSans-Oblique-4d" d="M 1081 4666 
L 2028 4666 
L 2572 1522 
L 4378 4666 
L 5350 4666 
L 4441 0 
L 3828 0 
L 4622 4091 
L 2791 897 
L 2175 897 
L 1581 4103 
L 788 0 
L 172 0 
L 1081 4666 
z
" transform="scale(0.015625)"/>
      </defs>
      <use xlink:href="#DejaVuSans-Oblique-77" transform="translate(0 0.3125)"/>
      <use xlink:href="#DejaVuSans-Oblique-49" transform="translate(81.787109 -16.09375) scale(0.7)"/>
      <use xlink:href="#DejaVuSans-Oblique-44" transform="translate(102.431641 -16.09375) scale(0.7)"/>
      <use xlink:href="#DejaVuSans-Oblique-4d" transform="translate(156.333008 -16.09375) scale(0.7)"/>
     </g>
    </g>
   </g>
   <g id="QuadContourSet_3">
    <path d="M 186.541966 294.7108 
L 189.558607 295.98882 
L 192.575248 295.49726 
L 193.21108 293.60808 
L 193.424752 290.93016 
L 193.465145 288.25224 
L 193.225374 285.57432 
L 192.638166 282.8964 
L 192.575248 282.70704 
L 192.017396 280.21848 
L 191.142248 277.54056 
L 189.776509 274.86264 
L 189.558607 274.489819 
L 188.66162 272.18472 
L 187.008999 269.5068 
L 186.541966 268.92242 
L 185.462585 266.82888 
L 183.525325 264.406272 
L 183.37617 264.15096 
L 181.679167 261.47304 
L 180.508684 259.94843 
L 179.795578 258.79512 
L 177.492042 256.227117 
L 177.403321 256.1172 
L 174.820342 253.43928 
L 174.475401 253.132622 
L 172.24401 250.76136 
L 171.45876 250.051191 
L 169.309463 248.08344 
L 168.442119 247.33765 
L 166.064037 245.40552 
L 165.425478 244.851097 
L 162.961531 242.7276 
L 162.408837 242.22716 
L 159.800706 240.04968 
L 159.392196 239.700483 
L 156.375555 237.37176 
L 156.375555 237.37176 
L 153.358913 235.095021 
L 152.733892 234.69384 
L 150.342272 232.930545 
L 148.793116 232.01592 
L 147.325631 230.916016 
L 144.576733 229.338 
L 144.30899 229.136992 
L 141.292349 227.130689 
L 140.287504 226.66008 
L 138.275708 225.393885 
L 135.259067 224.04243 
L 135.109203 223.98216 
L 132.242425 222.332193 
L 129.392197 221.30424 
L 129.225784 221.205761 
L 126.209143 219.653441 
L 123.192502 218.730521 
L 122.88598 218.62632 
L 120.175861 217.178778 
L 117.15922 216.122183 
L 116.585138 215.9484 
L 114.142579 214.835046 
L 111.125938 213.889512 
L 108.322243 213.27048 
L 108.109296 213.186946 
L 105.092655 212.170893 
L 102.076014 211.385875 
L 99.059373 210.761563 
L 98.23477 210.59256 
L 96.042732 210.022452 
L 93.026091 209.717852 
L 90.00945 210.064568 
L 88.832907 210.59256 
L 89.316284 213.27048 
L 90.00945 213.954797 
L 91.551212 215.9484 
L 93.026091 217.423789 
L 93.857429 218.62632 
L 96.042732 220.890626 
L 96.395599 221.30424 
L 99.059373 223.457045 
L 99.714637 223.98216 
L 102.076014 225.742903 
L 103.152902 226.66008 
L 105.092655 228.21691 
L 106.520496 229.338 
L 108.109296 230.642353 
L 109.610665 232.01592 
L 111.125938 233.38874 
L 112.661167 234.69384 
L 114.142579 235.865562 
L 116.253538 237.37176 
L 117.15922 238.071226 
L 119.567284 240.04968 
L 120.175861 240.614468 
L 122.078071 242.7276 
L 123.192502 243.837084 
L 124.868578 245.40552 
L 126.209143 246.524025 
L 128.633248 248.08344 
L 129.225784 248.507426 
L 132.242425 250.512931 
L 132.582797 250.76136 
L 135.259067 253.042668 
L 135.696211 253.43928 
L 138.275708 255.798944 
L 138.626181 256.1172 
L 141.292349 258.511803 
L 141.624443 258.79512 
L 144.30899 261.16542 
L 144.686127 261.47304 
L 147.325631 263.781239 
L 147.744617 264.15096 
L 150.342272 266.459996 
L 150.765846 266.82888 
L 153.358913 269.009928 
L 154.02015 269.5068 
L 156.375555 271.478524 
L 157.241469 272.18472 
L 159.392196 274.091074 
L 160.338021 274.86264 
L 162.408837 276.726237 
L 163.36624 277.54056 
L 165.425478 279.33212 
L 166.629655 280.21848 
L 168.442119 281.659429 
L 170.062444 282.8964 
L 171.45876 284.165048 
L 173.183675 285.57432 
L 174.475401 286.655755 
L 177.063246 288.25224 
L 177.492042 288.600133 
L 180.508684 290.750217 
L 180.820098 290.93016 
L 183.525325 292.8717 
L 184.90615 293.60808 
L 186.541966 294.7108 
z
" clip-path="url(#p40cafb81d5)" style="fill: none; stroke: #00bfbf; stroke-width: 1.5"/>
    <path d="M 174.475401 275.027819 
L 175.291256 274.86264 
L 177.492042 273.132187 
L 177.723523 272.18472 
L 177.492042 271.15865 
L 177.119172 269.5068 
L 175.905665 266.82888 
L 174.475401 264.15096 
L 174.475401 264.15096 
L 172.992197 261.47304 
L 171.45876 259.438305 
L 171.030767 258.79512 
L 168.730252 256.1172 
L 168.442119 255.814487 
L 166.272147 253.43928 
L 165.425478 252.625076 
L 163.52351 250.76136 
L 162.408837 249.765868 
L 160.613686 248.08344 
L 159.392196 247.037972 
L 157.479867 245.40552 
L 156.375555 244.473164 
L 154.271539 242.7276 
L 153.358913 241.965365 
L 150.870475 240.04968 
L 150.342272 239.637128 
L 147.325631 237.442332 
L 147.224053 237.37176 
L 144.30899 235.378837 
L 143.086124 234.69384 
L 141.292349 233.550727 
L 138.305336 232.01592 
L 138.275708 231.997628 
L 135.259067 230.419168 
L 132.754593 229.338 
L 132.242425 229.074277 
L 129.225784 227.762615 
L 126.229834 226.66008 
L 126.209143 226.651205 
L 123.192502 225.703114 
L 120.175861 225.16836 
L 117.15922 225.727976 
L 116.451238 226.66008 
L 117.15922 228.44869 
L 117.428261 229.338 
L 119.563756 232.01592 
L 120.175861 232.581092 
L 122.208809 234.69384 
L 123.192502 235.570537 
L 125.015393 237.37176 
L 126.209143 238.534319 
L 127.697133 240.04968 
L 129.225784 241.446729 
L 130.653583 242.7276 
L 132.242425 244.003263 
L 134.071209 245.40552 
L 135.259067 246.307645 
L 137.43233 248.08344 
L 138.275708 248.813178 
L 140.454542 250.76136 
L 141.292349 251.512491 
L 143.536556 253.43928 
L 144.30899 254.108416 
L 146.725881 256.1172 
L 147.325631 256.624391 
L 149.898675 258.79512 
L 150.342272 259.176397 
L 152.983276 261.47304 
L 153.358913 261.80865 
L 156.198673 264.15096 
L 156.375555 264.296435 
L 159.392196 266.475969 
L 159.959715 266.82888 
L 162.408837 268.593939 
L 163.919756 269.5068 
L 165.425478 270.580773 
L 168.162742 272.18472 
L 168.442119 272.383789 
L 171.45876 274.026918 
L 174.047937 274.86264 
L 174.475401 275.027819 
z
" clip-path="url(#p40cafb81d5)" style="fill: none; stroke: #00bfbf; stroke-width: 1.5"/>
   </g>
   <g id="patch_8">
    <path d="M 64.368 329.76 
L 64.368 195.864 
" style="fill: none; stroke: #000000; stroke-width: 0.8; stroke-linejoin: miter; stroke-linecap: square"/>
   </g>
   <g id="patch_9">
    <path d="M 215.200057 329.76 
L 215.200057 195.864 
" style="fill: none; stroke: #000000; stroke-width: 0.8; stroke-linejoin: miter; stroke-linecap: square"/>
   </g>
   <g id="patch_10">
    <path d="M 64.368 329.76 
L 215.200057 329.76 
" style="fill: none; stroke: #000000; stroke-width: 0.8; stroke-linejoin: miter; stroke-linecap: square"/>
   </g>
   <g id="patch_11">
    <path d="M 64.368 195.864 
L 215.200057 195.864 
" style="fill: none; stroke: #000000; stroke-width: 0.8; stroke-linejoin: miter; stroke-linecap: square"/>
   </g>
  </g>
  <g id="axes_4">
   <g id="patch_12">
    <path d="M 234.367943 329.76 
L 385.2 329.76 
L 385.2 195.864 
L 234.367943 195.864 
z
" style="fill: #ffffff"/>
   </g>
   <g id="matplotlib.axis_7">
    <g id="xtick_9">
     <g id="line2d_14">
      <g>
       <use xlink:href="#m580bd5e835" x="245.077765" y="329.76" style="stroke: #000000; stroke-width: 0.8"/>
      </g>
     </g>
     <g id="text_12">
      <!-- −1.2 -->
      <g transform="translate(238.443667 359.303448) rotate(-45) scale(0.1 -0.1)">
       <use xlink:href="#DejaVuSans-2212"/>
       <use xlink:href="#DejaVuSans-31" x="83.789062"/>
       <use xlink:href="#DejaVuSans-2e" x="147.412109"/>
       <use xlink:href="#DejaVuSans-32" x="179.199219"/>
      </g>
     </g>
    </g>
    <g id="xtick_10">
     <g id="line2d_15">
      <g>
       <use xlink:href="#m580bd5e835" x="284.115202" y="329.76" style="stroke: #000000; stroke-width: 0.8"/>
      </g>
     </g>
     <g id="text_13">
      <!-- −1.0 -->
      <g transform="translate(277.481104 359.303448) rotate(-45) scale(0.1 -0.1)">
       <use xlink:href="#DejaVuSans-2212"/>
       <use xlink:href="#DejaVuSans-31" x="83.789062"/>
       <use xlink:href="#DejaVuSans-2e" x="147.412109"/>
       <use xlink:href="#DejaVuSans-30" x="179.199219"/>
      </g>
     </g>
    </g>
    <g id="xtick_11">
     <g id="line2d_16">
      <g>
       <use xlink:href="#m580bd5e835" x="323.15264" y="329.76" style="stroke: #000000; stroke-width: 0.8"/>
      </g>
     </g>
     <g id="text_14">
      <!-- −0.8 -->
      <g transform="translate(316.518542 359.303448) rotate(-45) scale(0.1 -0.1)">
       <use xlink:href="#DejaVuSans-2212"/>
       <use xlink:href="#DejaVuSans-30" x="83.789062"/>
       <use xlink:href="#DejaVuSans-2e" x="147.412109"/>
       <use xlink:href="#DejaVuSans-38" x="179.199219"/>
      </g>
     </g>
    </g>
    <g id="xtick_12">
     <g id="line2d_17">
      <g>
       <use xlink:href="#m580bd5e835" x="362.190077" y="329.76" style="stroke: #000000; stroke-width: 0.8"/>
      </g>
     </g>
     <g id="text_15">
      <!-- −0.6 -->
      <g transform="translate(355.555979 359.303448) rotate(-45) scale(0.1 -0.1)">
       <use xlink:href="#DejaVuSans-2212"/>
       <use xlink:href="#DejaVuSans-30" x="83.789062"/>
       <use xlink:href="#DejaVuSans-2e" x="147.412109"/>
       <use xlink:href="#DejaVuSans-36" x="179.199219"/>
      </g>
     </g>
    </g>
    <g id="text_16">
     <!-- $w_{IDM}$ -->
     <g transform="translate(298.783972 377.527238) scale(0.1 -0.1)">
      <use xlink:href="#DejaVuSans-Oblique-77" transform="translate(0 0.3125)"/>
      <use xlink:href="#DejaVuSans-Oblique-49" transform="translate(81.787109 -16.09375) scale(0.7)"/>
      <use xlink:href="#DejaVuSans-Oblique-44" transform="translate(102.431641 -16.09375) scale(0.7)"/>
      <use xlink:href="#DejaVuSans-Oblique-4d" transform="translate(156.333008 -16.09375) scale(0.7)"/>
     </g>
    </g>
   </g>
   <g id="matplotlib.axis_8"/>
   <g id="line2d_18">
    <path d="M 234.367943 329.76 
L 249.451149 329.676456 
L 249.451149 329.592912 
L 253.221951 329.509368 
L 253.221951 329.425824 
L 254.730271 329.34228 
L 254.730271 329.258736 
L 256.238592 329.175192 
L 256.238592 329.008104 
L 257.746912 328.92456 
L 257.746912 328.841016 
L 259.255233 328.757472 
L 259.255233 328.673928 
L 260.763553 328.590384 
L 260.763553 328.50684 
L 261.517714 328.50684 
L 261.517714 328.339752 
L 263.026034 328.256208 
L 263.026034 328.08912 
L 263.780194 328.08912 
L 263.780194 327.922032 
L 264.534355 327.922032 
L 264.534355 327.754944 
L 265.288515 327.754944 
L 265.288515 327.504311 
L 266.042675 327.504311 
L 266.042675 327.253679 
L 266.796836 327.253679 
L 266.796836 327.003047 
L 267.550996 327.003047 
L 267.550996 326.752415 
L 268.305156 326.752415 
L 268.305156 326.501783 
L 269.059316 326.501783 
L 269.059316 326.251151 
L 269.813477 326.251151 
L 269.813477 325.916975 
L 270.567637 325.916975 
L 270.567637 325.666343 
L 271.321797 325.666343 
L 271.321797 325.415711 
L 272.075958 325.415711 
L 272.075958 325.165079 
L 272.830118 325.165079 
L 272.830118 324.830903 
L 273.584278 324.830903 
L 273.584278 324.496727 
L 274.338438 324.496727 
L 274.338438 324.162551 
L 275.092599 324.162551 
L 275.092599 323.828375 
L 275.846759 323.828375 
L 275.846759 323.410655 
L 276.600919 323.410655 
L 276.600919 322.90939 
L 277.35508 322.90939 
L 277.35508 322.49167 
L 278.10924 322.49167 
L 278.10924 321.990406 
L 278.8634 321.990406 
L 278.8634 321.405598 
L 279.61756 321.405598 
L 279.61756 320.82079 
L 280.371721 320.82079 
L 280.371721 320.152438 
L 281.125881 320.152438 
L 281.125881 319.484086 
L 281.880041 319.484086 
L 281.880041 318.732189 
L 282.634202 318.732189 
L 282.634202 317.813205 
L 283.388362 317.813205 
L 283.388362 316.977765 
L 284.142522 316.977765 
L 284.142522 315.975237 
L 284.896682 315.975237 
L 284.896682 314.889165 
L 285.650843 314.889165 
L 285.650843 313.803092 
L 286.405003 313.803092 
L 286.405003 312.633476 
L 287.159163 312.633476 
L 287.159163 311.296772 
L 287.913324 311.296772 
L 287.913324 309.876523 
L 288.667484 309.876523 
L 288.667484 308.372731 
L 289.421644 308.372731 
L 289.421644 306.785395 
L 290.175804 306.785395 
L 290.175804 305.114514 
L 290.929965 305.114514 
L 290.929965 303.276546 
L 291.684125 303.276546 
L 291.684125 301.438577 
L 292.438285 301.438577 
L 292.438285 299.600609 
L 293.192445 299.600609 
L 293.192445 297.679097 
L 293.946606 297.679097 
L 293.946606 295.67404 
L 294.700766 295.67404 
L 294.700766 293.668984 
L 295.454926 293.668984 
L 295.454926 291.580383 
L 296.209087 291.580383 
L 296.209087 289.491783 
L 296.963247 289.491783 
L 296.963247 287.319638 
L 297.717407 287.319638 
L 297.717407 285.147494 
L 298.471567 285.147494 
L 298.471567 282.891805 
L 299.225728 282.891805 
L 299.225728 280.552573 
L 299.979888 280.552573 
L 299.979888 278.129796 
L 300.734048 278.129796 
L 300.734048 275.707019 
L 301.488209 275.707019 
L 301.488209 273.117155 
L 302.242369 273.117155 
L 302.242369 270.52729 
L 302.996529 270.52729 
L 302.996529 267.853882 
L 303.750689 267.853882 
L 303.750689 265.013385 
L 304.50485 265.013385 
L 304.50485 262.172888 
L 305.25901 262.172888 
L 305.25901 259.248848 
L 306.01317 259.248848 
L 306.01317 256.241263 
L 306.767331 256.241263 
L 306.767331 253.233678 
L 307.521491 253.233678 
L 307.521491 250.059005 
L 308.275651 250.059005 
L 308.275651 246.967877 
L 309.029811 246.967877 
L 309.029811 243.876748 
L 309.783972 243.876748 
L 309.783972 240.785619 
L 310.538132 240.785619 
L 310.538132 237.861579 
L 311.292292 237.861579 
L 311.292292 235.021082 
L 312.046453 235.021082 
L 312.046453 232.431217 
L 312.800613 232.431217 
L 312.800613 230.008441 
L 313.554773 230.008441 
L 313.554773 227.836296 
L 314.308933 227.836296 
L 314.308933 225.998328 
L 315.063094 225.998328 
L 315.063094 224.327447 
L 315.817254 224.327447 
L 315.817254 222.823655 
L 316.571414 222.823655 
L 316.571414 221.486951 
L 317.325575 221.486951 
L 317.325575 220.23379 
L 318.079735 220.23379 
L 318.079735 218.98063 
L 318.833895 218.98063 
L 318.833895 217.72747 
L 319.588055 217.72747 
L 319.588055 216.390766 
L 320.342216 216.390766 
L 320.342216 215.054061 
L 321.096376 215.054061 
L 321.096376 213.717357 
L 321.850536 213.717357 
L 321.850536 212.464197 
L 322.604697 212.464197 
L 322.604697 211.378124 
L 323.358857 211.378124 
L 323.358857 210.45914 
L 324.113017 210.45914 
L 324.113017 209.6237 
L 324.867177 209.6237 
L 324.867177 209.122436 
L 325.621338 209.122436 
L 325.621338 208.704716 
L 326.375498 208.704716 
L 326.375498 208.37054 
L 327.129658 208.37054 
L 327.129658 208.203452 
L 328.637979 208.119908 
L 328.637979 208.036364 
L 330.90046 208.119908 
L 330.90046 208.37054 
L 331.65462 208.37054 
L 331.65462 208.704716 
L 332.40878 208.704716 
L 332.40878 209.373068 
L 333.16294 209.373068 
L 333.16294 210.208508 
L 333.917101 210.208508 
L 333.917101 211.378124 
L 334.671261 211.378124 
L 334.671261 212.881917 
L 335.425421 212.881917 
L 335.425421 214.719885 
L 336.179582 214.719885 
L 336.179582 216.89203 
L 336.933742 216.89203 
L 336.933742 219.39835 
L 337.687902 219.39835 
L 337.687902 222.071759 
L 338.442062 222.071759 
L 338.442062 224.9958 
L 339.196223 224.9958 
L 339.196223 228.003384 
L 339.950383 228.003384 
L 339.950383 231.094513 
L 340.704543 231.094513 
L 340.704543 234.269186 
L 341.458704 234.269186 
L 341.458704 237.443858 
L 342.212864 237.443858 
L 342.212864 240.618531 
L 342.967024 240.618531 
L 342.967024 243.876748 
L 343.721184 243.876748 
L 343.721184 247.134965 
L 344.475345 247.134965 
L 344.475345 250.393182 
L 345.229505 250.393182 
L 345.229505 253.734942 
L 345.983665 253.734942 
L 345.983665 257.076703 
L 346.737826 257.076703 
L 346.737826 260.502008 
L 347.491986 260.502008 
L 347.491986 263.843769 
L 348.246146 263.843769 
L 348.246146 267.185529 
L 349.000306 267.185529 
L 349.000306 270.52729 
L 349.754467 270.52729 
L 349.754467 273.785507 
L 350.508627 273.785507 
L 350.508627 276.96018 
L 351.262787 276.96018 
L 351.262787 280.134852 
L 352.016948 280.134852 
L 352.016948 283.142437 
L 352.771108 283.142437 
L 352.771108 286.066478 
L 353.525268 286.066478 
L 353.525268 288.82343 
L 354.279428 288.82343 
L 354.279428 291.496839 
L 355.033589 291.496839 
L 355.033589 294.086704 
L 355.787749 294.086704 
L 355.787749 296.50948 
L 356.541909 296.50948 
L 356.541909 298.932257 
L 357.29607 298.932257 
L 357.29607 301.104401 
L 358.05023 301.104401 
L 358.05023 303.276546 
L 358.80439 303.276546 
L 358.80439 305.365146 
L 359.55855 305.365146 
L 359.55855 307.370203 
L 360.312711 307.370203 
L 360.312711 309.208171 
L 361.066871 309.208171 
L 361.066871 311.04614 
L 361.821031 311.04614 
L 361.821031 312.71702 
L 362.575192 312.71702 
L 362.575192 314.220812 
L 363.329352 314.220812 
L 363.329352 315.641061 
L 364.083512 315.641061 
L 364.083512 316.894221 
L 364.837672 316.894221 
L 364.837672 318.063837 
L 365.591833 318.063837 
L 365.591833 319.14991 
L 366.345993 319.14991 
L 366.345993 320.068894 
L 367.100153 320.068894 
L 367.100153 320.987878 
L 367.854313 320.987878 
L 367.854313 321.823318 
L 368.608474 321.823318 
L 368.608474 322.658758 
L 369.362634 322.658758 
L 369.362634 323.410655 
L 370.116794 323.410655 
L 370.116794 324.162551 
L 370.870955 324.162551 
L 370.870955 324.830903 
L 371.625115 324.830903 
L 371.625115 325.499255 
L 372.379275 325.499255 
L 372.379275 326.084063 
L 373.133435 326.084063 
L 373.133435 326.585327 
L 373.887596 326.585327 
L 373.887596 327.003047 
L 374.641756 327.003047 
L 374.641756 327.420767 
L 375.395916 327.420767 
L 375.395916 327.754944 
L 376.150077 327.754944 
L 376.150077 328.08912 
L 376.904237 328.08912 
L 376.904237 328.339752 
L 377.658397 328.339752 
L 377.658397 328.50684 
L 378.412557 328.50684 
L 378.412557 328.757472 
L 379.166718 328.757472 
L 379.166718 328.92456 
L 380.675038 329.008104 
L 380.675038 329.175192 
L 382.183359 329.258736 
L 382.183359 329.34228 
L 384.44584 329.425824 
L 384.44584 329.509368 
L 385.2 329.509368 
L 385.2 329.509368 
" clip-path="url(#p304f092539)" style="fill: none; stroke: #00bfbf; stroke-width: 1.5; stroke-linecap: square"/>
   </g>
   <g id="patch_13">
    <path d="M 234.367943 329.76 
L 234.367943 195.864 
" style="fill: none; stroke: #000000; stroke-width: 0.8; stroke-linejoin: miter; stroke-linecap: square"/>
   </g>
   <g id="patch_14">
    <path d="M 385.2 329.76 
L 385.2 195.864 
" style="fill: none; stroke: #000000; stroke-width: 0.8; stroke-linejoin: miter; stroke-linecap: square"/>
   </g>
   <g id="patch_15">
    <path d="M 234.367943 329.76 
L 385.2 329.76 
" style="fill: none; stroke: #000000; stroke-width: 0.8; stroke-linejoin: miter; stroke-linecap: square"/>
   </g>
   <g id="patch_16">
    <path d="M 234.367943 195.864 
L 385.2 195.864 
" style="fill: none; stroke: #000000; stroke-width: 0.8; stroke-linejoin: miter; stroke-linecap: square"/>
   </g>
   <g id="text_17">
    <!-- $w_{IDM}$ = ${-0.7871}_{-0.1002}^{+0.0927}$ -->
    <g transform="translate(232.713972 189.864) scale(0.14 -0.14)">
     <defs>
      <path id="DejaVuSans-39" d="M 703 97 
L 703 672 
Q 941 559 1184 500 
Q 1428 441 1663 441 
Q 2288 441 2617 861 
Q 2947 1281 2994 2138 
Q 2813 1869 2534 1725 
Q 2256 1581 1919 1581 
Q 1219 1581 811 2004 
Q 403 2428 403 3163 
Q 403 3881 828 4315 
Q 1253 4750 1959 4750 
Q 2769 4750 3195 4129 
Q 3622 3509 3622 2328 
Q 3622 1225 3098 567 
Q 2575 -91 1691 -91 
Q 1453 -91 1209 -44 
Q 966 3 703 97 
z
M 1959 2075 
Q 2384 2075 2632 2365 
Q 2881 2656 2881 3163 
Q 2881 3666 2632 3958 
Q 2384 4250 1959 4250 
Q 1534 4250 1286 3958 
Q 1038 3666 1038 3163 
Q 1038 2656 1286 2365 
Q 1534 2075 1959 2075 
z
" transform="scale(0.015625)"/>
     </defs>
     <use xlink:href="#DejaVuSans-Oblique-77" transform="translate(0 0.765625)"/>
     <use xlink:href="#DejaVuSans-Oblique-49" transform="translate(81.787109 -15.640625) scale(0.7)"/>
     <use xlink:href="#DejaVuSans-Oblique-44" transform="translate(102.431641 -15.640625) scale(0.7)"/>
     <use xlink:href="#DejaVuSans-Oblique-4d" transform="translate(156.333008 -15.640625) scale(0.7)"/>
     <use xlink:href="#DejaVuSans-20" transform="translate(219.462891 0.765625)"/>
     <use xlink:href="#DejaVuSans-3d" transform="translate(251.25 0.765625)"/>
     <use xlink:href="#DejaVuSans-20" transform="translate(335.039062 0.765625)"/>
     <use xlink:href="#DejaVuSans-2212" transform="translate(366.826172 0.765625)"/>
     <use xlink:href="#DejaVuSans-30" transform="translate(450.615234 0.765625)"/>
     <use xlink:href="#DejaVuSans-2e" transform="translate(514.238281 0.765625)"/>
     <use xlink:href="#DejaVuSans-37" transform="translate(538.275391 0.765625)"/>
     <use xlink:href="#DejaVuSans-38" transform="translate(601.898438 0.765625)"/>
     <use xlink:href="#DejaVuSans-37" transform="translate(665.521484 0.765625)"/>
     <use xlink:href="#DejaVuSans-31" transform="translate(729.144531 0.765625)"/>
     <use xlink:href="#DejaVuSans-2b" transform="translate(793.724609 39.046875) scale(0.7)"/>
     <use xlink:href="#DejaVuSans-30" transform="translate(852.376953 39.046875) scale(0.7)"/>
     <use xlink:href="#DejaVuSans-2e" transform="translate(896.913086 39.046875) scale(0.7)"/>
     <use xlink:href="#DejaVuSans-30" transform="translate(919.164062 39.046875) scale(0.7)"/>
     <use xlink:href="#DejaVuSans-39" transform="translate(963.700195 39.046875) scale(0.7)"/>
     <use xlink:href="#DejaVuSans-32" transform="translate(1007.011328 39.046875) scale(0.7)"/>
     <use xlink:href="#DejaVuSans-37" transform="translate(1051.547461 39.046875) scale(0.7)"/>
     <use xlink:href="#DejaVuSans-2212" transform="translate(793.724609 -26.578125) scale(0.7)"/>
     <use xlink:href="#DejaVuSans-30" transform="translate(852.376953 -26.578125) scale(0.7)"/>
     <use xlink:href="#DejaVuSans-2e" transform="translate(896.913086 -26.578125) scale(0.7)"/>
     <use xlink:href="#DejaVuSans-31" transform="translate(919.164062 -26.578125) scale(0.7)"/>
     <use xlink:href="#DejaVuSans-30" transform="translate(963.700195 -26.578125) scale(0.7)"/>
     <use xlink:href="#DejaVuSans-30" transform="translate(1008.236328 -26.578125) scale(0.7)"/>
     <use xlink:href="#DejaVuSans-32" transform="translate(1052.772461 -26.578125) scale(0.7)"/>
    </g>
   </g>
  </g>
 </g>
 <defs>
  <clipPath id="p1a27e22f72">
   <rect x="64.368" y="30.984" width="150.832057" height="133.896"/>
  </clipPath>
  <clipPath id="p40cafb81d5">
   <rect x="64.368" y="195.864" width="150.832057" height="133.896"/>
  </clipPath>
  <clipPath id="p304f092539">
   <rect x="234.367943" y="195.864" width="150.832057" height="133.896"/>
  </clipPath>
 </defs>
</svg>
