<?xml version="1.0" encoding="utf-8" standalone="no"?>
<!DOCTYPE svg PUBLIC "-//W3C//DTD SVG 1.1//EN"
  "http://www.w3.org/Graphics/SVG/1.1/DTD/svg11.dtd">
<svg xmlns:xlink="http://www.w3.org/1999/xlink" width="396pt" height="396pt" viewBox="0 0 396 396" xmlns="http://www.w3.org/2000/svg" version="1.1">
 <metadata>
  <rdf:RDF xmlns:dc="http://purl.org/dc/elements/1.1/" xmlns:cc="http://creativecommons.org/ns#" xmlns:rdf="http://www.w3.org/1999/02/22-rdf-syntax-ns#">
   <cc:Work>
    <dc:type rdf:resource="http://purl.org/dc/dcmitype/StillImage"/>
    <dc:date>2024-11-19T12:56:14.724798</dc:date>
    <dc:format>image/svg+xml</dc:format>
    <dc:creator>
     <cc:Agent>
      <dc:title>Matplotlib v3.9.2, https://matplotlib.org/</dc:title>
     </cc:Agent>
    </dc:creator>
   </cc:Work>
  </rdf:RDF>
 </metadata>
 <defs>
  <style type="text/css">*{stroke-linejoin: round; stroke-linecap: butt}</style>
 </defs>
 <g id="figure_1">
  <g id="patch_1">
   <path d="M 0 396 
L 396 396 
L 396 0 
L 0 0 
z
" style="fill: #ffffff"/>
  </g>
  <g id="axes_1">
   <g id="patch_2">
    <path d="M 69.552 163.224 
L 221.976 163.224 
L 221.976 30.984 
L 69.552 30.984 
z
" style="fill: #ffffff"/>
   </g>
   <g id="matplotlib.axis_1">
    <g id="xtick_1">
     <g id="line2d_1">
      <defs>
       <path id="md196c4893f" d="M 0 0 
L 0 3.5 
" style="stroke: #000000; stroke-width: 0.8"/>
      </defs>
      <g>
       <use xlink:href="#md196c4893f" x="95.802801" y="163.224" style="stroke: #000000; stroke-width: 0.8"/>
      </g>
     </g>
    </g>
    <g id="xtick_2">
     <g id="line2d_2">
      <g>
       <use xlink:href="#md196c4893f" x="138.93554" y="163.224" style="stroke: #000000; stroke-width: 0.8"/>
      </g>
     </g>
    </g>
    <g id="xtick_3">
     <g id="line2d_3">
      <g>
       <use xlink:href="#md196c4893f" x="182.068278" y="163.224" style="stroke: #000000; stroke-width: 0.8"/>
      </g>
     </g>
    </g>
   </g>
   <g id="matplotlib.axis_2"/>
   <g id="line2d_4">
    <path d="M 69.552 163.06878 
L 74.88684 162.991169 
L 74.88684 162.913559 
L 84.7944 162.835949 
L 84.7944 162.758339 
L 87.08076 162.680729 
L 87.08076 162.525508 
L 87.84288 162.525508 
L 87.84288 162.370288 
L 89.36712 162.292678 
L 89.36712 162.059847 
L 90.12924 162.059847 
L 90.12924 161.904627 
L 90.89136 161.904627 
L 90.89136 161.749406 
L 91.65348 161.749406 
L 91.65348 161.516576 
L 92.4156 161.516576 
L 92.4156 161.361355 
L 93.17772 161.361355 
L 93.17772 161.206135 
L 93.93984 161.206135 
L 93.93984 161.050915 
L 94.70196 161.050915 
L 94.70196 160.895694 
L 95.46408 160.895694 
L 95.46408 160.740474 
L 96.2262 160.740474 
L 96.2262 160.585254 
L 96.98832 160.585254 
L 96.98832 160.430033 
L 97.75044 160.430033 
L 97.75044 160.274813 
L 98.51256 160.274813 
L 98.51256 160.041982 
L 99.27468 160.041982 
L 99.27468 159.731542 
L 100.0368 159.731542 
L 100.0368 159.421101 
L 100.79892 159.421101 
L 100.79892 159.03305 
L 101.56104 159.03305 
L 101.56104 158.567389 
L 102.32316 158.567389 
L 102.32316 157.946507 
L 103.08528 157.946507 
L 103.08528 157.325626 
L 103.8474 157.325626 
L 103.8474 156.549524 
L 104.60952 156.549524 
L 104.60952 155.695812 
L 105.37164 155.695812 
L 105.37164 154.764489 
L 106.13376 154.764489 
L 106.13376 153.677947 
L 106.89588 153.677947 
L 106.89588 152.513794 
L 107.658 152.513794 
L 107.658 151.272031 
L 108.42012 151.272031 
L 108.42012 149.952658 
L 109.18224 149.952658 
L 109.18224 148.555674 
L 109.94436 148.555674 
L 109.94436 147.081081 
L 110.70648 147.081081 
L 110.70648 145.528877 
L 111.4686 145.528877 
L 111.4686 143.899063 
L 112.23072 143.899063 
L 112.23072 142.191639 
L 112.99284 142.191639 
L 112.99284 140.406605 
L 113.75496 140.406605 
L 113.75496 138.54396 
L 114.51708 138.54396 
L 114.51708 136.526095 
L 115.2792 136.526095 
L 115.2792 134.2754 
L 116.04132 134.2754 
L 116.04132 131.869484 
L 116.80344 131.869484 
L 116.80344 129.308348 
L 117.56556 129.308348 
L 117.56556 126.436771 
L 118.32768 126.436771 
L 118.32768 123.409973 
L 119.0898 123.409973 
L 119.0898 120.305566 
L 119.85192 120.305566 
L 119.85192 116.968328 
L 120.61404 116.968328 
L 120.61404 113.553479 
L 121.37616 113.553479 
L 121.37616 110.061021 
L 122.13828 110.061021 
L 122.13828 106.413342 
L 122.9004 106.413342 
L 122.9004 102.765663 
L 123.66252 102.765663 
L 123.66252 99.117984 
L 124.42464 99.117984 
L 124.42464 95.392695 
L 125.18676 95.392695 
L 125.18676 91.667406 
L 125.94888 91.667406 
L 125.94888 87.942117 
L 126.711 87.942117 
L 126.711 84.294438 
L 127.47312 84.294438 
L 127.47312 80.64676 
L 128.23524 80.64676 
L 128.23524 76.999081 
L 128.99736 76.999081 
L 128.99736 73.429012 
L 129.75948 73.429012 
L 129.75948 69.858943 
L 130.5216 69.858943 
L 130.5216 66.366485 
L 131.28372 66.366485 
L 131.28372 62.874026 
L 132.04584 62.874026 
L 132.04584 59.459178 
L 132.80796 59.459178 
L 132.80796 56.12194 
L 133.57008 56.12194 
L 133.57008 53.017532 
L 134.3322 53.017532 
L 134.3322 50.223566 
L 135.09432 50.223566 
L 135.09432 47.81765 
L 135.85644 47.81765 
L 135.85644 45.955005 
L 136.61856 45.955005 
L 136.61856 44.480412 
L 137.38068 44.480412 
L 137.38068 43.54909 
L 138.1428 43.54909 
L 138.1428 43.083428 
L 140.42916 43.161039 
L 140.42916 43.6267 
L 141.19128 43.6267 
L 141.19128 44.247581 
L 141.9534 44.247581 
L 141.9534 44.946073 
L 142.71552 44.946073 
L 142.71552 45.799785 
L 143.47764 45.799785 
L 143.47764 46.653497 
L 144.23976 46.653497 
L 144.23976 47.584819 
L 145.00188 47.584819 
L 145.00188 48.593752 
L 145.764 48.593752 
L 145.764 49.602684 
L 146.52612 49.602684 
L 146.52612 50.689227 
L 147.28824 50.689227 
L 147.28824 51.85338 
L 148.05036 51.85338 
L 148.05036 53.095143 
L 148.81248 53.095143 
L 148.81248 54.492126 
L 149.5746 54.492126 
L 149.5746 56.12194 
L 150.33672 56.12194 
L 150.33672 57.906974 
L 151.09884 57.906974 
L 151.09884 59.924839 
L 151.86096 59.924839 
L 151.86096 62.097925 
L 152.62308 62.097925 
L 152.62308 64.34862 
L 153.3852 64.34862 
L 153.3852 66.754536 
L 154.14732 66.754536 
L 154.14732 69.160452 
L 154.90944 69.160452 
L 154.90944 71.643978 
L 155.67156 71.643978 
L 155.67156 74.205114 
L 156.43368 74.205114 
L 156.43368 76.76625 
L 157.1958 76.76625 
L 157.1958 79.404997 
L 157.95792 79.404997 
L 157.95792 82.198963 
L 158.72004 82.198963 
L 158.72004 85.07054 
L 159.48216 85.07054 
L 159.48216 88.097338 
L 160.24428 88.097338 
L 160.24428 91.201745 
L 161.0064 91.201745 
L 161.0064 94.306153 
L 161.76852 94.306153 
L 161.76852 97.33295 
L 162.53064 97.33295 
L 162.53064 100.359747 
L 163.29276 100.359747 
L 163.29276 103.308935 
L 164.05488 103.308935 
L 164.05488 106.102901 
L 164.817 106.102901 
L 164.817 108.741648 
L 165.57912 108.741648 
L 165.57912 111.147564 
L 166.34124 111.147564 
L 166.34124 113.475869 
L 167.10336 113.475869 
L 167.10336 115.648955 
L 167.86548 115.648955 
L 167.86548 117.666819 
L 168.6276 117.666819 
L 168.6276 119.607074 
L 169.38972 119.607074 
L 169.38972 121.547329 
L 170.15184 121.547329 
L 170.15184 123.332363 
L 170.91396 123.332363 
L 170.91396 125.117397 
L 171.67608 125.117397 
L 171.67608 126.902432 
L 172.4382 126.902432 
L 172.4382 128.609856 
L 173.20032 128.609856 
L 173.20032 130.31728 
L 173.96244 130.31728 
L 173.96244 131.947094 
L 174.72456 131.947094 
L 174.72456 133.654518 
L 175.48668 133.654518 
L 175.48668 135.284332 
L 176.2488 135.284332 
L 176.2488 136.836536 
L 177.01092 136.836536 
L 177.01092 138.38874 
L 177.77304 138.38874 
L 177.77304 139.863333 
L 178.53516 139.863333 
L 178.53516 141.260317 
L 179.29728 141.260317 
L 179.29728 142.57969 
L 180.0594 142.57969 
L 180.0594 143.899063 
L 180.82152 143.899063 
L 180.82152 145.140826 
L 181.58364 145.140826 
L 181.58364 146.304979 
L 182.34576 146.304979 
L 182.34576 147.391522 
L 183.10788 147.391522 
L 183.10788 148.400454 
L 183.87 148.400454 
L 183.87 149.331776 
L 184.63212 149.331776 
L 184.63212 150.185488 
L 185.39424 150.185488 
L 185.39424 150.96159 
L 186.15636 150.96159 
L 186.15636 151.815302 
L 186.91848 151.815302 
L 186.91848 152.513794 
L 187.6806 152.513794 
L 187.6806 153.289896 
L 188.44272 153.289896 
L 188.44272 153.988388 
L 189.20484 153.988388 
L 189.20484 154.686879 
L 189.96696 154.686879 
L 189.96696 155.385371 
L 190.72908 155.385371 
L 190.72908 156.083863 
L 191.4912 156.083863 
L 191.4912 156.704744 
L 192.25332 156.704744 
L 192.25332 157.248015 
L 193.01544 157.248015 
L 193.01544 157.868897 
L 193.77756 157.868897 
L 193.77756 158.334558 
L 194.53968 158.334558 
L 194.53968 158.800219 
L 195.3018 158.800219 
L 195.3018 159.26588 
L 196.06392 159.26588 
L 196.06392 159.653931 
L 196.82604 159.653931 
L 196.82604 160.041982 
L 197.58816 160.041982 
L 197.58816 160.352423 
L 198.35028 160.352423 
L 198.35028 160.662864 
L 199.1124 160.662864 
L 199.1124 160.895694 
L 199.87452 160.895694 
L 199.87452 161.128525 
L 200.63664 161.128525 
L 200.63664 161.361355 
L 201.39876 161.361355 
L 201.39876 161.594186 
L 202.16088 161.594186 
L 202.16088 161.749406 
L 202.923 161.749406 
L 202.923 161.982237 
L 203.68512 161.982237 
L 203.68512 162.215068 
L 204.44724 162.215068 
L 204.44724 162.370288 
L 205.20936 162.370288 
L 205.20936 162.525508 
L 206.7336 162.603118 
L 206.7336 162.758339 
L 208.25784 162.835949 
L 208.25784 162.913559 
L 214.3548 162.991169 
L 214.3548 163.06878 
L 219.68964 163.14639 
L 219.68964 163.224 
L 221.976 163.224 
L 221.976 163.224 
" clip-path="url(#pa903d62a7e)" style="fill: none; stroke: #0000ff; stroke-width: 1.5; stroke-linecap: square"/>
   </g>
   <g id="patch_3">
    <path d="M 69.552 163.224 
L 69.552 30.984 
" style="fill: none; stroke: #000000; stroke-width: 0.8; stroke-linejoin: miter; stroke-linecap: square"/>
   </g>
   <g id="patch_4">
    <path d="M 221.976 163.224 
L 221.976 30.984 
" style="fill: none; stroke: #000000; stroke-width: 0.8; stroke-linejoin: miter; stroke-linecap: square"/>
   </g>
   <g id="patch_5">
    <path d="M 69.552 163.224 
L 221.976 163.224 
" style="fill: none; stroke: #000000; stroke-width: 0.8; stroke-linejoin: miter; stroke-linecap: square"/>
   </g>
   <g id="patch_6">
    <path d="M 69.552 30.984 
L 221.976 30.984 
" style="fill: none; stroke: #000000; stroke-width: 0.8; stroke-linejoin: miter; stroke-linecap: square"/>
   </g>
   <g id="text_1">
    <!-- $\Omega_{2,0}$ = ${0.3172}_{-0.0565}^{+0.0654}$ -->
    <g transform="translate(75.064 24.984) scale(0.14 -0.14)">
     <defs>
      <path id="DejaVuSans-3a9" d="M 4647 556 
L 4647 0 
L 2772 0 
L 2772 556 
Q 3325 859 3634 1378 
Q 3944 1897 3944 2528 
Q 3944 3278 3531 3731 
Q 3119 4184 2444 4184 
Q 1769 4184 1355 3729 
Q 941 3275 941 2528 
Q 941 1897 1250 1378 
Q 1563 859 2119 556 
L 2119 0 
L 244 0 
L 244 556 
L 1241 556 
Q 747 991 519 1456 
Q 294 1922 294 2497 
Q 294 3491 894 4106 
Q 1491 4722 2444 4722 
Q 3391 4722 3994 4106 
Q 4594 3494 4594 2528 
Q 4594 1922 4372 1459 
Q 4150 997 3647 556 
L 4647 556 
z
" transform="scale(0.015625)"/>
      <path id="DejaVuSans-32" d="M 1228 531 
L 3431 531 
L 3431 0 
L 469 0 
L 469 531 
Q 828 903 1448 1529 
Q 2069 2156 2228 2338 
Q 2531 2678 2651 2914 
Q 2772 3150 2772 3378 
Q 2772 3750 2511 3984 
Q 2250 4219 1831 4219 
Q 1534 4219 1204 4116 
Q 875 4013 500 3803 
L 500 4441 
Q 881 4594 1212 4672 
Q 1544 4750 1819 4750 
Q 2544 4750 2975 4387 
Q 3406 4025 3406 3419 
Q 3406 3131 3298 2873 
Q 3191 2616 2906 2266 
Q 2828 2175 2409 1742 
Q 1991 1309 1228 531 
z
" transform="scale(0.015625)"/>
      <path id="DejaVuSans-2c" d="M 750 794 
L 1409 794 
L 1409 256 
L 897 -744 
L 494 -744 
L 750 256 
L 750 794 
z
" transform="scale(0.015625)"/>
      <path id="DejaVuSans-30" d="M 2034 4250 
Q 1547 4250 1301 3770 
Q 1056 3291 1056 2328 
Q 1056 1369 1301 889 
Q 1547 409 2034 409 
Q 2525 409 2770 889 
Q 3016 1369 3016 2328 
Q 3016 3291 2770 3770 
Q 2525 4250 2034 4250 
z
M 2034 4750 
Q 2819 4750 3233 4129 
Q 3647 3509 3647 2328 
Q 3647 1150 3233 529 
Q 2819 -91 2034 -91 
Q 1250 -91 836 529 
Q 422 1150 422 2328 
Q 422 3509 836 4129 
Q 1250 4750 2034 4750 
z
" transform="scale(0.015625)"/>
      <path id="DejaVuSans-20" transform="scale(0.015625)"/>
      <path id="DejaVuSans-3d" d="M 678 2906 
L 4684 2906 
L 4684 2381 
L 678 2381 
L 678 2906 
z
M 678 1631 
L 4684 1631 
L 4684 1100 
L 678 1100 
L 678 1631 
z
" transform="scale(0.015625)"/>
      <path id="DejaVuSans-2e" d="M 684 794 
L 1344 794 
L 1344 0 
L 684 0 
L 684 794 
z
" transform="scale(0.015625)"/>
      <path id="DejaVuSans-33" d="M 2597 2516 
Q 3050 2419 3304 2112 
Q 3559 1806 3559 1356 
Q 3559 666 3084 287 
Q 2609 -91 1734 -91 
Q 1441 -91 1130 -33 
Q 819 25 488 141 
L 488 750 
Q 750 597 1062 519 
Q 1375 441 1716 441 
Q 2309 441 2620 675 
Q 2931 909 2931 1356 
Q 2931 1769 2642 2001 
Q 2353 2234 1838 2234 
L 1294 2234 
L 1294 2753 
L 1863 2753 
Q 2328 2753 2575 2939 
Q 2822 3125 2822 3475 
Q 2822 3834 2567 4026 
Q 2313 4219 1838 4219 
Q 1578 4219 1281 4162 
Q 984 4106 628 3988 
L 628 4550 
Q 988 4650 1302 4700 
Q 1616 4750 1894 4750 
Q 2613 4750 3031 4423 
Q 3450 4097 3450 3541 
Q 3450 3153 3228 2886 
Q 3006 2619 2597 2516 
z
" transform="scale(0.015625)"/>
      <path id="DejaVuSans-31" d="M 794 531 
L 1825 531 
L 1825 4091 
L 703 3866 
L 703 4441 
L 1819 4666 
L 2450 4666 
L 2450 531 
L 3481 531 
L 3481 0 
L 794 0 
L 794 531 
z
" transform="scale(0.015625)"/>
      <path id="DejaVuSans-37" d="M 525 4666 
L 3525 4666 
L 3525 4397 
L 1831 0 
L 1172 0 
L 2766 4134 
L 525 4134 
L 525 4666 
z
" transform="scale(0.015625)"/>
      <path id="DejaVuSans-2b" d="M 2944 4013 
L 2944 2272 
L 4684 2272 
L 4684 1741 
L 2944 1741 
L 2944 0 
L 2419 0 
L 2419 1741 
L 678 1741 
L 678 2272 
L 2419 2272 
L 2419 4013 
L 2944 4013 
z
" transform="scale(0.015625)"/>
      <path id="DejaVuSans-36" d="M 2113 2584 
Q 1688 2584 1439 2293 
Q 1191 2003 1191 1497 
Q 1191 994 1439 701 
Q 1688 409 2113 409 
Q 2538 409 2786 701 
Q 3034 994 3034 1497 
Q 3034 2003 2786 2293 
Q 2538 2584 2113 2584 
z
M 3366 4563 
L 3366 3988 
Q 3128 4100 2886 4159 
Q 2644 4219 2406 4219 
Q 1781 4219 1451 3797 
Q 1122 3375 1075 2522 
Q 1259 2794 1537 2939 
Q 1816 3084 2150 3084 
Q 2853 3084 3261 2657 
Q 3669 2231 3669 1497 
Q 3669 778 3244 343 
Q 2819 -91 2113 -91 
Q 1303 -91 875 529 
Q 447 1150 447 2328 
Q 447 3434 972 4092 
Q 1497 4750 2381 4750 
Q 2619 4750 2861 4703 
Q 3103 4656 3366 4563 
z
" transform="scale(0.015625)"/>
      <path id="DejaVuSans-35" d="M 691 4666 
L 3169 4666 
L 3169 4134 
L 1269 4134 
L 1269 2991 
Q 1406 3038 1543 3061 
Q 1681 3084 1819 3084 
Q 2600 3084 3056 2656 
Q 3513 2228 3513 1497 
Q 3513 744 3044 326 
Q 2575 -91 1722 -91 
Q 1428 -91 1123 -41 
Q 819 9 494 109 
L 494 744 
Q 775 591 1075 516 
Q 1375 441 1709 441 
Q 2250 441 2565 725 
Q 2881 1009 2881 1497 
Q 2881 1984 2565 2268 
Q 2250 2553 1709 2553 
Q 1456 2553 1204 2497 
Q 953 2441 691 2322 
L 691 4666 
z
" transform="scale(0.015625)"/>
      <path id="DejaVuSans-34" d="M 2419 4116 
L 825 1625 
L 2419 1625 
L 2419 4116 
z
M 2253 4666 
L 3047 4666 
L 3047 1625 
L 3713 1625 
L 3713 1100 
L 3047 1100 
L 3047 0 
L 2419 0 
L 2419 1100 
L 313 1100 
L 313 1709 
L 2253 4666 
z
" transform="scale(0.015625)"/>
      <path id="DejaVuSans-2212" d="M 678 2272 
L 4684 2272 
L 4684 1741 
L 678 1741 
L 678 2272 
z
" transform="scale(0.015625)"/>
     </defs>
     <use xlink:href="#DejaVuSans-3a9" transform="translate(0 0.765625)"/>
     <use xlink:href="#DejaVuSans-32" transform="translate(77.373047 -15.640625) scale(0.7)"/>
     <use xlink:href="#DejaVuSans-2c" transform="translate(121.90918 -15.640625) scale(0.7)"/>
     <use xlink:href="#DejaVuSans-30" transform="translate(157.797852 -15.640625) scale(0.7)"/>
     <use xlink:href="#DejaVuSans-20" transform="translate(205.068359 0.765625)"/>
     <use xlink:href="#DejaVuSans-3d" transform="translate(236.855469 0.765625)"/>
     <use xlink:href="#DejaVuSans-20" transform="translate(320.644531 0.765625)"/>
     <use xlink:href="#DejaVuSans-30" transform="translate(352.431641 0.765625)"/>
     <use xlink:href="#DejaVuSans-2e" transform="translate(416.054688 0.765625)"/>
     <use xlink:href="#DejaVuSans-33" transform="translate(447.841797 0.765625)"/>
     <use xlink:href="#DejaVuSans-31" transform="translate(511.464844 0.765625)"/>
     <use xlink:href="#DejaVuSans-37" transform="translate(575.087891 0.765625)"/>
     <use xlink:href="#DejaVuSans-32" transform="translate(638.710938 0.765625)"/>
     <use xlink:href="#DejaVuSans-2b" transform="translate(703.291016 39.046875) scale(0.7)"/>
     <use xlink:href="#DejaVuSans-30" transform="translate(761.943359 39.046875) scale(0.7)"/>
     <use xlink:href="#DejaVuSans-2e" transform="translate(806.479492 39.046875) scale(0.7)"/>
     <use xlink:href="#DejaVuSans-30" transform="translate(828.730469 39.046875) scale(0.7)"/>
     <use xlink:href="#DejaVuSans-36" transform="translate(873.266602 39.046875) scale(0.7)"/>
     <use xlink:href="#DejaVuSans-35" transform="translate(917.802734 39.046875) scale(0.7)"/>
     <use xlink:href="#DejaVuSans-34" transform="translate(962.338867 39.046875) scale(0.7)"/>
     <use xlink:href="#DejaVuSans-2212" transform="translate(703.291016 -26.578125) scale(0.7)"/>
     <use xlink:href="#DejaVuSans-30" transform="translate(761.943359 -26.578125) scale(0.7)"/>
     <use xlink:href="#DejaVuSans-2e" transform="translate(806.479492 -26.578125) scale(0.7)"/>
     <use xlink:href="#DejaVuSans-30" transform="translate(828.730469 -26.578125) scale(0.7)"/>
     <use xlink:href="#DejaVuSans-35" transform="translate(873.266602 -26.578125) scale(0.7)"/>
     <use xlink:href="#DejaVuSans-36" transform="translate(917.802734 -26.578125) scale(0.7)"/>
     <use xlink:href="#DejaVuSans-35" transform="translate(962.338867 -26.578125) scale(0.7)"/>
    </g>
   </g>
  </g>
  <g id="axes_2">
   <g id="matplotlib.axis_3"/>
   <g id="matplotlib.axis_4"/>
  </g>
  <g id="axes_3">
   <g id="patch_7">
    <path d="M 69.552 326.448 
L 221.976 326.448 
L 221.976 194.208 
L 69.552 194.208 
z
" style="fill: #ffffff"/>
   </g>
   <g id="QuadContourSet_1">
    <path d="M 116.80344 328.40507 
L 119.85192 329.182604 
L 122.9004 329.618782 
L 125.94888 329.845894 
L 128.99736 329.958358 
L 132.04584 330.035029 
L 135.09432 330.088754 
L 138.1428 330.094019 
L 141.19128 330.065965 
L 144.23976 330.055609 
L 147.28824 330.05974 
L 150.33672 330.053703 
L 153.3852 330.024013 
L 156.43368 329.960502 
L 159.48216 329.877023 
L 162.53064 329.841492 
L 165.57912 329.777879 
L 168.6276 329.670213 
L 171.67608 329.53431 
L 174.72456 329.229124 
L 177.77304 328.741549 
L 180.82152 328.353999 
L 183.87 328.014069 
L 185.135058 327.7704 
L 185.135058 325.1256 
L 183.87 323.4569 
L 183.121557 322.4808 
L 181.396773 319.836 
L 181.741719 317.1912 
L 183.87 314.887632 
L 184.400558 314.5464 
L 185.489147 311.9016 
L 184.999947 309.2568 
L 184.226516 306.612 
L 183.87 305.154326 
L 183.659906 303.9672 
L 183.339316 301.3224 
L 182.699588 298.6776 
L 181.825289 296.0328 
L 181.023626 293.388 
L 181.079212 290.7432 
L 181.424879 288.0984 
L 182.258481 285.4536 
L 183.075792 282.8088 
L 183.587685 280.164 
L 183.87 279.492711 
L 184.933069 277.5192 
L 186.115289 274.8744 
L 186.717163 272.2296 
L 186.91848 270.482057 
L 187.087834 269.5848 
L 187.48498 266.94 
L 187.748291 264.2952 
L 186.91848 262.830215 
L 186.430927 261.6504 
L 184.617152 259.0056 
L 183.889967 256.3608 
L 184.424755 253.716 
L 184.885013 251.0712 
L 184.469001 248.4264 
L 183.87 246.782004 
L 183.480061 245.7816 
L 182.910118 243.1368 
L 182.977753 240.492 
L 183.87 238.296785 
L 184.095896 237.8472 
L 185.201573 235.2024 
L 184.600626 232.5576 
L 183.87 230.951515 
L 183.452259 229.9128 
L 181.966883 227.268 
L 180.82152 225.348297 
L 180.512393 224.6232 
L 179.051327 221.9784 
L 177.77304 220.708718 
L 176.356389 219.3336 
L 174.72456 218.181107 
L 171.67608 217.119801 
L 170.545297 216.6888 
L 168.6276 215.994173 
L 165.57912 214.54817 
L 164.665836 214.044 
L 162.53064 212.814709 
L 159.846124 211.3992 
L 159.48216 211.203371 
L 156.43368 209.811742 
L 153.3852 208.803359 
L 153.260385 208.7544 
L 150.33672 207.399767 
L 147.28824 206.447696 
L 145.822317 206.1096 
L 144.23976 205.569282 
L 141.19128 204.737784 
L 138.1428 204.047522 
L 135.09432 203.524723 
L 134.734998 203.4648 
L 132.04584 202.667176 
L 128.99736 201.880634 
L 125.94888 201.312617 
L 122.9004 200.971411 
L 121.364367 200.82 
L 119.85192 200.502968 
L 116.80344 199.525325 
L 113.75496 198.713414 
L 110.70648 198.312325 
L 107.658 198.242922 
L 104.60952 198.460112 
L 101.56104 198.4476 
L 100.177499 198.1752 
L 98.51256 197.705677 
L 95.46408 197.15392 
L 92.4156 197.723407 
L 91.649293 198.1752 
L 89.803296 200.82 
L 91.980878 203.4648 
L 92.4156 203.721129 
L 95.46408 205.301683 
L 97.119222 206.1096 
L 98.51256 206.981031 
L 101.56104 208.626097 
L 101.771758 208.7544 
L 104.60952 210.831187 
L 105.450128 211.3992 
L 107.658 213.34909 
L 108.598686 214.044 
L 110.70648 216.461876 
L 110.866638 216.6888 
L 111.901094 219.3336 
L 113.098007 221.9784 
L 113.75496 223.617555 
L 114.086374 224.6232 
L 114.184069 227.268 
L 114.141884 229.9128 
L 114.138518 232.5576 
L 113.805199 235.2024 
L 113.75496 235.635284 
L 113.427868 237.8472 
L 113.562803 240.492 
L 113.195538 243.1368 
L 112.519589 245.7816 
L 112.779624 248.4264 
L 113.71934 251.0712 
L 113.75496 251.93521 
L 113.815958 253.716 
L 113.75496 256.3608 
L 114.359167 259.0056 
L 115.070801 261.6504 
L 114.829089 264.2952 
L 113.90545 266.94 
L 113.75496 267.45796 
L 113.035558 269.5848 
L 112.987886 272.2296 
L 113.585637 274.8744 
L 113.75496 276.935798 
L 113.784958 277.5192 
L 113.75496 277.709085 
L 113.278692 280.164 
L 112.651347 282.8088 
L 112.266855 285.4536 
L 112.295149 288.0984 
L 112.529189 290.7432 
L 112.685632 293.388 
L 112.719461 296.0328 
L 112.240342 298.6776 
L 111.717754 301.3224 
L 112.066625 303.9672 
L 112.682998 306.612 
L 112.237206 309.2568 
L 112.015044 311.9016 
L 112.665225 314.5464 
L 113.75496 316.512488 
L 114.116061 317.1912 
L 114.850919 319.836 
L 115.17368 322.4808 
L 115.042485 325.1256 
L 115.042485 327.7704 
z
" clip-path="url(#p7fa3c9a454)" style="fill: #ffffff"/>
   </g>
   <g id="QuadContourSet_2">
    <path d="M 68.02776 330.4152 
L 71.07624 330.4152 
L 74.12472 330.4152 
L 77.1732 330.4152 
L 80.22168 330.4152 
L 83.27016 330.4152 
L 86.31864 330.4152 
L 89.36712 330.4152 
L 92.4156 330.4152 
L 95.46408 330.4152 
L 98.51256 330.4152 
L 101.56104 330.4152 
L 104.60952 330.4152 
L 107.658 330.4152 
L 110.70648 330.4152 
L 113.75496 330.4152 
L 116.80344 330.4152 
L 119.85192 330.4152 
L 122.9004 330.4152 
L 125.94888 330.4152 
L 128.99736 330.4152 
L 132.04584 330.4152 
L 135.09432 330.4152 
L 138.1428 330.4152 
L 141.19128 330.4152 
L 144.23976 330.4152 
L 147.28824 330.4152 
L 150.33672 330.4152 
L 153.3852 330.4152 
L 156.43368 330.4152 
L 159.48216 330.4152 
L 162.53064 330.4152 
L 165.57912 330.4152 
L 168.6276 330.4152 
L 171.67608 330.4152 
L 174.72456 330.4152 
L 177.77304 330.4152 
L 180.82152 330.4152 
L 183.87 330.4152 
L 186.91848 330.4152 
L 189.96696 330.4152 
L 193.01544 330.4152 
L 196.06392 330.4152 
L 199.1124 330.4152 
L 202.16088 330.4152 
L 205.20936 330.4152 
L 208.25784 330.4152 
L 211.30632 330.4152 
L 214.3548 330.4152 
L 217.40328 330.4152 
L 220.45176 330.4152 
L 223.50024 330.4152 
L 226.54872 330.4152 
L 226.54872 327.7704 
L 226.54872 325.1256 
L 226.54872 322.4808 
L 226.54872 319.836 
L 226.54872 317.1912 
L 226.54872 314.5464 
L 226.54872 311.9016 
L 226.54872 309.2568 
L 226.54872 306.612 
L 226.54872 303.9672 
L 226.54872 301.3224 
L 226.54872 298.6776 
L 226.54872 296.0328 
L 226.54872 293.388 
L 226.54872 290.7432 
L 226.54872 288.0984 
L 226.54872 285.4536 
L 226.54872 282.8088 
L 226.54872 280.164 
L 226.54872 277.5192 
L 226.54872 274.8744 
L 226.54872 272.2296 
L 226.54872 269.5848 
L 226.54872 266.94 
L 226.54872 264.2952 
L 226.54872 261.6504 
L 226.54872 259.0056 
L 226.54872 256.3608 
L 226.54872 253.716 
L 226.54872 251.0712 
L 226.54872 248.4264 
L 226.54872 245.7816 
L 226.54872 243.1368 
L 226.54872 240.492 
L 226.54872 237.8472 
L 226.54872 235.2024 
L 226.54872 232.5576 
L 226.54872 229.9128 
L 226.54872 227.268 
L 226.54872 224.6232 
L 226.54872 221.9784 
L 226.54872 219.3336 
L 226.54872 216.6888 
L 226.54872 214.044 
L 226.54872 211.3992 
L 226.54872 208.7544 
L 226.54872 206.1096 
L 226.54872 203.4648 
L 226.54872 200.82 
L 226.54872 198.1752 
L 226.54872 195.5304 
L 226.54872 192.8856 
L 226.54872 190.2408 
L 223.50024 190.2408 
L 220.45176 190.2408 
L 217.40328 190.2408 
L 214.3548 190.2408 
L 211.30632 190.2408 
L 208.25784 190.2408 
L 205.20936 190.2408 
L 202.16088 190.2408 
L 199.1124 190.2408 
L 196.06392 190.2408 
L 193.01544 190.2408 
L 189.96696 190.2408 
L 186.91848 190.2408 
L 183.87 190.2408 
L 180.82152 190.2408 
L 177.77304 190.2408 
L 174.72456 190.2408 
L 171.67608 190.2408 
L 168.6276 190.2408 
L 165.57912 190.2408 
L 162.53064 190.2408 
L 159.48216 190.2408 
L 156.43368 190.2408 
L 153.3852 190.2408 
L 150.33672 190.2408 
L 147.28824 190.2408 
L 144.23976 190.2408 
L 141.19128 190.2408 
L 138.1428 190.2408 
L 135.09432 190.2408 
L 132.04584 190.2408 
L 128.99736 190.2408 
L 125.94888 190.2408 
L 122.9004 190.2408 
L 119.85192 190.2408 
L 116.80344 190.2408 
L 113.75496 190.2408 
L 110.70648 190.2408 
L 107.658 190.2408 
L 104.60952 190.2408 
L 101.56104 190.2408 
L 98.51256 190.2408 
L 95.46408 190.2408 
L 92.4156 190.2408 
L 89.36712 190.2408 
L 86.31864 190.2408 
L 83.27016 190.2408 
L 80.22168 190.2408 
L 77.1732 190.2408 
L 74.12472 190.2408 
L 71.07624 190.2408 
L 68.02776 190.2408 
L 64.97928 190.2408 
L 64.97928 192.8856 
L 64.97928 195.5304 
L 64.97928 198.1752 
L 64.97928 200.82 
L 64.97928 203.4648 
L 64.97928 206.1096 
L 64.97928 208.7544 
L 64.97928 211.3992 
L 64.97928 214.044 
L 64.97928 216.6888 
L 64.97928 219.3336 
L 64.97928 221.9784 
L 64.97928 224.6232 
L 64.97928 227.268 
L 64.97928 229.9128 
L 64.97928 232.5576 
L 64.97928 235.2024 
L 64.97928 237.8472 
L 64.97928 240.492 
L 64.97928 243.1368 
L 64.97928 245.7816 
L 64.97928 248.4264 
L 64.97928 251.0712 
L 64.97928 253.716 
L 64.97928 256.3608 
L 64.97928 259.0056 
L 64.97928 261.6504 
L 64.97928 264.2952 
L 64.97928 266.94 
L 64.97928 269.5848 
L 64.97928 272.2296 
L 64.97928 274.8744 
L 64.97928 277.5192 
L 64.97928 280.164 
L 64.97928 282.8088 
L 64.97928 285.4536 
L 64.97928 288.0984 
L 64.97928 290.7432 
L 64.97928 293.388 
L 64.97928 296.0328 
L 64.97928 298.6776 
L 64.97928 301.3224 
L 64.97928 303.9672 
L 64.97928 306.612 
L 64.97928 309.2568 
L 64.97928 311.9016 
L 64.97928 314.5464 
L 64.97928 317.1912 
L 64.97928 319.836 
L 64.97928 322.4808 
L 64.97928 325.1256 
L 64.97928 327.7704 
L 64.97928 330.4152 
L 68.02776 330.4152 
z
M 115.042485 327.7704 
L 115.042485 325.1256 
L 115.17368 322.4808 
L 114.850919 319.836 
L 114.116061 317.1912 
L 113.75496 316.512488 
L 112.665225 314.5464 
L 112.015044 311.9016 
L 112.237206 309.2568 
L 112.682998 306.612 
L 112.066625 303.9672 
L 111.717754 301.3224 
L 112.240342 298.6776 
L 112.719461 296.0328 
L 112.685632 293.388 
L 112.529189 290.7432 
L 112.295149 288.0984 
L 112.266855 285.4536 
L 112.651347 282.8088 
L 113.278692 280.164 
L 113.75496 277.709085 
L 113.784958 277.5192 
L 113.75496 276.935798 
L 113.585637 274.8744 
L 112.987886 272.2296 
L 113.035558 269.5848 
L 113.75496 267.45796 
L 113.90545 266.94 
L 114.829089 264.2952 
L 115.070801 261.6504 
L 114.359167 259.0056 
L 113.75496 256.3608 
L 113.815958 253.716 
L 113.75496 251.93521 
L 113.71934 251.0712 
L 112.779624 248.4264 
L 112.519589 245.7816 
L 113.195538 243.1368 
L 113.562803 240.492 
L 113.427868 237.8472 
L 113.75496 235.635284 
L 113.805199 235.2024 
L 114.138518 232.5576 
L 114.141884 229.9128 
L 114.184069 227.268 
L 114.086374 224.6232 
L 113.75496 223.617555 
L 113.098007 221.9784 
L 111.901094 219.3336 
L 110.866638 216.6888 
L 110.70648 216.461876 
L 108.598686 214.044 
L 107.658 213.34909 
L 105.450128 211.3992 
L 104.60952 210.831187 
L 101.771758 208.7544 
L 101.56104 208.626097 
L 98.51256 206.981031 
L 97.119222 206.1096 
L 95.46408 205.301683 
L 92.4156 203.721129 
L 91.980878 203.4648 
L 89.803296 200.82 
L 91.649293 198.1752 
L 92.4156 197.723407 
L 95.46408 197.15392 
L 98.51256 197.705677 
L 100.177499 198.1752 
L 101.56104 198.4476 
L 104.60952 198.460112 
L 107.658 198.242922 
L 110.70648 198.312325 
L 113.75496 198.713414 
L 116.80344 199.525325 
L 119.85192 200.502968 
L 121.364367 200.82 
L 122.9004 200.971411 
L 125.94888 201.312617 
L 128.99736 201.880634 
L 132.04584 202.667176 
L 134.734998 203.4648 
L 135.09432 203.524723 
L 138.1428 204.047522 
L 141.19128 204.737784 
L 144.23976 205.569282 
L 145.822317 206.1096 
L 147.28824 206.447696 
L 150.33672 207.399767 
L 153.260385 208.7544 
L 153.3852 208.803359 
L 156.43368 209.811742 
L 159.48216 211.203371 
L 159.846124 211.3992 
L 162.53064 212.814709 
L 164.665836 214.044 
L 165.57912 214.54817 
L 168.6276 215.994173 
L 170.545297 216.6888 
L 171.67608 217.119801 
L 174.72456 218.181107 
L 176.356389 219.3336 
L 177.77304 220.708718 
L 179.051327 221.9784 
L 180.512393 224.6232 
L 180.82152 225.348297 
L 181.966883 227.268 
L 183.452259 229.9128 
L 183.87 230.951515 
L 184.600626 232.5576 
L 185.201573 235.2024 
L 184.095896 237.8472 
L 183.87 238.296785 
L 182.977753 240.492 
L 182.910118 243.1368 
L 183.480061 245.7816 
L 183.87 246.782004 
L 184.469001 248.4264 
L 184.885013 251.0712 
L 184.424755 253.716 
L 183.889967 256.3608 
L 184.617152 259.0056 
L 186.430927 261.6504 
L 186.91848 262.830215 
L 187.748291 264.2952 
L 187.48498 266.94 
L 187.087834 269.5848 
L 186.91848 270.482057 
L 186.717163 272.2296 
L 186.115289 274.8744 
L 184.933069 277.5192 
L 183.87 279.492711 
L 183.587685 280.164 
L 183.075792 282.8088 
L 182.258481 285.4536 
L 181.424879 288.0984 
L 181.079212 290.7432 
L 181.023626 293.388 
L 181.825289 296.0328 
L 182.699588 298.6776 
L 183.339316 301.3224 
L 183.659906 303.9672 
L 183.87 305.154326 
L 184.226516 306.612 
L 184.999947 309.2568 
L 185.489147 311.9016 
L 184.400558 314.5464 
L 183.87 314.887632 
L 181.741719 317.1912 
L 181.396773 319.836 
L 183.121557 322.4808 
L 183.87 323.4569 
L 185.135058 325.1256 
L 185.135058 327.7704 
L 183.87 328.014069 
L 180.82152 328.353999 
L 177.77304 328.741549 
L 174.72456 329.229124 
L 171.67608 329.53431 
L 168.6276 329.670213 
L 165.57912 329.777879 
L 162.53064 329.841492 
L 159.48216 329.877023 
L 156.43368 329.960502 
L 153.3852 330.024013 
L 150.33672 330.053703 
L 147.28824 330.05974 
L 144.23976 330.055609 
L 141.19128 330.065965 
L 138.1428 330.094019 
L 135.09432 330.088754 
L 132.04584 330.035029 
L 128.99736 329.958358 
L 125.94888 329.845894 
L 122.9004 329.618782 
L 119.85192 329.182604 
L 116.80344 328.40507 
L 115.042485 327.7704 
z
" clip-path="url(#p7fa3c9a454)" style="fill: none"/>
    <path d="M 116.80344 328.40507 
L 119.85192 329.182604 
L 122.9004 329.618782 
L 125.94888 329.845894 
L 128.99736 329.958358 
L 132.04584 330.035029 
L 135.09432 330.088754 
L 138.1428 330.094019 
L 141.19128 330.065965 
L 144.23976 330.055609 
L 147.28824 330.05974 
L 150.33672 330.053703 
L 153.3852 330.024013 
L 156.43368 329.960502 
L 159.48216 329.877023 
L 162.53064 329.841492 
L 165.57912 329.777879 
L 168.6276 329.670213 
L 171.67608 329.53431 
L 174.72456 329.229124 
L 177.77304 328.741549 
L 180.82152 328.353999 
L 183.87 328.014069 
L 185.135058 327.7704 
L 185.135058 325.1256 
L 183.87 323.4569 
L 183.121557 322.4808 
L 181.396773 319.836 
L 181.741719 317.1912 
L 183.87 314.887632 
L 184.400558 314.5464 
L 185.489147 311.9016 
L 184.999947 309.2568 
L 184.226516 306.612 
L 183.87 305.154326 
L 183.659906 303.9672 
L 183.339316 301.3224 
L 182.699588 298.6776 
L 181.825289 296.0328 
L 181.023626 293.388 
L 181.079212 290.7432 
L 181.424879 288.0984 
L 182.258481 285.4536 
L 183.075792 282.8088 
L 183.587685 280.164 
L 183.87 279.492711 
L 184.933069 277.5192 
L 186.115289 274.8744 
L 186.717163 272.2296 
L 186.91848 270.482057 
L 187.087834 269.5848 
L 187.48498 266.94 
L 187.748291 264.2952 
L 186.91848 262.830215 
L 186.430927 261.6504 
L 184.617152 259.0056 
L 183.889967 256.3608 
L 184.424755 253.716 
L 184.885013 251.0712 
L 184.469001 248.4264 
L 183.87 246.782004 
L 183.480061 245.7816 
L 182.910118 243.1368 
L 182.977753 240.492 
L 183.87 238.296785 
L 184.095896 237.8472 
L 185.201573 235.2024 
L 184.600626 232.5576 
L 183.87 230.951515 
L 183.452259 229.9128 
L 181.966883 227.268 
L 180.82152 225.348297 
L 180.512393 224.6232 
L 179.051327 221.9784 
L 177.77304 220.708718 
L 176.356389 219.3336 
L 174.72456 218.181107 
L 171.67608 217.119801 
L 170.545297 216.6888 
L 168.6276 215.994173 
L 165.57912 214.54817 
L 164.665836 214.044 
L 162.53064 212.814709 
L 159.846124 211.3992 
L 159.48216 211.203371 
L 156.43368 209.811742 
L 153.3852 208.803359 
L 153.260385 208.7544 
L 150.33672 207.399767 
L 147.28824 206.447696 
L 145.822317 206.1096 
L 144.23976 205.569282 
L 141.19128 204.737784 
L 138.1428 204.047522 
L 135.09432 203.524723 
L 134.734998 203.4648 
L 132.04584 202.667176 
L 128.99736 201.880634 
L 125.94888 201.312617 
L 122.9004 200.971411 
L 121.364367 200.82 
L 119.85192 200.502968 
L 116.80344 199.525325 
L 113.75496 198.713414 
L 110.70648 198.312325 
L 107.658 198.242922 
L 104.60952 198.460112 
L 101.56104 198.4476 
L 100.177499 198.1752 
L 98.51256 197.705677 
L 95.46408 197.15392 
L 92.4156 197.723407 
L 91.649293 198.1752 
L 89.803296 200.82 
L 91.980878 203.4648 
L 92.4156 203.721129 
L 95.46408 205.301683 
L 97.119222 206.1096 
L 98.51256 206.981031 
L 101.56104 208.626097 
L 101.771758 208.7544 
L 104.60952 210.831187 
L 105.450128 211.3992 
L 107.658 213.34909 
L 108.598686 214.044 
L 110.70648 216.461876 
L 110.866638 216.6888 
L 111.901094 219.3336 
L 113.098007 221.9784 
L 113.75496 223.617555 
L 114.086374 224.6232 
L 114.184069 227.268 
L 114.141884 229.9128 
L 114.138518 232.5576 
L 113.805199 235.2024 
L 113.75496 235.635284 
L 113.427868 237.8472 
L 113.562803 240.492 
L 113.195538 243.1368 
L 112.519589 245.7816 
L 112.779624 248.4264 
L 113.71934 251.0712 
L 113.75496 251.93521 
L 113.815958 253.716 
L 113.75496 256.3608 
L 114.359167 259.0056 
L 115.070801 261.6504 
L 114.829089 264.2952 
L 113.90545 266.94 
L 113.75496 267.45796 
L 113.035558 269.5848 
L 112.987886 272.2296 
L 113.585637 274.8744 
L 113.75496 276.935798 
L 113.784958 277.5192 
L 113.75496 277.709085 
L 113.278692 280.164 
L 112.651347 282.8088 
L 112.266855 285.4536 
L 112.295149 288.0984 
L 112.529189 290.7432 
L 112.685632 293.388 
L 112.719461 296.0328 
L 112.240342 298.6776 
L 111.717754 301.3224 
L 112.066625 303.9672 
L 112.682998 306.612 
L 112.237206 309.2568 
L 112.015044 311.9016 
L 112.665225 314.5464 
L 113.75496 316.512488 
L 114.116061 317.1912 
L 114.850919 319.836 
L 115.17368 322.4808 
L 115.042485 325.1256 
L 115.042485 327.7704 
z
M 125.457373 327.7704 
L 125.457373 325.1256 
L 125.492887 322.4808 
L 125.493948 319.836 
L 125.316893 317.1912 
L 125.67952 314.5464 
L 125.94352 311.9016 
L 125.820437 309.2568 
L 125.94888 308.300073 
L 126.214637 306.612 
L 126.668058 303.9672 
L 126.248444 301.3224 
L 126.268743 298.6776 
L 127.062776 296.0328 
L 127.415946 293.388 
L 126.248888 290.7432 
L 125.94888 290.340661 
L 124.575045 288.0984 
L 124.211572 285.4536 
L 124.989946 282.8088 
L 125.94888 280.329799 
L 126.012929 280.164 
L 126.298743 277.5192 
L 125.94888 275.096611 
L 125.916436 274.8744 
L 125.426424 272.2296 
L 125.227127 269.5848 
L 125.59905 266.94 
L 125.94888 265.79471 
L 126.395183 264.2952 
L 127.125969 261.6504 
L 127.392855 259.0056 
L 127.171028 256.3608 
L 127.145592 253.716 
L 126.998348 251.0712 
L 126.779559 248.4264 
L 127.213255 245.7816 
L 128.261843 243.1368 
L 128.739542 240.492 
L 128.215934 237.8472 
L 127.831344 235.2024 
L 128.185134 232.5576 
L 128.791985 229.9128 
L 128.845478 227.268 
L 127.907562 224.6232 
L 127.03704 221.9784 
L 125.985769 219.3336 
L 125.94888 219.288922 
L 123.622479 216.6888 
L 122.9004 215.976781 
L 121.311016 214.044 
L 119.85192 212.369371 
L 119.071318 211.3992 
L 116.80344 208.918067 
L 116.535717 208.7544 
L 113.75496 207.051328 
L 110.70648 206.75106 
L 109.316258 206.1096 
L 107.658 203.640856 
L 107.571544 203.4648 
L 107.658 203.416976 
L 110.70648 202.965559 
L 112.570661 203.4648 
L 113.75496 204.585295 
L 116.80344 205.612161 
L 119.85192 205.29717 
L 122.9004 205.341159 
L 125.94888 205.998487 
L 126.356212 206.1096 
L 128.99736 206.986358 
L 132.04584 207.69368 
L 135.09432 208.072143 
L 138.103756 208.7544 
L 138.1428 208.764825 
L 141.19128 210.022437 
L 144.23976 211.271293 
L 144.542814 211.3992 
L 147.28824 212.767771 
L 150.33672 213.99344 
L 150.433395 214.044 
L 153.3852 216.048605 
L 154.185051 216.6888 
L 156.168907 219.3336 
L 156.43368 219.913057 
L 157.787891 221.9784 
L 159.471823 224.6232 
L 159.48216 224.654367 
L 160.132212 227.268 
L 160.812961 229.9128 
L 161.725497 232.5576 
L 162.232204 235.2024 
L 162.512857 237.8472 
L 162.53064 238.079518 
L 162.757202 240.492 
L 162.591968 243.1368 
L 162.53064 243.412606 
L 162.027543 245.7816 
L 161.994677 248.4264 
L 162.53064 251.054212 
L 162.534525 251.0712 
L 162.53064 251.179246 
L 162.42315 253.716 
L 161.756257 256.3608 
L 161.792579 259.0056 
L 162.53064 261.6504 
L 162.53064 261.6504 
L 163.103393 264.2952 
L 162.903111 266.94 
L 162.53064 268.235208 
L 162.14452 269.5848 
L 161.400127 272.2296 
L 161.34578 274.8744 
L 161.831084 277.5192 
L 162.411156 280.164 
L 162.435532 282.8088 
L 162.043129 285.4536 
L 161.841306 288.0984 
L 161.626757 290.7432 
L 161.590127 293.388 
L 161.95343 296.0328 
L 162.53064 297.609975 
L 162.989471 298.6776 
L 163.572102 301.3224 
L 163.266071 303.9672 
L 163.034221 306.612 
L 162.699767 309.2568 
L 162.53064 310.036391 
L 162.272262 311.9016 
L 162.514996 314.5464 
L 162.53064 314.615718 
L 163.192602 317.1912 
L 162.997941 319.836 
L 162.739281 322.4808 
L 163.709585 325.1256 
L 163.709585 327.7704 
L 162.53064 327.872491 
L 159.48216 328.029968 
L 156.43368 328.399953 
L 153.3852 328.681437 
L 150.33672 328.813023 
L 147.28824 328.83978 
L 144.23976 328.821474 
L 141.19128 328.867369 
L 138.1428 328.991706 
L 135.09432 328.968373 
L 132.04584 328.730258 
L 128.99736 328.390449 
L 125.94888 327.892001 
z
" clip-path="url(#p7fa3c9a454)" style="fill: #0000ff; fill-opacity: 0.333333"/>
    <path d="M 125.94888 327.892001 
L 128.99736 328.390449 
L 132.04584 328.730258 
L 135.09432 328.968373 
L 138.1428 328.991706 
L 141.19128 328.867369 
L 144.23976 328.821474 
L 147.28824 328.83978 
L 150.33672 328.813023 
L 153.3852 328.681437 
L 156.43368 328.399953 
L 159.48216 328.029968 
L 162.53064 327.872491 
L 163.709585 327.7704 
L 163.709585 325.1256 
L 162.739281 322.4808 
L 162.997941 319.836 
L 163.192602 317.1912 
L 162.53064 314.615718 
L 162.514996 314.5464 
L 162.272262 311.9016 
L 162.53064 310.036391 
L 162.699767 309.2568 
L 163.034221 306.612 
L 163.266071 303.9672 
L 163.572102 301.3224 
L 162.989471 298.6776 
L 162.53064 297.609975 
L 161.95343 296.0328 
L 161.590127 293.388 
L 161.626757 290.7432 
L 161.841306 288.0984 
L 162.043129 285.4536 
L 162.435532 282.8088 
L 162.411156 280.164 
L 161.831084 277.5192 
L 161.34578 274.8744 
L 161.400127 272.2296 
L 162.14452 269.5848 
L 162.53064 268.235208 
L 162.903111 266.94 
L 163.103393 264.2952 
L 162.53064 261.6504 
L 162.53064 261.6504 
L 161.792579 259.0056 
L 161.756257 256.3608 
L 162.42315 253.716 
L 162.53064 251.179246 
L 162.534525 251.0712 
L 162.53064 251.054212 
L 161.994677 248.4264 
L 162.027543 245.7816 
L 162.53064 243.412606 
L 162.591968 243.1368 
L 162.757202 240.492 
L 162.53064 238.079518 
L 162.512857 237.8472 
L 162.232204 235.2024 
L 161.725497 232.5576 
L 160.812961 229.9128 
L 160.132212 227.268 
L 159.48216 224.654367 
L 159.471823 224.6232 
L 157.787891 221.9784 
L 156.43368 219.913057 
L 156.168907 219.3336 
L 154.185051 216.6888 
L 153.3852 216.048605 
L 150.433395 214.044 
L 150.33672 213.99344 
L 147.28824 212.767771 
L 144.542814 211.3992 
L 144.23976 211.271293 
L 141.19128 210.022437 
L 138.1428 208.764825 
L 138.103756 208.7544 
L 135.09432 208.072143 
L 132.04584 207.69368 
L 128.99736 206.986358 
L 126.356212 206.1096 
L 125.94888 205.998487 
L 122.9004 205.341159 
L 119.85192 205.29717 
L 116.80344 205.612161 
L 113.75496 204.585295 
L 112.570661 203.4648 
L 110.70648 202.965559 
L 107.658 203.416976 
L 107.571544 203.4648 
L 107.658 203.640856 
L 109.316258 206.1096 
L 110.70648 206.75106 
L 113.75496 207.051328 
L 116.535717 208.7544 
L 116.80344 208.918067 
L 119.071318 211.3992 
L 119.85192 212.369371 
L 121.311016 214.044 
L 122.9004 215.976781 
L 123.622479 216.6888 
L 125.94888 219.288922 
L 125.985769 219.3336 
L 127.03704 221.9784 
L 127.907562 224.6232 
L 128.845478 227.268 
L 128.791985 229.9128 
L 128.185134 232.5576 
L 127.831344 235.2024 
L 128.215934 237.8472 
L 128.739542 240.492 
L 128.261843 243.1368 
L 127.213255 245.7816 
L 126.779559 248.4264 
L 126.998348 251.0712 
L 127.145592 253.716 
L 127.171028 256.3608 
L 127.392855 259.0056 
L 127.125969 261.6504 
L 126.395183 264.2952 
L 125.94888 265.79471 
L 125.59905 266.94 
L 125.227127 269.5848 
L 125.426424 272.2296 
L 125.916436 274.8744 
L 125.94888 275.096611 
L 126.298743 277.5192 
L 126.012929 280.164 
L 125.94888 280.329799 
L 124.989946 282.8088 
L 124.211572 285.4536 
L 124.575045 288.0984 
L 125.94888 290.340661 
L 126.248888 290.7432 
L 127.415946 293.388 
L 127.062776 296.0328 
L 126.268743 298.6776 
L 126.248444 301.3224 
L 126.668058 303.9672 
L 126.214637 306.612 
L 125.94888 308.300073 
L 125.820437 309.2568 
L 125.94352 311.9016 
L 125.67952 314.5464 
L 125.316893 317.1912 
L 125.493948 319.836 
L 125.492887 322.4808 
L 125.457373 325.1256 
L 125.457373 327.7704 
z
" clip-path="url(#p7fa3c9a454)" style="fill: #0000ff"/>
   </g>
   <g id="matplotlib.axis_5">
    <g id="xtick_4">
     <g id="line2d_5">
      <g>
       <use xlink:href="#md196c4893f" x="95.802801" y="326.448" style="stroke: #000000; stroke-width: 0.8"/>
      </g>
     </g>
     <g id="text_2">
      <!-- 0.15 -->
      <g transform="translate(89.881887 354.565081) rotate(-45) scale(0.1 -0.1)">
       <use xlink:href="#DejaVuSans-30"/>
       <use xlink:href="#DejaVuSans-2e" x="63.623047"/>
       <use xlink:href="#DejaVuSans-31" x="95.410156"/>
       <use xlink:href="#DejaVuSans-35" x="159.033203"/>
      </g>
     </g>
    </g>
    <g id="xtick_5">
     <g id="line2d_6">
      <g>
       <use xlink:href="#md196c4893f" x="138.93554" y="326.448" style="stroke: #000000; stroke-width: 0.8"/>
      </g>
     </g>
     <g id="text_3">
      <!-- 0.30 -->
      <g transform="translate(133.014625 354.565081) rotate(-45) scale(0.1 -0.1)">
       <use xlink:href="#DejaVuSans-30"/>
       <use xlink:href="#DejaVuSans-2e" x="63.623047"/>
       <use xlink:href="#DejaVuSans-33" x="95.410156"/>
       <use xlink:href="#DejaVuSans-30" x="159.033203"/>
      </g>
     </g>
    </g>
    <g id="xtick_6">
     <g id="line2d_7">
      <g>
       <use xlink:href="#md196c4893f" x="182.068278" y="326.448" style="stroke: #000000; stroke-width: 0.8"/>
      </g>
     </g>
     <g id="text_4">
      <!-- 0.45 -->
      <g transform="translate(176.147364 354.565081) rotate(-45) scale(0.1 -0.1)">
       <use xlink:href="#DejaVuSans-30"/>
       <use xlink:href="#DejaVuSans-2e" x="63.623047"/>
       <use xlink:href="#DejaVuSans-34" x="95.410156"/>
       <use xlink:href="#DejaVuSans-35" x="159.033203"/>
      </g>
     </g>
    </g>
    <g id="text_5">
     <!-- $\Omega_{2,0}$ -->
     <g transform="translate(135.464 373.52) scale(0.1 -0.1)">
      <use xlink:href="#DejaVuSans-3a9" transform="translate(0 0.21875)"/>
      <use xlink:href="#DejaVuSans-32" transform="translate(77.373047 -16.1875) scale(0.7)"/>
      <use xlink:href="#DejaVuSans-2c" transform="translate(121.90918 -16.1875) scale(0.7)"/>
      <use xlink:href="#DejaVuSans-30" transform="translate(157.797852 -16.1875) scale(0.7)"/>
     </g>
    </g>
   </g>
   <g id="matplotlib.axis_6">
    <g id="ytick_1">
     <g id="line2d_8">
      <defs>
       <path id="m2ebb3afa6f" d="M 0 0 
L -3.5 0 
" style="stroke: #000000; stroke-width: 0.8"/>
      </defs>
      <g>
       <use xlink:href="#m2ebb3afa6f" x="69.552" y="296.159533" style="stroke: #000000; stroke-width: 0.8"/>
      </g>
     </g>
     <g id="text_6">
      <!-- −8 -->
      <g transform="translate(50.657138 308.157522) rotate(-45) scale(0.1 -0.1)">
       <defs>
        <path id="DejaVuSans-38" d="M 2034 2216 
Q 1584 2216 1326 1975 
Q 1069 1734 1069 1313 
Q 1069 891 1326 650 
Q 1584 409 2034 409 
Q 2484 409 2743 651 
Q 3003 894 3003 1313 
Q 3003 1734 2745 1975 
Q 2488 2216 2034 2216 
z
M 1403 2484 
Q 997 2584 770 2862 
Q 544 3141 544 3541 
Q 544 4100 942 4425 
Q 1341 4750 2034 4750 
Q 2731 4750 3128 4425 
Q 3525 4100 3525 3541 
Q 3525 3141 3298 2862 
Q 3072 2584 2669 2484 
Q 3125 2378 3379 2068 
Q 3634 1759 3634 1313 
Q 3634 634 3220 271 
Q 2806 -91 2034 -91 
Q 1263 -91 848 271 
Q 434 634 434 1313 
Q 434 1759 690 2068 
Q 947 2378 1403 2484 
z
M 1172 3481 
Q 1172 3119 1398 2916 
Q 1625 2713 2034 2713 
Q 2441 2713 2670 2916 
Q 2900 3119 2900 3481 
Q 2900 3844 2670 4047 
Q 2441 4250 2034 4250 
Q 1625 4250 1398 4047 
Q 1172 3844 1172 3481 
z
" transform="scale(0.015625)"/>
       </defs>
       <use xlink:href="#DejaVuSans-2212"/>
       <use xlink:href="#DejaVuSans-38" x="83.789062"/>
      </g>
     </g>
    </g>
    <g id="ytick_2">
     <g id="line2d_9">
      <g>
       <use xlink:href="#m2ebb3afa6f" x="69.552" y="265.871064" style="stroke: #000000; stroke-width: 0.8"/>
      </g>
     </g>
     <g id="text_7">
      <!-- −6 -->
      <g transform="translate(50.657138 277.869053) rotate(-45) scale(0.1 -0.1)">
       <use xlink:href="#DejaVuSans-2212"/>
       <use xlink:href="#DejaVuSans-36" x="83.789062"/>
      </g>
     </g>
    </g>
    <g id="ytick_3">
     <g id="line2d_10">
      <g>
       <use xlink:href="#m2ebb3afa6f" x="69.552" y="235.582595" style="stroke: #000000; stroke-width: 0.8"/>
      </g>
     </g>
     <g id="text_8">
      <!-- −4 -->
      <g transform="translate(50.657138 247.580583) rotate(-45) scale(0.1 -0.1)">
       <use xlink:href="#DejaVuSans-2212"/>
       <use xlink:href="#DejaVuSans-34" x="83.789062"/>
      </g>
     </g>
    </g>
    <g id="ytick_4">
     <g id="line2d_11">
      <g>
       <use xlink:href="#m2ebb3afa6f" x="69.552" y="205.294125" style="stroke: #000000; stroke-width: 0.8"/>
      </g>
     </g>
     <g id="text_9">
      <!-- −2 -->
      <g transform="translate(50.657138 217.292114) rotate(-45) scale(0.1 -0.1)">
       <use xlink:href="#DejaVuSans-2212"/>
       <use xlink:href="#DejaVuSans-32" x="83.789062"/>
      </g>
     </g>
    </g>
    <g id="text_10">
     <!-- $\log_{10}(\kappa C_1/$Gyr${}^{-1})$ -->
     <g transform="translate(21.7248 302.028) rotate(-90) scale(0.1 -0.1)">
      <defs>
       <path id="DejaVuSans-6c" d="M 603 4863 
L 1178 4863 
L 1178 0 
L 603 0 
L 603 4863 
z
" transform="scale(0.015625)"/>
       <path id="DejaVuSans-6f" d="M 1959 3097 
Q 1497 3097 1228 2736 
Q 959 2375 959 1747 
Q 959 1119 1226 758 
Q 1494 397 1959 397 
Q 2419 397 2687 759 
Q 2956 1122 2956 1747 
Q 2956 2369 2687 2733 
Q 2419 3097 1959 3097 
z
M 1959 3584 
Q 2709 3584 3137 3096 
Q 3566 2609 3566 1747 
Q 3566 888 3137 398 
Q 2709 -91 1959 -91 
Q 1206 -91 779 398 
Q 353 888 353 1747 
Q 353 2609 779 3096 
Q 1206 3584 1959 3584 
z
" transform="scale(0.015625)"/>
       <path id="DejaVuSans-67" d="M 2906 1791 
Q 2906 2416 2648 2759 
Q 2391 3103 1925 3103 
Q 1463 3103 1205 2759 
Q 947 2416 947 1791 
Q 947 1169 1205 825 
Q 1463 481 1925 481 
Q 2391 481 2648 825 
Q 2906 1169 2906 1791 
z
M 3481 434 
Q 3481 -459 3084 -895 
Q 2688 -1331 1869 -1331 
Q 1566 -1331 1297 -1286 
Q 1028 -1241 775 -1147 
L 775 -588 
Q 1028 -725 1275 -790 
Q 1522 -856 1778 -856 
Q 2344 -856 2625 -561 
Q 2906 -266 2906 331 
L 2906 616 
Q 2728 306 2450 153 
Q 2172 0 1784 0 
Q 1141 0 747 490 
Q 353 981 353 1791 
Q 353 2603 747 3093 
Q 1141 3584 1784 3584 
Q 2172 3584 2450 3431 
Q 2728 3278 2906 2969 
L 2906 3500 
L 3481 3500 
L 3481 434 
z
" transform="scale(0.015625)"/>
       <path id="DejaVuSans-28" d="M 1984 4856 
Q 1566 4138 1362 3434 
Q 1159 2731 1159 2009 
Q 1159 1288 1364 580 
Q 1569 -128 1984 -844 
L 1484 -844 
Q 1016 -109 783 600 
Q 550 1309 550 2009 
Q 550 2706 781 3412 
Q 1013 4119 1484 4856 
L 1984 4856 
z
" transform="scale(0.015625)"/>
       <path id="DejaVuSans-Oblique-3ba" d="M 938 3500 
L 1531 3500 
L 1247 2047 
L 3041 3500 
L 3741 3500 
L 2106 2181 
L 3275 0 
L 2572 0 
L 1628 1806 
L 1122 1403 
L 850 0 
L 256 0 
L 938 3500 
z
" transform="scale(0.015625)"/>
       <path id="DejaVuSans-Oblique-43" d="M 4447 4306 
L 4319 3641 
Q 4019 3944 3683 4091 
Q 3347 4238 2956 4238 
Q 2422 4238 2017 3981 
Q 1613 3725 1319 3200 
Q 1131 2863 1032 2486 
Q 934 2109 934 1728 
Q 934 1091 1264 756 
Q 1594 422 2222 422 
Q 2656 422 3056 561 
Q 3456 700 3834 978 
L 3688 231 
Q 3316 72 2936 -9 
Q 2556 -91 2175 -91 
Q 1278 -91 773 396 
Q 269 884 269 1753 
Q 269 2309 461 2846 
Q 653 3384 1013 3828 
Q 1394 4300 1883 4525 
Q 2372 4750 3022 4750 
Q 3422 4750 3780 4639 
Q 4138 4528 4447 4306 
z
" transform="scale(0.015625)"/>
       <path id="DejaVuSans-2f" d="M 1625 4666 
L 2156 4666 
L 531 -594 
L 0 -594 
L 1625 4666 
z
" transform="scale(0.015625)"/>
       <path id="DejaVuSans-47" d="M 3809 666 
L 3809 1919 
L 2778 1919 
L 2778 2438 
L 4434 2438 
L 4434 434 
Q 4069 175 3628 42 
Q 3188 -91 2688 -91 
Q 1594 -91 976 548 
Q 359 1188 359 2328 
Q 359 3472 976 4111 
Q 1594 4750 2688 4750 
Q 3144 4750 3555 4637 
Q 3966 4525 4313 4306 
L 4313 3634 
Q 3963 3931 3569 4081 
Q 3175 4231 2741 4231 
Q 1884 4231 1454 3753 
Q 1025 3275 1025 2328 
Q 1025 1384 1454 906 
Q 1884 428 2741 428 
Q 3075 428 3337 486 
Q 3600 544 3809 666 
z
" transform="scale(0.015625)"/>
       <path id="DejaVuSans-79" d="M 2059 -325 
Q 1816 -950 1584 -1140 
Q 1353 -1331 966 -1331 
L 506 -1331 
L 506 -850 
L 844 -850 
Q 1081 -850 1212 -737 
Q 1344 -625 1503 -206 
L 1606 56 
L 191 3500 
L 800 3500 
L 1894 763 
L 2988 3500 
L 3597 3500 
L 2059 -325 
z
" transform="scale(0.015625)"/>
       <path id="DejaVuSans-72" d="M 2631 2963 
Q 2534 3019 2420 3045 
Q 2306 3072 2169 3072 
Q 1681 3072 1420 2755 
Q 1159 2438 1159 1844 
L 1159 0 
L 581 0 
L 581 3500 
L 1159 3500 
L 1159 2956 
Q 1341 3275 1631 3429 
Q 1922 3584 2338 3584 
Q 2397 3584 2469 3576 
Q 2541 3569 2628 3553 
L 2631 2963 
z
" transform="scale(0.015625)"/>
       <path id="DejaVuSans-29" d="M 513 4856 
L 1013 4856 
Q 1481 4119 1714 3412 
Q 1947 2706 1947 2009 
Q 1947 1309 1714 600 
Q 1481 -109 1013 -844 
L 513 -844 
Q 928 -128 1133 580 
Q 1338 1288 1338 2009 
Q 1338 2731 1133 3434 
Q 928 4138 513 4856 
z
" transform="scale(0.015625)"/>
      </defs>
      <use xlink:href="#DejaVuSans-6c" transform="translate(0 0.684375)"/>
      <use xlink:href="#DejaVuSans-6f" transform="translate(27.783203 0.684375)"/>
      <use xlink:href="#DejaVuSans-67" transform="translate(88.964844 0.684375)"/>
      <use xlink:href="#DejaVuSans-31" transform="translate(153.398438 -15.721875) scale(0.7)"/>
      <use xlink:href="#DejaVuSans-30" transform="translate(197.93457 -15.721875) scale(0.7)"/>
      <use xlink:href="#DejaVuSans-28" transform="translate(261.440754 0.684375)"/>
      <use xlink:href="#DejaVuSans-Oblique-3ba" transform="translate(300.454426 0.684375)"/>
      <use xlink:href="#DejaVuSans-Oblique-43" transform="translate(359.389973 0.684375)"/>
      <use xlink:href="#DejaVuSans-31" transform="translate(429.214192 -15.721875) scale(0.7)"/>
      <use xlink:href="#DejaVuSans-2f" transform="translate(476.4847 0.684375)"/>
      <use xlink:href="#DejaVuSans-47" transform="translate(510.176106 0.684375)"/>
      <use xlink:href="#DejaVuSans-79" transform="translate(587.66634 0.684375)"/>
      <use xlink:href="#DejaVuSans-72" transform="translate(646.846028 0.684375)"/>
      <use xlink:href="#DejaVuSans-2212" transform="translate(688.91634 38.965625) scale(0.7)"/>
      <use xlink:href="#DejaVuSans-31" transform="translate(747.568684 38.965625) scale(0.7)"/>
      <use xlink:href="#DejaVuSans-29" transform="translate(794.839192 0.684375)"/>
     </g>
    </g>
   </g>
   <g id="QuadContourSet_3">
    <path d="M 116.80344 328.40507 
L 119.85192 329.182604 
L 122.9004 329.618782 
L 125.94888 329.845894 
L 128.99736 329.958358 
L 132.04584 330.035029 
L 135.09432 330.088754 
L 138.1428 330.094019 
L 141.19128 330.065965 
L 144.23976 330.055609 
L 147.28824 330.05974 
L 150.33672 330.053703 
L 153.3852 330.024013 
L 156.43368 329.960502 
L 159.48216 329.877023 
L 162.53064 329.841492 
L 165.57912 329.777879 
L 168.6276 329.670213 
L 171.67608 329.53431 
L 174.72456 329.229124 
L 177.77304 328.741549 
L 180.82152 328.353999 
L 183.87 328.014069 
L 185.135058 327.7704 
L 185.135058 325.1256 
L 183.87 323.4569 
L 183.121557 322.4808 
L 181.396773 319.836 
L 181.741719 317.1912 
L 183.87 314.887632 
L 184.400558 314.5464 
L 185.489147 311.9016 
L 184.999947 309.2568 
L 184.226516 306.612 
L 183.87 305.154326 
L 183.659906 303.9672 
L 183.339316 301.3224 
L 182.699588 298.6776 
L 181.825289 296.0328 
L 181.023626 293.388 
L 181.079212 290.7432 
L 181.424879 288.0984 
L 182.258481 285.4536 
L 183.075792 282.8088 
L 183.587685 280.164 
L 183.87 279.492711 
L 184.933069 277.5192 
L 186.115289 274.8744 
L 186.717163 272.2296 
L 186.91848 270.482057 
L 187.087834 269.5848 
L 187.48498 266.94 
L 187.748291 264.2952 
L 186.91848 262.830215 
L 186.430927 261.6504 
L 184.617152 259.0056 
L 183.889967 256.3608 
L 184.424755 253.716 
L 184.885013 251.0712 
L 184.469001 248.4264 
L 183.87 246.782004 
L 183.480061 245.7816 
L 182.910118 243.1368 
L 182.977753 240.492 
L 183.87 238.296785 
L 184.095896 237.8472 
L 185.201573 235.2024 
L 184.600626 232.5576 
L 183.87 230.951515 
L 183.452259 229.9128 
L 181.966883 227.268 
L 180.82152 225.348297 
L 180.512393 224.6232 
L 179.051327 221.9784 
L 177.77304 220.708718 
L 176.356389 219.3336 
L 174.72456 218.181107 
L 171.67608 217.119801 
L 170.545297 216.6888 
L 168.6276 215.994173 
L 165.57912 214.54817 
L 164.665836 214.044 
L 162.53064 212.814709 
L 159.846124 211.3992 
L 159.48216 211.203371 
L 156.43368 209.811742 
L 153.3852 208.803359 
L 153.260385 208.7544 
L 150.33672 207.399767 
L 147.28824 206.447696 
L 145.822317 206.1096 
L 144.23976 205.569282 
L 141.19128 204.737784 
L 138.1428 204.047522 
L 135.09432 203.524723 
L 134.734998 203.4648 
L 132.04584 202.667176 
L 128.99736 201.880634 
L 125.94888 201.312617 
L 122.9004 200.971411 
L 121.364367 200.82 
L 119.85192 200.502968 
L 116.80344 199.525325 
L 113.75496 198.713414 
L 110.70648 198.312325 
L 107.658 198.242922 
L 104.60952 198.460112 
L 101.56104 198.4476 
L 100.177499 198.1752 
L 98.51256 197.705677 
L 95.46408 197.15392 
L 92.4156 197.723407 
L 91.649293 198.1752 
L 89.803296 200.82 
L 91.980878 203.4648 
L 92.4156 203.721129 
L 95.46408 205.301683 
L 97.119222 206.1096 
L 98.51256 206.981031 
L 101.56104 208.626097 
L 101.771758 208.7544 
L 104.60952 210.831187 
L 105.450128 211.3992 
L 107.658 213.34909 
L 108.598686 214.044 
L 110.70648 216.461876 
L 110.866638 216.6888 
L 111.901094 219.3336 
L 113.098007 221.9784 
L 113.75496 223.617555 
L 114.086374 224.6232 
L 114.184069 227.268 
L 114.141884 229.9128 
L 114.138518 232.5576 
L 113.805199 235.2024 
L 113.75496 235.635284 
L 113.427868 237.8472 
L 113.562803 240.492 
L 113.195538 243.1368 
L 112.519589 245.7816 
L 112.779624 248.4264 
L 113.71934 251.0712 
L 113.75496 251.93521 
L 113.815958 253.716 
L 113.75496 256.3608 
L 114.359167 259.0056 
L 115.070801 261.6504 
L 114.829089 264.2952 
L 113.90545 266.94 
L 113.75496 267.45796 
L 113.035558 269.5848 
L 112.987886 272.2296 
L 113.585637 274.8744 
L 113.75496 276.935798 
L 113.784958 277.5192 
L 113.75496 277.709085 
L 113.278692 280.164 
L 112.651347 282.8088 
L 112.266855 285.4536 
L 112.295149 288.0984 
L 112.529189 290.7432 
L 112.685632 293.388 
L 112.719461 296.0328 
L 112.240342 298.6776 
L 111.717754 301.3224 
L 112.066625 303.9672 
L 112.682998 306.612 
L 112.237206 309.2568 
L 112.015044 311.9016 
L 112.665225 314.5464 
L 113.75496 316.512488 
L 114.116061 317.1912 
L 114.850919 319.836 
L 115.17368 322.4808 
L 115.042485 325.1256 
L 115.042485 327.7704 
L 116.80344 328.40507 
z
" clip-path="url(#p7fa3c9a454)" style="fill: none; stroke: #0000ff; stroke-width: 1.5"/>
    <path d="M 125.94888 327.892001 
L 128.99736 328.390449 
L 132.04584 328.730258 
L 135.09432 328.968373 
L 138.1428 328.991706 
L 141.19128 328.867369 
L 144.23976 328.821474 
L 147.28824 328.83978 
L 150.33672 328.813023 
L 153.3852 328.681437 
L 156.43368 328.399953 
L 159.48216 328.029968 
L 162.53064 327.872491 
L 163.709585 327.7704 
L 163.709585 325.1256 
L 162.739281 322.4808 
L 162.997941 319.836 
L 163.192602 317.1912 
L 162.53064 314.615718 
L 162.514996 314.5464 
L 162.272262 311.9016 
L 162.53064 310.036391 
L 162.699767 309.2568 
L 163.034221 306.612 
L 163.266071 303.9672 
L 163.572102 301.3224 
L 162.989471 298.6776 
L 162.53064 297.609975 
L 161.95343 296.0328 
L 161.590127 293.388 
L 161.626757 290.7432 
L 161.841306 288.0984 
L 162.043129 285.4536 
L 162.435532 282.8088 
L 162.411156 280.164 
L 161.831084 277.5192 
L 161.34578 274.8744 
L 161.400127 272.2296 
L 162.14452 269.5848 
L 162.53064 268.235208 
L 162.903111 266.94 
L 163.103393 264.2952 
L 162.53064 261.6504 
L 162.53064 261.6504 
L 161.792579 259.0056 
L 161.756257 256.3608 
L 162.42315 253.716 
L 162.53064 251.179246 
L 162.534525 251.0712 
L 162.53064 251.054212 
L 161.994677 248.4264 
L 162.027543 245.7816 
L 162.53064 243.412606 
L 162.591968 243.1368 
L 162.757202 240.492 
L 162.53064 238.079518 
L 162.512857 237.8472 
L 162.232204 235.2024 
L 161.725497 232.5576 
L 160.812961 229.9128 
L 160.132212 227.268 
L 159.48216 224.654367 
L 159.471823 224.6232 
L 157.787891 221.9784 
L 156.43368 219.913057 
L 156.168907 219.3336 
L 154.185051 216.6888 
L 153.3852 216.048605 
L 150.433395 214.044 
L 150.33672 213.99344 
L 147.28824 212.767771 
L 144.542814 211.3992 
L 144.23976 211.271293 
L 141.19128 210.022437 
L 138.1428 208.764825 
L 138.103756 208.7544 
L 135.09432 208.072143 
L 132.04584 207.69368 
L 128.99736 206.986358 
L 126.356212 206.1096 
L 125.94888 205.998487 
L 122.9004 205.341159 
L 119.85192 205.29717 
L 116.80344 205.612161 
L 113.75496 204.585295 
L 112.570661 203.4648 
L 110.70648 202.965559 
L 107.658 203.416976 
L 107.571544 203.4648 
L 107.658 203.640856 
L 109.316258 206.1096 
L 110.70648 206.75106 
L 113.75496 207.051328 
L 116.535717 208.7544 
L 116.80344 208.918067 
L 119.071318 211.3992 
L 119.85192 212.369371 
L 121.311016 214.044 
L 122.9004 215.976781 
L 123.622479 216.6888 
L 125.94888 219.288922 
L 125.985769 219.3336 
L 127.03704 221.9784 
L 127.907562 224.6232 
L 128.845478 227.268 
L 128.791985 229.9128 
L 128.185134 232.5576 
L 127.831344 235.2024 
L 128.215934 237.8472 
L 128.739542 240.492 
L 128.261843 243.1368 
L 127.213255 245.7816 
L 126.779559 248.4264 
L 126.998348 251.0712 
L 127.145592 253.716 
L 127.171028 256.3608 
L 127.392855 259.0056 
L 127.125969 261.6504 
L 126.395183 264.2952 
L 125.94888 265.79471 
L 125.59905 266.94 
L 125.227127 269.5848 
L 125.426424 272.2296 
L 125.916436 274.8744 
L 125.94888 275.096611 
L 126.298743 277.5192 
L 126.012929 280.164 
L 125.94888 280.329799 
L 124.989946 282.8088 
L 124.211572 285.4536 
L 124.575045 288.0984 
L 125.94888 290.340661 
L 126.248888 290.7432 
L 127.415946 293.388 
L 127.062776 296.0328 
L 126.268743 298.6776 
L 126.248444 301.3224 
L 126.668058 303.9672 
L 126.214637 306.612 
L 125.94888 308.300073 
L 125.820437 309.2568 
L 125.94352 311.9016 
L 125.67952 314.5464 
L 125.316893 317.1912 
L 125.493948 319.836 
L 125.492887 322.4808 
L 125.457373 325.1256 
L 125.457373 327.7704 
L 125.94888 327.892001 
z
" clip-path="url(#p7fa3c9a454)" style="fill: none; stroke: #0000ff; stroke-width: 1.5"/>
   </g>
   <g id="patch_8">
    <path d="M 69.552 326.448 
L 69.552 194.208 
" style="fill: none; stroke: #000000; stroke-width: 0.8; stroke-linejoin: miter; stroke-linecap: square"/>
   </g>
   <g id="patch_9">
    <path d="M 221.976 326.448 
L 221.976 194.208 
" style="fill: none; stroke: #000000; stroke-width: 0.8; stroke-linejoin: miter; stroke-linecap: square"/>
   </g>
   <g id="patch_10">
    <path d="M 69.552 326.448 
L 221.976 326.448 
" style="fill: none; stroke: #000000; stroke-width: 0.8; stroke-linejoin: miter; stroke-linecap: square"/>
   </g>
   <g id="patch_11">
    <path d="M 69.552 194.208 
L 221.976 194.208 
" style="fill: none; stroke: #000000; stroke-width: 0.8; stroke-linejoin: miter; stroke-linecap: square"/>
   </g>
  </g>
  <g id="axes_4">
   <g id="patch_12">
    <path d="M 232.776 326.448 
L 385.2 326.448 
L 385.2 194.208 
L 232.776 194.208 
z
" style="fill: #ffffff"/>
   </g>
   <g id="matplotlib.axis_7">
    <g id="xtick_7">
     <g id="line2d_12">
      <g>
       <use xlink:href="#md196c4893f" x="267.687443" y="326.448" style="stroke: #000000; stroke-width: 0.8"/>
      </g>
     </g>
     <g id="text_11">
      <!-- −8 -->
      <g transform="translate(264.426465 349.245207) rotate(-45) scale(0.1 -0.1)">
       <use xlink:href="#DejaVuSans-2212"/>
       <use xlink:href="#DejaVuSans-38" x="83.789062"/>
      </g>
     </g>
    </g>
    <g id="xtick_8">
     <g id="line2d_13">
      <g>
       <use xlink:href="#md196c4893f" x="302.598889" y="326.448" style="stroke: #000000; stroke-width: 0.8"/>
      </g>
     </g>
     <g id="text_12">
      <!-- −6 -->
      <g transform="translate(299.337912 349.245207) rotate(-45) scale(0.1 -0.1)">
       <use xlink:href="#DejaVuSans-2212"/>
       <use xlink:href="#DejaVuSans-36" x="83.789062"/>
      </g>
     </g>
    </g>
    <g id="xtick_9">
     <g id="line2d_14">
      <g>
       <use xlink:href="#md196c4893f" x="337.510336" y="326.448" style="stroke: #000000; stroke-width: 0.8"/>
      </g>
     </g>
     <g id="text_13">
      <!-- −4 -->
      <g transform="translate(334.249358 349.245207) rotate(-45) scale(0.1 -0.1)">
       <use xlink:href="#DejaVuSans-2212"/>
       <use xlink:href="#DejaVuSans-34" x="83.789062"/>
      </g>
     </g>
    </g>
    <g id="xtick_10">
     <g id="line2d_15">
      <g>
       <use xlink:href="#md196c4893f" x="372.421782" y="326.448" style="stroke: #000000; stroke-width: 0.8"/>
      </g>
     </g>
     <g id="text_14">
      <!-- −2 -->
      <g transform="translate(369.160804 349.245207) rotate(-45) scale(0.1 -0.1)">
       <use xlink:href="#DejaVuSans-2212"/>
       <use xlink:href="#DejaVuSans-32" x="83.789062"/>
      </g>
     </g>
    </g>
    <g id="text_15">
     <!-- $\log_{10}(\kappa C_1/$Gyr${}^{-1})$ -->
     <g transform="translate(267.288 375.12) scale(0.1 -0.1)">
      <use xlink:href="#DejaVuSans-6c" transform="translate(0 0.684375)"/>
      <use xlink:href="#DejaVuSans-6f" transform="translate(27.783203 0.684375)"/>
      <use xlink:href="#DejaVuSans-67" transform="translate(88.964844 0.684375)"/>
      <use xlink:href="#DejaVuSans-31" transform="translate(153.398438 -15.721875) scale(0.7)"/>
      <use xlink:href="#DejaVuSans-30" transform="translate(197.93457 -15.721875) scale(0.7)"/>
      <use xlink:href="#DejaVuSans-28" transform="translate(261.440754 0.684375)"/>
      <use xlink:href="#DejaVuSans-Oblique-3ba" transform="translate(300.454426 0.684375)"/>
      <use xlink:href="#DejaVuSans-Oblique-43" transform="translate(359.389973 0.684375)"/>
      <use xlink:href="#DejaVuSans-31" transform="translate(429.214192 -15.721875) scale(0.7)"/>
      <use xlink:href="#DejaVuSans-2f" transform="translate(476.4847 0.684375)"/>
      <use xlink:href="#DejaVuSans-47" transform="translate(510.176106 0.684375)"/>
      <use xlink:href="#DejaVuSans-79" transform="translate(587.66634 0.684375)"/>
      <use xlink:href="#DejaVuSans-72" transform="translate(646.846028 0.684375)"/>
      <use xlink:href="#DejaVuSans-2212" transform="translate(688.91634 38.965625) scale(0.7)"/>
      <use xlink:href="#DejaVuSans-31" transform="translate(747.568684 38.965625) scale(0.7)"/>
      <use xlink:href="#DejaVuSans-29" transform="translate(794.839192 0.684375)"/>
     </g>
    </g>
   </g>
   <g id="matplotlib.axis_8"/>
   <g id="line2d_16">
    <path d="M 232.776 208.047863 
L 233.53812 208.047863 
L 233.53812 208.275118 
L 235.06236 208.275118 
L 235.06236 208.502374 
L 236.5866 208.502374 
L 236.5866 208.729629 
L 237.34872 208.729629 
L 237.34872 208.502374 
L 239.63508 208.502374 
L 239.63508 208.275118 
L 240.3972 208.275118 
L 240.3972 208.047863 
L 241.15932 208.047863 
L 241.15932 207.820607 
L 244.2078 207.820607 
L 244.2078 208.275118 
L 244.96992 208.275118 
L 244.96992 208.729629 
L 245.73204 208.729629 
L 245.73204 209.18414 
L 246.49416 209.18414 
L 246.49416 209.638651 
L 247.25628 209.638651 
L 247.25628 209.865907 
L 248.0184 209.865907 
L 248.0184 210.093162 
L 250.30476 210.093162 
L 250.30476 209.865907 
L 251.06688 209.865907 
L 251.06688 209.638651 
L 251.829 209.638651 
L 251.829 209.411396 
L 254.11536 209.411396 
L 254.11536 209.638651 
L 254.87748 209.638651 
L 254.87748 209.865907 
L 255.6396 209.865907 
L 255.6396 210.093162 
L 257.92596 210.093162 
L 257.92596 209.638651 
L 258.68808 209.638651 
L 258.68808 209.18414 
L 259.4502 209.18414 
L 259.4502 208.502374 
L 260.21232 208.502374 
L 260.21232 207.820607 
L 260.97444 207.820607 
L 260.97444 207.13884 
L 261.73656 207.13884 
L 261.73656 206.684329 
L 262.49868 206.684329 
L 262.49868 206.457074 
L 264.02292 206.457074 
L 264.02292 206.911585 
L 264.78504 206.911585 
L 264.78504 207.366096 
L 265.54716 207.366096 
L 265.54716 208.047863 
L 266.30928 208.047863 
L 266.30928 208.729629 
L 267.0714 208.729629 
L 267.0714 209.638651 
L 267.83352 209.638651 
L 267.83352 210.547673 
L 268.59564 210.547673 
L 268.59564 211.456696 
L 269.35776 211.456696 
L 269.35776 212.365718 
L 270.11988 212.365718 
L 270.11988 213.047484 
L 270.882 213.047484 
L 270.882 213.956507 
L 271.64412 213.956507 
L 271.64412 214.411018 
L 272.40624 214.411018 
L 272.40624 214.865529 
L 273.16836 214.865529 
L 273.16836 215.092784 
L 274.6926 215.092784 
L 274.6926 214.865529 
L 275.45472 214.865529 
L 275.45472 214.411018 
L 276.21684 214.411018 
L 276.21684 213.956507 
L 276.97896 213.956507 
L 276.97896 213.27474 
L 277.74108 213.27474 
L 277.74108 212.365718 
L 278.5032 212.365718 
L 278.5032 211.456696 
L 279.26532 211.456696 
L 279.26532 210.547673 
L 280.02744 210.547673 
L 280.02744 209.638651 
L 280.78956 209.638651 
L 280.78956 208.502374 
L 281.55168 208.502374 
L 281.55168 207.820607 
L 282.3138 207.820607 
L 282.3138 207.13884 
L 283.07592 207.13884 
L 283.07592 206.457074 
L 283.83804 206.457074 
L 283.83804 206.229818 
L 285.36228 206.229818 
L 285.36228 206.684329 
L 286.1244 206.684329 
L 286.1244 207.13884 
L 286.88652 207.13884 
L 286.88652 207.593351 
L 287.64864 207.593351 
L 287.64864 208.502374 
L 288.41076 208.502374 
L 288.41076 209.18414 
L 289.17288 209.18414 
L 289.17288 209.638651 
L 289.935 209.638651 
L 289.935 210.320418 
L 290.69712 210.320418 
L 290.69712 210.547673 
L 291.45924 210.547673 
L 291.45924 211.002185 
L 293.7456 211.002185 
L 293.7456 210.774929 
L 294.50772 210.774929 
L 294.50772 210.547673 
L 295.26984 210.547673 
L 295.26984 210.320418 
L 296.03196 210.320418 
L 296.03196 210.093162 
L 296.79408 210.093162 
L 296.79408 209.865907 
L 298.31832 209.865907 
L 298.31832 209.638651 
L 299.08044 209.638651 
L 299.08044 209.411396 
L 300.60468 209.411396 
L 300.60468 209.18414 
L 301.3668 209.18414 
L 301.3668 208.956885 
L 303.65316 208.956885 
L 303.65316 209.18414 
L 304.41528 209.18414 
L 304.41528 209.865907 
L 305.1774 209.865907 
L 305.1774 210.774929 
L 305.93952 210.774929 
L 305.93952 211.911207 
L 306.70164 211.911207 
L 306.70164 213.27474 
L 307.46376 213.27474 
L 307.46376 214.638273 
L 308.22588 214.638273 
L 308.22588 215.774551 
L 308.988 215.774551 
L 308.988 216.910829 
L 309.75012 216.910829 
L 309.75012 217.592595 
L 310.51224 217.592595 
L 310.51224 217.819851 
L 311.27436 217.819851 
L 311.27436 218.047106 
L 312.03648 218.047106 
L 312.03648 217.819851 
L 312.7986 217.819851 
L 312.7986 217.592595 
L 313.56072 217.592595 
L 313.56072 217.138084 
L 314.32284 217.138084 
L 314.32284 216.910829 
L 315.08496 216.910829 
L 315.08496 216.683573 
L 315.84708 216.683573 
L 315.84708 216.456318 
L 316.6092 216.456318 
L 316.6092 216.229062 
L 317.37132 216.229062 
L 317.37132 216.001806 
L 318.13344 216.001806 
L 318.13344 215.774551 
L 319.65768 215.774551 
L 319.65768 215.547295 
L 321.18192 215.547295 
L 321.18192 215.32004 
L 328.041 215.32004 
L 328.041 215.774551 
L 328.80312 215.774551 
L 328.80312 216.001806 
L 329.56524 216.001806 
L 329.56524 216.456318 
L 330.32736 216.456318 
L 330.32736 216.910829 
L 331.08948 216.910829 
L 331.08948 217.138084 
L 333.37584 217.138084 
L 333.37584 216.910829 
L 334.13796 216.910829 
L 334.13796 216.683573 
L 334.90008 216.683573 
L 334.90008 216.456318 
L 335.6622 216.456318 
L 335.6622 216.229062 
L 337.94856 216.229062 
L 337.94856 216.456318 
L 338.71068 216.456318 
L 338.71068 216.910829 
L 339.4728 216.910829 
L 339.4728 217.36534 
L 340.23492 217.36534 
L 340.23492 217.819851 
L 340.99704 217.819851 
L 340.99704 218.728873 
L 341.75916 218.728873 
L 341.75916 219.41064 
L 342.52128 219.41064 
L 342.52128 220.546917 
L 343.2834 220.546917 
L 343.2834 221.683195 
L 344.04552 221.683195 
L 344.04552 222.819473 
L 344.80764 222.819473 
L 344.80764 224.183006 
L 345.56976 224.183006 
L 345.56976 225.319284 
L 346.33188 225.319284 
L 346.33188 226.455561 
L 347.094 226.455561 
L 347.094 227.364584 
L 347.85612 227.364584 
L 347.85612 228.04635 
L 348.61824 228.04635 
L 348.61824 228.500861 
L 354.7152 228.500861 
L 354.7152 228.728117 
L 355.47732 228.728117 
L 355.47732 229.182628 
L 356.23944 229.182628 
L 356.23944 229.637139 
L 357.00156 229.637139 
L 357.00156 230.318906 
L 357.76368 230.318906 
L 357.76368 231.000672 
L 358.5258 231.000672 
L 358.5258 231.909694 
L 359.28792 231.909694 
L 359.28792 233.045972 
L 360.05004 233.045972 
L 360.05004 234.18225 
L 360.81216 234.18225 
L 360.81216 235.318528 
L 361.57428 235.318528 
L 361.57428 236.682061 
L 362.3364 236.682061 
L 362.3364 238.045594 
L 363.09852 238.045594 
L 363.09852 239.636383 
L 363.86064 239.636383 
L 363.86064 241.454427 
L 364.62276 241.454427 
L 364.62276 243.272472 
L 365.38488 243.272472 
L 365.38488 245.317771 
L 366.147 245.317771 
L 366.147 247.363071 
L 366.90912 247.363071 
L 366.90912 249.862882 
L 367.67124 249.862882 
L 367.67124 252.362693 
L 368.43336 252.362693 
L 368.43336 255.317015 
L 369.19548 255.317015 
L 369.19548 258.271337 
L 369.9576 258.271337 
L 369.9576 261.68017 
L 370.71972 261.68017 
L 370.71972 265.089004 
L 371.48184 265.089004 
L 371.48184 268.725092 
L 372.24396 268.725092 
L 372.24396 272.361181 
L 373.00608 272.361181 
L 373.00608 276.224525 
L 373.7682 276.224525 
L 373.7682 280.315125 
L 374.53032 280.315125 
L 374.53032 284.63298 
L 375.29244 284.63298 
L 375.29244 288.72358 
L 376.05456 288.72358 
L 376.05456 293.268691 
L 376.81668 293.268691 
L 376.81668 297.586546 
L 377.5788 297.586546 
L 377.5788 301.904401 
L 378.34092 301.904401 
L 378.34092 305.995001 
L 379.10304 305.995001 
L 379.10304 309.858345 
L 379.86516 309.858345 
L 379.86516 313.039923 
L 380.62728 313.039923 
L 380.62728 315.994245 
L 381.3894 315.994245 
L 381.3894 318.2668 
L 382.15152 318.2668 
L 382.15152 319.857589 
L 382.91364 319.857589 
L 382.91364 320.993867 
L 383.67576 320.993867 
L 383.67576 321.902889 
L 384.43788 321.902889 
L 384.43788 322.130145 
L 385.2 322.130145 
L 385.2 322.130145 
" clip-path="url(#p3d51d75abd)" style="fill: none; stroke: #0000ff; stroke-width: 1.5; stroke-linecap: square"/>
   </g>
   <g id="patch_13">
    <path d="M 232.776 326.448 
L 232.776 194.208 
" style="fill: none; stroke: #000000; stroke-width: 0.8; stroke-linejoin: miter; stroke-linecap: square"/>
   </g>
   <g id="patch_14">
    <path d="M 385.2 326.448 
L 385.2 194.208 
" style="fill: none; stroke: #000000; stroke-width: 0.8; stroke-linejoin: miter; stroke-linecap: square"/>
   </g>
   <g id="patch_15">
    <path d="M 232.776 326.448 
L 385.2 326.448 
" style="fill: none; stroke: #000000; stroke-width: 0.8; stroke-linejoin: miter; stroke-linecap: square"/>
   </g>
   <g id="patch_16">
    <path d="M 232.776 194.208 
L 385.2 194.208 
" style="fill: none; stroke: #000000; stroke-width: 0.8; stroke-linejoin: miter; stroke-linecap: square"/>
   </g>
   <g id="text_16">
    <!-- $\log_{10}(\kappa C_1/$Gyr${}^{-1})$ = ${-6.1822}_{-2.6049}^{+2.7445}$ -->
    <g transform="translate(188.378 188.208) scale(0.14 -0.14)">
     <defs>
      <path id="DejaVuSans-39" d="M 703 97 
L 703 672 
Q 941 559 1184 500 
Q 1428 441 1663 441 
Q 2288 441 2617 861 
Q 2947 1281 2994 2138 
Q 2813 1869 2534 1725 
Q 2256 1581 1919 1581 
Q 1219 1581 811 2004 
Q 403 2428 403 3163 
Q 403 3881 828 4315 
Q 1253 4750 1959 4750 
Q 2769 4750 3195 4129 
Q 3622 3509 3622 2328 
Q 3622 1225 3098 567 
Q 2575 -91 1691 -91 
Q 1453 -91 1209 -44 
Q 966 3 703 97 
z
M 1959 2075 
Q 2384 2075 2632 2365 
Q 2881 2656 2881 3163 
Q 2881 3666 2632 3958 
Q 2384 4250 1959 4250 
Q 1534 4250 1286 3958 
Q 1038 3666 1038 3163 
Q 1038 2656 1286 2365 
Q 1534 2075 1959 2075 
z
" transform="scale(0.015625)"/>
     </defs>
     <use xlink:href="#DejaVuSans-6c" transform="translate(0 0.765625)"/>
     <use xlink:href="#DejaVuSans-6f" transform="translate(27.783203 0.765625)"/>
     <use xlink:href="#DejaVuSans-67" transform="translate(88.964844 0.765625)"/>
     <use xlink:href="#DejaVuSans-31" transform="translate(153.398438 -15.640625) scale(0.7)"/>
     <use xlink:href="#DejaVuSans-30" transform="translate(197.93457 -15.640625) scale(0.7)"/>
     <use xlink:href="#DejaVuSans-28" transform="translate(261.440754 0.765625)"/>
     <use xlink:href="#DejaVuSans-Oblique-3ba" transform="translate(300.454426 0.765625)"/>
     <use xlink:href="#DejaVuSans-Oblique-43" transform="translate(359.389973 0.765625)"/>
     <use xlink:href="#DejaVuSans-31" transform="translate(429.214192 -15.640625) scale(0.7)"/>
     <use xlink:href="#DejaVuSans-2f" transform="translate(476.4847 0.765625)"/>
     <use xlink:href="#DejaVuSans-47" transform="translate(510.176106 0.765625)"/>
     <use xlink:href="#DejaVuSans-79" transform="translate(587.66634 0.765625)"/>
     <use xlink:href="#DejaVuSans-72" transform="translate(646.846028 0.765625)"/>
     <use xlink:href="#DejaVuSans-2212" transform="translate(688.91634 39.046875) scale(0.7)"/>
     <use xlink:href="#DejaVuSans-31" transform="translate(747.568684 39.046875) scale(0.7)"/>
     <use xlink:href="#DejaVuSans-29" transform="translate(794.839192 0.765625)"/>
     <use xlink:href="#DejaVuSans-20" transform="translate(833.852864 0.765625)"/>
     <use xlink:href="#DejaVuSans-3d" transform="translate(865.639973 0.765625)"/>
     <use xlink:href="#DejaVuSans-20" transform="translate(949.429036 0.765625)"/>
     <use xlink:href="#DejaVuSans-2212" transform="translate(981.216145 0.765625)"/>
     <use xlink:href="#DejaVuSans-36" transform="translate(1065.005208 0.765625)"/>
     <use xlink:href="#DejaVuSans-2e" transform="translate(1128.628254 0.765625)"/>
     <use xlink:href="#DejaVuSans-31" transform="translate(1160.415364 0.765625)"/>
     <use xlink:href="#DejaVuSans-38" transform="translate(1224.038411 0.765625)"/>
     <use xlink:href="#DejaVuSans-32" transform="translate(1287.661458 0.765625)"/>
     <use xlink:href="#DejaVuSans-32" transform="translate(1351.284504 0.765625)"/>
     <use xlink:href="#DejaVuSans-2b" transform="translate(1415.864583 39.046875) scale(0.7)"/>
     <use xlink:href="#DejaVuSans-32" transform="translate(1474.516926 39.046875) scale(0.7)"/>
     <use xlink:href="#DejaVuSans-2e" transform="translate(1519.053059 39.046875) scale(0.7)"/>
     <use xlink:href="#DejaVuSans-37" transform="translate(1535.879036 39.046875) scale(0.7)"/>
     <use xlink:href="#DejaVuSans-34" transform="translate(1580.415168 39.046875) scale(0.7)"/>
     <use xlink:href="#DejaVuSans-34" transform="translate(1624.951301 39.046875) scale(0.7)"/>
     <use xlink:href="#DejaVuSans-35" transform="translate(1669.487434 39.046875) scale(0.7)"/>
     <use xlink:href="#DejaVuSans-2212" transform="translate(1415.864583 -26.578125) scale(0.7)"/>
     <use xlink:href="#DejaVuSans-32" transform="translate(1474.516926 -26.578125) scale(0.7)"/>
     <use xlink:href="#DejaVuSans-2e" transform="translate(1519.053059 -26.578125) scale(0.7)"/>
     <use xlink:href="#DejaVuSans-36" transform="translate(1541.304036 -26.578125) scale(0.7)"/>
     <use xlink:href="#DejaVuSans-30" transform="translate(1585.840168 -26.578125) scale(0.7)"/>
     <use xlink:href="#DejaVuSans-34" transform="translate(1630.376301 -26.578125) scale(0.7)"/>
     <use xlink:href="#DejaVuSans-39" transform="translate(1674.912434 -26.578125) scale(0.7)"/>
    </g>
   </g>
  </g>
 </g>
 <defs>
  <clipPath id="pa903d62a7e">
   <rect x="69.552" y="30.984" width="152.424" height="132.24"/>
  </clipPath>
  <clipPath id="p7fa3c9a454">
   <rect x="69.552" y="194.208" width="152.424" height="132.24"/>
  </clipPath>
  <clipPath id="p3d51d75abd">
   <rect x="232.776" y="194.208" width="152.424" height="132.24"/>
  </clipPath>
 </defs>
</svg>
