<?xml version="1.0" encoding="utf-8" standalone="no"?>
<!DOCTYPE svg PUBLIC "-//W3C//DTD SVG 1.1//EN"
  "http://www.w3.org/Graphics/SVG/1.1/DTD/svg11.dtd">
<svg xmlns:xlink="http://www.w3.org/1999/xlink" width="396pt" height="396pt" viewBox="0 0 396 396" xmlns="http://www.w3.org/2000/svg" version="1.1">
 <metadata>
  <rdf:RDF xmlns:dc="http://purl.org/dc/elements/1.1/" xmlns:cc="http://creativecommons.org/ns#" xmlns:rdf="http://www.w3.org/1999/02/22-rdf-syntax-ns#">
   <cc:Work>
    <dc:type rdf:resource="http://purl.org/dc/dcmitype/StillImage"/>
    <dc:date>2024-11-19T13:23:35.525225</dc:date>
    <dc:format>image/svg+xml</dc:format>
    <dc:creator>
     <cc:Agent>
      <dc:title>Matplotlib v3.9.2, https://matplotlib.org/</dc:title>
     </cc:Agent>
    </dc:creator>
   </cc:Work>
  </rdf:RDF>
 </metadata>
 <defs>
  <style type="text/css">*{stroke-linejoin: round; stroke-linecap: butt}</style>
 </defs>
 <g id="figure_1">
  <g id="patch_1">
   <path d="M 0 396 
L 396 396 
L 396 0 
L 0 0 
z
" style="fill: #ffffff"/>
  </g>
  <g id="axes_1">
   <g id="patch_2">
    <path d="M 69.552 163.224 
L 217.898541 163.224 
L 217.898541 30.984 
L 69.552 30.984 
z
" style="fill: #ffffff"/>
   </g>
   <g id="matplotlib.axis_1">
    <g id="xtick_1">
     <g id="line2d_1">
      <defs>
       <path id="m7b26bdc79a" d="M 0 0 
L 0 3.5 
" style="stroke: #000000; stroke-width: 0.8"/>
      </defs>
      <g>
       <use xlink:href="#m7b26bdc79a" x="96.551247" y="163.224" style="stroke: #000000; stroke-width: 0.8"/>
      </g>
     </g>
    </g>
    <g id="xtick_2">
     <g id="line2d_2">
      <g>
       <use xlink:href="#m7b26bdc79a" x="127.203142" y="163.224" style="stroke: #000000; stroke-width: 0.8"/>
      </g>
     </g>
    </g>
    <g id="xtick_3">
     <g id="line2d_3">
      <g>
       <use xlink:href="#m7b26bdc79a" x="157.855036" y="163.224" style="stroke: #000000; stroke-width: 0.8"/>
      </g>
     </g>
    </g>
    <g id="xtick_4">
     <g id="line2d_4">
      <g>
       <use xlink:href="#m7b26bdc79a" x="188.506931" y="163.224" style="stroke: #000000; stroke-width: 0.8"/>
      </g>
     </g>
    </g>
   </g>
   <g id="matplotlib.axis_2"/>
   <g id="line2d_5">
    <path d="M 69.552 162.917125 
L 72.518931 162.993844 
L 72.518931 163.070563 
L 74.744129 163.147281 
L 74.744129 163.224 
L 82.161456 163.147281 
L 82.161456 163.070563 
L 84.386654 162.993844 
L 84.386654 162.917125 
L 86.611852 162.840407 
L 86.611852 162.763688 
L 89.578783 162.686969 
L 89.578783 162.610251 
L 92.545714 162.533532 
L 92.545714 162.456813 
L 94.770912 162.380094 
L 94.770912 162.303376 
L 96.254377 162.226657 
L 96.254377 162.149938 
L 97.737843 162.07322 
L 97.737843 161.919782 
L 98.479575 161.919782 
L 98.479575 161.766345 
L 99.221308 161.766345 
L 99.221308 161.536189 
L 99.963041 161.536189 
L 99.963041 161.306033 
L 100.704774 161.306033 
L 100.704774 161.075877 
L 101.446506 161.075877 
L 101.446506 160.769002 
L 102.188239 160.769002 
L 102.188239 160.385409 
L 102.929972 160.385409 
L 102.929972 160.001815 
L 103.671704 160.001815 
L 103.671704 159.618222 
L 104.413437 159.618222 
L 104.413437 159.15791 
L 105.15517 159.15791 
L 105.15517 158.697597 
L 105.896902 158.697597 
L 105.896902 158.237285 
L 106.638635 158.237285 
L 106.638635 157.776973 
L 107.380368 157.776973 
L 107.380368 157.239942 
L 108.122101 157.239942 
L 108.122101 156.702912 
L 108.863833 156.702912 
L 108.863833 156.165881 
L 109.605566 156.165881 
L 109.605566 155.552131 
L 110.347299 155.552131 
L 110.347299 154.938382 
L 111.089031 154.938382 
L 111.089031 154.247914 
L 111.830764 154.247914 
L 111.830764 153.404008 
L 112.572497 153.404008 
L 112.572497 152.560103 
L 113.314229 152.560103 
L 113.314229 151.56276 
L 114.055962 151.56276 
L 114.055962 150.488698 
L 114.797695 150.488698 
L 114.797695 149.261199 
L 115.539428 149.261199 
L 115.539428 147.956981 
L 116.28116 147.956981 
L 116.28116 146.576045 
L 117.022893 146.576045 
L 117.022893 145.195109 
L 117.764626 145.195109 
L 117.764626 143.660735 
L 118.506358 143.660735 
L 118.506358 142.049643 
L 119.248091 142.049643 
L 119.248091 140.361831 
L 119.989824 140.361831 
L 119.989824 138.67402 
L 120.731557 138.67402 
L 120.731557 136.832772 
L 121.473289 136.832772 
L 121.473289 134.914805 
L 122.215022 134.914805 
L 122.215022 132.8434 
L 122.956755 132.8434 
L 122.956755 130.695277 
L 123.698487 130.695277 
L 123.698487 128.316998 
L 124.44022 128.316998 
L 124.44022 125.862 
L 125.181953 125.862 
L 125.181953 123.253564 
L 125.923685 123.253564 
L 125.923685 120.491692 
L 126.665418 120.491692 
L 126.665418 117.576382 
L 127.407151 117.576382 
L 127.407151 114.507634 
L 128.148884 114.507634 
L 128.148884 111.285449 
L 128.890616 111.285449 
L 128.890616 108.063264 
L 129.632349 108.063264 
L 129.632349 104.687642 
L 130.374082 104.687642 
L 130.374082 101.31202 
L 131.115814 101.31202 
L 131.115814 97.859679 
L 131.857547 97.859679 
L 131.857547 94.560776 
L 132.59928 94.560776 
L 132.59928 91.261872 
L 133.341012 91.261872 
L 133.341012 88.039687 
L 134.082745 88.039687 
L 134.082745 84.97094 
L 134.824478 84.97094 
L 134.824478 81.978911 
L 135.566211 81.978911 
L 135.566211 78.986882 
L 136.307943 78.986882 
L 136.307943 76.148291 
L 137.049676 76.148291 
L 137.049676 73.232981 
L 137.791409 73.232981 
L 137.791409 70.394389 
L 138.533141 70.394389 
L 138.533141 67.479079 
L 139.274874 67.479079 
L 139.274874 64.717206 
L 140.016607 64.717206 
L 140.016607 61.955334 
L 140.75834 61.955334 
L 140.75834 59.346898 
L 141.500072 59.346898 
L 141.500072 56.8919 
L 142.241805 56.8919 
L 142.241805 54.667059 
L 142.983538 54.667059 
L 142.983538 52.595654 
L 143.72527 52.595654 
L 143.72527 50.831124 
L 144.467003 50.831124 
L 144.467003 49.220032 
L 145.208736 49.220032 
L 145.208736 47.839095 
L 145.950468 47.839095 
L 145.950468 46.611596 
L 146.692201 46.611596 
L 146.692201 45.537535 
L 147.433934 45.537535 
L 147.433934 44.616911 
L 148.175667 44.616911 
L 148.175667 43.849724 
L 148.917399 43.849724 
L 148.917399 43.312693 
L 149.659132 43.312693 
L 149.659132 43.082537 
L 151.142597 43.005818 
L 151.142597 43.312693 
L 151.88433 43.312693 
L 151.88433 43.849724 
L 152.626063 43.849724 
L 152.626063 44.616911 
L 153.367795 44.616911 
L 153.367795 45.690972 
L 154.109528 45.690972 
L 154.109528 46.99519 
L 154.851261 46.99519 
L 154.851261 48.452845 
L 155.592994 48.452845 
L 155.592994 50.063937 
L 156.334726 50.063937 
L 156.334726 51.905186 
L 157.076459 51.905186 
L 157.076459 53.899872 
L 157.818192 53.899872 
L 157.818192 56.047995 
L 158.559924 56.047995 
L 158.559924 58.272837 
L 159.301657 58.272837 
L 159.301657 60.727835 
L 160.04339 60.727835 
L 160.04339 63.33627 
L 160.785122 63.33627 
L 160.785122 66.021424 
L 161.526855 66.021424 
L 161.526855 68.783297 
L 162.268588 68.783297 
L 162.268588 71.698607 
L 163.010321 71.698607 
L 163.010321 74.613917 
L 163.752053 74.613917 
L 163.752053 77.529227 
L 164.493786 77.529227 
L 164.493786 80.521256 
L 165.235519 80.521256 
L 165.235519 83.590003 
L 165.977251 83.590003 
L 165.977251 86.658751 
L 166.718984 86.658751 
L 166.718984 89.804217 
L 167.460717 89.804217 
L 167.460717 92.949683 
L 168.20245 92.949683 
L 168.20245 96.171868 
L 168.944182 96.171868 
L 168.944182 99.317334 
L 169.685915 99.317334 
L 169.685915 102.4628 
L 170.427648 102.4628 
L 170.427648 105.531548 
L 171.16938 105.531548 
L 171.16938 108.446858 
L 171.911113 108.446858 
L 171.911113 111.285449 
L 172.652846 111.285449 
L 172.652846 114.047322 
L 173.394578 114.047322 
L 173.394578 116.732476 
L 174.136311 116.732476 
L 174.136311 119.264193 
L 174.878044 119.264193 
L 174.878044 121.719191 
L 175.619777 121.719191 
L 175.619777 124.174189 
L 176.361509 124.174189 
L 176.361509 126.629187 
L 177.103242 126.629187 
L 177.103242 129.084184 
L 177.844975 129.084184 
L 177.844975 131.462464 
L 178.586707 131.462464 
L 178.586707 133.840743 
L 179.32844 133.840743 
L 179.32844 136.065585 
L 180.070173 136.065585 
L 180.070173 138.290427 
L 180.811905 138.290427 
L 180.811905 140.285113 
L 181.553638 140.285113 
L 181.553638 142.126361 
L 182.295371 142.126361 
L 182.295371 143.814172 
L 183.037104 143.814172 
L 183.037104 145.425265 
L 183.778836 145.425265 
L 183.778836 146.806201 
L 184.520569 146.806201 
L 184.520569 148.0337 
L 185.262302 148.0337 
L 185.262302 149.18448 
L 186.004034 149.18448 
L 186.004034 150.258542 
L 186.745767 150.258542 
L 186.745767 151.332604 
L 187.4875 151.332604 
L 187.4875 152.253228 
L 188.229233 152.253228 
L 188.229233 153.173852 
L 188.970965 153.173852 
L 188.970965 154.094476 
L 189.712698 154.094476 
L 189.712698 154.861663 
L 190.454431 154.861663 
L 190.454431 155.705569 
L 191.196163 155.705569 
L 191.196163 156.396037 
L 191.937896 156.396037 
L 191.937896 157.086505 
L 192.679629 157.086505 
L 192.679629 157.700255 
L 193.421361 157.700255 
L 193.421361 158.314004 
L 194.163094 158.314004 
L 194.163094 158.851035 
L 194.904827 158.851035 
L 194.904827 159.311347 
L 195.64656 159.311347 
L 195.64656 159.771659 
L 196.388292 159.771659 
L 196.388292 160.155253 
L 197.130025 160.155253 
L 197.130025 160.462127 
L 197.871758 160.462127 
L 197.871758 160.769002 
L 198.61349 160.769002 
L 198.61349 160.999158 
L 199.355223 160.999158 
L 199.355223 161.229314 
L 200.096956 161.229314 
L 200.096956 161.45947 
L 200.838688 161.45947 
L 200.838688 161.612908 
L 201.580421 161.612908 
L 201.580421 161.766345 
L 202.322154 161.766345 
L 202.322154 161.996501 
L 203.063887 161.996501 
L 203.063887 162.149938 
L 204.547352 162.226657 
L 204.547352 162.380094 
L 205.289085 162.380094 
L 205.289085 162.533532 
L 206.030817 162.533532 
L 206.030817 162.686969 
L 207.514283 162.763688 
L 207.514283 162.840407 
L 208.997748 162.917125 
L 208.997748 162.993844 
L 211.222946 163.070563 
L 211.222946 163.147281 
L 217.898541 163.224 
L 217.898541 163.224 
" clip-path="url(#p6607944b45)" style="fill: none; stroke: #00bfbf; stroke-width: 1.5; stroke-linecap: square"/>
   </g>
   <g id="patch_3">
    <path d="M 69.552 163.224 
L 69.552 30.984 
" style="fill: none; stroke: #000000; stroke-width: 0.8; stroke-linejoin: miter; stroke-linecap: square"/>
   </g>
   <g id="patch_4">
    <path d="M 217.898541 163.224 
L 217.898541 30.984 
" style="fill: none; stroke: #000000; stroke-width: 0.8; stroke-linejoin: miter; stroke-linecap: square"/>
   </g>
   <g id="patch_5">
    <path d="M 69.552 163.224 
L 217.898541 163.224 
" style="fill: none; stroke: #000000; stroke-width: 0.8; stroke-linejoin: miter; stroke-linecap: square"/>
   </g>
   <g id="patch_6">
    <path d="M 69.552 30.984 
L 217.898541 30.984 
" style="fill: none; stroke: #000000; stroke-width: 0.8; stroke-linejoin: miter; stroke-linecap: square"/>
   </g>
   <g id="text_1">
    <!-- $\Omega_{2,0}$ = ${0.3226}_{-0.0163}^{+0.0163}$ -->
    <g transform="translate(73.02527 24.984) scale(0.14 -0.14)">
     <defs>
      <path id="DejaVuSans-3a9" d="M 4647 556 
L 4647 0 
L 2772 0 
L 2772 556 
Q 3325 859 3634 1378 
Q 3944 1897 3944 2528 
Q 3944 3278 3531 3731 
Q 3119 4184 2444 4184 
Q 1769 4184 1355 3729 
Q 941 3275 941 2528 
Q 941 1897 1250 1378 
Q 1563 859 2119 556 
L 2119 0 
L 244 0 
L 244 556 
L 1241 556 
Q 747 991 519 1456 
Q 294 1922 294 2497 
Q 294 3491 894 4106 
Q 1491 4722 2444 4722 
Q 3391 4722 3994 4106 
Q 4594 3494 4594 2528 
Q 4594 1922 4372 1459 
Q 4150 997 3647 556 
L 4647 556 
z
" transform="scale(0.015625)"/>
      <path id="DejaVuSans-32" d="M 1228 531 
L 3431 531 
L 3431 0 
L 469 0 
L 469 531 
Q 828 903 1448 1529 
Q 2069 2156 2228 2338 
Q 2531 2678 2651 2914 
Q 2772 3150 2772 3378 
Q 2772 3750 2511 3984 
Q 2250 4219 1831 4219 
Q 1534 4219 1204 4116 
Q 875 4013 500 3803 
L 500 4441 
Q 881 4594 1212 4672 
Q 1544 4750 1819 4750 
Q 2544 4750 2975 4387 
Q 3406 4025 3406 3419 
Q 3406 3131 3298 2873 
Q 3191 2616 2906 2266 
Q 2828 2175 2409 1742 
Q 1991 1309 1228 531 
z
" transform="scale(0.015625)"/>
      <path id="DejaVuSans-2c" d="M 750 794 
L 1409 794 
L 1409 256 
L 897 -744 
L 494 -744 
L 750 256 
L 750 794 
z
" transform="scale(0.015625)"/>
      <path id="DejaVuSans-30" d="M 2034 4250 
Q 1547 4250 1301 3770 
Q 1056 3291 1056 2328 
Q 1056 1369 1301 889 
Q 1547 409 2034 409 
Q 2525 409 2770 889 
Q 3016 1369 3016 2328 
Q 3016 3291 2770 3770 
Q 2525 4250 2034 4250 
z
M 2034 4750 
Q 2819 4750 3233 4129 
Q 3647 3509 3647 2328 
Q 3647 1150 3233 529 
Q 2819 -91 2034 -91 
Q 1250 -91 836 529 
Q 422 1150 422 2328 
Q 422 3509 836 4129 
Q 1250 4750 2034 4750 
z
" transform="scale(0.015625)"/>
      <path id="DejaVuSans-20" transform="scale(0.015625)"/>
      <path id="DejaVuSans-3d" d="M 678 2906 
L 4684 2906 
L 4684 2381 
L 678 2381 
L 678 2906 
z
M 678 1631 
L 4684 1631 
L 4684 1100 
L 678 1100 
L 678 1631 
z
" transform="scale(0.015625)"/>
      <path id="DejaVuSans-2e" d="M 684 794 
L 1344 794 
L 1344 0 
L 684 0 
L 684 794 
z
" transform="scale(0.015625)"/>
      <path id="DejaVuSans-33" d="M 2597 2516 
Q 3050 2419 3304 2112 
Q 3559 1806 3559 1356 
Q 3559 666 3084 287 
Q 2609 -91 1734 -91 
Q 1441 -91 1130 -33 
Q 819 25 488 141 
L 488 750 
Q 750 597 1062 519 
Q 1375 441 1716 441 
Q 2309 441 2620 675 
Q 2931 909 2931 1356 
Q 2931 1769 2642 2001 
Q 2353 2234 1838 2234 
L 1294 2234 
L 1294 2753 
L 1863 2753 
Q 2328 2753 2575 2939 
Q 2822 3125 2822 3475 
Q 2822 3834 2567 4026 
Q 2313 4219 1838 4219 
Q 1578 4219 1281 4162 
Q 984 4106 628 3988 
L 628 4550 
Q 988 4650 1302 4700 
Q 1616 4750 1894 4750 
Q 2613 4750 3031 4423 
Q 3450 4097 3450 3541 
Q 3450 3153 3228 2886 
Q 3006 2619 2597 2516 
z
" transform="scale(0.015625)"/>
      <path id="DejaVuSans-36" d="M 2113 2584 
Q 1688 2584 1439 2293 
Q 1191 2003 1191 1497 
Q 1191 994 1439 701 
Q 1688 409 2113 409 
Q 2538 409 2786 701 
Q 3034 994 3034 1497 
Q 3034 2003 2786 2293 
Q 2538 2584 2113 2584 
z
M 3366 4563 
L 3366 3988 
Q 3128 4100 2886 4159 
Q 2644 4219 2406 4219 
Q 1781 4219 1451 3797 
Q 1122 3375 1075 2522 
Q 1259 2794 1537 2939 
Q 1816 3084 2150 3084 
Q 2853 3084 3261 2657 
Q 3669 2231 3669 1497 
Q 3669 778 3244 343 
Q 2819 -91 2113 -91 
Q 1303 -91 875 529 
Q 447 1150 447 2328 
Q 447 3434 972 4092 
Q 1497 4750 2381 4750 
Q 2619 4750 2861 4703 
Q 3103 4656 3366 4563 
z
" transform="scale(0.015625)"/>
      <path id="DejaVuSans-2b" d="M 2944 4013 
L 2944 2272 
L 4684 2272 
L 4684 1741 
L 2944 1741 
L 2944 0 
L 2419 0 
L 2419 1741 
L 678 1741 
L 678 2272 
L 2419 2272 
L 2419 4013 
L 2944 4013 
z
" transform="scale(0.015625)"/>
      <path id="DejaVuSans-31" d="M 794 531 
L 1825 531 
L 1825 4091 
L 703 3866 
L 703 4441 
L 1819 4666 
L 2450 4666 
L 2450 531 
L 3481 531 
L 3481 0 
L 794 0 
L 794 531 
z
" transform="scale(0.015625)"/>
      <path id="DejaVuSans-2212" d="M 678 2272 
L 4684 2272 
L 4684 1741 
L 678 1741 
L 678 2272 
z
" transform="scale(0.015625)"/>
     </defs>
     <use xlink:href="#DejaVuSans-3a9" transform="translate(0 0.765625)"/>
     <use xlink:href="#DejaVuSans-32" transform="translate(77.373047 -15.640625) scale(0.7)"/>
     <use xlink:href="#DejaVuSans-2c" transform="translate(121.90918 -15.640625) scale(0.7)"/>
     <use xlink:href="#DejaVuSans-30" transform="translate(157.797852 -15.640625) scale(0.7)"/>
     <use xlink:href="#DejaVuSans-20" transform="translate(205.068359 0.765625)"/>
     <use xlink:href="#DejaVuSans-3d" transform="translate(236.855469 0.765625)"/>
     <use xlink:href="#DejaVuSans-20" transform="translate(320.644531 0.765625)"/>
     <use xlink:href="#DejaVuSans-30" transform="translate(352.431641 0.765625)"/>
     <use xlink:href="#DejaVuSans-2e" transform="translate(416.054688 0.765625)"/>
     <use xlink:href="#DejaVuSans-33" transform="translate(447.841797 0.765625)"/>
     <use xlink:href="#DejaVuSans-32" transform="translate(511.464844 0.765625)"/>
     <use xlink:href="#DejaVuSans-32" transform="translate(575.087891 0.765625)"/>
     <use xlink:href="#DejaVuSans-36" transform="translate(638.710938 0.765625)"/>
     <use xlink:href="#DejaVuSans-2b" transform="translate(703.291016 39.046875) scale(0.7)"/>
     <use xlink:href="#DejaVuSans-30" transform="translate(761.943359 39.046875) scale(0.7)"/>
     <use xlink:href="#DejaVuSans-2e" transform="translate(806.479492 39.046875) scale(0.7)"/>
     <use xlink:href="#DejaVuSans-30" transform="translate(828.730469 39.046875) scale(0.7)"/>
     <use xlink:href="#DejaVuSans-31" transform="translate(873.266602 39.046875) scale(0.7)"/>
     <use xlink:href="#DejaVuSans-36" transform="translate(917.802734 39.046875) scale(0.7)"/>
     <use xlink:href="#DejaVuSans-33" transform="translate(962.338867 39.046875) scale(0.7)"/>
     <use xlink:href="#DejaVuSans-2212" transform="translate(703.291016 -26.578125) scale(0.7)"/>
     <use xlink:href="#DejaVuSans-30" transform="translate(761.943359 -26.578125) scale(0.7)"/>
     <use xlink:href="#DejaVuSans-2e" transform="translate(806.479492 -26.578125) scale(0.7)"/>
     <use xlink:href="#DejaVuSans-30" transform="translate(828.730469 -26.578125) scale(0.7)"/>
     <use xlink:href="#DejaVuSans-31" transform="translate(873.266602 -26.578125) scale(0.7)"/>
     <use xlink:href="#DejaVuSans-36" transform="translate(917.802734 -26.578125) scale(0.7)"/>
     <use xlink:href="#DejaVuSans-33" transform="translate(962.338867 -26.578125) scale(0.7)"/>
    </g>
   </g>
  </g>
  <g id="axes_2">
   <g id="matplotlib.axis_3"/>
   <g id="matplotlib.axis_4"/>
  </g>
  <g id="axes_3">
   <g id="patch_7">
    <path d="M 69.552 326.448 
L 217.898541 326.448 
L 217.898541 194.208 
L 69.552 194.208 
z
" style="fill: #ffffff"/>
   </g>
   <g id="QuadContourSet_1">
    <path d="M 118.506358 328.328352 
L 121.473289 328.902662 
L 124.44022 329.181998 
L 127.407151 329.544557 
L 130.374082 329.842835 
L 133.341012 329.982088 
L 136.307943 330.019652 
L 139.274874 330.019757 
L 142.241805 330.037727 
L 145.208736 330.071887 
L 148.175667 330.103221 
L 151.142597 330.130452 
L 154.109528 330.146253 
L 157.076459 330.150178 
L 160.04339 330.124837 
L 163.010321 330.061453 
L 165.977251 330.011192 
L 168.944182 329.971735 
L 171.911113 329.890497 
L 174.878044 329.743882 
L 177.844975 329.497896 
L 180.811905 329.055412 
L 183.778836 328.41147 
L 186.745767 327.969426 
L 187.777592 327.7704 
L 187.777592 325.1256 
L 186.979169 322.4808 
L 186.745767 322.001184 
L 186.022711 319.836 
L 185.511524 317.1912 
L 185.543753 314.5464 
L 185.742892 311.9016 
L 186.131306 309.2568 
L 186.586944 306.612 
L 186.511716 303.9672 
L 186.415105 301.3224 
L 186.745767 298.6776 
L 186.745767 298.6776 
L 187.00507 296.0328 
L 187.592708 293.388 
L 187.564638 290.7432 
L 186.745767 288.615073 
L 186.631441 288.0984 
L 186.630888 285.4536 
L 186.745767 283.585088 
L 186.84467 282.8088 
L 187.037097 280.164 
L 187.192601 277.5192 
L 187.331609 274.8744 
L 186.745767 273.021556 
L 186.459743 272.2296 
L 185.99478 269.5848 
L 186.337033 266.94 
L 186.715055 264.2952 
L 186.745767 264.235664 
L 187.915808 261.6504 
L 188.812257 259.0056 
L 188.943193 256.3608 
L 188.783796 253.716 
L 187.964417 251.0712 
L 186.745767 249.047426 
L 186.463497 248.4264 
L 186.068596 245.7816 
L 186.745767 243.531344 
L 186.920332 243.1368 
L 187.86085 240.492 
L 186.745767 238.398826 
L 186.372819 237.8472 
L 184.859461 235.2024 
L 185.166976 232.5576 
L 185.36488 229.9128 
L 184.744597 227.268 
L 183.833013 224.6232 
L 183.778836 224.457131 
L 183.095558 221.9784 
L 182.139027 219.3336 
L 181.229221 216.6888 
L 180.811905 215.346564 
L 180.15376 214.044 
L 177.844975 212.931424 
L 174.878044 212.233574 
L 173.348208 211.3992 
L 171.911113 210.622744 
L 168.944182 209.354175 
L 167.343603 208.7544 
L 165.977251 208.075733 
L 163.010321 206.326393 
L 162.639453 206.1096 
L 160.04339 204.463129 
L 157.304981 203.4648 
L 157.076459 203.369477 
L 154.109528 202.743809 
L 151.142597 202.764861 
L 148.175667 202.639712 
L 145.208736 201.829414 
L 142.241805 201.076429 
L 139.378867 200.82 
L 139.274874 200.805532 
L 136.307943 200.497651 
L 133.341012 200.0023 
L 130.374082 199.767605 
L 127.407151 199.673278 
L 124.44022 199.491955 
L 121.473289 199.069373 
L 118.506358 198.78932 
L 115.539428 199.377985 
L 112.572497 200.292441 
L 110.46255 200.82 
L 109.605566 201.676269 
L 108.276949 203.4648 
L 109.605566 205.77827 
L 109.710557 206.1096 
L 111.238754 208.7544 
L 112.572497 210.705091 
L 112.869701 211.3992 
L 113.595675 214.044 
L 113.980303 216.6888 
L 114.855209 219.3336 
L 115.539428 220.692409 
L 116.143689 221.9784 
L 116.64923 224.6232 
L 117.124133 227.268 
L 117.362012 229.9128 
L 117.229528 232.5576 
L 116.609319 235.2024 
L 115.864304 237.8472 
L 115.893308 240.492 
L 115.617613 243.1368 
L 115.539428 243.631333 
L 115.192445 245.7816 
L 115.31586 248.4264 
L 115.539428 250.128213 
L 115.650322 251.0712 
L 115.762424 253.716 
L 115.82495 256.3608 
L 115.862678 259.0056 
L 115.62167 261.6504 
L 115.539428 262.540027 
L 115.277697 264.2952 
L 114.970298 266.94 
L 115.191728 269.5848 
L 115.539428 270.511571 
L 115.870312 272.2296 
L 116.271554 274.8744 
L 116.303986 277.5192 
L 116.019121 280.164 
L 115.548518 282.8088 
L 115.539428 282.871445 
L 115.128603 285.4536 
L 114.879885 288.0984 
L 115.095304 290.7432 
L 115.539428 292.672955 
L 115.654322 293.388 
L 115.900772 296.0328 
L 115.987716 298.6776 
L 116.480992 301.3224 
L 117.212115 303.9672 
L 117.518131 306.612 
L 117.927162 309.2568 
L 118.115508 311.9016 
L 117.723311 314.5464 
L 117.225481 317.1912 
L 116.630636 319.836 
L 116.51768 322.4808 
L 117.051078 325.1256 
L 117.051078 327.7704 
z
" clip-path="url(#pc4936ac433)" style="fill: #ffffff"/>
   </g>
   <g id="QuadContourSet_2">
    <path d="M 68.068535 330.4152 
L 71.035465 330.4152 
L 74.002396 330.4152 
L 76.969327 330.4152 
L 79.936258 330.4152 
L 82.903189 330.4152 
L 85.870119 330.4152 
L 88.83705 330.4152 
L 91.803981 330.4152 
L 94.770912 330.4152 
L 97.737843 330.4152 
L 100.704774 330.4152 
L 103.671704 330.4152 
L 106.638635 330.4152 
L 109.605566 330.4152 
L 112.572497 330.4152 
L 115.539428 330.4152 
L 118.506358 330.4152 
L 121.473289 330.4152 
L 124.44022 330.4152 
L 127.407151 330.4152 
L 130.374082 330.4152 
L 133.341012 330.4152 
L 136.307943 330.4152 
L 139.274874 330.4152 
L 142.241805 330.4152 
L 145.208736 330.4152 
L 148.175667 330.4152 
L 151.142597 330.4152 
L 154.109528 330.4152 
L 157.076459 330.4152 
L 160.04339 330.4152 
L 163.010321 330.4152 
L 165.977251 330.4152 
L 168.944182 330.4152 
L 171.911113 330.4152 
L 174.878044 330.4152 
L 177.844975 330.4152 
L 180.811905 330.4152 
L 183.778836 330.4152 
L 186.745767 330.4152 
L 189.712698 330.4152 
L 192.679629 330.4152 
L 195.64656 330.4152 
L 198.61349 330.4152 
L 201.580421 330.4152 
L 204.547352 330.4152 
L 207.514283 330.4152 
L 210.481214 330.4152 
L 213.448144 330.4152 
L 216.415075 330.4152 
L 219.382006 330.4152 
L 222.348937 330.4152 
L 222.348937 327.7704 
L 222.348937 325.1256 
L 222.348937 322.4808 
L 222.348937 319.836 
L 222.348937 317.1912 
L 222.348937 314.5464 
L 222.348937 311.9016 
L 222.348937 309.2568 
L 222.348937 306.612 
L 222.348937 303.9672 
L 222.348937 301.3224 
L 222.348937 298.6776 
L 222.348937 296.0328 
L 222.348937 293.388 
L 222.348937 290.7432 
L 222.348937 288.0984 
L 222.348937 285.4536 
L 222.348937 282.8088 
L 222.348937 280.164 
L 222.348937 277.5192 
L 222.348937 274.8744 
L 222.348937 272.2296 
L 222.348937 269.5848 
L 222.348937 266.94 
L 222.348937 264.2952 
L 222.348937 261.6504 
L 222.348937 259.0056 
L 222.348937 256.3608 
L 222.348937 253.716 
L 222.348937 251.0712 
L 222.348937 248.4264 
L 222.348937 245.7816 
L 222.348937 243.1368 
L 222.348937 240.492 
L 222.348937 237.8472 
L 222.348937 235.2024 
L 222.348937 232.5576 
L 222.348937 229.9128 
L 222.348937 227.268 
L 222.348937 224.6232 
L 222.348937 221.9784 
L 222.348937 219.3336 
L 222.348937 216.6888 
L 222.348937 214.044 
L 222.348937 211.3992 
L 222.348937 208.7544 
L 222.348937 206.1096 
L 222.348937 203.4648 
L 222.348937 200.82 
L 222.348937 198.1752 
L 222.348937 195.5304 
L 222.348937 192.8856 
L 222.348937 190.2408 
L 219.382006 190.2408 
L 216.415075 190.2408 
L 213.448144 190.2408 
L 210.481214 190.2408 
L 207.514283 190.2408 
L 204.547352 190.2408 
L 201.580421 190.2408 
L 198.61349 190.2408 
L 195.64656 190.2408 
L 192.679629 190.2408 
L 189.712698 190.2408 
L 186.745767 190.2408 
L 183.778836 190.2408 
L 180.811905 190.2408 
L 177.844975 190.2408 
L 174.878044 190.2408 
L 171.911113 190.2408 
L 168.944182 190.2408 
L 165.977251 190.2408 
L 163.010321 190.2408 
L 160.04339 190.2408 
L 157.076459 190.2408 
L 154.109528 190.2408 
L 151.142597 190.2408 
L 148.175667 190.2408 
L 145.208736 190.2408 
L 142.241805 190.2408 
L 139.274874 190.2408 
L 136.307943 190.2408 
L 133.341012 190.2408 
L 130.374082 190.2408 
L 127.407151 190.2408 
L 124.44022 190.2408 
L 121.473289 190.2408 
L 118.506358 190.2408 
L 115.539428 190.2408 
L 112.572497 190.2408 
L 109.605566 190.2408 
L 106.638635 190.2408 
L 103.671704 190.2408 
L 100.704774 190.2408 
L 97.737843 190.2408 
L 94.770912 190.2408 
L 91.803981 190.2408 
L 88.83705 190.2408 
L 85.870119 190.2408 
L 82.903189 190.2408 
L 79.936258 190.2408 
L 76.969327 190.2408 
L 74.002396 190.2408 
L 71.035465 190.2408 
L 68.068535 190.2408 
L 65.101604 190.2408 
L 65.101604 192.8856 
L 65.101604 195.5304 
L 65.101604 198.1752 
L 65.101604 200.82 
L 65.101604 203.4648 
L 65.101604 206.1096 
L 65.101604 208.7544 
L 65.101604 211.3992 
L 65.101604 214.044 
L 65.101604 216.6888 
L 65.101604 219.3336 
L 65.101604 221.9784 
L 65.101604 224.6232 
L 65.101604 227.268 
L 65.101604 229.9128 
L 65.101604 232.5576 
L 65.101604 235.2024 
L 65.101604 237.8472 
L 65.101604 240.492 
L 65.101604 243.1368 
L 65.101604 245.7816 
L 65.101604 248.4264 
L 65.101604 251.0712 
L 65.101604 253.716 
L 65.101604 256.3608 
L 65.101604 259.0056 
L 65.101604 261.6504 
L 65.101604 264.2952 
L 65.101604 266.94 
L 65.101604 269.5848 
L 65.101604 272.2296 
L 65.101604 274.8744 
L 65.101604 277.5192 
L 65.101604 280.164 
L 65.101604 282.8088 
L 65.101604 285.4536 
L 65.101604 288.0984 
L 65.101604 290.7432 
L 65.101604 293.388 
L 65.101604 296.0328 
L 65.101604 298.6776 
L 65.101604 301.3224 
L 65.101604 303.9672 
L 65.101604 306.612 
L 65.101604 309.2568 
L 65.101604 311.9016 
L 65.101604 314.5464 
L 65.101604 317.1912 
L 65.101604 319.836 
L 65.101604 322.4808 
L 65.101604 325.1256 
L 65.101604 327.7704 
L 65.101604 330.4152 
L 68.068535 330.4152 
z
M 117.051078 327.7704 
L 117.051078 325.1256 
L 116.51768 322.4808 
L 116.630636 319.836 
L 117.225481 317.1912 
L 117.723311 314.5464 
L 118.115508 311.9016 
L 117.927162 309.2568 
L 117.518131 306.612 
L 117.212115 303.9672 
L 116.480992 301.3224 
L 115.987716 298.6776 
L 115.900772 296.0328 
L 115.654322 293.388 
L 115.539428 292.672955 
L 115.095304 290.7432 
L 114.879885 288.0984 
L 115.128603 285.4536 
L 115.539428 282.871445 
L 115.548518 282.8088 
L 116.019121 280.164 
L 116.303986 277.5192 
L 116.271554 274.8744 
L 115.870312 272.2296 
L 115.539428 270.511571 
L 115.191728 269.5848 
L 114.970298 266.94 
L 115.277697 264.2952 
L 115.539428 262.540027 
L 115.62167 261.6504 
L 115.862678 259.0056 
L 115.82495 256.3608 
L 115.762424 253.716 
L 115.650322 251.0712 
L 115.539428 250.128213 
L 115.31586 248.4264 
L 115.192445 245.7816 
L 115.539428 243.631333 
L 115.617613 243.1368 
L 115.893308 240.492 
L 115.864304 237.8472 
L 116.609319 235.2024 
L 117.229528 232.5576 
L 117.362012 229.9128 
L 117.124133 227.268 
L 116.64923 224.6232 
L 116.143689 221.9784 
L 115.539428 220.692409 
L 114.855209 219.3336 
L 113.980303 216.6888 
L 113.595675 214.044 
L 112.869701 211.3992 
L 112.572497 210.705091 
L 111.238754 208.7544 
L 109.710557 206.1096 
L 109.605566 205.77827 
L 108.276949 203.4648 
L 109.605566 201.676269 
L 110.46255 200.82 
L 112.572497 200.292441 
L 115.539428 199.377985 
L 118.506358 198.78932 
L 121.473289 199.069373 
L 124.44022 199.491955 
L 127.407151 199.673278 
L 130.374082 199.767605 
L 133.341012 200.0023 
L 136.307943 200.497651 
L 139.274874 200.805532 
L 139.378867 200.82 
L 142.241805 201.076429 
L 145.208736 201.829414 
L 148.175667 202.639712 
L 151.142597 202.764861 
L 154.109528 202.743809 
L 157.076459 203.369477 
L 157.304981 203.4648 
L 160.04339 204.463129 
L 162.639453 206.1096 
L 163.010321 206.326393 
L 165.977251 208.075733 
L 167.343603 208.7544 
L 168.944182 209.354175 
L 171.911113 210.622744 
L 173.348208 211.3992 
L 174.878044 212.233574 
L 177.844975 212.931424 
L 180.15376 214.044 
L 180.811905 215.346564 
L 181.229221 216.6888 
L 182.139027 219.3336 
L 183.095558 221.9784 
L 183.778836 224.457131 
L 183.833013 224.6232 
L 184.744597 227.268 
L 185.36488 229.9128 
L 185.166976 232.5576 
L 184.859461 235.2024 
L 186.372819 237.8472 
L 186.745767 238.398826 
L 187.86085 240.492 
L 186.920332 243.1368 
L 186.745767 243.531344 
L 186.068596 245.7816 
L 186.463497 248.4264 
L 186.745767 249.047426 
L 187.964417 251.0712 
L 188.783796 253.716 
L 188.943193 256.3608 
L 188.812257 259.0056 
L 187.915808 261.6504 
L 186.745767 264.235664 
L 186.715055 264.2952 
L 186.337033 266.94 
L 185.99478 269.5848 
L 186.459743 272.2296 
L 186.745767 273.021556 
L 187.331609 274.8744 
L 187.192601 277.5192 
L 187.037097 280.164 
L 186.84467 282.8088 
L 186.745767 283.585088 
L 186.630888 285.4536 
L 186.631441 288.0984 
L 186.745767 288.615073 
L 187.564638 290.7432 
L 187.592708 293.388 
L 187.00507 296.0328 
L 186.745767 298.6776 
L 186.745767 298.6776 
L 186.415105 301.3224 
L 186.511716 303.9672 
L 186.586944 306.612 
L 186.131306 309.2568 
L 185.742892 311.9016 
L 185.543753 314.5464 
L 185.511524 317.1912 
L 186.022711 319.836 
L 186.745767 322.001184 
L 186.979169 322.4808 
L 187.777592 325.1256 
L 187.777592 327.7704 
L 186.745767 327.969426 
L 183.778836 328.41147 
L 180.811905 329.055412 
L 177.844975 329.497896 
L 174.878044 329.743882 
L 171.911113 329.890497 
L 168.944182 329.971735 
L 165.977251 330.011192 
L 163.010321 330.061453 
L 160.04339 330.124837 
L 157.076459 330.150178 
L 154.109528 330.146253 
L 151.142597 330.130452 
L 148.175667 330.103221 
L 145.208736 330.071887 
L 142.241805 330.037727 
L 139.274874 330.019757 
L 136.307943 330.019652 
L 133.341012 329.982088 
L 130.374082 329.842835 
L 127.407151 329.544557 
L 124.44022 329.181998 
L 121.473289 328.902662 
L 118.506358 328.328352 
L 117.051078 327.7704 
z
" clip-path="url(#pc4936ac433)" style="fill: none"/>
    <path d="M 118.506358 328.328352 
L 121.473289 328.902662 
L 124.44022 329.181998 
L 127.407151 329.544557 
L 130.374082 329.842835 
L 133.341012 329.982088 
L 136.307943 330.019652 
L 139.274874 330.019757 
L 142.241805 330.037727 
L 145.208736 330.071887 
L 148.175667 330.103221 
L 151.142597 330.130452 
L 154.109528 330.146253 
L 157.076459 330.150178 
L 160.04339 330.124837 
L 163.010321 330.061453 
L 165.977251 330.011192 
L 168.944182 329.971735 
L 171.911113 329.890497 
L 174.878044 329.743882 
L 177.844975 329.497896 
L 180.811905 329.055412 
L 183.778836 328.41147 
L 186.745767 327.969426 
L 187.777592 327.7704 
L 187.777592 325.1256 
L 186.979169 322.4808 
L 186.745767 322.001184 
L 186.022711 319.836 
L 185.511524 317.1912 
L 185.543753 314.5464 
L 185.742892 311.9016 
L 186.131306 309.2568 
L 186.586944 306.612 
L 186.511716 303.9672 
L 186.415105 301.3224 
L 186.745767 298.6776 
L 186.745767 298.6776 
L 187.00507 296.0328 
L 187.592708 293.388 
L 187.564638 290.7432 
L 186.745767 288.615073 
L 186.631441 288.0984 
L 186.630888 285.4536 
L 186.745767 283.585088 
L 186.84467 282.8088 
L 187.037097 280.164 
L 187.192601 277.5192 
L 187.331609 274.8744 
L 186.745767 273.021556 
L 186.459743 272.2296 
L 185.99478 269.5848 
L 186.337033 266.94 
L 186.715055 264.2952 
L 186.745767 264.235664 
L 187.915808 261.6504 
L 188.812257 259.0056 
L 188.943193 256.3608 
L 188.783796 253.716 
L 187.964417 251.0712 
L 186.745767 249.047426 
L 186.463497 248.4264 
L 186.068596 245.7816 
L 186.745767 243.531344 
L 186.920332 243.1368 
L 187.86085 240.492 
L 186.745767 238.398826 
L 186.372819 237.8472 
L 184.859461 235.2024 
L 185.166976 232.5576 
L 185.36488 229.9128 
L 184.744597 227.268 
L 183.833013 224.6232 
L 183.778836 224.457131 
L 183.095558 221.9784 
L 182.139027 219.3336 
L 181.229221 216.6888 
L 180.811905 215.346564 
L 180.15376 214.044 
L 177.844975 212.931424 
L 174.878044 212.233574 
L 173.348208 211.3992 
L 171.911113 210.622744 
L 168.944182 209.354175 
L 167.343603 208.7544 
L 165.977251 208.075733 
L 163.010321 206.326393 
L 162.639453 206.1096 
L 160.04339 204.463129 
L 157.304981 203.4648 
L 157.076459 203.369477 
L 154.109528 202.743809 
L 151.142597 202.764861 
L 148.175667 202.639712 
L 145.208736 201.829414 
L 142.241805 201.076429 
L 139.378867 200.82 
L 139.274874 200.805532 
L 136.307943 200.497651 
L 133.341012 200.0023 
L 130.374082 199.767605 
L 127.407151 199.673278 
L 124.44022 199.491955 
L 121.473289 199.069373 
L 118.506358 198.78932 
L 115.539428 199.377985 
L 112.572497 200.292441 
L 110.46255 200.82 
L 109.605566 201.676269 
L 108.276949 203.4648 
L 109.605566 205.77827 
L 109.710557 206.1096 
L 111.238754 208.7544 
L 112.572497 210.705091 
L 112.869701 211.3992 
L 113.595675 214.044 
L 113.980303 216.6888 
L 114.855209 219.3336 
L 115.539428 220.692409 
L 116.143689 221.9784 
L 116.64923 224.6232 
L 117.124133 227.268 
L 117.362012 229.9128 
L 117.229528 232.5576 
L 116.609319 235.2024 
L 115.864304 237.8472 
L 115.893308 240.492 
L 115.617613 243.1368 
L 115.539428 243.631333 
L 115.192445 245.7816 
L 115.31586 248.4264 
L 115.539428 250.128213 
L 115.650322 251.0712 
L 115.762424 253.716 
L 115.82495 256.3608 
L 115.862678 259.0056 
L 115.62167 261.6504 
L 115.539428 262.540027 
L 115.277697 264.2952 
L 114.970298 266.94 
L 115.191728 269.5848 
L 115.539428 270.511571 
L 115.870312 272.2296 
L 116.271554 274.8744 
L 116.303986 277.5192 
L 116.019121 280.164 
L 115.548518 282.8088 
L 115.539428 282.871445 
L 115.128603 285.4536 
L 114.879885 288.0984 
L 115.095304 290.7432 
L 115.539428 292.672955 
L 115.654322 293.388 
L 115.900772 296.0328 
L 115.987716 298.6776 
L 116.480992 301.3224 
L 117.212115 303.9672 
L 117.518131 306.612 
L 117.927162 309.2568 
L 118.115508 311.9016 
L 117.723311 314.5464 
L 117.225481 317.1912 
L 116.630636 319.836 
L 116.51768 322.4808 
L 117.051078 325.1256 
L 117.051078 327.7704 
z
M 131.44886 327.7704 
L 131.44886 325.1256 
L 131.783786 322.4808 
L 132.514799 319.836 
L 133.128753 317.1912 
L 133.341012 315.635659 
L 133.485332 314.5464 
L 133.703509 311.9016 
L 133.706488 309.2568 
L 133.341012 306.65885 
L 133.332964 306.612 
L 132.555619 303.9672 
L 132.273873 301.3224 
L 132.979529 298.6776 
L 133.341012 296.5085 
L 133.415472 296.0328 
L 133.341012 295.212424 
L 133.144893 293.388 
L 132.785146 290.7432 
L 132.43358 288.0984 
L 131.718012 285.4536 
L 131.247799 282.8088 
L 131.476452 280.164 
L 131.917036 277.5192 
L 131.944135 274.8744 
L 131.929064 272.2296 
L 132.411309 269.5848 
L 132.902188 266.94 
L 132.816784 264.2952 
L 132.250717 261.6504 
L 132.215262 259.0056 
L 132.745614 256.3608 
L 133.019777 253.716 
L 133.051125 251.0712 
L 132.895328 248.4264 
L 132.562654 245.7816 
L 132.403394 243.1368 
L 132.270653 240.492 
L 132.723228 237.8472 
L 133.341012 236.087866 
L 133.700699 235.2024 
L 134.926407 232.5576 
L 136.260579 229.9128 
L 136.307943 229.588811 
L 136.51255 227.268 
L 136.307943 226.171283 
L 135.919096 224.6232 
L 135.781797 221.9784 
L 136.307943 220.025778 
L 136.473544 219.3336 
L 136.485811 216.6888 
L 136.307943 216.20833 
L 135.445593 214.044 
L 134.94581 211.3992 
L 136.307943 210.610663 
L 139.274874 209.876466 
L 142.241805 209.757024 
L 145.208736 210.357907 
L 148.175667 210.868994 
L 151.142597 211.026263 
L 153.501726 211.3992 
L 154.109528 211.524355 
L 157.076459 212.801285 
L 158.773017 214.044 
L 160.04339 215.462647 
L 161.227477 216.6888 
L 163.010321 218.908183 
L 163.35412 219.3336 
L 165.067174 221.9784 
L 165.977251 224.126842 
L 166.16358 224.6232 
L 166.703266 227.268 
L 167.218061 229.9128 
L 166.998978 232.5576 
L 166.346925 235.2024 
L 165.977251 237.8472 
L 165.977251 237.8472 
L 165.977251 237.8472 
L 166.054024 240.492 
L 166.578585 243.1368 
L 167.616549 245.7816 
L 168.195636 248.4264 
L 168.411981 251.0712 
L 168.630779 253.716 
L 168.831325 256.3608 
L 168.603423 259.0056 
L 168.090236 261.6504 
L 168.349659 264.2952 
L 168.944182 266.568374 
L 169.063853 266.94 
L 168.944182 269.320094 
L 168.928473 269.5848 
L 168.728376 272.2296 
L 168.944182 273.160508 
L 169.308104 274.8744 
L 169.615813 277.5192 
L 169.288455 280.164 
L 169.341883 282.8088 
L 169.618061 285.4536 
L 169.528622 288.0984 
L 170.314242 290.7432 
L 171.144935 293.388 
L 170.833478 296.0328 
L 169.693451 298.6776 
L 168.944182 300.29615 
L 168.593156 301.3224 
L 168.643204 303.9672 
L 168.944182 304.748613 
L 169.838341 306.612 
L 170.325069 309.2568 
L 169.855963 311.9016 
L 170.16144 314.5464 
L 170.860185 317.1912 
L 171.432406 319.836 
L 171.651285 322.4808 
L 171.530496 325.1256 
L 171.530496 327.7704 
L 168.944182 328.127357 
L 165.977251 328.330914 
L 163.010321 328.590213 
L 160.04339 328.917211 
L 157.076459 329.047947 
L 154.109528 329.027696 
L 151.142597 328.946177 
L 148.175667 328.805695 
L 145.208736 328.644042 
L 142.241805 328.467812 
L 139.274874 328.375104 
L 136.307943 328.374561 
L 133.341012 328.180766 
z
" clip-path="url(#pc4936ac433)" style="fill: #00bfbf; fill-opacity: 0.333333"/>
    <path d="M 133.341012 328.180766 
L 136.307943 328.374561 
L 139.274874 328.375104 
L 142.241805 328.467812 
L 145.208736 328.644042 
L 148.175667 328.805695 
L 151.142597 328.946177 
L 154.109528 329.027696 
L 157.076459 329.047947 
L 160.04339 328.917211 
L 163.010321 328.590213 
L 165.977251 328.330914 
L 168.944182 328.127357 
L 171.530496 327.7704 
L 171.530496 325.1256 
L 171.651285 322.4808 
L 171.432406 319.836 
L 170.860185 317.1912 
L 170.16144 314.5464 
L 169.855963 311.9016 
L 170.325069 309.2568 
L 169.838341 306.612 
L 168.944182 304.748613 
L 168.643204 303.9672 
L 168.593156 301.3224 
L 168.944182 300.29615 
L 169.693451 298.6776 
L 170.833478 296.0328 
L 171.144935 293.388 
L 170.314242 290.7432 
L 169.528622 288.0984 
L 169.618061 285.4536 
L 169.341883 282.8088 
L 169.288455 280.164 
L 169.615813 277.5192 
L 169.308104 274.8744 
L 168.944182 273.160508 
L 168.728376 272.2296 
L 168.928473 269.5848 
L 168.944182 269.320094 
L 169.063853 266.94 
L 168.944182 266.568374 
L 168.349659 264.2952 
L 168.090236 261.6504 
L 168.603423 259.0056 
L 168.831325 256.3608 
L 168.630779 253.716 
L 168.411981 251.0712 
L 168.195636 248.4264 
L 167.616549 245.7816 
L 166.578585 243.1368 
L 166.054024 240.492 
L 165.977251 237.8472 
L 165.977251 237.8472 
L 165.977251 237.8472 
L 166.346925 235.2024 
L 166.998978 232.5576 
L 167.218061 229.9128 
L 166.703266 227.268 
L 166.16358 224.6232 
L 165.977251 224.126842 
L 165.067174 221.9784 
L 163.35412 219.3336 
L 163.010321 218.908183 
L 161.227477 216.6888 
L 160.04339 215.462647 
L 158.773017 214.044 
L 157.076459 212.801285 
L 154.109528 211.524355 
L 153.501726 211.3992 
L 151.142597 211.026263 
L 148.175667 210.868994 
L 145.208736 210.357907 
L 142.241805 209.757024 
L 139.274874 209.876466 
L 136.307943 210.610663 
L 134.94581 211.3992 
L 135.445593 214.044 
L 136.307943 216.20833 
L 136.485811 216.6888 
L 136.473544 219.3336 
L 136.307943 220.025778 
L 135.781797 221.9784 
L 135.919096 224.6232 
L 136.307943 226.171283 
L 136.51255 227.268 
L 136.307943 229.588811 
L 136.260579 229.9128 
L 134.926407 232.5576 
L 133.700699 235.2024 
L 133.341012 236.087866 
L 132.723228 237.8472 
L 132.270653 240.492 
L 132.403394 243.1368 
L 132.562654 245.7816 
L 132.895328 248.4264 
L 133.051125 251.0712 
L 133.019777 253.716 
L 132.745614 256.3608 
L 132.215262 259.0056 
L 132.250717 261.6504 
L 132.816784 264.2952 
L 132.902188 266.94 
L 132.411309 269.5848 
L 131.929064 272.2296 
L 131.944135 274.8744 
L 131.917036 277.5192 
L 131.476452 280.164 
L 131.247799 282.8088 
L 131.718012 285.4536 
L 132.43358 288.0984 
L 132.785146 290.7432 
L 133.144893 293.388 
L 133.341012 295.212424 
L 133.415472 296.0328 
L 133.341012 296.5085 
L 132.979529 298.6776 
L 132.273873 301.3224 
L 132.555619 303.9672 
L 133.332964 306.612 
L 133.341012 306.65885 
L 133.706488 309.2568 
L 133.703509 311.9016 
L 133.485332 314.5464 
L 133.341012 315.635659 
L 133.128753 317.1912 
L 132.514799 319.836 
L 131.783786 322.4808 
L 131.44886 325.1256 
L 131.44886 327.7704 
z
" clip-path="url(#pc4936ac433)" style="fill: #00bfbf"/>
   </g>
   <g id="matplotlib.axis_5">
    <g id="xtick_5">
     <g id="line2d_6">
      <g>
       <use xlink:href="#m7b26bdc79a" x="96.551247" y="326.448" style="stroke: #000000; stroke-width: 0.8"/>
      </g>
     </g>
     <g id="text_2">
      <!-- 0.27 -->
      <g transform="translate(90.630333 354.565081) rotate(-45) scale(0.1 -0.1)">
       <defs>
        <path id="DejaVuSans-37" d="M 525 4666 
L 3525 4666 
L 3525 4397 
L 1831 0 
L 1172 0 
L 2766 4134 
L 525 4134 
L 525 4666 
z
" transform="scale(0.015625)"/>
       </defs>
       <use xlink:href="#DejaVuSans-30"/>
       <use xlink:href="#DejaVuSans-2e" x="63.623047"/>
       <use xlink:href="#DejaVuSans-32" x="95.410156"/>
       <use xlink:href="#DejaVuSans-37" x="159.033203"/>
      </g>
     </g>
    </g>
    <g id="xtick_6">
     <g id="line2d_7">
      <g>
       <use xlink:href="#m7b26bdc79a" x="127.203142" y="326.448" style="stroke: #000000; stroke-width: 0.8"/>
      </g>
     </g>
     <g id="text_3">
      <!-- 0.30 -->
      <g transform="translate(121.282227 354.565081) rotate(-45) scale(0.1 -0.1)">
       <use xlink:href="#DejaVuSans-30"/>
       <use xlink:href="#DejaVuSans-2e" x="63.623047"/>
       <use xlink:href="#DejaVuSans-33" x="95.410156"/>
       <use xlink:href="#DejaVuSans-30" x="159.033203"/>
      </g>
     </g>
    </g>
    <g id="xtick_7">
     <g id="line2d_8">
      <g>
       <use xlink:href="#m7b26bdc79a" x="157.855036" y="326.448" style="stroke: #000000; stroke-width: 0.8"/>
      </g>
     </g>
     <g id="text_4">
      <!-- 0.33 -->
      <g transform="translate(151.934122 354.565081) rotate(-45) scale(0.1 -0.1)">
       <use xlink:href="#DejaVuSans-30"/>
       <use xlink:href="#DejaVuSans-2e" x="63.623047"/>
       <use xlink:href="#DejaVuSans-33" x="95.410156"/>
       <use xlink:href="#DejaVuSans-33" x="159.033203"/>
      </g>
     </g>
    </g>
    <g id="xtick_8">
     <g id="line2d_9">
      <g>
       <use xlink:href="#m7b26bdc79a" x="188.506931" y="326.448" style="stroke: #000000; stroke-width: 0.8"/>
      </g>
     </g>
     <g id="text_5">
      <!-- 0.36 -->
      <g transform="translate(182.586016 354.565081) rotate(-45) scale(0.1 -0.1)">
       <use xlink:href="#DejaVuSans-30"/>
       <use xlink:href="#DejaVuSans-2e" x="63.623047"/>
       <use xlink:href="#DejaVuSans-33" x="95.410156"/>
       <use xlink:href="#DejaVuSans-36" x="159.033203"/>
      </g>
     </g>
    </g>
    <g id="text_6">
     <!-- $\Omega_{2,0}$ -->
     <g transform="translate(133.42527 373.52) scale(0.1 -0.1)">
      <use xlink:href="#DejaVuSans-3a9" transform="translate(0 0.21875)"/>
      <use xlink:href="#DejaVuSans-32" transform="translate(77.373047 -16.1875) scale(0.7)"/>
      <use xlink:href="#DejaVuSans-2c" transform="translate(121.90918 -16.1875) scale(0.7)"/>
      <use xlink:href="#DejaVuSans-30" transform="translate(157.797852 -16.1875) scale(0.7)"/>
     </g>
    </g>
   </g>
   <g id="matplotlib.axis_6">
    <g id="ytick_1">
     <g id="line2d_10">
      <defs>
       <path id="m68d03bec7c" d="M 0 0 
L -3.5 0 
" style="stroke: #000000; stroke-width: 0.8"/>
      </defs>
      <g>
       <use xlink:href="#m68d03bec7c" x="69.552" y="293.533754" style="stroke: #000000; stroke-width: 0.8"/>
      </g>
     </g>
     <g id="text_7">
      <!-- −8 -->
      <g transform="translate(50.657138 305.531743) rotate(-45) scale(0.1 -0.1)">
       <defs>
        <path id="DejaVuSans-38" d="M 2034 2216 
Q 1584 2216 1326 1975 
Q 1069 1734 1069 1313 
Q 1069 891 1326 650 
Q 1584 409 2034 409 
Q 2484 409 2743 651 
Q 3003 894 3003 1313 
Q 3003 1734 2745 1975 
Q 2488 2216 2034 2216 
z
M 1403 2484 
Q 997 2584 770 2862 
Q 544 3141 544 3541 
Q 544 4100 942 4425 
Q 1341 4750 2034 4750 
Q 2731 4750 3128 4425 
Q 3525 4100 3525 3541 
Q 3525 3141 3298 2862 
Q 3072 2584 2669 2484 
Q 3125 2378 3379 2068 
Q 3634 1759 3634 1313 
Q 3634 634 3220 271 
Q 2806 -91 2034 -91 
Q 1263 -91 848 271 
Q 434 634 434 1313 
Q 434 1759 690 2068 
Q 947 2378 1403 2484 
z
M 1172 3481 
Q 1172 3119 1398 2916 
Q 1625 2713 2034 2713 
Q 2441 2713 2670 2916 
Q 2900 3119 2900 3481 
Q 2900 3844 2670 4047 
Q 2441 4250 2034 4250 
Q 1625 4250 1398 4047 
Q 1172 3844 1172 3481 
z
" transform="scale(0.015625)"/>
       </defs>
       <use xlink:href="#DejaVuSans-2212"/>
       <use xlink:href="#DejaVuSans-38" x="83.789062"/>
      </g>
     </g>
    </g>
    <g id="ytick_2">
     <g id="line2d_11">
      <g>
       <use xlink:href="#m68d03bec7c" x="69.552" y="260.617207" style="stroke: #000000; stroke-width: 0.8"/>
      </g>
     </g>
     <g id="text_8">
      <!-- −6 -->
      <g transform="translate(50.657138 272.615196) rotate(-45) scale(0.1 -0.1)">
       <use xlink:href="#DejaVuSans-2212"/>
       <use xlink:href="#DejaVuSans-36" x="83.789062"/>
      </g>
     </g>
    </g>
    <g id="ytick_3">
     <g id="line2d_12">
      <g>
       <use xlink:href="#m68d03bec7c" x="69.552" y="227.700661" style="stroke: #000000; stroke-width: 0.8"/>
      </g>
     </g>
     <g id="text_9">
      <!-- −4 -->
      <g transform="translate(50.657138 239.698649) rotate(-45) scale(0.1 -0.1)">
       <defs>
        <path id="DejaVuSans-34" d="M 2419 4116 
L 825 1625 
L 2419 1625 
L 2419 4116 
z
M 2253 4666 
L 3047 4666 
L 3047 1625 
L 3713 1625 
L 3713 1100 
L 3047 1100 
L 3047 0 
L 2419 0 
L 2419 1100 
L 313 1100 
L 313 1709 
L 2253 4666 
z
" transform="scale(0.015625)"/>
       </defs>
       <use xlink:href="#DejaVuSans-2212"/>
       <use xlink:href="#DejaVuSans-34" x="83.789062"/>
      </g>
     </g>
    </g>
    <g id="ytick_4">
     <g id="line2d_13">
      <g>
       <use xlink:href="#m68d03bec7c" x="69.552" y="194.784114" style="stroke: #000000; stroke-width: 0.8"/>
      </g>
     </g>
     <g id="text_10">
      <!-- −2 -->
      <g transform="translate(50.657138 206.782103) rotate(-45) scale(0.1 -0.1)">
       <use xlink:href="#DejaVuSans-2212"/>
       <use xlink:href="#DejaVuSans-32" x="83.789062"/>
      </g>
     </g>
    </g>
    <g id="text_11">
     <!-- $\log_{10}(\kappa C_1/$Gyr${}^{-1})$ -->
     <g transform="translate(22.948038 302.028) rotate(-90) scale(0.1 -0.1)">
      <defs>
       <path id="DejaVuSans-6c" d="M 603 4863 
L 1178 4863 
L 1178 0 
L 603 0 
L 603 4863 
z
" transform="scale(0.015625)"/>
       <path id="DejaVuSans-6f" d="M 1959 3097 
Q 1497 3097 1228 2736 
Q 959 2375 959 1747 
Q 959 1119 1226 758 
Q 1494 397 1959 397 
Q 2419 397 2687 759 
Q 2956 1122 2956 1747 
Q 2956 2369 2687 2733 
Q 2419 3097 1959 3097 
z
M 1959 3584 
Q 2709 3584 3137 3096 
Q 3566 2609 3566 1747 
Q 3566 888 3137 398 
Q 2709 -91 1959 -91 
Q 1206 -91 779 398 
Q 353 888 353 1747 
Q 353 2609 779 3096 
Q 1206 3584 1959 3584 
z
" transform="scale(0.015625)"/>
       <path id="DejaVuSans-67" d="M 2906 1791 
Q 2906 2416 2648 2759 
Q 2391 3103 1925 3103 
Q 1463 3103 1205 2759 
Q 947 2416 947 1791 
Q 947 1169 1205 825 
Q 1463 481 1925 481 
Q 2391 481 2648 825 
Q 2906 1169 2906 1791 
z
M 3481 434 
Q 3481 -459 3084 -895 
Q 2688 -1331 1869 -1331 
Q 1566 -1331 1297 -1286 
Q 1028 -1241 775 -1147 
L 775 -588 
Q 1028 -725 1275 -790 
Q 1522 -856 1778 -856 
Q 2344 -856 2625 -561 
Q 2906 -266 2906 331 
L 2906 616 
Q 2728 306 2450 153 
Q 2172 0 1784 0 
Q 1141 0 747 490 
Q 353 981 353 1791 
Q 353 2603 747 3093 
Q 1141 3584 1784 3584 
Q 2172 3584 2450 3431 
Q 2728 3278 2906 2969 
L 2906 3500 
L 3481 3500 
L 3481 434 
z
" transform="scale(0.015625)"/>
       <path id="DejaVuSans-28" d="M 1984 4856 
Q 1566 4138 1362 3434 
Q 1159 2731 1159 2009 
Q 1159 1288 1364 580 
Q 1569 -128 1984 -844 
L 1484 -844 
Q 1016 -109 783 600 
Q 550 1309 550 2009 
Q 550 2706 781 3412 
Q 1013 4119 1484 4856 
L 1984 4856 
z
" transform="scale(0.015625)"/>
       <path id="DejaVuSans-Oblique-3ba" d="M 938 3500 
L 1531 3500 
L 1247 2047 
L 3041 3500 
L 3741 3500 
L 2106 2181 
L 3275 0 
L 2572 0 
L 1628 1806 
L 1122 1403 
L 850 0 
L 256 0 
L 938 3500 
z
" transform="scale(0.015625)"/>
       <path id="DejaVuSans-Oblique-43" d="M 4447 4306 
L 4319 3641 
Q 4019 3944 3683 4091 
Q 3347 4238 2956 4238 
Q 2422 4238 2017 3981 
Q 1613 3725 1319 3200 
Q 1131 2863 1032 2486 
Q 934 2109 934 1728 
Q 934 1091 1264 756 
Q 1594 422 2222 422 
Q 2656 422 3056 561 
Q 3456 700 3834 978 
L 3688 231 
Q 3316 72 2936 -9 
Q 2556 -91 2175 -91 
Q 1278 -91 773 396 
Q 269 884 269 1753 
Q 269 2309 461 2846 
Q 653 3384 1013 3828 
Q 1394 4300 1883 4525 
Q 2372 4750 3022 4750 
Q 3422 4750 3780 4639 
Q 4138 4528 4447 4306 
z
" transform="scale(0.015625)"/>
       <path id="DejaVuSans-2f" d="M 1625 4666 
L 2156 4666 
L 531 -594 
L 0 -594 
L 1625 4666 
z
" transform="scale(0.015625)"/>
       <path id="DejaVuSans-47" d="M 3809 666 
L 3809 1919 
L 2778 1919 
L 2778 2438 
L 4434 2438 
L 4434 434 
Q 4069 175 3628 42 
Q 3188 -91 2688 -91 
Q 1594 -91 976 548 
Q 359 1188 359 2328 
Q 359 3472 976 4111 
Q 1594 4750 2688 4750 
Q 3144 4750 3555 4637 
Q 3966 4525 4313 4306 
L 4313 3634 
Q 3963 3931 3569 4081 
Q 3175 4231 2741 4231 
Q 1884 4231 1454 3753 
Q 1025 3275 1025 2328 
Q 1025 1384 1454 906 
Q 1884 428 2741 428 
Q 3075 428 3337 486 
Q 3600 544 3809 666 
z
" transform="scale(0.015625)"/>
       <path id="DejaVuSans-79" d="M 2059 -325 
Q 1816 -950 1584 -1140 
Q 1353 -1331 966 -1331 
L 506 -1331 
L 506 -850 
L 844 -850 
Q 1081 -850 1212 -737 
Q 1344 -625 1503 -206 
L 1606 56 
L 191 3500 
L 800 3500 
L 1894 763 
L 2988 3500 
L 3597 3500 
L 2059 -325 
z
" transform="scale(0.015625)"/>
       <path id="DejaVuSans-72" d="M 2631 2963 
Q 2534 3019 2420 3045 
Q 2306 3072 2169 3072 
Q 1681 3072 1420 2755 
Q 1159 2438 1159 1844 
L 1159 0 
L 581 0 
L 581 3500 
L 1159 3500 
L 1159 2956 
Q 1341 3275 1631 3429 
Q 1922 3584 2338 3584 
Q 2397 3584 2469 3576 
Q 2541 3569 2628 3553 
L 2631 2963 
z
" transform="scale(0.015625)"/>
       <path id="DejaVuSans-29" d="M 513 4856 
L 1013 4856 
Q 1481 4119 1714 3412 
Q 1947 2706 1947 2009 
Q 1947 1309 1714 600 
Q 1481 -109 1013 -844 
L 513 -844 
Q 928 -128 1133 580 
Q 1338 1288 1338 2009 
Q 1338 2731 1133 3434 
Q 928 4138 513 4856 
z
" transform="scale(0.015625)"/>
      </defs>
      <use xlink:href="#DejaVuSans-6c" transform="translate(0 0.684375)"/>
      <use xlink:href="#DejaVuSans-6f" transform="translate(27.783203 0.684375)"/>
      <use xlink:href="#DejaVuSans-67" transform="translate(88.964844 0.684375)"/>
      <use xlink:href="#DejaVuSans-31" transform="translate(153.398438 -15.721875) scale(0.7)"/>
      <use xlink:href="#DejaVuSans-30" transform="translate(197.93457 -15.721875) scale(0.7)"/>
      <use xlink:href="#DejaVuSans-28" transform="translate(261.440754 0.684375)"/>
      <use xlink:href="#DejaVuSans-Oblique-3ba" transform="translate(300.454426 0.684375)"/>
      <use xlink:href="#DejaVuSans-Oblique-43" transform="translate(359.389973 0.684375)"/>
      <use xlink:href="#DejaVuSans-31" transform="translate(429.214192 -15.721875) scale(0.7)"/>
      <use xlink:href="#DejaVuSans-2f" transform="translate(476.4847 0.684375)"/>
      <use xlink:href="#DejaVuSans-47" transform="translate(510.176106 0.684375)"/>
      <use xlink:href="#DejaVuSans-79" transform="translate(587.66634 0.684375)"/>
      <use xlink:href="#DejaVuSans-72" transform="translate(646.846028 0.684375)"/>
      <use xlink:href="#DejaVuSans-2212" transform="translate(688.91634 38.965625) scale(0.7)"/>
      <use xlink:href="#DejaVuSans-31" transform="translate(747.568684 38.965625) scale(0.7)"/>
      <use xlink:href="#DejaVuSans-29" transform="translate(794.839192 0.684375)"/>
     </g>
    </g>
   </g>
   <g id="QuadContourSet_3">
    <path d="M 118.506358 328.328352 
L 121.473289 328.902662 
L 124.44022 329.181998 
L 127.407151 329.544557 
L 130.374082 329.842835 
L 133.341012 329.982088 
L 136.307943 330.019652 
L 139.274874 330.019757 
L 142.241805 330.037727 
L 145.208736 330.071887 
L 148.175667 330.103221 
L 151.142597 330.130452 
L 154.109528 330.146253 
L 157.076459 330.150178 
L 160.04339 330.124837 
L 163.010321 330.061453 
L 165.977251 330.011192 
L 168.944182 329.971735 
L 171.911113 329.890497 
L 174.878044 329.743882 
L 177.844975 329.497896 
L 180.811905 329.055412 
L 183.778836 328.41147 
L 186.745767 327.969426 
L 187.777592 327.7704 
L 187.777592 325.1256 
L 186.979169 322.4808 
L 186.745767 322.001184 
L 186.022711 319.836 
L 185.511524 317.1912 
L 185.543753 314.5464 
L 185.742892 311.9016 
L 186.131306 309.2568 
L 186.586944 306.612 
L 186.511716 303.9672 
L 186.415105 301.3224 
L 186.745767 298.6776 
L 186.745767 298.6776 
L 187.00507 296.0328 
L 187.592708 293.388 
L 187.564638 290.7432 
L 186.745767 288.615073 
L 186.631441 288.0984 
L 186.630888 285.4536 
L 186.745767 283.585088 
L 186.84467 282.8088 
L 187.037097 280.164 
L 187.192601 277.5192 
L 187.331609 274.8744 
L 186.745767 273.021556 
L 186.459743 272.2296 
L 185.99478 269.5848 
L 186.337033 266.94 
L 186.715055 264.2952 
L 186.745767 264.235664 
L 187.915808 261.6504 
L 188.812257 259.0056 
L 188.943193 256.3608 
L 188.783796 253.716 
L 187.964417 251.0712 
L 186.745767 249.047426 
L 186.463497 248.4264 
L 186.068596 245.7816 
L 186.745767 243.531344 
L 186.920332 243.1368 
L 187.86085 240.492 
L 186.745767 238.398826 
L 186.372819 237.8472 
L 184.859461 235.2024 
L 185.166976 232.5576 
L 185.36488 229.9128 
L 184.744597 227.268 
L 183.833013 224.6232 
L 183.778836 224.457131 
L 183.095558 221.9784 
L 182.139027 219.3336 
L 181.229221 216.6888 
L 180.811905 215.346564 
L 180.15376 214.044 
L 177.844975 212.931424 
L 174.878044 212.233574 
L 173.348208 211.3992 
L 171.911113 210.622744 
L 168.944182 209.354175 
L 167.343603 208.7544 
L 165.977251 208.075733 
L 163.010321 206.326393 
L 162.639453 206.1096 
L 160.04339 204.463129 
L 157.304981 203.4648 
L 157.076459 203.369477 
L 154.109528 202.743809 
L 151.142597 202.764861 
L 148.175667 202.639712 
L 145.208736 201.829414 
L 142.241805 201.076429 
L 139.378867 200.82 
L 139.274874 200.805532 
L 136.307943 200.497651 
L 133.341012 200.0023 
L 130.374082 199.767605 
L 127.407151 199.673278 
L 124.44022 199.491955 
L 121.473289 199.069373 
L 118.506358 198.78932 
L 115.539428 199.377985 
L 112.572497 200.292441 
L 110.46255 200.82 
L 109.605566 201.676269 
L 108.276949 203.4648 
L 109.605566 205.77827 
L 109.710557 206.1096 
L 111.238754 208.7544 
L 112.572497 210.705091 
L 112.869701 211.3992 
L 113.595675 214.044 
L 113.980303 216.6888 
L 114.855209 219.3336 
L 115.539428 220.692409 
L 116.143689 221.9784 
L 116.64923 224.6232 
L 117.124133 227.268 
L 117.362012 229.9128 
L 117.229528 232.5576 
L 116.609319 235.2024 
L 115.864304 237.8472 
L 115.893308 240.492 
L 115.617613 243.1368 
L 115.539428 243.631333 
L 115.192445 245.7816 
L 115.31586 248.4264 
L 115.539428 250.128213 
L 115.650322 251.0712 
L 115.762424 253.716 
L 115.82495 256.3608 
L 115.862678 259.0056 
L 115.62167 261.6504 
L 115.539428 262.540027 
L 115.277697 264.2952 
L 114.970298 266.94 
L 115.191728 269.5848 
L 115.539428 270.511571 
L 115.870312 272.2296 
L 116.271554 274.8744 
L 116.303986 277.5192 
L 116.019121 280.164 
L 115.548518 282.8088 
L 115.539428 282.871445 
L 115.128603 285.4536 
L 114.879885 288.0984 
L 115.095304 290.7432 
L 115.539428 292.672955 
L 115.654322 293.388 
L 115.900772 296.0328 
L 115.987716 298.6776 
L 116.480992 301.3224 
L 117.212115 303.9672 
L 117.518131 306.612 
L 117.927162 309.2568 
L 118.115508 311.9016 
L 117.723311 314.5464 
L 117.225481 317.1912 
L 116.630636 319.836 
L 116.51768 322.4808 
L 117.051078 325.1256 
L 117.051078 327.7704 
L 118.506358 328.328352 
z
" clip-path="url(#pc4936ac433)" style="fill: none; stroke: #00bfbf; stroke-width: 1.5"/>
    <path d="M 133.341012 328.180766 
L 136.307943 328.374561 
L 139.274874 328.375104 
L 142.241805 328.467812 
L 145.208736 328.644042 
L 148.175667 328.805695 
L 151.142597 328.946177 
L 154.109528 329.027696 
L 157.076459 329.047947 
L 160.04339 328.917211 
L 163.010321 328.590213 
L 165.977251 328.330914 
L 168.944182 328.127357 
L 171.530496 327.7704 
L 171.530496 325.1256 
L 171.651285 322.4808 
L 171.432406 319.836 
L 170.860185 317.1912 
L 170.16144 314.5464 
L 169.855963 311.9016 
L 170.325069 309.2568 
L 169.838341 306.612 
L 168.944182 304.748613 
L 168.643204 303.9672 
L 168.593156 301.3224 
L 168.944182 300.29615 
L 169.693451 298.6776 
L 170.833478 296.0328 
L 171.144935 293.388 
L 170.314242 290.7432 
L 169.528622 288.0984 
L 169.618061 285.4536 
L 169.341883 282.8088 
L 169.288455 280.164 
L 169.615813 277.5192 
L 169.308104 274.8744 
L 168.944182 273.160508 
L 168.728376 272.2296 
L 168.928473 269.5848 
L 168.944182 269.320094 
L 169.063853 266.94 
L 168.944182 266.568374 
L 168.349659 264.2952 
L 168.090236 261.6504 
L 168.603423 259.0056 
L 168.831325 256.3608 
L 168.630779 253.716 
L 168.411981 251.0712 
L 168.195636 248.4264 
L 167.616549 245.7816 
L 166.578585 243.1368 
L 166.054024 240.492 
L 165.977251 237.8472 
L 165.977251 237.8472 
L 165.977251 237.8472 
L 166.346925 235.2024 
L 166.998978 232.5576 
L 167.218061 229.9128 
L 166.703266 227.268 
L 166.16358 224.6232 
L 165.977251 224.126842 
L 165.067174 221.9784 
L 163.35412 219.3336 
L 163.010321 218.908183 
L 161.227477 216.6888 
L 160.04339 215.462647 
L 158.773017 214.044 
L 157.076459 212.801285 
L 154.109528 211.524355 
L 153.501726 211.3992 
L 151.142597 211.026263 
L 148.175667 210.868994 
L 145.208736 210.357907 
L 142.241805 209.757024 
L 139.274874 209.876466 
L 136.307943 210.610663 
L 134.94581 211.3992 
L 135.445593 214.044 
L 136.307943 216.20833 
L 136.485811 216.6888 
L 136.473544 219.3336 
L 136.307943 220.025778 
L 135.781797 221.9784 
L 135.919096 224.6232 
L 136.307943 226.171283 
L 136.51255 227.268 
L 136.307943 229.588811 
L 136.260579 229.9128 
L 134.926407 232.5576 
L 133.700699 235.2024 
L 133.341012 236.087866 
L 132.723228 237.8472 
L 132.270653 240.492 
L 132.403394 243.1368 
L 132.562654 245.7816 
L 132.895328 248.4264 
L 133.051125 251.0712 
L 133.019777 253.716 
L 132.745614 256.3608 
L 132.215262 259.0056 
L 132.250717 261.6504 
L 132.816784 264.2952 
L 132.902188 266.94 
L 132.411309 269.5848 
L 131.929064 272.2296 
L 131.944135 274.8744 
L 131.917036 277.5192 
L 131.476452 280.164 
L 131.247799 282.8088 
L 131.718012 285.4536 
L 132.43358 288.0984 
L 132.785146 290.7432 
L 133.144893 293.388 
L 133.341012 295.212424 
L 133.415472 296.0328 
L 133.341012 296.5085 
L 132.979529 298.6776 
L 132.273873 301.3224 
L 132.555619 303.9672 
L 133.332964 306.612 
L 133.341012 306.65885 
L 133.706488 309.2568 
L 133.703509 311.9016 
L 133.485332 314.5464 
L 133.341012 315.635659 
L 133.128753 317.1912 
L 132.514799 319.836 
L 131.783786 322.4808 
L 131.44886 325.1256 
L 131.44886 327.7704 
L 133.341012 328.180766 
z
" clip-path="url(#pc4936ac433)" style="fill: none; stroke: #00bfbf; stroke-width: 1.5"/>
   </g>
   <g id="patch_8">
    <path d="M 69.552 326.448 
L 69.552 194.208 
" style="fill: none; stroke: #000000; stroke-width: 0.8; stroke-linejoin: miter; stroke-linecap: square"/>
   </g>
   <g id="patch_9">
    <path d="M 217.898541 326.448 
L 217.898541 194.208 
" style="fill: none; stroke: #000000; stroke-width: 0.8; stroke-linejoin: miter; stroke-linecap: square"/>
   </g>
   <g id="patch_10">
    <path d="M 69.552 326.448 
L 217.898541 326.448 
" style="fill: none; stroke: #000000; stroke-width: 0.8; stroke-linejoin: miter; stroke-linecap: square"/>
   </g>
   <g id="patch_11">
    <path d="M 69.552 194.208 
L 217.898541 194.208 
" style="fill: none; stroke: #000000; stroke-width: 0.8; stroke-linejoin: miter; stroke-linecap: square"/>
   </g>
  </g>
  <g id="axes_4">
   <g id="patch_12">
    <path d="M 228.698541 326.448 
L 377.045081 326.448 
L 377.045081 194.208 
L 228.698541 194.208 
z
" style="fill: #ffffff"/>
   </g>
   <g id="matplotlib.axis_7">
    <g id="xtick_9">
     <g id="line2d_14">
      <g>
       <use xlink:href="#m7b26bdc79a" x="265.621669" y="326.448" style="stroke: #000000; stroke-width: 0.8"/>
      </g>
     </g>
     <g id="text_12">
      <!-- −8 -->
      <g transform="translate(262.360692 349.245207) rotate(-45) scale(0.1 -0.1)">
       <use xlink:href="#DejaVuSans-2212"/>
       <use xlink:href="#DejaVuSans-38" x="83.789062"/>
      </g>
     </g>
    </g>
    <g id="xtick_10">
     <g id="line2d_15">
      <g>
       <use xlink:href="#m7b26bdc79a" x="302.547379" y="326.448" style="stroke: #000000; stroke-width: 0.8"/>
      </g>
     </g>
     <g id="text_13">
      <!-- −6 -->
      <g transform="translate(299.286401 349.245207) rotate(-45) scale(0.1 -0.1)">
       <use xlink:href="#DejaVuSans-2212"/>
       <use xlink:href="#DejaVuSans-36" x="83.789062"/>
      </g>
     </g>
    </g>
    <g id="xtick_11">
     <g id="line2d_16">
      <g>
       <use xlink:href="#m7b26bdc79a" x="339.473088" y="326.448" style="stroke: #000000; stroke-width: 0.8"/>
      </g>
     </g>
     <g id="text_14">
      <!-- −4 -->
      <g transform="translate(336.212111 349.245207) rotate(-45) scale(0.1 -0.1)">
       <use xlink:href="#DejaVuSans-2212"/>
       <use xlink:href="#DejaVuSans-34" x="83.789062"/>
      </g>
     </g>
    </g>
    <g id="xtick_12">
     <g id="line2d_17">
      <g>
       <use xlink:href="#m7b26bdc79a" x="376.398798" y="326.448" style="stroke: #000000; stroke-width: 0.8"/>
      </g>
     </g>
     <g id="text_15">
      <!-- −2 -->
      <g transform="translate(373.13782 349.245207) rotate(-45) scale(0.1 -0.1)">
       <use xlink:href="#DejaVuSans-2212"/>
       <use xlink:href="#DejaVuSans-32" x="83.789062"/>
      </g>
     </g>
    </g>
    <g id="text_16">
     <!-- $\log_{10}(\kappa C_1/$Gyr${}^{-1})$ -->
     <g transform="translate(261.171811 375.12) scale(0.1 -0.1)">
      <use xlink:href="#DejaVuSans-6c" transform="translate(0 0.684375)"/>
      <use xlink:href="#DejaVuSans-6f" transform="translate(27.783203 0.684375)"/>
      <use xlink:href="#DejaVuSans-67" transform="translate(88.964844 0.684375)"/>
      <use xlink:href="#DejaVuSans-31" transform="translate(153.398438 -15.721875) scale(0.7)"/>
      <use xlink:href="#DejaVuSans-30" transform="translate(197.93457 -15.721875) scale(0.7)"/>
      <use xlink:href="#DejaVuSans-28" transform="translate(261.440754 0.684375)"/>
      <use xlink:href="#DejaVuSans-Oblique-3ba" transform="translate(300.454426 0.684375)"/>
      <use xlink:href="#DejaVuSans-Oblique-43" transform="translate(359.389973 0.684375)"/>
      <use xlink:href="#DejaVuSans-31" transform="translate(429.214192 -15.721875) scale(0.7)"/>
      <use xlink:href="#DejaVuSans-2f" transform="translate(476.4847 0.684375)"/>
      <use xlink:href="#DejaVuSans-47" transform="translate(510.176106 0.684375)"/>
      <use xlink:href="#DejaVuSans-79" transform="translate(587.66634 0.684375)"/>
      <use xlink:href="#DejaVuSans-72" transform="translate(646.846028 0.684375)"/>
      <use xlink:href="#DejaVuSans-2212" transform="translate(688.91634 38.965625) scale(0.7)"/>
      <use xlink:href="#DejaVuSans-31" transform="translate(747.568684 38.965625) scale(0.7)"/>
      <use xlink:href="#DejaVuSans-29" transform="translate(794.839192 0.684375)"/>
     </g>
    </g>
   </g>
   <g id="matplotlib.axis_8"/>
   <g id="line2d_18">
    <path d="M 228.698541 209.346586 
L 229.440273 209.346586 
L 229.440273 209.12396 
L 230.182006 209.12396 
L 230.182006 208.901333 
L 230.923739 208.901333 
L 230.923739 208.678707 
L 231.665471 208.678707 
L 231.665471 208.233455 
L 232.407204 208.233455 
L 232.407204 208.010828 
L 233.148937 208.010828 
L 233.148937 207.788202 
L 235.374135 207.788202 
L 235.374135 208.233455 
L 236.115868 208.233455 
L 236.115868 208.678707 
L 236.8576 208.678707 
L 236.8576 209.12396 
L 237.599333 209.12396 
L 237.599333 209.791838 
L 238.341066 209.791838 
L 238.341066 210.237091 
L 239.082798 210.237091 
L 239.082798 210.90497 
L 239.824531 210.90497 
L 239.824531 211.572848 
L 240.566264 211.572848 
L 240.566264 212.240727 
L 241.307997 212.240727 
L 241.307997 212.68598 
L 242.049729 212.68598 
L 242.049729 213.131232 
L 242.791462 213.131232 
L 242.791462 213.576485 
L 243.533195 213.576485 
L 243.533195 213.799111 
L 244.274927 213.799111 
L 244.274927 214.021737 
L 245.758393 214.021737 
L 245.758393 213.799111 
L 246.500126 213.799111 
L 246.500126 213.353859 
L 247.241858 213.353859 
L 247.241858 212.908606 
L 247.983591 212.908606 
L 247.983591 212.463354 
L 248.725324 212.463354 
L 248.725324 212.018101 
L 249.467056 212.018101 
L 249.467056 211.572848 
L 250.208789 211.572848 
L 250.208789 211.350222 
L 250.950522 211.350222 
L 250.950522 211.127596 
L 251.692254 211.127596 
L 251.692254 210.90497 
L 253.17572 210.90497 
L 253.17572 210.682343 
L 253.917453 210.682343 
L 253.917453 210.459717 
L 254.659185 210.459717 
L 254.659185 210.237091 
L 255.400918 210.237091 
L 255.400918 209.791838 
L 256.142651 209.791838 
L 256.142651 209.569212 
L 256.884383 209.569212 
L 256.884383 209.12396 
L 257.626116 209.12396 
L 257.626116 208.901333 
L 258.367849 208.901333 
L 258.367849 208.678707 
L 259.109581 208.678707 
L 259.109581 208.456081 
L 262.818245 208.456081 
L 262.818245 208.233455 
L 263.559978 208.233455 
L 263.559978 207.788202 
L 264.30171 207.788202 
L 264.30171 207.565576 
L 265.043443 207.565576 
L 265.043443 207.120323 
L 265.785176 207.120323 
L 265.785176 206.675071 
L 266.526908 206.675071 
L 266.526908 206.452444 
L 267.268641 206.452444 
L 267.268641 206.229818 
L 270.235572 206.229818 
L 270.235572 206.452444 
L 272.46077 206.452444 
L 272.46077 206.675071 
L 274.685968 206.675071 
L 274.685968 206.897697 
L 275.427701 206.897697 
L 275.427701 207.342949 
L 276.169434 207.342949 
L 276.169434 207.565576 
L 276.911166 207.565576 
L 276.911166 208.010828 
L 277.652899 208.010828 
L 277.652899 208.456081 
L 278.394632 208.456081 
L 278.394632 208.901333 
L 279.136364 208.901333 
L 279.136364 209.346586 
L 279.878097 209.346586 
L 279.878097 209.569212 
L 280.61983 209.569212 
L 280.61983 209.791838 
L 282.845028 209.791838 
L 282.845028 209.569212 
L 283.586761 209.569212 
L 283.586761 209.346586 
L 284.328493 209.346586 
L 284.328493 209.12396 
L 285.070226 209.12396 
L 285.070226 208.901333 
L 286.553691 208.901333 
L 286.553691 208.678707 
L 287.295424 208.678707 
L 287.295424 208.901333 
L 288.77889 208.901333 
L 288.77889 209.12396 
L 289.520622 209.12396 
L 289.520622 209.346586 
L 290.262355 209.346586 
L 290.262355 209.569212 
L 291.004088 209.569212 
L 291.004088 209.791838 
L 291.74582 209.791838 
L 291.74582 210.237091 
L 292.487553 210.237091 
L 292.487553 210.459717 
L 293.229286 210.459717 
L 293.229286 210.682343 
L 293.971019 210.682343 
L 293.971019 210.90497 
L 294.712751 210.90497 
L 294.712751 211.127596 
L 295.454484 211.127596 
L 295.454484 211.572848 
L 296.196217 211.572848 
L 296.196217 212.018101 
L 296.937949 212.018101 
L 296.937949 212.240727 
L 297.679682 212.240727 
L 297.679682 212.908606 
L 298.421415 212.908606 
L 298.421415 213.353859 
L 299.163147 213.353859 
L 299.163147 213.799111 
L 299.90488 213.799111 
L 299.90488 214.244364 
L 300.646613 214.244364 
L 300.646613 214.46699 
L 301.388346 214.46699 
L 301.388346 214.912242 
L 302.130078 214.912242 
L 302.130078 215.134869 
L 302.871811 215.134869 
L 302.871811 215.357495 
L 303.613544 215.357495 
L 303.613544 215.802747 
L 304.355276 215.802747 
L 304.355276 216.025374 
L 305.097009 216.025374 
L 305.097009 216.470626 
L 305.838742 216.470626 
L 305.838742 216.693253 
L 306.580474 216.693253 
L 306.580474 216.915879 
L 307.322207 216.915879 
L 307.322207 217.138505 
L 308.06394 217.138505 
L 308.06394 217.361131 
L 309.547405 217.361131 
L 309.547405 217.138505 
L 311.030871 217.138505 
L 311.030871 216.915879 
L 311.772603 216.915879 
L 311.772603 216.693253 
L 312.514336 216.693253 
L 312.514336 216.470626 
L 313.256069 216.470626 
L 313.256069 216.248 
L 316.223 216.248 
L 316.223 216.470626 
L 316.964732 216.470626 
L 316.964732 216.693253 
L 317.706465 216.693253 
L 317.706465 217.138505 
L 318.448198 217.138505 
L 318.448198 217.583758 
L 319.18993 217.583758 
L 319.18993 217.806384 
L 319.931663 217.806384 
L 319.931663 218.251636 
L 320.673396 218.251636 
L 320.673396 218.474263 
L 321.415129 218.474263 
L 321.415129 218.696889 
L 322.898594 218.696889 
L 322.898594 218.919515 
L 323.640327 218.919515 
L 323.640327 218.696889 
L 325.123792 218.696889 
L 325.123792 218.474263 
L 326.607257 218.474263 
L 326.607257 218.251636 
L 328.090723 218.251636 
L 328.090723 218.474263 
L 328.832456 218.474263 
L 328.832456 218.696889 
L 329.574188 218.696889 
L 329.574188 219.142141 
L 330.315921 219.142141 
L 330.315921 219.587394 
L 331.057654 219.587394 
L 331.057654 220.255273 
L 331.799386 220.255273 
L 331.799386 220.923152 
L 332.541119 220.923152 
L 332.541119 221.59103 
L 333.282852 221.59103 
L 333.282852 222.258909 
L 334.024584 222.258909 
L 334.024584 222.481535 
L 334.766317 222.481535 
L 334.766317 222.926788 
L 335.50805 222.926788 
L 335.50805 223.149414 
L 336.249783 223.149414 
L 336.249783 223.594667 
L 336.991515 223.594667 
L 336.991515 223.817293 
L 337.733248 223.817293 
L 337.733248 224.262545 
L 338.474981 224.262545 
L 338.474981 224.707798 
L 339.216713 224.707798 
L 339.216713 225.375677 
L 339.958446 225.375677 
L 339.958446 226.043556 
L 340.700179 226.043556 
L 340.700179 226.711434 
L 341.441912 226.711434 
L 341.441912 227.379313 
L 342.183644 227.379313 
L 342.183644 228.047192 
L 342.925377 228.047192 
L 342.925377 228.715071 
L 343.66711 228.715071 
L 343.66711 229.382949 
L 344.408842 229.382949 
L 344.408842 230.050828 
L 345.150575 230.050828 
L 345.150575 230.718707 
L 345.892308 230.718707 
L 345.892308 231.386586 
L 346.63404 231.386586 
L 346.63404 231.831838 
L 347.375773 231.831838 
L 347.375773 232.499717 
L 348.117506 232.499717 
L 348.117506 233.390222 
L 348.859239 233.390222 
L 348.859239 234.280727 
L 349.600971 234.280727 
L 349.600971 235.616485 
L 350.342704 235.616485 
L 350.342704 236.952242 
L 351.084437 236.952242 
L 351.084437 238.510626 
L 351.826169 238.510626 
L 351.826169 240.291636 
L 352.567902 240.291636 
L 352.567902 242.072646 
L 353.309635 242.072646 
L 353.309635 243.853657 
L 354.051367 243.853657 
L 354.051367 245.857293 
L 354.7931 245.857293 
L 354.7931 247.860929 
L 355.534833 247.860929 
L 355.534833 249.864566 
L 356.276566 249.864566 
L 356.276566 252.313455 
L 357.018298 252.313455 
L 357.018298 254.762343 
L 357.760031 254.762343 
L 357.760031 257.656485 
L 358.501764 257.656485 
L 358.501764 260.773253 
L 359.243496 260.773253 
L 359.243496 264.112646 
L 359.985229 264.112646 
L 359.985229 267.45204 
L 360.726962 267.45204 
L 360.726962 271.014061 
L 361.468694 271.014061 
L 361.468694 274.576081 
L 362.210427 274.576081 
L 362.210427 277.915475 
L 362.95216 277.915475 
L 362.95216 281.254869 
L 363.693893 281.254869 
L 363.693893 284.594263 
L 364.435625 284.594263 
L 364.435625 287.71103 
L 365.177358 287.71103 
L 365.177358 290.827798 
L 365.919091 290.827798 
L 365.919091 293.721939 
L 366.660823 293.721939 
L 366.660823 296.838707 
L 367.402556 296.838707 
L 367.402556 299.732848 
L 368.144289 299.732848 
L 368.144289 302.62699 
L 368.886022 302.62699 
L 368.886022 305.298505 
L 369.627754 305.298505 
L 369.627754 307.97002 
L 370.369487 307.97002 
L 370.369487 310.418909 
L 371.11122 310.418909 
L 371.11122 312.645172 
L 371.852952 312.645172 
L 371.852952 314.648808 
L 372.594685 314.648808 
L 372.594685 316.652444 
L 373.336418 316.652444 
L 373.336418 317.988202 
L 374.07815 317.988202 
L 374.07815 319.32396 
L 374.819883 319.32396 
L 374.819883 320.214465 
L 375.561616 320.214465 
L 375.561616 320.882343 
L 376.303349 320.882343 
L 376.303349 321.327596 
L 377.045081 321.327596 
L 377.045081 321.327596 
" clip-path="url(#pd41ee79a10)" style="fill: none; stroke: #00bfbf; stroke-width: 1.5; stroke-linecap: square"/>
   </g>
   <g id="patch_13">
    <path d="M 228.698541 326.448 
L 228.698541 194.208 
" style="fill: none; stroke: #000000; stroke-width: 0.8; stroke-linejoin: miter; stroke-linecap: square"/>
   </g>
   <g id="patch_14">
    <path d="M 377.045081 326.448 
L 377.045081 194.208 
" style="fill: none; stroke: #000000; stroke-width: 0.8; stroke-linejoin: miter; stroke-linecap: square"/>
   </g>
   <g id="patch_15">
    <path d="M 228.698541 326.448 
L 377.045081 326.448 
" style="fill: none; stroke: #000000; stroke-width: 0.8; stroke-linejoin: miter; stroke-linecap: square"/>
   </g>
   <g id="patch_16">
    <path d="M 228.698541 194.208 
L 377.045081 194.208 
" style="fill: none; stroke: #000000; stroke-width: 0.8; stroke-linejoin: miter; stroke-linecap: square"/>
   </g>
   <g id="text_17">
    <!-- $\log_{10}(\kappa C_1/$Gyr${}^{-1})$ = ${-6.5704}_{-2.3110}^{+2.5005}$ -->
    <g transform="translate(182.821811 188.208) scale(0.14 -0.14)">
     <defs>
      <path id="DejaVuSans-35" d="M 691 4666 
L 3169 4666 
L 3169 4134 
L 1269 4134 
L 1269 2991 
Q 1406 3038 1543 3061 
Q 1681 3084 1819 3084 
Q 2600 3084 3056 2656 
Q 3513 2228 3513 1497 
Q 3513 744 3044 326 
Q 2575 -91 1722 -91 
Q 1428 -91 1123 -41 
Q 819 9 494 109 
L 494 744 
Q 775 591 1075 516 
Q 1375 441 1709 441 
Q 2250 441 2565 725 
Q 2881 1009 2881 1497 
Q 2881 1984 2565 2268 
Q 2250 2553 1709 2553 
Q 1456 2553 1204 2497 
Q 953 2441 691 2322 
L 691 4666 
z
" transform="scale(0.015625)"/>
     </defs>
     <use xlink:href="#DejaVuSans-6c" transform="translate(0 0.765625)"/>
     <use xlink:href="#DejaVuSans-6f" transform="translate(27.783203 0.765625)"/>
     <use xlink:href="#DejaVuSans-67" transform="translate(88.964844 0.765625)"/>
     <use xlink:href="#DejaVuSans-31" transform="translate(153.398438 -15.640625) scale(0.7)"/>
     <use xlink:href="#DejaVuSans-30" transform="translate(197.93457 -15.640625) scale(0.7)"/>
     <use xlink:href="#DejaVuSans-28" transform="translate(261.440754 0.765625)"/>
     <use xlink:href="#DejaVuSans-Oblique-3ba" transform="translate(300.454426 0.765625)"/>
     <use xlink:href="#DejaVuSans-Oblique-43" transform="translate(359.389973 0.765625)"/>
     <use xlink:href="#DejaVuSans-31" transform="translate(429.214192 -15.640625) scale(0.7)"/>
     <use xlink:href="#DejaVuSans-2f" transform="translate(476.4847 0.765625)"/>
     <use xlink:href="#DejaVuSans-47" transform="translate(510.176106 0.765625)"/>
     <use xlink:href="#DejaVuSans-79" transform="translate(587.66634 0.765625)"/>
     <use xlink:href="#DejaVuSans-72" transform="translate(646.846028 0.765625)"/>
     <use xlink:href="#DejaVuSans-2212" transform="translate(688.91634 39.046875) scale(0.7)"/>
     <use xlink:href="#DejaVuSans-31" transform="translate(747.568684 39.046875) scale(0.7)"/>
     <use xlink:href="#DejaVuSans-29" transform="translate(794.839192 0.765625)"/>
     <use xlink:href="#DejaVuSans-20" transform="translate(833.852864 0.765625)"/>
     <use xlink:href="#DejaVuSans-3d" transform="translate(865.639973 0.765625)"/>
     <use xlink:href="#DejaVuSans-20" transform="translate(949.429036 0.765625)"/>
     <use xlink:href="#DejaVuSans-2212" transform="translate(981.216145 0.765625)"/>
     <use xlink:href="#DejaVuSans-36" transform="translate(1065.005208 0.765625)"/>
     <use xlink:href="#DejaVuSans-2e" transform="translate(1128.628254 0.765625)"/>
     <use xlink:href="#DejaVuSans-35" transform="translate(1160.415364 0.765625)"/>
     <use xlink:href="#DejaVuSans-37" transform="translate(1216.788411 0.765625)"/>
     <use xlink:href="#DejaVuSans-30" transform="translate(1280.411458 0.765625)"/>
     <use xlink:href="#DejaVuSans-34" transform="translate(1344.034504 0.765625)"/>
     <use xlink:href="#DejaVuSans-2b" transform="translate(1408.614583 39.046875) scale(0.7)"/>
     <use xlink:href="#DejaVuSans-32" transform="translate(1467.266926 39.046875) scale(0.7)"/>
     <use xlink:href="#DejaVuSans-2e" transform="translate(1511.803059 39.046875) scale(0.7)"/>
     <use xlink:href="#DejaVuSans-35" transform="translate(1534.054036 39.046875) scale(0.7)"/>
     <use xlink:href="#DejaVuSans-30" transform="translate(1578.590168 39.046875) scale(0.7)"/>
     <use xlink:href="#DejaVuSans-30" transform="translate(1623.126301 39.046875) scale(0.7)"/>
     <use xlink:href="#DejaVuSans-35" transform="translate(1667.662434 39.046875) scale(0.7)"/>
     <use xlink:href="#DejaVuSans-2212" transform="translate(1408.614583 -26.578125) scale(0.7)"/>
     <use xlink:href="#DejaVuSans-32" transform="translate(1467.266926 -26.578125) scale(0.7)"/>
     <use xlink:href="#DejaVuSans-2e" transform="translate(1511.803059 -26.578125) scale(0.7)"/>
     <use xlink:href="#DejaVuSans-33" transform="translate(1534.054036 -26.578125) scale(0.7)"/>
     <use xlink:href="#DejaVuSans-31" transform="translate(1578.590168 -26.578125) scale(0.7)"/>
     <use xlink:href="#DejaVuSans-31" transform="translate(1623.126301 -26.578125) scale(0.7)"/>
     <use xlink:href="#DejaVuSans-30" transform="translate(1667.662434 -26.578125) scale(0.7)"/>
    </g>
   </g>
  </g>
 </g>
 <defs>
  <clipPath id="p6607944b45">
   <rect x="69.552" y="30.984" width="148.346541" height="132.24"/>
  </clipPath>
  <clipPath id="pc4936ac433">
   <rect x="69.552" y="194.208" width="148.346541" height="132.24"/>
  </clipPath>
  <clipPath id="pd41ee79a10">
   <rect x="228.698541" y="194.208" width="148.346541" height="132.24"/>
  </clipPath>
 </defs>
</svg>
