<?xml version="1.0" encoding="utf-8" standalone="no"?>
<!DOCTYPE svg PUBLIC "-//W3C//DTD SVG 1.1//EN"
  "http://www.w3.org/Graphics/SVG/1.1/DTD/svg11.dtd">
<svg xmlns:xlink="http://www.w3.org/1999/xlink" width="396pt" height="396pt" viewBox="0 0 396 396" xmlns="http://www.w3.org/2000/svg" version="1.1">
 <metadata>
  <rdf:RDF xmlns:dc="http://purl.org/dc/elements/1.1/" xmlns:cc="http://creativecommons.org/ns#" xmlns:rdf="http://www.w3.org/1999/02/22-rdf-syntax-ns#">
   <cc:Work>
    <dc:type rdf:resource="http://purl.org/dc/dcmitype/StillImage"/>
    <dc:date>2024-11-19T13:23:35.655310</dc:date>
    <dc:format>image/svg+xml</dc:format>
    <dc:creator>
     <cc:Agent>
      <dc:title>Matplotlib v3.9.2, https://matplotlib.org/</dc:title>
     </cc:Agent>
    </dc:creator>
   </cc:Work>
  </rdf:RDF>
 </metadata>
 <defs>
  <style type="text/css">*{stroke-linejoin: round; stroke-linecap: butt}</style>
 </defs>
 <g id="figure_1">
  <g id="patch_1">
   <path d="M 0 396 
L 396 396 
L 396 0 
L 0 0 
z
" style="fill: #ffffff"/>
  </g>
  <g id="axes_1">
   <g id="patch_2">
    <path d="M 66.96 164.52 
L 217.112267 164.52 
L 217.112267 30.984 
L 66.96 30.984 
z
" style="fill: #ffffff"/>
   </g>
   <g id="matplotlib.axis_1">
    <g id="xtick_1">
     <g id="line2d_1">
      <defs>
       <path id="mf7ef07f23b" d="M 0 0 
L 0 3.5 
" style="stroke: #000000; stroke-width: 0.8"/>
      </defs>
      <g>
       <use xlink:href="#mf7ef07f23b" x="94.287892" y="164.52" style="stroke: #000000; stroke-width: 0.8"/>
      </g>
     </g>
    </g>
    <g id="xtick_2">
     <g id="line2d_2">
      <g>
       <use xlink:href="#mf7ef07f23b" x="125.312892" y="164.52" style="stroke: #000000; stroke-width: 0.8"/>
      </g>
     </g>
    </g>
    <g id="xtick_3">
     <g id="line2d_3">
      <g>
       <use xlink:href="#mf7ef07f23b" x="156.337892" y="164.52" style="stroke: #000000; stroke-width: 0.8"/>
      </g>
     </g>
    </g>
    <g id="xtick_4">
     <g id="line2d_4">
      <g>
       <use xlink:href="#mf7ef07f23b" x="187.362892" y="164.52" style="stroke: #000000; stroke-width: 0.8"/>
      </g>
     </g>
    </g>
   </g>
   <g id="matplotlib.axis_2"/>
   <g id="line2d_5">
    <path d="M 66.96 164.210118 
L 69.963045 164.287588 
L 69.963045 164.365059 
L 72.215329 164.442529 
L 72.215329 164.52 
L 79.722943 164.442529 
L 79.722943 164.365059 
L 81.975227 164.287588 
L 81.975227 164.210118 
L 84.227511 164.132647 
L 84.227511 164.055177 
L 87.230556 163.977706 
L 87.230556 163.900236 
L 90.233601 163.822765 
L 90.233601 163.745294 
L 92.485885 163.667824 
L 92.485885 163.590353 
L 93.987408 163.512883 
L 93.987408 163.435412 
L 95.488931 163.357942 
L 95.488931 163.203001 
L 96.239692 163.203001 
L 96.239692 163.048059 
L 96.990453 163.048059 
L 96.990453 162.815648 
L 97.741215 162.815648 
L 97.741215 162.583236 
L 98.491976 162.583236 
L 98.491976 162.350824 
L 99.242737 162.350824 
L 99.242737 162.040942 
L 99.993499 162.040942 
L 99.993499 161.653589 
L 100.74426 161.653589 
L 100.74426 161.266237 
L 101.495021 161.266237 
L 101.495021 160.878884 
L 102.245783 160.878884 
L 102.245783 160.41406 
L 102.996544 160.41406 
L 102.996544 159.949237 
L 103.747305 159.949237 
L 103.747305 159.484414 
L 104.498067 159.484414 
L 104.498067 159.01959 
L 105.248828 159.01959 
L 105.248828 158.477297 
L 105.999589 158.477297 
L 105.999589 157.935003 
L 106.750351 157.935003 
L 106.750351 157.392709 
L 107.501112 157.392709 
L 107.501112 156.772944 
L 108.251873 156.772944 
L 108.251873 156.15318 
L 109.002635 156.15318 
L 109.002635 155.455945 
L 109.753396 155.455945 
L 109.753396 154.603769 
L 110.504157 154.603769 
L 110.504157 153.751593 
L 111.254919 153.751593 
L 111.254919 152.744475 
L 112.00568 152.744475 
L 112.00568 151.659887 
L 112.756441 151.659887 
L 112.756441 150.420359 
L 113.507203 150.420359 
L 113.507203 149.103359 
L 114.257964 149.103359 
L 114.257964 147.708889 
L 115.008725 147.708889 
L 115.008725 146.314419 
L 115.759487 146.314419 
L 115.759487 144.765008 
L 116.510248 144.765008 
L 116.510248 143.138126 
L 117.261009 143.138126 
L 117.261009 141.433774 
L 118.011771 141.433774 
L 118.011771 139.729422 
L 118.762532 139.729422 
L 118.762532 137.870128 
L 119.513293 137.870128 
L 119.513293 135.933364 
L 120.264055 135.933364 
L 120.264055 133.841659 
L 121.014816 133.841659 
L 121.014816 131.672484 
L 121.765577 131.672484 
L 121.765577 129.270896 
L 122.516339 129.270896 
L 122.516339 126.791838 
L 123.2671 126.791838 
L 123.2671 124.15784 
L 124.017862 124.15784 
L 124.017862 121.368899 
L 124.768623 121.368899 
L 124.768623 118.425018 
L 125.519384 118.425018 
L 125.519384 115.326196 
L 126.270146 115.326196 
L 126.270146 112.072433 
L 127.020907 112.072433 
L 127.020907 108.818669 
L 127.771668 108.818669 
L 127.771668 105.409965 
L 128.52243 105.409965 
L 128.52243 102.00126 
L 129.273191 102.00126 
L 129.273191 98.515085 
L 130.023952 98.515085 
L 130.023952 95.183851 
L 130.774714 95.183851 
L 130.774714 91.852617 
L 131.525475 91.852617 
L 131.525475 88.598854 
L 132.276236 88.598854 
L 132.276236 85.500031 
L 133.026998 85.500031 
L 133.026998 82.47868 
L 133.777759 82.47868 
L 133.777759 79.457328 
L 134.52852 79.457328 
L 134.52852 76.590917 
L 135.279282 76.590917 
L 135.279282 73.647036 
L 136.030043 73.647036 
L 136.030043 70.780625 
L 136.780804 70.780625 
L 136.780804 67.836744 
L 137.531566 67.836744 
L 137.531566 65.047804 
L 138.282327 65.047804 
L 138.282327 62.258864 
L 139.033088 62.258864 
L 139.033088 59.624865 
L 139.78385 59.624865 
L 139.78385 57.145807 
L 140.534611 57.145807 
L 140.534611 54.899161 
L 141.285372 54.899161 
L 141.285372 52.807456 
L 142.036134 52.807456 
L 142.036134 51.025633 
L 142.786895 51.025633 
L 142.786895 49.398752 
L 143.537656 49.398752 
L 143.537656 48.004281 
L 144.288418 48.004281 
L 144.288418 46.764753 
L 145.039179 46.764753 
L 145.039179 45.680165 
L 145.78994 45.680165 
L 145.78994 44.750518 
L 146.540702 44.750518 
L 146.540702 43.975812 
L 147.291463 43.975812 
L 147.291463 43.433519 
L 148.042224 43.433519 
L 148.042224 43.201107 
L 149.543747 43.123636 
L 149.543747 43.433519 
L 150.294508 43.433519 
L 150.294508 43.975812 
L 151.04527 43.975812 
L 151.04527 44.750518 
L 151.796031 44.750518 
L 151.796031 45.835106 
L 152.546792 45.835106 
L 152.546792 47.152105 
L 153.297554 47.152105 
L 153.297554 48.624046 
L 154.048315 48.624046 
L 154.048315 50.250928 
L 154.799076 50.250928 
L 154.799076 52.110221 
L 155.549838 52.110221 
L 155.549838 54.124456 
L 156.300599 54.124456 
L 156.300599 56.293631 
L 157.05136 56.293631 
L 157.05136 58.540277 
L 157.802122 58.540277 
L 157.802122 61.019335 
L 158.552883 61.019335 
L 158.552883 63.653334 
L 159.303644 63.653334 
L 159.303644 66.364804 
L 160.054406 66.364804 
L 160.054406 69.153744 
L 160.805167 69.153744 
L 160.805167 72.097625 
L 161.555928 72.097625 
L 161.555928 75.041506 
L 162.30669 75.041506 
L 162.30669 77.985387 
L 163.057451 77.985387 
L 163.057451 81.006739 
L 163.808212 81.006739 
L 163.808212 84.105561 
L 164.558974 84.105561 
L 164.558974 87.204384 
L 165.309735 87.204384 
L 165.309735 90.380676 
L 166.060496 90.380676 
L 166.060496 93.556969 
L 166.811258 93.556969 
L 166.811258 96.810733 
L 167.562019 96.810733 
L 167.562019 99.987026 
L 168.31278 99.987026 
L 168.31278 103.163318 
L 169.063542 103.163318 
L 169.063542 106.262141 
L 169.814303 106.262141 
L 169.814303 109.206022 
L 170.565064 109.206022 
L 170.565064 112.072433 
L 171.315826 112.072433 
L 171.315826 114.861373 
L 172.066587 114.861373 
L 172.066587 117.572842 
L 172.817348 117.572842 
L 172.817348 120.129371 
L 173.56811 120.129371 
L 173.56811 122.608428 
L 174.318871 122.608428 
L 174.318871 125.087486 
L 175.069632 125.087486 
L 175.069632 127.566544 
L 175.820394 127.566544 
L 175.820394 130.045602 
L 176.571155 130.045602 
L 176.571155 132.447189 
L 177.321916 132.447189 
L 177.321916 134.848776 
L 178.072678 134.848776 
L 178.072678 137.095423 
L 178.823439 137.095423 
L 178.823439 139.342069 
L 179.5742 139.342069 
L 179.5742 141.356303 
L 180.324962 141.356303 
L 180.324962 143.215597 
L 181.075723 143.215597 
L 181.075723 144.919949 
L 181.826484 144.919949 
L 181.826484 146.546831 
L 182.577246 146.546831 
L 182.577246 147.941301 
L 183.328007 147.941301 
L 183.328007 149.18083 
L 184.078768 149.18083 
L 184.078768 150.342888 
L 184.82953 150.342888 
L 184.82953 151.427476 
L 185.580291 151.427476 
L 185.580291 152.512064 
L 186.331052 152.512064 
L 186.331052 153.44171 
L 187.081814 153.44171 
L 187.081814 154.371357 
L 187.832575 154.371357 
L 187.832575 155.301004 
L 188.583336 155.301004 
L 188.583336 156.075709 
L 189.334098 156.075709 
L 189.334098 156.927885 
L 190.084859 156.927885 
L 190.084859 157.62512 
L 190.83562 157.62512 
L 190.83562 158.322355 
L 191.586382 158.322355 
L 191.586382 158.94212 
L 192.337143 158.94212 
L 192.337143 159.561884 
L 193.087904 159.561884 
L 193.087904 160.104178 
L 193.838666 160.104178 
L 193.838666 160.569002 
L 194.589427 160.569002 
L 194.589427 161.033825 
L 195.340188 161.033825 
L 195.340188 161.421178 
L 196.09095 161.421178 
L 196.09095 161.73106 
L 196.841711 161.73106 
L 196.841711 162.040942 
L 197.592472 162.040942 
L 197.592472 162.273354 
L 198.343234 162.273354 
L 198.343234 162.505766 
L 199.093995 162.505766 
L 199.093995 162.738177 
L 199.844756 162.738177 
L 199.844756 162.893118 
L 200.595518 162.893118 
L 200.595518 163.048059 
L 201.346279 163.048059 
L 201.346279 163.280471 
L 202.09704 163.280471 
L 202.09704 163.435412 
L 203.598563 163.512883 
L 203.598563 163.667824 
L 204.349324 163.667824 
L 204.349324 163.822765 
L 205.100086 163.822765 
L 205.100086 163.977706 
L 206.601608 164.055177 
L 206.601608 164.132647 
L 208.103131 164.210118 
L 208.103131 164.287588 
L 210.355415 164.365059 
L 210.355415 164.442529 
L 217.112267 164.52 
L 217.112267 164.52 
" clip-path="url(#p79070eb177)" style="fill: none; stroke: #00bfbf; stroke-width: 1.5; stroke-linecap: square"/>
   </g>
   <g id="patch_3">
    <path d="M 66.96 164.52 
L 66.96 30.984 
" style="fill: none; stroke: #000000; stroke-width: 0.8; stroke-linejoin: miter; stroke-linecap: square"/>
   </g>
   <g id="patch_4">
    <path d="M 217.112267 164.52 
L 217.112267 30.984 
" style="fill: none; stroke: #000000; stroke-width: 0.8; stroke-linejoin: miter; stroke-linecap: square"/>
   </g>
   <g id="patch_5">
    <path d="M 66.96 164.52 
L 217.112267 164.52 
" style="fill: none; stroke: #000000; stroke-width: 0.8; stroke-linejoin: miter; stroke-linecap: square"/>
   </g>
   <g id="patch_6">
    <path d="M 66.96 30.984 
L 217.112267 30.984 
" style="fill: none; stroke: #000000; stroke-width: 0.8; stroke-linejoin: miter; stroke-linecap: square"/>
   </g>
   <g id="text_1">
    <!-- $\Omega_{2,0}$ = ${0.3226}_{-0.0163}^{+0.0163}$ -->
    <g transform="translate(71.336134 24.984) scale(0.14 -0.14)">
     <defs>
      <path id="DejaVuSans-3a9" d="M 4647 556 
L 4647 0 
L 2772 0 
L 2772 556 
Q 3325 859 3634 1378 
Q 3944 1897 3944 2528 
Q 3944 3278 3531 3731 
Q 3119 4184 2444 4184 
Q 1769 4184 1355 3729 
Q 941 3275 941 2528 
Q 941 1897 1250 1378 
Q 1563 859 2119 556 
L 2119 0 
L 244 0 
L 244 556 
L 1241 556 
Q 747 991 519 1456 
Q 294 1922 294 2497 
Q 294 3491 894 4106 
Q 1491 4722 2444 4722 
Q 3391 4722 3994 4106 
Q 4594 3494 4594 2528 
Q 4594 1922 4372 1459 
Q 4150 997 3647 556 
L 4647 556 
z
" transform="scale(0.015625)"/>
      <path id="DejaVuSans-32" d="M 1228 531 
L 3431 531 
L 3431 0 
L 469 0 
L 469 531 
Q 828 903 1448 1529 
Q 2069 2156 2228 2338 
Q 2531 2678 2651 2914 
Q 2772 3150 2772 3378 
Q 2772 3750 2511 3984 
Q 2250 4219 1831 4219 
Q 1534 4219 1204 4116 
Q 875 4013 500 3803 
L 500 4441 
Q 881 4594 1212 4672 
Q 1544 4750 1819 4750 
Q 2544 4750 2975 4387 
Q 3406 4025 3406 3419 
Q 3406 3131 3298 2873 
Q 3191 2616 2906 2266 
Q 2828 2175 2409 1742 
Q 1991 1309 1228 531 
z
" transform="scale(0.015625)"/>
      <path id="DejaVuSans-2c" d="M 750 794 
L 1409 794 
L 1409 256 
L 897 -744 
L 494 -744 
L 750 256 
L 750 794 
z
" transform="scale(0.015625)"/>
      <path id="DejaVuSans-30" d="M 2034 4250 
Q 1547 4250 1301 3770 
Q 1056 3291 1056 2328 
Q 1056 1369 1301 889 
Q 1547 409 2034 409 
Q 2525 409 2770 889 
Q 3016 1369 3016 2328 
Q 3016 3291 2770 3770 
Q 2525 4250 2034 4250 
z
M 2034 4750 
Q 2819 4750 3233 4129 
Q 3647 3509 3647 2328 
Q 3647 1150 3233 529 
Q 2819 -91 2034 -91 
Q 1250 -91 836 529 
Q 422 1150 422 2328 
Q 422 3509 836 4129 
Q 1250 4750 2034 4750 
z
" transform="scale(0.015625)"/>
      <path id="DejaVuSans-20" transform="scale(0.015625)"/>
      <path id="DejaVuSans-3d" d="M 678 2906 
L 4684 2906 
L 4684 2381 
L 678 2381 
L 678 2906 
z
M 678 1631 
L 4684 1631 
L 4684 1100 
L 678 1100 
L 678 1631 
z
" transform="scale(0.015625)"/>
      <path id="DejaVuSans-2e" d="M 684 794 
L 1344 794 
L 1344 0 
L 684 0 
L 684 794 
z
" transform="scale(0.015625)"/>
      <path id="DejaVuSans-33" d="M 2597 2516 
Q 3050 2419 3304 2112 
Q 3559 1806 3559 1356 
Q 3559 666 3084 287 
Q 2609 -91 1734 -91 
Q 1441 -91 1130 -33 
Q 819 25 488 141 
L 488 750 
Q 750 597 1062 519 
Q 1375 441 1716 441 
Q 2309 441 2620 675 
Q 2931 909 2931 1356 
Q 2931 1769 2642 2001 
Q 2353 2234 1838 2234 
L 1294 2234 
L 1294 2753 
L 1863 2753 
Q 2328 2753 2575 2939 
Q 2822 3125 2822 3475 
Q 2822 3834 2567 4026 
Q 2313 4219 1838 4219 
Q 1578 4219 1281 4162 
Q 984 4106 628 3988 
L 628 4550 
Q 988 4650 1302 4700 
Q 1616 4750 1894 4750 
Q 2613 4750 3031 4423 
Q 3450 4097 3450 3541 
Q 3450 3153 3228 2886 
Q 3006 2619 2597 2516 
z
" transform="scale(0.015625)"/>
      <path id="DejaVuSans-36" d="M 2113 2584 
Q 1688 2584 1439 2293 
Q 1191 2003 1191 1497 
Q 1191 994 1439 701 
Q 1688 409 2113 409 
Q 2538 409 2786 701 
Q 3034 994 3034 1497 
Q 3034 2003 2786 2293 
Q 2538 2584 2113 2584 
z
M 3366 4563 
L 3366 3988 
Q 3128 4100 2886 4159 
Q 2644 4219 2406 4219 
Q 1781 4219 1451 3797 
Q 1122 3375 1075 2522 
Q 1259 2794 1537 2939 
Q 1816 3084 2150 3084 
Q 2853 3084 3261 2657 
Q 3669 2231 3669 1497 
Q 3669 778 3244 343 
Q 2819 -91 2113 -91 
Q 1303 -91 875 529 
Q 447 1150 447 2328 
Q 447 3434 972 4092 
Q 1497 4750 2381 4750 
Q 2619 4750 2861 4703 
Q 3103 4656 3366 4563 
z
" transform="scale(0.015625)"/>
      <path id="DejaVuSans-2b" d="M 2944 4013 
L 2944 2272 
L 4684 2272 
L 4684 1741 
L 2944 1741 
L 2944 0 
L 2419 0 
L 2419 1741 
L 678 1741 
L 678 2272 
L 2419 2272 
L 2419 4013 
L 2944 4013 
z
" transform="scale(0.015625)"/>
      <path id="DejaVuSans-31" d="M 794 531 
L 1825 531 
L 1825 4091 
L 703 3866 
L 703 4441 
L 1819 4666 
L 2450 4666 
L 2450 531 
L 3481 531 
L 3481 0 
L 794 0 
L 794 531 
z
" transform="scale(0.015625)"/>
      <path id="DejaVuSans-2212" d="M 678 2272 
L 4684 2272 
L 4684 1741 
L 678 1741 
L 678 2272 
z
" transform="scale(0.015625)"/>
     </defs>
     <use xlink:href="#DejaVuSans-3a9" transform="translate(0 0.765625)"/>
     <use xlink:href="#DejaVuSans-32" transform="translate(77.373047 -15.640625) scale(0.7)"/>
     <use xlink:href="#DejaVuSans-2c" transform="translate(121.90918 -15.640625) scale(0.7)"/>
     <use xlink:href="#DejaVuSans-30" transform="translate(157.797852 -15.640625) scale(0.7)"/>
     <use xlink:href="#DejaVuSans-20" transform="translate(205.068359 0.765625)"/>
     <use xlink:href="#DejaVuSans-3d" transform="translate(236.855469 0.765625)"/>
     <use xlink:href="#DejaVuSans-20" transform="translate(320.644531 0.765625)"/>
     <use xlink:href="#DejaVuSans-30" transform="translate(352.431641 0.765625)"/>
     <use xlink:href="#DejaVuSans-2e" transform="translate(416.054688 0.765625)"/>
     <use xlink:href="#DejaVuSans-33" transform="translate(447.841797 0.765625)"/>
     <use xlink:href="#DejaVuSans-32" transform="translate(511.464844 0.765625)"/>
     <use xlink:href="#DejaVuSans-32" transform="translate(575.087891 0.765625)"/>
     <use xlink:href="#DejaVuSans-36" transform="translate(638.710938 0.765625)"/>
     <use xlink:href="#DejaVuSans-2b" transform="translate(703.291016 39.046875) scale(0.7)"/>
     <use xlink:href="#DejaVuSans-30" transform="translate(761.943359 39.046875) scale(0.7)"/>
     <use xlink:href="#DejaVuSans-2e" transform="translate(806.479492 39.046875) scale(0.7)"/>
     <use xlink:href="#DejaVuSans-30" transform="translate(828.730469 39.046875) scale(0.7)"/>
     <use xlink:href="#DejaVuSans-31" transform="translate(873.266602 39.046875) scale(0.7)"/>
     <use xlink:href="#DejaVuSans-36" transform="translate(917.802734 39.046875) scale(0.7)"/>
     <use xlink:href="#DejaVuSans-33" transform="translate(962.338867 39.046875) scale(0.7)"/>
     <use xlink:href="#DejaVuSans-2212" transform="translate(703.291016 -26.578125) scale(0.7)"/>
     <use xlink:href="#DejaVuSans-30" transform="translate(761.943359 -26.578125) scale(0.7)"/>
     <use xlink:href="#DejaVuSans-2e" transform="translate(806.479492 -26.578125) scale(0.7)"/>
     <use xlink:href="#DejaVuSans-30" transform="translate(828.730469 -26.578125) scale(0.7)"/>
     <use xlink:href="#DejaVuSans-31" transform="translate(873.266602 -26.578125) scale(0.7)"/>
     <use xlink:href="#DejaVuSans-36" transform="translate(917.802734 -26.578125) scale(0.7)"/>
     <use xlink:href="#DejaVuSans-33" transform="translate(962.338867 -26.578125) scale(0.7)"/>
    </g>
   </g>
  </g>
  <g id="axes_2">
   <g id="matplotlib.axis_3"/>
   <g id="matplotlib.axis_4"/>
  </g>
  <g id="axes_3">
   <g id="patch_7">
    <path d="M 66.96 329.04 
L 217.112267 329.04 
L 217.112267 195.504 
L 66.96 195.504 
z
" style="fill: #ffffff"/>
   </g>
   <g id="QuadContourSet_1">
    <path d="M 107.501112 322.569871 
L 110.504157 323.410942 
L 113.507203 324.193731 
L 116.510248 324.701248 
L 119.513293 324.362752 
L 122.516339 323.853457 
L 125.519384 323.701523 
L 128.52243 323.722748 
L 131.525475 323.612116 
L 134.52852 323.250494 
L 137.531566 323.078747 
L 140.534611 322.744522 
L 141.653193 322.3632 
L 143.537656 321.911369 
L 146.540702 321.207967 
L 149.543747 321.239596 
L 152.546792 321.45489 
L 155.549838 320.939389 
L 158.396039 319.69248 
L 158.552883 319.622201 
L 161.555928 317.641872 
L 162.404706 317.02176 
L 164.558974 315.763054 
L 167.396364 314.35104 
L 167.562019 314.284789 
L 170.565064 313.145489 
L 173.56811 311.828219 
L 174.226466 311.68032 
L 176.571155 311.119928 
L 179.5742 309.231494 
L 179.755674 309.0096 
L 180.176846 306.33888 
L 180.72491 303.66816 
L 181.875798 300.99744 
L 182.577246 299.421385 
L 183.107861 298.32672 
L 183.948294 295.656 
L 184.068082 292.98528 
L 183.976463 290.31456 
L 184.555977 287.64384 
L 185.580291 286.219545 
L 186.488686 284.97312 
L 186.937666 282.3024 
L 185.580291 280.220545 
L 185.286572 279.63168 
L 184.740002 276.96096 
L 185.532176 274.29024 
L 185.580291 274.203115 
L 187.241067 271.61952 
L 187.708193 268.9488 
L 187.706005 266.27808 
L 187.525879 263.60736 
L 186.356895 260.93664 
L 185.580291 259.403778 
L 185.028114 258.26592 
L 184.969077 255.5952 
L 185.580291 252.926019 
L 185.580674 252.92448 
L 186.086646 250.25376 
L 185.652345 247.58304 
L 185.580291 247.04024 
L 185.346995 244.91232 
L 185.580291 242.2416 
L 185.580291 242.2416 
L 185.821185 239.57088 
L 185.664533 236.90016 
L 185.580291 236.053285 
L 185.480459 234.22944 
L 185.580291 233.680493 
L 186.240627 231.55872 
L 186.248915 228.888 
L 185.864047 226.21728 
L 186.107854 223.54656 
L 185.580291 221.150904 
L 185.532336 220.87584 
L 185.160852 218.20512 
L 185.096974 215.5344 
L 184.829129 212.86368 
L 184.672627 210.19296 
L 184.42707 207.52224 
L 184.421692 204.85152 
L 184.857292 202.1808 
L 184.963357 199.51008 
L 184.689798 196.83936 
L 184.689798 194.16864 
L 182.577246 193.808974 
L 179.5742 193.060738 
L 176.571155 192.559156 
L 173.56811 192.266207 
L 170.565064 192.08686 
L 167.562019 191.989715 
L 164.558974 191.942035 
L 161.555928 191.881707 
L 158.552883 191.809127 
L 155.549838 191.779188 
L 152.546792 191.780865 
L 149.543747 191.795803 
L 146.540702 191.822649 
L 143.537656 191.853018 
L 140.534611 191.88547 
L 137.531566 191.901187 
L 134.52852 191.898581 
L 131.525475 191.934631 
L 128.52243 192.07312 
L 125.519384 192.36544 
L 122.516339 192.701577 
L 119.513293 192.910229 
L 116.510248 193.321469 
L 114.230708 194.16864 
L 114.230708 196.83936 
L 114.588554 199.51008 
L 115.087763 202.1808 
L 115.263947 204.85152 
L 115.646615 207.52224 
L 116.017304 210.19296 
L 115.893959 212.86368 
L 115.728901 215.5344 
L 115.361036 218.20512 
L 114.420916 220.87584 
L 113.849205 223.54656 
L 113.932827 226.21728 
L 113.719211 228.888 
L 113.507203 230.031937 
L 113.095425 231.55872 
L 112.868642 234.22944 
L 113.111201 236.90016 
L 113.480156 239.57088 
L 113.507203 239.725641 
L 113.880397 242.2416 
L 114.19848 244.91232 
L 114.301219 247.58304 
L 113.908419 250.25376 
L 113.507203 252.127271 
L 113.172823 252.92448 
L 112.90791 255.5952 
L 113.255893 258.26592 
L 113.507203 259.586056 
L 113.664821 260.93664 
L 113.921446 263.60736 
L 113.784795 266.27808 
L 113.644498 268.9488 
L 113.527067 271.61952 
L 113.507203 271.83919 
L 113.257079 274.29024 
L 113.148783 276.96096 
L 113.507203 279.572131 
L 113.515301 279.63168 
L 113.78499 282.3024 
L 113.834439 284.97312 
L 114.785421 287.64384 
L 115.440327 290.31456 
L 115.27312 292.98528 
L 115.024566 295.656 
L 114.577239 298.32672 
L 114.142279 300.99744 
L 113.507203 302.486544 
L 112.9267 303.66816 
L 111.869109 306.33888 
L 111.545951 309.0096 
L 110.969694 311.68032 
L 110.504157 312.948183 
L 109.675102 314.35104 
L 108.201486 317.02176 
L 107.501112 318.273005 
L 106.269522 319.69248 
L 106.924308 322.3632 
z
" clip-path="url(#p58d27b0491)" style="fill: #ffffff"/>
   </g>
   <g id="QuadContourSet_2">
    <path d="M 65.458477 333.04608 
L 68.461523 333.04608 
L 71.464568 333.04608 
L 74.467613 333.04608 
L 77.470659 333.04608 
L 80.473704 333.04608 
L 83.476749 333.04608 
L 86.479795 333.04608 
L 89.48284 333.04608 
L 92.485885 333.04608 
L 95.488931 333.04608 
L 98.491976 333.04608 
L 101.495021 333.04608 
L 104.498067 333.04608 
L 107.501112 333.04608 
L 110.504157 333.04608 
L 113.507203 333.04608 
L 116.510248 333.04608 
L 119.513293 333.04608 
L 122.516339 333.04608 
L 125.519384 333.04608 
L 128.52243 333.04608 
L 131.525475 333.04608 
L 134.52852 333.04608 
L 137.531566 333.04608 
L 140.534611 333.04608 
L 143.537656 333.04608 
L 146.540702 333.04608 
L 149.543747 333.04608 
L 152.546792 333.04608 
L 155.549838 333.04608 
L 158.552883 333.04608 
L 161.555928 333.04608 
L 164.558974 333.04608 
L 167.562019 333.04608 
L 170.565064 333.04608 
L 173.56811 333.04608 
L 176.571155 333.04608 
L 179.5742 333.04608 
L 182.577246 333.04608 
L 185.580291 333.04608 
L 188.583336 333.04608 
L 191.586382 333.04608 
L 194.589427 333.04608 
L 197.592472 333.04608 
L 200.595518 333.04608 
L 203.598563 333.04608 
L 206.601608 333.04608 
L 209.604654 333.04608 
L 212.607699 333.04608 
L 215.610744 333.04608 
L 218.61379 333.04608 
L 221.616835 333.04608 
L 221.616835 330.37536 
L 221.616835 327.70464 
L 221.616835 325.03392 
L 221.616835 322.3632 
L 221.616835 319.69248 
L 221.616835 317.02176 
L 221.616835 314.35104 
L 221.616835 311.68032 
L 221.616835 309.0096 
L 221.616835 306.33888 
L 221.616835 303.66816 
L 221.616835 300.99744 
L 221.616835 298.32672 
L 221.616835 295.656 
L 221.616835 292.98528 
L 221.616835 290.31456 
L 221.616835 287.64384 
L 221.616835 284.97312 
L 221.616835 282.3024 
L 221.616835 279.63168 
L 221.616835 276.96096 
L 221.616835 274.29024 
L 221.616835 271.61952 
L 221.616835 268.9488 
L 221.616835 266.27808 
L 221.616835 263.60736 
L 221.616835 260.93664 
L 221.616835 258.26592 
L 221.616835 255.5952 
L 221.616835 252.92448 
L 221.616835 250.25376 
L 221.616835 247.58304 
L 221.616835 244.91232 
L 221.616835 242.2416 
L 221.616835 239.57088 
L 221.616835 236.90016 
L 221.616835 234.22944 
L 221.616835 231.55872 
L 221.616835 228.888 
L 221.616835 226.21728 
L 221.616835 223.54656 
L 221.616835 220.87584 
L 221.616835 218.20512 
L 221.616835 215.5344 
L 221.616835 212.86368 
L 221.616835 210.19296 
L 221.616835 207.52224 
L 221.616835 204.85152 
L 221.616835 202.1808 
L 221.616835 199.51008 
L 221.616835 196.83936 
L 221.616835 194.16864 
L 221.616835 191.49792 
L 218.61379 191.49792 
L 215.610744 191.49792 
L 212.607699 191.49792 
L 209.604654 191.49792 
L 206.601608 191.49792 
L 203.598563 191.49792 
L 200.595518 191.49792 
L 197.592472 191.49792 
L 194.589427 191.49792 
L 191.586382 191.49792 
L 188.583336 191.49792 
L 185.580291 191.49792 
L 182.577246 191.49792 
L 179.5742 191.49792 
L 176.571155 191.49792 
L 173.56811 191.49792 
L 170.565064 191.49792 
L 167.562019 191.49792 
L 164.558974 191.49792 
L 161.555928 191.49792 
L 158.552883 191.49792 
L 155.549838 191.49792 
L 152.546792 191.49792 
L 149.543747 191.49792 
L 146.540702 191.49792 
L 143.537656 191.49792 
L 140.534611 191.49792 
L 137.531566 191.49792 
L 134.52852 191.49792 
L 131.525475 191.49792 
L 128.52243 191.49792 
L 125.519384 191.49792 
L 122.516339 191.49792 
L 119.513293 191.49792 
L 116.510248 191.49792 
L 113.507203 191.49792 
L 110.504157 191.49792 
L 107.501112 191.49792 
L 104.498067 191.49792 
L 101.495021 191.49792 
L 98.491976 191.49792 
L 95.488931 191.49792 
L 92.485885 191.49792 
L 89.48284 191.49792 
L 86.479795 191.49792 
L 83.476749 191.49792 
L 80.473704 191.49792 
L 77.470659 191.49792 
L 74.467613 191.49792 
L 71.464568 191.49792 
L 68.461523 191.49792 
L 65.458477 191.49792 
L 62.455432 191.49792 
L 62.455432 194.16864 
L 62.455432 196.83936 
L 62.455432 199.51008 
L 62.455432 202.1808 
L 62.455432 204.85152 
L 62.455432 207.52224 
L 62.455432 210.19296 
L 62.455432 212.86368 
L 62.455432 215.5344 
L 62.455432 218.20512 
L 62.455432 220.87584 
L 62.455432 223.54656 
L 62.455432 226.21728 
L 62.455432 228.888 
L 62.455432 231.55872 
L 62.455432 234.22944 
L 62.455432 236.90016 
L 62.455432 239.57088 
L 62.455432 242.2416 
L 62.455432 244.91232 
L 62.455432 247.58304 
L 62.455432 250.25376 
L 62.455432 252.92448 
L 62.455432 255.5952 
L 62.455432 258.26592 
L 62.455432 260.93664 
L 62.455432 263.60736 
L 62.455432 266.27808 
L 62.455432 268.9488 
L 62.455432 271.61952 
L 62.455432 274.29024 
L 62.455432 276.96096 
L 62.455432 279.63168 
L 62.455432 282.3024 
L 62.455432 284.97312 
L 62.455432 287.64384 
L 62.455432 290.31456 
L 62.455432 292.98528 
L 62.455432 295.656 
L 62.455432 298.32672 
L 62.455432 300.99744 
L 62.455432 303.66816 
L 62.455432 306.33888 
L 62.455432 309.0096 
L 62.455432 311.68032 
L 62.455432 314.35104 
L 62.455432 317.02176 
L 62.455432 319.69248 
L 62.455432 322.3632 
L 62.455432 325.03392 
L 62.455432 327.70464 
L 62.455432 330.37536 
L 62.455432 333.04608 
L 65.458477 333.04608 
z
M 106.924308 322.3632 
L 106.269522 319.69248 
L 107.501112 318.273005 
L 108.201486 317.02176 
L 109.675102 314.35104 
L 110.504157 312.948183 
L 110.969694 311.68032 
L 111.545951 309.0096 
L 111.869109 306.33888 
L 112.9267 303.66816 
L 113.507203 302.486544 
L 114.142279 300.99744 
L 114.577239 298.32672 
L 115.024566 295.656 
L 115.27312 292.98528 
L 115.440327 290.31456 
L 114.785421 287.64384 
L 113.834439 284.97312 
L 113.78499 282.3024 
L 113.515301 279.63168 
L 113.507203 279.572131 
L 113.148783 276.96096 
L 113.257079 274.29024 
L 113.507203 271.83919 
L 113.527067 271.61952 
L 113.644498 268.9488 
L 113.784795 266.27808 
L 113.921446 263.60736 
L 113.664821 260.93664 
L 113.507203 259.586056 
L 113.255893 258.26592 
L 112.90791 255.5952 
L 113.172823 252.92448 
L 113.507203 252.127271 
L 113.908419 250.25376 
L 114.301219 247.58304 
L 114.19848 244.91232 
L 113.880397 242.2416 
L 113.507203 239.725641 
L 113.480156 239.57088 
L 113.111201 236.90016 
L 112.868642 234.22944 
L 113.095425 231.55872 
L 113.507203 230.031937 
L 113.719211 228.888 
L 113.932827 226.21728 
L 113.849205 223.54656 
L 114.420916 220.87584 
L 115.361036 218.20512 
L 115.728901 215.5344 
L 115.893959 212.86368 
L 116.017304 210.19296 
L 115.646615 207.52224 
L 115.263947 204.85152 
L 115.087763 202.1808 
L 114.588554 199.51008 
L 114.230708 196.83936 
L 114.230708 194.16864 
L 116.510248 193.321469 
L 119.513293 192.910229 
L 122.516339 192.701577 
L 125.519384 192.36544 
L 128.52243 192.07312 
L 131.525475 191.934631 
L 134.52852 191.898581 
L 137.531566 191.901187 
L 140.534611 191.88547 
L 143.537656 191.853018 
L 146.540702 191.822649 
L 149.543747 191.795803 
L 152.546792 191.780865 
L 155.549838 191.779188 
L 158.552883 191.809127 
L 161.555928 191.881707 
L 164.558974 191.942035 
L 167.562019 191.989715 
L 170.565064 192.08686 
L 173.56811 192.266207 
L 176.571155 192.559156 
L 179.5742 193.060738 
L 182.577246 193.808974 
L 184.689798 194.16864 
L 184.689798 196.83936 
L 184.963357 199.51008 
L 184.857292 202.1808 
L 184.421692 204.85152 
L 184.42707 207.52224 
L 184.672627 210.19296 
L 184.829129 212.86368 
L 185.096974 215.5344 
L 185.160852 218.20512 
L 185.532336 220.87584 
L 185.580291 221.150904 
L 186.107854 223.54656 
L 185.864047 226.21728 
L 186.248915 228.888 
L 186.240627 231.55872 
L 185.580291 233.680493 
L 185.480459 234.22944 
L 185.580291 236.053285 
L 185.664533 236.90016 
L 185.821185 239.57088 
L 185.580291 242.2416 
L 185.580291 242.2416 
L 185.346995 244.91232 
L 185.580291 247.04024 
L 185.652345 247.58304 
L 186.086646 250.25376 
L 185.580674 252.92448 
L 185.580291 252.926019 
L 184.969077 255.5952 
L 185.028114 258.26592 
L 185.580291 259.403778 
L 186.356895 260.93664 
L 187.525879 263.60736 
L 187.706005 266.27808 
L 187.708193 268.9488 
L 187.241067 271.61952 
L 185.580291 274.203115 
L 185.532176 274.29024 
L 184.740002 276.96096 
L 185.286572 279.63168 
L 185.580291 280.220545 
L 186.937666 282.3024 
L 186.488686 284.97312 
L 185.580291 286.219545 
L 184.555977 287.64384 
L 183.976463 290.31456 
L 184.068082 292.98528 
L 183.948294 295.656 
L 183.107861 298.32672 
L 182.577246 299.421385 
L 181.875798 300.99744 
L 180.72491 303.66816 
L 180.176846 306.33888 
L 179.755674 309.0096 
L 179.5742 309.231494 
L 176.571155 311.119928 
L 174.226466 311.68032 
L 173.56811 311.828219 
L 170.565064 313.145489 
L 167.562019 314.284789 
L 167.396364 314.35104 
L 164.558974 315.763054 
L 162.404706 317.02176 
L 161.555928 317.641872 
L 158.552883 319.622201 
L 158.396039 319.69248 
L 155.549838 320.939389 
L 152.546792 321.45489 
L 149.543747 321.239596 
L 146.540702 321.207967 
L 143.537656 321.911369 
L 141.653193 322.3632 
L 140.534611 322.744522 
L 137.531566 323.078747 
L 134.52852 323.250494 
L 131.525475 323.612116 
L 128.52243 323.722748 
L 125.519384 323.701523 
L 122.516339 323.853457 
L 119.513293 324.362752 
L 116.510248 324.701248 
L 113.507203 324.193731 
L 110.504157 323.410942 
L 107.501112 322.569871 
L 106.924308 322.3632 
z
" clip-path="url(#p58d27b0491)" style="fill: none"/>
    <path d="M 107.501112 322.569871 
L 110.504157 323.410942 
L 113.507203 324.193731 
L 116.510248 324.701248 
L 119.513293 324.362752 
L 122.516339 323.853457 
L 125.519384 323.701523 
L 128.52243 323.722748 
L 131.525475 323.612116 
L 134.52852 323.250494 
L 137.531566 323.078747 
L 140.534611 322.744522 
L 141.653193 322.3632 
L 143.537656 321.911369 
L 146.540702 321.207967 
L 149.543747 321.239596 
L 152.546792 321.45489 
L 155.549838 320.939389 
L 158.396039 319.69248 
L 158.552883 319.622201 
L 161.555928 317.641872 
L 162.404706 317.02176 
L 164.558974 315.763054 
L 167.396364 314.35104 
L 167.562019 314.284789 
L 170.565064 313.145489 
L 173.56811 311.828219 
L 174.226466 311.68032 
L 176.571155 311.119928 
L 179.5742 309.231494 
L 179.755674 309.0096 
L 180.176846 306.33888 
L 180.72491 303.66816 
L 181.875798 300.99744 
L 182.577246 299.421385 
L 183.107861 298.32672 
L 183.948294 295.656 
L 184.068082 292.98528 
L 183.976463 290.31456 
L 184.555977 287.64384 
L 185.580291 286.219545 
L 186.488686 284.97312 
L 186.937666 282.3024 
L 185.580291 280.220545 
L 185.286572 279.63168 
L 184.740002 276.96096 
L 185.532176 274.29024 
L 185.580291 274.203115 
L 187.241067 271.61952 
L 187.708193 268.9488 
L 187.706005 266.27808 
L 187.525879 263.60736 
L 186.356895 260.93664 
L 185.580291 259.403778 
L 185.028114 258.26592 
L 184.969077 255.5952 
L 185.580291 252.926019 
L 185.580674 252.92448 
L 186.086646 250.25376 
L 185.652345 247.58304 
L 185.580291 247.04024 
L 185.346995 244.91232 
L 185.580291 242.2416 
L 185.580291 242.2416 
L 185.821185 239.57088 
L 185.664533 236.90016 
L 185.580291 236.053285 
L 185.480459 234.22944 
L 185.580291 233.680493 
L 186.240627 231.55872 
L 186.248915 228.888 
L 185.864047 226.21728 
L 186.107854 223.54656 
L 185.580291 221.150904 
L 185.532336 220.87584 
L 185.160852 218.20512 
L 185.096974 215.5344 
L 184.829129 212.86368 
L 184.672627 210.19296 
L 184.42707 207.52224 
L 184.421692 204.85152 
L 184.857292 202.1808 
L 184.963357 199.51008 
L 184.689798 196.83936 
L 184.689798 194.16864 
L 182.577246 193.808974 
L 179.5742 193.060738 
L 176.571155 192.559156 
L 173.56811 192.266207 
L 170.565064 192.08686 
L 167.562019 191.989715 
L 164.558974 191.942035 
L 161.555928 191.881707 
L 158.552883 191.809127 
L 155.549838 191.779188 
L 152.546792 191.780865 
L 149.543747 191.795803 
L 146.540702 191.822649 
L 143.537656 191.853018 
L 140.534611 191.88547 
L 137.531566 191.901187 
L 134.52852 191.898581 
L 131.525475 191.934631 
L 128.52243 192.07312 
L 125.519384 192.36544 
L 122.516339 192.701577 
L 119.513293 192.910229 
L 116.510248 193.321469 
L 114.230708 194.16864 
L 114.230708 196.83936 
L 114.588554 199.51008 
L 115.087763 202.1808 
L 115.263947 204.85152 
L 115.646615 207.52224 
L 116.017304 210.19296 
L 115.893959 212.86368 
L 115.728901 215.5344 
L 115.361036 218.20512 
L 114.420916 220.87584 
L 113.849205 223.54656 
L 113.932827 226.21728 
L 113.719211 228.888 
L 113.507203 230.031937 
L 113.095425 231.55872 
L 112.868642 234.22944 
L 113.111201 236.90016 
L 113.480156 239.57088 
L 113.507203 239.725641 
L 113.880397 242.2416 
L 114.19848 244.91232 
L 114.301219 247.58304 
L 113.908419 250.25376 
L 113.507203 252.127271 
L 113.172823 252.92448 
L 112.90791 255.5952 
L 113.255893 258.26592 
L 113.507203 259.586056 
L 113.664821 260.93664 
L 113.921446 263.60736 
L 113.784795 266.27808 
L 113.644498 268.9488 
L 113.527067 271.61952 
L 113.507203 271.83919 
L 113.257079 274.29024 
L 113.148783 276.96096 
L 113.507203 279.572131 
L 113.515301 279.63168 
L 113.78499 282.3024 
L 113.834439 284.97312 
L 114.785421 287.64384 
L 115.440327 290.31456 
L 115.27312 292.98528 
L 115.024566 295.656 
L 114.577239 298.32672 
L 114.142279 300.99744 
L 113.507203 302.486544 
L 112.9267 303.66816 
L 111.869109 306.33888 
L 111.545951 309.0096 
L 110.969694 311.68032 
L 110.504157 312.948183 
L 109.675102 314.35104 
L 108.201486 317.02176 
L 107.501112 318.273005 
L 106.269522 319.69248 
L 106.924308 322.3632 
z
M 132.987713 311.68032 
L 133.79921 309.0096 
L 134.52852 307.3351 
L 134.932823 306.33888 
L 134.829334 303.66816 
L 134.52852 302.452199 
L 134.08969 300.99744 
L 134.202343 298.32672 
L 134.52852 296.951725 
L 134.757888 295.656 
L 134.52852 294.266126 
L 134.210477 292.98528 
L 132.727461 290.31456 
L 131.608656 287.64384 
L 131.525475 287.370001 
L 130.898539 284.97312 
L 130.659058 282.3024 
L 130.711517 279.63168 
L 130.729364 276.96096 
L 131.009932 274.29024 
L 131.187387 271.61952 
L 131.014981 268.9488 
L 130.861091 266.27808 
L 130.559775 263.60736 
L 130.644029 260.93664 
L 131.102181 258.26592 
L 131.0852 255.5952 
L 130.658553 252.92448 
L 130.149862 250.25376 
L 130.050215 247.58304 
L 129.953771 244.91232 
L 129.521457 242.2416 
L 129.484895 239.57088 
L 130.116064 236.90016 
L 130.663638 234.22944 
L 130.882332 231.55872 
L 131.317384 228.888 
L 131.525475 227.159226 
L 131.621317 226.21728 
L 131.525475 225.62981 
L 131.169129 223.54656 
L 130.47983 220.87584 
L 130.784368 218.20512 
L 131.525475 215.623962 
L 131.546442 215.5344 
L 131.902115 212.86368 
L 131.92254 210.19296 
L 131.745816 207.52224 
L 131.525475 205.908044 
L 131.376083 204.85152 
L 130.692102 202.1808 
L 129.923412 199.51008 
L 129.587854 196.83936 
L 129.587854 194.16864 
L 131.525475 193.75375 
L 134.52852 193.567534 
L 137.531566 193.580999 
L 140.534611 193.499808 
L 143.537656 193.332179 
L 146.540702 193.175309 
L 149.543747 193.036635 
L 152.546792 192.959471 
L 155.549838 192.950808 
L 158.552883 193.105461 
L 161.555928 193.480371 
L 164.558974 193.791999 
L 167.562019 194.038289 
L 168.450601 194.16864 
L 168.450601 196.83936 
L 169.287256 199.51008 
L 169.929311 202.1808 
L 169.809101 204.85152 
L 168.962933 207.52224 
L 168.60252 210.19296 
L 168.96008 212.86368 
L 168.660753 215.5344 
L 167.562019 217.296159 
L 167.082629 218.20512 
L 166.675483 220.87584 
L 167.562019 223.166628 
L 167.780663 223.54656 
L 169.335523 226.21728 
L 169.732237 228.888 
L 169.0719 231.55872 
L 168.418741 234.22944 
L 168.451541 236.90016 
L 168.152337 239.57088 
L 167.742519 242.2416 
L 167.856612 244.91232 
L 167.800057 247.58304 
L 167.562019 249.375833 
L 167.432904 250.25376 
L 167.562019 252.61722 
L 167.577731 252.92448 
L 167.67388 255.5952 
L 167.562019 256.168806 
L 167.196784 258.26592 
L 166.724229 260.93664 
L 166.964537 263.60736 
L 167.301896 266.27808 
L 167.562019 268.9488 
L 167.538379 271.61952 
L 166.821534 274.29024 
L 165.981954 276.96096 
L 165.062014 279.63168 
L 164.773829 282.3024 
L 164.723587 284.97312 
L 164.763284 287.64384 
L 165.118286 290.31456 
L 165.689877 292.98528 
L 165.683804 295.656 
L 165.321445 298.32672 
L 164.558974 300.09165 
L 164.068527 300.99744 
L 162.257438 303.66816 
L 161.555928 304.786592 
L 160.550504 306.33888 
L 158.552883 308.346839 
L 157.968032 309.0096 
L 155.549838 310.700262 
L 153.253971 311.68032 
L 152.546792 311.947705 
L 149.543747 312.451896 
L 146.540702 312.528567 
L 143.537656 312.931947 
L 140.534611 313.603337 
L 137.531566 313.605211 
L 134.52852 312.777685 
z
" clip-path="url(#p58d27b0491)" style="fill: #00bfbf; fill-opacity: 0.333333"/>
    <path d="M 134.52852 312.777685 
L 137.531566 313.605211 
L 140.534611 313.603337 
L 143.537656 312.931947 
L 146.540702 312.528567 
L 149.543747 312.451896 
L 152.546792 311.947705 
L 153.253971 311.68032 
L 155.549838 310.700262 
L 157.968032 309.0096 
L 158.552883 308.346839 
L 160.550504 306.33888 
L 161.555928 304.786592 
L 162.257438 303.66816 
L 164.068527 300.99744 
L 164.558974 300.09165 
L 165.321445 298.32672 
L 165.683804 295.656 
L 165.689877 292.98528 
L 165.118286 290.31456 
L 164.763284 287.64384 
L 164.723587 284.97312 
L 164.773829 282.3024 
L 165.062014 279.63168 
L 165.981954 276.96096 
L 166.821534 274.29024 
L 167.538379 271.61952 
L 167.562019 268.9488 
L 167.301896 266.27808 
L 166.964537 263.60736 
L 166.724229 260.93664 
L 167.196784 258.26592 
L 167.562019 256.168806 
L 167.67388 255.5952 
L 167.577731 252.92448 
L 167.562019 252.61722 
L 167.432904 250.25376 
L 167.562019 249.375833 
L 167.800057 247.58304 
L 167.856612 244.91232 
L 167.742519 242.2416 
L 168.152337 239.57088 
L 168.451541 236.90016 
L 168.418741 234.22944 
L 169.0719 231.55872 
L 169.732237 228.888 
L 169.335523 226.21728 
L 167.780663 223.54656 
L 167.562019 223.166628 
L 166.675483 220.87584 
L 167.082629 218.20512 
L 167.562019 217.296159 
L 168.660753 215.5344 
L 168.96008 212.86368 
L 168.60252 210.19296 
L 168.962933 207.52224 
L 169.809101 204.85152 
L 169.929311 202.1808 
L 169.287256 199.51008 
L 168.450601 196.83936 
L 168.450601 194.16864 
L 167.562019 194.038289 
L 164.558974 193.791999 
L 161.555928 193.480371 
L 158.552883 193.105461 
L 155.549838 192.950808 
L 152.546792 192.959471 
L 149.543747 193.036635 
L 146.540702 193.175309 
L 143.537656 193.332179 
L 140.534611 193.499808 
L 137.531566 193.580999 
L 134.52852 193.567534 
L 131.525475 193.75375 
L 129.587854 194.16864 
L 129.587854 196.83936 
L 129.923412 199.51008 
L 130.692102 202.1808 
L 131.376083 204.85152 
L 131.525475 205.908044 
L 131.745816 207.52224 
L 131.92254 210.19296 
L 131.902115 212.86368 
L 131.546442 215.5344 
L 131.525475 215.623962 
L 130.784368 218.20512 
L 130.47983 220.87584 
L 131.169129 223.54656 
L 131.525475 225.62981 
L 131.621317 226.21728 
L 131.525475 227.159226 
L 131.317384 228.888 
L 130.882332 231.55872 
L 130.663638 234.22944 
L 130.116064 236.90016 
L 129.484895 239.57088 
L 129.521457 242.2416 
L 129.953771 244.91232 
L 130.050215 247.58304 
L 130.149862 250.25376 
L 130.658553 252.92448 
L 131.0852 255.5952 
L 131.102181 258.26592 
L 130.644029 260.93664 
L 130.559775 263.60736 
L 130.861091 266.27808 
L 131.014981 268.9488 
L 131.187387 271.61952 
L 131.009932 274.29024 
L 130.729364 276.96096 
L 130.711517 279.63168 
L 130.659058 282.3024 
L 130.898539 284.97312 
L 131.525475 287.370001 
L 131.608656 287.64384 
L 132.727461 290.31456 
L 134.210477 292.98528 
L 134.52852 294.266126 
L 134.757888 295.656 
L 134.52852 296.951725 
L 134.202343 298.32672 
L 134.08969 300.99744 
L 134.52852 302.452199 
L 134.829334 303.66816 
L 134.932823 306.33888 
L 134.52852 307.3351 
L 133.79921 309.0096 
L 132.987713 311.68032 
z
" clip-path="url(#p58d27b0491)" style="fill: #00bfbf"/>
   </g>
   <g id="matplotlib.axis_5">
    <g id="xtick_5">
     <g id="line2d_6">
      <g>
       <use xlink:href="#mf7ef07f23b" x="94.287892" y="329.04" style="stroke: #000000; stroke-width: 0.8"/>
      </g>
     </g>
     <g id="text_2">
      <!-- 0.27 -->
      <g transform="translate(88.366977 357.157081) rotate(-45) scale(0.1 -0.1)">
       <defs>
        <path id="DejaVuSans-37" d="M 525 4666 
L 3525 4666 
L 3525 4397 
L 1831 0 
L 1172 0 
L 2766 4134 
L 525 4134 
L 525 4666 
z
" transform="scale(0.015625)"/>
       </defs>
       <use xlink:href="#DejaVuSans-30"/>
       <use xlink:href="#DejaVuSans-2e" x="63.623047"/>
       <use xlink:href="#DejaVuSans-32" x="95.410156"/>
       <use xlink:href="#DejaVuSans-37" x="159.033203"/>
      </g>
     </g>
    </g>
    <g id="xtick_6">
     <g id="line2d_7">
      <g>
       <use xlink:href="#mf7ef07f23b" x="125.312892" y="329.04" style="stroke: #000000; stroke-width: 0.8"/>
      </g>
     </g>
     <g id="text_3">
      <!-- 0.30 -->
      <g transform="translate(119.391977 357.157081) rotate(-45) scale(0.1 -0.1)">
       <use xlink:href="#DejaVuSans-30"/>
       <use xlink:href="#DejaVuSans-2e" x="63.623047"/>
       <use xlink:href="#DejaVuSans-33" x="95.410156"/>
       <use xlink:href="#DejaVuSans-30" x="159.033203"/>
      </g>
     </g>
    </g>
    <g id="xtick_7">
     <g id="line2d_8">
      <g>
       <use xlink:href="#mf7ef07f23b" x="156.337892" y="329.04" style="stroke: #000000; stroke-width: 0.8"/>
      </g>
     </g>
     <g id="text_4">
      <!-- 0.33 -->
      <g transform="translate(150.416978 357.157081) rotate(-45) scale(0.1 -0.1)">
       <use xlink:href="#DejaVuSans-30"/>
       <use xlink:href="#DejaVuSans-2e" x="63.623047"/>
       <use xlink:href="#DejaVuSans-33" x="95.410156"/>
       <use xlink:href="#DejaVuSans-33" x="159.033203"/>
      </g>
     </g>
    </g>
    <g id="xtick_8">
     <g id="line2d_9">
      <g>
       <use xlink:href="#mf7ef07f23b" x="187.362892" y="329.04" style="stroke: #000000; stroke-width: 0.8"/>
      </g>
     </g>
     <g id="text_5">
      <!-- 0.36 -->
      <g transform="translate(181.441978 357.157081) rotate(-45) scale(0.1 -0.1)">
       <use xlink:href="#DejaVuSans-30"/>
       <use xlink:href="#DejaVuSans-2e" x="63.623047"/>
       <use xlink:href="#DejaVuSans-33" x="95.410156"/>
       <use xlink:href="#DejaVuSans-36" x="159.033203"/>
      </g>
     </g>
    </g>
    <g id="text_6">
     <!-- $\Omega_{2,0}$ -->
     <g transform="translate(131.736134 376.5008) scale(0.1 -0.1)">
      <use xlink:href="#DejaVuSans-3a9" transform="translate(0 0.21875)"/>
      <use xlink:href="#DejaVuSans-32" transform="translate(77.373047 -16.1875) scale(0.7)"/>
      <use xlink:href="#DejaVuSans-2c" transform="translate(121.90918 -16.1875) scale(0.7)"/>
      <use xlink:href="#DejaVuSans-30" transform="translate(157.797852 -16.1875) scale(0.7)"/>
     </g>
    </g>
   </g>
   <g id="matplotlib.axis_6">
    <g id="ytick_1">
     <g id="line2d_10">
      <defs>
       <path id="m18f8afaef6" d="M 0 0 
L -3.5 0 
" style="stroke: #000000; stroke-width: 0.8"/>
      </defs>
      <g>
       <use xlink:href="#m18f8afaef6" x="66.96" y="297.042049" style="stroke: #000000; stroke-width: 0.8"/>
      </g>
     </g>
     <g id="text_7">
      <!-- −8 -->
      <g transform="translate(48.065138 309.040037) rotate(-45) scale(0.1 -0.1)">
       <defs>
        <path id="DejaVuSans-38" d="M 2034 2216 
Q 1584 2216 1326 1975 
Q 1069 1734 1069 1313 
Q 1069 891 1326 650 
Q 1584 409 2034 409 
Q 2484 409 2743 651 
Q 3003 894 3003 1313 
Q 3003 1734 2745 1975 
Q 2488 2216 2034 2216 
z
M 1403 2484 
Q 997 2584 770 2862 
Q 544 3141 544 3541 
Q 544 4100 942 4425 
Q 1341 4750 2034 4750 
Q 2731 4750 3128 4425 
Q 3525 4100 3525 3541 
Q 3525 3141 3298 2862 
Q 3072 2584 2669 2484 
Q 3125 2378 3379 2068 
Q 3634 1759 3634 1313 
Q 3634 634 3220 271 
Q 2806 -91 2034 -91 
Q 1263 -91 848 271 
Q 434 634 434 1313 
Q 434 1759 690 2068 
Q 947 2378 1403 2484 
z
M 1172 3481 
Q 1172 3119 1398 2916 
Q 1625 2713 2034 2713 
Q 2441 2713 2670 2916 
Q 2900 3119 2900 3481 
Q 2900 3844 2670 4047 
Q 2441 4250 2034 4250 
Q 1625 4250 1398 4047 
Q 1172 3844 1172 3481 
z
" transform="scale(0.015625)"/>
       </defs>
       <use xlink:href="#DejaVuSans-2212"/>
       <use xlink:href="#DejaVuSans-38" x="83.789062"/>
      </g>
     </g>
    </g>
    <g id="ytick_2">
     <g id="line2d_11">
      <g>
       <use xlink:href="#m18f8afaef6" x="66.96" y="263.705077" style="stroke: #000000; stroke-width: 0.8"/>
      </g>
     </g>
     <g id="text_8">
      <!-- −6 -->
      <g transform="translate(48.065138 275.703065) rotate(-45) scale(0.1 -0.1)">
       <use xlink:href="#DejaVuSans-2212"/>
       <use xlink:href="#DejaVuSans-36" x="83.789062"/>
      </g>
     </g>
    </g>
    <g id="ytick_3">
     <g id="line2d_12">
      <g>
       <use xlink:href="#m18f8afaef6" x="66.96" y="230.368105" style="stroke: #000000; stroke-width: 0.8"/>
      </g>
     </g>
     <g id="text_9">
      <!-- −4 -->
      <g transform="translate(48.065138 242.366094) rotate(-45) scale(0.1 -0.1)">
       <defs>
        <path id="DejaVuSans-34" d="M 2419 4116 
L 825 1625 
L 2419 1625 
L 2419 4116 
z
M 2253 4666 
L 3047 4666 
L 3047 1625 
L 3713 1625 
L 3713 1100 
L 3047 1100 
L 3047 0 
L 2419 0 
L 2419 1100 
L 313 1100 
L 313 1709 
L 2253 4666 
z
" transform="scale(0.015625)"/>
       </defs>
       <use xlink:href="#DejaVuSans-2212"/>
       <use xlink:href="#DejaVuSans-34" x="83.789062"/>
      </g>
     </g>
    </g>
    <g id="ytick_4">
     <g id="line2d_13">
      <g>
       <use xlink:href="#m18f8afaef6" x="66.96" y="197.031133" style="stroke: #000000; stroke-width: 0.8"/>
      </g>
     </g>
     <g id="text_10">
      <!-- −2 -->
      <g transform="translate(48.065138 209.029122) rotate(-45) scale(0.1 -0.1)">
       <use xlink:href="#DejaVuSans-2212"/>
       <use xlink:href="#DejaVuSans-32" x="83.789062"/>
      </g>
     </g>
    </g>
    <g id="text_11">
     <!-- $\log_{10}(M_x$/GeV) -->
     <g transform="translate(19.81432 297.872) rotate(-90) scale(0.1 -0.1)">
      <defs>
       <path id="DejaVuSans-6c" d="M 603 4863 
L 1178 4863 
L 1178 0 
L 603 0 
L 603 4863 
z
" transform="scale(0.015625)"/>
       <path id="DejaVuSans-6f" d="M 1959 3097 
Q 1497 3097 1228 2736 
Q 959 2375 959 1747 
Q 959 1119 1226 758 
Q 1494 397 1959 397 
Q 2419 397 2687 759 
Q 2956 1122 2956 1747 
Q 2956 2369 2687 2733 
Q 2419 3097 1959 3097 
z
M 1959 3584 
Q 2709 3584 3137 3096 
Q 3566 2609 3566 1747 
Q 3566 888 3137 398 
Q 2709 -91 1959 -91 
Q 1206 -91 779 398 
Q 353 888 353 1747 
Q 353 2609 779 3096 
Q 1206 3584 1959 3584 
z
" transform="scale(0.015625)"/>
       <path id="DejaVuSans-67" d="M 2906 1791 
Q 2906 2416 2648 2759 
Q 2391 3103 1925 3103 
Q 1463 3103 1205 2759 
Q 947 2416 947 1791 
Q 947 1169 1205 825 
Q 1463 481 1925 481 
Q 2391 481 2648 825 
Q 2906 1169 2906 1791 
z
M 3481 434 
Q 3481 -459 3084 -895 
Q 2688 -1331 1869 -1331 
Q 1566 -1331 1297 -1286 
Q 1028 -1241 775 -1147 
L 775 -588 
Q 1028 -725 1275 -790 
Q 1522 -856 1778 -856 
Q 2344 -856 2625 -561 
Q 2906 -266 2906 331 
L 2906 616 
Q 2728 306 2450 153 
Q 2172 0 1784 0 
Q 1141 0 747 490 
Q 353 981 353 1791 
Q 353 2603 747 3093 
Q 1141 3584 1784 3584 
Q 2172 3584 2450 3431 
Q 2728 3278 2906 2969 
L 2906 3500 
L 3481 3500 
L 3481 434 
z
" transform="scale(0.015625)"/>
       <path id="DejaVuSans-28" d="M 1984 4856 
Q 1566 4138 1362 3434 
Q 1159 2731 1159 2009 
Q 1159 1288 1364 580 
Q 1569 -128 1984 -844 
L 1484 -844 
Q 1016 -109 783 600 
Q 550 1309 550 2009 
Q 550 2706 781 3412 
Q 1013 4119 1484 4856 
L 1984 4856 
z
" transform="scale(0.015625)"/>
       <path id="DejaVuSans-Oblique-4d" d="M 1081 4666 
L 2028 4666 
L 2572 1522 
L 4378 4666 
L 5350 4666 
L 4441 0 
L 3828 0 
L 4622 4091 
L 2791 897 
L 2175 897 
L 1581 4103 
L 788 0 
L 172 0 
L 1081 4666 
z
" transform="scale(0.015625)"/>
       <path id="DejaVuSans-Oblique-78" d="M 3841 3500 
L 2234 1784 
L 3219 0 
L 2559 0 
L 1819 1388 
L 531 0 
L -166 0 
L 1556 1844 
L 641 3500 
L 1300 3500 
L 1972 2234 
L 3144 3500 
L 3841 3500 
z
" transform="scale(0.015625)"/>
       <path id="DejaVuSans-2f" d="M 1625 4666 
L 2156 4666 
L 531 -594 
L 0 -594 
L 1625 4666 
z
" transform="scale(0.015625)"/>
       <path id="DejaVuSans-47" d="M 3809 666 
L 3809 1919 
L 2778 1919 
L 2778 2438 
L 4434 2438 
L 4434 434 
Q 4069 175 3628 42 
Q 3188 -91 2688 -91 
Q 1594 -91 976 548 
Q 359 1188 359 2328 
Q 359 3472 976 4111 
Q 1594 4750 2688 4750 
Q 3144 4750 3555 4637 
Q 3966 4525 4313 4306 
L 4313 3634 
Q 3963 3931 3569 4081 
Q 3175 4231 2741 4231 
Q 1884 4231 1454 3753 
Q 1025 3275 1025 2328 
Q 1025 1384 1454 906 
Q 1884 428 2741 428 
Q 3075 428 3337 486 
Q 3600 544 3809 666 
z
" transform="scale(0.015625)"/>
       <path id="DejaVuSans-65" d="M 3597 1894 
L 3597 1613 
L 953 1613 
Q 991 1019 1311 708 
Q 1631 397 2203 397 
Q 2534 397 2845 478 
Q 3156 559 3463 722 
L 3463 178 
Q 3153 47 2828 -22 
Q 2503 -91 2169 -91 
Q 1331 -91 842 396 
Q 353 884 353 1716 
Q 353 2575 817 3079 
Q 1281 3584 2069 3584 
Q 2775 3584 3186 3129 
Q 3597 2675 3597 1894 
z
M 3022 2063 
Q 3016 2534 2758 2815 
Q 2500 3097 2075 3097 
Q 1594 3097 1305 2825 
Q 1016 2553 972 2059 
L 3022 2063 
z
" transform="scale(0.015625)"/>
       <path id="DejaVuSans-56" d="M 1831 0 
L 50 4666 
L 709 4666 
L 2188 738 
L 3669 4666 
L 4325 4666 
L 2547 0 
L 1831 0 
z
" transform="scale(0.015625)"/>
       <path id="DejaVuSans-29" d="M 513 4856 
L 1013 4856 
Q 1481 4119 1714 3412 
Q 1947 2706 1947 2009 
Q 1947 1309 1714 600 
Q 1481 -109 1013 -844 
L 513 -844 
Q 928 -128 1133 580 
Q 1338 1288 1338 2009 
Q 1338 2731 1133 3434 
Q 928 4138 513 4856 
z
" transform="scale(0.015625)"/>
      </defs>
      <use xlink:href="#DejaVuSans-6c" transform="translate(0 0.015625)"/>
      <use xlink:href="#DejaVuSans-6f" transform="translate(27.783203 0.015625)"/>
      <use xlink:href="#DejaVuSans-67" transform="translate(88.964844 0.015625)"/>
      <use xlink:href="#DejaVuSans-31" transform="translate(153.398438 -16.390625) scale(0.7)"/>
      <use xlink:href="#DejaVuSans-30" transform="translate(197.93457 -16.390625) scale(0.7)"/>
      <use xlink:href="#DejaVuSans-28" transform="translate(261.440754 0.015625)"/>
      <use xlink:href="#DejaVuSans-Oblique-4d" transform="translate(300.454426 0.015625)"/>
      <use xlink:href="#DejaVuSans-Oblique-78" transform="translate(386.733723 -16.390625) scale(0.7)"/>
      <use xlink:href="#DejaVuSans-2f" transform="translate(430.893879 0.015625)"/>
      <use xlink:href="#DejaVuSans-47" transform="translate(464.585286 0.015625)"/>
      <use xlink:href="#DejaVuSans-65" transform="translate(542.07552 0.015625)"/>
      <use xlink:href="#DejaVuSans-56" transform="translate(603.598958 0.015625)"/>
      <use xlink:href="#DejaVuSans-29" transform="translate(672.007161 0.015625)"/>
     </g>
    </g>
   </g>
   <g id="QuadContourSet_3">
    <path d="M 107.501112 322.569871 
L 110.504157 323.410942 
L 113.507203 324.193731 
L 116.510248 324.701248 
L 119.513293 324.362752 
L 122.516339 323.853457 
L 125.519384 323.701523 
L 128.52243 323.722748 
L 131.525475 323.612116 
L 134.52852 323.250494 
L 137.531566 323.078747 
L 140.534611 322.744522 
L 141.653193 322.3632 
L 143.537656 321.911369 
L 146.540702 321.207967 
L 149.543747 321.239596 
L 152.546792 321.45489 
L 155.549838 320.939389 
L 158.396039 319.69248 
L 158.552883 319.622201 
L 161.555928 317.641872 
L 162.404706 317.02176 
L 164.558974 315.763054 
L 167.396364 314.35104 
L 167.562019 314.284789 
L 170.565064 313.145489 
L 173.56811 311.828219 
L 174.226466 311.68032 
L 176.571155 311.119928 
L 179.5742 309.231494 
L 179.755674 309.0096 
L 180.176846 306.33888 
L 180.72491 303.66816 
L 181.875798 300.99744 
L 182.577246 299.421385 
L 183.107861 298.32672 
L 183.948294 295.656 
L 184.068082 292.98528 
L 183.976463 290.31456 
L 184.555977 287.64384 
L 185.580291 286.219545 
L 186.488686 284.97312 
L 186.937666 282.3024 
L 185.580291 280.220545 
L 185.286572 279.63168 
L 184.740002 276.96096 
L 185.532176 274.29024 
L 185.580291 274.203115 
L 187.241067 271.61952 
L 187.708193 268.9488 
L 187.706005 266.27808 
L 187.525879 263.60736 
L 186.356895 260.93664 
L 185.580291 259.403778 
L 185.028114 258.26592 
L 184.969077 255.5952 
L 185.580291 252.926019 
L 185.580674 252.92448 
L 186.086646 250.25376 
L 185.652345 247.58304 
L 185.580291 247.04024 
L 185.346995 244.91232 
L 185.580291 242.2416 
L 185.580291 242.2416 
L 185.821185 239.57088 
L 185.664533 236.90016 
L 185.580291 236.053285 
L 185.480459 234.22944 
L 185.580291 233.680493 
L 186.240627 231.55872 
L 186.248915 228.888 
L 185.864047 226.21728 
L 186.107854 223.54656 
L 185.580291 221.150904 
L 185.532336 220.87584 
L 185.160852 218.20512 
L 185.096974 215.5344 
L 184.829129 212.86368 
L 184.672627 210.19296 
L 184.42707 207.52224 
L 184.421692 204.85152 
L 184.857292 202.1808 
L 184.963357 199.51008 
L 184.689798 196.83936 
L 184.689798 194.16864 
L 182.577246 193.808974 
L 179.5742 193.060738 
L 176.571155 192.559156 
L 173.56811 192.266207 
L 170.565064 192.08686 
L 167.562019 191.989715 
L 164.558974 191.942035 
L 161.555928 191.881707 
L 158.552883 191.809127 
L 155.549838 191.779188 
L 152.546792 191.780865 
L 149.543747 191.795803 
L 146.540702 191.822649 
L 143.537656 191.853018 
L 140.534611 191.88547 
L 137.531566 191.901187 
L 134.52852 191.898581 
L 131.525475 191.934631 
L 128.52243 192.07312 
L 125.519384 192.36544 
L 122.516339 192.701577 
L 119.513293 192.910229 
L 116.510248 193.321469 
L 114.230708 194.16864 
L 114.230708 196.83936 
L 114.588554 199.51008 
L 115.087763 202.1808 
L 115.263947 204.85152 
L 115.646615 207.52224 
L 116.017304 210.19296 
L 115.893959 212.86368 
L 115.728901 215.5344 
L 115.361036 218.20512 
L 114.420916 220.87584 
L 113.849205 223.54656 
L 113.932827 226.21728 
L 113.719211 228.888 
L 113.507203 230.031937 
L 113.095425 231.55872 
L 112.868642 234.22944 
L 113.111201 236.90016 
L 113.480156 239.57088 
L 113.507203 239.725641 
L 113.880397 242.2416 
L 114.19848 244.91232 
L 114.301219 247.58304 
L 113.908419 250.25376 
L 113.507203 252.127271 
L 113.172823 252.92448 
L 112.90791 255.5952 
L 113.255893 258.26592 
L 113.507203 259.586056 
L 113.664821 260.93664 
L 113.921446 263.60736 
L 113.784795 266.27808 
L 113.644498 268.9488 
L 113.527067 271.61952 
L 113.507203 271.83919 
L 113.257079 274.29024 
L 113.148783 276.96096 
L 113.507203 279.572131 
L 113.515301 279.63168 
L 113.78499 282.3024 
L 113.834439 284.97312 
L 114.785421 287.64384 
L 115.440327 290.31456 
L 115.27312 292.98528 
L 115.024566 295.656 
L 114.577239 298.32672 
L 114.142279 300.99744 
L 113.507203 302.486544 
L 112.9267 303.66816 
L 111.869109 306.33888 
L 111.545951 309.0096 
L 110.969694 311.68032 
L 110.504157 312.948183 
L 109.675102 314.35104 
L 108.201486 317.02176 
L 107.501112 318.273005 
L 106.269522 319.69248 
L 106.924308 322.3632 
L 107.501112 322.569871 
z
" clip-path="url(#p58d27b0491)" style="fill: none; stroke: #00bfbf; stroke-width: 1.5"/>
    <path d="M 134.52852 312.777685 
L 137.531566 313.605211 
L 140.534611 313.603337 
L 143.537656 312.931947 
L 146.540702 312.528567 
L 149.543747 312.451896 
L 152.546792 311.947705 
L 153.253971 311.68032 
L 155.549838 310.700262 
L 157.968032 309.0096 
L 158.552883 308.346839 
L 160.550504 306.33888 
L 161.555928 304.786592 
L 162.257438 303.66816 
L 164.068527 300.99744 
L 164.558974 300.09165 
L 165.321445 298.32672 
L 165.683804 295.656 
L 165.689877 292.98528 
L 165.118286 290.31456 
L 164.763284 287.64384 
L 164.723587 284.97312 
L 164.773829 282.3024 
L 165.062014 279.63168 
L 165.981954 276.96096 
L 166.821534 274.29024 
L 167.538379 271.61952 
L 167.562019 268.9488 
L 167.301896 266.27808 
L 166.964537 263.60736 
L 166.724229 260.93664 
L 167.196784 258.26592 
L 167.562019 256.168806 
L 167.67388 255.5952 
L 167.577731 252.92448 
L 167.562019 252.61722 
L 167.432904 250.25376 
L 167.562019 249.375833 
L 167.800057 247.58304 
L 167.856612 244.91232 
L 167.742519 242.2416 
L 168.152337 239.57088 
L 168.451541 236.90016 
L 168.418741 234.22944 
L 169.0719 231.55872 
L 169.732237 228.888 
L 169.335523 226.21728 
L 167.780663 223.54656 
L 167.562019 223.166628 
L 166.675483 220.87584 
L 167.082629 218.20512 
L 167.562019 217.296159 
L 168.660753 215.5344 
L 168.96008 212.86368 
L 168.60252 210.19296 
L 168.962933 207.52224 
L 169.809101 204.85152 
L 169.929311 202.1808 
L 169.287256 199.51008 
L 168.450601 196.83936 
L 168.450601 194.16864 
L 167.562019 194.038289 
L 164.558974 193.791999 
L 161.555928 193.480371 
L 158.552883 193.105461 
L 155.549838 192.950808 
L 152.546792 192.959471 
L 149.543747 193.036635 
L 146.540702 193.175309 
L 143.537656 193.332179 
L 140.534611 193.499808 
L 137.531566 193.580999 
L 134.52852 193.567534 
L 131.525475 193.75375 
L 129.587854 194.16864 
L 129.587854 196.83936 
L 129.923412 199.51008 
L 130.692102 202.1808 
L 131.376083 204.85152 
L 131.525475 205.908044 
L 131.745816 207.52224 
L 131.92254 210.19296 
L 131.902115 212.86368 
L 131.546442 215.5344 
L 131.525475 215.623962 
L 130.784368 218.20512 
L 130.47983 220.87584 
L 131.169129 223.54656 
L 131.525475 225.62981 
L 131.621317 226.21728 
L 131.525475 227.159226 
L 131.317384 228.888 
L 130.882332 231.55872 
L 130.663638 234.22944 
L 130.116064 236.90016 
L 129.484895 239.57088 
L 129.521457 242.2416 
L 129.953771 244.91232 
L 130.050215 247.58304 
L 130.149862 250.25376 
L 130.658553 252.92448 
L 131.0852 255.5952 
L 131.102181 258.26592 
L 130.644029 260.93664 
L 130.559775 263.60736 
L 130.861091 266.27808 
L 131.014981 268.9488 
L 131.187387 271.61952 
L 131.009932 274.29024 
L 130.729364 276.96096 
L 130.711517 279.63168 
L 130.659058 282.3024 
L 130.898539 284.97312 
L 131.525475 287.370001 
L 131.608656 287.64384 
L 132.727461 290.31456 
L 134.210477 292.98528 
L 134.52852 294.266126 
L 134.757888 295.656 
L 134.52852 296.951725 
L 134.202343 298.32672 
L 134.08969 300.99744 
L 134.52852 302.452199 
L 134.829334 303.66816 
L 134.932823 306.33888 
L 134.52852 307.3351 
L 133.79921 309.0096 
L 132.987713 311.68032 
L 134.52852 312.777685 
z
" clip-path="url(#p58d27b0491)" style="fill: none; stroke: #00bfbf; stroke-width: 1.5"/>
   </g>
   <g id="patch_8">
    <path d="M 66.96 329.04 
L 66.96 195.504 
" style="fill: none; stroke: #000000; stroke-width: 0.8; stroke-linejoin: miter; stroke-linecap: square"/>
   </g>
   <g id="patch_9">
    <path d="M 217.112267 329.04 
L 217.112267 195.504 
" style="fill: none; stroke: #000000; stroke-width: 0.8; stroke-linejoin: miter; stroke-linecap: square"/>
   </g>
   <g id="patch_10">
    <path d="M 66.96 329.04 
L 217.112267 329.04 
" style="fill: none; stroke: #000000; stroke-width: 0.8; stroke-linejoin: miter; stroke-linecap: square"/>
   </g>
   <g id="patch_11">
    <path d="M 66.96 195.504 
L 217.112267 195.504 
" style="fill: none; stroke: #000000; stroke-width: 0.8; stroke-linejoin: miter; stroke-linecap: square"/>
   </g>
  </g>
  <g id="axes_4">
   <g id="patch_12">
    <path d="M 227.912267 329.04 
L 378.064534 329.04 
L 378.064534 195.504 
L 227.912267 195.504 
z
" style="fill: #ffffff"/>
   </g>
   <g id="matplotlib.axis_7">
    <g id="xtick_9">
     <g id="line2d_14">
      <g>
       <use xlink:href="#mf7ef07f23b" x="263.891815" y="329.04" style="stroke: #000000; stroke-width: 0.8"/>
      </g>
     </g>
     <g id="text_12">
      <!-- −8 -->
      <g transform="translate(260.630838 351.837207) rotate(-45) scale(0.1 -0.1)">
       <use xlink:href="#DejaVuSans-2212"/>
       <use xlink:href="#DejaVuSans-38" x="83.789062"/>
      </g>
     </g>
    </g>
    <g id="xtick_10">
     <g id="line2d_15">
      <g>
       <use xlink:href="#mf7ef07f23b" x="301.377002" y="329.04" style="stroke: #000000; stroke-width: 0.8"/>
      </g>
     </g>
     <g id="text_13">
      <!-- −6 -->
      <g transform="translate(298.116025 351.837207) rotate(-45) scale(0.1 -0.1)">
       <use xlink:href="#DejaVuSans-2212"/>
       <use xlink:href="#DejaVuSans-36" x="83.789062"/>
      </g>
     </g>
    </g>
    <g id="xtick_11">
     <g id="line2d_16">
      <g>
       <use xlink:href="#mf7ef07f23b" x="338.862189" y="329.04" style="stroke: #000000; stroke-width: 0.8"/>
      </g>
     </g>
     <g id="text_14">
      <!-- −4 -->
      <g transform="translate(335.601211 351.837207) rotate(-45) scale(0.1 -0.1)">
       <use xlink:href="#DejaVuSans-2212"/>
       <use xlink:href="#DejaVuSans-34" x="83.789062"/>
      </g>
     </g>
    </g>
    <g id="xtick_12">
     <g id="line2d_17">
      <g>
       <use xlink:href="#mf7ef07f23b" x="376.347376" y="329.04" style="stroke: #000000; stroke-width: 0.8"/>
      </g>
     </g>
     <g id="text_15">
      <!-- −2 -->
      <g transform="translate(373.086398 351.837207) rotate(-45) scale(0.1 -0.1)">
       <use xlink:href="#DejaVuSans-2212"/>
       <use xlink:href="#DejaVuSans-32" x="83.789062"/>
      </g>
     </g>
    </g>
    <g id="text_16">
     <!-- $\log_{10}(M_x$/GeV) -->
     <g transform="translate(267.388401 376.7008) scale(0.1 -0.1)">
      <use xlink:href="#DejaVuSans-6c" transform="translate(0 0.015625)"/>
      <use xlink:href="#DejaVuSans-6f" transform="translate(27.783203 0.015625)"/>
      <use xlink:href="#DejaVuSans-67" transform="translate(88.964844 0.015625)"/>
      <use xlink:href="#DejaVuSans-31" transform="translate(153.398438 -16.390625) scale(0.7)"/>
      <use xlink:href="#DejaVuSans-30" transform="translate(197.93457 -16.390625) scale(0.7)"/>
      <use xlink:href="#DejaVuSans-28" transform="translate(261.440754 0.015625)"/>
      <use xlink:href="#DejaVuSans-Oblique-4d" transform="translate(300.454426 0.015625)"/>
      <use xlink:href="#DejaVuSans-Oblique-78" transform="translate(386.733723 -16.390625) scale(0.7)"/>
      <use xlink:href="#DejaVuSans-2f" transform="translate(430.893879 0.015625)"/>
      <use xlink:href="#DejaVuSans-47" transform="translate(464.585286 0.015625)"/>
      <use xlink:href="#DejaVuSans-65" transform="translate(542.07552 0.015625)"/>
      <use xlink:href="#DejaVuSans-56" transform="translate(603.598958 0.015625)"/>
      <use xlink:href="#DejaVuSans-29" transform="translate(672.007161 0.015625)"/>
     </g>
    </g>
   </g>
   <g id="matplotlib.axis_8"/>
   <g id="line2d_18">
    <path d="M 227.912267 323.409371 
L 228.663028 323.409371 
L 228.663028 323.184146 
L 229.41379 323.184146 
L 229.41379 322.283245 
L 230.164551 322.283245 
L 230.164551 321.382344 
L 230.915312 321.382344 
L 230.915312 319.805768 
L 231.666074 319.805768 
L 231.666074 318.229192 
L 232.416835 318.229192 
L 232.416835 316.202166 
L 233.167596 316.202166 
L 233.167596 313.949914 
L 233.918358 313.949914 
L 233.918358 311.472437 
L 234.669119 311.472437 
L 234.669119 308.769735 
L 235.41988 308.769735 
L 235.41988 305.841808 
L 236.170642 305.841808 
L 236.170642 302.913881 
L 236.921403 302.913881 
L 236.921403 299.985954 
L 237.672164 299.985954 
L 237.672164 296.832801 
L 238.422926 296.832801 
L 238.422926 293.904874 
L 239.173687 293.904874 
L 239.173687 290.751722 
L 239.924448 290.751722 
L 239.924448 287.373345 
L 240.67521 287.373345 
L 240.67521 284.220192 
L 241.425971 284.220192 
L 241.425971 280.61659 
L 242.176732 280.61659 
L 242.176732 277.238212 
L 242.927494 277.238212 
L 242.927494 273.63461 
L 243.678255 273.63461 
L 243.678255 269.805782 
L 244.429017 269.805782 
L 244.429017 266.427404 
L 245.179778 266.427404 
L 245.179778 262.823802 
L 245.930539 262.823802 
L 245.930539 259.670649 
L 246.681301 259.670649 
L 246.681301 256.742722 
L 247.432062 256.742722 
L 247.432062 254.04002 
L 248.182823 254.04002 
L 248.182823 251.562543 
L 248.933585 251.562543 
L 248.933585 249.535517 
L 249.684346 249.535517 
L 249.684346 247.50849 
L 250.435107 247.50849 
L 250.435107 245.706689 
L 251.185869 245.706689 
L 251.185869 243.904888 
L 251.93663 243.904888 
L 251.93663 242.103087 
L 252.687391 242.103087 
L 252.687391 240.52651 
L 253.438153 240.52651 
L 253.438153 238.949934 
L 254.188914 238.949934 
L 254.188914 237.598583 
L 254.939675 237.598583 
L 254.939675 236.247232 
L 255.690437 236.247232 
L 255.690437 235.346332 
L 256.441198 235.346332 
L 256.441198 234.445431 
L 257.191959 234.445431 
L 257.191959 233.769755 
L 257.942721 233.769755 
L 257.942721 233.09408 
L 258.693482 233.09408 
L 258.693482 232.64363 
L 259.444243 232.64363 
L 259.444243 231.967954 
L 260.195005 231.967954 
L 260.195005 231.292279 
L 260.945766 231.292279 
L 260.945766 230.616603 
L 261.696527 230.616603 
L 261.696527 229.940928 
L 262.447289 229.940928 
L 262.447289 229.265252 
L 263.19805 229.265252 
L 263.19805 228.589577 
L 263.948811 228.589577 
L 263.948811 227.913901 
L 264.699573 227.913901 
L 264.699573 227.238226 
L 265.450334 227.238226 
L 265.450334 226.56255 
L 266.201095 226.56255 
L 266.201095 226.1121 
L 266.951857 226.1121 
L 266.951857 225.66165 
L 267.702618 225.66165 
L 267.702618 225.211199 
L 268.453379 225.211199 
L 268.453379 224.985974 
L 269.204141 224.985974 
L 269.204141 224.760749 
L 269.954902 224.760749 
L 269.954902 224.535524 
L 270.705663 224.535524 
L 270.705663 224.085073 
L 271.456425 224.085073 
L 271.456425 223.634623 
L 272.207186 223.634623 
L 272.207186 223.184173 
L 272.957947 223.184173 
L 272.957947 222.508497 
L 273.708709 222.508497 
L 273.708709 221.832822 
L 274.45947 221.832822 
L 274.45947 221.157146 
L 275.210231 221.157146 
L 275.210231 220.481471 
L 275.960993 220.481471 
L 275.960993 220.256246 
L 276.711754 220.256246 
L 276.711754 220.03102 
L 277.462515 220.03102 
L 277.462515 219.805795 
L 278.964038 219.805795 
L 278.964038 220.03102 
L 279.714799 220.03102 
L 279.714799 220.256246 
L 281.216322 220.256246 
L 281.216322 220.481471 
L 283.468606 220.481471 
L 283.468606 220.256246 
L 284.219367 220.256246 
L 284.219367 220.03102 
L 284.970129 220.03102 
L 284.970129 219.58057 
L 285.72089 219.58057 
L 285.72089 219.13012 
L 286.471651 219.13012 
L 286.471651 218.904895 
L 287.222413 218.904895 
L 287.222413 218.454444 
L 287.973174 218.454444 
L 287.973174 218.003994 
L 288.723935 218.003994 
L 288.723935 217.778769 
L 289.474697 217.778769 
L 289.474697 217.553544 
L 291.726981 217.553544 
L 291.726981 217.778769 
L 292.477742 217.778769 
L 292.477742 218.003994 
L 293.228503 218.003994 
L 293.228503 218.229219 
L 293.979265 218.229219 
L 293.979265 218.454444 
L 294.730026 218.454444 
L 294.730026 218.679669 
L 295.480787 218.679669 
L 295.480787 218.904895 
L 296.231549 218.904895 
L 296.231549 219.13012 
L 296.98231 219.13012 
L 296.98231 218.904895 
L 298.483833 218.904895 
L 298.483833 218.679669 
L 299.234594 218.679669 
L 299.234594 218.454444 
L 299.985355 218.454444 
L 299.985355 218.003994 
L 300.736117 218.003994 
L 300.736117 217.778769 
L 301.486878 217.778769 
L 301.486878 217.328318 
L 302.237639 217.328318 
L 302.237639 217.103093 
L 302.988401 217.103093 
L 302.988401 216.877868 
L 303.739162 216.877868 
L 303.739162 216.427418 
L 304.489923 216.427418 
L 304.489923 216.202193 
L 305.240685 216.202193 
L 305.240685 215.751742 
L 305.991446 215.751742 
L 305.991446 215.301292 
L 306.742207 215.301292 
L 306.742207 214.850842 
L 307.492969 214.850842 
L 307.492969 214.400391 
L 308.24373 214.400391 
L 308.24373 213.949941 
L 308.994491 213.949941 
L 308.994491 213.499491 
L 309.745253 213.499491 
L 309.745253 213.274265 
L 310.496014 213.274265 
L 310.496014 212.823815 
L 311.246775 212.823815 
L 311.246775 212.59859 
L 311.997537 212.59859 
L 311.997537 212.14814 
L 312.748298 212.14814 
L 312.748298 211.922914 
L 313.499059 211.922914 
L 313.499059 211.472464 
L 314.249821 211.472464 
L 314.249821 211.022014 
L 315.000582 211.022014 
L 315.000582 210.796789 
L 315.751343 210.796789 
L 315.751343 210.346338 
L 316.502105 210.346338 
L 316.502105 210.121113 
L 318.003627 210.121113 
L 318.003627 209.895888 
L 318.754389 209.895888 
L 318.754389 210.121113 
L 319.50515 210.121113 
L 319.50515 210.346338 
L 320.255911 210.346338 
L 320.255911 210.571564 
L 321.006673 210.571564 
L 321.006673 210.796789 
L 321.757434 210.796789 
L 321.757434 211.247239 
L 322.508195 211.247239 
L 322.508195 211.472464 
L 324.760479 211.472464 
L 324.760479 211.247239 
L 325.511241 211.247239 
L 325.511241 211.022014 
L 326.262002 211.022014 
L 326.262002 210.571564 
L 327.012763 210.571564 
L 327.012763 210.121113 
L 327.763525 210.121113 
L 327.763525 209.670663 
L 328.514286 209.670663 
L 328.514286 209.220213 
L 329.265047 209.220213 
L 329.265047 208.769762 
L 330.015809 208.769762 
L 330.015809 208.544537 
L 330.76657 208.544537 
L 330.76657 208.319312 
L 331.517331 208.319312 
L 331.517331 208.094087 
L 333.769615 208.094087 
L 333.769615 207.868862 
L 336.021899 207.868862 
L 336.021899 207.643636 
L 338.274183 207.643636 
L 338.274183 207.868862 
L 339.024945 207.868862 
L 339.024945 208.094087 
L 339.775706 208.094087 
L 339.775706 208.319312 
L 340.526467 208.319312 
L 340.526467 208.769762 
L 341.277229 208.769762 
L 341.277229 209.220213 
L 342.02799 209.220213 
L 342.02799 209.670663 
L 342.778751 209.670663 
L 342.778751 209.895888 
L 343.529513 209.895888 
L 343.529513 210.121113 
L 348.034081 210.121113 
L 348.034081 210.346338 
L 348.784842 210.346338 
L 348.784842 210.571564 
L 349.535603 210.571564 
L 349.535603 210.796789 
L 350.286365 210.796789 
L 350.286365 211.247239 
L 351.037126 211.247239 
L 351.037126 211.697689 
L 351.787887 211.697689 
L 351.787887 211.922914 
L 352.538649 211.922914 
L 352.538649 212.14814 
L 353.28941 212.14814 
L 353.28941 212.373365 
L 354.040172 212.373365 
L 354.040172 212.59859 
L 354.790933 212.59859 
L 354.790933 212.823815 
L 355.541694 212.823815 
L 355.541694 213.04904 
L 356.292456 213.04904 
L 356.292456 213.499491 
L 357.043217 213.499491 
L 357.043217 213.949941 
L 357.793978 213.949941 
L 357.793978 214.400391 
L 358.54474 214.400391 
L 358.54474 215.076067 
L 359.295501 215.076067 
L 359.295501 215.526517 
L 360.046262 215.526517 
L 360.046262 215.751742 
L 360.797024 215.751742 
L 360.797024 215.976967 
L 361.547785 215.976967 
L 361.547785 215.751742 
L 362.298546 215.751742 
L 362.298546 215.526517 
L 363.049308 215.526517 
L 363.049308 215.301292 
L 363.800069 215.301292 
L 363.800069 214.625616 
L 364.55083 214.625616 
L 364.55083 213.949941 
L 365.301592 213.949941 
L 365.301592 213.274265 
L 366.052353 213.274265 
L 366.052353 212.59859 
L 366.803114 212.59859 
L 366.803114 212.14814 
L 367.553876 212.14814 
L 367.553876 211.472464 
L 368.304637 211.472464 
L 368.304637 211.022014 
L 369.055398 211.022014 
L 369.055398 210.571564 
L 369.80616 210.571564 
L 369.80616 210.346338 
L 371.307682 210.346338 
L 371.307682 210.571564 
L 372.058444 210.571564 
L 372.058444 210.796789 
L 372.809205 210.796789 
L 372.809205 211.472464 
L 373.559966 211.472464 
L 373.559966 212.373365 
L 374.310728 212.373365 
L 374.310728 213.499491 
L 375.061489 213.499491 
L 375.061489 214.400391 
L 375.81225 214.400391 
L 375.81225 215.526517 
L 376.563012 215.526517 
L 376.563012 216.202193 
L 377.313773 216.202193 
L 377.313773 216.652643 
L 378.064534 216.652643 
L 378.064534 216.652643 
" clip-path="url(#pfba72964b2)" style="fill: none; stroke: #00bfbf; stroke-width: 1.5; stroke-linecap: square"/>
   </g>
   <g id="patch_13">
    <path d="M 227.912267 329.04 
L 227.912267 195.504 
" style="fill: none; stroke: #000000; stroke-width: 0.8; stroke-linejoin: miter; stroke-linecap: square"/>
   </g>
   <g id="patch_14">
    <path d="M 378.064534 329.04 
L 378.064534 195.504 
" style="fill: none; stroke: #000000; stroke-width: 0.8; stroke-linejoin: miter; stroke-linecap: square"/>
   </g>
   <g id="patch_15">
    <path d="M 227.912267 329.04 
L 378.064534 329.04 
" style="fill: none; stroke: #000000; stroke-width: 0.8; stroke-linejoin: miter; stroke-linecap: square"/>
   </g>
   <g id="patch_16">
    <path d="M 227.912267 195.504 
L 378.064534 195.504 
" style="fill: none; stroke: #000000; stroke-width: 0.8; stroke-linejoin: miter; stroke-linecap: square"/>
   </g>
   <g id="text_17">
    <!-- $\log_{10}(M_x$/GeV) = ${-5.3508}_{-2.4970}^{+2.3122}$ -->
    <g transform="translate(190.988401 189.504) scale(0.14 -0.14)">
     <defs>
      <path id="DejaVuSans-35" d="M 691 4666 
L 3169 4666 
L 3169 4134 
L 1269 4134 
L 1269 2991 
Q 1406 3038 1543 3061 
Q 1681 3084 1819 3084 
Q 2600 3084 3056 2656 
Q 3513 2228 3513 1497 
Q 3513 744 3044 326 
Q 2575 -91 1722 -91 
Q 1428 -91 1123 -41 
Q 819 9 494 109 
L 494 744 
Q 775 591 1075 516 
Q 1375 441 1709 441 
Q 2250 441 2565 725 
Q 2881 1009 2881 1497 
Q 2881 1984 2565 2268 
Q 2250 2553 1709 2553 
Q 1456 2553 1204 2497 
Q 953 2441 691 2322 
L 691 4666 
z
" transform="scale(0.015625)"/>
      <path id="DejaVuSans-39" d="M 703 97 
L 703 672 
Q 941 559 1184 500 
Q 1428 441 1663 441 
Q 2288 441 2617 861 
Q 2947 1281 2994 2138 
Q 2813 1869 2534 1725 
Q 2256 1581 1919 1581 
Q 1219 1581 811 2004 
Q 403 2428 403 3163 
Q 403 3881 828 4315 
Q 1253 4750 1959 4750 
Q 2769 4750 3195 4129 
Q 3622 3509 3622 2328 
Q 3622 1225 3098 567 
Q 2575 -91 1691 -91 
Q 1453 -91 1209 -44 
Q 966 3 703 97 
z
M 1959 2075 
Q 2384 2075 2632 2365 
Q 2881 2656 2881 3163 
Q 2881 3666 2632 3958 
Q 2384 4250 1959 4250 
Q 1534 4250 1286 3958 
Q 1038 3666 1038 3163 
Q 1038 2656 1286 2365 
Q 1534 2075 1959 2075 
z
" transform="scale(0.015625)"/>
     </defs>
     <use xlink:href="#DejaVuSans-6c" transform="translate(0 0.765625)"/>
     <use xlink:href="#DejaVuSans-6f" transform="translate(27.783203 0.765625)"/>
     <use xlink:href="#DejaVuSans-67" transform="translate(88.964844 0.765625)"/>
     <use xlink:href="#DejaVuSans-31" transform="translate(153.398438 -15.640625) scale(0.7)"/>
     <use xlink:href="#DejaVuSans-30" transform="translate(197.93457 -15.640625) scale(0.7)"/>
     <use xlink:href="#DejaVuSans-28" transform="translate(261.440754 0.765625)"/>
     <use xlink:href="#DejaVuSans-Oblique-4d" transform="translate(300.454426 0.765625)"/>
     <use xlink:href="#DejaVuSans-Oblique-78" transform="translate(386.733723 -15.640625) scale(0.7)"/>
     <use xlink:href="#DejaVuSans-2f" transform="translate(430.893879 0.765625)"/>
     <use xlink:href="#DejaVuSans-47" transform="translate(464.585286 0.765625)"/>
     <use xlink:href="#DejaVuSans-65" transform="translate(542.07552 0.765625)"/>
     <use xlink:href="#DejaVuSans-56" transform="translate(603.598958 0.765625)"/>
     <use xlink:href="#DejaVuSans-29" transform="translate(672.007161 0.765625)"/>
     <use xlink:href="#DejaVuSans-20" transform="translate(711.020833 0.765625)"/>
     <use xlink:href="#DejaVuSans-3d" transform="translate(742.807942 0.765625)"/>
     <use xlink:href="#DejaVuSans-20" transform="translate(826.597004 0.765625)"/>
     <use xlink:href="#DejaVuSans-2212" transform="translate(858.384114 0.765625)"/>
     <use xlink:href="#DejaVuSans-35" transform="translate(942.173176 0.765625)"/>
     <use xlink:href="#DejaVuSans-2e" transform="translate(1005.796223 0.765625)"/>
     <use xlink:href="#DejaVuSans-33" transform="translate(1037.583333 0.765625)"/>
     <use xlink:href="#DejaVuSans-35" transform="translate(1101.206379 0.765625)"/>
     <use xlink:href="#DejaVuSans-30" transform="translate(1164.829426 0.765625)"/>
     <use xlink:href="#DejaVuSans-38" transform="translate(1228.452473 0.765625)"/>
     <use xlink:href="#DejaVuSans-2b" transform="translate(1293.032551 39.046875) scale(0.7)"/>
     <use xlink:href="#DejaVuSans-32" transform="translate(1351.684895 39.046875) scale(0.7)"/>
     <use xlink:href="#DejaVuSans-2e" transform="translate(1396.221028 39.046875) scale(0.7)"/>
     <use xlink:href="#DejaVuSans-33" transform="translate(1418.472004 39.046875) scale(0.7)"/>
     <use xlink:href="#DejaVuSans-31" transform="translate(1463.008137 39.046875) scale(0.7)"/>
     <use xlink:href="#DejaVuSans-32" transform="translate(1507.54427 39.046875) scale(0.7)"/>
     <use xlink:href="#DejaVuSans-32" transform="translate(1552.080403 39.046875) scale(0.7)"/>
     <use xlink:href="#DejaVuSans-2212" transform="translate(1293.032551 -26.578125) scale(0.7)"/>
     <use xlink:href="#DejaVuSans-32" transform="translate(1351.684895 -26.578125) scale(0.7)"/>
     <use xlink:href="#DejaVuSans-2e" transform="translate(1396.221028 -26.578125) scale(0.7)"/>
     <use xlink:href="#DejaVuSans-34" transform="translate(1418.472004 -26.578125) scale(0.7)"/>
     <use xlink:href="#DejaVuSans-39" transform="translate(1463.008137 -26.578125) scale(0.7)"/>
     <use xlink:href="#DejaVuSans-37" transform="translate(1507.54427 -26.578125) scale(0.7)"/>
     <use xlink:href="#DejaVuSans-30" transform="translate(1552.080403 -26.578125) scale(0.7)"/>
    </g>
   </g>
  </g>
 </g>
 <defs>
  <clipPath id="p79070eb177">
   <rect x="66.96" y="30.984" width="150.152267" height="133.536"/>
  </clipPath>
  <clipPath id="p58d27b0491">
   <rect x="66.96" y="195.504" width="150.152267" height="133.536"/>
  </clipPath>
  <clipPath id="pfba72964b2">
   <rect x="227.912267" y="195.504" width="150.152267" height="133.536"/>
  </clipPath>
 </defs>
</svg>
