<?xml version="1.0" encoding="utf-8" standalone="no"?>
<!DOCTYPE svg PUBLIC "-//W3C//DTD SVG 1.1//EN"
  "http://www.w3.org/Graphics/SVG/1.1/DTD/svg11.dtd">
<svg xmlns:xlink="http://www.w3.org/1999/xlink" width="460.8pt" height="345.6pt" viewBox="0 0 460.8 345.6" xmlns="http://www.w3.org/2000/svg" version="1.1">
 <metadata>
  <rdf:RDF xmlns:dc="http://purl.org/dc/elements/1.1/" xmlns:cc="http://creativecommons.org/ns#" xmlns:rdf="http://www.w3.org/1999/02/22-rdf-syntax-ns#">
   <cc:Work>
    <dc:type rdf:resource="http://purl.org/dc/dcmitype/StillImage"/>
    <dc:date>2024-11-19T14:47:31.881656</dc:date>
    <dc:format>image/svg+xml</dc:format>
    <dc:creator>
     <cc:Agent>
      <dc:title>Matplotlib v3.9.2, https://matplotlib.org/</dc:title>
     </cc:Agent>
    </dc:creator>
   </cc:Work>
  </rdf:RDF>
 </metadata>
 <defs>
  <style type="text/css">*{stroke-linejoin: round; stroke-linecap: butt}</style>
 </defs>
 <g id="figure_1">
  <g id="patch_1">
   <path d="M 0 345.6 
L 460.8 345.6 
L 460.8 0 
L 0 0 
z
" style="fill: #ffffff"/>
  </g>
  <g id="axes_1">
   <g id="patch_2">
    <path d="M 57.6 307.584 
L 414.72 307.584 
L 414.72 41.472 
L 57.6 41.472 
z
" style="fill: #ffffff"/>
   </g>
   <g id="matplotlib.axis_1">
    <g id="xtick_1">
     <g id="line2d_1">
      <defs>
       <path id="m7217373352" d="M 0 0 
L 0 3.5 
" style="stroke: #000000; stroke-width: 0.8"/>
      </defs>
      <g>
       <use xlink:href="#m7217373352" x="100.919833" y="307.584" style="stroke: #000000; stroke-width: 0.8"/>
      </g>
     </g>
     <g id="text_1">
      <!-- 0.1 -->
      <g transform="translate(92.968271 322.182437) scale(0.1 -0.1)">
       <defs>
        <path id="DejaVuSans-30" d="M 2034 4250 
Q 1547 4250 1301 3770 
Q 1056 3291 1056 2328 
Q 1056 1369 1301 889 
Q 1547 409 2034 409 
Q 2525 409 2770 889 
Q 3016 1369 3016 2328 
Q 3016 3291 2770 3770 
Q 2525 4250 2034 4250 
z
M 2034 4750 
Q 2819 4750 3233 4129 
Q 3647 3509 3647 2328 
Q 3647 1150 3233 529 
Q 2819 -91 2034 -91 
Q 1250 -91 836 529 
Q 422 1150 422 2328 
Q 422 3509 836 4129 
Q 1250 4750 2034 4750 
z
" transform="scale(0.015625)"/>
        <path id="DejaVuSans-2e" d="M 684 794 
L 1344 794 
L 1344 0 
L 684 0 
L 684 794 
z
" transform="scale(0.015625)"/>
        <path id="DejaVuSans-31" d="M 794 531 
L 1825 531 
L 1825 4091 
L 703 3866 
L 703 4441 
L 1819 4666 
L 2450 4666 
L 2450 531 
L 3481 531 
L 3481 0 
L 794 0 
L 794 531 
z
" transform="scale(0.015625)"/>
       </defs>
       <use xlink:href="#DejaVuSans-30"/>
       <use xlink:href="#DejaVuSans-2e" x="63.623047"/>
       <use xlink:href="#DejaVuSans-31" x="95.410156"/>
      </g>
     </g>
    </g>
    <g id="xtick_2">
     <g id="line2d_2">
      <g>
       <use xlink:href="#m7217373352" x="160.763872" y="307.584" style="stroke: #000000; stroke-width: 0.8"/>
      </g>
     </g>
     <g id="text_2">
      <!-- 0.2 -->
      <g transform="translate(152.81231 322.182437) scale(0.1 -0.1)">
       <defs>
        <path id="DejaVuSans-32" d="M 1228 531 
L 3431 531 
L 3431 0 
L 469 0 
L 469 531 
Q 828 903 1448 1529 
Q 2069 2156 2228 2338 
Q 2531 2678 2651 2914 
Q 2772 3150 2772 3378 
Q 2772 3750 2511 3984 
Q 2250 4219 1831 4219 
Q 1534 4219 1204 4116 
Q 875 4013 500 3803 
L 500 4441 
Q 881 4594 1212 4672 
Q 1544 4750 1819 4750 
Q 2544 4750 2975 4387 
Q 3406 4025 3406 3419 
Q 3406 3131 3298 2873 
Q 3191 2616 2906 2266 
Q 2828 2175 2409 1742 
Q 1991 1309 1228 531 
z
" transform="scale(0.015625)"/>
       </defs>
       <use xlink:href="#DejaVuSans-30"/>
       <use xlink:href="#DejaVuSans-2e" x="63.623047"/>
       <use xlink:href="#DejaVuSans-32" x="95.410156"/>
      </g>
     </g>
    </g>
    <g id="xtick_3">
     <g id="line2d_3">
      <g>
       <use xlink:href="#m7217373352" x="220.607912" y="307.584" style="stroke: #000000; stroke-width: 0.8"/>
      </g>
     </g>
     <g id="text_3">
      <!-- 0.3 -->
      <g transform="translate(212.656349 322.182437) scale(0.1 -0.1)">
       <defs>
        <path id="DejaVuSans-33" d="M 2597 2516 
Q 3050 2419 3304 2112 
Q 3559 1806 3559 1356 
Q 3559 666 3084 287 
Q 2609 -91 1734 -91 
Q 1441 -91 1130 -33 
Q 819 25 488 141 
L 488 750 
Q 750 597 1062 519 
Q 1375 441 1716 441 
Q 2309 441 2620 675 
Q 2931 909 2931 1356 
Q 2931 1769 2642 2001 
Q 2353 2234 1838 2234 
L 1294 2234 
L 1294 2753 
L 1863 2753 
Q 2328 2753 2575 2939 
Q 2822 3125 2822 3475 
Q 2822 3834 2567 4026 
Q 2313 4219 1838 4219 
Q 1578 4219 1281 4162 
Q 984 4106 628 3988 
L 628 4550 
Q 988 4650 1302 4700 
Q 1616 4750 1894 4750 
Q 2613 4750 3031 4423 
Q 3450 4097 3450 3541 
Q 3450 3153 3228 2886 
Q 3006 2619 2597 2516 
z
" transform="scale(0.015625)"/>
       </defs>
       <use xlink:href="#DejaVuSans-30"/>
       <use xlink:href="#DejaVuSans-2e" x="63.623047"/>
       <use xlink:href="#DejaVuSans-33" x="95.410156"/>
      </g>
     </g>
    </g>
    <g id="xtick_4">
     <g id="line2d_4">
      <g>
       <use xlink:href="#m7217373352" x="280.451951" y="307.584" style="stroke: #000000; stroke-width: 0.8"/>
      </g>
     </g>
     <g id="text_4">
      <!-- 0.4 -->
      <g transform="translate(272.500388 322.182437) scale(0.1 -0.1)">
       <defs>
        <path id="DejaVuSans-34" d="M 2419 4116 
L 825 1625 
L 2419 1625 
L 2419 4116 
z
M 2253 4666 
L 3047 4666 
L 3047 1625 
L 3713 1625 
L 3713 1100 
L 3047 1100 
L 3047 0 
L 2419 0 
L 2419 1100 
L 313 1100 
L 313 1709 
L 2253 4666 
z
" transform="scale(0.015625)"/>
       </defs>
       <use xlink:href="#DejaVuSans-30"/>
       <use xlink:href="#DejaVuSans-2e" x="63.623047"/>
       <use xlink:href="#DejaVuSans-34" x="95.410156"/>
      </g>
     </g>
    </g>
    <g id="xtick_5">
     <g id="line2d_5">
      <g>
       <use xlink:href="#m7217373352" x="340.29599" y="307.584" style="stroke: #000000; stroke-width: 0.8"/>
      </g>
     </g>
     <g id="text_5">
      <!-- 0.5 -->
      <g transform="translate(332.344428 322.182437) scale(0.1 -0.1)">
       <defs>
        <path id="DejaVuSans-35" d="M 691 4666 
L 3169 4666 
L 3169 4134 
L 1269 4134 
L 1269 2991 
Q 1406 3038 1543 3061 
Q 1681 3084 1819 3084 
Q 2600 3084 3056 2656 
Q 3513 2228 3513 1497 
Q 3513 744 3044 326 
Q 2575 -91 1722 -91 
Q 1428 -91 1123 -41 
Q 819 9 494 109 
L 494 744 
Q 775 591 1075 516 
Q 1375 441 1709 441 
Q 2250 441 2565 725 
Q 2881 1009 2881 1497 
Q 2881 1984 2565 2268 
Q 2250 2553 1709 2553 
Q 1456 2553 1204 2497 
Q 953 2441 691 2322 
L 691 4666 
z
" transform="scale(0.015625)"/>
       </defs>
       <use xlink:href="#DejaVuSans-30"/>
       <use xlink:href="#DejaVuSans-2e" x="63.623047"/>
       <use xlink:href="#DejaVuSans-35" x="95.410156"/>
      </g>
     </g>
    </g>
    <g id="xtick_6">
     <g id="line2d_6">
      <g>
       <use xlink:href="#m7217373352" x="400.140029" y="307.584" style="stroke: #000000; stroke-width: 0.8"/>
      </g>
     </g>
     <g id="text_6">
      <!-- 0.6 -->
      <g transform="translate(392.188467 322.182437) scale(0.1 -0.1)">
       <defs>
        <path id="DejaVuSans-36" d="M 2113 2584 
Q 1688 2584 1439 2293 
Q 1191 2003 1191 1497 
Q 1191 994 1439 701 
Q 1688 409 2113 409 
Q 2538 409 2786 701 
Q 3034 994 3034 1497 
Q 3034 2003 2786 2293 
Q 2538 2584 2113 2584 
z
M 3366 4563 
L 3366 3988 
Q 3128 4100 2886 4159 
Q 2644 4219 2406 4219 
Q 1781 4219 1451 3797 
Q 1122 3375 1075 2522 
Q 1259 2794 1537 2939 
Q 1816 3084 2150 3084 
Q 2853 3084 3261 2657 
Q 3669 2231 3669 1497 
Q 3669 778 3244 343 
Q 2819 -91 2113 -91 
Q 1303 -91 875 529 
Q 447 1150 447 2328 
Q 447 3434 972 4092 
Q 1497 4750 2381 4750 
Q 2619 4750 2861 4703 
Q 3103 4656 3366 4563 
z
" transform="scale(0.015625)"/>
       </defs>
       <use xlink:href="#DejaVuSans-30"/>
       <use xlink:href="#DejaVuSans-2e" x="63.623047"/>
       <use xlink:href="#DejaVuSans-36" x="95.410156"/>
      </g>
     </g>
    </g>
    <g id="text_7">
     <!-- $\Omega_{2,0}$ -->
     <g transform="translate(225.86 335.662125) scale(0.1 -0.1)">
      <defs>
       <path id="DejaVuSans-3a9" d="M 4647 556 
L 4647 0 
L 2772 0 
L 2772 556 
Q 3325 859 3634 1378 
Q 3944 1897 3944 2528 
Q 3944 3278 3531 3731 
Q 3119 4184 2444 4184 
Q 1769 4184 1355 3729 
Q 941 3275 941 2528 
Q 941 1897 1250 1378 
Q 1563 859 2119 556 
L 2119 0 
L 244 0 
L 244 556 
L 1241 556 
Q 747 991 519 1456 
Q 294 1922 294 2497 
Q 294 3491 894 4106 
Q 1491 4722 2444 4722 
Q 3391 4722 3994 4106 
Q 4594 3494 4594 2528 
Q 4594 1922 4372 1459 
Q 4150 997 3647 556 
L 4647 556 
z
" transform="scale(0.015625)"/>
       <path id="DejaVuSans-2c" d="M 750 794 
L 1409 794 
L 1409 256 
L 897 -744 
L 494 -744 
L 750 256 
L 750 794 
z
" transform="scale(0.015625)"/>
      </defs>
      <use xlink:href="#DejaVuSans-3a9" transform="translate(0 0.21875)"/>
      <use xlink:href="#DejaVuSans-32" transform="translate(77.373047 -16.1875) scale(0.7)"/>
      <use xlink:href="#DejaVuSans-2c" transform="translate(121.90918 -16.1875) scale(0.7)"/>
      <use xlink:href="#DejaVuSans-30" transform="translate(157.797852 -16.1875) scale(0.7)"/>
     </g>
    </g>
   </g>
   <g id="matplotlib.axis_2">
    <g id="ytick_1">
     <g id="line2d_7">
      <defs>
       <path id="m1025ea4c74" d="M 0 0 
L -3.5 0 
" style="stroke: #000000; stroke-width: 0.8"/>
      </defs>
      <g>
       <use xlink:href="#m1025ea4c74" x="57.6" y="307.584" style="stroke: #000000; stroke-width: 0.8"/>
      </g>
     </g>
     <g id="text_8">
      <!-- 0 -->
      <g transform="translate(44.2375 311.383219) scale(0.1 -0.1)">
       <use xlink:href="#DejaVuSans-30"/>
      </g>
     </g>
    </g>
    <g id="ytick_2">
     <g id="line2d_8">
      <g>
       <use xlink:href="#m1025ea4c74" x="57.6" y="265.978361" style="stroke: #000000; stroke-width: 0.8"/>
      </g>
     </g>
     <g id="text_9">
      <!-- 1 -->
      <g transform="translate(44.2375 269.77758) scale(0.1 -0.1)">
       <use xlink:href="#DejaVuSans-31"/>
      </g>
     </g>
    </g>
    <g id="ytick_3">
     <g id="line2d_9">
      <g>
       <use xlink:href="#m1025ea4c74" x="57.6" y="224.372722" style="stroke: #000000; stroke-width: 0.8"/>
      </g>
     </g>
     <g id="text_10">
      <!-- 2 -->
      <g transform="translate(44.2375 228.171941) scale(0.1 -0.1)">
       <use xlink:href="#DejaVuSans-32"/>
      </g>
     </g>
    </g>
    <g id="ytick_4">
     <g id="line2d_10">
      <g>
       <use xlink:href="#m1025ea4c74" x="57.6" y="182.767083" style="stroke: #000000; stroke-width: 0.8"/>
      </g>
     </g>
     <g id="text_11">
      <!-- 3 -->
      <g transform="translate(44.2375 186.566301) scale(0.1 -0.1)">
       <use xlink:href="#DejaVuSans-33"/>
      </g>
     </g>
    </g>
    <g id="ytick_5">
     <g id="line2d_11">
      <g>
       <use xlink:href="#m1025ea4c74" x="57.6" y="141.161444" style="stroke: #000000; stroke-width: 0.8"/>
      </g>
     </g>
     <g id="text_12">
      <!-- 4 -->
      <g transform="translate(44.2375 144.960662) scale(0.1 -0.1)">
       <use xlink:href="#DejaVuSans-34"/>
      </g>
     </g>
    </g>
    <g id="ytick_6">
     <g id="line2d_12">
      <g>
       <use xlink:href="#m1025ea4c74" x="57.6" y="99.555805" style="stroke: #000000; stroke-width: 0.8"/>
      </g>
     </g>
     <g id="text_13">
      <!-- 5 -->
      <g transform="translate(44.2375 103.355023) scale(0.1 -0.1)">
       <use xlink:href="#DejaVuSans-35"/>
      </g>
     </g>
    </g>
    <g id="ytick_7">
     <g id="line2d_13">
      <g>
       <use xlink:href="#m1025ea4c74" x="57.6" y="57.950165" style="stroke: #000000; stroke-width: 0.8"/>
      </g>
     </g>
     <g id="text_14">
      <!-- 6 -->
      <g transform="translate(44.2375 61.749384) scale(0.1 -0.1)">
       <use xlink:href="#DejaVuSans-36"/>
      </g>
     </g>
    </g>
    <g id="text_15">
     <!-- Density -->
     <g transform="translate(38.157812 193.536594) rotate(-90) scale(0.1 -0.1)">
      <defs>
       <path id="DejaVuSans-44" d="M 1259 4147 
L 1259 519 
L 2022 519 
Q 2988 519 3436 956 
Q 3884 1394 3884 2338 
Q 3884 3275 3436 3711 
Q 2988 4147 2022 4147 
L 1259 4147 
z
M 628 4666 
L 1925 4666 
Q 3281 4666 3915 4102 
Q 4550 3538 4550 2338 
Q 4550 1131 3912 565 
Q 3275 0 1925 0 
L 628 0 
L 628 4666 
z
" transform="scale(0.015625)"/>
       <path id="DejaVuSans-65" d="M 3597 1894 
L 3597 1613 
L 953 1613 
Q 991 1019 1311 708 
Q 1631 397 2203 397 
Q 2534 397 2845 478 
Q 3156 559 3463 722 
L 3463 178 
Q 3153 47 2828 -22 
Q 2503 -91 2169 -91 
Q 1331 -91 842 396 
Q 353 884 353 1716 
Q 353 2575 817 3079 
Q 1281 3584 2069 3584 
Q 2775 3584 3186 3129 
Q 3597 2675 3597 1894 
z
M 3022 2063 
Q 3016 2534 2758 2815 
Q 2500 3097 2075 3097 
Q 1594 3097 1305 2825 
Q 1016 2553 972 2059 
L 3022 2063 
z
" transform="scale(0.015625)"/>
       <path id="DejaVuSans-6e" d="M 3513 2113 
L 3513 0 
L 2938 0 
L 2938 2094 
Q 2938 2591 2744 2837 
Q 2550 3084 2163 3084 
Q 1697 3084 1428 2787 
Q 1159 2491 1159 1978 
L 1159 0 
L 581 0 
L 581 3500 
L 1159 3500 
L 1159 2956 
Q 1366 3272 1645 3428 
Q 1925 3584 2291 3584 
Q 2894 3584 3203 3211 
Q 3513 2838 3513 2113 
z
" transform="scale(0.015625)"/>
       <path id="DejaVuSans-73" d="M 2834 3397 
L 2834 2853 
Q 2591 2978 2328 3040 
Q 2066 3103 1784 3103 
Q 1356 3103 1142 2972 
Q 928 2841 928 2578 
Q 928 2378 1081 2264 
Q 1234 2150 1697 2047 
L 1894 2003 
Q 2506 1872 2764 1633 
Q 3022 1394 3022 966 
Q 3022 478 2636 193 
Q 2250 -91 1575 -91 
Q 1294 -91 989 -36 
Q 684 19 347 128 
L 347 722 
Q 666 556 975 473 
Q 1284 391 1588 391 
Q 1994 391 2212 530 
Q 2431 669 2431 922 
Q 2431 1156 2273 1281 
Q 2116 1406 1581 1522 
L 1381 1569 
Q 847 1681 609 1914 
Q 372 2147 372 2553 
Q 372 3047 722 3315 
Q 1072 3584 1716 3584 
Q 2034 3584 2315 3537 
Q 2597 3491 2834 3397 
z
" transform="scale(0.015625)"/>
       <path id="DejaVuSans-69" d="M 603 3500 
L 1178 3500 
L 1178 0 
L 603 0 
L 603 3500 
z
M 603 4863 
L 1178 4863 
L 1178 4134 
L 603 4134 
L 603 4863 
z
" transform="scale(0.015625)"/>
       <path id="DejaVuSans-74" d="M 1172 4494 
L 1172 3500 
L 2356 3500 
L 2356 3053 
L 1172 3053 
L 1172 1153 
Q 1172 725 1289 603 
Q 1406 481 1766 481 
L 2356 481 
L 2356 0 
L 1766 0 
Q 1100 0 847 248 
Q 594 497 594 1153 
L 594 3053 
L 172 3053 
L 172 3500 
L 594 3500 
L 594 4494 
L 1172 4494 
z
" transform="scale(0.015625)"/>
       <path id="DejaVuSans-79" d="M 2059 -325 
Q 1816 -950 1584 -1140 
Q 1353 -1331 966 -1331 
L 506 -1331 
L 506 -850 
L 844 -850 
Q 1081 -850 1212 -737 
Q 1344 -625 1503 -206 
L 1606 56 
L 191 3500 
L 800 3500 
L 1894 763 
L 2988 3500 
L 3597 3500 
L 2059 -325 
z
" transform="scale(0.015625)"/>
      </defs>
      <use xlink:href="#DejaVuSans-44"/>
      <use xlink:href="#DejaVuSans-65" x="77.001953"/>
      <use xlink:href="#DejaVuSans-6e" x="138.525391"/>
      <use xlink:href="#DejaVuSans-73" x="201.904297"/>
      <use xlink:href="#DejaVuSans-69" x="254.003906"/>
      <use xlink:href="#DejaVuSans-74" x="281.787109"/>
      <use xlink:href="#DejaVuSans-79" x="320.996094"/>
     </g>
    </g>
   </g>
   <g id="line2d_14">
    <path d="M 199.545167 307.483708 
L 203.361273 307.409988 
L 208.218137 306.862344 
L 209.605812 306.26415 
L 211.340406 305.28092 
L 212.381162 304.442269 
L 213.421919 303.211661 
L 214.115756 302.078406 
L 214.809594 300.591137 
L 215.503432 298.635653 
L 216.197269 296.121298 
L 217.238026 291.26305 
L 218.278782 285.203707 
L 219.319539 277.980165 
L 220.360295 269.444971 
L 221.401051 259.155212 
L 222.441808 246.314002 
L 223.482564 230.489622 
L 224.870239 205.856929 
L 226.604833 171.549652 
L 228.686346 125.283929 
L 230.074022 95.142621 
L 231.114778 76.840669 
L 231.808616 67.592597 
L 232.502453 60.823488 
L 233.196291 56.478819 
L 233.54321 55.177814 
L 233.890128 54.416676 
L 234.237047 54.143563 
L 234.583966 54.290191 
L 234.930885 54.779757 
L 235.624722 56.520494 
L 236.31856 59.097216 
L 237.012398 62.750214 
L 237.706235 67.974408 
L 238.400073 75.069926 
L 239.440829 88.987925 
L 240.828504 112.143038 
L 242.563099 145.781457 
L 244.644611 185.991261 
L 246.379205 215.021562 
L 248.113799 240.884112 
L 249.154556 253.994097 
L 250.195312 264.799054 
L 251.582987 276.693728 
L 252.970663 286.581787 
L 254.011419 292.318625 
L 255.052176 296.447696 
L 256.092932 299.346409 
L 257.133688 301.52304 
L 258.174445 303.247381 
L 259.215201 304.584087 
L 260.255958 305.567927 
L 261.296714 306.261678 
L 262.684389 306.851644 
L 264.418983 307.271288 
L 266.153577 307.479174 
L 268.582009 307.5341 
L 268.582009 307.5341 
" clip-path="url(#p6249f38847)" style="fill: none; stroke: #9467bd; stroke-width: 1.5; stroke-linecap: square"/>
   </g>
   <g id="line2d_15">
    <path d="M 162.271584 307.126117 
L 164.316928 306.931797 
L 166.362273 307.035461 
L 168.407617 307.165866 
L 169.941625 306.993238 
L 170.964298 306.689488 
L 172.498306 305.955004 
L 177.100331 303.298192 
L 178.123003 303.092531 
L 179.145676 303.088243 
L 180.679684 303.327822 
L 184.259037 303.949629 
L 185.793045 304.065724 
L 186.815717 303.981298 
L 187.83839 303.720872 
L 189.372398 303.044371 
L 190.906406 302.080695 
L 192.440415 300.796279 
L 193.974423 299.215386 
L 194.997095 297.95736 
L 196.019767 296.37071 
L 197.04244 294.231505 
L 198.065112 291.346941 
L 199.087784 287.648198 
L 200.110456 283.212947 
L 201.644465 275.459942 
L 203.178473 266.346939 
L 204.712481 255.357761 
L 206.24649 242.324845 
L 207.780498 227.346356 
L 209.314507 210.239037 
L 214.427868 150.084159 
L 215.961876 136.11922 
L 216.984548 128.797053 
L 218.007221 123.41971 
L 218.518557 121.510805 
L 219.029893 120.126903 
L 219.541229 119.26227 
L 220.052565 118.907582 
L 220.563901 119.052387 
L 221.075237 119.685636 
L 221.586573 120.794314 
L 222.097909 122.361154 
L 223.120582 126.771426 
L 224.143254 132.684853 
L 225.165926 139.889468 
L 226.699935 152.776084 
L 236.415321 241.882122 
L 237.949329 254.714343 
L 239.483337 265.937309 
L 241.017346 275.417936 
L 242.040018 280.695136 
L 243.06269 285.162677 
L 244.085363 288.930112 
L 245.619371 293.567264 
L 247.153379 297.266864 
L 248.176051 299.276463 
L 249.198724 300.945263 
L 250.221396 302.309064 
L 251.755404 303.893319 
L 253.289413 305.071175 
L 254.823421 305.946096 
L 256.357429 306.551575 
L 257.891438 306.920149 
L 259.936782 307.17776 
L 264.027471 307.441225 
L 264.027471 307.441225 
" clip-path="url(#p6249f38847)" style="fill: none; stroke: #d62728; stroke-width: 1.5; stroke-linecap: square"/>
   </g>
   <g id="line2d_16">
    <path d="M 188.403309 307.554966 
L 196.75356 307.401138 
L 198.511508 307.132133 
L 201.587916 306.29811 
L 202.906377 305.794213 
L 203.785351 305.284896 
L 205.103812 304.184793 
L 206.422272 302.696541 
L 207.740733 300.784348 
L 209.059194 298.339681 
L 210.377654 295.245981 
L 211.696115 291.378453 
L 213.014576 286.629149 
L 214.333036 280.816625 
L 215.651497 273.712085 
L 216.969958 265.193629 
L 218.288418 255.142815 
L 219.606879 243.526089 
L 221.364827 226.13907 
L 223.562261 201.982524 
L 225.759696 174.947358 
L 227.95713 147.653954 
L 229.275591 133.947342 
L 230.594052 123.247044 
L 231.912512 114.851146 
L 232.791486 110.338176 
L 233.67046 107.082939 
L 234.109947 106.124416 
L 234.549434 105.714178 
L 234.98892 105.901836 
L 235.428407 106.702185 
L 235.867894 108.091165 
L 236.746868 112.371313 
L 237.625842 118.051809 
L 238.944303 127.96943 
L 240.262763 139.40346 
L 241.581224 153.037828 
L 243.339172 174.156016 
L 247.294554 222.944217 
L 249.052501 241.086834 
L 250.370962 252.552626 
L 251.689423 262.462558 
L 253.44737 273.899779 
L 254.765831 281.299236 
L 256.084292 287.477081 
L 257.402752 292.339552 
L 258.721213 296.067356 
L 260.039674 298.891475 
L 261.358134 300.998709 
L 262.676595 302.619093 
L 264.434543 304.355794 
L 265.753003 305.379016 
L 267.071464 306.127467 
L 268.389925 306.635221 
L 270.147872 307.071176 
L 272.345307 307.382815 
L 274.982228 307.509166 
L 275.861202 307.52777 
L 275.861202 307.52777 
" clip-path="url(#p6249f38847)" style="fill: none; stroke: #2ca02c; stroke-width: 1.5; stroke-linecap: square"/>
   </g>
   <g id="line2d_17">
    <path d="M 156.814007 307.509351 
L 163.40519 307.470144 
L 166.334605 307.151312 
L 169.264019 306.890295 
L 171.461081 306.92728 
L 177.31991 307.207396 
L 183.17874 307.088732 
L 185.375801 306.89431 
L 189.037569 306.369773 
L 190.502277 306.390291 
L 195.628752 306.916351 
L 197.825814 306.745045 
L 205.881704 305.888509 
L 207.346412 305.748183 
L 208.811119 305.409809 
L 210.275826 304.812426 
L 212.472887 303.5901 
L 217.599363 300.348002 
L 219.064071 299.221738 
L 219.796424 298.484714 
L 220.528778 297.565173 
L 221.261132 296.424024 
L 221.993485 295.039038 
L 223.458193 291.532467 
L 224.9229 287.121198 
L 226.387608 281.852452 
L 227.852315 275.627183 
L 229.317022 268.314669 
L 230.78173 259.945883 
L 232.978791 245.90329 
L 235.175852 230.559687 
L 237.372913 213.517278 
L 239.569974 194.352383 
L 241.767035 175.03128 
L 243.231742 164.165771 
L 243.964096 159.776847 
L 244.69645 156.196743 
L 245.428804 153.448767 
L 246.161157 151.499712 
L 246.893511 150.258817 
L 247.625865 149.587216 
L 248.358218 149.320494 
L 249.090572 149.300759 
L 250.555279 149.588798 
L 251.287633 149.852127 
L 252.019987 150.27308 
L 252.75234 150.969151 
L 253.484694 152.079492 
L 254.217048 153.743436 
L 254.949402 156.081735 
L 255.681755 159.181739 
L 256.414109 163.087336 
L 257.146463 167.793688 
L 258.61117 179.339543 
L 260.808231 199.851931 
L 263.005292 220.09853 
L 265.202353 237.919818 
L 267.399414 253.697095 
L 268.864122 263.106413 
L 270.328829 271.484643 
L 271.793536 278.756618 
L 273.258244 284.865059 
L 274.722951 289.756264 
L 276.187659 293.492217 
L 277.652366 296.346923 
L 279.117073 298.697405 
L 281.314134 301.733251 
L 282.778842 303.383728 
L 284.243549 304.64164 
L 285.708257 305.539202 
L 287.172964 306.174067 
L 289.370025 306.796943 
L 291.567086 307.148199 
L 295.228855 307.449013 
L 299.622977 307.568154 
L 302.552392 307.574818 
L 302.552392 307.574818 
" clip-path="url(#p6249f38847)" style="fill: none; stroke: #ff7f0e; stroke-width: 1.5; stroke-linecap: square"/>
   </g>
   <g id="line2d_18">
    <path d="M 73.832727 307.530336 
L 93.409886 307.379054 
L 114.618474 307.003594 
L 122.775624 306.587543 
L 129.301343 306.090598 
L 135.827063 305.391571 
L 145.615642 304.062355 
L 152.141361 302.988884 
L 155.404221 302.256522 
L 158.667081 301.301027 
L 161.929941 300.083754 
L 165.1928 298.598837 
L 168.45566 296.853616 
L 171.71852 294.845036 
L 174.98138 292.555333 
L 178.244239 289.973229 
L 181.507099 287.122862 
L 186.401389 282.510892 
L 194.558538 274.762628 
L 201.084258 268.954133 
L 207.609977 263.449986 
L 210.872837 260.915678 
L 214.135697 258.674576 
L 217.398556 256.839824 
L 219.029986 256.09903 
L 220.661416 255.482646 
L 222.292846 254.992469 
L 223.924276 254.628521 
L 225.555706 254.389581 
L 227.187136 254.273443 
L 228.818566 254.276894 
L 232.081425 254.623674 
L 235.344285 255.379606 
L 238.607145 256.481038 
L 241.870005 257.866534 
L 245.132864 259.488811 
L 248.395724 261.318474 
L 251.658584 263.344912 
L 254.921444 265.570021 
L 259.815733 269.255119 
L 267.972883 275.872782 
L 274.498602 281.089802 
L 279.392892 284.761494 
L 284.287181 288.091199 
L 289.181471 291.036397 
L 294.075761 293.626513 
L 298.97005 295.89465 
L 303.86434 297.86566 
L 308.75863 299.578665 
L 313.652919 301.08332 
L 318.547209 302.399441 
L 323.441498 303.505447 
L 328.335788 304.386257 
L 334.861508 305.268404 
L 343.018657 306.09768 
L 351.175806 306.722201 
L 359.332956 307.122469 
L 369.121535 307.366454 
L 383.804404 307.464488 
L 398.487273 307.55118 
L 398.487273 307.55118 
" clip-path="url(#p6249f38847)" style="fill: none; stroke: #1f77b4; stroke-width: 1.5; stroke-linecap: square"/>
   </g>
   <g id="patch_3">
    <path d="M 57.6 307.584 
L 57.6 41.472 
" style="fill: none; stroke: #000000; stroke-width: 0.8; stroke-linejoin: miter; stroke-linecap: square"/>
   </g>
   <g id="patch_4">
    <path d="M 414.72 307.584 
L 414.72 41.472 
" style="fill: none; stroke: #000000; stroke-width: 0.8; stroke-linejoin: miter; stroke-linecap: square"/>
   </g>
   <g id="patch_5">
    <path d="M 57.6 307.584 
L 414.72 307.584 
" style="fill: none; stroke: #000000; stroke-width: 0.8; stroke-linejoin: miter; stroke-linecap: square"/>
   </g>
   <g id="patch_6">
    <path d="M 57.6 41.472 
L 414.72 41.472 
" style="fill: none; stroke: #000000; stroke-width: 0.8; stroke-linejoin: miter; stroke-linecap: square"/>
   </g>
   <g id="legend_1">
    <g id="patch_7">
     <path d="M 288.384063 122.862625 
L 407.72 122.862625 
Q 409.72 122.862625 409.72 120.862625 
L 409.72 48.472 
Q 409.72 46.472 407.72 46.472 
L 288.384063 46.472 
Q 286.384063 46.472 286.384063 48.472 
L 286.384063 120.862625 
Q 286.384063 122.862625 288.384063 122.862625 
z
" style="fill: #ffffff; opacity: 0.8; stroke: #cccccc; stroke-linejoin: miter"/>
    </g>
    <g id="line2d_19">
     <path d="M 290.384063 54.570438 
L 300.384063 54.570438 
L 310.384063 54.570438 
" style="fill: none; stroke: #1f77b4; stroke-width: 1.5; stroke-linecap: square"/>
    </g>
    <g id="text_16">
     <!-- OHD -->
     <g transform="translate(318.384063 58.070438) scale(0.1 -0.1)">
      <defs>
       <path id="DejaVuSans-4f" d="M 2522 4238 
Q 1834 4238 1429 3725 
Q 1025 3213 1025 2328 
Q 1025 1447 1429 934 
Q 1834 422 2522 422 
Q 3209 422 3611 934 
Q 4013 1447 4013 2328 
Q 4013 3213 3611 3725 
Q 3209 4238 2522 4238 
z
M 2522 4750 
Q 3503 4750 4090 4092 
Q 4678 3434 4678 2328 
Q 4678 1225 4090 567 
Q 3503 -91 2522 -91 
Q 1538 -91 948 565 
Q 359 1222 359 2328 
Q 359 3434 948 4092 
Q 1538 4750 2522 4750 
z
" transform="scale(0.015625)"/>
       <path id="DejaVuSans-48" d="M 628 4666 
L 1259 4666 
L 1259 2753 
L 3553 2753 
L 3553 4666 
L 4184 4666 
L 4184 0 
L 3553 0 
L 3553 2222 
L 1259 2222 
L 1259 0 
L 628 0 
L 628 4666 
z
" transform="scale(0.015625)"/>
      </defs>
      <use xlink:href="#DejaVuSans-4f"/>
      <use xlink:href="#DejaVuSans-48" x="78.710938"/>
      <use xlink:href="#DejaVuSans-44" x="153.90625"/>
     </g>
    </g>
    <g id="line2d_20">
     <path d="M 290.384063 69.248563 
L 300.384063 69.248563 
L 310.384063 69.248563 
" style="fill: none; stroke: #ff7f0e; stroke-width: 1.5; stroke-linecap: square"/>
    </g>
    <g id="text_17">
     <!-- SN Ia -->
     <g transform="translate(318.384063 72.748563) scale(0.1 -0.1)">
      <defs>
       <path id="DejaVuSans-53" d="M 3425 4513 
L 3425 3897 
Q 3066 4069 2747 4153 
Q 2428 4238 2131 4238 
Q 1616 4238 1336 4038 
Q 1056 3838 1056 3469 
Q 1056 3159 1242 3001 
Q 1428 2844 1947 2747 
L 2328 2669 
Q 3034 2534 3370 2195 
Q 3706 1856 3706 1288 
Q 3706 609 3251 259 
Q 2797 -91 1919 -91 
Q 1588 -91 1214 -16 
Q 841 59 441 206 
L 441 856 
Q 825 641 1194 531 
Q 1563 422 1919 422 
Q 2459 422 2753 634 
Q 3047 847 3047 1241 
Q 3047 1584 2836 1778 
Q 2625 1972 2144 2069 
L 1759 2144 
Q 1053 2284 737 2584 
Q 422 2884 422 3419 
Q 422 4038 858 4394 
Q 1294 4750 2059 4750 
Q 2388 4750 2728 4690 
Q 3069 4631 3425 4513 
z
" transform="scale(0.015625)"/>
       <path id="DejaVuSans-4e" d="M 628 4666 
L 1478 4666 
L 3547 763 
L 3547 4666 
L 4159 4666 
L 4159 0 
L 3309 0 
L 1241 3903 
L 1241 0 
L 628 0 
L 628 4666 
z
" transform="scale(0.015625)"/>
       <path id="DejaVuSans-20" transform="scale(0.015625)"/>
       <path id="DejaVuSans-49" d="M 628 4666 
L 1259 4666 
L 1259 0 
L 628 0 
L 628 4666 
z
" transform="scale(0.015625)"/>
       <path id="DejaVuSans-61" d="M 2194 1759 
Q 1497 1759 1228 1600 
Q 959 1441 959 1056 
Q 959 750 1161 570 
Q 1363 391 1709 391 
Q 2188 391 2477 730 
Q 2766 1069 2766 1631 
L 2766 1759 
L 2194 1759 
z
M 3341 1997 
L 3341 0 
L 2766 0 
L 2766 531 
Q 2569 213 2275 61 
Q 1981 -91 1556 -91 
Q 1019 -91 701 211 
Q 384 513 384 1019 
Q 384 1609 779 1909 
Q 1175 2209 1959 2209 
L 2766 2209 
L 2766 2266 
Q 2766 2663 2505 2880 
Q 2244 3097 1772 3097 
Q 1472 3097 1187 3025 
Q 903 2953 641 2809 
L 641 3341 
Q 956 3463 1253 3523 
Q 1550 3584 1831 3584 
Q 2591 3584 2966 3190 
Q 3341 2797 3341 1997 
z
" transform="scale(0.015625)"/>
      </defs>
      <use xlink:href="#DejaVuSans-53"/>
      <use xlink:href="#DejaVuSans-4e" x="63.476562"/>
      <use xlink:href="#DejaVuSans-20" x="138.28125"/>
      <use xlink:href="#DejaVuSans-49" x="170.068359"/>
      <use xlink:href="#DejaVuSans-61" x="199.560547"/>
     </g>
    </g>
    <g id="line2d_21">
     <path d="M 290.384063 83.926688 
L 300.384063 83.926688 
L 310.384063 83.926688 
" style="fill: none; stroke: #2ca02c; stroke-width: 1.5; stroke-linecap: square"/>
    </g>
    <g id="text_18">
     <!-- OHD+SN Ia -->
     <g transform="translate(318.384063 87.426688) scale(0.1 -0.1)">
      <defs>
       <path id="DejaVuSans-2b" d="M 2944 4013 
L 2944 2272 
L 4684 2272 
L 4684 1741 
L 2944 1741 
L 2944 0 
L 2419 0 
L 2419 1741 
L 678 1741 
L 678 2272 
L 2419 2272 
L 2419 4013 
L 2944 4013 
z
" transform="scale(0.015625)"/>
      </defs>
      <use xlink:href="#DejaVuSans-4f"/>
      <use xlink:href="#DejaVuSans-48" x="78.710938"/>
      <use xlink:href="#DejaVuSans-44" x="153.90625"/>
      <use xlink:href="#DejaVuSans-2b" x="230.908203"/>
      <use xlink:href="#DejaVuSans-53" x="314.697266"/>
      <use xlink:href="#DejaVuSans-4e" x="378.173828"/>
      <use xlink:href="#DejaVuSans-20" x="452.978516"/>
      <use xlink:href="#DejaVuSans-49" x="484.765625"/>
      <use xlink:href="#DejaVuSans-61" x="514.257812"/>
     </g>
    </g>
    <g id="line2d_22">
     <path d="M 290.384063 98.604813 
L 300.384063 98.604813 
L 310.384063 98.604813 
" style="fill: none; stroke: #d62728; stroke-width: 1.5; stroke-linecap: square"/>
    </g>
    <g id="text_19">
     <!-- BAO -->
     <g transform="translate(318.384063 102.104813) scale(0.1 -0.1)">
      <defs>
       <path id="DejaVuSans-42" d="M 1259 2228 
L 1259 519 
L 2272 519 
Q 2781 519 3026 730 
Q 3272 941 3272 1375 
Q 3272 1813 3026 2020 
Q 2781 2228 2272 2228 
L 1259 2228 
z
M 1259 4147 
L 1259 2741 
L 2194 2741 
Q 2656 2741 2882 2914 
Q 3109 3088 3109 3444 
Q 3109 3797 2882 3972 
Q 2656 4147 2194 4147 
L 1259 4147 
z
M 628 4666 
L 2241 4666 
Q 2963 4666 3353 4366 
Q 3744 4066 3744 3513 
Q 3744 3084 3544 2831 
Q 3344 2578 2956 2516 
Q 3422 2416 3680 2098 
Q 3938 1781 3938 1306 
Q 3938 681 3513 340 
Q 3088 0 2303 0 
L 628 0 
L 628 4666 
z
" transform="scale(0.015625)"/>
       <path id="DejaVuSans-41" d="M 2188 4044 
L 1331 1722 
L 3047 1722 
L 2188 4044 
z
M 1831 4666 
L 2547 4666 
L 4325 0 
L 3669 0 
L 3244 1197 
L 1141 1197 
L 716 0 
L 50 0 
L 1831 4666 
z
" transform="scale(0.015625)"/>
      </defs>
      <use xlink:href="#DejaVuSans-42"/>
      <use xlink:href="#DejaVuSans-41" x="68.603516"/>
      <use xlink:href="#DejaVuSans-4f" x="135.261719"/>
     </g>
    </g>
    <g id="line2d_23">
     <path d="M 290.384063 113.282938 
L 300.384063 113.282938 
L 310.384063 113.282938 
" style="fill: none; stroke: #9467bd; stroke-width: 1.5; stroke-linecap: square"/>
    </g>
    <g id="text_20">
     <!-- OHD+SN Ia+BAO -->
     <g transform="translate(318.384063 116.782938) scale(0.1 -0.1)">
      <use xlink:href="#DejaVuSans-4f"/>
      <use xlink:href="#DejaVuSans-48" x="78.710938"/>
      <use xlink:href="#DejaVuSans-44" x="153.90625"/>
      <use xlink:href="#DejaVuSans-2b" x="230.908203"/>
      <use xlink:href="#DejaVuSans-53" x="314.697266"/>
      <use xlink:href="#DejaVuSans-4e" x="378.173828"/>
      <use xlink:href="#DejaVuSans-20" x="452.978516"/>
      <use xlink:href="#DejaVuSans-49" x="484.765625"/>
      <use xlink:href="#DejaVuSans-61" x="514.257812"/>
      <use xlink:href="#DejaVuSans-2b" x="575.537109"/>
      <use xlink:href="#DejaVuSans-42" x="659.326172"/>
      <use xlink:href="#DejaVuSans-41" x="727.929688"/>
      <use xlink:href="#DejaVuSans-4f" x="794.587891"/>
     </g>
    </g>
   </g>
  </g>
 </g>
 <defs>
  <clipPath id="p6249f38847">
   <rect x="57.6" y="41.472" width="357.12" height="266.112"/>
  </clipPath>
 </defs>
</svg>
