<?xml version="1.0" encoding="utf-8" standalone="no"?>
<!DOCTYPE svg PUBLIC "-//W3C//DTD SVG 1.1//EN"
  "http://www.w3.org/Graphics/SVG/1.1/DTD/svg11.dtd">
<svg xmlns:xlink="http://www.w3.org/1999/xlink" width="396pt" height="396pt" viewBox="0 0 396 396" xmlns="http://www.w3.org/2000/svg" version="1.1">
 <metadata>
  <rdf:RDF xmlns:dc="http://purl.org/dc/elements/1.1/" xmlns:cc="http://creativecommons.org/ns#" xmlns:rdf="http://www.w3.org/1999/02/22-rdf-syntax-ns#">
   <cc:Work>
    <dc:type rdf:resource="http://purl.org/dc/dcmitype/StillImage"/>
    <dc:date>2024-11-19T13:08:07.177733</dc:date>
    <dc:format>image/svg+xml</dc:format>
    <dc:creator>
     <cc:Agent>
      <dc:title>Matplotlib v3.9.2, https://matplotlib.org/</dc:title>
     </cc:Agent>
    </dc:creator>
   </cc:Work>
  </rdf:RDF>
 </metadata>
 <defs>
  <style type="text/css">*{stroke-linejoin: round; stroke-linecap: butt}</style>
 </defs>
 <g id="figure_1">
  <g id="patch_1">
   <path d="M 0 396 
L 396 396 
L 396 0 
L 0 0 
z
" style="fill: #ffffff"/>
  </g>
  <g id="axes_1">
   <g id="patch_2">
    <path d="M 69.552 163.224 
L 221.854053 163.224 
L 221.854053 30.984 
L 69.552 30.984 
z
" style="fill: #ffffff"/>
   </g>
   <g id="matplotlib.axis_1">
    <g id="xtick_1">
     <g id="line2d_1">
      <defs>
       <path id="m7d74a12e89" d="M 0 0 
L 0 3.5 
" style="stroke: #000000; stroke-width: 0.8"/>
      </defs>
      <g>
       <use xlink:href="#m7d74a12e89" x="99.850963" y="163.224" style="stroke: #000000; stroke-width: 0.8"/>
      </g>
     </g>
    </g>
    <g id="xtick_2">
     <g id="line2d_2">
      <g>
       <use xlink:href="#m7d74a12e89" x="133.24238" y="163.224" style="stroke: #000000; stroke-width: 0.8"/>
      </g>
     </g>
    </g>
    <g id="xtick_3">
     <g id="line2d_3">
      <g>
       <use xlink:href="#m7d74a12e89" x="166.633797" y="163.224" style="stroke: #000000; stroke-width: 0.8"/>
      </g>
     </g>
    </g>
    <g id="xtick_4">
     <g id="line2d_4">
      <g>
       <use xlink:href="#m7d74a12e89" x="200.025214" y="163.224" style="stroke: #000000; stroke-width: 0.8"/>
      </g>
     </g>
    </g>
   </g>
   <g id="matplotlib.axis_2"/>
   <g id="line2d_5">
    <path d="M 69.552 162.82174 
L 73.359551 162.879206 
L 73.359551 162.936672 
L 76.405592 162.994137 
L 76.405592 163.051603 
L 84.020695 162.994137 
L 84.020695 162.936672 
L 86.305226 162.879206 
L 86.305226 162.82174 
L 93.158818 162.879206 
L 93.158818 162.936672 
L 95.443349 162.994137 
L 95.443349 163.051603 
L 100.773921 162.994137 
L 100.773921 162.936672 
L 103.058452 162.879206 
L 103.058452 162.82174 
L 104.581472 162.764275 
L 104.581472 162.706809 
L 106.104493 162.649343 
L 106.104493 162.591878 
L 108.389023 162.534412 
L 108.389023 162.476946 
L 109.912044 162.419481 
L 109.912044 162.362015 
L 113.719595 162.304549 
L 113.719595 162.247084 
L 116.004126 162.189618 
L 116.004126 162.074687 
L 117.527147 162.017221 
L 117.527147 161.90229 
L 118.288657 161.90229 
L 118.288657 161.787358 
L 119.050167 161.787358 
L 119.050167 161.672427 
L 119.811677 161.672427 
L 119.811677 161.557496 
L 120.573188 161.557496 
L 120.573188 161.442564 
L 122.096208 161.385099 
L 122.096208 161.327633 
L 123.619229 161.270167 
L 123.619229 161.212702 
L 125.142249 161.155236 
L 125.142249 161.09777 
L 126.66527 161.040305 
L 126.66527 160.925373 
L 127.42678 160.925373 
L 127.42678 160.752976 
L 128.18829 160.752976 
L 128.18829 160.523114 
L 128.949801 160.523114 
L 128.949801 160.178319 
L 129.711311 160.178319 
L 129.711311 159.833525 
L 130.472821 159.833525 
L 130.472821 159.3738 
L 131.234331 159.3738 
L 131.234331 158.856609 
L 131.995842 158.856609 
L 131.995842 158.224487 
L 132.757352 158.224487 
L 132.757352 157.477433 
L 133.518862 157.477433 
L 133.518862 156.672914 
L 134.280372 156.672914 
L 134.280372 155.810929 
L 135.041883 155.810929 
L 135.041883 154.834012 
L 135.803393 154.834012 
L 135.803393 153.742164 
L 136.564903 153.742164 
L 136.564903 152.47792 
L 137.326414 152.47792 
L 137.326414 151.156209 
L 138.087924 151.156209 
L 138.087924 149.604636 
L 138.849434 149.604636 
L 138.849434 147.938132 
L 139.610944 147.938132 
L 139.610944 146.09923 
L 140.372455 146.09923 
L 140.372455 144.030466 
L 141.133965 144.030466 
L 141.133965 141.789305 
L 141.895475 141.789305 
L 141.895475 139.375747 
L 142.656985 139.375747 
L 142.656985 136.847257 
L 143.418496 136.847257 
L 143.418496 134.146371 
L 144.180006 134.146371 
L 144.180006 131.273087 
L 144.941516 131.273087 
L 144.941516 128.284873 
L 145.703026 128.284873 
L 145.703026 125.181726 
L 146.464537 125.181726 
L 146.464537 121.963649 
L 147.226047 121.963649 
L 147.226047 118.573174 
L 147.987557 118.573174 
L 147.987557 115.067768 
L 148.749067 115.067768 
L 148.749067 111.447431 
L 149.510578 111.447431 
L 149.510578 107.712163 
L 150.272088 107.712163 
L 150.272088 103.919428 
L 151.033598 103.919428 
L 151.033598 100.011763 
L 151.795109 100.011763 
L 151.795109 96.104097 
L 152.556619 96.104097 
L 152.556619 92.0815 
L 153.318129 92.0815 
L 153.318129 88.058904 
L 154.079639 88.058904 
L 154.079639 84.036307 
L 154.84115 84.036307 
L 154.84115 80.01371 
L 155.60266 80.01371 
L 155.60266 76.048578 
L 156.36417 76.048578 
L 156.36417 72.255844 
L 157.12568 72.255844 
L 157.12568 68.578041 
L 157.887191 68.578041 
L 157.887191 65.072635 
L 158.648701 65.072635 
L 158.648701 61.797092 
L 159.410211 61.797092 
L 159.410211 58.693946 
L 160.171721 58.693946 
L 160.171721 55.820663 
L 160.933232 55.820663 
L 160.933232 53.119776 
L 161.694742 53.119776 
L 161.694742 50.706218 
L 162.456252 50.706218 
L 162.456252 48.522523 
L 163.217762 48.522523 
L 163.217762 46.683621 
L 163.979273 46.683621 
L 163.979273 45.132048 
L 164.740783 45.132048 
L 164.740783 44.0402 
L 165.502293 44.0402 
L 165.502293 43.293147 
L 166.263804 43.293147 
L 166.263804 43.005818 
L 167.025314 43.005818 
L 167.025314 43.12075 
L 167.786824 43.12075 
L 167.786824 43.695406 
L 168.548334 43.695406 
L 168.548334 44.787254 
L 169.309845 44.787254 
L 169.309845 46.338827 
L 170.071355 46.338827 
L 170.071355 48.522523 
L 170.832865 48.522523 
L 170.832865 51.165943 
L 171.594375 51.165943 
L 171.594375 54.326555 
L 172.355886 54.326555 
L 172.355886 57.946892 
L 173.117396 57.946892 
L 173.117396 61.912024 
L 173.878906 61.912024 
L 173.878906 66.164483 
L 174.640416 66.164483 
L 174.640416 70.58934 
L 175.401927 70.58934 
L 175.401927 75.186593 
L 176.163437 75.186593 
L 176.163437 79.783847 
L 176.924947 79.783847 
L 176.924947 84.438566 
L 177.686458 84.438566 
L 177.686458 88.978354 
L 178.447968 88.978354 
L 178.447968 93.403211 
L 179.209478 93.403211 
L 179.209478 97.65567 
L 179.970988 97.65567 
L 179.970988 101.793199 
L 180.732499 101.793199 
L 180.732499 105.700864 
L 181.494009 105.700864 
L 181.494009 109.493598 
L 182.255519 109.493598 
L 182.255519 113.113936 
L 183.017029 113.113936 
L 183.017029 116.561876 
L 183.77854 116.561876 
L 183.77854 119.894885 
L 184.54005 119.894885 
L 184.54005 123.055497 
L 185.30156 123.055497 
L 185.30156 126.158643 
L 186.06307 126.158643 
L 186.06307 129.089392 
L 186.824581 129.089392 
L 186.824581 131.847744 
L 187.586091 131.847744 
L 187.586091 134.491165 
L 188.347601 134.491165 
L 188.347601 136.904723 
L 189.109111 136.904723 
L 189.109111 139.20335 
L 189.870622 139.20335 
L 189.870622 141.272114 
L 190.632132 141.272114 
L 190.632132 143.168481 
L 191.393642 143.168481 
L 191.393642 144.949917 
L 192.155153 144.949917 
L 192.155153 146.558956 
L 192.916663 146.558956 
L 192.916663 148.110529 
L 193.678173 148.110529 
L 193.678173 149.547171 
L 194.439683 149.547171 
L 194.439683 150.868881 
L 195.201194 150.868881 
L 195.201194 152.190591 
L 195.962704 152.190591 
L 195.962704 153.39737 
L 196.724214 153.39737 
L 196.724214 154.489218 
L 197.485724 154.489218 
L 197.485724 155.581066 
L 198.247235 155.581066 
L 198.247235 156.500517 
L 199.008745 156.500517 
L 199.008745 157.362502 
L 199.770255 157.362502 
L 199.770255 158.167021 
L 200.531765 158.167021 
L 200.531765 158.856609 
L 201.293276 158.856609 
L 201.293276 159.431266 
L 202.054786 159.431266 
L 202.054786 159.948457 
L 202.816296 159.948457 
L 202.816296 160.408182 
L 203.577806 160.408182 
L 203.577806 160.810442 
L 204.339317 160.810442 
L 204.339317 161.155236 
L 205.100827 161.155236 
L 205.100827 161.442564 
L 205.862337 161.442564 
L 205.862337 161.787358 
L 206.623848 161.787358 
L 206.623848 162.017221 
L 207.385358 162.017221 
L 207.385358 162.247084 
L 208.146868 162.247084 
L 208.146868 162.419481 
L 208.908378 162.419481 
L 208.908378 162.591878 
L 209.669889 162.591878 
L 209.669889 162.706809 
L 210.431399 162.706809 
L 210.431399 162.82174 
L 211.954419 162.879206 
L 211.954419 162.936672 
L 213.47744 162.994137 
L 213.47744 163.051603 
L 221.854053 163.109069 
L 221.854053 163.109069 
" clip-path="url(#p1b5fd71a13)" style="fill: none; stroke: #008000; stroke-width: 1.5; stroke-linecap: square"/>
   </g>
   <g id="patch_3">
    <path d="M 69.552 163.224 
L 69.552 30.984 
" style="fill: none; stroke: #000000; stroke-width: 0.8; stroke-linejoin: miter; stroke-linecap: square"/>
   </g>
   <g id="patch_4">
    <path d="M 221.854053 163.224 
L 221.854053 30.984 
" style="fill: none; stroke: #000000; stroke-width: 0.8; stroke-linejoin: miter; stroke-linecap: square"/>
   </g>
   <g id="patch_5">
    <path d="M 69.552 163.224 
L 221.854053 163.224 
" style="fill: none; stroke: #000000; stroke-width: 0.8; stroke-linejoin: miter; stroke-linecap: square"/>
   </g>
   <g id="patch_6">
    <path d="M 69.552 30.984 
L 221.854053 30.984 
" style="fill: none; stroke: #000000; stroke-width: 0.8; stroke-linejoin: miter; stroke-linecap: square"/>
   </g>
   <g id="text_1">
    <!-- $\Omega_{2,0}$ = ${0.3489}_{-0.0197}^{+0.0189}$ -->
    <g transform="translate(75.003026 24.984) scale(0.14 -0.14)">
     <defs>
      <path id="DejaVuSans-3a9" d="M 4647 556 
L 4647 0 
L 2772 0 
L 2772 556 
Q 3325 859 3634 1378 
Q 3944 1897 3944 2528 
Q 3944 3278 3531 3731 
Q 3119 4184 2444 4184 
Q 1769 4184 1355 3729 
Q 941 3275 941 2528 
Q 941 1897 1250 1378 
Q 1563 859 2119 556 
L 2119 0 
L 244 0 
L 244 556 
L 1241 556 
Q 747 991 519 1456 
Q 294 1922 294 2497 
Q 294 3491 894 4106 
Q 1491 4722 2444 4722 
Q 3391 4722 3994 4106 
Q 4594 3494 4594 2528 
Q 4594 1922 4372 1459 
Q 4150 997 3647 556 
L 4647 556 
z
" transform="scale(0.015625)"/>
      <path id="DejaVuSans-32" d="M 1228 531 
L 3431 531 
L 3431 0 
L 469 0 
L 469 531 
Q 828 903 1448 1529 
Q 2069 2156 2228 2338 
Q 2531 2678 2651 2914 
Q 2772 3150 2772 3378 
Q 2772 3750 2511 3984 
Q 2250 4219 1831 4219 
Q 1534 4219 1204 4116 
Q 875 4013 500 3803 
L 500 4441 
Q 881 4594 1212 4672 
Q 1544 4750 1819 4750 
Q 2544 4750 2975 4387 
Q 3406 4025 3406 3419 
Q 3406 3131 3298 2873 
Q 3191 2616 2906 2266 
Q 2828 2175 2409 1742 
Q 1991 1309 1228 531 
z
" transform="scale(0.015625)"/>
      <path id="DejaVuSans-2c" d="M 750 794 
L 1409 794 
L 1409 256 
L 897 -744 
L 494 -744 
L 750 256 
L 750 794 
z
" transform="scale(0.015625)"/>
      <path id="DejaVuSans-30" d="M 2034 4250 
Q 1547 4250 1301 3770 
Q 1056 3291 1056 2328 
Q 1056 1369 1301 889 
Q 1547 409 2034 409 
Q 2525 409 2770 889 
Q 3016 1369 3016 2328 
Q 3016 3291 2770 3770 
Q 2525 4250 2034 4250 
z
M 2034 4750 
Q 2819 4750 3233 4129 
Q 3647 3509 3647 2328 
Q 3647 1150 3233 529 
Q 2819 -91 2034 -91 
Q 1250 -91 836 529 
Q 422 1150 422 2328 
Q 422 3509 836 4129 
Q 1250 4750 2034 4750 
z
" transform="scale(0.015625)"/>
      <path id="DejaVuSans-20" transform="scale(0.015625)"/>
      <path id="DejaVuSans-3d" d="M 678 2906 
L 4684 2906 
L 4684 2381 
L 678 2381 
L 678 2906 
z
M 678 1631 
L 4684 1631 
L 4684 1100 
L 678 1100 
L 678 1631 
z
" transform="scale(0.015625)"/>
      <path id="DejaVuSans-2e" d="M 684 794 
L 1344 794 
L 1344 0 
L 684 0 
L 684 794 
z
" transform="scale(0.015625)"/>
      <path id="DejaVuSans-33" d="M 2597 2516 
Q 3050 2419 3304 2112 
Q 3559 1806 3559 1356 
Q 3559 666 3084 287 
Q 2609 -91 1734 -91 
Q 1441 -91 1130 -33 
Q 819 25 488 141 
L 488 750 
Q 750 597 1062 519 
Q 1375 441 1716 441 
Q 2309 441 2620 675 
Q 2931 909 2931 1356 
Q 2931 1769 2642 2001 
Q 2353 2234 1838 2234 
L 1294 2234 
L 1294 2753 
L 1863 2753 
Q 2328 2753 2575 2939 
Q 2822 3125 2822 3475 
Q 2822 3834 2567 4026 
Q 2313 4219 1838 4219 
Q 1578 4219 1281 4162 
Q 984 4106 628 3988 
L 628 4550 
Q 988 4650 1302 4700 
Q 1616 4750 1894 4750 
Q 2613 4750 3031 4423 
Q 3450 4097 3450 3541 
Q 3450 3153 3228 2886 
Q 3006 2619 2597 2516 
z
" transform="scale(0.015625)"/>
      <path id="DejaVuSans-34" d="M 2419 4116 
L 825 1625 
L 2419 1625 
L 2419 4116 
z
M 2253 4666 
L 3047 4666 
L 3047 1625 
L 3713 1625 
L 3713 1100 
L 3047 1100 
L 3047 0 
L 2419 0 
L 2419 1100 
L 313 1100 
L 313 1709 
L 2253 4666 
z
" transform="scale(0.015625)"/>
      <path id="DejaVuSans-38" d="M 2034 2216 
Q 1584 2216 1326 1975 
Q 1069 1734 1069 1313 
Q 1069 891 1326 650 
Q 1584 409 2034 409 
Q 2484 409 2743 651 
Q 3003 894 3003 1313 
Q 3003 1734 2745 1975 
Q 2488 2216 2034 2216 
z
M 1403 2484 
Q 997 2584 770 2862 
Q 544 3141 544 3541 
Q 544 4100 942 4425 
Q 1341 4750 2034 4750 
Q 2731 4750 3128 4425 
Q 3525 4100 3525 3541 
Q 3525 3141 3298 2862 
Q 3072 2584 2669 2484 
Q 3125 2378 3379 2068 
Q 3634 1759 3634 1313 
Q 3634 634 3220 271 
Q 2806 -91 2034 -91 
Q 1263 -91 848 271 
Q 434 634 434 1313 
Q 434 1759 690 2068 
Q 947 2378 1403 2484 
z
M 1172 3481 
Q 1172 3119 1398 2916 
Q 1625 2713 2034 2713 
Q 2441 2713 2670 2916 
Q 2900 3119 2900 3481 
Q 2900 3844 2670 4047 
Q 2441 4250 2034 4250 
Q 1625 4250 1398 4047 
Q 1172 3844 1172 3481 
z
" transform="scale(0.015625)"/>
      <path id="DejaVuSans-39" d="M 703 97 
L 703 672 
Q 941 559 1184 500 
Q 1428 441 1663 441 
Q 2288 441 2617 861 
Q 2947 1281 2994 2138 
Q 2813 1869 2534 1725 
Q 2256 1581 1919 1581 
Q 1219 1581 811 2004 
Q 403 2428 403 3163 
Q 403 3881 828 4315 
Q 1253 4750 1959 4750 
Q 2769 4750 3195 4129 
Q 3622 3509 3622 2328 
Q 3622 1225 3098 567 
Q 2575 -91 1691 -91 
Q 1453 -91 1209 -44 
Q 966 3 703 97 
z
M 1959 2075 
Q 2384 2075 2632 2365 
Q 2881 2656 2881 3163 
Q 2881 3666 2632 3958 
Q 2384 4250 1959 4250 
Q 1534 4250 1286 3958 
Q 1038 3666 1038 3163 
Q 1038 2656 1286 2365 
Q 1534 2075 1959 2075 
z
" transform="scale(0.015625)"/>
      <path id="DejaVuSans-2b" d="M 2944 4013 
L 2944 2272 
L 4684 2272 
L 4684 1741 
L 2944 1741 
L 2944 0 
L 2419 0 
L 2419 1741 
L 678 1741 
L 678 2272 
L 2419 2272 
L 2419 4013 
L 2944 4013 
z
" transform="scale(0.015625)"/>
      <path id="DejaVuSans-31" d="M 794 531 
L 1825 531 
L 1825 4091 
L 703 3866 
L 703 4441 
L 1819 4666 
L 2450 4666 
L 2450 531 
L 3481 531 
L 3481 0 
L 794 0 
L 794 531 
z
" transform="scale(0.015625)"/>
      <path id="DejaVuSans-2212" d="M 678 2272 
L 4684 2272 
L 4684 1741 
L 678 1741 
L 678 2272 
z
" transform="scale(0.015625)"/>
      <path id="DejaVuSans-37" d="M 525 4666 
L 3525 4666 
L 3525 4397 
L 1831 0 
L 1172 0 
L 2766 4134 
L 525 4134 
L 525 4666 
z
" transform="scale(0.015625)"/>
     </defs>
     <use xlink:href="#DejaVuSans-3a9" transform="translate(0 0.765625)"/>
     <use xlink:href="#DejaVuSans-32" transform="translate(77.373047 -15.640625) scale(0.7)"/>
     <use xlink:href="#DejaVuSans-2c" transform="translate(121.90918 -15.640625) scale(0.7)"/>
     <use xlink:href="#DejaVuSans-30" transform="translate(157.797852 -15.640625) scale(0.7)"/>
     <use xlink:href="#DejaVuSans-20" transform="translate(205.068359 0.765625)"/>
     <use xlink:href="#DejaVuSans-3d" transform="translate(236.855469 0.765625)"/>
     <use xlink:href="#DejaVuSans-20" transform="translate(320.644531 0.765625)"/>
     <use xlink:href="#DejaVuSans-30" transform="translate(352.431641 0.765625)"/>
     <use xlink:href="#DejaVuSans-2e" transform="translate(416.054688 0.765625)"/>
     <use xlink:href="#DejaVuSans-33" transform="translate(447.841797 0.765625)"/>
     <use xlink:href="#DejaVuSans-34" transform="translate(511.464844 0.765625)"/>
     <use xlink:href="#DejaVuSans-38" transform="translate(575.087891 0.765625)"/>
     <use xlink:href="#DejaVuSans-39" transform="translate(638.710938 0.765625)"/>
     <use xlink:href="#DejaVuSans-2b" transform="translate(703.291016 39.046875) scale(0.7)"/>
     <use xlink:href="#DejaVuSans-30" transform="translate(761.943359 39.046875) scale(0.7)"/>
     <use xlink:href="#DejaVuSans-2e" transform="translate(806.479492 39.046875) scale(0.7)"/>
     <use xlink:href="#DejaVuSans-30" transform="translate(828.730469 39.046875) scale(0.7)"/>
     <use xlink:href="#DejaVuSans-31" transform="translate(873.266602 39.046875) scale(0.7)"/>
     <use xlink:href="#DejaVuSans-38" transform="translate(917.802734 39.046875) scale(0.7)"/>
     <use xlink:href="#DejaVuSans-39" transform="translate(962.338867 39.046875) scale(0.7)"/>
     <use xlink:href="#DejaVuSans-2212" transform="translate(703.291016 -26.578125) scale(0.7)"/>
     <use xlink:href="#DejaVuSans-30" transform="translate(761.943359 -26.578125) scale(0.7)"/>
     <use xlink:href="#DejaVuSans-2e" transform="translate(806.479492 -26.578125) scale(0.7)"/>
     <use xlink:href="#DejaVuSans-30" transform="translate(828.730469 -26.578125) scale(0.7)"/>
     <use xlink:href="#DejaVuSans-31" transform="translate(873.266602 -26.578125) scale(0.7)"/>
     <use xlink:href="#DejaVuSans-39" transform="translate(917.802734 -26.578125) scale(0.7)"/>
     <use xlink:href="#DejaVuSans-37" transform="translate(962.338867 -26.578125) scale(0.7)"/>
    </g>
   </g>
  </g>
  <g id="axes_2">
   <g id="matplotlib.axis_3"/>
   <g id="matplotlib.axis_4"/>
  </g>
  <g id="axes_3">
   <g id="patch_7">
    <path d="M 69.552 326.448 
L 221.854053 326.448 
L 221.854053 194.208 
L 69.552 194.208 
z
" style="fill: #ffffff"/>
   </g>
   <g id="QuadContourSet_1">
    <path d="M 141.133965 328.07884 
L 144.180006 329.139389 
L 147.226047 329.598458 
L 150.272088 329.840013 
L 153.318129 329.953754 
L 156.36417 329.997179 
L 159.410211 330.030188 
L 162.456252 330.083644 
L 165.502293 330.117059 
L 168.548334 330.130805 
L 171.594375 330.11241 
L 174.640416 330.03844 
L 177.686458 329.921653 
L 180.732499 329.799102 
L 183.77854 329.68884 
L 186.824581 329.497928 
L 189.870622 329.161756 
L 192.916663 328.577639 
L 194.970458 327.7704 
L 194.970458 325.1256 
L 195.380573 322.4808 
L 195.451166 319.836 
L 194.940301 317.1912 
L 195.07279 314.5464 
L 195.903893 311.9016 
L 195.962704 311.485414 
L 196.285115 309.2568 
L 196.001242 306.612 
L 195.962704 306.439986 
L 195.521308 303.9672 
L 194.777732 301.3224 
L 193.753379 298.6776 
L 193.067249 296.0328 
L 193.3936 293.388 
L 194.120426 290.7432 
L 194.560059 288.0984 
L 194.495555 285.4536 
L 194.154089 282.8088 
L 193.83692 280.164 
L 194.21809 277.5192 
L 195.293745 274.8744 
L 195.897938 272.2296 
L 195.565141 269.5848 
L 194.985788 266.94 
L 195.532857 264.2952 
L 195.962704 263.080847 
L 196.428515 261.6504 
L 196.821607 259.0056 
L 196.264132 256.3608 
L 195.962704 255.815617 
L 194.667 253.716 
L 193.867732 251.0712 
L 194.381988 248.4264 
L 194.938236 245.7816 
L 195.714024 243.1368 
L 195.962704 242.316043 
L 196.424143 240.492 
L 195.975486 237.8472 
L 195.962704 237.81757 
L 194.872365 235.2024 
L 193.693915 232.5576 
L 192.916663 230.282762 
L 192.828936 229.9128 
L 192.827162 227.268 
L 192.721445 224.6232 
L 191.076739 221.9784 
L 189.870622 220.704398 
L 189.035422 219.3336 
L 187.102397 216.6888 
L 186.824581 216.430757 
L 184.161605 214.044 
L 183.77854 213.742965 
L 180.732499 211.527558 
L 180.553643 211.3992 
L 177.686458 209.657171 
L 175.996954 208.7544 
L 174.640416 208.052409 
L 171.594375 206.704464 
L 169.788279 206.1096 
L 168.548334 205.51925 
L 165.502293 204.587351 
L 162.456252 204.162404 
L 159.410211 203.74619 
L 158.19907 203.4648 
L 156.36417 202.797429 
L 153.318129 201.800444 
L 150.272088 201.39908 
L 147.226047 201.27429 
L 144.180006 200.898274 
L 143.787537 200.82 
L 141.133965 200.000209 
L 138.087924 199.888514 
L 135.041883 200.410962 
L 133.303944 200.82 
L 131.995842 201.116749 
L 128.949801 201.538332 
L 125.90376 201.02724 
L 125.22373 200.82 
L 122.857718 200.192074 
L 119.811677 200.016996 
L 117.125677 200.82 
L 116.979067 203.4648 
L 119.811677 205.839308 
L 120.399453 206.1096 
L 122.857718 206.959426 
L 125.90376 207.407437 
L 128.949801 208.602505 
L 129.074511 208.7544 
L 131.326472 211.3992 
L 131.995842 212.100862 
L 133.64783 214.044 
L 135.041883 215.788861 
L 135.68497 216.6888 
L 136.681878 219.3336 
L 137.814979 221.9784 
L 138.087924 222.592491 
L 138.748404 224.6232 
L 139.511484 227.268 
L 139.96261 229.9128 
L 140.036107 232.5576 
L 140.11139 235.2024 
L 140.551907 237.8472 
L 140.933648 240.492 
L 141.133965 242.980614 
L 141.141713 243.1368 
L 141.167677 245.7816 
L 141.150672 248.4264 
L 141.228316 251.0712 
L 141.207823 253.716 
L 141.133965 254.364107 
L 140.796588 256.3608 
L 140.255431 259.0056 
L 140.128334 261.6504 
L 140.28569 264.2952 
L 140.657866 266.94 
L 141.133965 269.5848 
L 141.133965 269.5848 
L 141.392989 272.2296 
L 141.591829 274.8744 
L 141.459895 277.5192 
L 141.133965 279.372192 
L 140.93916 280.164 
L 140.578008 282.8088 
L 140.841885 285.4536 
L 141.133965 286.514567 
L 141.445144 288.0984 
L 141.406328 290.7432 
L 141.133965 291.910977 
L 140.544977 293.388 
L 140.596926 296.0328 
L 141.133965 298.626976 
L 141.140158 298.6776 
L 141.543475 301.3224 
L 141.826663 303.9672 
L 141.241227 306.612 
L 141.133965 306.915643 
L 140.067087 309.2568 
L 139.925952 311.9016 
L 140.117735 314.5464 
L 139.781888 317.1912 
L 139.758284 319.836 
L 140.209455 322.4808 
L 140.488678 325.1256 
L 140.488678 327.7704 
z
" clip-path="url(#pfb094e8de6)" style="fill: #ffffff"/>
   </g>
   <g id="QuadContourSet_2">
    <path d="M 68.028979 330.4152 
L 71.075021 330.4152 
L 74.121062 330.4152 
L 77.167103 330.4152 
L 80.213144 330.4152 
L 83.259185 330.4152 
L 86.305226 330.4152 
L 89.351267 330.4152 
L 92.397308 330.4152 
L 95.443349 330.4152 
L 98.48939 330.4152 
L 101.535431 330.4152 
L 104.581472 330.4152 
L 107.627513 330.4152 
L 110.673554 330.4152 
L 113.719595 330.4152 
L 116.765636 330.4152 
L 119.811677 330.4152 
L 122.857718 330.4152 
L 125.90376 330.4152 
L 128.949801 330.4152 
L 131.995842 330.4152 
L 135.041883 330.4152 
L 138.087924 330.4152 
L 141.133965 330.4152 
L 144.180006 330.4152 
L 147.226047 330.4152 
L 150.272088 330.4152 
L 153.318129 330.4152 
L 156.36417 330.4152 
L 159.410211 330.4152 
L 162.456252 330.4152 
L 165.502293 330.4152 
L 168.548334 330.4152 
L 171.594375 330.4152 
L 174.640416 330.4152 
L 177.686458 330.4152 
L 180.732499 330.4152 
L 183.77854 330.4152 
L 186.824581 330.4152 
L 189.870622 330.4152 
L 192.916663 330.4152 
L 195.962704 330.4152 
L 199.008745 330.4152 
L 202.054786 330.4152 
L 205.100827 330.4152 
L 208.146868 330.4152 
L 211.192909 330.4152 
L 214.23895 330.4152 
L 217.284991 330.4152 
L 220.331032 330.4152 
L 223.377073 330.4152 
L 226.423114 330.4152 
L 226.423114 327.7704 
L 226.423114 325.1256 
L 226.423114 322.4808 
L 226.423114 319.836 
L 226.423114 317.1912 
L 226.423114 314.5464 
L 226.423114 311.9016 
L 226.423114 309.2568 
L 226.423114 306.612 
L 226.423114 303.9672 
L 226.423114 301.3224 
L 226.423114 298.6776 
L 226.423114 296.0328 
L 226.423114 293.388 
L 226.423114 290.7432 
L 226.423114 288.0984 
L 226.423114 285.4536 
L 226.423114 282.8088 
L 226.423114 280.164 
L 226.423114 277.5192 
L 226.423114 274.8744 
L 226.423114 272.2296 
L 226.423114 269.5848 
L 226.423114 266.94 
L 226.423114 264.2952 
L 226.423114 261.6504 
L 226.423114 259.0056 
L 226.423114 256.3608 
L 226.423114 253.716 
L 226.423114 251.0712 
L 226.423114 248.4264 
L 226.423114 245.7816 
L 226.423114 243.1368 
L 226.423114 240.492 
L 226.423114 237.8472 
L 226.423114 235.2024 
L 226.423114 232.5576 
L 226.423114 229.9128 
L 226.423114 227.268 
L 226.423114 224.6232 
L 226.423114 221.9784 
L 226.423114 219.3336 
L 226.423114 216.6888 
L 226.423114 214.044 
L 226.423114 211.3992 
L 226.423114 208.7544 
L 226.423114 206.1096 
L 226.423114 203.4648 
L 226.423114 200.82 
L 226.423114 198.1752 
L 226.423114 195.5304 
L 226.423114 192.8856 
L 226.423114 190.2408 
L 223.377073 190.2408 
L 220.331032 190.2408 
L 217.284991 190.2408 
L 214.23895 190.2408 
L 211.192909 190.2408 
L 208.146868 190.2408 
L 205.100827 190.2408 
L 202.054786 190.2408 
L 199.008745 190.2408 
L 195.962704 190.2408 
L 192.916663 190.2408 
L 189.870622 190.2408 
L 186.824581 190.2408 
L 183.77854 190.2408 
L 180.732499 190.2408 
L 177.686458 190.2408 
L 174.640416 190.2408 
L 171.594375 190.2408 
L 168.548334 190.2408 
L 165.502293 190.2408 
L 162.456252 190.2408 
L 159.410211 190.2408 
L 156.36417 190.2408 
L 153.318129 190.2408 
L 150.272088 190.2408 
L 147.226047 190.2408 
L 144.180006 190.2408 
L 141.133965 190.2408 
L 138.087924 190.2408 
L 135.041883 190.2408 
L 131.995842 190.2408 
L 128.949801 190.2408 
L 125.90376 190.2408 
L 122.857718 190.2408 
L 119.811677 190.2408 
L 116.765636 190.2408 
L 113.719595 190.2408 
L 110.673554 190.2408 
L 107.627513 190.2408 
L 104.581472 190.2408 
L 101.535431 190.2408 
L 98.48939 190.2408 
L 95.443349 190.2408 
L 92.397308 190.2408 
L 89.351267 190.2408 
L 86.305226 190.2408 
L 83.259185 190.2408 
L 80.213144 190.2408 
L 77.167103 190.2408 
L 74.121062 190.2408 
L 71.075021 190.2408 
L 68.028979 190.2408 
L 64.982938 190.2408 
L 64.982938 192.8856 
L 64.982938 195.5304 
L 64.982938 198.1752 
L 64.982938 200.82 
L 64.982938 203.4648 
L 64.982938 206.1096 
L 64.982938 208.7544 
L 64.982938 211.3992 
L 64.982938 214.044 
L 64.982938 216.6888 
L 64.982938 219.3336 
L 64.982938 221.9784 
L 64.982938 224.6232 
L 64.982938 227.268 
L 64.982938 229.9128 
L 64.982938 232.5576 
L 64.982938 235.2024 
L 64.982938 237.8472 
L 64.982938 240.492 
L 64.982938 243.1368 
L 64.982938 245.7816 
L 64.982938 248.4264 
L 64.982938 251.0712 
L 64.982938 253.716 
L 64.982938 256.3608 
L 64.982938 259.0056 
L 64.982938 261.6504 
L 64.982938 264.2952 
L 64.982938 266.94 
L 64.982938 269.5848 
L 64.982938 272.2296 
L 64.982938 274.8744 
L 64.982938 277.5192 
L 64.982938 280.164 
L 64.982938 282.8088 
L 64.982938 285.4536 
L 64.982938 288.0984 
L 64.982938 290.7432 
L 64.982938 293.388 
L 64.982938 296.0328 
L 64.982938 298.6776 
L 64.982938 301.3224 
L 64.982938 303.9672 
L 64.982938 306.612 
L 64.982938 309.2568 
L 64.982938 311.9016 
L 64.982938 314.5464 
L 64.982938 317.1912 
L 64.982938 319.836 
L 64.982938 322.4808 
L 64.982938 325.1256 
L 64.982938 327.7704 
L 64.982938 330.4152 
L 68.028979 330.4152 
z
M 140.488678 327.7704 
L 140.488678 325.1256 
L 140.209455 322.4808 
L 139.758284 319.836 
L 139.781888 317.1912 
L 140.117735 314.5464 
L 139.925952 311.9016 
L 140.067087 309.2568 
L 141.133965 306.915643 
L 141.241227 306.612 
L 141.826663 303.9672 
L 141.543475 301.3224 
L 141.140158 298.6776 
L 141.133965 298.626976 
L 140.596926 296.0328 
L 140.544977 293.388 
L 141.133965 291.910977 
L 141.406328 290.7432 
L 141.445144 288.0984 
L 141.133965 286.514567 
L 140.841885 285.4536 
L 140.578008 282.8088 
L 140.93916 280.164 
L 141.133965 279.372192 
L 141.459895 277.5192 
L 141.591829 274.8744 
L 141.392989 272.2296 
L 141.133965 269.5848 
L 141.133965 269.5848 
L 140.657866 266.94 
L 140.28569 264.2952 
L 140.128334 261.6504 
L 140.255431 259.0056 
L 140.796588 256.3608 
L 141.133965 254.364107 
L 141.207823 253.716 
L 141.228316 251.0712 
L 141.150672 248.4264 
L 141.167677 245.7816 
L 141.141713 243.1368 
L 141.133965 242.980614 
L 140.933648 240.492 
L 140.551907 237.8472 
L 140.11139 235.2024 
L 140.036107 232.5576 
L 139.96261 229.9128 
L 139.511484 227.268 
L 138.748404 224.6232 
L 138.087924 222.592491 
L 137.814979 221.9784 
L 136.681878 219.3336 
L 135.68497 216.6888 
L 135.041883 215.788861 
L 133.64783 214.044 
L 131.995842 212.100862 
L 131.326472 211.3992 
L 129.074511 208.7544 
L 128.949801 208.602505 
L 125.90376 207.407437 
L 122.857718 206.959426 
L 120.399453 206.1096 
L 119.811677 205.839308 
L 116.979067 203.4648 
L 117.125677 200.82 
L 119.811677 200.016996 
L 122.857718 200.192074 
L 125.22373 200.82 
L 125.90376 201.02724 
L 128.949801 201.538332 
L 131.995842 201.116749 
L 133.303944 200.82 
L 135.041883 200.410962 
L 138.087924 199.888514 
L 141.133965 200.000209 
L 143.787537 200.82 
L 144.180006 200.898274 
L 147.226047 201.27429 
L 150.272088 201.39908 
L 153.318129 201.800444 
L 156.36417 202.797429 
L 158.19907 203.4648 
L 159.410211 203.74619 
L 162.456252 204.162404 
L 165.502293 204.587351 
L 168.548334 205.51925 
L 169.788279 206.1096 
L 171.594375 206.704464 
L 174.640416 208.052409 
L 175.996954 208.7544 
L 177.686458 209.657171 
L 180.553643 211.3992 
L 180.732499 211.527558 
L 183.77854 213.742965 
L 184.161605 214.044 
L 186.824581 216.430757 
L 187.102397 216.6888 
L 189.035422 219.3336 
L 189.870622 220.704398 
L 191.076739 221.9784 
L 192.721445 224.6232 
L 192.827162 227.268 
L 192.828936 229.9128 
L 192.916663 230.282762 
L 193.693915 232.5576 
L 194.872365 235.2024 
L 195.962704 237.81757 
L 195.975486 237.8472 
L 196.424143 240.492 
L 195.962704 242.316043 
L 195.714024 243.1368 
L 194.938236 245.7816 
L 194.381988 248.4264 
L 193.867732 251.0712 
L 194.667 253.716 
L 195.962704 255.815617 
L 196.264132 256.3608 
L 196.821607 259.0056 
L 196.428515 261.6504 
L 195.962704 263.080847 
L 195.532857 264.2952 
L 194.985788 266.94 
L 195.565141 269.5848 
L 195.897938 272.2296 
L 195.293745 274.8744 
L 194.21809 277.5192 
L 193.83692 280.164 
L 194.154089 282.8088 
L 194.495555 285.4536 
L 194.560059 288.0984 
L 194.120426 290.7432 
L 193.3936 293.388 
L 193.067249 296.0328 
L 193.753379 298.6776 
L 194.777732 301.3224 
L 195.521308 303.9672 
L 195.962704 306.439986 
L 196.001242 306.612 
L 196.285115 309.2568 
L 195.962704 311.485414 
L 195.903893 311.9016 
L 195.07279 314.5464 
L 194.940301 317.1912 
L 195.451166 319.836 
L 195.380573 322.4808 
L 194.970458 325.1256 
L 194.970458 327.7704 
L 192.916663 328.577639 
L 189.870622 329.161756 
L 186.824581 329.497928 
L 183.77854 329.68884 
L 180.732499 329.799102 
L 177.686458 329.921653 
L 174.640416 330.03844 
L 171.594375 330.11241 
L 168.548334 330.130805 
L 165.502293 330.117059 
L 162.456252 330.083644 
L 159.410211 330.030188 
L 156.36417 329.997179 
L 153.318129 329.953754 
L 150.272088 329.840013 
L 147.226047 329.598458 
L 144.180006 329.139389 
L 141.133965 328.07884 
L 140.488678 327.7704 
z
" clip-path="url(#pfb094e8de6)" style="fill: none"/>
    <path d="M 141.133965 328.07884 
L 144.180006 329.139389 
L 147.226047 329.598458 
L 150.272088 329.840013 
L 153.318129 329.953754 
L 156.36417 329.997179 
L 159.410211 330.030188 
L 162.456252 330.083644 
L 165.502293 330.117059 
L 168.548334 330.130805 
L 171.594375 330.11241 
L 174.640416 330.03844 
L 177.686458 329.921653 
L 180.732499 329.799102 
L 183.77854 329.68884 
L 186.824581 329.497928 
L 189.870622 329.161756 
L 192.916663 328.577639 
L 194.970458 327.7704 
L 194.970458 325.1256 
L 195.380573 322.4808 
L 195.451166 319.836 
L 194.940301 317.1912 
L 195.07279 314.5464 
L 195.903893 311.9016 
L 195.962704 311.485414 
L 196.285115 309.2568 
L 196.001242 306.612 
L 195.962704 306.439986 
L 195.521308 303.9672 
L 194.777732 301.3224 
L 193.753379 298.6776 
L 193.067249 296.0328 
L 193.3936 293.388 
L 194.120426 290.7432 
L 194.560059 288.0984 
L 194.495555 285.4536 
L 194.154089 282.8088 
L 193.83692 280.164 
L 194.21809 277.5192 
L 195.293745 274.8744 
L 195.897938 272.2296 
L 195.565141 269.5848 
L 194.985788 266.94 
L 195.532857 264.2952 
L 195.962704 263.080847 
L 196.428515 261.6504 
L 196.821607 259.0056 
L 196.264132 256.3608 
L 195.962704 255.815617 
L 194.667 253.716 
L 193.867732 251.0712 
L 194.381988 248.4264 
L 194.938236 245.7816 
L 195.714024 243.1368 
L 195.962704 242.316043 
L 196.424143 240.492 
L 195.975486 237.8472 
L 195.962704 237.81757 
L 194.872365 235.2024 
L 193.693915 232.5576 
L 192.916663 230.282762 
L 192.828936 229.9128 
L 192.827162 227.268 
L 192.721445 224.6232 
L 191.076739 221.9784 
L 189.870622 220.704398 
L 189.035422 219.3336 
L 187.102397 216.6888 
L 186.824581 216.430757 
L 184.161605 214.044 
L 183.77854 213.742965 
L 180.732499 211.527558 
L 180.553643 211.3992 
L 177.686458 209.657171 
L 175.996954 208.7544 
L 174.640416 208.052409 
L 171.594375 206.704464 
L 169.788279 206.1096 
L 168.548334 205.51925 
L 165.502293 204.587351 
L 162.456252 204.162404 
L 159.410211 203.74619 
L 158.19907 203.4648 
L 156.36417 202.797429 
L 153.318129 201.800444 
L 150.272088 201.39908 
L 147.226047 201.27429 
L 144.180006 200.898274 
L 143.787537 200.82 
L 141.133965 200.000209 
L 138.087924 199.888514 
L 135.041883 200.410962 
L 133.303944 200.82 
L 131.995842 201.116749 
L 128.949801 201.538332 
L 125.90376 201.02724 
L 125.22373 200.82 
L 122.857718 200.192074 
L 119.811677 200.016996 
L 117.125677 200.82 
L 116.979067 203.4648 
L 119.811677 205.839308 
L 120.399453 206.1096 
L 122.857718 206.959426 
L 125.90376 207.407437 
L 128.949801 208.602505 
L 129.074511 208.7544 
L 131.326472 211.3992 
L 131.995842 212.100862 
L 133.64783 214.044 
L 135.041883 215.788861 
L 135.68497 216.6888 
L 136.681878 219.3336 
L 137.814979 221.9784 
L 138.087924 222.592491 
L 138.748404 224.6232 
L 139.511484 227.268 
L 139.96261 229.9128 
L 140.036107 232.5576 
L 140.11139 235.2024 
L 140.551907 237.8472 
L 140.933648 240.492 
L 141.133965 242.980614 
L 141.141713 243.1368 
L 141.167677 245.7816 
L 141.150672 248.4264 
L 141.228316 251.0712 
L 141.207823 253.716 
L 141.133965 254.364107 
L 140.796588 256.3608 
L 140.255431 259.0056 
L 140.128334 261.6504 
L 140.28569 264.2952 
L 140.657866 266.94 
L 141.133965 269.5848 
L 141.133965 269.5848 
L 141.392989 272.2296 
L 141.591829 274.8744 
L 141.459895 277.5192 
L 141.133965 279.372192 
L 140.93916 280.164 
L 140.578008 282.8088 
L 140.841885 285.4536 
L 141.133965 286.514567 
L 141.445144 288.0984 
L 141.406328 290.7432 
L 141.133965 291.910977 
L 140.544977 293.388 
L 140.596926 296.0328 
L 141.133965 298.626976 
L 141.140158 298.6776 
L 141.543475 301.3224 
L 141.826663 303.9672 
L 141.241227 306.612 
L 141.133965 306.915643 
L 140.067087 309.2568 
L 139.925952 311.9016 
L 140.117735 314.5464 
L 139.781888 317.1912 
L 139.758284 319.836 
L 140.209455 322.4808 
L 140.488678 325.1256 
L 140.488678 327.7704 
z
M 151.162699 327.7704 
L 151.162699 325.1256 
L 151.350366 322.4808 
L 151.716463 319.836 
L 152.283697 317.1912 
L 152.65721 314.5464 
L 152.672304 311.9016 
L 152.460252 309.2568 
L 152.321993 306.612 
L 152.21883 303.9672 
L 151.935879 301.3224 
L 151.846563 298.6776 
L 152.137937 296.0328 
L 152.405065 293.388 
L 152.32765 290.7432 
L 152.208385 288.0984 
L 152.289255 285.4536 
L 152.705054 282.8088 
L 153.318129 280.28648 
L 153.345865 280.164 
L 153.663353 277.5192 
L 153.638982 274.8744 
L 153.43315 272.2296 
L 153.318129 270.838942 
L 153.223096 269.5848 
L 153.140318 266.94 
L 153.318129 265.11074 
L 153.403065 264.2952 
L 153.686567 261.6504 
L 153.318129 260.286762 
L 152.914864 259.0056 
L 152.46733 256.3608 
L 153.069601 253.716 
L 153.318129 251.280251 
L 153.339944 251.0712 
L 153.318129 250.940234 
L 152.959929 248.4264 
L 152.872722 245.7816 
L 153.184465 243.1368 
L 153.318129 241.315931 
L 153.386183 240.492 
L 153.318129 239.787605 
L 153.143351 237.8472 
L 152.685205 235.2024 
L 152.437586 232.5576 
L 152.766432 229.9128 
L 153.152141 227.268 
L 152.670091 224.6232 
L 151.462431 221.9784 
L 150.760306 219.3336 
L 150.272088 218.054882 
L 149.658463 216.6888 
L 148.060997 214.044 
L 147.251981 211.3992 
L 148.162863 208.7544 
L 150.272088 208.273297 
L 152.274149 208.7544 
L 153.318129 209.060829 
L 156.36417 209.926359 
L 159.410211 209.842555 
L 162.456252 209.934334 
L 165.502293 210.640463 
L 167.395335 211.3992 
L 168.548334 212.055126 
L 171.571611 214.044 
L 171.594375 214.060087 
L 174.640416 216.400145 
L 174.974966 216.6888 
L 177.242245 219.3336 
L 177.686458 220.890452 
L 178.008696 221.9784 
L 177.757128 224.6232 
L 178.212183 227.268 
L 179.572809 229.9128 
L 180.732499 232.370882 
L 180.808233 232.5576 
L 181.109567 235.2024 
L 180.732499 236.424628 
L 180.266601 237.8472 
L 179.605934 240.492 
L 179.754714 243.1368 
L 179.942672 245.7816 
L 180.002233 248.4264 
L 180.131346 251.0712 
L 180.334842 253.716 
L 180.494808 256.3608 
L 180.291747 259.0056 
L 180.226739 261.6504 
L 180.588927 264.2952 
L 180.545353 266.94 
L 180.105645 269.5848 
L 179.920262 272.2296 
L 179.932537 274.8744 
L 180.025139 277.5192 
L 180.627482 280.164 
L 180.732499 280.753219 
L 181.158445 282.8088 
L 181.026911 285.4536 
L 181.006196 288.0984 
L 181.053034 290.7432 
L 180.732499 293.265988 
L 180.718005 293.388 
L 180.468311 296.0328 
L 180.485094 298.6776 
L 180.732499 301.199196 
L 180.748178 301.3224 
L 181.08292 303.9672 
L 180.732499 306.612 
L 180.732499 306.612 
L 180.226235 309.2568 
L 180.145294 311.9016 
L 180.503463 314.5464 
L 180.724923 317.1912 
L 180.486718 319.836 
L 179.905506 322.4808 
L 178.912996 325.1256 
L 178.912996 327.7704 
L 177.686458 327.982238 
L 174.640416 328.557944 
L 171.594375 328.922584 
L 168.548334 329.013263 
L 165.502293 328.945502 
L 162.456252 328.780778 
L 159.410211 328.517265 
L 156.36417 328.354548 
L 153.318129 328.140482 
z
" clip-path="url(#pfb094e8de6)" style="fill: #008000; fill-opacity: 0.333333"/>
    <path d="M 153.318129 328.140482 
L 156.36417 328.354548 
L 159.410211 328.517265 
L 162.456252 328.780778 
L 165.502293 328.945502 
L 168.548334 329.013263 
L 171.594375 328.922584 
L 174.640416 328.557944 
L 177.686458 327.982238 
L 178.912996 327.7704 
L 178.912996 325.1256 
L 179.905506 322.4808 
L 180.486718 319.836 
L 180.724923 317.1912 
L 180.503463 314.5464 
L 180.145294 311.9016 
L 180.226235 309.2568 
L 180.732499 306.612 
L 180.732499 306.612 
L 181.08292 303.9672 
L 180.748178 301.3224 
L 180.732499 301.199196 
L 180.485094 298.6776 
L 180.468311 296.0328 
L 180.718005 293.388 
L 180.732499 293.265988 
L 181.053034 290.7432 
L 181.006196 288.0984 
L 181.026911 285.4536 
L 181.158445 282.8088 
L 180.732499 280.753219 
L 180.627482 280.164 
L 180.025139 277.5192 
L 179.932537 274.8744 
L 179.920262 272.2296 
L 180.105645 269.5848 
L 180.545353 266.94 
L 180.588927 264.2952 
L 180.226739 261.6504 
L 180.291747 259.0056 
L 180.494808 256.3608 
L 180.334842 253.716 
L 180.131346 251.0712 
L 180.002233 248.4264 
L 179.942672 245.7816 
L 179.754714 243.1368 
L 179.605934 240.492 
L 180.266601 237.8472 
L 180.732499 236.424628 
L 181.109567 235.2024 
L 180.808233 232.5576 
L 180.732499 232.370882 
L 179.572809 229.9128 
L 178.212183 227.268 
L 177.757128 224.6232 
L 178.008696 221.9784 
L 177.686458 220.890452 
L 177.242245 219.3336 
L 174.974966 216.6888 
L 174.640416 216.400145 
L 171.594375 214.060087 
L 171.571611 214.044 
L 168.548334 212.055126 
L 167.395335 211.3992 
L 165.502293 210.640463 
L 162.456252 209.934334 
L 159.410211 209.842555 
L 156.36417 209.926359 
L 153.318129 209.060829 
L 152.274149 208.7544 
L 150.272088 208.273297 
L 148.162863 208.7544 
L 147.251981 211.3992 
L 148.060997 214.044 
L 149.658463 216.6888 
L 150.272088 218.054882 
L 150.760306 219.3336 
L 151.462431 221.9784 
L 152.670091 224.6232 
L 153.152141 227.268 
L 152.766432 229.9128 
L 152.437586 232.5576 
L 152.685205 235.2024 
L 153.143351 237.8472 
L 153.318129 239.787605 
L 153.386183 240.492 
L 153.318129 241.315931 
L 153.184465 243.1368 
L 152.872722 245.7816 
L 152.959929 248.4264 
L 153.318129 250.940234 
L 153.339944 251.0712 
L 153.318129 251.280251 
L 153.069601 253.716 
L 152.46733 256.3608 
L 152.914864 259.0056 
L 153.318129 260.286762 
L 153.686567 261.6504 
L 153.403065 264.2952 
L 153.318129 265.11074 
L 153.140318 266.94 
L 153.223096 269.5848 
L 153.318129 270.838942 
L 153.43315 272.2296 
L 153.638982 274.8744 
L 153.663353 277.5192 
L 153.345865 280.164 
L 153.318129 280.28648 
L 152.705054 282.8088 
L 152.289255 285.4536 
L 152.208385 288.0984 
L 152.32765 290.7432 
L 152.405065 293.388 
L 152.137937 296.0328 
L 151.846563 298.6776 
L 151.935879 301.3224 
L 152.21883 303.9672 
L 152.321993 306.612 
L 152.460252 309.2568 
L 152.672304 311.9016 
L 152.65721 314.5464 
L 152.283697 317.1912 
L 151.716463 319.836 
L 151.350366 322.4808 
L 151.162699 325.1256 
L 151.162699 327.7704 
z
" clip-path="url(#pfb094e8de6)" style="fill: #008000"/>
   </g>
   <g id="matplotlib.axis_5">
    <g id="xtick_5">
     <g id="line2d_6">
      <g>
       <use xlink:href="#m7d74a12e89" x="99.850963" y="326.448" style="stroke: #000000; stroke-width: 0.8"/>
      </g>
     </g>
     <g id="text_2">
      <!-- 0.25 -->
      <g transform="translate(93.930049 354.565081) rotate(-45) scale(0.1 -0.1)">
       <defs>
        <path id="DejaVuSans-35" d="M 691 4666 
L 3169 4666 
L 3169 4134 
L 1269 4134 
L 1269 2991 
Q 1406 3038 1543 3061 
Q 1681 3084 1819 3084 
Q 2600 3084 3056 2656 
Q 3513 2228 3513 1497 
Q 3513 744 3044 326 
Q 2575 -91 1722 -91 
Q 1428 -91 1123 -41 
Q 819 9 494 109 
L 494 744 
Q 775 591 1075 516 
Q 1375 441 1709 441 
Q 2250 441 2565 725 
Q 2881 1009 2881 1497 
Q 2881 1984 2565 2268 
Q 2250 2553 1709 2553 
Q 1456 2553 1204 2497 
Q 953 2441 691 2322 
L 691 4666 
z
" transform="scale(0.015625)"/>
       </defs>
       <use xlink:href="#DejaVuSans-30"/>
       <use xlink:href="#DejaVuSans-2e" x="63.623047"/>
       <use xlink:href="#DejaVuSans-32" x="95.410156"/>
       <use xlink:href="#DejaVuSans-35" x="159.033203"/>
      </g>
     </g>
    </g>
    <g id="xtick_6">
     <g id="line2d_7">
      <g>
       <use xlink:href="#m7d74a12e89" x="133.24238" y="326.448" style="stroke: #000000; stroke-width: 0.8"/>
      </g>
     </g>
     <g id="text_3">
      <!-- 0.30 -->
      <g transform="translate(127.321466 354.565081) rotate(-45) scale(0.1 -0.1)">
       <use xlink:href="#DejaVuSans-30"/>
       <use xlink:href="#DejaVuSans-2e" x="63.623047"/>
       <use xlink:href="#DejaVuSans-33" x="95.410156"/>
       <use xlink:href="#DejaVuSans-30" x="159.033203"/>
      </g>
     </g>
    </g>
    <g id="xtick_7">
     <g id="line2d_8">
      <g>
       <use xlink:href="#m7d74a12e89" x="166.633797" y="326.448" style="stroke: #000000; stroke-width: 0.8"/>
      </g>
     </g>
     <g id="text_4">
      <!-- 0.35 -->
      <g transform="translate(160.712883 354.565081) rotate(-45) scale(0.1 -0.1)">
       <use xlink:href="#DejaVuSans-30"/>
       <use xlink:href="#DejaVuSans-2e" x="63.623047"/>
       <use xlink:href="#DejaVuSans-33" x="95.410156"/>
       <use xlink:href="#DejaVuSans-35" x="159.033203"/>
      </g>
     </g>
    </g>
    <g id="xtick_8">
     <g id="line2d_9">
      <g>
       <use xlink:href="#m7d74a12e89" x="200.025214" y="326.448" style="stroke: #000000; stroke-width: 0.8"/>
      </g>
     </g>
     <g id="text_5">
      <!-- 0.40 -->
      <g transform="translate(194.1043 354.565081) rotate(-45) scale(0.1 -0.1)">
       <use xlink:href="#DejaVuSans-30"/>
       <use xlink:href="#DejaVuSans-2e" x="63.623047"/>
       <use xlink:href="#DejaVuSans-34" x="95.410156"/>
       <use xlink:href="#DejaVuSans-30" x="159.033203"/>
      </g>
     </g>
    </g>
    <g id="text_6">
     <!-- $\Omega_{2,0}$ -->
     <g transform="translate(135.403026 373.52) scale(0.1 -0.1)">
      <use xlink:href="#DejaVuSans-3a9" transform="translate(0 0.21875)"/>
      <use xlink:href="#DejaVuSans-32" transform="translate(77.373047 -16.1875) scale(0.7)"/>
      <use xlink:href="#DejaVuSans-2c" transform="translate(121.90918 -16.1875) scale(0.7)"/>
      <use xlink:href="#DejaVuSans-30" transform="translate(157.797852 -16.1875) scale(0.7)"/>
     </g>
    </g>
   </g>
   <g id="matplotlib.axis_6">
    <g id="ytick_1">
     <g id="line2d_10">
      <defs>
       <path id="m7e64e12bc8" d="M 0 0 
L -3.5 0 
" style="stroke: #000000; stroke-width: 0.8"/>
      </defs>
      <g>
       <use xlink:href="#m7e64e12bc8" x="69.552" y="295.350968" style="stroke: #000000; stroke-width: 0.8"/>
      </g>
     </g>
     <g id="text_7">
      <!-- −8 -->
      <g transform="translate(50.657138 307.348957) rotate(-45) scale(0.1 -0.1)">
       <use xlink:href="#DejaVuSans-2212"/>
       <use xlink:href="#DejaVuSans-38" x="83.789062"/>
      </g>
     </g>
    </g>
    <g id="ytick_2">
     <g id="line2d_11">
      <g>
       <use xlink:href="#m7e64e12bc8" x="69.552" y="264.250336" style="stroke: #000000; stroke-width: 0.8"/>
      </g>
     </g>
     <g id="text_8">
      <!-- −6 -->
      <g transform="translate(50.657138 276.248325) rotate(-45) scale(0.1 -0.1)">
       <defs>
        <path id="DejaVuSans-36" d="M 2113 2584 
Q 1688 2584 1439 2293 
Q 1191 2003 1191 1497 
Q 1191 994 1439 701 
Q 1688 409 2113 409 
Q 2538 409 2786 701 
Q 3034 994 3034 1497 
Q 3034 2003 2786 2293 
Q 2538 2584 2113 2584 
z
M 3366 4563 
L 3366 3988 
Q 3128 4100 2886 4159 
Q 2644 4219 2406 4219 
Q 1781 4219 1451 3797 
Q 1122 3375 1075 2522 
Q 1259 2794 1537 2939 
Q 1816 3084 2150 3084 
Q 2853 3084 3261 2657 
Q 3669 2231 3669 1497 
Q 3669 778 3244 343 
Q 2819 -91 2113 -91 
Q 1303 -91 875 529 
Q 447 1150 447 2328 
Q 447 3434 972 4092 
Q 1497 4750 2381 4750 
Q 2619 4750 2861 4703 
Q 3103 4656 3366 4563 
z
" transform="scale(0.015625)"/>
       </defs>
       <use xlink:href="#DejaVuSans-2212"/>
       <use xlink:href="#DejaVuSans-36" x="83.789062"/>
      </g>
     </g>
    </g>
    <g id="ytick_3">
     <g id="line2d_12">
      <g>
       <use xlink:href="#m7e64e12bc8" x="69.552" y="233.149704" style="stroke: #000000; stroke-width: 0.8"/>
      </g>
     </g>
     <g id="text_9">
      <!-- −4 -->
      <g transform="translate(50.657138 245.147692) rotate(-45) scale(0.1 -0.1)">
       <use xlink:href="#DejaVuSans-2212"/>
       <use xlink:href="#DejaVuSans-34" x="83.789062"/>
      </g>
     </g>
    </g>
    <g id="ytick_4">
     <g id="line2d_13">
      <g>
       <use xlink:href="#m7e64e12bc8" x="69.552" y="202.049071" style="stroke: #000000; stroke-width: 0.8"/>
      </g>
     </g>
     <g id="text_10">
      <!-- −2 -->
      <g transform="translate(50.657138 214.04706) rotate(-45) scale(0.1 -0.1)">
       <use xlink:href="#DejaVuSans-2212"/>
       <use xlink:href="#DejaVuSans-32" x="83.789062"/>
      </g>
     </g>
    </g>
    <g id="text_11">
     <!-- $\log_{10}(\kappa C_1/$Gyr${}^{-1})$ -->
     <g transform="translate(21.761384 302.028) rotate(-90) scale(0.1 -0.1)">
      <defs>
       <path id="DejaVuSans-6c" d="M 603 4863 
L 1178 4863 
L 1178 0 
L 603 0 
L 603 4863 
z
" transform="scale(0.015625)"/>
       <path id="DejaVuSans-6f" d="M 1959 3097 
Q 1497 3097 1228 2736 
Q 959 2375 959 1747 
Q 959 1119 1226 758 
Q 1494 397 1959 397 
Q 2419 397 2687 759 
Q 2956 1122 2956 1747 
Q 2956 2369 2687 2733 
Q 2419 3097 1959 3097 
z
M 1959 3584 
Q 2709 3584 3137 3096 
Q 3566 2609 3566 1747 
Q 3566 888 3137 398 
Q 2709 -91 1959 -91 
Q 1206 -91 779 398 
Q 353 888 353 1747 
Q 353 2609 779 3096 
Q 1206 3584 1959 3584 
z
" transform="scale(0.015625)"/>
       <path id="DejaVuSans-67" d="M 2906 1791 
Q 2906 2416 2648 2759 
Q 2391 3103 1925 3103 
Q 1463 3103 1205 2759 
Q 947 2416 947 1791 
Q 947 1169 1205 825 
Q 1463 481 1925 481 
Q 2391 481 2648 825 
Q 2906 1169 2906 1791 
z
M 3481 434 
Q 3481 -459 3084 -895 
Q 2688 -1331 1869 -1331 
Q 1566 -1331 1297 -1286 
Q 1028 -1241 775 -1147 
L 775 -588 
Q 1028 -725 1275 -790 
Q 1522 -856 1778 -856 
Q 2344 -856 2625 -561 
Q 2906 -266 2906 331 
L 2906 616 
Q 2728 306 2450 153 
Q 2172 0 1784 0 
Q 1141 0 747 490 
Q 353 981 353 1791 
Q 353 2603 747 3093 
Q 1141 3584 1784 3584 
Q 2172 3584 2450 3431 
Q 2728 3278 2906 2969 
L 2906 3500 
L 3481 3500 
L 3481 434 
z
" transform="scale(0.015625)"/>
       <path id="DejaVuSans-28" d="M 1984 4856 
Q 1566 4138 1362 3434 
Q 1159 2731 1159 2009 
Q 1159 1288 1364 580 
Q 1569 -128 1984 -844 
L 1484 -844 
Q 1016 -109 783 600 
Q 550 1309 550 2009 
Q 550 2706 781 3412 
Q 1013 4119 1484 4856 
L 1984 4856 
z
" transform="scale(0.015625)"/>
       <path id="DejaVuSans-Oblique-3ba" d="M 938 3500 
L 1531 3500 
L 1247 2047 
L 3041 3500 
L 3741 3500 
L 2106 2181 
L 3275 0 
L 2572 0 
L 1628 1806 
L 1122 1403 
L 850 0 
L 256 0 
L 938 3500 
z
" transform="scale(0.015625)"/>
       <path id="DejaVuSans-Oblique-43" d="M 4447 4306 
L 4319 3641 
Q 4019 3944 3683 4091 
Q 3347 4238 2956 4238 
Q 2422 4238 2017 3981 
Q 1613 3725 1319 3200 
Q 1131 2863 1032 2486 
Q 934 2109 934 1728 
Q 934 1091 1264 756 
Q 1594 422 2222 422 
Q 2656 422 3056 561 
Q 3456 700 3834 978 
L 3688 231 
Q 3316 72 2936 -9 
Q 2556 -91 2175 -91 
Q 1278 -91 773 396 
Q 269 884 269 1753 
Q 269 2309 461 2846 
Q 653 3384 1013 3828 
Q 1394 4300 1883 4525 
Q 2372 4750 3022 4750 
Q 3422 4750 3780 4639 
Q 4138 4528 4447 4306 
z
" transform="scale(0.015625)"/>
       <path id="DejaVuSans-2f" d="M 1625 4666 
L 2156 4666 
L 531 -594 
L 0 -594 
L 1625 4666 
z
" transform="scale(0.015625)"/>
       <path id="DejaVuSans-47" d="M 3809 666 
L 3809 1919 
L 2778 1919 
L 2778 2438 
L 4434 2438 
L 4434 434 
Q 4069 175 3628 42 
Q 3188 -91 2688 -91 
Q 1594 -91 976 548 
Q 359 1188 359 2328 
Q 359 3472 976 4111 
Q 1594 4750 2688 4750 
Q 3144 4750 3555 4637 
Q 3966 4525 4313 4306 
L 4313 3634 
Q 3963 3931 3569 4081 
Q 3175 4231 2741 4231 
Q 1884 4231 1454 3753 
Q 1025 3275 1025 2328 
Q 1025 1384 1454 906 
Q 1884 428 2741 428 
Q 3075 428 3337 486 
Q 3600 544 3809 666 
z
" transform="scale(0.015625)"/>
       <path id="DejaVuSans-79" d="M 2059 -325 
Q 1816 -950 1584 -1140 
Q 1353 -1331 966 -1331 
L 506 -1331 
L 506 -850 
L 844 -850 
Q 1081 -850 1212 -737 
Q 1344 -625 1503 -206 
L 1606 56 
L 191 3500 
L 800 3500 
L 1894 763 
L 2988 3500 
L 3597 3500 
L 2059 -325 
z
" transform="scale(0.015625)"/>
       <path id="DejaVuSans-72" d="M 2631 2963 
Q 2534 3019 2420 3045 
Q 2306 3072 2169 3072 
Q 1681 3072 1420 2755 
Q 1159 2438 1159 1844 
L 1159 0 
L 581 0 
L 581 3500 
L 1159 3500 
L 1159 2956 
Q 1341 3275 1631 3429 
Q 1922 3584 2338 3584 
Q 2397 3584 2469 3576 
Q 2541 3569 2628 3553 
L 2631 2963 
z
" transform="scale(0.015625)"/>
       <path id="DejaVuSans-29" d="M 513 4856 
L 1013 4856 
Q 1481 4119 1714 3412 
Q 1947 2706 1947 2009 
Q 1947 1309 1714 600 
Q 1481 -109 1013 -844 
L 513 -844 
Q 928 -128 1133 580 
Q 1338 1288 1338 2009 
Q 1338 2731 1133 3434 
Q 928 4138 513 4856 
z
" transform="scale(0.015625)"/>
      </defs>
      <use xlink:href="#DejaVuSans-6c" transform="translate(0 0.684375)"/>
      <use xlink:href="#DejaVuSans-6f" transform="translate(27.783203 0.684375)"/>
      <use xlink:href="#DejaVuSans-67" transform="translate(88.964844 0.684375)"/>
      <use xlink:href="#DejaVuSans-31" transform="translate(153.398438 -15.721875) scale(0.7)"/>
      <use xlink:href="#DejaVuSans-30" transform="translate(197.93457 -15.721875) scale(0.7)"/>
      <use xlink:href="#DejaVuSans-28" transform="translate(261.440754 0.684375)"/>
      <use xlink:href="#DejaVuSans-Oblique-3ba" transform="translate(300.454426 0.684375)"/>
      <use xlink:href="#DejaVuSans-Oblique-43" transform="translate(359.389973 0.684375)"/>
      <use xlink:href="#DejaVuSans-31" transform="translate(429.214192 -15.721875) scale(0.7)"/>
      <use xlink:href="#DejaVuSans-2f" transform="translate(476.4847 0.684375)"/>
      <use xlink:href="#DejaVuSans-47" transform="translate(510.176106 0.684375)"/>
      <use xlink:href="#DejaVuSans-79" transform="translate(587.66634 0.684375)"/>
      <use xlink:href="#DejaVuSans-72" transform="translate(646.846028 0.684375)"/>
      <use xlink:href="#DejaVuSans-2212" transform="translate(688.91634 38.965625) scale(0.7)"/>
      <use xlink:href="#DejaVuSans-31" transform="translate(747.568684 38.965625) scale(0.7)"/>
      <use xlink:href="#DejaVuSans-29" transform="translate(794.839192 0.684375)"/>
     </g>
    </g>
   </g>
   <g id="QuadContourSet_3">
    <path d="M 141.133965 328.07884 
L 144.180006 329.139389 
L 147.226047 329.598458 
L 150.272088 329.840013 
L 153.318129 329.953754 
L 156.36417 329.997179 
L 159.410211 330.030188 
L 162.456252 330.083644 
L 165.502293 330.117059 
L 168.548334 330.130805 
L 171.594375 330.11241 
L 174.640416 330.03844 
L 177.686458 329.921653 
L 180.732499 329.799102 
L 183.77854 329.68884 
L 186.824581 329.497928 
L 189.870622 329.161756 
L 192.916663 328.577639 
L 194.970458 327.7704 
L 194.970458 325.1256 
L 195.380573 322.4808 
L 195.451166 319.836 
L 194.940301 317.1912 
L 195.07279 314.5464 
L 195.903893 311.9016 
L 195.962704 311.485414 
L 196.285115 309.2568 
L 196.001242 306.612 
L 195.962704 306.439986 
L 195.521308 303.9672 
L 194.777732 301.3224 
L 193.753379 298.6776 
L 193.067249 296.0328 
L 193.3936 293.388 
L 194.120426 290.7432 
L 194.560059 288.0984 
L 194.495555 285.4536 
L 194.154089 282.8088 
L 193.83692 280.164 
L 194.21809 277.5192 
L 195.293745 274.8744 
L 195.897938 272.2296 
L 195.565141 269.5848 
L 194.985788 266.94 
L 195.532857 264.2952 
L 195.962704 263.080847 
L 196.428515 261.6504 
L 196.821607 259.0056 
L 196.264132 256.3608 
L 195.962704 255.815617 
L 194.667 253.716 
L 193.867732 251.0712 
L 194.381988 248.4264 
L 194.938236 245.7816 
L 195.714024 243.1368 
L 195.962704 242.316043 
L 196.424143 240.492 
L 195.975486 237.8472 
L 195.962704 237.81757 
L 194.872365 235.2024 
L 193.693915 232.5576 
L 192.916663 230.282762 
L 192.828936 229.9128 
L 192.827162 227.268 
L 192.721445 224.6232 
L 191.076739 221.9784 
L 189.870622 220.704398 
L 189.035422 219.3336 
L 187.102397 216.6888 
L 186.824581 216.430757 
L 184.161605 214.044 
L 183.77854 213.742965 
L 180.732499 211.527558 
L 180.553643 211.3992 
L 177.686458 209.657171 
L 175.996954 208.7544 
L 174.640416 208.052409 
L 171.594375 206.704464 
L 169.788279 206.1096 
L 168.548334 205.51925 
L 165.502293 204.587351 
L 162.456252 204.162404 
L 159.410211 203.74619 
L 158.19907 203.4648 
L 156.36417 202.797429 
L 153.318129 201.800444 
L 150.272088 201.39908 
L 147.226047 201.27429 
L 144.180006 200.898274 
L 143.787537 200.82 
L 141.133965 200.000209 
L 138.087924 199.888514 
L 135.041883 200.410962 
L 133.303944 200.82 
L 131.995842 201.116749 
L 128.949801 201.538332 
L 125.90376 201.02724 
L 125.22373 200.82 
L 122.857718 200.192074 
L 119.811677 200.016996 
L 117.125677 200.82 
L 116.979067 203.4648 
L 119.811677 205.839308 
L 120.399453 206.1096 
L 122.857718 206.959426 
L 125.90376 207.407437 
L 128.949801 208.602505 
L 129.074511 208.7544 
L 131.326472 211.3992 
L 131.995842 212.100862 
L 133.64783 214.044 
L 135.041883 215.788861 
L 135.68497 216.6888 
L 136.681878 219.3336 
L 137.814979 221.9784 
L 138.087924 222.592491 
L 138.748404 224.6232 
L 139.511484 227.268 
L 139.96261 229.9128 
L 140.036107 232.5576 
L 140.11139 235.2024 
L 140.551907 237.8472 
L 140.933648 240.492 
L 141.133965 242.980614 
L 141.141713 243.1368 
L 141.167677 245.7816 
L 141.150672 248.4264 
L 141.228316 251.0712 
L 141.207823 253.716 
L 141.133965 254.364107 
L 140.796588 256.3608 
L 140.255431 259.0056 
L 140.128334 261.6504 
L 140.28569 264.2952 
L 140.657866 266.94 
L 141.133965 269.5848 
L 141.133965 269.5848 
L 141.392989 272.2296 
L 141.591829 274.8744 
L 141.459895 277.5192 
L 141.133965 279.372192 
L 140.93916 280.164 
L 140.578008 282.8088 
L 140.841885 285.4536 
L 141.133965 286.514567 
L 141.445144 288.0984 
L 141.406328 290.7432 
L 141.133965 291.910977 
L 140.544977 293.388 
L 140.596926 296.0328 
L 141.133965 298.626976 
L 141.140158 298.6776 
L 141.543475 301.3224 
L 141.826663 303.9672 
L 141.241227 306.612 
L 141.133965 306.915643 
L 140.067087 309.2568 
L 139.925952 311.9016 
L 140.117735 314.5464 
L 139.781888 317.1912 
L 139.758284 319.836 
L 140.209455 322.4808 
L 140.488678 325.1256 
L 140.488678 327.7704 
L 141.133965 328.07884 
z
" clip-path="url(#pfb094e8de6)" style="fill: none; stroke: #008000; stroke-width: 1.5"/>
    <path d="M 153.318129 328.140482 
L 156.36417 328.354548 
L 159.410211 328.517265 
L 162.456252 328.780778 
L 165.502293 328.945502 
L 168.548334 329.013263 
L 171.594375 328.922584 
L 174.640416 328.557944 
L 177.686458 327.982238 
L 178.912996 327.7704 
L 178.912996 325.1256 
L 179.905506 322.4808 
L 180.486718 319.836 
L 180.724923 317.1912 
L 180.503463 314.5464 
L 180.145294 311.9016 
L 180.226235 309.2568 
L 180.732499 306.612 
L 180.732499 306.612 
L 181.08292 303.9672 
L 180.748178 301.3224 
L 180.732499 301.199196 
L 180.485094 298.6776 
L 180.468311 296.0328 
L 180.718005 293.388 
L 180.732499 293.265988 
L 181.053034 290.7432 
L 181.006196 288.0984 
L 181.026911 285.4536 
L 181.158445 282.8088 
L 180.732499 280.753219 
L 180.627482 280.164 
L 180.025139 277.5192 
L 179.932537 274.8744 
L 179.920262 272.2296 
L 180.105645 269.5848 
L 180.545353 266.94 
L 180.588927 264.2952 
L 180.226739 261.6504 
L 180.291747 259.0056 
L 180.494808 256.3608 
L 180.334842 253.716 
L 180.131346 251.0712 
L 180.002233 248.4264 
L 179.942672 245.7816 
L 179.754714 243.1368 
L 179.605934 240.492 
L 180.266601 237.8472 
L 180.732499 236.424628 
L 181.109567 235.2024 
L 180.808233 232.5576 
L 180.732499 232.370882 
L 179.572809 229.9128 
L 178.212183 227.268 
L 177.757128 224.6232 
L 178.008696 221.9784 
L 177.686458 220.890452 
L 177.242245 219.3336 
L 174.974966 216.6888 
L 174.640416 216.400145 
L 171.594375 214.060087 
L 171.571611 214.044 
L 168.548334 212.055126 
L 167.395335 211.3992 
L 165.502293 210.640463 
L 162.456252 209.934334 
L 159.410211 209.842555 
L 156.36417 209.926359 
L 153.318129 209.060829 
L 152.274149 208.7544 
L 150.272088 208.273297 
L 148.162863 208.7544 
L 147.251981 211.3992 
L 148.060997 214.044 
L 149.658463 216.6888 
L 150.272088 218.054882 
L 150.760306 219.3336 
L 151.462431 221.9784 
L 152.670091 224.6232 
L 153.152141 227.268 
L 152.766432 229.9128 
L 152.437586 232.5576 
L 152.685205 235.2024 
L 153.143351 237.8472 
L 153.318129 239.787605 
L 153.386183 240.492 
L 153.318129 241.315931 
L 153.184465 243.1368 
L 152.872722 245.7816 
L 152.959929 248.4264 
L 153.318129 250.940234 
L 153.339944 251.0712 
L 153.318129 251.280251 
L 153.069601 253.716 
L 152.46733 256.3608 
L 152.914864 259.0056 
L 153.318129 260.286762 
L 153.686567 261.6504 
L 153.403065 264.2952 
L 153.318129 265.11074 
L 153.140318 266.94 
L 153.223096 269.5848 
L 153.318129 270.838942 
L 153.43315 272.2296 
L 153.638982 274.8744 
L 153.663353 277.5192 
L 153.345865 280.164 
L 153.318129 280.28648 
L 152.705054 282.8088 
L 152.289255 285.4536 
L 152.208385 288.0984 
L 152.32765 290.7432 
L 152.405065 293.388 
L 152.137937 296.0328 
L 151.846563 298.6776 
L 151.935879 301.3224 
L 152.21883 303.9672 
L 152.321993 306.612 
L 152.460252 309.2568 
L 152.672304 311.9016 
L 152.65721 314.5464 
L 152.283697 317.1912 
L 151.716463 319.836 
L 151.350366 322.4808 
L 151.162699 325.1256 
L 151.162699 327.7704 
L 153.318129 328.140482 
z
" clip-path="url(#pfb094e8de6)" style="fill: none; stroke: #008000; stroke-width: 1.5"/>
   </g>
   <g id="patch_8">
    <path d="M 69.552 326.448 
L 69.552 194.208 
" style="fill: none; stroke: #000000; stroke-width: 0.8; stroke-linejoin: miter; stroke-linecap: square"/>
   </g>
   <g id="patch_9">
    <path d="M 221.854053 326.448 
L 221.854053 194.208 
" style="fill: none; stroke: #000000; stroke-width: 0.8; stroke-linejoin: miter; stroke-linecap: square"/>
   </g>
   <g id="patch_10">
    <path d="M 69.552 326.448 
L 221.854053 326.448 
" style="fill: none; stroke: #000000; stroke-width: 0.8; stroke-linejoin: miter; stroke-linecap: square"/>
   </g>
   <g id="patch_11">
    <path d="M 69.552 194.208 
L 221.854053 194.208 
" style="fill: none; stroke: #000000; stroke-width: 0.8; stroke-linejoin: miter; stroke-linecap: square"/>
   </g>
  </g>
  <g id="axes_4">
   <g id="patch_12">
    <path d="M 232.654053 326.448 
L 384.956106 326.448 
L 384.956106 194.208 
L 232.654053 194.208 
z
" style="fill: #ffffff"/>
   </g>
   <g id="matplotlib.axis_7">
    <g id="xtick_9">
     <g id="line2d_14">
      <g>
       <use xlink:href="#m7d74a12e89" x="268.468797" y="326.448" style="stroke: #000000; stroke-width: 0.8"/>
      </g>
     </g>
     <g id="text_12">
      <!-- −8 -->
      <g transform="translate(265.207819 349.245207) rotate(-45) scale(0.1 -0.1)">
       <use xlink:href="#DejaVuSans-2212"/>
       <use xlink:href="#DejaVuSans-38" x="83.789062"/>
      </g>
     </g>
    </g>
    <g id="xtick_10">
     <g id="line2d_15">
      <g>
       <use xlink:href="#m7d74a12e89" x="304.287688" y="326.448" style="stroke: #000000; stroke-width: 0.8"/>
      </g>
     </g>
     <g id="text_13">
      <!-- −6 -->
      <g transform="translate(301.02671 349.245207) rotate(-45) scale(0.1 -0.1)">
       <use xlink:href="#DejaVuSans-2212"/>
       <use xlink:href="#DejaVuSans-36" x="83.789062"/>
      </g>
     </g>
    </g>
    <g id="xtick_11">
     <g id="line2d_16">
      <g>
       <use xlink:href="#m7d74a12e89" x="340.106579" y="326.448" style="stroke: #000000; stroke-width: 0.8"/>
      </g>
     </g>
     <g id="text_14">
      <!-- −4 -->
      <g transform="translate(336.845601 349.245207) rotate(-45) scale(0.1 -0.1)">
       <use xlink:href="#DejaVuSans-2212"/>
       <use xlink:href="#DejaVuSans-34" x="83.789062"/>
      </g>
     </g>
    </g>
    <g id="xtick_12">
     <g id="line2d_17">
      <g>
       <use xlink:href="#m7d74a12e89" x="375.92547" y="326.448" style="stroke: #000000; stroke-width: 0.8"/>
      </g>
     </g>
     <g id="text_15">
      <!-- −2 -->
      <g transform="translate(372.664492 349.245207) rotate(-45) scale(0.1 -0.1)">
       <use xlink:href="#DejaVuSans-2212"/>
       <use xlink:href="#DejaVuSans-32" x="83.789062"/>
      </g>
     </g>
    </g>
    <g id="text_16">
     <!-- $\log_{10}(\kappa C_1/$Gyr${}^{-1})$ -->
     <g transform="translate(267.105079 375.12) scale(0.1 -0.1)">
      <use xlink:href="#DejaVuSans-6c" transform="translate(0 0.684375)"/>
      <use xlink:href="#DejaVuSans-6f" transform="translate(27.783203 0.684375)"/>
      <use xlink:href="#DejaVuSans-67" transform="translate(88.964844 0.684375)"/>
      <use xlink:href="#DejaVuSans-31" transform="translate(153.398438 -15.721875) scale(0.7)"/>
      <use xlink:href="#DejaVuSans-30" transform="translate(197.93457 -15.721875) scale(0.7)"/>
      <use xlink:href="#DejaVuSans-28" transform="translate(261.440754 0.684375)"/>
      <use xlink:href="#DejaVuSans-Oblique-3ba" transform="translate(300.454426 0.684375)"/>
      <use xlink:href="#DejaVuSans-Oblique-43" transform="translate(359.389973 0.684375)"/>
      <use xlink:href="#DejaVuSans-31" transform="translate(429.214192 -15.721875) scale(0.7)"/>
      <use xlink:href="#DejaVuSans-2f" transform="translate(476.4847 0.684375)"/>
      <use xlink:href="#DejaVuSans-47" transform="translate(510.176106 0.684375)"/>
      <use xlink:href="#DejaVuSans-79" transform="translate(587.66634 0.684375)"/>
      <use xlink:href="#DejaVuSans-72" transform="translate(646.846028 0.684375)"/>
      <use xlink:href="#DejaVuSans-2212" transform="translate(688.91634 38.965625) scale(0.7)"/>
      <use xlink:href="#DejaVuSans-31" transform="translate(747.568684 38.965625) scale(0.7)"/>
      <use xlink:href="#DejaVuSans-29" transform="translate(794.839192 0.684375)"/>
     </g>
    </g>
   </g>
   <g id="matplotlib.axis_8"/>
   <g id="line2d_18">
    <path d="M 232.654053 213.815287 
L 233.415563 213.815287 
L 233.415563 213.355561 
L 234.177073 213.355561 
L 234.177073 212.665973 
L 234.938584 212.665973 
L 234.938584 211.746523 
L 235.700094 211.746523 
L 235.700094 210.597209 
L 236.461604 210.597209 
L 236.461604 209.447896 
L 237.223114 209.447896 
L 237.223114 208.298582 
L 237.984625 208.298582 
L 237.984625 207.379132 
L 238.746135 207.379132 
L 238.746135 206.689544 
L 239.507645 206.689544 
L 239.507645 206.459681 
L 241.030666 206.459681 
L 241.030666 206.689544 
L 241.792176 206.689544 
L 241.792176 206.919406 
L 242.553686 206.919406 
L 242.553686 207.379132 
L 243.315197 207.379132 
L 243.315197 207.608994 
L 244.076707 207.608994 
L 244.076707 207.838857 
L 244.838217 207.838857 
L 244.838217 208.06872 
L 247.884258 208.06872 
L 247.884258 207.838857 
L 248.645768 207.838857 
L 248.645768 207.608994 
L 252.45332 207.608994 
L 252.45332 208.06872 
L 253.21483 208.06872 
L 253.21483 208.298582 
L 253.97634 208.298582 
L 253.97634 208.758308 
L 254.73785 208.758308 
L 254.73785 209.218033 
L 255.499361 209.218033 
L 255.499361 209.447896 
L 257.783892 209.447896 
L 257.783892 209.218033 
L 258.545402 209.218033 
L 258.545402 208.98817 
L 259.306912 208.98817 
L 259.306912 208.758308 
L 260.068422 208.758308 
L 260.068422 208.298582 
L 261.591443 208.298582 
L 261.591443 208.06872 
L 263.875974 208.06872 
L 263.875974 208.298582 
L 264.637484 208.298582 
L 264.637484 208.528445 
L 265.398994 208.528445 
L 265.398994 208.98817 
L 266.160504 208.98817 
L 266.160504 209.447896 
L 266.922015 209.447896 
L 266.922015 209.907621 
L 267.683525 209.907621 
L 267.683525 210.137484 
L 268.445035 210.137484 
L 268.445035 210.367346 
L 269.206545 210.367346 
L 269.206545 210.137484 
L 269.968056 210.137484 
L 269.968056 209.907621 
L 270.729566 209.907621 
L 270.729566 209.218033 
L 271.491076 209.218033 
L 271.491076 208.528445 
L 272.252587 208.528445 
L 272.252587 207.838857 
L 273.014097 207.838857 
L 273.014097 207.149269 
L 273.775607 207.149269 
L 273.775607 206.689544 
L 274.537117 206.689544 
L 274.537117 206.229818 
L 276.821648 206.229818 
L 276.821648 206.459681 
L 277.583158 206.459681 
L 277.583158 206.689544 
L 278.344669 206.689544 
L 278.344669 206.919406 
L 279.106179 206.919406 
L 279.106179 207.149269 
L 279.867689 207.149269 
L 279.867689 207.379132 
L 280.629199 207.379132 
L 280.629199 207.608994 
L 282.15222 207.608994 
L 282.15222 208.06872 
L 282.91373 208.06872 
L 282.91373 208.528445 
L 283.675241 208.528445 
L 283.675241 209.218033 
L 284.436751 209.218033 
L 284.436751 210.137484 
L 285.198261 210.137484 
L 285.198261 211.286797 
L 285.959771 211.286797 
L 285.959771 212.206248 
L 286.721282 212.206248 
L 286.721282 213.355561 
L 287.482792 213.355561 
L 287.482792 214.275012 
L 288.244302 214.275012 
L 288.244302 214.734737 
L 289.005812 214.734737 
L 289.005812 215.194463 
L 291.290343 215.194463 
L 291.290343 214.9646 
L 292.051853 214.9646 
L 292.051853 214.504875 
L 292.813364 214.504875 
L 292.813364 214.275012 
L 293.574874 214.275012 
L 293.574874 214.045149 
L 294.336384 214.045149 
L 294.336384 213.815287 
L 295.097894 213.815287 
L 295.097894 213.585424 
L 296.620915 213.585424 
L 296.620915 213.355561 
L 298.143936 213.355561 
L 298.143936 213.125699 
L 298.905446 213.125699 
L 298.905446 212.895836 
L 299.666956 212.895836 
L 299.666956 212.665973 
L 300.428466 212.665973 
L 300.428466 212.436111 
L 301.189977 212.436111 
L 301.189977 212.206248 
L 302.712997 212.206248 
L 302.712997 212.436111 
L 303.474507 212.436111 
L 303.474507 212.895836 
L 304.236018 212.895836 
L 304.236018 213.355561 
L 304.997528 213.355561 
L 304.997528 213.815287 
L 305.759038 213.815287 
L 305.759038 214.275012 
L 306.520548 214.275012 
L 306.520548 214.504875 
L 308.043569 214.504875 
L 308.043569 214.275012 
L 308.805079 214.275012 
L 308.805079 214.045149 
L 309.566589 214.045149 
L 309.566589 213.585424 
L 310.3281 213.585424 
L 310.3281 213.355561 
L 311.08961 213.355561 
L 311.08961 213.125699 
L 312.612631 213.125699 
L 312.612631 213.355561 
L 313.374141 213.355561 
L 313.374141 213.585424 
L 314.135651 213.585424 
L 314.135651 214.045149 
L 314.897161 214.045149 
L 314.897161 214.504875 
L 315.658672 214.504875 
L 315.658672 214.9646 
L 316.420182 214.9646 
L 316.420182 215.424325 
L 317.943202 215.424325 
L 317.943202 215.654188 
L 321.750754 215.654188 
L 321.750754 215.884051 
L 326.319815 215.884051 
L 326.319815 215.654188 
L 329.365856 215.654188 
L 329.365856 215.884051 
L 330.127367 215.884051 
L 330.127367 216.113913 
L 330.888877 216.113913 
L 330.888877 216.343776 
L 331.650387 216.343776 
L 331.650387 216.573639 
L 333.934918 216.573639 
L 333.934918 216.343776 
L 334.696428 216.343776 
L 334.696428 216.113913 
L 335.457938 216.113913 
L 335.457938 215.424325 
L 336.219449 215.424325 
L 336.219449 214.734737 
L 336.980959 214.734737 
L 336.980959 214.045149 
L 337.742469 214.045149 
L 337.742469 213.585424 
L 338.50398 213.585424 
L 338.50398 213.355561 
L 340.027 213.355561 
L 340.027 213.815287 
L 340.78851 213.815287 
L 340.78851 214.275012 
L 341.550021 214.275012 
L 341.550021 214.9646 
L 342.311531 214.9646 
L 342.311531 215.654188 
L 343.073041 215.654188 
L 343.073041 216.573639 
L 343.834551 216.573639 
L 343.834551 217.033364 
L 344.596062 217.033364 
L 344.596062 217.722952 
L 345.357572 217.722952 
L 345.357572 218.182678 
L 346.119082 218.182678 
L 346.119082 218.41254 
L 346.880592 218.41254 
L 346.880592 218.642403 
L 347.642103 218.642403 
L 347.642103 218.872266 
L 349.926633 218.872266 
L 349.926633 218.41254 
L 350.688144 218.41254 
L 350.688144 217.952815 
L 351.449654 217.952815 
L 351.449654 217.49309 
L 352.211164 217.49309 
L 352.211164 216.803501 
L 352.972675 216.803501 
L 352.972675 216.343776 
L 353.734185 216.343776 
L 353.734185 216.113913 
L 355.257205 216.113913 
L 355.257205 216.573639 
L 356.018716 216.573639 
L 356.018716 217.49309 
L 356.780226 217.49309 
L 356.780226 218.872266 
L 357.541736 218.872266 
L 357.541736 220.481304 
L 358.303246 220.481304 
L 358.303246 222.550068 
L 359.064757 222.550068 
L 359.064757 224.848695 
L 359.826267 224.848695 
L 359.826267 227.147322 
L 360.587777 227.147322 
L 360.587777 229.445949 
L 361.349287 229.445949 
L 361.349287 231.744576 
L 362.110798 231.744576 
L 362.110798 234.043203 
L 362.872308 234.043203 
L 362.872308 236.111967 
L 363.633818 236.111967 
L 363.633818 238.410593 
L 364.395329 238.410593 
L 364.395329 240.939083 
L 365.156839 240.939083 
L 365.156839 243.697435 
L 365.918349 243.697435 
L 365.918349 246.915513 
L 366.679859 246.915513 
L 366.679859 250.363453 
L 367.44137 250.363453 
L 367.44137 254.041256 
L 368.20288 254.041256 
L 368.20288 258.178784 
L 368.96439 258.178784 
L 368.96439 262.316312 
L 369.7259 262.316312 
L 369.7259 266.45384 
L 370.487411 266.45384 
L 370.487411 270.591369 
L 371.248921 270.591369 
L 371.248921 274.728897 
L 372.010431 274.728897 
L 372.010431 278.866425 
L 372.771941 278.866425 
L 372.771941 282.774091 
L 373.533452 282.774091 
L 373.533452 286.911619 
L 374.294962 286.911619 
L 374.294962 290.819285 
L 375.056472 290.819285 
L 375.056472 294.956813 
L 375.817982 294.956813 
L 375.817982 298.634616 
L 376.579493 298.634616 
L 376.579493 302.312419 
L 377.341003 302.312419 
L 377.341003 305.760359 
L 378.102513 305.760359 
L 378.102513 308.518711 
L 378.864024 308.518711 
L 378.864024 311.0472 
L 379.625534 311.0472 
L 379.625534 313.115965 
L 380.387044 313.115965 
L 380.387044 314.725003 
L 381.148554 314.725003 
L 381.148554 316.104179 
L 381.910065 316.104179 
L 381.910065 316.793767 
L 382.671575 316.793767 
L 382.671575 317.253493 
L 383.433085 317.253493 
L 383.433085 317.713218 
L 384.956106 317.713218 
L 384.956106 317.713218 
" clip-path="url(#pcd5b775666)" style="fill: none; stroke: #008000; stroke-width: 1.5; stroke-linecap: square"/>
   </g>
   <g id="patch_13">
    <path d="M 232.654053 326.448 
L 232.654053 194.208 
" style="fill: none; stroke: #000000; stroke-width: 0.8; stroke-linejoin: miter; stroke-linecap: square"/>
   </g>
   <g id="patch_14">
    <path d="M 384.956106 326.448 
L 384.956106 194.208 
" style="fill: none; stroke: #000000; stroke-width: 0.8; stroke-linejoin: miter; stroke-linecap: square"/>
   </g>
   <g id="patch_15">
    <path d="M 232.654053 326.448 
L 384.956106 326.448 
" style="fill: none; stroke: #000000; stroke-width: 0.8; stroke-linejoin: miter; stroke-linecap: square"/>
   </g>
   <g id="patch_16">
    <path d="M 232.654053 194.208 
L 384.956106 194.208 
" style="fill: none; stroke: #000000; stroke-width: 0.8; stroke-linejoin: miter; stroke-linecap: square"/>
   </g>
   <g id="text_17">
    <!-- $\log_{10}(\kappa C_1/$Gyr${}^{-1})$ = ${-6.2372}_{-2.5752}^{+2.6795}$ -->
    <g transform="translate(188.615079 188.208) scale(0.14 -0.14)">
     <use xlink:href="#DejaVuSans-6c" transform="translate(0 0.765625)"/>
     <use xlink:href="#DejaVuSans-6f" transform="translate(27.783203 0.765625)"/>
     <use xlink:href="#DejaVuSans-67" transform="translate(88.964844 0.765625)"/>
     <use xlink:href="#DejaVuSans-31" transform="translate(153.398438 -15.640625) scale(0.7)"/>
     <use xlink:href="#DejaVuSans-30" transform="translate(197.93457 -15.640625) scale(0.7)"/>
     <use xlink:href="#DejaVuSans-28" transform="translate(261.440754 0.765625)"/>
     <use xlink:href="#DejaVuSans-Oblique-3ba" transform="translate(300.454426 0.765625)"/>
     <use xlink:href="#DejaVuSans-Oblique-43" transform="translate(359.389973 0.765625)"/>
     <use xlink:href="#DejaVuSans-31" transform="translate(429.214192 -15.640625) scale(0.7)"/>
     <use xlink:href="#DejaVuSans-2f" transform="translate(476.4847 0.765625)"/>
     <use xlink:href="#DejaVuSans-47" transform="translate(510.176106 0.765625)"/>
     <use xlink:href="#DejaVuSans-79" transform="translate(587.66634 0.765625)"/>
     <use xlink:href="#DejaVuSans-72" transform="translate(646.846028 0.765625)"/>
     <use xlink:href="#DejaVuSans-2212" transform="translate(688.91634 39.046875) scale(0.7)"/>
     <use xlink:href="#DejaVuSans-31" transform="translate(747.568684 39.046875) scale(0.7)"/>
     <use xlink:href="#DejaVuSans-29" transform="translate(794.839192 0.765625)"/>
     <use xlink:href="#DejaVuSans-20" transform="translate(833.852864 0.765625)"/>
     <use xlink:href="#DejaVuSans-3d" transform="translate(865.639973 0.765625)"/>
     <use xlink:href="#DejaVuSans-20" transform="translate(949.429036 0.765625)"/>
     <use xlink:href="#DejaVuSans-2212" transform="translate(981.216145 0.765625)"/>
     <use xlink:href="#DejaVuSans-36" transform="translate(1065.005208 0.765625)"/>
     <use xlink:href="#DejaVuSans-2e" transform="translate(1128.628254 0.765625)"/>
     <use xlink:href="#DejaVuSans-32" transform="translate(1154.915364 0.765625)"/>
     <use xlink:href="#DejaVuSans-33" transform="translate(1218.538411 0.765625)"/>
     <use xlink:href="#DejaVuSans-37" transform="translate(1282.161458 0.765625)"/>
     <use xlink:href="#DejaVuSans-32" transform="translate(1345.784504 0.765625)"/>
     <use xlink:href="#DejaVuSans-2b" transform="translate(1410.364583 39.046875) scale(0.7)"/>
     <use xlink:href="#DejaVuSans-32" transform="translate(1469.016926 39.046875) scale(0.7)"/>
     <use xlink:href="#DejaVuSans-2e" transform="translate(1513.553059 39.046875) scale(0.7)"/>
     <use xlink:href="#DejaVuSans-36" transform="translate(1535.804036 39.046875) scale(0.7)"/>
     <use xlink:href="#DejaVuSans-37" transform="translate(1580.340168 39.046875) scale(0.7)"/>
     <use xlink:href="#DejaVuSans-39" transform="translate(1624.876301 39.046875) scale(0.7)"/>
     <use xlink:href="#DejaVuSans-35" transform="translate(1669.412434 39.046875) scale(0.7)"/>
     <use xlink:href="#DejaVuSans-2212" transform="translate(1410.364583 -26.578125) scale(0.7)"/>
     <use xlink:href="#DejaVuSans-32" transform="translate(1469.016926 -26.578125) scale(0.7)"/>
     <use xlink:href="#DejaVuSans-2e" transform="translate(1513.553059 -26.578125) scale(0.7)"/>
     <use xlink:href="#DejaVuSans-35" transform="translate(1535.804036 -26.578125) scale(0.7)"/>
     <use xlink:href="#DejaVuSans-37" transform="translate(1575.265168 -26.578125) scale(0.7)"/>
     <use xlink:href="#DejaVuSans-35" transform="translate(1619.801301 -26.578125) scale(0.7)"/>
     <use xlink:href="#DejaVuSans-32" transform="translate(1664.337434 -26.578125) scale(0.7)"/>
    </g>
   </g>
  </g>
 </g>
 <defs>
  <clipPath id="p1b5fd71a13">
   <rect x="69.552" y="30.984" width="152.302053" height="132.24"/>
  </clipPath>
  <clipPath id="pfb094e8de6">
   <rect x="69.552" y="194.208" width="152.302053" height="132.24"/>
  </clipPath>
  <clipPath id="pcd5b775666">
   <rect x="232.654053" y="194.208" width="152.302053" height="132.24"/>
  </clipPath>
 </defs>
</svg>
