<?xml version="1.0" encoding="utf-8" standalone="no"?>
<!DOCTYPE svg PUBLIC "-//W3C//DTD SVG 1.1//EN"
  "http://www.w3.org/Graphics/SVG/1.1/DTD/svg11.dtd">
<svg xmlns:xlink="http://www.w3.org/1999/xlink" width="396pt" height="396pt" viewBox="0 0 396 396" xmlns="http://www.w3.org/2000/svg" version="1.1">
 <metadata>
  <rdf:RDF xmlns:dc="http://purl.org/dc/elements/1.1/" xmlns:cc="http://creativecommons.org/ns#" xmlns:rdf="http://www.w3.org/1999/02/22-rdf-syntax-ns#">
   <cc:Work>
    <dc:type rdf:resource="http://purl.org/dc/dcmitype/StillImage"/>
    <dc:date>2024-11-19T13:08:07.319832</dc:date>
    <dc:format>image/svg+xml</dc:format>
    <dc:creator>
     <cc:Agent>
      <dc:title>Matplotlib v3.9.2, https://matplotlib.org/</dc:title>
     </cc:Agent>
    </dc:creator>
   </cc:Work>
  </rdf:RDF>
 </metadata>
 <defs>
  <style type="text/css">*{stroke-linejoin: round; stroke-linecap: butt}</style>
 </defs>
 <g id="figure_1">
  <g id="patch_1">
   <path d="M 0 396 
L 396 396 
L 396 0 
L 0 0 
z
" style="fill: #ffffff"/>
  </g>
  <g id="axes_1">
   <g id="patch_2">
    <path d="M 66.96 164.52 
L 214.593505 164.52 
L 214.593505 30.984 
L 66.96 30.984 
z
" style="fill: #ffffff"/>
   </g>
   <g id="matplotlib.axis_1">
    <g id="xtick_1">
     <g id="line2d_1">
      <defs>
       <path id="m2d7155e004" d="M 0 0 
L 0 3.5 
" style="stroke: #000000; stroke-width: 0.8"/>
      </defs>
      <g>
       <use xlink:href="#m2d7155e004" x="96.330203" y="164.52" style="stroke: #000000; stroke-width: 0.8"/>
      </g>
     </g>
    </g>
    <g id="xtick_2">
     <g id="line2d_2">
      <g>
       <use xlink:href="#m2d7155e004" x="128.698065" y="164.52" style="stroke: #000000; stroke-width: 0.8"/>
      </g>
     </g>
    </g>
    <g id="xtick_3">
     <g id="line2d_3">
      <g>
       <use xlink:href="#m2d7155e004" x="161.065928" y="164.52" style="stroke: #000000; stroke-width: 0.8"/>
      </g>
     </g>
    </g>
    <g id="xtick_4">
     <g id="line2d_4">
      <g>
       <use xlink:href="#m2d7155e004" x="193.433791" y="164.52" style="stroke: #000000; stroke-width: 0.8"/>
      </g>
     </g>
    </g>
   </g>
   <g id="matplotlib.axis_2"/>
   <g id="line2d_5">
    <path d="M 66.96 164.113798 
L 70.650838 164.171827 
L 70.650838 164.229856 
L 73.603508 164.287885 
L 73.603508 164.345913 
L 80.985183 164.287885 
L 80.985183 164.229856 
L 83.199686 164.171827 
L 83.199686 164.113798 
L 89.843193 164.171827 
L 89.843193 164.229856 
L 92.057696 164.287885 
L 92.057696 164.345913 
L 97.224869 164.287885 
L 97.224869 164.229856 
L 99.439371 164.171827 
L 99.439371 164.113798 
L 100.915706 164.055769 
L 100.915706 163.99774 
L 102.392041 163.939711 
L 102.392041 163.881683 
L 104.606544 163.823654 
L 104.606544 163.765625 
L 106.082879 163.707596 
L 106.082879 163.649567 
L 109.773716 163.591538 
L 109.773716 163.533509 
L 111.988219 163.475481 
L 111.988219 163.359423 
L 113.464554 163.301394 
L 113.464554 163.185336 
L 114.202722 163.185336 
L 114.202722 163.069279 
L 114.940889 163.069279 
L 114.940889 162.953221 
L 115.679057 162.953221 
L 115.679057 162.837163 
L 116.417224 162.837163 
L 116.417224 162.721106 
L 117.893559 162.663077 
L 117.893559 162.605048 
L 119.369894 162.547019 
L 119.369894 162.48899 
L 120.846229 162.430961 
L 120.846229 162.372932 
L 122.322564 162.314904 
L 122.322564 162.198846 
L 123.060732 162.198846 
L 123.060732 162.024759 
L 123.798899 162.024759 
L 123.798899 161.792644 
L 124.537067 161.792644 
L 124.537067 161.444471 
L 125.275235 161.444471 
L 125.275235 161.096298 
L 126.013402 161.096298 
L 126.013402 160.632067 
L 126.75157 160.632067 
L 126.75157 160.109807 
L 127.489737 160.109807 
L 127.489737 159.47149 
L 128.227905 159.47149 
L 128.227905 158.717115 
L 128.966072 158.717115 
L 128.966072 157.904711 
L 129.70424 157.904711 
L 129.70424 157.034278 
L 130.442407 157.034278 
L 130.442407 156.047787 
L 131.180575 156.047787 
L 131.180575 154.945239 
L 131.918742 154.945239 
L 131.918742 153.668604 
L 132.65691 153.668604 
L 132.65691 152.333941 
L 133.395077 152.333941 
L 133.395077 150.767161 
L 134.133245 150.767161 
L 134.133245 149.084325 
L 134.871412 149.084325 
L 134.871412 147.227401 
L 135.60958 147.227401 
L 135.60958 145.138363 
L 136.347747 145.138363 
L 136.347747 142.875237 
L 137.085915 142.875237 
L 137.085915 140.438025 
L 137.824082 140.438025 
L 137.824082 137.884756 
L 138.56225 137.884756 
L 138.56225 135.1574 
L 139.300418 135.1574 
L 139.300418 132.255957 
L 140.038585 132.255957 
L 140.038585 129.238456 
L 140.776753 129.238456 
L 140.776753 126.104898 
L 141.51492 126.104898 
L 141.51492 122.855282 
L 142.253088 122.855282 
L 142.253088 119.43158 
L 142.991255 119.43158 
L 142.991255 115.89182 
L 143.729423 115.89182 
L 143.729423 112.236002 
L 144.46759 112.236002 
L 144.46759 108.464127 
L 145.205758 108.464127 
L 145.205758 104.634222 
L 145.943925 104.634222 
L 145.943925 100.68826 
L 146.682093 100.68826 
L 146.682093 96.742298 
L 147.42026 96.742298 
L 147.42026 92.680278 
L 148.158428 92.680278 
L 148.158428 88.618258 
L 148.896595 88.618258 
L 148.896595 84.556238 
L 149.634763 84.556238 
L 149.634763 80.494219 
L 150.37293 80.494219 
L 150.37293 76.490228 
L 151.111098 76.490228 
L 151.111098 72.660323 
L 151.849265 72.660323 
L 151.849265 68.946477 
L 152.587433 68.946477 
L 152.587433 65.406716 
L 153.3256 65.406716 
L 153.3256 62.099072 
L 154.063768 62.099072 
L 154.063768 58.965514 
L 154.801936 58.965514 
L 154.801936 56.064071 
L 155.540103 56.064071 
L 155.540103 53.336715 
L 156.278271 53.336715 
L 156.278271 50.899503 
L 157.016438 50.899503 
L 157.016438 48.694406 
L 157.754606 48.694406 
L 157.754606 46.837483 
L 158.492773 46.837483 
L 158.492773 45.270704 
L 159.230941 45.270704 
L 159.230941 44.168156 
L 159.969108 44.168156 
L 159.969108 43.413781 
L 160.707276 43.413781 
L 160.707276 43.123636 
L 161.445443 43.123636 
L 161.445443 43.239694 
L 162.183611 43.239694 
L 162.183611 43.819983 
L 162.921778 43.819983 
L 162.921778 44.922531 
L 163.659946 44.922531 
L 163.659946 46.48931 
L 164.398113 46.48931 
L 164.398113 48.694406 
L 165.136281 48.694406 
L 165.136281 51.363734 
L 165.874448 51.363734 
L 165.874448 54.555321 
L 166.612616 54.555321 
L 166.612616 58.211139 
L 167.350783 58.211139 
L 167.350783 62.215129 
L 168.088951 62.215129 
L 168.088951 66.509265 
L 168.827119 66.509265 
L 168.827119 70.977487 
L 169.565286 70.977487 
L 169.565286 75.619795 
L 170.303454 75.619795 
L 170.303454 80.262103 
L 171.041621 80.262103 
L 171.041621 84.96244 
L 171.779789 84.96244 
L 171.779789 89.54672 
L 172.517956 89.54672 
L 172.517956 94.014942 
L 173.256124 94.014942 
L 173.256124 98.309077 
L 173.994291 98.309077 
L 173.994291 102.487155 
L 174.732459 102.487155 
L 174.732459 106.433117 
L 175.470626 106.433117 
L 175.470626 110.263021 
L 176.208794 110.263021 
L 176.208794 113.918839 
L 176.946961 113.918839 
L 176.946961 117.40057 
L 177.685129 117.40057 
L 177.685129 120.766244 
L 178.423296 120.766244 
L 178.423296 123.957831 
L 179.161464 123.957831 
L 179.161464 127.091389 
L 179.899631 127.091389 
L 179.899631 130.05086 
L 180.637799 130.05086 
L 180.637799 132.836245 
L 181.375966 132.836245 
L 181.375966 135.505573 
L 182.114134 135.505573 
L 182.114134 137.942785 
L 182.852302 137.942785 
L 182.852302 140.263939 
L 183.590469 140.263939 
L 183.590469 142.352978 
L 184.328637 142.352978 
L 184.328637 144.26793 
L 185.066804 144.26793 
L 185.066804 146.066824 
L 185.804972 146.066824 
L 185.804972 147.691632 
L 186.543139 147.691632 
L 186.543139 149.258411 
L 187.281307 149.258411 
L 187.281307 150.709133 
L 188.019474 150.709133 
L 188.019474 152.043796 
L 188.757642 152.043796 
L 188.757642 153.37846 
L 189.495809 153.37846 
L 189.495809 154.597066 
L 190.233977 154.597066 
L 190.233977 155.699614 
L 190.972144 155.699614 
L 190.972144 156.802162 
L 191.710312 156.802162 
L 191.710312 157.730624 
L 192.448479 157.730624 
L 192.448479 158.601057 
L 193.186647 158.601057 
L 193.186647 159.413461 
L 193.924814 159.413461 
L 193.924814 160.109807 
L 194.662982 160.109807 
L 194.662982 160.690096 
L 195.401149 160.690096 
L 195.401149 161.212355 
L 196.139317 161.212355 
L 196.139317 161.676586 
L 196.877484 161.676586 
L 196.877484 162.082788 
L 197.615652 162.082788 
L 197.615652 162.430961 
L 198.35382 162.430961 
L 198.35382 162.721106 
L 199.091987 162.721106 
L 199.091987 163.069279 
L 199.830155 163.069279 
L 199.830155 163.301394 
L 200.568322 163.301394 
L 200.568322 163.533509 
L 201.30649 163.533509 
L 201.30649 163.707596 
L 202.044657 163.707596 
L 202.044657 163.881683 
L 202.782825 163.881683 
L 202.782825 163.99774 
L 203.520992 163.99774 
L 203.520992 164.113798 
L 204.997327 164.171827 
L 204.997327 164.229856 
L 206.473662 164.287885 
L 206.473662 164.345913 
L 214.593505 164.403942 
L 214.593505 164.403942 
" clip-path="url(#p4853d37d13)" style="fill: none; stroke: #008000; stroke-width: 1.5; stroke-linecap: square"/>
   </g>
   <g id="patch_3">
    <path d="M 66.96 164.52 
L 66.96 30.984 
" style="fill: none; stroke: #000000; stroke-width: 0.8; stroke-linejoin: miter; stroke-linecap: square"/>
   </g>
   <g id="patch_4">
    <path d="M 214.593505 164.52 
L 214.593505 30.984 
" style="fill: none; stroke: #000000; stroke-width: 0.8; stroke-linejoin: miter; stroke-linecap: square"/>
   </g>
   <g id="patch_5">
    <path d="M 66.96 164.52 
L 214.593505 164.52 
" style="fill: none; stroke: #000000; stroke-width: 0.8; stroke-linejoin: miter; stroke-linecap: square"/>
   </g>
   <g id="patch_6">
    <path d="M 66.96 30.984 
L 214.593505 30.984 
" style="fill: none; stroke: #000000; stroke-width: 0.8; stroke-linejoin: miter; stroke-linecap: square"/>
   </g>
   <g id="text_1">
    <!-- $\Omega_{2,0}$ = ${0.3489}_{-0.0197}^{+0.0189}$ -->
    <g transform="translate(70.076753 24.984) scale(0.14 -0.14)">
     <defs>
      <path id="DejaVuSans-3a9" d="M 4647 556 
L 4647 0 
L 2772 0 
L 2772 556 
Q 3325 859 3634 1378 
Q 3944 1897 3944 2528 
Q 3944 3278 3531 3731 
Q 3119 4184 2444 4184 
Q 1769 4184 1355 3729 
Q 941 3275 941 2528 
Q 941 1897 1250 1378 
Q 1563 859 2119 556 
L 2119 0 
L 244 0 
L 244 556 
L 1241 556 
Q 747 991 519 1456 
Q 294 1922 294 2497 
Q 294 3491 894 4106 
Q 1491 4722 2444 4722 
Q 3391 4722 3994 4106 
Q 4594 3494 4594 2528 
Q 4594 1922 4372 1459 
Q 4150 997 3647 556 
L 4647 556 
z
" transform="scale(0.015625)"/>
      <path id="DejaVuSans-32" d="M 1228 531 
L 3431 531 
L 3431 0 
L 469 0 
L 469 531 
Q 828 903 1448 1529 
Q 2069 2156 2228 2338 
Q 2531 2678 2651 2914 
Q 2772 3150 2772 3378 
Q 2772 3750 2511 3984 
Q 2250 4219 1831 4219 
Q 1534 4219 1204 4116 
Q 875 4013 500 3803 
L 500 4441 
Q 881 4594 1212 4672 
Q 1544 4750 1819 4750 
Q 2544 4750 2975 4387 
Q 3406 4025 3406 3419 
Q 3406 3131 3298 2873 
Q 3191 2616 2906 2266 
Q 2828 2175 2409 1742 
Q 1991 1309 1228 531 
z
" transform="scale(0.015625)"/>
      <path id="DejaVuSans-2c" d="M 750 794 
L 1409 794 
L 1409 256 
L 897 -744 
L 494 -744 
L 750 256 
L 750 794 
z
" transform="scale(0.015625)"/>
      <path id="DejaVuSans-30" d="M 2034 4250 
Q 1547 4250 1301 3770 
Q 1056 3291 1056 2328 
Q 1056 1369 1301 889 
Q 1547 409 2034 409 
Q 2525 409 2770 889 
Q 3016 1369 3016 2328 
Q 3016 3291 2770 3770 
Q 2525 4250 2034 4250 
z
M 2034 4750 
Q 2819 4750 3233 4129 
Q 3647 3509 3647 2328 
Q 3647 1150 3233 529 
Q 2819 -91 2034 -91 
Q 1250 -91 836 529 
Q 422 1150 422 2328 
Q 422 3509 836 4129 
Q 1250 4750 2034 4750 
z
" transform="scale(0.015625)"/>
      <path id="DejaVuSans-20" transform="scale(0.015625)"/>
      <path id="DejaVuSans-3d" d="M 678 2906 
L 4684 2906 
L 4684 2381 
L 678 2381 
L 678 2906 
z
M 678 1631 
L 4684 1631 
L 4684 1100 
L 678 1100 
L 678 1631 
z
" transform="scale(0.015625)"/>
      <path id="DejaVuSans-2e" d="M 684 794 
L 1344 794 
L 1344 0 
L 684 0 
L 684 794 
z
" transform="scale(0.015625)"/>
      <path id="DejaVuSans-33" d="M 2597 2516 
Q 3050 2419 3304 2112 
Q 3559 1806 3559 1356 
Q 3559 666 3084 287 
Q 2609 -91 1734 -91 
Q 1441 -91 1130 -33 
Q 819 25 488 141 
L 488 750 
Q 750 597 1062 519 
Q 1375 441 1716 441 
Q 2309 441 2620 675 
Q 2931 909 2931 1356 
Q 2931 1769 2642 2001 
Q 2353 2234 1838 2234 
L 1294 2234 
L 1294 2753 
L 1863 2753 
Q 2328 2753 2575 2939 
Q 2822 3125 2822 3475 
Q 2822 3834 2567 4026 
Q 2313 4219 1838 4219 
Q 1578 4219 1281 4162 
Q 984 4106 628 3988 
L 628 4550 
Q 988 4650 1302 4700 
Q 1616 4750 1894 4750 
Q 2613 4750 3031 4423 
Q 3450 4097 3450 3541 
Q 3450 3153 3228 2886 
Q 3006 2619 2597 2516 
z
" transform="scale(0.015625)"/>
      <path id="DejaVuSans-34" d="M 2419 4116 
L 825 1625 
L 2419 1625 
L 2419 4116 
z
M 2253 4666 
L 3047 4666 
L 3047 1625 
L 3713 1625 
L 3713 1100 
L 3047 1100 
L 3047 0 
L 2419 0 
L 2419 1100 
L 313 1100 
L 313 1709 
L 2253 4666 
z
" transform="scale(0.015625)"/>
      <path id="DejaVuSans-38" d="M 2034 2216 
Q 1584 2216 1326 1975 
Q 1069 1734 1069 1313 
Q 1069 891 1326 650 
Q 1584 409 2034 409 
Q 2484 409 2743 651 
Q 3003 894 3003 1313 
Q 3003 1734 2745 1975 
Q 2488 2216 2034 2216 
z
M 1403 2484 
Q 997 2584 770 2862 
Q 544 3141 544 3541 
Q 544 4100 942 4425 
Q 1341 4750 2034 4750 
Q 2731 4750 3128 4425 
Q 3525 4100 3525 3541 
Q 3525 3141 3298 2862 
Q 3072 2584 2669 2484 
Q 3125 2378 3379 2068 
Q 3634 1759 3634 1313 
Q 3634 634 3220 271 
Q 2806 -91 2034 -91 
Q 1263 -91 848 271 
Q 434 634 434 1313 
Q 434 1759 690 2068 
Q 947 2378 1403 2484 
z
M 1172 3481 
Q 1172 3119 1398 2916 
Q 1625 2713 2034 2713 
Q 2441 2713 2670 2916 
Q 2900 3119 2900 3481 
Q 2900 3844 2670 4047 
Q 2441 4250 2034 4250 
Q 1625 4250 1398 4047 
Q 1172 3844 1172 3481 
z
" transform="scale(0.015625)"/>
      <path id="DejaVuSans-39" d="M 703 97 
L 703 672 
Q 941 559 1184 500 
Q 1428 441 1663 441 
Q 2288 441 2617 861 
Q 2947 1281 2994 2138 
Q 2813 1869 2534 1725 
Q 2256 1581 1919 1581 
Q 1219 1581 811 2004 
Q 403 2428 403 3163 
Q 403 3881 828 4315 
Q 1253 4750 1959 4750 
Q 2769 4750 3195 4129 
Q 3622 3509 3622 2328 
Q 3622 1225 3098 567 
Q 2575 -91 1691 -91 
Q 1453 -91 1209 -44 
Q 966 3 703 97 
z
M 1959 2075 
Q 2384 2075 2632 2365 
Q 2881 2656 2881 3163 
Q 2881 3666 2632 3958 
Q 2384 4250 1959 4250 
Q 1534 4250 1286 3958 
Q 1038 3666 1038 3163 
Q 1038 2656 1286 2365 
Q 1534 2075 1959 2075 
z
" transform="scale(0.015625)"/>
      <path id="DejaVuSans-2b" d="M 2944 4013 
L 2944 2272 
L 4684 2272 
L 4684 1741 
L 2944 1741 
L 2944 0 
L 2419 0 
L 2419 1741 
L 678 1741 
L 678 2272 
L 2419 2272 
L 2419 4013 
L 2944 4013 
z
" transform="scale(0.015625)"/>
      <path id="DejaVuSans-31" d="M 794 531 
L 1825 531 
L 1825 4091 
L 703 3866 
L 703 4441 
L 1819 4666 
L 2450 4666 
L 2450 531 
L 3481 531 
L 3481 0 
L 794 0 
L 794 531 
z
" transform="scale(0.015625)"/>
      <path id="DejaVuSans-2212" d="M 678 2272 
L 4684 2272 
L 4684 1741 
L 678 1741 
L 678 2272 
z
" transform="scale(0.015625)"/>
      <path id="DejaVuSans-37" d="M 525 4666 
L 3525 4666 
L 3525 4397 
L 1831 0 
L 1172 0 
L 2766 4134 
L 525 4134 
L 525 4666 
z
" transform="scale(0.015625)"/>
     </defs>
     <use xlink:href="#DejaVuSans-3a9" transform="translate(0 0.765625)"/>
     <use xlink:href="#DejaVuSans-32" transform="translate(77.373047 -15.640625) scale(0.7)"/>
     <use xlink:href="#DejaVuSans-2c" transform="translate(121.90918 -15.640625) scale(0.7)"/>
     <use xlink:href="#DejaVuSans-30" transform="translate(157.797852 -15.640625) scale(0.7)"/>
     <use xlink:href="#DejaVuSans-20" transform="translate(205.068359 0.765625)"/>
     <use xlink:href="#DejaVuSans-3d" transform="translate(236.855469 0.765625)"/>
     <use xlink:href="#DejaVuSans-20" transform="translate(320.644531 0.765625)"/>
     <use xlink:href="#DejaVuSans-30" transform="translate(352.431641 0.765625)"/>
     <use xlink:href="#DejaVuSans-2e" transform="translate(416.054688 0.765625)"/>
     <use xlink:href="#DejaVuSans-33" transform="translate(447.841797 0.765625)"/>
     <use xlink:href="#DejaVuSans-34" transform="translate(511.464844 0.765625)"/>
     <use xlink:href="#DejaVuSans-38" transform="translate(575.087891 0.765625)"/>
     <use xlink:href="#DejaVuSans-39" transform="translate(638.710938 0.765625)"/>
     <use xlink:href="#DejaVuSans-2b" transform="translate(703.291016 39.046875) scale(0.7)"/>
     <use xlink:href="#DejaVuSans-30" transform="translate(761.943359 39.046875) scale(0.7)"/>
     <use xlink:href="#DejaVuSans-2e" transform="translate(806.479492 39.046875) scale(0.7)"/>
     <use xlink:href="#DejaVuSans-30" transform="translate(828.730469 39.046875) scale(0.7)"/>
     <use xlink:href="#DejaVuSans-31" transform="translate(873.266602 39.046875) scale(0.7)"/>
     <use xlink:href="#DejaVuSans-38" transform="translate(917.802734 39.046875) scale(0.7)"/>
     <use xlink:href="#DejaVuSans-39" transform="translate(962.338867 39.046875) scale(0.7)"/>
     <use xlink:href="#DejaVuSans-2212" transform="translate(703.291016 -26.578125) scale(0.7)"/>
     <use xlink:href="#DejaVuSans-30" transform="translate(761.943359 -26.578125) scale(0.7)"/>
     <use xlink:href="#DejaVuSans-2e" transform="translate(806.479492 -26.578125) scale(0.7)"/>
     <use xlink:href="#DejaVuSans-30" transform="translate(828.730469 -26.578125) scale(0.7)"/>
     <use xlink:href="#DejaVuSans-31" transform="translate(873.266602 -26.578125) scale(0.7)"/>
     <use xlink:href="#DejaVuSans-39" transform="translate(917.802734 -26.578125) scale(0.7)"/>
     <use xlink:href="#DejaVuSans-37" transform="translate(962.338867 -26.578125) scale(0.7)"/>
    </g>
   </g>
  </g>
  <g id="axes_2">
   <g id="matplotlib.axis_3"/>
   <g id="matplotlib.axis_4"/>
  </g>
  <g id="axes_3">
   <g id="patch_7">
    <path d="M 66.96 329.04 
L 214.593505 329.04 
L 214.593505 195.504 
L 66.96 195.504 
z
" style="fill: #ffffff"/>
   </g>
   <g id="QuadContourSet_1">
    <path d="M 112.726387 322.920927 
L 115.679057 323.962378 
L 118.631727 323.504136 
L 121.584397 322.617638 
L 124.46679 322.3632 
L 124.537067 322.355608 
L 124.556403 322.3632 
L 127.489737 323.175957 
L 130.442407 323.942752 
L 133.395077 324.197277 
L 136.347747 323.988794 
L 139.300418 323.418963 
L 142.253088 323.02513 
L 145.205758 322.816748 
L 147.154079 322.3632 
L 148.158428 322.217503 
L 151.111098 321.437573 
L 154.063768 320.598338 
L 157.016438 319.912996 
L 158.073933 319.69248 
L 159.969108 319.498181 
L 162.921778 318.924573 
L 165.874448 317.786473 
L 167.284997 317.02176 
L 168.827119 316.257432 
L 171.779789 314.490798 
L 172.039052 314.35104 
L 174.732459 312.898753 
L 176.565176 311.68032 
L 177.685129 310.839408 
L 179.83275 309.0096 
L 180.637799 307.958107 
L 182.128926 306.33888 
L 183.590469 304.267673 
L 184.218967 303.66816 
L 185.860732 300.99744 
L 186.204515 298.32672 
L 186.320065 295.656 
L 186.543139 294.569844 
L 186.973355 292.98528 
L 187.962844 290.31456 
L 189.079419 287.64384 
L 189.495809 286.18859 
L 189.796935 284.97312 
L 189.495809 282.899255 
L 189.396639 282.3024 
L 188.898871 279.63168 
L 188.462544 276.96096 
L 187.529022 274.29024 
L 187.702155 271.61952 
L 189.173483 268.9488 
L 189.495809 267.968156 
L 189.962097 266.27808 
L 189.924713 263.60736 
L 189.495809 261.881802 
L 189.272544 260.93664 
L 188.73574 258.26592 
L 188.800713 255.5952 
L 189.321836 252.92448 
L 189.495809 250.25376 
L 188.465039 247.58304 
L 187.274496 244.91232 
L 187.374655 242.2416 
L 187.818237 239.57088 
L 188.186114 236.90016 
L 188.06035 234.22944 
L 187.351962 231.55872 
L 186.736332 228.888 
L 186.77662 226.21728 
L 187.828236 223.54656 
L 188.803877 220.87584 
L 189.403086 218.20512 
L 189.495809 217.084563 
L 189.649728 215.5344 
L 189.495809 214.15821 
L 189.376227 212.86368 
L 189.051578 210.19296 
L 188.687601 207.52224 
L 188.642503 204.85152 
L 188.844266 202.1808 
L 188.360031 199.51008 
L 186.814318 196.83936 
L 186.814318 194.16864 
L 186.543139 194.057913 
L 183.590469 193.213284 
L 180.637799 192.723106 
L 177.685129 192.437516 
L 174.732459 192.2588 
L 171.779789 192.083688 
L 168.827119 191.939887 
L 165.874448 191.855938 
L 162.921778 191.83629 
L 159.969108 191.844805 
L 157.016438 191.871916 
L 154.063768 191.926184 
L 151.111098 191.96044 
L 148.158428 192.005639 
L 145.205758 192.121719 
L 142.253088 192.359957 
L 139.300418 192.810681 
L 136.347747 193.878432 
L 135.763821 194.16864 
L 135.763821 196.83936 
L 135.506864 199.51008 
L 135.097668 202.1808 
L 135.138498 204.85152 
L 135.462262 207.52224 
L 135.306843 210.19296 
L 135.329823 212.86368 
L 136.329804 215.5344 
L 136.347747 215.588484 
L 136.927743 218.20512 
L 136.804407 220.87584 
L 136.466239 223.54656 
L 136.347747 224.444162 
L 135.936311 226.21728 
L 135.73895 228.888 
L 136.347747 230.579785 
L 136.552027 231.55872 
L 136.617151 234.22944 
L 136.347747 235.652652 
L 136.010743 236.90016 
L 135.803045 239.57088 
L 136.180438 242.2416 
L 136.347747 242.944107 
L 136.662607 244.91232 
L 136.885265 247.58304 
L 136.683683 250.25376 
L 136.357958 252.92448 
L 136.347747 253.034819 
L 135.983961 255.5952 
L 135.670331 258.26592 
L 135.441041 260.93664 
L 135.60202 263.60736 
L 136.104791 266.27808 
L 136.347747 268.065421 
L 136.42453 268.9488 
L 136.395157 271.61952 
L 136.362149 274.29024 
L 136.613058 276.96096 
L 136.610932 279.63168 
L 136.347747 281.829578 
L 136.255113 282.3024 
L 135.724059 284.97312 
L 135.204035 287.64384 
L 135.107153 290.31456 
L 135.266425 292.98528 
L 135.09274 295.656 
L 134.305069 298.32672 
L 133.463459 300.99744 
L 133.395077 301.281204 
L 132.574333 303.66816 
L 131.648349 306.33888 
L 130.442407 308.36461 
L 129.975555 309.0096 
L 127.576859 311.68032 
L 127.489737 311.808474 
L 125.202332 314.35104 
L 124.537067 315.109606 
L 121.584397 316.044991 
L 118.631727 316.616896 
L 117.801442 317.02176 
L 115.679057 318.188033 
L 113.67735 319.69248 
L 112.726387 321.492445 
L 111.531572 322.3632 
z
" clip-path="url(#p83e0d331b6)" style="fill: #ffffff"/>
   </g>
   <g id="QuadContourSet_2">
    <path d="M 65.483665 333.04608 
L 68.436335 333.04608 
L 71.389005 333.04608 
L 74.341675 333.04608 
L 77.294345 333.04608 
L 80.247015 333.04608 
L 83.199686 333.04608 
L 86.152356 333.04608 
L 89.105026 333.04608 
L 92.057696 333.04608 
L 95.010366 333.04608 
L 97.963036 333.04608 
L 100.915706 333.04608 
L 103.868376 333.04608 
L 106.821046 333.04608 
L 109.773716 333.04608 
L 112.726387 333.04608 
L 115.679057 333.04608 
L 118.631727 333.04608 
L 121.584397 333.04608 
L 124.537067 333.04608 
L 127.489737 333.04608 
L 130.442407 333.04608 
L 133.395077 333.04608 
L 136.347747 333.04608 
L 139.300418 333.04608 
L 142.253088 333.04608 
L 145.205758 333.04608 
L 148.158428 333.04608 
L 151.111098 333.04608 
L 154.063768 333.04608 
L 157.016438 333.04608 
L 159.969108 333.04608 
L 162.921778 333.04608 
L 165.874448 333.04608 
L 168.827119 333.04608 
L 171.779789 333.04608 
L 174.732459 333.04608 
L 177.685129 333.04608 
L 180.637799 333.04608 
L 183.590469 333.04608 
L 186.543139 333.04608 
L 189.495809 333.04608 
L 192.448479 333.04608 
L 195.401149 333.04608 
L 198.35382 333.04608 
L 201.30649 333.04608 
L 204.25916 333.04608 
L 207.21183 333.04608 
L 210.1645 333.04608 
L 213.11717 333.04608 
L 216.06984 333.04608 
L 219.02251 333.04608 
L 219.02251 330.37536 
L 219.02251 327.70464 
L 219.02251 325.03392 
L 219.02251 322.3632 
L 219.02251 319.69248 
L 219.02251 317.02176 
L 219.02251 314.35104 
L 219.02251 311.68032 
L 219.02251 309.0096 
L 219.02251 306.33888 
L 219.02251 303.66816 
L 219.02251 300.99744 
L 219.02251 298.32672 
L 219.02251 295.656 
L 219.02251 292.98528 
L 219.02251 290.31456 
L 219.02251 287.64384 
L 219.02251 284.97312 
L 219.02251 282.3024 
L 219.02251 279.63168 
L 219.02251 276.96096 
L 219.02251 274.29024 
L 219.02251 271.61952 
L 219.02251 268.9488 
L 219.02251 266.27808 
L 219.02251 263.60736 
L 219.02251 260.93664 
L 219.02251 258.26592 
L 219.02251 255.5952 
L 219.02251 252.92448 
L 219.02251 250.25376 
L 219.02251 247.58304 
L 219.02251 244.91232 
L 219.02251 242.2416 
L 219.02251 239.57088 
L 219.02251 236.90016 
L 219.02251 234.22944 
L 219.02251 231.55872 
L 219.02251 228.888 
L 219.02251 226.21728 
L 219.02251 223.54656 
L 219.02251 220.87584 
L 219.02251 218.20512 
L 219.02251 215.5344 
L 219.02251 212.86368 
L 219.02251 210.19296 
L 219.02251 207.52224 
L 219.02251 204.85152 
L 219.02251 202.1808 
L 219.02251 199.51008 
L 219.02251 196.83936 
L 219.02251 194.16864 
L 219.02251 191.49792 
L 216.06984 191.49792 
L 213.11717 191.49792 
L 210.1645 191.49792 
L 207.21183 191.49792 
L 204.25916 191.49792 
L 201.30649 191.49792 
L 198.35382 191.49792 
L 195.401149 191.49792 
L 192.448479 191.49792 
L 189.495809 191.49792 
L 186.543139 191.49792 
L 183.590469 191.49792 
L 180.637799 191.49792 
L 177.685129 191.49792 
L 174.732459 191.49792 
L 171.779789 191.49792 
L 168.827119 191.49792 
L 165.874448 191.49792 
L 162.921778 191.49792 
L 159.969108 191.49792 
L 157.016438 191.49792 
L 154.063768 191.49792 
L 151.111098 191.49792 
L 148.158428 191.49792 
L 145.205758 191.49792 
L 142.253088 191.49792 
L 139.300418 191.49792 
L 136.347747 191.49792 
L 133.395077 191.49792 
L 130.442407 191.49792 
L 127.489737 191.49792 
L 124.537067 191.49792 
L 121.584397 191.49792 
L 118.631727 191.49792 
L 115.679057 191.49792 
L 112.726387 191.49792 
L 109.773716 191.49792 
L 106.821046 191.49792 
L 103.868376 191.49792 
L 100.915706 191.49792 
L 97.963036 191.49792 
L 95.010366 191.49792 
L 92.057696 191.49792 
L 89.105026 191.49792 
L 86.152356 191.49792 
L 83.199686 191.49792 
L 80.247015 191.49792 
L 77.294345 191.49792 
L 74.341675 191.49792 
L 71.389005 191.49792 
L 68.436335 191.49792 
L 65.483665 191.49792 
L 62.530995 191.49792 
L 62.530995 194.16864 
L 62.530995 196.83936 
L 62.530995 199.51008 
L 62.530995 202.1808 
L 62.530995 204.85152 
L 62.530995 207.52224 
L 62.530995 210.19296 
L 62.530995 212.86368 
L 62.530995 215.5344 
L 62.530995 218.20512 
L 62.530995 220.87584 
L 62.530995 223.54656 
L 62.530995 226.21728 
L 62.530995 228.888 
L 62.530995 231.55872 
L 62.530995 234.22944 
L 62.530995 236.90016 
L 62.530995 239.57088 
L 62.530995 242.2416 
L 62.530995 244.91232 
L 62.530995 247.58304 
L 62.530995 250.25376 
L 62.530995 252.92448 
L 62.530995 255.5952 
L 62.530995 258.26592 
L 62.530995 260.93664 
L 62.530995 263.60736 
L 62.530995 266.27808 
L 62.530995 268.9488 
L 62.530995 271.61952 
L 62.530995 274.29024 
L 62.530995 276.96096 
L 62.530995 279.63168 
L 62.530995 282.3024 
L 62.530995 284.97312 
L 62.530995 287.64384 
L 62.530995 290.31456 
L 62.530995 292.98528 
L 62.530995 295.656 
L 62.530995 298.32672 
L 62.530995 300.99744 
L 62.530995 303.66816 
L 62.530995 306.33888 
L 62.530995 309.0096 
L 62.530995 311.68032 
L 62.530995 314.35104 
L 62.530995 317.02176 
L 62.530995 319.69248 
L 62.530995 322.3632 
L 62.530995 325.03392 
L 62.530995 327.70464 
L 62.530995 330.37536 
L 62.530995 333.04608 
L 65.483665 333.04608 
z
M 111.531572 322.3632 
L 112.726387 321.492445 
L 113.67735 319.69248 
L 115.679057 318.188033 
L 117.801442 317.02176 
L 118.631727 316.616896 
L 121.584397 316.044991 
L 124.537067 315.109606 
L 125.202332 314.35104 
L 127.489737 311.808474 
L 127.576859 311.68032 
L 129.975555 309.0096 
L 130.442407 308.36461 
L 131.648349 306.33888 
L 132.574333 303.66816 
L 133.395077 301.281204 
L 133.463459 300.99744 
L 134.305069 298.32672 
L 135.09274 295.656 
L 135.266425 292.98528 
L 135.107153 290.31456 
L 135.204035 287.64384 
L 135.724059 284.97312 
L 136.255113 282.3024 
L 136.347747 281.829578 
L 136.610932 279.63168 
L 136.613058 276.96096 
L 136.362149 274.29024 
L 136.395157 271.61952 
L 136.42453 268.9488 
L 136.347747 268.065421 
L 136.104791 266.27808 
L 135.60202 263.60736 
L 135.441041 260.93664 
L 135.670331 258.26592 
L 135.983961 255.5952 
L 136.347747 253.034819 
L 136.357958 252.92448 
L 136.683683 250.25376 
L 136.885265 247.58304 
L 136.662607 244.91232 
L 136.347747 242.944107 
L 136.180438 242.2416 
L 135.803045 239.57088 
L 136.010743 236.90016 
L 136.347747 235.652652 
L 136.617151 234.22944 
L 136.552027 231.55872 
L 136.347747 230.579785 
L 135.73895 228.888 
L 135.936311 226.21728 
L 136.347747 224.444162 
L 136.466239 223.54656 
L 136.804407 220.87584 
L 136.927743 218.20512 
L 136.347747 215.588484 
L 136.329804 215.5344 
L 135.329823 212.86368 
L 135.306843 210.19296 
L 135.462262 207.52224 
L 135.138498 204.85152 
L 135.097668 202.1808 
L 135.506864 199.51008 
L 135.763821 196.83936 
L 135.763821 194.16864 
L 136.347747 193.878432 
L 139.300418 192.810681 
L 142.253088 192.359957 
L 145.205758 192.121719 
L 148.158428 192.005639 
L 151.111098 191.96044 
L 154.063768 191.926184 
L 157.016438 191.871916 
L 159.969108 191.844805 
L 162.921778 191.83629 
L 165.874448 191.855938 
L 168.827119 191.939887 
L 171.779789 192.083688 
L 174.732459 192.2588 
L 177.685129 192.437516 
L 180.637799 192.723106 
L 183.590469 193.213284 
L 186.543139 194.057913 
L 186.814318 194.16864 
L 186.814318 196.83936 
L 188.360031 199.51008 
L 188.844266 202.1808 
L 188.642503 204.85152 
L 188.687601 207.52224 
L 189.051578 210.19296 
L 189.376227 212.86368 
L 189.495809 214.15821 
L 189.649728 215.5344 
L 189.495809 217.084563 
L 189.403086 218.20512 
L 188.803877 220.87584 
L 187.828236 223.54656 
L 186.77662 226.21728 
L 186.736332 228.888 
L 187.351962 231.55872 
L 188.06035 234.22944 
L 188.186114 236.90016 
L 187.818237 239.57088 
L 187.374655 242.2416 
L 187.274496 244.91232 
L 188.465039 247.58304 
L 189.495809 250.25376 
L 189.321836 252.92448 
L 188.800713 255.5952 
L 188.73574 258.26592 
L 189.272544 260.93664 
L 189.495809 261.881802 
L 189.924713 263.60736 
L 189.962097 266.27808 
L 189.495809 267.968156 
L 189.173483 268.9488 
L 187.702155 271.61952 
L 187.529022 274.29024 
L 188.462544 276.96096 
L 188.898871 279.63168 
L 189.396639 282.3024 
L 189.495809 282.899255 
L 189.796935 284.97312 
L 189.495809 286.18859 
L 189.079419 287.64384 
L 187.962844 290.31456 
L 186.973355 292.98528 
L 186.543139 294.569844 
L 186.320065 295.656 
L 186.204515 298.32672 
L 185.860732 300.99744 
L 184.218967 303.66816 
L 183.590469 304.267673 
L 182.128926 306.33888 
L 180.637799 307.958107 
L 179.83275 309.0096 
L 177.685129 310.839408 
L 176.565176 311.68032 
L 174.732459 312.898753 
L 172.039052 314.35104 
L 171.779789 314.490798 
L 168.827119 316.257432 
L 167.284997 317.02176 
L 165.874448 317.786473 
L 162.921778 318.924573 
L 159.969108 319.498181 
L 158.073933 319.69248 
L 157.016438 319.912996 
L 154.063768 320.598338 
L 151.111098 321.437573 
L 148.158428 322.217503 
L 147.154079 322.3632 
L 145.205758 322.816748 
L 142.253088 323.02513 
L 139.300418 323.418963 
L 136.347747 323.988794 
L 133.395077 324.197277 
L 130.442407 323.942752 
L 127.489737 323.175957 
L 124.556403 322.3632 
L 124.537067 322.355608 
L 124.46679 322.3632 
L 121.584397 322.617638 
L 118.631727 323.504136 
L 115.679057 323.962378 
L 112.726387 322.920927 
L 111.531572 322.3632 
z
" clip-path="url(#p83e0d331b6)" style="fill: none"/>
    <path d="M 112.726387 322.920927 
L 115.679057 323.962378 
L 118.631727 323.504136 
L 121.584397 322.617638 
L 124.46679 322.3632 
L 124.537067 322.355608 
L 124.556403 322.3632 
L 127.489737 323.175957 
L 130.442407 323.942752 
L 133.395077 324.197277 
L 136.347747 323.988794 
L 139.300418 323.418963 
L 142.253088 323.02513 
L 145.205758 322.816748 
L 147.154079 322.3632 
L 148.158428 322.217503 
L 151.111098 321.437573 
L 154.063768 320.598338 
L 157.016438 319.912996 
L 158.073933 319.69248 
L 159.969108 319.498181 
L 162.921778 318.924573 
L 165.874448 317.786473 
L 167.284997 317.02176 
L 168.827119 316.257432 
L 171.779789 314.490798 
L 172.039052 314.35104 
L 174.732459 312.898753 
L 176.565176 311.68032 
L 177.685129 310.839408 
L 179.83275 309.0096 
L 180.637799 307.958107 
L 182.128926 306.33888 
L 183.590469 304.267673 
L 184.218967 303.66816 
L 185.860732 300.99744 
L 186.204515 298.32672 
L 186.320065 295.656 
L 186.543139 294.569844 
L 186.973355 292.98528 
L 187.962844 290.31456 
L 189.079419 287.64384 
L 189.495809 286.18859 
L 189.796935 284.97312 
L 189.495809 282.899255 
L 189.396639 282.3024 
L 188.898871 279.63168 
L 188.462544 276.96096 
L 187.529022 274.29024 
L 187.702155 271.61952 
L 189.173483 268.9488 
L 189.495809 267.968156 
L 189.962097 266.27808 
L 189.924713 263.60736 
L 189.495809 261.881802 
L 189.272544 260.93664 
L 188.73574 258.26592 
L 188.800713 255.5952 
L 189.321836 252.92448 
L 189.495809 250.25376 
L 188.465039 247.58304 
L 187.274496 244.91232 
L 187.374655 242.2416 
L 187.818237 239.57088 
L 188.186114 236.90016 
L 188.06035 234.22944 
L 187.351962 231.55872 
L 186.736332 228.888 
L 186.77662 226.21728 
L 187.828236 223.54656 
L 188.803877 220.87584 
L 189.403086 218.20512 
L 189.495809 217.084563 
L 189.649728 215.5344 
L 189.495809 214.15821 
L 189.376227 212.86368 
L 189.051578 210.19296 
L 188.687601 207.52224 
L 188.642503 204.85152 
L 188.844266 202.1808 
L 188.360031 199.51008 
L 186.814318 196.83936 
L 186.814318 194.16864 
L 186.543139 194.057913 
L 183.590469 193.213284 
L 180.637799 192.723106 
L 177.685129 192.437516 
L 174.732459 192.2588 
L 171.779789 192.083688 
L 168.827119 191.939887 
L 165.874448 191.855938 
L 162.921778 191.83629 
L 159.969108 191.844805 
L 157.016438 191.871916 
L 154.063768 191.926184 
L 151.111098 191.96044 
L 148.158428 192.005639 
L 145.205758 192.121719 
L 142.253088 192.359957 
L 139.300418 192.810681 
L 136.347747 193.878432 
L 135.763821 194.16864 
L 135.763821 196.83936 
L 135.506864 199.51008 
L 135.097668 202.1808 
L 135.138498 204.85152 
L 135.462262 207.52224 
L 135.306843 210.19296 
L 135.329823 212.86368 
L 136.329804 215.5344 
L 136.347747 215.588484 
L 136.927743 218.20512 
L 136.804407 220.87584 
L 136.466239 223.54656 
L 136.347747 224.444162 
L 135.936311 226.21728 
L 135.73895 228.888 
L 136.347747 230.579785 
L 136.552027 231.55872 
L 136.617151 234.22944 
L 136.347747 235.652652 
L 136.010743 236.90016 
L 135.803045 239.57088 
L 136.180438 242.2416 
L 136.347747 242.944107 
L 136.662607 244.91232 
L 136.885265 247.58304 
L 136.683683 250.25376 
L 136.357958 252.92448 
L 136.347747 253.034819 
L 135.983961 255.5952 
L 135.670331 258.26592 
L 135.441041 260.93664 
L 135.60202 263.60736 
L 136.104791 266.27808 
L 136.347747 268.065421 
L 136.42453 268.9488 
L 136.395157 271.61952 
L 136.362149 274.29024 
L 136.613058 276.96096 
L 136.610932 279.63168 
L 136.347747 281.829578 
L 136.255113 282.3024 
L 135.724059 284.97312 
L 135.204035 287.64384 
L 135.107153 290.31456 
L 135.266425 292.98528 
L 135.09274 295.656 
L 134.305069 298.32672 
L 133.463459 300.99744 
L 133.395077 301.281204 
L 132.574333 303.66816 
L 131.648349 306.33888 
L 130.442407 308.36461 
L 129.975555 309.0096 
L 127.576859 311.68032 
L 127.489737 311.808474 
L 125.202332 314.35104 
L 124.537067 315.109606 
L 121.584397 316.044991 
L 118.631727 316.616896 
L 117.801442 317.02176 
L 115.679057 318.188033 
L 113.67735 319.69248 
L 112.726387 321.492445 
L 111.531572 322.3632 
z
M 141.401237 314.35104 
L 142.112033 311.68032 
L 142.253088 311.496051 
L 143.930343 309.0096 
L 145.205758 307.024568 
L 145.521826 306.33888 
L 145.941795 303.66816 
L 146.428674 300.99744 
L 147.587954 298.32672 
L 148.047078 295.656 
L 147.480002 292.98528 
L 147.239078 290.31456 
L 147.99123 287.64384 
L 148.158428 286.708408 
L 148.482518 284.97312 
L 148.23382 282.3024 
L 148.158428 281.721395 
L 147.912799 279.63168 
L 147.780508 276.96096 
L 147.933662 274.29024 
L 148.006836 271.61952 
L 147.623505 268.9488 
L 147.227473 266.27808 
L 147.653345 263.60736 
L 148.158428 261.567634 
L 148.295315 260.93664 
L 148.216045 258.26592 
L 148.197033 255.5952 
L 148.251902 252.92448 
L 148.399933 250.25376 
L 148.403408 247.58304 
L 148.34564 244.91232 
L 148.158428 243.372794 
L 148.013315 242.2416 
L 147.57452 239.57088 
L 147.19208 236.90016 
L 147.01333 234.22944 
L 147.114062 231.55872 
L 147.243276 228.888 
L 146.95616 226.21728 
L 146.622597 223.54656 
L 146.764124 220.87584 
L 147.170691 218.20512 
L 147.25119 215.5344 
L 147.341097 212.86368 
L 147.759147 210.19296 
L 147.736371 207.52224 
L 147.046151 204.85152 
L 146.437625 202.1808 
L 146.555218 199.51008 
L 147.054406 196.83936 
L 147.054406 194.16864 
L 148.158428 193.982816 
L 151.111098 193.7616 
L 154.063768 193.593945 
L 157.016438 193.328342 
L 159.969108 193.195657 
L 162.921778 193.153983 
L 165.874448 193.250143 
L 168.827119 193.661007 
L 171.113233 194.16864 
L 171.113233 196.83936 
L 171.779789 197.867763 
L 172.980063 199.51008 
L 174.06164 202.1808 
L 174.572176 204.85152 
L 174.612101 207.52224 
L 174.492597 210.19296 
L 174.640991 212.86368 
L 174.694653 215.5344 
L 174.732459 218.20512 
L 174.625738 220.87584 
L 174.68253 223.54656 
L 174.732459 224.384522 
L 174.838909 226.21728 
L 174.732459 228.363344 
L 174.707317 228.888 
L 174.571761 231.55872 
L 174.581294 234.22944 
L 174.732459 235.50394 
L 174.926687 236.90016 
L 175.159436 239.57088 
L 174.931242 242.2416 
L 174.732459 243.110593 
L 174.385909 244.91232 
L 174.056867 247.58304 
L 174.046309 250.25376 
L 174.014951 252.92448 
L 174.317731 255.5952 
L 174.608477 258.26592 
L 174.322982 260.93664 
L 174.280966 263.60736 
L 174.477199 266.27808 
L 174.506349 268.9488 
L 174.381783 271.61952 
L 174.257211 274.29024 
L 174.142103 276.96096 
L 173.827553 279.63168 
L 173.505755 282.3024 
L 173.866906 284.97312 
L 174.732459 287.411658 
L 174.819352 287.64384 
L 174.912893 290.31456 
L 174.732459 290.858982 
L 173.906424 292.98528 
L 173.018088 295.656 
L 172.473975 298.32672 
L 172.205339 300.99744 
L 171.845065 303.66816 
L 171.779789 303.795276 
L 170.452791 306.33888 
L 168.827119 307.850642 
L 167.301923 309.0096 
L 165.874448 310.082521 
L 163.815741 311.68032 
L 162.921778 312.278081 
L 159.969108 313.79767 
L 157.884704 314.35104 
L 157.016438 314.516996 
L 154.063768 314.53984 
L 151.111098 314.48364 
L 148.158428 315.305239 
L 145.205758 315.973678 
L 142.253088 315.038254 
z
" clip-path="url(#p83e0d331b6)" style="fill: #008000; fill-opacity: 0.333333"/>
    <path d="M 142.253088 315.038254 
L 145.205758 315.973678 
L 148.158428 315.305239 
L 151.111098 314.48364 
L 154.063768 314.53984 
L 157.016438 314.516996 
L 157.884704 314.35104 
L 159.969108 313.79767 
L 162.921778 312.278081 
L 163.815741 311.68032 
L 165.874448 310.082521 
L 167.301923 309.0096 
L 168.827119 307.850642 
L 170.452791 306.33888 
L 171.779789 303.795276 
L 171.845065 303.66816 
L 172.205339 300.99744 
L 172.473975 298.32672 
L 173.018088 295.656 
L 173.906424 292.98528 
L 174.732459 290.858982 
L 174.912893 290.31456 
L 174.819352 287.64384 
L 174.732459 287.411658 
L 173.866906 284.97312 
L 173.505755 282.3024 
L 173.827553 279.63168 
L 174.142103 276.96096 
L 174.257211 274.29024 
L 174.381783 271.61952 
L 174.506349 268.9488 
L 174.477199 266.27808 
L 174.280966 263.60736 
L 174.322982 260.93664 
L 174.608477 258.26592 
L 174.317731 255.5952 
L 174.014951 252.92448 
L 174.046309 250.25376 
L 174.056867 247.58304 
L 174.385909 244.91232 
L 174.732459 243.110593 
L 174.931242 242.2416 
L 175.159436 239.57088 
L 174.926687 236.90016 
L 174.732459 235.50394 
L 174.581294 234.22944 
L 174.571761 231.55872 
L 174.707317 228.888 
L 174.732459 228.363344 
L 174.838909 226.21728 
L 174.732459 224.384522 
L 174.68253 223.54656 
L 174.625738 220.87584 
L 174.732459 218.20512 
L 174.694653 215.5344 
L 174.640991 212.86368 
L 174.492597 210.19296 
L 174.612101 207.52224 
L 174.572176 204.85152 
L 174.06164 202.1808 
L 172.980063 199.51008 
L 171.779789 197.867763 
L 171.113233 196.83936 
L 171.113233 194.16864 
L 168.827119 193.661007 
L 165.874448 193.250143 
L 162.921778 193.153983 
L 159.969108 193.195657 
L 157.016438 193.328342 
L 154.063768 193.593945 
L 151.111098 193.7616 
L 148.158428 193.982816 
L 147.054406 194.16864 
L 147.054406 196.83936 
L 146.555218 199.51008 
L 146.437625 202.1808 
L 147.046151 204.85152 
L 147.736371 207.52224 
L 147.759147 210.19296 
L 147.341097 212.86368 
L 147.25119 215.5344 
L 147.170691 218.20512 
L 146.764124 220.87584 
L 146.622597 223.54656 
L 146.95616 226.21728 
L 147.243276 228.888 
L 147.114062 231.55872 
L 147.01333 234.22944 
L 147.19208 236.90016 
L 147.57452 239.57088 
L 148.013315 242.2416 
L 148.158428 243.372794 
L 148.34564 244.91232 
L 148.403408 247.58304 
L 148.399933 250.25376 
L 148.251902 252.92448 
L 148.197033 255.5952 
L 148.216045 258.26592 
L 148.295315 260.93664 
L 148.158428 261.567634 
L 147.653345 263.60736 
L 147.227473 266.27808 
L 147.623505 268.9488 
L 148.006836 271.61952 
L 147.933662 274.29024 
L 147.780508 276.96096 
L 147.912799 279.63168 
L 148.158428 281.721395 
L 148.23382 282.3024 
L 148.482518 284.97312 
L 148.158428 286.708408 
L 147.99123 287.64384 
L 147.239078 290.31456 
L 147.480002 292.98528 
L 148.047078 295.656 
L 147.587954 298.32672 
L 146.428674 300.99744 
L 145.941795 303.66816 
L 145.521826 306.33888 
L 145.205758 307.024568 
L 143.930343 309.0096 
L 142.253088 311.496051 
L 142.112033 311.68032 
L 141.401237 314.35104 
z
" clip-path="url(#p83e0d331b6)" style="fill: #008000"/>
   </g>
   <g id="matplotlib.axis_5">
    <g id="xtick_5">
     <g id="line2d_6">
      <g>
       <use xlink:href="#m2d7155e004" x="96.330203" y="329.04" style="stroke: #000000; stroke-width: 0.8"/>
      </g>
     </g>
     <g id="text_2">
      <!-- 0.25 -->
      <g transform="translate(90.409288 357.157081) rotate(-45) scale(0.1 -0.1)">
       <defs>
        <path id="DejaVuSans-35" d="M 691 4666 
L 3169 4666 
L 3169 4134 
L 1269 4134 
L 1269 2991 
Q 1406 3038 1543 3061 
Q 1681 3084 1819 3084 
Q 2600 3084 3056 2656 
Q 3513 2228 3513 1497 
Q 3513 744 3044 326 
Q 2575 -91 1722 -91 
Q 1428 -91 1123 -41 
Q 819 9 494 109 
L 494 744 
Q 775 591 1075 516 
Q 1375 441 1709 441 
Q 2250 441 2565 725 
Q 2881 1009 2881 1497 
Q 2881 1984 2565 2268 
Q 2250 2553 1709 2553 
Q 1456 2553 1204 2497 
Q 953 2441 691 2322 
L 691 4666 
z
" transform="scale(0.015625)"/>
       </defs>
       <use xlink:href="#DejaVuSans-30"/>
       <use xlink:href="#DejaVuSans-2e" x="63.623047"/>
       <use xlink:href="#DejaVuSans-32" x="95.410156"/>
       <use xlink:href="#DejaVuSans-35" x="159.033203"/>
      </g>
     </g>
    </g>
    <g id="xtick_6">
     <g id="line2d_7">
      <g>
       <use xlink:href="#m2d7155e004" x="128.698065" y="329.04" style="stroke: #000000; stroke-width: 0.8"/>
      </g>
     </g>
     <g id="text_3">
      <!-- 0.30 -->
      <g transform="translate(122.777151 357.157081) rotate(-45) scale(0.1 -0.1)">
       <use xlink:href="#DejaVuSans-30"/>
       <use xlink:href="#DejaVuSans-2e" x="63.623047"/>
       <use xlink:href="#DejaVuSans-33" x="95.410156"/>
       <use xlink:href="#DejaVuSans-30" x="159.033203"/>
      </g>
     </g>
    </g>
    <g id="xtick_7">
     <g id="line2d_8">
      <g>
       <use xlink:href="#m2d7155e004" x="161.065928" y="329.04" style="stroke: #000000; stroke-width: 0.8"/>
      </g>
     </g>
     <g id="text_4">
      <!-- 0.35 -->
      <g transform="translate(155.145014 357.157081) rotate(-45) scale(0.1 -0.1)">
       <use xlink:href="#DejaVuSans-30"/>
       <use xlink:href="#DejaVuSans-2e" x="63.623047"/>
       <use xlink:href="#DejaVuSans-33" x="95.410156"/>
       <use xlink:href="#DejaVuSans-35" x="159.033203"/>
      </g>
     </g>
    </g>
    <g id="xtick_8">
     <g id="line2d_9">
      <g>
       <use xlink:href="#m2d7155e004" x="193.433791" y="329.04" style="stroke: #000000; stroke-width: 0.8"/>
      </g>
     </g>
     <g id="text_5">
      <!-- 0.40 -->
      <g transform="translate(187.512876 357.157081) rotate(-45) scale(0.1 -0.1)">
       <use xlink:href="#DejaVuSans-30"/>
       <use xlink:href="#DejaVuSans-2e" x="63.623047"/>
       <use xlink:href="#DejaVuSans-34" x="95.410156"/>
       <use xlink:href="#DejaVuSans-30" x="159.033203"/>
      </g>
     </g>
    </g>
    <g id="text_6">
     <!-- $\Omega_{2,0}$ -->
     <g transform="translate(130.476753 376.5008) scale(0.1 -0.1)">
      <use xlink:href="#DejaVuSans-3a9" transform="translate(0 0.21875)"/>
      <use xlink:href="#DejaVuSans-32" transform="translate(77.373047 -16.1875) scale(0.7)"/>
      <use xlink:href="#DejaVuSans-2c" transform="translate(121.90918 -16.1875) scale(0.7)"/>
      <use xlink:href="#DejaVuSans-30" transform="translate(157.797852 -16.1875) scale(0.7)"/>
     </g>
    </g>
   </g>
   <g id="matplotlib.axis_6">
    <g id="ytick_1">
     <g id="line2d_10">
      <defs>
       <path id="m6c32811e70" d="M 0 0 
L -3.5 0 
" style="stroke: #000000; stroke-width: 0.8"/>
      </defs>
      <g>
       <use xlink:href="#m6c32811e70" x="66.96" y="323.391607" style="stroke: #000000; stroke-width: 0.8"/>
      </g>
     </g>
     <g id="text_7">
      <!-- −10 -->
      <g transform="translate(43.566171 339.888563) rotate(-45) scale(0.1 -0.1)">
       <use xlink:href="#DejaVuSans-2212"/>
       <use xlink:href="#DejaVuSans-31" x="83.789062"/>
       <use xlink:href="#DejaVuSans-30" x="147.412109"/>
      </g>
     </g>
    </g>
    <g id="ytick_2">
     <g id="line2d_11">
      <g>
       <use xlink:href="#m6c32811e70" x="66.96" y="291.781306" style="stroke: #000000; stroke-width: 0.8"/>
      </g>
     </g>
     <g id="text_8">
      <!-- −8 -->
      <g transform="translate(48.065138 303.779294) rotate(-45) scale(0.1 -0.1)">
       <use xlink:href="#DejaVuSans-2212"/>
       <use xlink:href="#DejaVuSans-38" x="83.789062"/>
      </g>
     </g>
    </g>
    <g id="ytick_3">
     <g id="line2d_12">
      <g>
       <use xlink:href="#m6c32811e70" x="66.96" y="260.171004" style="stroke: #000000; stroke-width: 0.8"/>
      </g>
     </g>
     <g id="text_9">
      <!-- −6 -->
      <g transform="translate(48.065138 272.168993) rotate(-45) scale(0.1 -0.1)">
       <defs>
        <path id="DejaVuSans-36" d="M 2113 2584 
Q 1688 2584 1439 2293 
Q 1191 2003 1191 1497 
Q 1191 994 1439 701 
Q 1688 409 2113 409 
Q 2538 409 2786 701 
Q 3034 994 3034 1497 
Q 3034 2003 2786 2293 
Q 2538 2584 2113 2584 
z
M 3366 4563 
L 3366 3988 
Q 3128 4100 2886 4159 
Q 2644 4219 2406 4219 
Q 1781 4219 1451 3797 
Q 1122 3375 1075 2522 
Q 1259 2794 1537 2939 
Q 1816 3084 2150 3084 
Q 2853 3084 3261 2657 
Q 3669 2231 3669 1497 
Q 3669 778 3244 343 
Q 2819 -91 2113 -91 
Q 1303 -91 875 529 
Q 447 1150 447 2328 
Q 447 3434 972 4092 
Q 1497 4750 2381 4750 
Q 2619 4750 2861 4703 
Q 3103 4656 3366 4563 
z
" transform="scale(0.015625)"/>
       </defs>
       <use xlink:href="#DejaVuSans-2212"/>
       <use xlink:href="#DejaVuSans-36" x="83.789062"/>
      </g>
     </g>
    </g>
    <g id="ytick_4">
     <g id="line2d_13">
      <g>
       <use xlink:href="#m6c32811e70" x="66.96" y="228.560703" style="stroke: #000000; stroke-width: 0.8"/>
      </g>
     </g>
     <g id="text_10">
      <!-- −4 -->
      <g transform="translate(48.065138 240.558691) rotate(-45) scale(0.1 -0.1)">
       <use xlink:href="#DejaVuSans-2212"/>
       <use xlink:href="#DejaVuSans-34" x="83.789062"/>
      </g>
     </g>
    </g>
    <g id="ytick_5">
     <g id="line2d_14">
      <g>
       <use xlink:href="#m6c32811e70" x="66.96" y="196.950401" style="stroke: #000000; stroke-width: 0.8"/>
      </g>
     </g>
     <g id="text_11">
      <!-- −2 -->
      <g transform="translate(48.065138 208.94839) rotate(-45) scale(0.1 -0.1)">
       <use xlink:href="#DejaVuSans-2212"/>
       <use xlink:href="#DejaVuSans-32" x="83.789062"/>
      </g>
     </g>
    </g>
    <g id="text_12">
     <!-- $\log_{10}(M_x$/GeV) -->
     <g transform="translate(20.569948 297.872) rotate(-90) scale(0.1 -0.1)">
      <defs>
       <path id="DejaVuSans-6c" d="M 603 4863 
L 1178 4863 
L 1178 0 
L 603 0 
L 603 4863 
z
" transform="scale(0.015625)"/>
       <path id="DejaVuSans-6f" d="M 1959 3097 
Q 1497 3097 1228 2736 
Q 959 2375 959 1747 
Q 959 1119 1226 758 
Q 1494 397 1959 397 
Q 2419 397 2687 759 
Q 2956 1122 2956 1747 
Q 2956 2369 2687 2733 
Q 2419 3097 1959 3097 
z
M 1959 3584 
Q 2709 3584 3137 3096 
Q 3566 2609 3566 1747 
Q 3566 888 3137 398 
Q 2709 -91 1959 -91 
Q 1206 -91 779 398 
Q 353 888 353 1747 
Q 353 2609 779 3096 
Q 1206 3584 1959 3584 
z
" transform="scale(0.015625)"/>
       <path id="DejaVuSans-67" d="M 2906 1791 
Q 2906 2416 2648 2759 
Q 2391 3103 1925 3103 
Q 1463 3103 1205 2759 
Q 947 2416 947 1791 
Q 947 1169 1205 825 
Q 1463 481 1925 481 
Q 2391 481 2648 825 
Q 2906 1169 2906 1791 
z
M 3481 434 
Q 3481 -459 3084 -895 
Q 2688 -1331 1869 -1331 
Q 1566 -1331 1297 -1286 
Q 1028 -1241 775 -1147 
L 775 -588 
Q 1028 -725 1275 -790 
Q 1522 -856 1778 -856 
Q 2344 -856 2625 -561 
Q 2906 -266 2906 331 
L 2906 616 
Q 2728 306 2450 153 
Q 2172 0 1784 0 
Q 1141 0 747 490 
Q 353 981 353 1791 
Q 353 2603 747 3093 
Q 1141 3584 1784 3584 
Q 2172 3584 2450 3431 
Q 2728 3278 2906 2969 
L 2906 3500 
L 3481 3500 
L 3481 434 
z
" transform="scale(0.015625)"/>
       <path id="DejaVuSans-28" d="M 1984 4856 
Q 1566 4138 1362 3434 
Q 1159 2731 1159 2009 
Q 1159 1288 1364 580 
Q 1569 -128 1984 -844 
L 1484 -844 
Q 1016 -109 783 600 
Q 550 1309 550 2009 
Q 550 2706 781 3412 
Q 1013 4119 1484 4856 
L 1984 4856 
z
" transform="scale(0.015625)"/>
       <path id="DejaVuSans-Oblique-4d" d="M 1081 4666 
L 2028 4666 
L 2572 1522 
L 4378 4666 
L 5350 4666 
L 4441 0 
L 3828 0 
L 4622 4091 
L 2791 897 
L 2175 897 
L 1581 4103 
L 788 0 
L 172 0 
L 1081 4666 
z
" transform="scale(0.015625)"/>
       <path id="DejaVuSans-Oblique-78" d="M 3841 3500 
L 2234 1784 
L 3219 0 
L 2559 0 
L 1819 1388 
L 531 0 
L -166 0 
L 1556 1844 
L 641 3500 
L 1300 3500 
L 1972 2234 
L 3144 3500 
L 3841 3500 
z
" transform="scale(0.015625)"/>
       <path id="DejaVuSans-2f" d="M 1625 4666 
L 2156 4666 
L 531 -594 
L 0 -594 
L 1625 4666 
z
" transform="scale(0.015625)"/>
       <path id="DejaVuSans-47" d="M 3809 666 
L 3809 1919 
L 2778 1919 
L 2778 2438 
L 4434 2438 
L 4434 434 
Q 4069 175 3628 42 
Q 3188 -91 2688 -91 
Q 1594 -91 976 548 
Q 359 1188 359 2328 
Q 359 3472 976 4111 
Q 1594 4750 2688 4750 
Q 3144 4750 3555 4637 
Q 3966 4525 4313 4306 
L 4313 3634 
Q 3963 3931 3569 4081 
Q 3175 4231 2741 4231 
Q 1884 4231 1454 3753 
Q 1025 3275 1025 2328 
Q 1025 1384 1454 906 
Q 1884 428 2741 428 
Q 3075 428 3337 486 
Q 3600 544 3809 666 
z
" transform="scale(0.015625)"/>
       <path id="DejaVuSans-65" d="M 3597 1894 
L 3597 1613 
L 953 1613 
Q 991 1019 1311 708 
Q 1631 397 2203 397 
Q 2534 397 2845 478 
Q 3156 559 3463 722 
L 3463 178 
Q 3153 47 2828 -22 
Q 2503 -91 2169 -91 
Q 1331 -91 842 396 
Q 353 884 353 1716 
Q 353 2575 817 3079 
Q 1281 3584 2069 3584 
Q 2775 3584 3186 3129 
Q 3597 2675 3597 1894 
z
M 3022 2063 
Q 3016 2534 2758 2815 
Q 2500 3097 2075 3097 
Q 1594 3097 1305 2825 
Q 1016 2553 972 2059 
L 3022 2063 
z
" transform="scale(0.015625)"/>
       <path id="DejaVuSans-56" d="M 1831 0 
L 50 4666 
L 709 4666 
L 2188 738 
L 3669 4666 
L 4325 4666 
L 2547 0 
L 1831 0 
z
" transform="scale(0.015625)"/>
       <path id="DejaVuSans-29" d="M 513 4856 
L 1013 4856 
Q 1481 4119 1714 3412 
Q 1947 2706 1947 2009 
Q 1947 1309 1714 600 
Q 1481 -109 1013 -844 
L 513 -844 
Q 928 -128 1133 580 
Q 1338 1288 1338 2009 
Q 1338 2731 1133 3434 
Q 928 4138 513 4856 
z
" transform="scale(0.015625)"/>
      </defs>
      <use xlink:href="#DejaVuSans-6c" transform="translate(0 0.015625)"/>
      <use xlink:href="#DejaVuSans-6f" transform="translate(27.783203 0.015625)"/>
      <use xlink:href="#DejaVuSans-67" transform="translate(88.964844 0.015625)"/>
      <use xlink:href="#DejaVuSans-31" transform="translate(153.398438 -16.390625) scale(0.7)"/>
      <use xlink:href="#DejaVuSans-30" transform="translate(197.93457 -16.390625) scale(0.7)"/>
      <use xlink:href="#DejaVuSans-28" transform="translate(261.440754 0.015625)"/>
      <use xlink:href="#DejaVuSans-Oblique-4d" transform="translate(300.454426 0.015625)"/>
      <use xlink:href="#DejaVuSans-Oblique-78" transform="translate(386.733723 -16.390625) scale(0.7)"/>
      <use xlink:href="#DejaVuSans-2f" transform="translate(430.893879 0.015625)"/>
      <use xlink:href="#DejaVuSans-47" transform="translate(464.585286 0.015625)"/>
      <use xlink:href="#DejaVuSans-65" transform="translate(542.07552 0.015625)"/>
      <use xlink:href="#DejaVuSans-56" transform="translate(603.598958 0.015625)"/>
      <use xlink:href="#DejaVuSans-29" transform="translate(672.007161 0.015625)"/>
     </g>
    </g>
   </g>
   <g id="QuadContourSet_3">
    <path d="M 112.726387 322.920927 
L 115.679057 323.962378 
L 118.631727 323.504136 
L 121.584397 322.617638 
L 124.46679 322.3632 
L 124.537067 322.355608 
L 124.556403 322.3632 
L 127.489737 323.175957 
L 130.442407 323.942752 
L 133.395077 324.197277 
L 136.347747 323.988794 
L 139.300418 323.418963 
L 142.253088 323.02513 
L 145.205758 322.816748 
L 147.154079 322.3632 
L 148.158428 322.217503 
L 151.111098 321.437573 
L 154.063768 320.598338 
L 157.016438 319.912996 
L 158.073933 319.69248 
L 159.969108 319.498181 
L 162.921778 318.924573 
L 165.874448 317.786473 
L 167.284997 317.02176 
L 168.827119 316.257432 
L 171.779789 314.490798 
L 172.039052 314.35104 
L 174.732459 312.898753 
L 176.565176 311.68032 
L 177.685129 310.839408 
L 179.83275 309.0096 
L 180.637799 307.958107 
L 182.128926 306.33888 
L 183.590469 304.267673 
L 184.218967 303.66816 
L 185.860732 300.99744 
L 186.204515 298.32672 
L 186.320065 295.656 
L 186.543139 294.569844 
L 186.973355 292.98528 
L 187.962844 290.31456 
L 189.079419 287.64384 
L 189.495809 286.18859 
L 189.796935 284.97312 
L 189.495809 282.899255 
L 189.396639 282.3024 
L 188.898871 279.63168 
L 188.462544 276.96096 
L 187.529022 274.29024 
L 187.702155 271.61952 
L 189.173483 268.9488 
L 189.495809 267.968156 
L 189.962097 266.27808 
L 189.924713 263.60736 
L 189.495809 261.881802 
L 189.272544 260.93664 
L 188.73574 258.26592 
L 188.800713 255.5952 
L 189.321836 252.92448 
L 189.495809 250.25376 
L 188.465039 247.58304 
L 187.274496 244.91232 
L 187.374655 242.2416 
L 187.818237 239.57088 
L 188.186114 236.90016 
L 188.06035 234.22944 
L 187.351962 231.55872 
L 186.736332 228.888 
L 186.77662 226.21728 
L 187.828236 223.54656 
L 188.803877 220.87584 
L 189.403086 218.20512 
L 189.495809 217.084563 
L 189.649728 215.5344 
L 189.495809 214.15821 
L 189.376227 212.86368 
L 189.051578 210.19296 
L 188.687601 207.52224 
L 188.642503 204.85152 
L 188.844266 202.1808 
L 188.360031 199.51008 
L 186.814318 196.83936 
L 186.814318 194.16864 
L 186.543139 194.057913 
L 183.590469 193.213284 
L 180.637799 192.723106 
L 177.685129 192.437516 
L 174.732459 192.2588 
L 171.779789 192.083688 
L 168.827119 191.939887 
L 165.874448 191.855938 
L 162.921778 191.83629 
L 159.969108 191.844805 
L 157.016438 191.871916 
L 154.063768 191.926184 
L 151.111098 191.96044 
L 148.158428 192.005639 
L 145.205758 192.121719 
L 142.253088 192.359957 
L 139.300418 192.810681 
L 136.347747 193.878432 
L 135.763821 194.16864 
L 135.763821 196.83936 
L 135.506864 199.51008 
L 135.097668 202.1808 
L 135.138498 204.85152 
L 135.462262 207.52224 
L 135.306843 210.19296 
L 135.329823 212.86368 
L 136.329804 215.5344 
L 136.347747 215.588484 
L 136.927743 218.20512 
L 136.804407 220.87584 
L 136.466239 223.54656 
L 136.347747 224.444162 
L 135.936311 226.21728 
L 135.73895 228.888 
L 136.347747 230.579785 
L 136.552027 231.55872 
L 136.617151 234.22944 
L 136.347747 235.652652 
L 136.010743 236.90016 
L 135.803045 239.57088 
L 136.180438 242.2416 
L 136.347747 242.944107 
L 136.662607 244.91232 
L 136.885265 247.58304 
L 136.683683 250.25376 
L 136.357958 252.92448 
L 136.347747 253.034819 
L 135.983961 255.5952 
L 135.670331 258.26592 
L 135.441041 260.93664 
L 135.60202 263.60736 
L 136.104791 266.27808 
L 136.347747 268.065421 
L 136.42453 268.9488 
L 136.395157 271.61952 
L 136.362149 274.29024 
L 136.613058 276.96096 
L 136.610932 279.63168 
L 136.347747 281.829578 
L 136.255113 282.3024 
L 135.724059 284.97312 
L 135.204035 287.64384 
L 135.107153 290.31456 
L 135.266425 292.98528 
L 135.09274 295.656 
L 134.305069 298.32672 
L 133.463459 300.99744 
L 133.395077 301.281204 
L 132.574333 303.66816 
L 131.648349 306.33888 
L 130.442407 308.36461 
L 129.975555 309.0096 
L 127.576859 311.68032 
L 127.489737 311.808474 
L 125.202332 314.35104 
L 124.537067 315.109606 
L 121.584397 316.044991 
L 118.631727 316.616896 
L 117.801442 317.02176 
L 115.679057 318.188033 
L 113.67735 319.69248 
L 112.726387 321.492445 
L 111.531572 322.3632 
L 112.726387 322.920927 
z
" clip-path="url(#p83e0d331b6)" style="fill: none; stroke: #008000; stroke-width: 1.5"/>
    <path d="M 142.253088 315.038254 
L 145.205758 315.973678 
L 148.158428 315.305239 
L 151.111098 314.48364 
L 154.063768 314.53984 
L 157.016438 314.516996 
L 157.884704 314.35104 
L 159.969108 313.79767 
L 162.921778 312.278081 
L 163.815741 311.68032 
L 165.874448 310.082521 
L 167.301923 309.0096 
L 168.827119 307.850642 
L 170.452791 306.33888 
L 171.779789 303.795276 
L 171.845065 303.66816 
L 172.205339 300.99744 
L 172.473975 298.32672 
L 173.018088 295.656 
L 173.906424 292.98528 
L 174.732459 290.858982 
L 174.912893 290.31456 
L 174.819352 287.64384 
L 174.732459 287.411658 
L 173.866906 284.97312 
L 173.505755 282.3024 
L 173.827553 279.63168 
L 174.142103 276.96096 
L 174.257211 274.29024 
L 174.381783 271.61952 
L 174.506349 268.9488 
L 174.477199 266.27808 
L 174.280966 263.60736 
L 174.322982 260.93664 
L 174.608477 258.26592 
L 174.317731 255.5952 
L 174.014951 252.92448 
L 174.046309 250.25376 
L 174.056867 247.58304 
L 174.385909 244.91232 
L 174.732459 243.110593 
L 174.931242 242.2416 
L 175.159436 239.57088 
L 174.926687 236.90016 
L 174.732459 235.50394 
L 174.581294 234.22944 
L 174.571761 231.55872 
L 174.707317 228.888 
L 174.732459 228.363344 
L 174.838909 226.21728 
L 174.732459 224.384522 
L 174.68253 223.54656 
L 174.625738 220.87584 
L 174.732459 218.20512 
L 174.694653 215.5344 
L 174.640991 212.86368 
L 174.492597 210.19296 
L 174.612101 207.52224 
L 174.572176 204.85152 
L 174.06164 202.1808 
L 172.980063 199.51008 
L 171.779789 197.867763 
L 171.113233 196.83936 
L 171.113233 194.16864 
L 168.827119 193.661007 
L 165.874448 193.250143 
L 162.921778 193.153983 
L 159.969108 193.195657 
L 157.016438 193.328342 
L 154.063768 193.593945 
L 151.111098 193.7616 
L 148.158428 193.982816 
L 147.054406 194.16864 
L 147.054406 196.83936 
L 146.555218 199.51008 
L 146.437625 202.1808 
L 147.046151 204.85152 
L 147.736371 207.52224 
L 147.759147 210.19296 
L 147.341097 212.86368 
L 147.25119 215.5344 
L 147.170691 218.20512 
L 146.764124 220.87584 
L 146.622597 223.54656 
L 146.95616 226.21728 
L 147.243276 228.888 
L 147.114062 231.55872 
L 147.01333 234.22944 
L 147.19208 236.90016 
L 147.57452 239.57088 
L 148.013315 242.2416 
L 148.158428 243.372794 
L 148.34564 244.91232 
L 148.403408 247.58304 
L 148.399933 250.25376 
L 148.251902 252.92448 
L 148.197033 255.5952 
L 148.216045 258.26592 
L 148.295315 260.93664 
L 148.158428 261.567634 
L 147.653345 263.60736 
L 147.227473 266.27808 
L 147.623505 268.9488 
L 148.006836 271.61952 
L 147.933662 274.29024 
L 147.780508 276.96096 
L 147.912799 279.63168 
L 148.158428 281.721395 
L 148.23382 282.3024 
L 148.482518 284.97312 
L 148.158428 286.708408 
L 147.99123 287.64384 
L 147.239078 290.31456 
L 147.480002 292.98528 
L 148.047078 295.656 
L 147.587954 298.32672 
L 146.428674 300.99744 
L 145.941795 303.66816 
L 145.521826 306.33888 
L 145.205758 307.024568 
L 143.930343 309.0096 
L 142.253088 311.496051 
L 142.112033 311.68032 
L 141.401237 314.35104 
L 142.253088 315.038254 
z
" clip-path="url(#p83e0d331b6)" style="fill: none; stroke: #008000; stroke-width: 1.5"/>
   </g>
   <g id="patch_8">
    <path d="M 66.96 329.04 
L 66.96 195.504 
" style="fill: none; stroke: #000000; stroke-width: 0.8; stroke-linejoin: miter; stroke-linecap: square"/>
   </g>
   <g id="patch_9">
    <path d="M 214.593505 329.04 
L 214.593505 195.504 
" style="fill: none; stroke: #000000; stroke-width: 0.8; stroke-linejoin: miter; stroke-linecap: square"/>
   </g>
   <g id="patch_10">
    <path d="M 66.96 329.04 
L 214.593505 329.04 
" style="fill: none; stroke: #000000; stroke-width: 0.8; stroke-linejoin: miter; stroke-linecap: square"/>
   </g>
   <g id="patch_11">
    <path d="M 66.96 195.504 
L 214.593505 195.504 
" style="fill: none; stroke: #000000; stroke-width: 0.8; stroke-linejoin: miter; stroke-linecap: square"/>
   </g>
  </g>
  <g id="axes_4">
   <g id="patch_12">
    <path d="M 230.343971 329.04 
L 377.977476 329.04 
L 377.977476 195.504 
L 230.343971 195.504 
z
" style="fill: #ffffff"/>
   </g>
   <g id="matplotlib.axis_7">
    <g id="xtick_9">
     <g id="line2d_15">
      <g>
       <use xlink:href="#m2d7155e004" x="236.58867" y="329.04" style="stroke: #000000; stroke-width: 0.8"/>
      </g>
     </g>
     <g id="text_13">
      <!-- −10 -->
      <g transform="translate(231.078209 356.336174) rotate(-45) scale(0.1 -0.1)">
       <use xlink:href="#DejaVuSans-2212"/>
       <use xlink:href="#DejaVuSans-31" x="83.789062"/>
       <use xlink:href="#DejaVuSans-30" x="147.412109"/>
      </g>
     </g>
    </g>
    <g id="xtick_10">
     <g id="line2d_16">
      <g>
       <use xlink:href="#m2d7155e004" x="271.536097" y="329.04" style="stroke: #000000; stroke-width: 0.8"/>
      </g>
     </g>
     <g id="text_14">
      <!-- −8 -->
      <g transform="translate(268.275119 351.837207) rotate(-45) scale(0.1 -0.1)">
       <use xlink:href="#DejaVuSans-2212"/>
       <use xlink:href="#DejaVuSans-38" x="83.789062"/>
      </g>
     </g>
    </g>
    <g id="xtick_11">
     <g id="line2d_17">
      <g>
       <use xlink:href="#m2d7155e004" x="306.483524" y="329.04" style="stroke: #000000; stroke-width: 0.8"/>
      </g>
     </g>
     <g id="text_15">
      <!-- −6 -->
      <g transform="translate(303.222546 351.837207) rotate(-45) scale(0.1 -0.1)">
       <use xlink:href="#DejaVuSans-2212"/>
       <use xlink:href="#DejaVuSans-36" x="83.789062"/>
      </g>
     </g>
    </g>
    <g id="xtick_12">
     <g id="line2d_18">
      <g>
       <use xlink:href="#m2d7155e004" x="341.43095" y="329.04" style="stroke: #000000; stroke-width: 0.8"/>
      </g>
     </g>
     <g id="text_16">
      <!-- −4 -->
      <g transform="translate(338.169973 351.837207) rotate(-45) scale(0.1 -0.1)">
       <use xlink:href="#DejaVuSans-2212"/>
       <use xlink:href="#DejaVuSans-34" x="83.789062"/>
      </g>
     </g>
    </g>
    <g id="xtick_13">
     <g id="line2d_19">
      <g>
       <use xlink:href="#m2d7155e004" x="376.378377" y="329.04" style="stroke: #000000; stroke-width: 0.8"/>
      </g>
     </g>
     <g id="text_17">
      <!-- −2 -->
      <g transform="translate(373.1174 351.837207) rotate(-45) scale(0.1 -0.1)">
       <use xlink:href="#DejaVuSans-2212"/>
       <use xlink:href="#DejaVuSans-32" x="83.789062"/>
      </g>
     </g>
    </g>
    <g id="text_18">
     <!-- $\log_{10}(M_x$/GeV) -->
     <g transform="translate(268.560724 376.7008) scale(0.1 -0.1)">
      <use xlink:href="#DejaVuSans-6c" transform="translate(0 0.015625)"/>
      <use xlink:href="#DejaVuSans-6f" transform="translate(27.783203 0.015625)"/>
      <use xlink:href="#DejaVuSans-67" transform="translate(88.964844 0.015625)"/>
      <use xlink:href="#DejaVuSans-31" transform="translate(153.398438 -16.390625) scale(0.7)"/>
      <use xlink:href="#DejaVuSans-30" transform="translate(197.93457 -16.390625) scale(0.7)"/>
      <use xlink:href="#DejaVuSans-28" transform="translate(261.440754 0.015625)"/>
      <use xlink:href="#DejaVuSans-Oblique-4d" transform="translate(300.454426 0.015625)"/>
      <use xlink:href="#DejaVuSans-Oblique-78" transform="translate(386.733723 -16.390625) scale(0.7)"/>
      <use xlink:href="#DejaVuSans-2f" transform="translate(430.893879 0.015625)"/>
      <use xlink:href="#DejaVuSans-47" transform="translate(464.585286 0.015625)"/>
      <use xlink:href="#DejaVuSans-65" transform="translate(542.07552 0.015625)"/>
      <use xlink:href="#DejaVuSans-56" transform="translate(603.598958 0.015625)"/>
      <use xlink:href="#DejaVuSans-29" transform="translate(672.007161 0.015625)"/>
     </g>
    </g>
   </g>
   <g id="matplotlib.axis_8"/>
   <g id="line2d_20">
    <path d="M 230.343971 318.72834 
L 231.082139 318.72834 
L 231.082139 318.493984 
L 231.820306 318.493984 
L 231.820306 318.025272 
L 232.558474 318.025272 
L 232.558474 317.322204 
L 233.296641 317.322204 
L 233.296641 316.150425 
L 234.034809 316.150425 
L 234.034809 314.509933 
L 234.772976 314.509933 
L 234.772976 312.166374 
L 235.511144 312.166374 
L 235.511144 309.588459 
L 236.249312 309.588459 
L 236.249312 306.541832 
L 236.987479 306.541832 
L 236.987479 302.792138 
L 237.725647 302.792138 
L 237.725647 298.808087 
L 238.463814 298.808087 
L 238.463814 294.589681 
L 239.201982 294.589681 
L 239.201982 290.371274 
L 239.940149 290.371274 
L 239.940149 285.918512 
L 240.678317 285.918512 
L 240.678317 281.465749 
L 241.416484 281.465749 
L 241.416484 277.012987 
L 242.154652 277.012987 
L 242.154652 272.560225 
L 242.892819 272.560225 
L 242.892819 268.107462 
L 243.630987 268.107462 
L 243.630987 263.6547 
L 244.369154 263.6547 
L 244.369154 259.201938 
L 245.107322 259.201938 
L 245.107322 254.983531 
L 245.845489 254.983531 
L 245.845489 251.233836 
L 246.583657 251.233836 
L 246.583657 247.484142 
L 247.321824 247.484142 
L 247.321824 244.203159 
L 248.059992 244.203159 
L 248.059992 241.390888 
L 248.798159 241.390888 
L 248.798159 239.047329 
L 249.536327 239.047329 
L 249.536327 236.70377 
L 250.274495 236.70377 
L 250.274495 234.594567 
L 251.012662 234.594567 
L 251.012662 232.485363 
L 251.75083 232.485363 
L 251.75083 230.37616 
L 252.488997 230.37616 
L 252.488997 228.032601 
L 253.227165 228.032601 
L 253.227165 225.689042 
L 253.965332 225.689042 
L 253.965332 223.579839 
L 254.7035 223.579839 
L 254.7035 221.236279 
L 255.441667 221.236279 
L 255.441667 219.361432 
L 256.179835 219.361432 
L 256.179835 217.955297 
L 256.918002 217.955297 
L 256.918002 216.783517 
L 257.65617 216.783517 
L 257.65617 216.314805 
L 258.394337 216.314805 
L 258.394337 216.080449 
L 259.132505 216.080449 
L 259.132505 216.314805 
L 259.870672 216.314805 
L 259.870672 216.783517 
L 260.60884 216.783517 
L 260.60884 217.486585 
L 261.347007 217.486585 
L 261.347007 218.189653 
L 262.085175 218.189653 
L 262.085175 218.89272 
L 262.823342 218.89272 
L 262.823342 219.127076 
L 263.56151 219.127076 
L 263.56151 219.595788 
L 266.51418 219.595788 
L 266.51418 219.361432 
L 267.252348 219.361432 
L 267.252348 218.89272 
L 267.990515 218.89272 
L 267.990515 218.424008 
L 268.728683 218.424008 
L 268.728683 217.955297 
L 269.46685 217.955297 
L 269.46685 217.252229 
L 270.205018 217.252229 
L 270.205018 216.314805 
L 270.943185 216.314805 
L 270.943185 215.611737 
L 271.681353 215.611737 
L 271.681353 214.674314 
L 272.41952 214.674314 
L 272.41952 214.205602 
L 274.634023 214.205602 
L 274.634023 214.674314 
L 275.37219 214.674314 
L 275.37219 215.377382 
L 276.110358 215.377382 
L 276.110358 216.314805 
L 276.848525 216.314805 
L 276.848525 217.017873 
L 277.586693 217.017873 
L 277.586693 217.486585 
L 278.32486 217.486585 
L 278.32486 217.955297 
L 280.539363 217.955297 
L 280.539363 217.720941 
L 281.277531 217.720941 
L 281.277531 217.486585 
L 282.015698 217.486585 
L 282.015698 217.017873 
L 282.753866 217.017873 
L 282.753866 216.783517 
L 287.182871 216.783517 
L 287.182871 217.017873 
L 290.873708 217.017873 
L 290.873708 216.783517 
L 294.564546 216.783517 
L 294.564546 216.549161 
L 295.302714 216.549161 
L 295.302714 216.314805 
L 296.040881 216.314805 
L 296.040881 215.846093 
L 296.779049 215.846093 
L 296.779049 215.611737 
L 297.517216 215.611737 
L 297.517216 215.143026 
L 298.255384 215.143026 
L 298.255384 214.674314 
L 298.993551 214.674314 
L 298.993551 214.439958 
L 301.208054 214.439958 
L 301.208054 214.90867 
L 301.946221 214.90867 
L 301.946221 215.143026 
L 302.684389 215.143026 
L 302.684389 215.611737 
L 303.422556 215.611737 
L 303.422556 215.846093 
L 304.898891 215.846093 
L 304.898891 215.611737 
L 305.637059 215.611737 
L 305.637059 215.143026 
L 306.375226 215.143026 
L 306.375226 214.674314 
L 307.113394 214.674314 
L 307.113394 213.971246 
L 307.851561 213.971246 
L 307.851561 213.502534 
L 308.589729 213.502534 
L 308.589729 213.268178 
L 309.327897 213.268178 
L 309.327897 213.033822 
L 310.804232 213.033822 
L 310.804232 213.268178 
L 311.542399 213.268178 
L 311.542399 213.502534 
L 312.280567 213.502534 
L 312.280567 213.971246 
L 313.018734 213.971246 
L 313.018734 214.205602 
L 313.756902 214.205602 
L 313.756902 214.439958 
L 315.233237 214.439958 
L 315.233237 214.674314 
L 315.971404 214.674314 
L 315.971404 214.90867 
L 316.709572 214.90867 
L 316.709572 215.143026 
L 317.447739 215.143026 
L 317.447739 215.377382 
L 318.185907 215.377382 
L 318.185907 215.611737 
L 318.924074 215.611737 
L 318.924074 216.080449 
L 319.662242 216.080449 
L 319.662242 216.314805 
L 320.400409 216.314805 
L 320.400409 216.549161 
L 322.614912 216.549161 
L 322.614912 216.080449 
L 323.35308 216.080449 
L 323.35308 215.377382 
L 324.091247 215.377382 
L 324.091247 214.439958 
L 324.829415 214.439958 
L 324.829415 213.268178 
L 325.567582 213.268178 
L 325.567582 212.096399 
L 326.30575 212.096399 
L 326.30575 210.924619 
L 327.043917 210.924619 
L 327.043917 209.987196 
L 327.782085 209.987196 
L 327.782085 209.284128 
L 328.520252 209.284128 
L 328.520252 208.815416 
L 329.25842 208.815416 
L 329.25842 208.58106 
L 329.996587 208.58106 
L 329.996587 208.346704 
L 331.472922 208.346704 
L 331.472922 208.112348 
L 332.949257 208.112348 
L 332.949257 207.877992 
L 333.687425 207.877992 
L 333.687425 207.643636 
L 336.640095 207.643636 
L 336.640095 208.112348 
L 337.378263 208.112348 
L 337.378263 208.58106 
L 338.11643 208.58106 
L 338.11643 209.284128 
L 338.854598 209.284128 
L 338.854598 209.987196 
L 339.592765 209.987196 
L 339.592765 210.455907 
L 340.330933 210.455907 
L 340.330933 211.158975 
L 341.0691 211.158975 
L 341.0691 211.393331 
L 342.545435 211.393331 
L 342.545435 211.158975 
L 343.283603 211.158975 
L 343.283603 210.924619 
L 344.02177 210.924619 
L 344.02177 210.455907 
L 344.759938 210.455907 
L 344.759938 209.987196 
L 345.498105 209.987196 
L 345.498105 209.518484 
L 346.236273 209.518484 
L 346.236273 209.049772 
L 346.97444 209.049772 
L 346.97444 208.815416 
L 347.712608 208.815416 
L 347.712608 208.58106 
L 349.188943 208.58106 
L 349.188943 208.815416 
L 349.92711 208.815416 
L 349.92711 209.049772 
L 350.665278 209.049772 
L 350.665278 209.518484 
L 351.403446 209.518484 
L 351.403446 209.987196 
L 352.141613 209.987196 
L 352.141613 210.221551 
L 352.879781 210.221551 
L 352.879781 210.690263 
L 355.094283 210.690263 
L 355.094283 210.455907 
L 355.832451 210.455907 
L 355.832451 210.221551 
L 356.570618 210.221551 
L 356.570618 209.75284 
L 357.308786 209.75284 
L 357.308786 209.284128 
L 358.046953 209.284128 
L 358.046953 209.049772 
L 358.785121 209.049772 
L 358.785121 208.815416 
L 359.523288 208.815416 
L 359.523288 208.58106 
L 362.475958 208.58106 
L 362.475958 208.815416 
L 363.214126 208.815416 
L 363.214126 209.049772 
L 366.166796 209.049772 
L 366.166796 208.815416 
L 366.904964 208.815416 
L 366.904964 208.58106 
L 367.643131 208.58106 
L 367.643131 208.112348 
L 368.381299 208.112348 
L 368.381299 207.877992 
L 369.119466 207.877992 
L 369.119466 207.643636 
L 369.857634 207.643636 
L 369.857634 207.877992 
L 370.595801 207.877992 
L 370.595801 208.58106 
L 371.333969 208.58106 
L 371.333969 209.987196 
L 372.072136 209.987196 
L 372.072136 211.862043 
L 372.810304 211.862043 
L 372.810304 214.674314 
L 373.548471 214.674314 
L 373.548471 217.955297 
L 374.286639 217.955297 
L 374.286639 221.470635 
L 375.024806 221.470635 
L 375.024806 224.985974 
L 375.762974 224.985974 
L 375.762974 228.266957 
L 376.501141 228.266957 
L 376.501141 230.610516 
L 377.239309 230.610516 
L 377.239309 232.016651 
L 377.977476 232.016651 
L 377.977476 232.016651 
" clip-path="url(#pe5296d72c5)" style="fill: none; stroke: #008000; stroke-width: 1.5; stroke-linecap: square"/>
   </g>
   <g id="patch_13">
    <path d="M 230.343971 329.04 
L 230.343971 195.504 
" style="fill: none; stroke: #000000; stroke-width: 0.8; stroke-linejoin: miter; stroke-linecap: square"/>
   </g>
   <g id="patch_14">
    <path d="M 377.977476 329.04 
L 377.977476 195.504 
" style="fill: none; stroke: #000000; stroke-width: 0.8; stroke-linejoin: miter; stroke-linecap: square"/>
   </g>
   <g id="patch_15">
    <path d="M 230.343971 329.04 
L 377.977476 329.04 
" style="fill: none; stroke: #000000; stroke-width: 0.8; stroke-linejoin: miter; stroke-linecap: square"/>
   </g>
   <g id="patch_16">
    <path d="M 230.343971 195.504 
L 377.977476 195.504 
" style="fill: none; stroke: #000000; stroke-width: 0.8; stroke-linejoin: miter; stroke-linecap: square"/>
   </g>
   <g id="text_19">
    <!-- $\log_{10}(M_x$/GeV) = ${-5.7020}_{-2.6761}^{+2.5760}$ -->
    <g transform="translate(192.720724 189.504) scale(0.14 -0.14)">
     <use xlink:href="#DejaVuSans-6c" transform="translate(0 0.765625)"/>
     <use xlink:href="#DejaVuSans-6f" transform="translate(27.783203 0.765625)"/>
     <use xlink:href="#DejaVuSans-67" transform="translate(88.964844 0.765625)"/>
     <use xlink:href="#DejaVuSans-31" transform="translate(153.398438 -15.640625) scale(0.7)"/>
     <use xlink:href="#DejaVuSans-30" transform="translate(197.93457 -15.640625) scale(0.7)"/>
     <use xlink:href="#DejaVuSans-28" transform="translate(261.440754 0.765625)"/>
     <use xlink:href="#DejaVuSans-Oblique-4d" transform="translate(300.454426 0.765625)"/>
     <use xlink:href="#DejaVuSans-Oblique-78" transform="translate(386.733723 -15.640625) scale(0.7)"/>
     <use xlink:href="#DejaVuSans-2f" transform="translate(430.893879 0.765625)"/>
     <use xlink:href="#DejaVuSans-47" transform="translate(464.585286 0.765625)"/>
     <use xlink:href="#DejaVuSans-65" transform="translate(542.07552 0.765625)"/>
     <use xlink:href="#DejaVuSans-56" transform="translate(603.598958 0.765625)"/>
     <use xlink:href="#DejaVuSans-29" transform="translate(672.007161 0.765625)"/>
     <use xlink:href="#DejaVuSans-20" transform="translate(711.020833 0.765625)"/>
     <use xlink:href="#DejaVuSans-3d" transform="translate(742.807942 0.765625)"/>
     <use xlink:href="#DejaVuSans-20" transform="translate(826.597004 0.765625)"/>
     <use xlink:href="#DejaVuSans-2212" transform="translate(858.384114 0.765625)"/>
     <use xlink:href="#DejaVuSans-35" transform="translate(942.173176 0.765625)"/>
     <use xlink:href="#DejaVuSans-2e" transform="translate(1005.796223 0.765625)"/>
     <use xlink:href="#DejaVuSans-37" transform="translate(1029.833333 0.765625)"/>
     <use xlink:href="#DejaVuSans-30" transform="translate(1093.456379 0.765625)"/>
     <use xlink:href="#DejaVuSans-32" transform="translate(1157.079426 0.765625)"/>
     <use xlink:href="#DejaVuSans-30" transform="translate(1220.702473 0.765625)"/>
     <use xlink:href="#DejaVuSans-2b" transform="translate(1285.282551 39.046875) scale(0.7)"/>
     <use xlink:href="#DejaVuSans-32" transform="translate(1343.934895 39.046875) scale(0.7)"/>
     <use xlink:href="#DejaVuSans-2e" transform="translate(1388.471028 39.046875) scale(0.7)"/>
     <use xlink:href="#DejaVuSans-35" transform="translate(1410.722004 39.046875) scale(0.7)"/>
     <use xlink:href="#DejaVuSans-37" transform="translate(1450.183137 39.046875) scale(0.7)"/>
     <use xlink:href="#DejaVuSans-36" transform="translate(1494.71927 39.046875) scale(0.7)"/>
     <use xlink:href="#DejaVuSans-30" transform="translate(1539.255403 39.046875) scale(0.7)"/>
     <use xlink:href="#DejaVuSans-2212" transform="translate(1285.282551 -26.578125) scale(0.7)"/>
     <use xlink:href="#DejaVuSans-32" transform="translate(1343.934895 -26.578125) scale(0.7)"/>
     <use xlink:href="#DejaVuSans-2e" transform="translate(1388.471028 -26.578125) scale(0.7)"/>
     <use xlink:href="#DejaVuSans-36" transform="translate(1410.722004 -26.578125) scale(0.7)"/>
     <use xlink:href="#DejaVuSans-37" transform="translate(1455.258137 -26.578125) scale(0.7)"/>
     <use xlink:href="#DejaVuSans-36" transform="translate(1499.79427 -26.578125) scale(0.7)"/>
     <use xlink:href="#DejaVuSans-31" transform="translate(1544.330403 -26.578125) scale(0.7)"/>
    </g>
   </g>
  </g>
 </g>
 <defs>
  <clipPath id="p4853d37d13">
   <rect x="66.96" y="30.984" width="147.633505" height="133.536"/>
  </clipPath>
  <clipPath id="p83e0d331b6">
   <rect x="66.96" y="195.504" width="147.633505" height="133.536"/>
  </clipPath>
  <clipPath id="pe5296d72c5">
   <rect x="230.343971" y="195.504" width="147.633505" height="133.536"/>
  </clipPath>
 </defs>
</svg>
