<?xml version="1.0" encoding="utf-8" standalone="no"?>
<!DOCTYPE svg PUBLIC "-//W3C//DTD SVG 1.1//EN"
  "http://www.w3.org/Graphics/SVG/1.1/DTD/svg11.dtd">
<svg xmlns:xlink="http://www.w3.org/1999/xlink" width="396pt" height="396pt" viewBox="0 0 396 396" xmlns="http://www.w3.org/2000/svg" version="1.1">
 <metadata>
  <rdf:RDF xmlns:dc="http://purl.org/dc/elements/1.1/" xmlns:cc="http://creativecommons.org/ns#" xmlns:rdf="http://www.w3.org/1999/02/22-rdf-syntax-ns#">
   <cc:Work>
    <dc:type rdf:resource="http://purl.org/dc/dcmitype/StillImage"/>
    <dc:date>2024-11-19T13:44:16.420854</dc:date>
    <dc:format>image/svg+xml</dc:format>
    <dc:creator>
     <cc:Agent>
      <dc:title>Matplotlib v3.9.2, https://matplotlib.org/</dc:title>
     </cc:Agent>
    </dc:creator>
   </cc:Work>
  </rdf:RDF>
 </metadata>
 <defs>
  <style type="text/css">*{stroke-linejoin: round; stroke-linecap: butt}</style>
 </defs>
 <g id="figure_1">
  <g id="patch_1">
   <path d="M 0 396 
L 396 396 
L 396 0 
L 0 0 
z
" style="fill: #ffffff"/>
  </g>
  <g id="axes_1">
   <g id="patch_2">
    <path d="M 64.08 164.88 
L 219.24 164.88 
L 219.24 30.984 
L 64.08 30.984 
z
" style="fill: #ffffff"/>
   </g>
   <g id="matplotlib.axis_1">
    <g id="xtick_1">
     <g id="line2d_1">
      <defs>
       <path id="m4fed8fae5b" d="M 0 0 
L 0 3.5 
" style="stroke: #000000; stroke-width: 0.8"/>
      </defs>
      <g>
       <use xlink:href="#m4fed8fae5b" x="107.364095" y="164.88" style="stroke: #000000; stroke-width: 0.8"/>
      </g>
     </g>
    </g>
    <g id="xtick_2">
     <g id="line2d_2">
      <g>
       <use xlink:href="#m4fed8fae5b" x="150.773143" y="164.88" style="stroke: #000000; stroke-width: 0.8"/>
      </g>
     </g>
    </g>
    <g id="xtick_3">
     <g id="line2d_3">
      <g>
       <use xlink:href="#m4fed8fae5b" x="194.182192" y="164.88" style="stroke: #000000; stroke-width: 0.8"/>
      </g>
     </g>
    </g>
   </g>
   <g id="matplotlib.axis_2"/>
   <g id="line2d_4">
    <path d="M 64.08 162.111133 
L 65.6316 162.004639 
L 65.6316 161.898144 
L 67.1832 161.791649 
L 67.1832 161.685154 
L 67.959 161.685154 
L 67.959 161.472164 
L 68.7348 161.472164 
L 68.7348 161.259174 
L 70.2864 161.15268 
L 70.2864 160.93969 
L 71.0622 160.93969 
L 71.0622 160.7267 
L 71.838 160.7267 
L 71.838 160.51371 
L 72.6138 160.51371 
L 72.6138 160.194226 
L 73.3896 160.194226 
L 73.3896 159.981236 
L 74.1654 159.981236 
L 74.1654 159.661751 
L 74.9412 159.661751 
L 74.9412 159.235772 
L 75.717 159.235772 
L 75.717 158.809792 
L 76.4928 158.809792 
L 76.4928 158.490308 
L 77.2686 158.490308 
L 77.2686 158.064328 
L 78.0444 158.064328 
L 78.0444 157.638349 
L 78.8202 157.638349 
L 78.8202 157.212369 
L 79.596 157.212369 
L 79.596 156.78639 
L 80.3718 156.78639 
L 80.3718 156.466905 
L 81.1476 156.466905 
L 81.1476 156.040926 
L 81.9234 156.040926 
L 81.9234 155.614946 
L 82.6992 155.614946 
L 82.6992 155.188967 
L 83.475 155.188967 
L 83.475 154.762987 
L 84.2508 154.762987 
L 84.2508 154.443503 
L 85.0266 154.443503 
L 85.0266 154.124018 
L 85.8024 154.124018 
L 85.8024 153.911028 
L 86.5782 153.911028 
L 86.5782 153.591544 
L 87.354 153.591544 
L 87.354 153.378554 
L 88.1298 153.378554 
L 88.1298 153.059069 
L 88.9056 153.059069 
L 88.9056 152.63309 
L 89.6814 152.63309 
L 89.6814 152.20711 
L 90.4572 152.20711 
L 90.4572 151.674636 
L 91.233 151.674636 
L 91.233 151.142162 
L 92.0088 151.142162 
L 92.0088 150.503193 
L 92.7846 150.503193 
L 92.7846 149.757728 
L 93.5604 149.757728 
L 93.5604 149.118759 
L 94.3362 149.118759 
L 94.3362 148.373295 
L 95.112 148.373295 
L 95.112 147.627831 
L 95.8878 147.627831 
L 95.8878 146.988862 
L 96.6636 146.988862 
L 96.6636 146.136903 
L 97.4394 146.136903 
L 97.4394 145.391439 
L 98.2152 145.391439 
L 98.2152 144.53948 
L 98.991 144.53948 
L 98.991 143.794016 
L 99.7668 143.794016 
L 99.7668 142.942057 
L 100.5426 142.942057 
L 100.5426 142.090098 
L 101.3184 142.090098 
L 101.3184 141.238139 
L 102.0942 141.238139 
L 102.0942 140.38618 
L 102.87 140.38618 
L 102.87 139.534221 
L 103.6458 139.534221 
L 103.6458 138.469272 
L 104.4216 138.469272 
L 104.4216 137.404324 
L 105.1974 137.404324 
L 105.1974 136.23288 
L 105.9732 136.23288 
L 105.9732 134.848447 
L 106.749 134.848447 
L 106.749 133.570508 
L 107.5248 133.570508 
L 107.5248 132.07958 
L 108.3006 132.07958 
L 108.3006 130.695147 
L 109.0764 130.695147 
L 109.0764 129.417208 
L 109.8522 129.417208 
L 109.8522 128.13927 
L 110.628 128.13927 
L 110.628 126.861331 
L 111.4038 126.861331 
L 111.4038 125.689888 
L 112.1796 125.689888 
L 112.1796 124.518444 
L 112.9554 124.518444 
L 112.9554 123.240506 
L 113.7312 123.240506 
L 113.7312 121.962567 
L 114.507 121.962567 
L 114.507 120.578134 
L 115.2828 120.578134 
L 115.2828 119.087206 
L 116.0586 119.087206 
L 116.0586 117.489783 
L 116.8344 117.489783 
L 116.8344 115.89236 
L 117.6102 115.89236 
L 117.6102 114.294937 
L 118.386 114.294937 
L 118.386 112.697514 
L 119.1618 112.697514 
L 119.1618 111.206586 
L 119.9376 111.206586 
L 119.9376 109.715657 
L 120.7134 109.715657 
L 120.7134 108.331224 
L 121.4892 108.331224 
L 121.4892 106.946791 
L 122.265 106.946791 
L 122.265 105.668852 
L 123.0408 105.668852 
L 123.0408 104.284419 
L 123.8166 104.284419 
L 123.8166 103.006481 
L 124.5924 103.006481 
L 124.5924 101.515552 
L 125.3682 101.515552 
L 125.3682 100.024624 
L 126.144 100.024624 
L 126.144 98.320706 
L 126.9198 98.320706 
L 126.9198 96.616788 
L 127.6956 96.616788 
L 127.6956 94.699881 
L 128.4714 94.699881 
L 128.4714 92.782973 
L 129.2472 92.782973 
L 129.2472 90.759571 
L 130.023 90.759571 
L 130.023 88.736168 
L 130.7988 88.736168 
L 130.7988 86.499776 
L 131.5746 86.499776 
L 131.5746 84.369878 
L 132.3504 84.369878 
L 132.3504 82.133486 
L 133.1262 82.133486 
L 133.1262 80.003589 
L 133.902 80.003589 
L 133.902 77.873691 
L 134.6778 77.873691 
L 134.6778 75.743794 
L 135.4536 75.743794 
L 135.4536 73.720391 
L 136.2294 73.720391 
L 136.2294 71.696989 
L 137.0052 71.696989 
L 137.0052 69.780081 
L 137.781 69.780081 
L 137.781 67.863173 
L 138.5568 67.863173 
L 138.5568 65.946266 
L 139.3326 65.946266 
L 139.3326 64.029358 
L 140.1084 64.029358 
L 140.1084 62.218945 
L 140.8842 62.218945 
L 140.8842 60.408533 
L 141.66 60.408533 
L 141.66 58.59812 
L 142.4358 58.59812 
L 142.4358 56.787707 
L 143.2116 56.787707 
L 143.2116 55.190284 
L 143.9874 55.190284 
L 143.9874 53.592861 
L 144.7632 53.592861 
L 144.7632 52.101933 
L 145.539 52.101933 
L 145.539 50.717499 
L 146.3148 50.717499 
L 146.3148 49.546056 
L 147.0906 49.546056 
L 147.0906 48.481107 
L 147.8664 48.481107 
L 147.8664 47.416158 
L 148.6422 47.416158 
L 148.6422 46.670694 
L 149.418 46.670694 
L 149.418 45.92523 
L 150.1938 45.92523 
L 150.1938 45.286261 
L 150.9696 45.286261 
L 150.9696 44.753787 
L 151.7454 44.753787 
L 151.7454 44.221312 
L 152.5212 44.221312 
L 152.5212 43.795333 
L 153.297 43.795333 
L 153.297 43.475848 
L 154.0728 43.475848 
L 154.0728 43.262859 
L 157.9518 43.262859 
L 157.9518 43.475848 
L 158.7276 43.475848 
L 158.7276 43.688838 
L 159.5034 43.688838 
L 159.5034 44.008323 
L 160.2792 44.008323 
L 160.2792 44.327807 
L 161.055 44.327807 
L 161.055 44.966776 
L 161.8308 44.966776 
L 161.8308 45.605746 
L 162.6066 45.605746 
L 162.6066 46.457705 
L 163.3824 46.457705 
L 163.3824 47.522653 
L 164.1582 47.522653 
L 164.1582 48.694097 
L 164.934 48.694097 
L 164.934 50.07853 
L 165.7098 50.07853 
L 165.7098 51.462963 
L 166.4856 51.462963 
L 166.4856 53.060387 
L 167.2614 53.060387 
L 167.2614 54.764304 
L 168.0372 54.764304 
L 168.0372 56.574717 
L 168.813 56.574717 
L 168.813 58.491625 
L 169.5888 58.491625 
L 169.5888 60.515027 
L 170.3646 60.515027 
L 170.3646 62.53843 
L 171.1404 62.53843 
L 171.1404 64.668327 
L 171.9162 64.668327 
L 171.9162 66.90472 
L 172.692 66.90472 
L 172.692 69.141112 
L 173.4678 69.141112 
L 173.4678 71.483999 
L 174.2436 71.483999 
L 174.2436 73.826886 
L 175.0194 73.826886 
L 175.0194 76.276268 
L 175.7952 76.276268 
L 175.7952 78.72565 
L 176.571 78.72565 
L 176.571 81.281527 
L 177.3468 81.281527 
L 177.3468 83.837404 
L 178.1226 83.837404 
L 178.1226 86.393281 
L 178.8984 86.393281 
L 178.8984 89.055653 
L 179.6742 89.055653 
L 179.6742 91.824519 
L 180.45 91.824519 
L 180.45 94.699881 
L 181.2258 94.699881 
L 181.2258 97.575242 
L 182.0016 97.575242 
L 182.0016 100.450604 
L 182.7774 100.450604 
L 182.7774 103.43246 
L 183.5532 103.43246 
L 183.5532 106.414316 
L 184.329 106.414316 
L 184.329 109.289678 
L 185.1048 109.289678 
L 185.1048 112.165039 
L 185.8806 112.165039 
L 185.8806 114.933906 
L 186.6564 114.933906 
L 186.6564 117.702773 
L 187.4322 117.702773 
L 187.4322 120.365144 
L 188.208 120.365144 
L 188.208 123.027516 
L 188.9838 123.027516 
L 188.9838 125.583393 
L 189.7596 125.583393 
L 189.7596 128.032775 
L 190.5354 128.032775 
L 190.5354 130.482157 
L 191.3112 130.482157 
L 191.3112 132.825044 
L 192.087 132.825044 
L 192.087 135.061436 
L 192.8628 135.061436 
L 192.8628 137.297829 
L 193.6386 137.297829 
L 193.6386 139.321231 
L 194.4144 139.321231 
L 194.4144 141.344634 
L 195.1902 141.344634 
L 195.1902 143.261541 
L 195.966 143.261541 
L 195.966 145.071954 
L 196.7418 145.071954 
L 196.7418 146.775872 
L 197.5176 146.775872 
L 197.5176 148.2668 
L 198.2934 148.2668 
L 198.2934 149.651234 
L 199.0692 149.651234 
L 199.0692 150.929172 
L 199.845 150.929172 
L 199.845 152.100616 
L 200.6208 152.100616 
L 200.6208 153.272059 
L 201.3966 153.272059 
L 201.3966 154.230513 
L 202.1724 154.230513 
L 202.1724 155.188967 
L 202.9482 155.188967 
L 202.9482 156.147421 
L 203.724 156.147421 
L 203.724 157.105874 
L 204.4998 157.105874 
L 204.4998 157.957833 
L 205.2756 157.957833 
L 205.2756 158.809792 
L 206.0514 158.809792 
L 206.0514 159.661751 
L 206.8272 159.661751 
L 206.8272 160.407215 
L 207.603 160.407215 
L 207.603 161.046185 
L 208.3788 161.046185 
L 208.3788 161.685154 
L 209.1546 161.685154 
L 209.1546 162.217628 
L 209.9304 162.217628 
L 209.9304 162.643608 
L 210.7062 162.643608 
L 210.7062 162.963092 
L 211.482 162.963092 
L 211.482 163.282577 
L 212.2578 163.282577 
L 212.2578 163.495567 
L 213.0336 163.495567 
L 213.0336 163.708556 
L 213.8094 163.708556 
L 213.8094 163.921546 
L 214.5852 163.921546 
L 214.5852 164.134536 
L 216.1368 164.241031 
L 216.1368 164.347526 
L 217.6884 164.454021 
L 217.6884 164.560515 
L 219.24 164.560515 
L 219.24 164.560515 
" clip-path="url(#pc1900326af)" style="fill: none; stroke: #008000; stroke-width: 1.5; stroke-linecap: square"/>
   </g>
   <g id="patch_3">
    <path d="M 64.08 164.88 
L 64.08 30.984 
" style="fill: none; stroke: #000000; stroke-width: 0.8; stroke-linejoin: miter; stroke-linecap: square"/>
   </g>
   <g id="patch_4">
    <path d="M 219.24 164.88 
L 219.24 30.984 
" style="fill: none; stroke: #000000; stroke-width: 0.8; stroke-linejoin: miter; stroke-linecap: square"/>
   </g>
   <g id="patch_5">
    <path d="M 64.08 164.88 
L 219.24 164.88 
" style="fill: none; stroke: #000000; stroke-width: 0.8; stroke-linejoin: miter; stroke-linecap: square"/>
   </g>
   <g id="patch_6">
    <path d="M 64.08 30.984 
L 219.24 30.984 
" style="fill: none; stroke: #000000; stroke-width: 0.8; stroke-linejoin: miter; stroke-linecap: square"/>
   </g>
   <g id="text_1">
    <!-- $\Omega_{2,0}$ = ${0.3030}_{-0.0986}^{+0.0808}$ -->
    <g transform="translate(70.96 24.984) scale(0.14 -0.14)">
     <defs>
      <path id="DejaVuSans-3a9" d="M 4647 556 
L 4647 0 
L 2772 0 
L 2772 556 
Q 3325 859 3634 1378 
Q 3944 1897 3944 2528 
Q 3944 3278 3531 3731 
Q 3119 4184 2444 4184 
Q 1769 4184 1355 3729 
Q 941 3275 941 2528 
Q 941 1897 1250 1378 
Q 1563 859 2119 556 
L 2119 0 
L 244 0 
L 244 556 
L 1241 556 
Q 747 991 519 1456 
Q 294 1922 294 2497 
Q 294 3491 894 4106 
Q 1491 4722 2444 4722 
Q 3391 4722 3994 4106 
Q 4594 3494 4594 2528 
Q 4594 1922 4372 1459 
Q 4150 997 3647 556 
L 4647 556 
z
" transform="scale(0.015625)"/>
      <path id="DejaVuSans-32" d="M 1228 531 
L 3431 531 
L 3431 0 
L 469 0 
L 469 531 
Q 828 903 1448 1529 
Q 2069 2156 2228 2338 
Q 2531 2678 2651 2914 
Q 2772 3150 2772 3378 
Q 2772 3750 2511 3984 
Q 2250 4219 1831 4219 
Q 1534 4219 1204 4116 
Q 875 4013 500 3803 
L 500 4441 
Q 881 4594 1212 4672 
Q 1544 4750 1819 4750 
Q 2544 4750 2975 4387 
Q 3406 4025 3406 3419 
Q 3406 3131 3298 2873 
Q 3191 2616 2906 2266 
Q 2828 2175 2409 1742 
Q 1991 1309 1228 531 
z
" transform="scale(0.015625)"/>
      <path id="DejaVuSans-2c" d="M 750 794 
L 1409 794 
L 1409 256 
L 897 -744 
L 494 -744 
L 750 256 
L 750 794 
z
" transform="scale(0.015625)"/>
      <path id="DejaVuSans-30" d="M 2034 4250 
Q 1547 4250 1301 3770 
Q 1056 3291 1056 2328 
Q 1056 1369 1301 889 
Q 1547 409 2034 409 
Q 2525 409 2770 889 
Q 3016 1369 3016 2328 
Q 3016 3291 2770 3770 
Q 2525 4250 2034 4250 
z
M 2034 4750 
Q 2819 4750 3233 4129 
Q 3647 3509 3647 2328 
Q 3647 1150 3233 529 
Q 2819 -91 2034 -91 
Q 1250 -91 836 529 
Q 422 1150 422 2328 
Q 422 3509 836 4129 
Q 1250 4750 2034 4750 
z
" transform="scale(0.015625)"/>
      <path id="DejaVuSans-20" transform="scale(0.015625)"/>
      <path id="DejaVuSans-3d" d="M 678 2906 
L 4684 2906 
L 4684 2381 
L 678 2381 
L 678 2906 
z
M 678 1631 
L 4684 1631 
L 4684 1100 
L 678 1100 
L 678 1631 
z
" transform="scale(0.015625)"/>
      <path id="DejaVuSans-2e" d="M 684 794 
L 1344 794 
L 1344 0 
L 684 0 
L 684 794 
z
" transform="scale(0.015625)"/>
      <path id="DejaVuSans-33" d="M 2597 2516 
Q 3050 2419 3304 2112 
Q 3559 1806 3559 1356 
Q 3559 666 3084 287 
Q 2609 -91 1734 -91 
Q 1441 -91 1130 -33 
Q 819 25 488 141 
L 488 750 
Q 750 597 1062 519 
Q 1375 441 1716 441 
Q 2309 441 2620 675 
Q 2931 909 2931 1356 
Q 2931 1769 2642 2001 
Q 2353 2234 1838 2234 
L 1294 2234 
L 1294 2753 
L 1863 2753 
Q 2328 2753 2575 2939 
Q 2822 3125 2822 3475 
Q 2822 3834 2567 4026 
Q 2313 4219 1838 4219 
Q 1578 4219 1281 4162 
Q 984 4106 628 3988 
L 628 4550 
Q 988 4650 1302 4700 
Q 1616 4750 1894 4750 
Q 2613 4750 3031 4423 
Q 3450 4097 3450 3541 
Q 3450 3153 3228 2886 
Q 3006 2619 2597 2516 
z
" transform="scale(0.015625)"/>
      <path id="DejaVuSans-2b" d="M 2944 4013 
L 2944 2272 
L 4684 2272 
L 4684 1741 
L 2944 1741 
L 2944 0 
L 2419 0 
L 2419 1741 
L 678 1741 
L 678 2272 
L 2419 2272 
L 2419 4013 
L 2944 4013 
z
" transform="scale(0.015625)"/>
      <path id="DejaVuSans-38" d="M 2034 2216 
Q 1584 2216 1326 1975 
Q 1069 1734 1069 1313 
Q 1069 891 1326 650 
Q 1584 409 2034 409 
Q 2484 409 2743 651 
Q 3003 894 3003 1313 
Q 3003 1734 2745 1975 
Q 2488 2216 2034 2216 
z
M 1403 2484 
Q 997 2584 770 2862 
Q 544 3141 544 3541 
Q 544 4100 942 4425 
Q 1341 4750 2034 4750 
Q 2731 4750 3128 4425 
Q 3525 4100 3525 3541 
Q 3525 3141 3298 2862 
Q 3072 2584 2669 2484 
Q 3125 2378 3379 2068 
Q 3634 1759 3634 1313 
Q 3634 634 3220 271 
Q 2806 -91 2034 -91 
Q 1263 -91 848 271 
Q 434 634 434 1313 
Q 434 1759 690 2068 
Q 947 2378 1403 2484 
z
M 1172 3481 
Q 1172 3119 1398 2916 
Q 1625 2713 2034 2713 
Q 2441 2713 2670 2916 
Q 2900 3119 2900 3481 
Q 2900 3844 2670 4047 
Q 2441 4250 2034 4250 
Q 1625 4250 1398 4047 
Q 1172 3844 1172 3481 
z
" transform="scale(0.015625)"/>
      <path id="DejaVuSans-2212" d="M 678 2272 
L 4684 2272 
L 4684 1741 
L 678 1741 
L 678 2272 
z
" transform="scale(0.015625)"/>
      <path id="DejaVuSans-39" d="M 703 97 
L 703 672 
Q 941 559 1184 500 
Q 1428 441 1663 441 
Q 2288 441 2617 861 
Q 2947 1281 2994 2138 
Q 2813 1869 2534 1725 
Q 2256 1581 1919 1581 
Q 1219 1581 811 2004 
Q 403 2428 403 3163 
Q 403 3881 828 4315 
Q 1253 4750 1959 4750 
Q 2769 4750 3195 4129 
Q 3622 3509 3622 2328 
Q 3622 1225 3098 567 
Q 2575 -91 1691 -91 
Q 1453 -91 1209 -44 
Q 966 3 703 97 
z
M 1959 2075 
Q 2384 2075 2632 2365 
Q 2881 2656 2881 3163 
Q 2881 3666 2632 3958 
Q 2384 4250 1959 4250 
Q 1534 4250 1286 3958 
Q 1038 3666 1038 3163 
Q 1038 2656 1286 2365 
Q 1534 2075 1959 2075 
z
" transform="scale(0.015625)"/>
      <path id="DejaVuSans-36" d="M 2113 2584 
Q 1688 2584 1439 2293 
Q 1191 2003 1191 1497 
Q 1191 994 1439 701 
Q 1688 409 2113 409 
Q 2538 409 2786 701 
Q 3034 994 3034 1497 
Q 3034 2003 2786 2293 
Q 2538 2584 2113 2584 
z
M 3366 4563 
L 3366 3988 
Q 3128 4100 2886 4159 
Q 2644 4219 2406 4219 
Q 1781 4219 1451 3797 
Q 1122 3375 1075 2522 
Q 1259 2794 1537 2939 
Q 1816 3084 2150 3084 
Q 2853 3084 3261 2657 
Q 3669 2231 3669 1497 
Q 3669 778 3244 343 
Q 2819 -91 2113 -91 
Q 1303 -91 875 529 
Q 447 1150 447 2328 
Q 447 3434 972 4092 
Q 1497 4750 2381 4750 
Q 2619 4750 2861 4703 
Q 3103 4656 3366 4563 
z
" transform="scale(0.015625)"/>
     </defs>
     <use xlink:href="#DejaVuSans-3a9" transform="translate(0 0.765625)"/>
     <use xlink:href="#DejaVuSans-32" transform="translate(77.373047 -15.640625) scale(0.7)"/>
     <use xlink:href="#DejaVuSans-2c" transform="translate(121.90918 -15.640625) scale(0.7)"/>
     <use xlink:href="#DejaVuSans-30" transform="translate(157.797852 -15.640625) scale(0.7)"/>
     <use xlink:href="#DejaVuSans-20" transform="translate(205.068359 0.765625)"/>
     <use xlink:href="#DejaVuSans-3d" transform="translate(236.855469 0.765625)"/>
     <use xlink:href="#DejaVuSans-20" transform="translate(320.644531 0.765625)"/>
     <use xlink:href="#DejaVuSans-30" transform="translate(352.431641 0.765625)"/>
     <use xlink:href="#DejaVuSans-2e" transform="translate(416.054688 0.765625)"/>
     <use xlink:href="#DejaVuSans-33" transform="translate(447.841797 0.765625)"/>
     <use xlink:href="#DejaVuSans-30" transform="translate(511.464844 0.765625)"/>
     <use xlink:href="#DejaVuSans-33" transform="translate(575.087891 0.765625)"/>
     <use xlink:href="#DejaVuSans-30" transform="translate(638.710938 0.765625)"/>
     <use xlink:href="#DejaVuSans-2b" transform="translate(703.291016 39.046875) scale(0.7)"/>
     <use xlink:href="#DejaVuSans-30" transform="translate(761.943359 39.046875) scale(0.7)"/>
     <use xlink:href="#DejaVuSans-2e" transform="translate(806.479492 39.046875) scale(0.7)"/>
     <use xlink:href="#DejaVuSans-30" transform="translate(828.730469 39.046875) scale(0.7)"/>
     <use xlink:href="#DejaVuSans-38" transform="translate(873.266602 39.046875) scale(0.7)"/>
     <use xlink:href="#DejaVuSans-30" transform="translate(917.802734 39.046875) scale(0.7)"/>
     <use xlink:href="#DejaVuSans-38" transform="translate(962.338867 39.046875) scale(0.7)"/>
     <use xlink:href="#DejaVuSans-2212" transform="translate(703.291016 -26.578125) scale(0.7)"/>
     <use xlink:href="#DejaVuSans-30" transform="translate(761.943359 -26.578125) scale(0.7)"/>
     <use xlink:href="#DejaVuSans-2e" transform="translate(806.479492 -26.578125) scale(0.7)"/>
     <use xlink:href="#DejaVuSans-30" transform="translate(828.730469 -26.578125) scale(0.7)"/>
     <use xlink:href="#DejaVuSans-39" transform="translate(873.266602 -26.578125) scale(0.7)"/>
     <use xlink:href="#DejaVuSans-38" transform="translate(917.802734 -26.578125) scale(0.7)"/>
     <use xlink:href="#DejaVuSans-36" transform="translate(962.338867 -26.578125) scale(0.7)"/>
    </g>
   </g>
  </g>
  <g id="axes_2">
   <g id="matplotlib.axis_3"/>
   <g id="matplotlib.axis_4"/>
  </g>
  <g id="axes_3">
   <g id="patch_7">
    <path d="M 64.08 329.76 
L 219.24 329.76 
L 219.24 195.864 
L 64.08 195.864 
z
" style="fill: #ffffff"/>
   </g>
   <g id="QuadContourSet_1">
    <path d="M 78.0444 325.800709 
L 78.541284 325.74312 
L 81.1476 325.542461 
L 84.2508 325.269183 
L 87.354 324.885722 
L 90.4572 324.353803 
L 93.5604 323.720704 
L 95.880043 323.0652 
L 96.6636 322.935111 
L 99.7668 322.39905 
L 102.87 321.699349 
L 105.9732 320.645253 
L 106.667321 320.38728 
L 109.0764 319.932467 
L 112.1796 319.245837 
L 115.2828 318.172935 
L 116.344706 317.70936 
L 118.386 317.26136 
L 121.4892 316.323452 
L 124.052353 315.03144 
L 124.5924 314.879146 
L 127.6956 313.888597 
L 130.708729 312.35352 
L 130.7988 312.327623 
L 133.902 311.489779 
L 137.0052 309.901453 
L 137.385333 309.6756 
L 140.1084 308.788527 
L 143.2116 307.000897 
L 143.216865 306.99768 
L 146.3148 305.879736 
L 148.817072 304.31976 
L 149.418 304.066824 
L 152.5212 302.418129 
L 153.666852 301.64184 
L 155.6244 300.684323 
L 158.057515 298.96392 
L 158.7276 298.606119 
L 161.8308 296.368041 
L 161.941166 296.286 
L 164.934 294.497897 
L 166.098252 293.60808 
L 168.0372 292.25515 
L 169.621241 290.93016 
L 171.1404 289.698547 
L 172.887231 288.25224 
L 174.2436 287.160879 
L 176.205558 285.57432 
L 177.3468 284.528722 
L 179.196145 282.8964 
L 180.45 281.518228 
L 181.709976 280.21848 
L 183.5532 277.54056 
L 183.5532 277.54056 
L 186.05999 274.86264 
L 186.6564 273.963409 
L 188.209076 272.18472 
L 189.7596 269.542969 
L 189.789627 269.5068 
L 191.988546 266.82888 
L 192.8628 265.338489 
L 193.836365 264.15096 
L 195.127249 261.47304 
L 195.966 258.92167 
L 196.036065 258.79512 
L 197.660869 256.1172 
L 198.669724 253.43928 
L 199.0692 252.074297 
L 199.66975 250.76136 
L 200.747391 248.08344 
L 201.520379 245.40552 
L 201.863762 242.7276 
L 202.007837 240.04968 
L 200.577502 237.37176 
L 199.0692 236.408197 
L 196.976416 237.37176 
L 195.966 237.663588 
L 192.8628 239.607427 
L 192.285025 240.04968 
L 189.7596 241.559769 
L 188.382696 242.7276 
L 186.6564 244.351102 
L 185.701118 245.40552 
L 183.5532 247.882915 
L 183.384046 248.08344 
L 180.805613 250.76136 
L 180.45 251.079229 
L 178.028755 253.43928 
L 177.3468 254.097902 
L 175.204756 256.1172 
L 174.2436 256.977026 
L 172.23545 258.79512 
L 171.1404 259.828563 
L 169.461456 261.47304 
L 168.0372 262.892995 
L 166.706943 264.15096 
L 164.934 265.753875 
L 163.688126 266.82888 
L 161.8308 268.336802 
L 160.430319 269.5068 
L 158.7276 270.83255 
L 157.10374 272.18472 
L 155.6244 273.315341 
L 153.737345 274.86264 
L 152.5212 275.736236 
L 150.34916 277.54056 
L 149.418 278.200944 
L 146.840189 280.21848 
L 146.3148 280.551503 
L 143.21824 282.8964 
L 143.2116 282.900822 
L 140.1084 285.008417 
L 139.364487 285.57432 
L 137.0052 286.892264 
L 135.055659 288.25224 
L 133.902 288.86175 
L 131.05441 290.93016 
L 130.7988 291.077738 
L 127.6956 292.771524 
L 126.485754 293.60808 
L 124.5924 294.513927 
L 122.047374 296.286 
L 121.4892 296.56882 
L 118.386 298.078371 
L 116.914625 298.96392 
L 115.2828 299.638877 
L 112.1796 301.635388 
L 112.16997 301.64184 
L 109.0764 302.973412 
L 106.875621 304.31976 
L 105.9732 304.696074 
L 102.87 306.27458 
L 101.643246 306.99768 
L 99.7668 307.787531 
L 96.6636 309.582314 
L 96.516033 309.6756 
L 93.5604 311.05043 
L 91.151626 312.35352 
L 90.4572 312.672373 
L 87.354 313.836484 
L 84.521369 315.03144 
L 84.2508 315.134812 
L 81.1476 316.305858 
L 78.359317 317.70936 
L 78.0444 317.897987 
L 74.9412 319.692483 
L 73.77088 320.38728 
L 71.838 322.570758 
L 70.892185 323.0652 
L 71.838 324.15968 
L 74.9412 325.564952 
L 77.024863 325.74312 
z
" clip-path="url(#pab213d8fc4)" style="fill: #ffffff"/>
   </g>
   <g id="QuadContourSet_2">
    <path d="M 62.5284 333.77688 
L 65.6316 333.77688 
L 68.7348 333.77688 
L 71.838 333.77688 
L 74.9412 333.77688 
L 78.0444 333.77688 
L 81.1476 333.77688 
L 84.2508 333.77688 
L 87.354 333.77688 
L 90.4572 333.77688 
L 93.5604 333.77688 
L 96.6636 333.77688 
L 99.7668 333.77688 
L 102.87 333.77688 
L 105.9732 333.77688 
L 109.0764 333.77688 
L 112.1796 333.77688 
L 115.2828 333.77688 
L 118.386 333.77688 
L 121.4892 333.77688 
L 124.5924 333.77688 
L 127.6956 333.77688 
L 130.7988 333.77688 
L 133.902 333.77688 
L 137.0052 333.77688 
L 140.1084 333.77688 
L 143.2116 333.77688 
L 146.3148 333.77688 
L 149.418 333.77688 
L 152.5212 333.77688 
L 155.6244 333.77688 
L 158.7276 333.77688 
L 161.8308 333.77688 
L 164.934 333.77688 
L 168.0372 333.77688 
L 171.1404 333.77688 
L 174.2436 333.77688 
L 177.3468 333.77688 
L 180.45 333.77688 
L 183.5532 333.77688 
L 186.6564 333.77688 
L 189.7596 333.77688 
L 192.8628 333.77688 
L 195.966 333.77688 
L 199.0692 333.77688 
L 202.1724 333.77688 
L 205.2756 333.77688 
L 208.3788 333.77688 
L 211.482 333.77688 
L 214.5852 333.77688 
L 217.6884 333.77688 
L 220.7916 333.77688 
L 223.8948 333.77688 
L 223.8948 331.09896 
L 223.8948 328.42104 
L 223.8948 325.74312 
L 223.8948 323.0652 
L 223.8948 320.38728 
L 223.8948 317.70936 
L 223.8948 315.03144 
L 223.8948 312.35352 
L 223.8948 309.6756 
L 223.8948 306.99768 
L 223.8948 304.31976 
L 223.8948 301.64184 
L 223.8948 298.96392 
L 223.8948 296.286 
L 223.8948 293.60808 
L 223.8948 290.93016 
L 223.8948 288.25224 
L 223.8948 285.57432 
L 223.8948 282.8964 
L 223.8948 280.21848 
L 223.8948 277.54056 
L 223.8948 274.86264 
L 223.8948 272.18472 
L 223.8948 269.5068 
L 223.8948 266.82888 
L 223.8948 264.15096 
L 223.8948 261.47304 
L 223.8948 258.79512 
L 223.8948 256.1172 
L 223.8948 253.43928 
L 223.8948 250.76136 
L 223.8948 248.08344 
L 223.8948 245.40552 
L 223.8948 242.7276 
L 223.8948 240.04968 
L 223.8948 237.37176 
L 223.8948 234.69384 
L 223.8948 232.01592 
L 223.8948 229.338 
L 223.8948 226.66008 
L 223.8948 223.98216 
L 223.8948 221.30424 
L 223.8948 218.62632 
L 223.8948 215.9484 
L 223.8948 213.27048 
L 223.8948 210.59256 
L 223.8948 207.91464 
L 223.8948 205.23672 
L 223.8948 202.5588 
L 223.8948 199.88088 
L 223.8948 197.20296 
L 223.8948 194.52504 
L 223.8948 191.84712 
L 220.7916 191.84712 
L 217.6884 191.84712 
L 214.5852 191.84712 
L 211.482 191.84712 
L 208.3788 191.84712 
L 205.2756 191.84712 
L 202.1724 191.84712 
L 199.0692 191.84712 
L 195.966 191.84712 
L 192.8628 191.84712 
L 189.7596 191.84712 
L 186.6564 191.84712 
L 183.5532 191.84712 
L 180.45 191.84712 
L 177.3468 191.84712 
L 174.2436 191.84712 
L 171.1404 191.84712 
L 168.0372 191.84712 
L 164.934 191.84712 
L 161.8308 191.84712 
L 158.7276 191.84712 
L 155.6244 191.84712 
L 152.5212 191.84712 
L 149.418 191.84712 
L 146.3148 191.84712 
L 143.2116 191.84712 
L 140.1084 191.84712 
L 137.0052 191.84712 
L 133.902 191.84712 
L 130.7988 191.84712 
L 127.6956 191.84712 
L 124.5924 191.84712 
L 121.4892 191.84712 
L 118.386 191.84712 
L 115.2828 191.84712 
L 112.1796 191.84712 
L 109.0764 191.84712 
L 105.9732 191.84712 
L 102.87 191.84712 
L 99.7668 191.84712 
L 96.6636 191.84712 
L 93.5604 191.84712 
L 90.4572 191.84712 
L 87.354 191.84712 
L 84.2508 191.84712 
L 81.1476 191.84712 
L 78.0444 191.84712 
L 74.9412 191.84712 
L 71.838 191.84712 
L 68.7348 191.84712 
L 65.6316 191.84712 
L 62.5284 191.84712 
L 59.4252 191.84712 
L 59.4252 194.52504 
L 59.4252 197.20296 
L 59.4252 199.88088 
L 59.4252 202.5588 
L 59.4252 205.23672 
L 59.4252 207.91464 
L 59.4252 210.59256 
L 59.4252 213.27048 
L 59.4252 215.9484 
L 59.4252 218.62632 
L 59.4252 221.30424 
L 59.4252 223.98216 
L 59.4252 226.66008 
L 59.4252 229.338 
L 59.4252 232.01592 
L 59.4252 234.69384 
L 59.4252 237.37176 
L 59.4252 240.04968 
L 59.4252 242.7276 
L 59.4252 245.40552 
L 59.4252 248.08344 
L 59.4252 250.76136 
L 59.4252 253.43928 
L 59.4252 256.1172 
L 59.4252 258.79512 
L 59.4252 261.47304 
L 59.4252 264.15096 
L 59.4252 266.82888 
L 59.4252 269.5068 
L 59.4252 272.18472 
L 59.4252 274.86264 
L 59.4252 277.54056 
L 59.4252 280.21848 
L 59.4252 282.8964 
L 59.4252 285.57432 
L 59.4252 288.25224 
L 59.4252 290.93016 
L 59.4252 293.60808 
L 59.4252 296.286 
L 59.4252 298.96392 
L 59.4252 301.64184 
L 59.4252 304.31976 
L 59.4252 306.99768 
L 59.4252 309.6756 
L 59.4252 312.35352 
L 59.4252 315.03144 
L 59.4252 317.70936 
L 59.4252 320.38728 
L 59.4252 323.0652 
L 59.4252 325.74312 
L 59.4252 328.42104 
L 59.4252 331.09896 
L 59.4252 333.77688 
L 62.5284 333.77688 
z
M 77.024863 325.74312 
L 74.9412 325.564952 
L 71.838 324.15968 
L 70.892185 323.0652 
L 71.838 322.570758 
L 73.77088 320.38728 
L 74.9412 319.692483 
L 78.0444 317.897987 
L 78.359317 317.70936 
L 81.1476 316.305858 
L 84.2508 315.134812 
L 84.521369 315.03144 
L 87.354 313.836484 
L 90.4572 312.672373 
L 91.151626 312.35352 
L 93.5604 311.05043 
L 96.516033 309.6756 
L 96.6636 309.582314 
L 99.7668 307.787531 
L 101.643246 306.99768 
L 102.87 306.27458 
L 105.9732 304.696074 
L 106.875621 304.31976 
L 109.0764 302.973412 
L 112.16997 301.64184 
L 112.1796 301.635388 
L 115.2828 299.638877 
L 116.914625 298.96392 
L 118.386 298.078371 
L 121.4892 296.56882 
L 122.047374 296.286 
L 124.5924 294.513927 
L 126.485754 293.60808 
L 127.6956 292.771524 
L 130.7988 291.077738 
L 131.05441 290.93016 
L 133.902 288.86175 
L 135.055659 288.25224 
L 137.0052 286.892264 
L 139.364487 285.57432 
L 140.1084 285.008417 
L 143.2116 282.900822 
L 143.21824 282.8964 
L 146.3148 280.551503 
L 146.840189 280.21848 
L 149.418 278.200944 
L 150.34916 277.54056 
L 152.5212 275.736236 
L 153.737345 274.86264 
L 155.6244 273.315341 
L 157.10374 272.18472 
L 158.7276 270.83255 
L 160.430319 269.5068 
L 161.8308 268.336802 
L 163.688126 266.82888 
L 164.934 265.753875 
L 166.706943 264.15096 
L 168.0372 262.892995 
L 169.461456 261.47304 
L 171.1404 259.828563 
L 172.23545 258.79512 
L 174.2436 256.977026 
L 175.204756 256.1172 
L 177.3468 254.097902 
L 178.028755 253.43928 
L 180.45 251.079229 
L 180.805613 250.76136 
L 183.384046 248.08344 
L 183.5532 247.882915 
L 185.701118 245.40552 
L 186.6564 244.351102 
L 188.382696 242.7276 
L 189.7596 241.559769 
L 192.285025 240.04968 
L 192.8628 239.607427 
L 195.966 237.663588 
L 196.976416 237.37176 
L 199.0692 236.408197 
L 200.577502 237.37176 
L 202.007837 240.04968 
L 201.863762 242.7276 
L 201.520379 245.40552 
L 200.747391 248.08344 
L 199.66975 250.76136 
L 199.0692 252.074297 
L 198.669724 253.43928 
L 197.660869 256.1172 
L 196.036065 258.79512 
L 195.966 258.92167 
L 195.127249 261.47304 
L 193.836365 264.15096 
L 192.8628 265.338489 
L 191.988546 266.82888 
L 189.789627 269.5068 
L 189.7596 269.542969 
L 188.209076 272.18472 
L 186.6564 273.963409 
L 186.05999 274.86264 
L 183.5532 277.54056 
L 183.5532 277.54056 
L 181.709976 280.21848 
L 180.45 281.518228 
L 179.196145 282.8964 
L 177.3468 284.528722 
L 176.205558 285.57432 
L 174.2436 287.160879 
L 172.887231 288.25224 
L 171.1404 289.698547 
L 169.621241 290.93016 
L 168.0372 292.25515 
L 166.098252 293.60808 
L 164.934 294.497897 
L 161.941166 296.286 
L 161.8308 296.368041 
L 158.7276 298.606119 
L 158.057515 298.96392 
L 155.6244 300.684323 
L 153.666852 301.64184 
L 152.5212 302.418129 
L 149.418 304.066824 
L 148.817072 304.31976 
L 146.3148 305.879736 
L 143.216865 306.99768 
L 143.2116 307.000897 
L 140.1084 308.788527 
L 137.385333 309.6756 
L 137.0052 309.901453 
L 133.902 311.489779 
L 130.7988 312.327623 
L 130.708729 312.35352 
L 127.6956 313.888597 
L 124.5924 314.879146 
L 124.052353 315.03144 
L 121.4892 316.323452 
L 118.386 317.26136 
L 116.344706 317.70936 
L 115.2828 318.172935 
L 112.1796 319.245837 
L 109.0764 319.932467 
L 106.667321 320.38728 
L 105.9732 320.645253 
L 102.87 321.699349 
L 99.7668 322.39905 
L 96.6636 322.935111 
L 95.880043 323.0652 
L 93.5604 323.720704 
L 90.4572 324.353803 
L 87.354 324.885722 
L 84.2508 325.269183 
L 81.1476 325.542461 
L 78.541284 325.74312 
L 78.0444 325.800709 
L 77.024863 325.74312 
z
" clip-path="url(#pab213d8fc4)" style="fill: none"/>
    <path d="M 78.0444 325.800709 
L 78.541284 325.74312 
L 81.1476 325.542461 
L 84.2508 325.269183 
L 87.354 324.885722 
L 90.4572 324.353803 
L 93.5604 323.720704 
L 95.880043 323.0652 
L 96.6636 322.935111 
L 99.7668 322.39905 
L 102.87 321.699349 
L 105.9732 320.645253 
L 106.667321 320.38728 
L 109.0764 319.932467 
L 112.1796 319.245837 
L 115.2828 318.172935 
L 116.344706 317.70936 
L 118.386 317.26136 
L 121.4892 316.323452 
L 124.052353 315.03144 
L 124.5924 314.879146 
L 127.6956 313.888597 
L 130.708729 312.35352 
L 130.7988 312.327623 
L 133.902 311.489779 
L 137.0052 309.901453 
L 137.385333 309.6756 
L 140.1084 308.788527 
L 143.2116 307.000897 
L 143.216865 306.99768 
L 146.3148 305.879736 
L 148.817072 304.31976 
L 149.418 304.066824 
L 152.5212 302.418129 
L 153.666852 301.64184 
L 155.6244 300.684323 
L 158.057515 298.96392 
L 158.7276 298.606119 
L 161.8308 296.368041 
L 161.941166 296.286 
L 164.934 294.497897 
L 166.098252 293.60808 
L 168.0372 292.25515 
L 169.621241 290.93016 
L 171.1404 289.698547 
L 172.887231 288.25224 
L 174.2436 287.160879 
L 176.205558 285.57432 
L 177.3468 284.528722 
L 179.196145 282.8964 
L 180.45 281.518228 
L 181.709976 280.21848 
L 183.5532 277.54056 
L 183.5532 277.54056 
L 186.05999 274.86264 
L 186.6564 273.963409 
L 188.209076 272.18472 
L 189.7596 269.542969 
L 189.789627 269.5068 
L 191.988546 266.82888 
L 192.8628 265.338489 
L 193.836365 264.15096 
L 195.127249 261.47304 
L 195.966 258.92167 
L 196.036065 258.79512 
L 197.660869 256.1172 
L 198.669724 253.43928 
L 199.0692 252.074297 
L 199.66975 250.76136 
L 200.747391 248.08344 
L 201.520379 245.40552 
L 201.863762 242.7276 
L 202.007837 240.04968 
L 200.577502 237.37176 
L 199.0692 236.408197 
L 196.976416 237.37176 
L 195.966 237.663588 
L 192.8628 239.607427 
L 192.285025 240.04968 
L 189.7596 241.559769 
L 188.382696 242.7276 
L 186.6564 244.351102 
L 185.701118 245.40552 
L 183.5532 247.882915 
L 183.384046 248.08344 
L 180.805613 250.76136 
L 180.45 251.079229 
L 178.028755 253.43928 
L 177.3468 254.097902 
L 175.204756 256.1172 
L 174.2436 256.977026 
L 172.23545 258.79512 
L 171.1404 259.828563 
L 169.461456 261.47304 
L 168.0372 262.892995 
L 166.706943 264.15096 
L 164.934 265.753875 
L 163.688126 266.82888 
L 161.8308 268.336802 
L 160.430319 269.5068 
L 158.7276 270.83255 
L 157.10374 272.18472 
L 155.6244 273.315341 
L 153.737345 274.86264 
L 152.5212 275.736236 
L 150.34916 277.54056 
L 149.418 278.200944 
L 146.840189 280.21848 
L 146.3148 280.551503 
L 143.21824 282.8964 
L 143.2116 282.900822 
L 140.1084 285.008417 
L 139.364487 285.57432 
L 137.0052 286.892264 
L 135.055659 288.25224 
L 133.902 288.86175 
L 131.05441 290.93016 
L 130.7988 291.077738 
L 127.6956 292.771524 
L 126.485754 293.60808 
L 124.5924 294.513927 
L 122.047374 296.286 
L 121.4892 296.56882 
L 118.386 298.078371 
L 116.914625 298.96392 
L 115.2828 299.638877 
L 112.1796 301.635388 
L 112.16997 301.64184 
L 109.0764 302.973412 
L 106.875621 304.31976 
L 105.9732 304.696074 
L 102.87 306.27458 
L 101.643246 306.99768 
L 99.7668 307.787531 
L 96.6636 309.582314 
L 96.516033 309.6756 
L 93.5604 311.05043 
L 91.151626 312.35352 
L 90.4572 312.672373 
L 87.354 313.836484 
L 84.521369 315.03144 
L 84.2508 315.134812 
L 81.1476 316.305858 
L 78.359317 317.70936 
L 78.0444 317.897987 
L 74.9412 319.692483 
L 73.77088 320.38728 
L 71.838 322.570758 
L 70.892185 323.0652 
L 71.838 324.15968 
L 74.9412 325.564952 
L 77.024863 325.74312 
z
M 106.312524 312.35352 
L 108.358576 309.6756 
L 109.0764 309.243116 
L 112.1796 307.569323 
L 112.91336 306.99768 
L 115.2828 305.596195 
L 117.022786 304.31976 
L 118.386 303.467174 
L 121.4892 301.670013 
L 121.530994 301.64184 
L 124.5924 299.789271 
L 125.842795 298.96392 
L 127.6956 297.775786 
L 130.309858 296.286 
L 130.7988 295.978046 
L 133.902 294.05305 
L 134.581556 293.60808 
L 137.0052 291.945635 
L 138.64877 290.93016 
L 140.1084 289.949849 
L 142.785337 288.25224 
L 143.2116 287.936917 
L 146.3148 285.750923 
L 146.578121 285.57432 
L 149.418 283.534717 
L 150.378658 282.8964 
L 152.5212 281.330991 
L 154.148187 280.21848 
L 155.6244 279.098964 
L 157.869576 277.54056 
L 158.7276 276.882632 
L 161.653363 274.86264 
L 161.8308 274.721629 
L 164.934 272.390288 
L 165.228778 272.18472 
L 168.0372 269.981484 
L 168.725723 269.5068 
L 171.1404 267.637332 
L 172.363857 266.82888 
L 174.2436 265.332745 
L 175.886237 264.15096 
L 177.3468 262.993074 
L 179.846404 261.47304 
L 180.45 261.04647 
L 183.5532 260.304409 
L 184.748491 261.47304 
L 184.685459 264.15096 
L 183.590491 266.82888 
L 183.5532 266.887395 
L 182.032848 269.5068 
L 180.45 272.18472 
L 180.45 272.18472 
L 178.783247 274.86264 
L 177.3468 276.707497 
L 176.753572 277.54056 
L 174.336288 280.21848 
L 174.2436 280.308378 
L 171.821535 282.8964 
L 171.1404 283.511704 
L 168.894854 285.57432 
L 168.0372 286.30201 
L 165.751275 288.25224 
L 164.934 288.919971 
L 162.248046 290.93016 
L 161.8308 291.243427 
L 158.7276 293.462642 
L 158.516948 293.60808 
L 155.6244 295.570384 
L 154.360708 296.286 
L 152.5212 297.465909 
L 149.844381 298.96392 
L 149.418 299.241709 
L 146.3148 301.032266 
L 145.035661 301.64184 
L 143.2116 302.655547 
L 140.1084 304.014199 
L 139.371035 304.31976 
L 137.0052 305.487724 
L 133.902 306.622216 
L 132.712997 306.99768 
L 130.7988 307.762728 
L 127.6956 308.772012 
L 125.207914 309.6756 
L 124.5924 309.944561 
L 121.4892 311.062204 
L 118.386 311.902944 
L 116.697724 312.35352 
L 115.2828 312.741945 
L 112.1796 313.313833 
L 109.0764 313.451165 
z
" clip-path="url(#pab213d8fc4)" style="fill: #008000; fill-opacity: 0.333333"/>
    <path d="M 109.0764 313.451165 
L 112.1796 313.313833 
L 115.2828 312.741945 
L 116.697724 312.35352 
L 118.386 311.902944 
L 121.4892 311.062204 
L 124.5924 309.944561 
L 125.207914 309.6756 
L 127.6956 308.772012 
L 130.7988 307.762728 
L 132.712997 306.99768 
L 133.902 306.622216 
L 137.0052 305.487724 
L 139.371035 304.31976 
L 140.1084 304.014199 
L 143.2116 302.655547 
L 145.035661 301.64184 
L 146.3148 301.032266 
L 149.418 299.241709 
L 149.844381 298.96392 
L 152.5212 297.465909 
L 154.360708 296.286 
L 155.6244 295.570384 
L 158.516948 293.60808 
L 158.7276 293.462642 
L 161.8308 291.243427 
L 162.248046 290.93016 
L 164.934 288.919971 
L 165.751275 288.25224 
L 168.0372 286.30201 
L 168.894854 285.57432 
L 171.1404 283.511704 
L 171.821535 282.8964 
L 174.2436 280.308378 
L 174.336288 280.21848 
L 176.753572 277.54056 
L 177.3468 276.707497 
L 178.783247 274.86264 
L 180.45 272.18472 
L 180.45 272.18472 
L 182.032848 269.5068 
L 183.5532 266.887395 
L 183.590491 266.82888 
L 184.685459 264.15096 
L 184.748491 261.47304 
L 183.5532 260.304409 
L 180.45 261.04647 
L 179.846404 261.47304 
L 177.3468 262.993074 
L 175.886237 264.15096 
L 174.2436 265.332745 
L 172.363857 266.82888 
L 171.1404 267.637332 
L 168.725723 269.5068 
L 168.0372 269.981484 
L 165.228778 272.18472 
L 164.934 272.390288 
L 161.8308 274.721629 
L 161.653363 274.86264 
L 158.7276 276.882632 
L 157.869576 277.54056 
L 155.6244 279.098964 
L 154.148187 280.21848 
L 152.5212 281.330991 
L 150.378658 282.8964 
L 149.418 283.534717 
L 146.578121 285.57432 
L 146.3148 285.750923 
L 143.2116 287.936917 
L 142.785337 288.25224 
L 140.1084 289.949849 
L 138.64877 290.93016 
L 137.0052 291.945635 
L 134.581556 293.60808 
L 133.902 294.05305 
L 130.7988 295.978046 
L 130.309858 296.286 
L 127.6956 297.775786 
L 125.842795 298.96392 
L 124.5924 299.789271 
L 121.530994 301.64184 
L 121.4892 301.670013 
L 118.386 303.467174 
L 117.022786 304.31976 
L 115.2828 305.596195 
L 112.91336 306.99768 
L 112.1796 307.569323 
L 109.0764 309.243116 
L 108.358576 309.6756 
L 106.312524 312.35352 
z
" clip-path="url(#pab213d8fc4)" style="fill: #008000"/>
   </g>
   <g id="matplotlib.axis_5">
    <g id="xtick_4">
     <g id="line2d_5">
      <g>
       <use xlink:href="#m4fed8fae5b" x="107.364095" y="329.76" style="stroke: #000000; stroke-width: 0.8"/>
      </g>
     </g>
     <g id="text_2">
      <!-- 0.15 -->
      <g transform="translate(101.44318 357.877081) rotate(-45) scale(0.1 -0.1)">
       <defs>
        <path id="DejaVuSans-31" d="M 794 531 
L 1825 531 
L 1825 4091 
L 703 3866 
L 703 4441 
L 1819 4666 
L 2450 4666 
L 2450 531 
L 3481 531 
L 3481 0 
L 794 0 
L 794 531 
z
" transform="scale(0.015625)"/>
        <path id="DejaVuSans-35" d="M 691 4666 
L 3169 4666 
L 3169 4134 
L 1269 4134 
L 1269 2991 
Q 1406 3038 1543 3061 
Q 1681 3084 1819 3084 
Q 2600 3084 3056 2656 
Q 3513 2228 3513 1497 
Q 3513 744 3044 326 
Q 2575 -91 1722 -91 
Q 1428 -91 1123 -41 
Q 819 9 494 109 
L 494 744 
Q 775 591 1075 516 
Q 1375 441 1709 441 
Q 2250 441 2565 725 
Q 2881 1009 2881 1497 
Q 2881 1984 2565 2268 
Q 2250 2553 1709 2553 
Q 1456 2553 1204 2497 
Q 953 2441 691 2322 
L 691 4666 
z
" transform="scale(0.015625)"/>
       </defs>
       <use xlink:href="#DejaVuSans-30"/>
       <use xlink:href="#DejaVuSans-2e" x="63.623047"/>
       <use xlink:href="#DejaVuSans-31" x="95.410156"/>
       <use xlink:href="#DejaVuSans-35" x="159.033203"/>
      </g>
     </g>
    </g>
    <g id="xtick_5">
     <g id="line2d_6">
      <g>
       <use xlink:href="#m4fed8fae5b" x="150.773143" y="329.76" style="stroke: #000000; stroke-width: 0.8"/>
      </g>
     </g>
     <g id="text_3">
      <!-- 0.30 -->
      <g transform="translate(144.852229 357.877081) rotate(-45) scale(0.1 -0.1)">
       <use xlink:href="#DejaVuSans-30"/>
       <use xlink:href="#DejaVuSans-2e" x="63.623047"/>
       <use xlink:href="#DejaVuSans-33" x="95.410156"/>
       <use xlink:href="#DejaVuSans-30" x="159.033203"/>
      </g>
     </g>
    </g>
    <g id="xtick_6">
     <g id="line2d_7">
      <g>
       <use xlink:href="#m4fed8fae5b" x="194.182192" y="329.76" style="stroke: #000000; stroke-width: 0.8"/>
      </g>
     </g>
     <g id="text_4">
      <!-- 0.45 -->
      <g transform="translate(188.261277 357.877081) rotate(-45) scale(0.1 -0.1)">
       <defs>
        <path id="DejaVuSans-34" d="M 2419 4116 
L 825 1625 
L 2419 1625 
L 2419 4116 
z
M 2253 4666 
L 3047 4666 
L 3047 1625 
L 3713 1625 
L 3713 1100 
L 3047 1100 
L 3047 0 
L 2419 0 
L 2419 1100 
L 313 1100 
L 313 1709 
L 2253 4666 
z
" transform="scale(0.015625)"/>
       </defs>
       <use xlink:href="#DejaVuSans-30"/>
       <use xlink:href="#DejaVuSans-2e" x="63.623047"/>
       <use xlink:href="#DejaVuSans-34" x="95.410156"/>
       <use xlink:href="#DejaVuSans-35" x="159.033203"/>
      </g>
     </g>
    </g>
    <g id="text_5">
     <!-- $\Omega_{2,0}$ -->
     <g transform="translate(131.36 377.3288) scale(0.1 -0.1)">
      <use xlink:href="#DejaVuSans-3a9" transform="translate(0 0.21875)"/>
      <use xlink:href="#DejaVuSans-32" transform="translate(77.373047 -16.1875) scale(0.7)"/>
      <use xlink:href="#DejaVuSans-2c" transform="translate(121.90918 -16.1875) scale(0.7)"/>
      <use xlink:href="#DejaVuSans-30" transform="translate(157.797852 -16.1875) scale(0.7)"/>
     </g>
    </g>
   </g>
   <g id="matplotlib.axis_6">
    <g id="ytick_1">
     <g id="line2d_8">
      <defs>
       <path id="mc40eb9ead3" d="M 0 0 
L -3.5 0 
" style="stroke: #000000; stroke-width: 0.8"/>
      </defs>
      <g>
       <use xlink:href="#mc40eb9ead3" x="64.08" y="311.402472" style="stroke: #000000; stroke-width: 0.8"/>
      </g>
     </g>
     <g id="text_6">
      <!-- −1 -->
      <g transform="translate(45.185138 323.400461) rotate(-45) scale(0.1 -0.1)">
       <use xlink:href="#DejaVuSans-2212"/>
       <use xlink:href="#DejaVuSans-31" x="83.789062"/>
      </g>
     </g>
    </g>
    <g id="ytick_2">
     <g id="line2d_9">
      <g>
       <use xlink:href="#mc40eb9ead3" x="64.08" y="279.148105" style="stroke: #000000; stroke-width: 0.8"/>
      </g>
     </g>
     <g id="text_7">
      <!-- 0 -->
      <g transform="translate(51.110472 285.22076) rotate(-45) scale(0.1 -0.1)">
       <use xlink:href="#DejaVuSans-30"/>
      </g>
     </g>
    </g>
    <g id="ytick_3">
     <g id="line2d_10">
      <g>
       <use xlink:href="#mc40eb9ead3" x="64.08" y="246.893738" style="stroke: #000000; stroke-width: 0.8"/>
      </g>
     </g>
     <g id="text_8">
      <!-- 1 -->
      <g transform="translate(51.110472 252.966393) rotate(-45) scale(0.1 -0.1)">
       <use xlink:href="#DejaVuSans-31"/>
      </g>
     </g>
    </g>
    <g id="ytick_4">
     <g id="line2d_11">
      <g>
       <use xlink:href="#mc40eb9ead3" x="64.08" y="214.639371" style="stroke: #000000; stroke-width: 0.8"/>
      </g>
     </g>
     <g id="text_9">
      <!-- 2 -->
      <g transform="translate(51.110472 220.712026) rotate(-45) scale(0.1 -0.1)">
       <use xlink:href="#DejaVuSans-32"/>
      </g>
     </g>
    </g>
    <g id="text_10">
     <!-- $n$ -->
     <g transform="translate(15.452313 266.012) rotate(-90) scale(0.1 -0.1)">
      <defs>
       <path id="DejaVuSans-Oblique-6e" d="M 3566 2113 
L 3156 0 
L 2578 0 
L 2988 2091 
Q 3016 2238 3031 2350 
Q 3047 2463 3047 2528 
Q 3047 2791 2881 2937 
Q 2716 3084 2419 3084 
Q 1956 3084 1622 2776 
Q 1288 2469 1184 1941 
L 800 0 
L 225 0 
L 903 3500 
L 1478 3500 
L 1363 2950 
Q 1603 3253 1940 3418 
Q 2278 3584 2650 3584 
Q 3113 3584 3367 3334 
Q 3622 3084 3622 2631 
Q 3622 2519 3608 2391 
Q 3594 2263 3566 2113 
z
" transform="scale(0.015625)"/>
      </defs>
      <use xlink:href="#DejaVuSans-Oblique-6e"/>
     </g>
    </g>
   </g>
   <g id="QuadContourSet_3">
    <path d="M 78.0444 325.800709 
L 78.541284 325.74312 
L 81.1476 325.542461 
L 84.2508 325.269183 
L 87.354 324.885722 
L 90.4572 324.353803 
L 93.5604 323.720704 
L 95.880043 323.0652 
L 96.6636 322.935111 
L 99.7668 322.39905 
L 102.87 321.699349 
L 105.9732 320.645253 
L 106.667321 320.38728 
L 109.0764 319.932467 
L 112.1796 319.245837 
L 115.2828 318.172935 
L 116.344706 317.70936 
L 118.386 317.26136 
L 121.4892 316.323452 
L 124.052353 315.03144 
L 124.5924 314.879146 
L 127.6956 313.888597 
L 130.708729 312.35352 
L 130.7988 312.327623 
L 133.902 311.489779 
L 137.0052 309.901453 
L 137.385333 309.6756 
L 140.1084 308.788527 
L 143.2116 307.000897 
L 143.216865 306.99768 
L 146.3148 305.879736 
L 148.817072 304.31976 
L 149.418 304.066824 
L 152.5212 302.418129 
L 153.666852 301.64184 
L 155.6244 300.684323 
L 158.057515 298.96392 
L 158.7276 298.606119 
L 161.8308 296.368041 
L 161.941166 296.286 
L 164.934 294.497897 
L 166.098252 293.60808 
L 168.0372 292.25515 
L 169.621241 290.93016 
L 171.1404 289.698547 
L 172.887231 288.25224 
L 174.2436 287.160879 
L 176.205558 285.57432 
L 177.3468 284.528722 
L 179.196145 282.8964 
L 180.45 281.518228 
L 181.709976 280.21848 
L 183.5532 277.54056 
L 183.5532 277.54056 
L 186.05999 274.86264 
L 186.6564 273.963409 
L 188.209076 272.18472 
L 189.7596 269.542969 
L 189.789627 269.5068 
L 191.988546 266.82888 
L 192.8628 265.338489 
L 193.836365 264.15096 
L 195.127249 261.47304 
L 195.966 258.92167 
L 196.036065 258.79512 
L 197.660869 256.1172 
L 198.669724 253.43928 
L 199.0692 252.074297 
L 199.66975 250.76136 
L 200.747391 248.08344 
L 201.520379 245.40552 
L 201.863762 242.7276 
L 202.007837 240.04968 
L 200.577502 237.37176 
L 199.0692 236.408197 
L 196.976416 237.37176 
L 195.966 237.663588 
L 192.8628 239.607427 
L 192.285025 240.04968 
L 189.7596 241.559769 
L 188.382696 242.7276 
L 186.6564 244.351102 
L 185.701118 245.40552 
L 183.5532 247.882915 
L 183.384046 248.08344 
L 180.805613 250.76136 
L 180.45 251.079229 
L 178.028755 253.43928 
L 177.3468 254.097902 
L 175.204756 256.1172 
L 174.2436 256.977026 
L 172.23545 258.79512 
L 171.1404 259.828563 
L 169.461456 261.47304 
L 168.0372 262.892995 
L 166.706943 264.15096 
L 164.934 265.753875 
L 163.688126 266.82888 
L 161.8308 268.336802 
L 160.430319 269.5068 
L 158.7276 270.83255 
L 157.10374 272.18472 
L 155.6244 273.315341 
L 153.737345 274.86264 
L 152.5212 275.736236 
L 150.34916 277.54056 
L 149.418 278.200944 
L 146.840189 280.21848 
L 146.3148 280.551503 
L 143.21824 282.8964 
L 143.2116 282.900822 
L 140.1084 285.008417 
L 139.364487 285.57432 
L 137.0052 286.892264 
L 135.055659 288.25224 
L 133.902 288.86175 
L 131.05441 290.93016 
L 130.7988 291.077738 
L 127.6956 292.771524 
L 126.485754 293.60808 
L 124.5924 294.513927 
L 122.047374 296.286 
L 121.4892 296.56882 
L 118.386 298.078371 
L 116.914625 298.96392 
L 115.2828 299.638877 
L 112.1796 301.635388 
L 112.16997 301.64184 
L 109.0764 302.973412 
L 106.875621 304.31976 
L 105.9732 304.696074 
L 102.87 306.27458 
L 101.643246 306.99768 
L 99.7668 307.787531 
L 96.6636 309.582314 
L 96.516033 309.6756 
L 93.5604 311.05043 
L 91.151626 312.35352 
L 90.4572 312.672373 
L 87.354 313.836484 
L 84.521369 315.03144 
L 84.2508 315.134812 
L 81.1476 316.305858 
L 78.359317 317.70936 
L 78.0444 317.897987 
L 74.9412 319.692483 
L 73.77088 320.38728 
L 71.838 322.570758 
L 70.892185 323.0652 
L 71.838 324.15968 
L 74.9412 325.564952 
L 77.024863 325.74312 
L 78.0444 325.800709 
z
" clip-path="url(#pab213d8fc4)" style="fill: none; stroke: #008000; stroke-width: 1.5"/>
    <path d="M 109.0764 313.451165 
L 112.1796 313.313833 
L 115.2828 312.741945 
L 116.697724 312.35352 
L 118.386 311.902944 
L 121.4892 311.062204 
L 124.5924 309.944561 
L 125.207914 309.6756 
L 127.6956 308.772012 
L 130.7988 307.762728 
L 132.712997 306.99768 
L 133.902 306.622216 
L 137.0052 305.487724 
L 139.371035 304.31976 
L 140.1084 304.014199 
L 143.2116 302.655547 
L 145.035661 301.64184 
L 146.3148 301.032266 
L 149.418 299.241709 
L 149.844381 298.96392 
L 152.5212 297.465909 
L 154.360708 296.286 
L 155.6244 295.570384 
L 158.516948 293.60808 
L 158.7276 293.462642 
L 161.8308 291.243427 
L 162.248046 290.93016 
L 164.934 288.919971 
L 165.751275 288.25224 
L 168.0372 286.30201 
L 168.894854 285.57432 
L 171.1404 283.511704 
L 171.821535 282.8964 
L 174.2436 280.308378 
L 174.336288 280.21848 
L 176.753572 277.54056 
L 177.3468 276.707497 
L 178.783247 274.86264 
L 180.45 272.18472 
L 180.45 272.18472 
L 182.032848 269.5068 
L 183.5532 266.887395 
L 183.590491 266.82888 
L 184.685459 264.15096 
L 184.748491 261.47304 
L 183.5532 260.304409 
L 180.45 261.04647 
L 179.846404 261.47304 
L 177.3468 262.993074 
L 175.886237 264.15096 
L 174.2436 265.332745 
L 172.363857 266.82888 
L 171.1404 267.637332 
L 168.725723 269.5068 
L 168.0372 269.981484 
L 165.228778 272.18472 
L 164.934 272.390288 
L 161.8308 274.721629 
L 161.653363 274.86264 
L 158.7276 276.882632 
L 157.869576 277.54056 
L 155.6244 279.098964 
L 154.148187 280.21848 
L 152.5212 281.330991 
L 150.378658 282.8964 
L 149.418 283.534717 
L 146.578121 285.57432 
L 146.3148 285.750923 
L 143.2116 287.936917 
L 142.785337 288.25224 
L 140.1084 289.949849 
L 138.64877 290.93016 
L 137.0052 291.945635 
L 134.581556 293.60808 
L 133.902 294.05305 
L 130.7988 295.978046 
L 130.309858 296.286 
L 127.6956 297.775786 
L 125.842795 298.96392 
L 124.5924 299.789271 
L 121.530994 301.64184 
L 121.4892 301.670013 
L 118.386 303.467174 
L 117.022786 304.31976 
L 115.2828 305.596195 
L 112.91336 306.99768 
L 112.1796 307.569323 
L 109.0764 309.243116 
L 108.358576 309.6756 
L 106.312524 312.35352 
L 109.0764 313.451165 
z
" clip-path="url(#pab213d8fc4)" style="fill: none; stroke: #008000; stroke-width: 1.5"/>
   </g>
   <g id="patch_8">
    <path d="M 64.08 329.76 
L 64.08 195.864 
" style="fill: none; stroke: #000000; stroke-width: 0.8; stroke-linejoin: miter; stroke-linecap: square"/>
   </g>
   <g id="patch_9">
    <path d="M 219.24 329.76 
L 219.24 195.864 
" style="fill: none; stroke: #000000; stroke-width: 0.8; stroke-linejoin: miter; stroke-linecap: square"/>
   </g>
   <g id="patch_10">
    <path d="M 64.08 329.76 
L 219.24 329.76 
" style="fill: none; stroke: #000000; stroke-width: 0.8; stroke-linejoin: miter; stroke-linecap: square"/>
   </g>
   <g id="patch_11">
    <path d="M 64.08 195.864 
L 219.24 195.864 
" style="fill: none; stroke: #000000; stroke-width: 0.8; stroke-linejoin: miter; stroke-linecap: square"/>
   </g>
  </g>
  <g id="axes_4">
   <g id="patch_12">
    <path d="M 230.04 329.76 
L 385.2 329.76 
L 385.2 195.864 
L 230.04 195.864 
z
" style="fill: #ffffff"/>
   </g>
   <g id="matplotlib.axis_7">
    <g id="xtick_7">
     <g id="line2d_12">
      <g>
       <use xlink:href="#m4fed8fae5b" x="251.312884" y="329.76" style="stroke: #000000; stroke-width: 0.8"/>
      </g>
     </g>
     <g id="text_11">
      <!-- −1 -->
      <g transform="translate(248.051906 352.557207) rotate(-45) scale(0.1 -0.1)">
       <use xlink:href="#DejaVuSans-2212"/>
       <use xlink:href="#DejaVuSans-31" x="83.789062"/>
      </g>
     </g>
    </g>
    <g id="xtick_8">
     <g id="line2d_13">
      <g>
       <use xlink:href="#m4fed8fae5b" x="288.689561" y="329.76" style="stroke: #000000; stroke-width: 0.8"/>
      </g>
     </g>
     <g id="text_12">
      <!-- 0 -->
      <g transform="translate(288.39125 346.631874) rotate(-45) scale(0.1 -0.1)">
       <use xlink:href="#DejaVuSans-30"/>
      </g>
     </g>
    </g>
    <g id="xtick_9">
     <g id="line2d_14">
      <g>
       <use xlink:href="#m4fed8fae5b" x="326.066238" y="329.76" style="stroke: #000000; stroke-width: 0.8"/>
      </g>
     </g>
     <g id="text_13">
      <!-- 1 -->
      <g transform="translate(325.767927 346.631874) rotate(-45) scale(0.1 -0.1)">
       <use xlink:href="#DejaVuSans-31"/>
      </g>
     </g>
    </g>
    <g id="xtick_10">
     <g id="line2d_15">
      <g>
       <use xlink:href="#m4fed8fae5b" x="363.442915" y="329.76" style="stroke: #000000; stroke-width: 0.8"/>
      </g>
     </g>
     <g id="text_14">
      <!-- 2 -->
      <g transform="translate(363.144605 346.631874) rotate(-45) scale(0.1 -0.1)">
       <use xlink:href="#DejaVuSans-32"/>
      </g>
     </g>
    </g>
    <g id="text_15">
     <!-- $n$ -->
     <g transform="translate(304.42 377.527238) scale(0.1 -0.1)">
      <use xlink:href="#DejaVuSans-Oblique-6e"/>
     </g>
    </g>
   </g>
   <g id="matplotlib.axis_8"/>
   <g id="line2d_16">
    <path d="M 230.04 327.10119 
L 230.8158 327.10119 
L 230.8158 326.768839 
L 231.5916 326.768839 
L 231.5916 326.270312 
L 232.3674 326.270312 
L 232.3674 325.439434 
L 233.1432 325.439434 
L 233.1432 324.359293 
L 233.919 324.359293 
L 233.919 323.029888 
L 234.6948 323.029888 
L 234.6948 321.534307 
L 235.4706 321.534307 
L 235.4706 319.872551 
L 236.2464 319.872551 
L 236.2464 318.044619 
L 237.0222 318.044619 
L 237.0222 316.050512 
L 237.798 316.050512 
L 237.798 313.973317 
L 238.5738 313.973317 
L 238.5738 311.813034 
L 239.3496 311.813034 
L 239.3496 309.569663 
L 240.1254 309.569663 
L 240.1254 307.326292 
L 240.9012 307.326292 
L 240.9012 304.999834 
L 241.677 304.999834 
L 241.677 302.673375 
L 242.4528 302.673375 
L 242.4528 300.346917 
L 243.2286 300.346917 
L 243.2286 297.854282 
L 244.0044 297.854282 
L 244.0044 295.444736 
L 244.7802 295.444736 
L 244.7802 292.869014 
L 245.556 292.869014 
L 245.556 290.127116 
L 246.3318 290.127116 
L 246.3318 287.385219 
L 247.1076 287.385219 
L 247.1076 284.394058 
L 247.8834 284.394058 
L 247.8834 281.319809 
L 248.6592 281.319809 
L 248.6592 278.162472 
L 249.435 278.162472 
L 249.435 274.922048 
L 250.2108 274.922048 
L 250.2108 271.598536 
L 250.9866 271.598536 
L 250.9866 268.275023 
L 251.7624 268.275023 
L 251.7624 265.034599 
L 252.5382 265.034599 
L 252.5382 261.794174 
L 253.314 261.794174 
L 253.314 258.636838 
L 254.0898 258.636838 
L 254.0898 255.562589 
L 254.8656 255.562589 
L 254.8656 252.48834 
L 255.6414 252.48834 
L 255.6414 249.497179 
L 256.4172 249.497179 
L 256.4172 246.339842 
L 257.193 246.339842 
L 257.193 243.182506 
L 257.9688 243.182506 
L 257.9688 240.025169 
L 258.7446 240.025169 
L 258.7446 236.701657 
L 259.5204 236.701657 
L 259.5204 233.461232 
L 260.2962 233.461232 
L 260.2962 230.220808 
L 261.072 230.220808 
L 261.072 227.063471 
L 261.8478 227.063471 
L 261.8478 224.155398 
L 262.6236 224.155398 
L 262.6236 221.496588 
L 263.3994 221.496588 
L 263.3994 219.17013 
L 264.1752 219.17013 
L 264.1752 217.176022 
L 264.951 217.176022 
L 264.951 215.514266 
L 265.7268 215.514266 
L 265.7268 214.184861 
L 266.5026 214.184861 
L 266.5026 213.021632 
L 267.2784 213.021632 
L 267.2784 212.107666 
L 268.0542 212.107666 
L 268.0542 211.276788 
L 268.83 211.276788 
L 268.83 210.44591 
L 269.6058 210.44591 
L 269.6058 209.69812 
L 270.3816 209.69812 
L 270.3816 209.116505 
L 271.1574 209.116505 
L 271.1574 208.53489 
L 271.9332 208.53489 
L 271.9332 208.202539 
L 272.709 208.202539 
L 272.709 208.036364 
L 274.2606 208.119451 
L 274.2606 208.53489 
L 275.0364 208.53489 
L 275.0364 209.199593 
L 275.8122 209.199593 
L 275.8122 210.113559 
L 276.588 210.113559 
L 276.588 211.1937 
L 277.3638 211.1937 
L 277.3638 212.523105 
L 278.1396 212.523105 
L 278.1396 213.85251 
L 278.9154 213.85251 
L 278.9154 215.348091 
L 279.6912 215.348091 
L 279.6912 216.843671 
L 280.467 216.843671 
L 280.467 218.422339 
L 281.2428 218.422339 
L 281.2428 220.084096 
L 282.0186 220.084096 
L 282.0186 221.745852 
L 282.7944 221.745852 
L 282.7944 223.573783 
L 283.5702 223.573783 
L 283.5702 225.401715 
L 284.346 225.401715 
L 284.346 227.395823 
L 285.1218 227.395823 
L 285.1218 229.473018 
L 285.8976 229.473018 
L 285.8976 231.633301 
L 286.6734 231.633301 
L 286.6734 233.959759 
L 287.4492 233.959759 
L 287.4492 236.369306 
L 288.225 236.369306 
L 288.225 238.86194 
L 289.0008 238.86194 
L 289.0008 241.52075 
L 289.7766 241.52075 
L 289.7766 244.262647 
L 290.5524 244.262647 
L 290.5524 246.921457 
L 291.3282 246.921457 
L 291.3282 249.663355 
L 292.104 249.663355 
L 292.104 252.322164 
L 292.8798 252.322164 
L 292.8798 254.897886 
L 293.6556 254.897886 
L 293.6556 257.473608 
L 294.4314 257.473608 
L 294.4314 260.04933 
L 295.2072 260.04933 
L 295.2072 262.541965 
L 295.983 262.541965 
L 295.983 265.034599 
L 296.7588 265.034599 
L 296.7588 267.527233 
L 297.5346 267.527233 
L 297.5346 270.019867 
L 298.3104 270.019867 
L 298.3104 272.346326 
L 299.0862 272.346326 
L 299.0862 274.589697 
L 299.862 274.589697 
L 299.862 276.666892 
L 300.6378 276.666892 
L 300.6378 278.577911 
L 301.4136 278.577911 
L 301.4136 280.322755 
L 302.1894 280.322755 
L 302.1894 281.984511 
L 302.9652 281.984511 
L 302.9652 283.56318 
L 303.741 283.56318 
L 303.741 285.05876 
L 304.5168 285.05876 
L 304.5168 286.637428 
L 305.2926 286.637428 
L 305.2926 288.133009 
L 306.0684 288.133009 
L 306.0684 289.711677 
L 306.8442 289.711677 
L 306.8442 291.373433 
L 307.62 291.373433 
L 307.62 293.03519 
L 308.3958 293.03519 
L 308.3958 294.696946 
L 309.1716 294.696946 
L 309.1716 296.358702 
L 309.9474 296.358702 
L 309.9474 298.103546 
L 310.7232 298.103546 
L 310.7232 299.682214 
L 311.499 299.682214 
L 311.499 301.260882 
L 312.2748 301.260882 
L 312.2748 302.756463 
L 313.0506 302.756463 
L 313.0506 304.168956 
L 313.8264 304.168956 
L 313.8264 305.498361 
L 314.6022 305.498361 
L 314.6022 306.744678 
L 315.378 306.744678 
L 315.378 307.990995 
L 316.1538 307.990995 
L 316.1538 309.071136 
L 316.9296 309.071136 
L 316.9296 310.234365 
L 317.7054 310.234365 
L 317.7054 311.231419 
L 318.4812 311.231419 
L 318.4812 312.228473 
L 319.257 312.228473 
L 319.257 313.225527 
L 320.0328 313.225527 
L 320.0328 314.056405 
L 320.8086 314.056405 
L 320.8086 314.887283 
L 321.5844 314.887283 
L 321.5844 315.635073 
L 322.3602 315.635073 
L 322.3602 316.299775 
L 323.136 316.299775 
L 323.136 316.88139 
L 323.9118 316.88139 
L 323.9118 317.379917 
L 324.6876 317.379917 
L 324.6876 317.961531 
L 325.4634 317.961531 
L 325.4634 318.460058 
L 326.2392 318.460058 
L 326.2392 318.958585 
L 327.015 318.958585 
L 327.015 319.457112 
L 327.7908 319.457112 
L 327.7908 320.038727 
L 328.5666 320.038727 
L 328.5666 320.537253 
L 329.3424 320.537253 
L 329.3424 321.118868 
L 330.1182 321.118868 
L 330.1182 321.617395 
L 330.894 321.617395 
L 330.894 322.115922 
L 331.6698 322.115922 
L 331.6698 322.614449 
L 332.4456 322.614449 
L 332.4456 323.029888 
L 333.2214 323.029888 
L 333.2214 323.445327 
L 333.9972 323.445327 
L 333.9972 323.860766 
L 334.773 323.860766 
L 334.773 324.193117 
L 335.5488 324.193117 
L 335.5488 324.525468 
L 336.3246 324.525468 
L 336.3246 324.857819 
L 337.1004 324.857819 
L 337.1004 325.107083 
L 337.8762 325.107083 
L 337.8762 325.439434 
L 338.652 325.439434 
L 338.652 325.688697 
L 339.4278 325.688697 
L 339.4278 325.854873 
L 340.2036 325.854873 
L 340.2036 326.104137 
L 340.9794 326.104137 
L 340.9794 326.3534 
L 341.7552 326.3534 
L 341.7552 326.602663 
L 342.531 326.602663 
L 342.531 326.851927 
L 343.3068 326.851927 
L 343.3068 327.10119 
L 344.0826 327.10119 
L 344.0826 327.267366 
L 344.8584 327.267366 
L 344.8584 327.433541 
L 345.6342 327.433541 
L 345.6342 327.599717 
L 346.41 327.599717 
L 346.41 327.765893 
L 347.9616 327.84898 
L 347.9616 328.015156 
L 349.5132 328.098244 
L 349.5132 328.264419 
L 351.0648 328.347507 
L 351.0648 328.430595 
L 351.8406 328.430595 
L 351.8406 328.596771 
L 353.3922 328.679859 
L 353.3922 328.762946 
L 354.9438 328.846034 
L 354.9438 328.929122 
L 357.2712 329.01221 
L 357.2712 329.095298 
L 358.8228 329.178385 
L 358.8228 329.261473 
L 361.1502 329.344561 
L 361.1502 329.427649 
L 367.3566 329.510737 
L 367.3566 329.593824 
L 375.8904 329.676912 
L 375.8904 329.76 
L 385.2 329.76 
L 385.2 329.76 
" clip-path="url(#pe694e6bcab)" style="fill: none; stroke: #008000; stroke-width: 1.5; stroke-linecap: square"/>
   </g>
   <g id="patch_13">
    <path d="M 230.04 329.76 
L 230.04 195.864 
" style="fill: none; stroke: #000000; stroke-width: 0.8; stroke-linejoin: miter; stroke-linecap: square"/>
   </g>
   <g id="patch_14">
    <path d="M 385.2 329.76 
L 385.2 195.864 
" style="fill: none; stroke: #000000; stroke-width: 0.8; stroke-linejoin: miter; stroke-linecap: square"/>
   </g>
   <g id="patch_15">
    <path d="M 230.04 329.76 
L 385.2 329.76 
" style="fill: none; stroke: #000000; stroke-width: 0.8; stroke-linejoin: miter; stroke-linecap: square"/>
   </g>
   <g id="patch_16">
    <path d="M 230.04 195.864 
L 385.2 195.864 
" style="fill: none; stroke: #000000; stroke-width: 0.8; stroke-linejoin: miter; stroke-linecap: square"/>
   </g>
   <g id="text_16">
    <!-- $n$ = ${-0.3437}_{-0.4901}^{+0.5910}$ -->
    <g transform="translate(240.98 189.864) scale(0.14 -0.14)">
     <defs>
      <path id="DejaVuSans-37" d="M 525 4666 
L 3525 4666 
L 3525 4397 
L 1831 0 
L 1172 0 
L 2766 4134 
L 525 4134 
L 525 4666 
z
" transform="scale(0.015625)"/>
     </defs>
     <use xlink:href="#DejaVuSans-Oblique-6e" transform="translate(0 0.765625)"/>
     <use xlink:href="#DejaVuSans-20" transform="translate(63.378906 0.765625)"/>
     <use xlink:href="#DejaVuSans-3d" transform="translate(95.166016 0.765625)"/>
     <use xlink:href="#DejaVuSans-20" transform="translate(178.955078 0.765625)"/>
     <use xlink:href="#DejaVuSans-2212" transform="translate(210.742188 0.765625)"/>
     <use xlink:href="#DejaVuSans-30" transform="translate(294.53125 0.765625)"/>
     <use xlink:href="#DejaVuSans-2e" transform="translate(358.154297 0.765625)"/>
     <use xlink:href="#DejaVuSans-33" transform="translate(389.941406 0.765625)"/>
     <use xlink:href="#DejaVuSans-34" transform="translate(453.564453 0.765625)"/>
     <use xlink:href="#DejaVuSans-33" transform="translate(517.1875 0.765625)"/>
     <use xlink:href="#DejaVuSans-37" transform="translate(580.810547 0.765625)"/>
     <use xlink:href="#DejaVuSans-2b" transform="translate(645.390625 39.046875) scale(0.7)"/>
     <use xlink:href="#DejaVuSans-30" transform="translate(704.042969 39.046875) scale(0.7)"/>
     <use xlink:href="#DejaVuSans-2e" transform="translate(748.579102 39.046875) scale(0.7)"/>
     <use xlink:href="#DejaVuSans-35" transform="translate(770.830078 39.046875) scale(0.7)"/>
     <use xlink:href="#DejaVuSans-39" transform="translate(811.516211 39.046875) scale(0.7)"/>
     <use xlink:href="#DejaVuSans-31" transform="translate(856.052344 39.046875) scale(0.7)"/>
     <use xlink:href="#DejaVuSans-30" transform="translate(900.588477 39.046875) scale(0.7)"/>
     <use xlink:href="#DejaVuSans-2212" transform="translate(645.390625 -26.578125) scale(0.7)"/>
     <use xlink:href="#DejaVuSans-30" transform="translate(704.042969 -26.578125) scale(0.7)"/>
     <use xlink:href="#DejaVuSans-2e" transform="translate(748.579102 -26.578125) scale(0.7)"/>
     <use xlink:href="#DejaVuSans-34" transform="translate(770.830078 -26.578125) scale(0.7)"/>
     <use xlink:href="#DejaVuSans-39" transform="translate(815.366211 -26.578125) scale(0.7)"/>
     <use xlink:href="#DejaVuSans-30" transform="translate(859.902344 -26.578125) scale(0.7)"/>
     <use xlink:href="#DejaVuSans-31" transform="translate(904.438477 -26.578125) scale(0.7)"/>
    </g>
   </g>
  </g>
 </g>
 <defs>
  <clipPath id="pc1900326af">
   <rect x="64.08" y="30.984" width="155.16" height="133.896"/>
  </clipPath>
  <clipPath id="pab213d8fc4">
   <rect x="64.08" y="195.864" width="155.16" height="133.896"/>
  </clipPath>
  <clipPath id="pe694e6bcab">
   <rect x="230.04" y="195.864" width="155.16" height="133.896"/>
  </clipPath>
 </defs>
</svg>
