<?xml version="1.0" encoding="utf-8" standalone="no"?>
<!DOCTYPE svg PUBLIC "-//W3C//DTD SVG 1.1//EN"
  "http://www.w3.org/Graphics/SVG/1.1/DTD/svg11.dtd">
<svg xmlns:xlink="http://www.w3.org/1999/xlink" width="396pt" height="396pt" viewBox="0 0 396 396" xmlns="http://www.w3.org/2000/svg" version="1.1">
 <metadata>
  <rdf:RDF xmlns:dc="http://purl.org/dc/elements/1.1/" xmlns:cc="http://creativecommons.org/ns#" xmlns:rdf="http://www.w3.org/1999/02/22-rdf-syntax-ns#">
   <cc:Work>
    <dc:type rdf:resource="http://purl.org/dc/dcmitype/StillImage"/>
    <dc:date>2024-11-19T13:44:16.575799</dc:date>
    <dc:format>image/svg+xml</dc:format>
    <dc:creator>
     <cc:Agent>
      <dc:title>Matplotlib v3.9.2, https://matplotlib.org/</dc:title>
     </cc:Agent>
    </dc:creator>
   </cc:Work>
  </rdf:RDF>
 </metadata>
 <defs>
  <style type="text/css">*{stroke-linejoin: round; stroke-linecap: butt}</style>
 </defs>
 <g id="figure_1">
  <g id="patch_1">
   <path d="M 0 396 
L 396 396 
L 396 0 
L 0 0 
z
" style="fill: #ffffff"/>
  </g>
  <g id="axes_1">
   <g id="patch_2">
    <path d="M 64.368 164.88 
L 216.464846 164.88 
L 216.464846 30.984 
L 64.368 30.984 
z
" style="fill: #ffffff"/>
   </g>
   <g id="matplotlib.axis_1">
    <g id="xtick_1">
     <g id="line2d_1">
      <defs>
       <path id="mfb4beeabb9" d="M 0 0 
L 0 3.5 
" style="stroke: #000000; stroke-width: 0.8"/>
      </defs>
      <g>
       <use xlink:href="#mfb4beeabb9" x="106.797584" y="164.88" style="stroke: #000000; stroke-width: 0.8"/>
      </g>
     </g>
    </g>
    <g id="xtick_2">
     <g id="line2d_2">
      <g>
       <use xlink:href="#mfb4beeabb9" x="149.349655" y="164.88" style="stroke: #000000; stroke-width: 0.8"/>
      </g>
     </g>
    </g>
    <g id="xtick_3">
     <g id="line2d_3">
      <g>
       <use xlink:href="#mfb4beeabb9" x="191.901726" y="164.88" style="stroke: #000000; stroke-width: 0.8"/>
      </g>
     </g>
    </g>
   </g>
   <g id="matplotlib.axis_2"/>
   <g id="line2d_4">
    <path d="M 64.368 162.111133 
L 65.888968 162.004639 
L 65.888968 161.898144 
L 67.409937 161.791649 
L 67.409937 161.685154 
L 68.170421 161.685154 
L 68.170421 161.472164 
L 68.930905 161.472164 
L 68.930905 161.259174 
L 70.451874 161.15268 
L 70.451874 160.93969 
L 71.212358 160.93969 
L 71.212358 160.7267 
L 71.972842 160.7267 
L 71.972842 160.51371 
L 72.733327 160.51371 
L 72.733327 160.194226 
L 73.493811 160.194226 
L 73.493811 159.981236 
L 74.254295 159.981236 
L 74.254295 159.661751 
L 75.014779 159.661751 
L 75.014779 159.235772 
L 75.775263 159.235772 
L 75.775263 158.809792 
L 76.535748 158.809792 
L 76.535748 158.490308 
L 77.296232 158.490308 
L 77.296232 158.064328 
L 78.056716 158.064328 
L 78.056716 157.638349 
L 78.8172 157.638349 
L 78.8172 157.212369 
L 79.577685 157.212369 
L 79.577685 156.78639 
L 80.338169 156.78639 
L 80.338169 156.466905 
L 81.098653 156.466905 
L 81.098653 156.040926 
L 81.859137 156.040926 
L 81.859137 155.614946 
L 82.619622 155.614946 
L 82.619622 155.188967 
L 83.380106 155.188967 
L 83.380106 154.762987 
L 84.14059 154.762987 
L 84.14059 154.443503 
L 84.901074 154.443503 
L 84.901074 154.124018 
L 85.661558 154.124018 
L 85.661558 153.911028 
L 86.422043 153.911028 
L 86.422043 153.591544 
L 87.182527 153.591544 
L 87.182527 153.378554 
L 87.943011 153.378554 
L 87.943011 153.059069 
L 88.703495 153.059069 
L 88.703495 152.63309 
L 89.46398 152.63309 
L 89.46398 152.20711 
L 90.224464 152.20711 
L 90.224464 151.674636 
L 90.984948 151.674636 
L 90.984948 151.142162 
L 91.745432 151.142162 
L 91.745432 150.503193 
L 92.505916 150.503193 
L 92.505916 149.757728 
L 93.266401 149.757728 
L 93.266401 149.118759 
L 94.026885 149.118759 
L 94.026885 148.373295 
L 94.787369 148.373295 
L 94.787369 147.627831 
L 95.547853 147.627831 
L 95.547853 146.988862 
L 96.308338 146.988862 
L 96.308338 146.136903 
L 97.068822 146.136903 
L 97.068822 145.391439 
L 97.829306 145.391439 
L 97.829306 144.53948 
L 98.58979 144.53948 
L 98.58979 143.794016 
L 99.350275 143.794016 
L 99.350275 142.942057 
L 100.110759 142.942057 
L 100.110759 142.090098 
L 100.871243 142.090098 
L 100.871243 141.238139 
L 101.631727 141.238139 
L 101.631727 140.38618 
L 102.392211 140.38618 
L 102.392211 139.534221 
L 103.152696 139.534221 
L 103.152696 138.469272 
L 103.91318 138.469272 
L 103.91318 137.404324 
L 104.673664 137.404324 
L 104.673664 136.23288 
L 105.434148 136.23288 
L 105.434148 134.848447 
L 106.194633 134.848447 
L 106.194633 133.570508 
L 106.955117 133.570508 
L 106.955117 132.07958 
L 107.715601 132.07958 
L 107.715601 130.695147 
L 108.476085 130.695147 
L 108.476085 129.417208 
L 109.23657 129.417208 
L 109.23657 128.13927 
L 109.997054 128.13927 
L 109.997054 126.861331 
L 110.757538 126.861331 
L 110.757538 125.689888 
L 111.518022 125.689888 
L 111.518022 124.518444 
L 112.278506 124.518444 
L 112.278506 123.240506 
L 113.038991 123.240506 
L 113.038991 121.962567 
L 113.799475 121.962567 
L 113.799475 120.578134 
L 114.559959 120.578134 
L 114.559959 119.087206 
L 115.320443 119.087206 
L 115.320443 117.489783 
L 116.080928 117.489783 
L 116.080928 115.89236 
L 116.841412 115.89236 
L 116.841412 114.294937 
L 117.601896 114.294937 
L 117.601896 112.697514 
L 118.36238 112.697514 
L 118.36238 111.206586 
L 119.122865 111.206586 
L 119.122865 109.715657 
L 119.883349 109.715657 
L 119.883349 108.331224 
L 120.643833 108.331224 
L 120.643833 106.946791 
L 121.404317 106.946791 
L 121.404317 105.668852 
L 122.164801 105.668852 
L 122.164801 104.284419 
L 122.925286 104.284419 
L 122.925286 103.006481 
L 123.68577 103.006481 
L 123.68577 101.515552 
L 124.446254 101.515552 
L 124.446254 100.024624 
L 125.206738 100.024624 
L 125.206738 98.320706 
L 125.967223 98.320706 
L 125.967223 96.616788 
L 126.727707 96.616788 
L 126.727707 94.699881 
L 127.488191 94.699881 
L 127.488191 92.782973 
L 128.248675 92.782973 
L 128.248675 90.759571 
L 129.009159 90.759571 
L 129.009159 88.736168 
L 129.769644 88.736168 
L 129.769644 86.499776 
L 130.530128 86.499776 
L 130.530128 84.369878 
L 131.290612 84.369878 
L 131.290612 82.133486 
L 132.051096 82.133486 
L 132.051096 80.003589 
L 132.811581 80.003589 
L 132.811581 77.873691 
L 133.572065 77.873691 
L 133.572065 75.743794 
L 134.332549 75.743794 
L 134.332549 73.720391 
L 135.093033 73.720391 
L 135.093033 71.696989 
L 135.853518 71.696989 
L 135.853518 69.780081 
L 136.614002 69.780081 
L 136.614002 67.863173 
L 137.374486 67.863173 
L 137.374486 65.946266 
L 138.13497 65.946266 
L 138.13497 64.029358 
L 138.895454 64.029358 
L 138.895454 62.218945 
L 139.655939 62.218945 
L 139.655939 60.408533 
L 140.416423 60.408533 
L 140.416423 58.59812 
L 141.176907 58.59812 
L 141.176907 56.787707 
L 141.937391 56.787707 
L 141.937391 55.190284 
L 142.697876 55.190284 
L 142.697876 53.592861 
L 143.45836 53.592861 
L 143.45836 52.101933 
L 144.218844 52.101933 
L 144.218844 50.717499 
L 144.979328 50.717499 
L 144.979328 49.546056 
L 145.739813 49.546056 
L 145.739813 48.481107 
L 146.500297 48.481107 
L 146.500297 47.416158 
L 147.260781 47.416158 
L 147.260781 46.670694 
L 148.021265 46.670694 
L 148.021265 45.92523 
L 148.781749 45.92523 
L 148.781749 45.286261 
L 149.542234 45.286261 
L 149.542234 44.753787 
L 150.302718 44.753787 
L 150.302718 44.221312 
L 151.063202 44.221312 
L 151.063202 43.795333 
L 151.823686 43.795333 
L 151.823686 43.475848 
L 152.584171 43.475848 
L 152.584171 43.262859 
L 156.386592 43.262859 
L 156.386592 43.475848 
L 157.147076 43.475848 
L 157.147076 43.688838 
L 157.90756 43.688838 
L 157.90756 44.008323 
L 158.668044 44.008323 
L 158.668044 44.327807 
L 159.428529 44.327807 
L 159.428529 44.966776 
L 160.189013 44.966776 
L 160.189013 45.605746 
L 160.949497 45.605746 
L 160.949497 46.457705 
L 161.709981 46.457705 
L 161.709981 47.522653 
L 162.470466 47.522653 
L 162.470466 48.694097 
L 163.23095 48.694097 
L 163.23095 50.07853 
L 163.991434 50.07853 
L 163.991434 51.462963 
L 164.751918 51.462963 
L 164.751918 53.060387 
L 165.512403 53.060387 
L 165.512403 54.764304 
L 166.272887 54.764304 
L 166.272887 56.574717 
L 167.033371 56.574717 
L 167.033371 58.491625 
L 167.793855 58.491625 
L 167.793855 60.515027 
L 168.554339 60.515027 
L 168.554339 62.53843 
L 169.314824 62.53843 
L 169.314824 64.668327 
L 170.075308 64.668327 
L 170.075308 66.90472 
L 170.835792 66.90472 
L 170.835792 69.141112 
L 171.596276 69.141112 
L 171.596276 71.483999 
L 172.356761 71.483999 
L 172.356761 73.826886 
L 173.117245 73.826886 
L 173.117245 76.276268 
L 173.877729 76.276268 
L 173.877729 78.72565 
L 174.638213 78.72565 
L 174.638213 81.281527 
L 175.398697 81.281527 
L 175.398697 83.837404 
L 176.159182 83.837404 
L 176.159182 86.393281 
L 176.919666 86.393281 
L 176.919666 89.055653 
L 177.68015 89.055653 
L 177.68015 91.824519 
L 178.440634 91.824519 
L 178.440634 94.699881 
L 179.201119 94.699881 
L 179.201119 97.575242 
L 179.961603 97.575242 
L 179.961603 100.450604 
L 180.722087 100.450604 
L 180.722087 103.43246 
L 181.482571 103.43246 
L 181.482571 106.414316 
L 182.243056 106.414316 
L 182.243056 109.289678 
L 183.00354 109.289678 
L 183.00354 112.165039 
L 183.764024 112.165039 
L 183.764024 114.933906 
L 184.524508 114.933906 
L 184.524508 117.702773 
L 185.284992 117.702773 
L 185.284992 120.365144 
L 186.045477 120.365144 
L 186.045477 123.027516 
L 186.805961 123.027516 
L 186.805961 125.583393 
L 187.566445 125.583393 
L 187.566445 128.032775 
L 188.326929 128.032775 
L 188.326929 130.482157 
L 189.087414 130.482157 
L 189.087414 132.825044 
L 189.847898 132.825044 
L 189.847898 135.061436 
L 190.608382 135.061436 
L 190.608382 137.297829 
L 191.368866 137.297829 
L 191.368866 139.321231 
L 192.129351 139.321231 
L 192.129351 141.344634 
L 192.889835 141.344634 
L 192.889835 143.261541 
L 193.650319 143.261541 
L 193.650319 145.071954 
L 194.410803 145.071954 
L 194.410803 146.775872 
L 195.171287 146.775872 
L 195.171287 148.2668 
L 195.931772 148.2668 
L 195.931772 149.651234 
L 196.692256 149.651234 
L 196.692256 150.929172 
L 197.45274 150.929172 
L 197.45274 152.100616 
L 198.213224 152.100616 
L 198.213224 153.272059 
L 198.973709 153.272059 
L 198.973709 154.230513 
L 199.734193 154.230513 
L 199.734193 155.188967 
L 200.494677 155.188967 
L 200.494677 156.147421 
L 201.255161 156.147421 
L 201.255161 157.105874 
L 202.015646 157.105874 
L 202.015646 157.957833 
L 202.77613 157.957833 
L 202.77613 158.809792 
L 203.536614 158.809792 
L 203.536614 159.661751 
L 204.297098 159.661751 
L 204.297098 160.407215 
L 205.057582 160.407215 
L 205.057582 161.046185 
L 205.818067 161.046185 
L 205.818067 161.685154 
L 206.578551 161.685154 
L 206.578551 162.217628 
L 207.339035 162.217628 
L 207.339035 162.643608 
L 208.099519 162.643608 
L 208.099519 162.963092 
L 208.860004 162.963092 
L 208.860004 163.282577 
L 209.620488 163.282577 
L 209.620488 163.495567 
L 210.380972 163.495567 
L 210.380972 163.708556 
L 211.141456 163.708556 
L 211.141456 163.921546 
L 211.90194 163.921546 
L 211.90194 164.134536 
L 213.422909 164.241031 
L 213.422909 164.347526 
L 214.943877 164.454021 
L 214.943877 164.560515 
L 216.464846 164.560515 
L 216.464846 164.560515 
" clip-path="url(#pa8f1ca4ea2)" style="fill: none; stroke: #008000; stroke-width: 1.5; stroke-linecap: square"/>
   </g>
   <g id="patch_3">
    <path d="M 64.368 164.88 
L 64.368 30.984 
" style="fill: none; stroke: #000000; stroke-width: 0.8; stroke-linejoin: miter; stroke-linecap: square"/>
   </g>
   <g id="patch_4">
    <path d="M 216.464846 164.88 
L 216.464846 30.984 
" style="fill: none; stroke: #000000; stroke-width: 0.8; stroke-linejoin: miter; stroke-linecap: square"/>
   </g>
   <g id="patch_5">
    <path d="M 64.368 164.88 
L 216.464846 164.88 
" style="fill: none; stroke: #000000; stroke-width: 0.8; stroke-linejoin: miter; stroke-linecap: square"/>
   </g>
   <g id="patch_6">
    <path d="M 64.368 30.984 
L 216.464846 30.984 
" style="fill: none; stroke: #000000; stroke-width: 0.8; stroke-linejoin: miter; stroke-linecap: square"/>
   </g>
   <g id="text_1">
    <!-- $\Omega_{2,0}$ = ${0.3030}_{-0.0986}^{+0.0808}$ -->
    <g transform="translate(69.716423 24.984) scale(0.14 -0.14)">
     <defs>
      <path id="DejaVuSans-3a9" d="M 4647 556 
L 4647 0 
L 2772 0 
L 2772 556 
Q 3325 859 3634 1378 
Q 3944 1897 3944 2528 
Q 3944 3278 3531 3731 
Q 3119 4184 2444 4184 
Q 1769 4184 1355 3729 
Q 941 3275 941 2528 
Q 941 1897 1250 1378 
Q 1563 859 2119 556 
L 2119 0 
L 244 0 
L 244 556 
L 1241 556 
Q 747 991 519 1456 
Q 294 1922 294 2497 
Q 294 3491 894 4106 
Q 1491 4722 2444 4722 
Q 3391 4722 3994 4106 
Q 4594 3494 4594 2528 
Q 4594 1922 4372 1459 
Q 4150 997 3647 556 
L 4647 556 
z
" transform="scale(0.015625)"/>
      <path id="DejaVuSans-32" d="M 1228 531 
L 3431 531 
L 3431 0 
L 469 0 
L 469 531 
Q 828 903 1448 1529 
Q 2069 2156 2228 2338 
Q 2531 2678 2651 2914 
Q 2772 3150 2772 3378 
Q 2772 3750 2511 3984 
Q 2250 4219 1831 4219 
Q 1534 4219 1204 4116 
Q 875 4013 500 3803 
L 500 4441 
Q 881 4594 1212 4672 
Q 1544 4750 1819 4750 
Q 2544 4750 2975 4387 
Q 3406 4025 3406 3419 
Q 3406 3131 3298 2873 
Q 3191 2616 2906 2266 
Q 2828 2175 2409 1742 
Q 1991 1309 1228 531 
z
" transform="scale(0.015625)"/>
      <path id="DejaVuSans-2c" d="M 750 794 
L 1409 794 
L 1409 256 
L 897 -744 
L 494 -744 
L 750 256 
L 750 794 
z
" transform="scale(0.015625)"/>
      <path id="DejaVuSans-30" d="M 2034 4250 
Q 1547 4250 1301 3770 
Q 1056 3291 1056 2328 
Q 1056 1369 1301 889 
Q 1547 409 2034 409 
Q 2525 409 2770 889 
Q 3016 1369 3016 2328 
Q 3016 3291 2770 3770 
Q 2525 4250 2034 4250 
z
M 2034 4750 
Q 2819 4750 3233 4129 
Q 3647 3509 3647 2328 
Q 3647 1150 3233 529 
Q 2819 -91 2034 -91 
Q 1250 -91 836 529 
Q 422 1150 422 2328 
Q 422 3509 836 4129 
Q 1250 4750 2034 4750 
z
" transform="scale(0.015625)"/>
      <path id="DejaVuSans-20" transform="scale(0.015625)"/>
      <path id="DejaVuSans-3d" d="M 678 2906 
L 4684 2906 
L 4684 2381 
L 678 2381 
L 678 2906 
z
M 678 1631 
L 4684 1631 
L 4684 1100 
L 678 1100 
L 678 1631 
z
" transform="scale(0.015625)"/>
      <path id="DejaVuSans-2e" d="M 684 794 
L 1344 794 
L 1344 0 
L 684 0 
L 684 794 
z
" transform="scale(0.015625)"/>
      <path id="DejaVuSans-33" d="M 2597 2516 
Q 3050 2419 3304 2112 
Q 3559 1806 3559 1356 
Q 3559 666 3084 287 
Q 2609 -91 1734 -91 
Q 1441 -91 1130 -33 
Q 819 25 488 141 
L 488 750 
Q 750 597 1062 519 
Q 1375 441 1716 441 
Q 2309 441 2620 675 
Q 2931 909 2931 1356 
Q 2931 1769 2642 2001 
Q 2353 2234 1838 2234 
L 1294 2234 
L 1294 2753 
L 1863 2753 
Q 2328 2753 2575 2939 
Q 2822 3125 2822 3475 
Q 2822 3834 2567 4026 
Q 2313 4219 1838 4219 
Q 1578 4219 1281 4162 
Q 984 4106 628 3988 
L 628 4550 
Q 988 4650 1302 4700 
Q 1616 4750 1894 4750 
Q 2613 4750 3031 4423 
Q 3450 4097 3450 3541 
Q 3450 3153 3228 2886 
Q 3006 2619 2597 2516 
z
" transform="scale(0.015625)"/>
      <path id="DejaVuSans-2b" d="M 2944 4013 
L 2944 2272 
L 4684 2272 
L 4684 1741 
L 2944 1741 
L 2944 0 
L 2419 0 
L 2419 1741 
L 678 1741 
L 678 2272 
L 2419 2272 
L 2419 4013 
L 2944 4013 
z
" transform="scale(0.015625)"/>
      <path id="DejaVuSans-38" d="M 2034 2216 
Q 1584 2216 1326 1975 
Q 1069 1734 1069 1313 
Q 1069 891 1326 650 
Q 1584 409 2034 409 
Q 2484 409 2743 651 
Q 3003 894 3003 1313 
Q 3003 1734 2745 1975 
Q 2488 2216 2034 2216 
z
M 1403 2484 
Q 997 2584 770 2862 
Q 544 3141 544 3541 
Q 544 4100 942 4425 
Q 1341 4750 2034 4750 
Q 2731 4750 3128 4425 
Q 3525 4100 3525 3541 
Q 3525 3141 3298 2862 
Q 3072 2584 2669 2484 
Q 3125 2378 3379 2068 
Q 3634 1759 3634 1313 
Q 3634 634 3220 271 
Q 2806 -91 2034 -91 
Q 1263 -91 848 271 
Q 434 634 434 1313 
Q 434 1759 690 2068 
Q 947 2378 1403 2484 
z
M 1172 3481 
Q 1172 3119 1398 2916 
Q 1625 2713 2034 2713 
Q 2441 2713 2670 2916 
Q 2900 3119 2900 3481 
Q 2900 3844 2670 4047 
Q 2441 4250 2034 4250 
Q 1625 4250 1398 4047 
Q 1172 3844 1172 3481 
z
" transform="scale(0.015625)"/>
      <path id="DejaVuSans-2212" d="M 678 2272 
L 4684 2272 
L 4684 1741 
L 678 1741 
L 678 2272 
z
" transform="scale(0.015625)"/>
      <path id="DejaVuSans-39" d="M 703 97 
L 703 672 
Q 941 559 1184 500 
Q 1428 441 1663 441 
Q 2288 441 2617 861 
Q 2947 1281 2994 2138 
Q 2813 1869 2534 1725 
Q 2256 1581 1919 1581 
Q 1219 1581 811 2004 
Q 403 2428 403 3163 
Q 403 3881 828 4315 
Q 1253 4750 1959 4750 
Q 2769 4750 3195 4129 
Q 3622 3509 3622 2328 
Q 3622 1225 3098 567 
Q 2575 -91 1691 -91 
Q 1453 -91 1209 -44 
Q 966 3 703 97 
z
M 1959 2075 
Q 2384 2075 2632 2365 
Q 2881 2656 2881 3163 
Q 2881 3666 2632 3958 
Q 2384 4250 1959 4250 
Q 1534 4250 1286 3958 
Q 1038 3666 1038 3163 
Q 1038 2656 1286 2365 
Q 1534 2075 1959 2075 
z
" transform="scale(0.015625)"/>
      <path id="DejaVuSans-36" d="M 2113 2584 
Q 1688 2584 1439 2293 
Q 1191 2003 1191 1497 
Q 1191 994 1439 701 
Q 1688 409 2113 409 
Q 2538 409 2786 701 
Q 3034 994 3034 1497 
Q 3034 2003 2786 2293 
Q 2538 2584 2113 2584 
z
M 3366 4563 
L 3366 3988 
Q 3128 4100 2886 4159 
Q 2644 4219 2406 4219 
Q 1781 4219 1451 3797 
Q 1122 3375 1075 2522 
Q 1259 2794 1537 2939 
Q 1816 3084 2150 3084 
Q 2853 3084 3261 2657 
Q 3669 2231 3669 1497 
Q 3669 778 3244 343 
Q 2819 -91 2113 -91 
Q 1303 -91 875 529 
Q 447 1150 447 2328 
Q 447 3434 972 4092 
Q 1497 4750 2381 4750 
Q 2619 4750 2861 4703 
Q 3103 4656 3366 4563 
z
" transform="scale(0.015625)"/>
     </defs>
     <use xlink:href="#DejaVuSans-3a9" transform="translate(0 0.765625)"/>
     <use xlink:href="#DejaVuSans-32" transform="translate(77.373047 -15.640625) scale(0.7)"/>
     <use xlink:href="#DejaVuSans-2c" transform="translate(121.90918 -15.640625) scale(0.7)"/>
     <use xlink:href="#DejaVuSans-30" transform="translate(157.797852 -15.640625) scale(0.7)"/>
     <use xlink:href="#DejaVuSans-20" transform="translate(205.068359 0.765625)"/>
     <use xlink:href="#DejaVuSans-3d" transform="translate(236.855469 0.765625)"/>
     <use xlink:href="#DejaVuSans-20" transform="translate(320.644531 0.765625)"/>
     <use xlink:href="#DejaVuSans-30" transform="translate(352.431641 0.765625)"/>
     <use xlink:href="#DejaVuSans-2e" transform="translate(416.054688 0.765625)"/>
     <use xlink:href="#DejaVuSans-33" transform="translate(447.841797 0.765625)"/>
     <use xlink:href="#DejaVuSans-30" transform="translate(511.464844 0.765625)"/>
     <use xlink:href="#DejaVuSans-33" transform="translate(575.087891 0.765625)"/>
     <use xlink:href="#DejaVuSans-30" transform="translate(638.710938 0.765625)"/>
     <use xlink:href="#DejaVuSans-2b" transform="translate(703.291016 39.046875) scale(0.7)"/>
     <use xlink:href="#DejaVuSans-30" transform="translate(761.943359 39.046875) scale(0.7)"/>
     <use xlink:href="#DejaVuSans-2e" transform="translate(806.479492 39.046875) scale(0.7)"/>
     <use xlink:href="#DejaVuSans-30" transform="translate(828.730469 39.046875) scale(0.7)"/>
     <use xlink:href="#DejaVuSans-38" transform="translate(873.266602 39.046875) scale(0.7)"/>
     <use xlink:href="#DejaVuSans-30" transform="translate(917.802734 39.046875) scale(0.7)"/>
     <use xlink:href="#DejaVuSans-38" transform="translate(962.338867 39.046875) scale(0.7)"/>
     <use xlink:href="#DejaVuSans-2212" transform="translate(703.291016 -26.578125) scale(0.7)"/>
     <use xlink:href="#DejaVuSans-30" transform="translate(761.943359 -26.578125) scale(0.7)"/>
     <use xlink:href="#DejaVuSans-2e" transform="translate(806.479492 -26.578125) scale(0.7)"/>
     <use xlink:href="#DejaVuSans-30" transform="translate(828.730469 -26.578125) scale(0.7)"/>
     <use xlink:href="#DejaVuSans-39" transform="translate(873.266602 -26.578125) scale(0.7)"/>
     <use xlink:href="#DejaVuSans-38" transform="translate(917.802734 -26.578125) scale(0.7)"/>
     <use xlink:href="#DejaVuSans-36" transform="translate(962.338867 -26.578125) scale(0.7)"/>
    </g>
   </g>
  </g>
  <g id="axes_2">
   <g id="matplotlib.axis_3"/>
   <g id="matplotlib.axis_4"/>
  </g>
  <g id="axes_3">
   <g id="patch_7">
    <path d="M 64.368 329.76 
L 216.464846 329.76 
L 216.464846 195.864 
L 64.368 195.864 
z
" style="fill: #ffffff"/>
   </g>
   <g id="QuadContourSet_1">
    <path d="M 196.692256 289.215803 
L 198.170781 288.25224 
L 199.572879 285.57432 
L 199.431648 282.8964 
L 199.095044 280.21848 
L 198.337316 277.54056 
L 197.28095 274.86264 
L 196.692256 273.549703 
L 196.300667 272.18472 
L 195.311728 269.5068 
L 193.719001 266.82888 
L 193.650319 266.70233 
L 192.828127 264.15096 
L 191.562727 261.47304 
L 190.608382 260.285511 
L 189.751387 258.79512 
L 187.59588 256.1172 
L 187.566445 256.081031 
L 186.046531 253.43928 
L 184.524508 251.660591 
L 183.939873 250.76136 
L 181.482571 248.08344 
L 181.482571 248.08344 
L 179.675736 245.40552 
L 178.440634 244.105772 
L 177.211533 242.7276 
L 175.398697 241.095278 
L 174.279986 240.04968 
L 172.356761 238.463121 
L 171.027169 237.37176 
L 169.314824 235.925453 
L 167.825656 234.69384 
L 166.272887 233.36885 
L 164.372217 232.01592 
L 163.23095 231.126103 
L 160.2972 229.338 
L 160.189013 229.255959 
L 157.147076 227.017881 
L 156.49022 226.66008 
L 154.105139 224.939677 
L 152.186237 223.98216 
L 151.063202 223.205871 
L 148.021265 221.557176 
L 147.432201 221.30424 
L 144.979328 219.744264 
L 141.942553 218.62632 
L 141.937391 218.623103 
L 138.895454 216.835473 
L 136.226146 215.9484 
L 135.853518 215.722547 
L 132.811581 214.134221 
L 129.769644 213.296377 
L 129.68135 213.27048 
L 126.727707 211.735403 
L 123.68577 210.744854 
L 123.156384 210.59256 
L 120.643833 209.300548 
L 117.601896 208.36264 
L 115.600901 207.91464 
L 114.559959 207.451065 
L 111.518022 206.378163 
L 108.476085 205.691533 
L 106.114566 205.23672 
L 105.434148 204.978747 
L 102.392211 203.924651 
L 99.350275 203.22495 
L 96.308338 202.688889 
L 95.540249 202.5588 
L 93.266401 201.903296 
L 90.224464 201.270197 
L 87.182527 200.738278 
L 84.14059 200.354817 
L 81.098653 200.081539 
L 78.543791 199.88088 
L 78.056716 199.823291 
L 77.057307 199.88088 
L 75.014779 200.059048 
L 71.972842 201.46432 
L 71.045699 202.5588 
L 71.972842 203.053242 
L 73.867564 205.23672 
L 75.014779 205.931517 
L 78.056716 207.726013 
L 78.365416 207.91464 
L 81.098653 209.318142 
L 84.14059 210.489188 
L 84.405817 210.59256 
L 87.182527 211.787516 
L 90.224464 212.951627 
L 90.905181 213.27048 
L 93.266401 214.57357 
L 96.163684 215.9484 
L 96.308338 216.041686 
L 99.350275 217.836469 
L 101.189676 218.62632 
L 102.392211 219.34942 
L 105.434148 220.927926 
L 106.318754 221.30424 
L 108.476085 222.650588 
L 111.508583 223.98216 
L 111.518022 223.988612 
L 114.559959 225.985123 
L 116.159569 226.66008 
L 117.601896 227.545629 
L 120.643833 229.05518 
L 121.190988 229.338 
L 123.68577 231.110073 
L 125.541745 232.01592 
L 126.727707 232.852476 
L 129.769644 234.546262 
L 130.020208 234.69384 
L 132.811581 236.76225 
L 133.942464 237.37176 
L 135.853518 238.731736 
L 138.166228 240.04968 
L 138.895454 240.615583 
L 141.937391 242.723178 
L 141.943901 242.7276 
L 144.979328 245.072497 
L 145.494345 245.40552 
L 148.021265 247.423056 
L 148.934042 248.08344 
L 151.063202 249.887764 
L 152.255338 250.76136 
L 154.105139 252.308659 
L 155.555274 253.43928 
L 157.147076 254.79145 
L 158.81618 256.1172 
L 160.189013 257.287198 
L 162.009672 258.79512 
L 163.23095 259.870125 
L 164.968891 261.47304 
L 166.272887 262.731005 
L 167.669025 264.15096 
L 169.314824 265.795437 
L 170.388255 266.82888 
L 172.356761 268.646974 
L 173.298941 269.5068 
L 175.398697 271.526098 
L 176.067189 272.18472 
L 178.440634 274.544771 
L 178.789227 274.86264 
L 181.316757 277.54056 
L 181.482571 277.741085 
L 183.588085 280.21848 
L 184.524508 281.272898 
L 186.216724 282.8964 
L 187.566445 284.064231 
L 190.042014 285.57432 
L 190.608382 286.016573 
L 193.650319 287.960412 
L 194.640787 288.25224 
z
" clip-path="url(#p67d4e2abcd)" style="fill: #ffffff"/>
   </g>
   <g id="QuadContourSet_2">
    <path d="M 62.847032 333.77688 
L 65.888968 333.77688 
L 68.930905 333.77688 
L 71.972842 333.77688 
L 75.014779 333.77688 
L 78.056716 333.77688 
L 81.098653 333.77688 
L 84.14059 333.77688 
L 87.182527 333.77688 
L 90.224464 333.77688 
L 93.266401 333.77688 
L 96.308338 333.77688 
L 99.350275 333.77688 
L 102.392211 333.77688 
L 105.434148 333.77688 
L 108.476085 333.77688 
L 111.518022 333.77688 
L 114.559959 333.77688 
L 117.601896 333.77688 
L 120.643833 333.77688 
L 123.68577 333.77688 
L 126.727707 333.77688 
L 129.769644 333.77688 
L 132.811581 333.77688 
L 135.853518 333.77688 
L 138.895454 333.77688 
L 141.937391 333.77688 
L 144.979328 333.77688 
L 148.021265 333.77688 
L 151.063202 333.77688 
L 154.105139 333.77688 
L 157.147076 333.77688 
L 160.189013 333.77688 
L 163.23095 333.77688 
L 166.272887 333.77688 
L 169.314824 333.77688 
L 172.356761 333.77688 
L 175.398697 333.77688 
L 178.440634 333.77688 
L 181.482571 333.77688 
L 184.524508 333.77688 
L 187.566445 333.77688 
L 190.608382 333.77688 
L 193.650319 333.77688 
L 196.692256 333.77688 
L 199.734193 333.77688 
L 202.77613 333.77688 
L 205.818067 333.77688 
L 208.860004 333.77688 
L 211.90194 333.77688 
L 214.943877 333.77688 
L 217.985814 333.77688 
L 221.027751 333.77688 
L 221.027751 331.09896 
L 221.027751 328.42104 
L 221.027751 325.74312 
L 221.027751 323.0652 
L 221.027751 320.38728 
L 221.027751 317.70936 
L 221.027751 315.03144 
L 221.027751 312.35352 
L 221.027751 309.6756 
L 221.027751 306.99768 
L 221.027751 304.31976 
L 221.027751 301.64184 
L 221.027751 298.96392 
L 221.027751 296.286 
L 221.027751 293.60808 
L 221.027751 290.93016 
L 221.027751 288.25224 
L 221.027751 285.57432 
L 221.027751 282.8964 
L 221.027751 280.21848 
L 221.027751 277.54056 
L 221.027751 274.86264 
L 221.027751 272.18472 
L 221.027751 269.5068 
L 221.027751 266.82888 
L 221.027751 264.15096 
L 221.027751 261.47304 
L 221.027751 258.79512 
L 221.027751 256.1172 
L 221.027751 253.43928 
L 221.027751 250.76136 
L 221.027751 248.08344 
L 221.027751 245.40552 
L 221.027751 242.7276 
L 221.027751 240.04968 
L 221.027751 237.37176 
L 221.027751 234.69384 
L 221.027751 232.01592 
L 221.027751 229.338 
L 221.027751 226.66008 
L 221.027751 223.98216 
L 221.027751 221.30424 
L 221.027751 218.62632 
L 221.027751 215.9484 
L 221.027751 213.27048 
L 221.027751 210.59256 
L 221.027751 207.91464 
L 221.027751 205.23672 
L 221.027751 202.5588 
L 221.027751 199.88088 
L 221.027751 197.20296 
L 221.027751 194.52504 
L 221.027751 191.84712 
L 217.985814 191.84712 
L 214.943877 191.84712 
L 211.90194 191.84712 
L 208.860004 191.84712 
L 205.818067 191.84712 
L 202.77613 191.84712 
L 199.734193 191.84712 
L 196.692256 191.84712 
L 193.650319 191.84712 
L 190.608382 191.84712 
L 187.566445 191.84712 
L 184.524508 191.84712 
L 181.482571 191.84712 
L 178.440634 191.84712 
L 175.398697 191.84712 
L 172.356761 191.84712 
L 169.314824 191.84712 
L 166.272887 191.84712 
L 163.23095 191.84712 
L 160.189013 191.84712 
L 157.147076 191.84712 
L 154.105139 191.84712 
L 151.063202 191.84712 
L 148.021265 191.84712 
L 144.979328 191.84712 
L 141.937391 191.84712 
L 138.895454 191.84712 
L 135.853518 191.84712 
L 132.811581 191.84712 
L 129.769644 191.84712 
L 126.727707 191.84712 
L 123.68577 191.84712 
L 120.643833 191.84712 
L 117.601896 191.84712 
L 114.559959 191.84712 
L 111.518022 191.84712 
L 108.476085 191.84712 
L 105.434148 191.84712 
L 102.392211 191.84712 
L 99.350275 191.84712 
L 96.308338 191.84712 
L 93.266401 191.84712 
L 90.224464 191.84712 
L 87.182527 191.84712 
L 84.14059 191.84712 
L 81.098653 191.84712 
L 78.056716 191.84712 
L 75.014779 191.84712 
L 71.972842 191.84712 
L 68.930905 191.84712 
L 65.888968 191.84712 
L 62.847032 191.84712 
L 59.805095 191.84712 
L 59.805095 194.52504 
L 59.805095 197.20296 
L 59.805095 199.88088 
L 59.805095 202.5588 
L 59.805095 205.23672 
L 59.805095 207.91464 
L 59.805095 210.59256 
L 59.805095 213.27048 
L 59.805095 215.9484 
L 59.805095 218.62632 
L 59.805095 221.30424 
L 59.805095 223.98216 
L 59.805095 226.66008 
L 59.805095 229.338 
L 59.805095 232.01592 
L 59.805095 234.69384 
L 59.805095 237.37176 
L 59.805095 240.04968 
L 59.805095 242.7276 
L 59.805095 245.40552 
L 59.805095 248.08344 
L 59.805095 250.76136 
L 59.805095 253.43928 
L 59.805095 256.1172 
L 59.805095 258.79512 
L 59.805095 261.47304 
L 59.805095 264.15096 
L 59.805095 266.82888 
L 59.805095 269.5068 
L 59.805095 272.18472 
L 59.805095 274.86264 
L 59.805095 277.54056 
L 59.805095 280.21848 
L 59.805095 282.8964 
L 59.805095 285.57432 
L 59.805095 288.25224 
L 59.805095 290.93016 
L 59.805095 293.60808 
L 59.805095 296.286 
L 59.805095 298.96392 
L 59.805095 301.64184 
L 59.805095 304.31976 
L 59.805095 306.99768 
L 59.805095 309.6756 
L 59.805095 312.35352 
L 59.805095 315.03144 
L 59.805095 317.70936 
L 59.805095 320.38728 
L 59.805095 323.0652 
L 59.805095 325.74312 
L 59.805095 328.42104 
L 59.805095 331.09896 
L 59.805095 333.77688 
L 62.847032 333.77688 
z
M 194.640787 288.25224 
L 193.650319 287.960412 
L 190.608382 286.016573 
L 190.042014 285.57432 
L 187.566445 284.064231 
L 186.216724 282.8964 
L 184.524508 281.272898 
L 183.588085 280.21848 
L 181.482571 277.741085 
L 181.316757 277.54056 
L 178.789227 274.86264 
L 178.440634 274.544771 
L 176.067189 272.18472 
L 175.398697 271.526098 
L 173.298941 269.5068 
L 172.356761 268.646974 
L 170.388255 266.82888 
L 169.314824 265.795437 
L 167.669025 264.15096 
L 166.272887 262.731005 
L 164.968891 261.47304 
L 163.23095 259.870125 
L 162.009672 258.79512 
L 160.189013 257.287198 
L 158.81618 256.1172 
L 157.147076 254.79145 
L 155.555274 253.43928 
L 154.105139 252.308659 
L 152.255338 250.76136 
L 151.063202 249.887764 
L 148.934042 248.08344 
L 148.021265 247.423056 
L 145.494345 245.40552 
L 144.979328 245.072497 
L 141.943901 242.7276 
L 141.937391 242.723178 
L 138.895454 240.615583 
L 138.166228 240.04968 
L 135.853518 238.731736 
L 133.942464 237.37176 
L 132.811581 236.76225 
L 130.020208 234.69384 
L 129.769644 234.546262 
L 126.727707 232.852476 
L 125.541745 232.01592 
L 123.68577 231.110073 
L 121.190988 229.338 
L 120.643833 229.05518 
L 117.601896 227.545629 
L 116.159569 226.66008 
L 114.559959 225.985123 
L 111.518022 223.988612 
L 111.508583 223.98216 
L 108.476085 222.650588 
L 106.318754 221.30424 
L 105.434148 220.927926 
L 102.392211 219.34942 
L 101.189676 218.62632 
L 99.350275 217.836469 
L 96.308338 216.041686 
L 96.163684 215.9484 
L 93.266401 214.57357 
L 90.905181 213.27048 
L 90.224464 212.951627 
L 87.182527 211.787516 
L 84.405817 210.59256 
L 84.14059 210.489188 
L 81.098653 209.318142 
L 78.365416 207.91464 
L 78.056716 207.726013 
L 75.014779 205.931517 
L 73.867564 205.23672 
L 71.972842 203.053242 
L 71.045699 202.5588 
L 71.972842 201.46432 
L 75.014779 200.059048 
L 77.057307 199.88088 
L 78.056716 199.823291 
L 78.543791 199.88088 
L 81.098653 200.081539 
L 84.14059 200.354817 
L 87.182527 200.738278 
L 90.224464 201.270197 
L 93.266401 201.903296 
L 95.540249 202.5588 
L 96.308338 202.688889 
L 99.350275 203.22495 
L 102.392211 203.924651 
L 105.434148 204.978747 
L 106.114566 205.23672 
L 108.476085 205.691533 
L 111.518022 206.378163 
L 114.559959 207.451065 
L 115.600901 207.91464 
L 117.601896 208.36264 
L 120.643833 209.300548 
L 123.156384 210.59256 
L 123.68577 210.744854 
L 126.727707 211.735403 
L 129.68135 213.27048 
L 129.769644 213.296377 
L 132.811581 214.134221 
L 135.853518 215.722547 
L 136.226146 215.9484 
L 138.895454 216.835473 
L 141.937391 218.623103 
L 141.942553 218.62632 
L 144.979328 219.744264 
L 147.432201 221.30424 
L 148.021265 221.557176 
L 151.063202 223.205871 
L 152.186237 223.98216 
L 154.105139 224.939677 
L 156.49022 226.66008 
L 157.147076 227.017881 
L 160.189013 229.255959 
L 160.2972 229.338 
L 163.23095 231.126103 
L 164.372217 232.01592 
L 166.272887 233.36885 
L 167.825656 234.69384 
L 169.314824 235.925453 
L 171.027169 237.37176 
L 172.356761 238.463121 
L 174.279986 240.04968 
L 175.398697 241.095278 
L 177.211533 242.7276 
L 178.440634 244.105772 
L 179.675736 245.40552 
L 181.482571 248.08344 
L 181.482571 248.08344 
L 183.939873 250.76136 
L 184.524508 251.660591 
L 186.046531 253.43928 
L 187.566445 256.081031 
L 187.59588 256.1172 
L 189.751387 258.79512 
L 190.608382 260.285511 
L 191.562727 261.47304 
L 192.828127 264.15096 
L 193.650319 266.70233 
L 193.719001 266.82888 
L 195.311728 269.5068 
L 196.300667 272.18472 
L 196.692256 273.549703 
L 197.28095 274.86264 
L 198.337316 277.54056 
L 199.095044 280.21848 
L 199.431648 282.8964 
L 199.572879 285.57432 
L 198.170781 288.25224 
L 196.692256 289.215803 
L 194.640787 288.25224 
z
" clip-path="url(#p67d4e2abcd)" style="fill: none"/>
    <path d="M 196.692256 289.215803 
L 198.170781 288.25224 
L 199.572879 285.57432 
L 199.431648 282.8964 
L 199.095044 280.21848 
L 198.337316 277.54056 
L 197.28095 274.86264 
L 196.692256 273.549703 
L 196.300667 272.18472 
L 195.311728 269.5068 
L 193.719001 266.82888 
L 193.650319 266.70233 
L 192.828127 264.15096 
L 191.562727 261.47304 
L 190.608382 260.285511 
L 189.751387 258.79512 
L 187.59588 256.1172 
L 187.566445 256.081031 
L 186.046531 253.43928 
L 184.524508 251.660591 
L 183.939873 250.76136 
L 181.482571 248.08344 
L 181.482571 248.08344 
L 179.675736 245.40552 
L 178.440634 244.105772 
L 177.211533 242.7276 
L 175.398697 241.095278 
L 174.279986 240.04968 
L 172.356761 238.463121 
L 171.027169 237.37176 
L 169.314824 235.925453 
L 167.825656 234.69384 
L 166.272887 233.36885 
L 164.372217 232.01592 
L 163.23095 231.126103 
L 160.2972 229.338 
L 160.189013 229.255959 
L 157.147076 227.017881 
L 156.49022 226.66008 
L 154.105139 224.939677 
L 152.186237 223.98216 
L 151.063202 223.205871 
L 148.021265 221.557176 
L 147.432201 221.30424 
L 144.979328 219.744264 
L 141.942553 218.62632 
L 141.937391 218.623103 
L 138.895454 216.835473 
L 136.226146 215.9484 
L 135.853518 215.722547 
L 132.811581 214.134221 
L 129.769644 213.296377 
L 129.68135 213.27048 
L 126.727707 211.735403 
L 123.68577 210.744854 
L 123.156384 210.59256 
L 120.643833 209.300548 
L 117.601896 208.36264 
L 115.600901 207.91464 
L 114.559959 207.451065 
L 111.518022 206.378163 
L 108.476085 205.691533 
L 106.114566 205.23672 
L 105.434148 204.978747 
L 102.392211 203.924651 
L 99.350275 203.22495 
L 96.308338 202.688889 
L 95.540249 202.5588 
L 93.266401 201.903296 
L 90.224464 201.270197 
L 87.182527 200.738278 
L 84.14059 200.354817 
L 81.098653 200.081539 
L 78.543791 199.88088 
L 78.056716 199.823291 
L 77.057307 199.88088 
L 75.014779 200.059048 
L 71.972842 201.46432 
L 71.045699 202.5588 
L 71.972842 203.053242 
L 73.867564 205.23672 
L 75.014779 205.931517 
L 78.056716 207.726013 
L 78.365416 207.91464 
L 81.098653 209.318142 
L 84.14059 210.489188 
L 84.405817 210.59256 
L 87.182527 211.787516 
L 90.224464 212.951627 
L 90.905181 213.27048 
L 93.266401 214.57357 
L 96.163684 215.9484 
L 96.308338 216.041686 
L 99.350275 217.836469 
L 101.189676 218.62632 
L 102.392211 219.34942 
L 105.434148 220.927926 
L 106.318754 221.30424 
L 108.476085 222.650588 
L 111.508583 223.98216 
L 111.518022 223.988612 
L 114.559959 225.985123 
L 116.159569 226.66008 
L 117.601896 227.545629 
L 120.643833 229.05518 
L 121.190988 229.338 
L 123.68577 231.110073 
L 125.541745 232.01592 
L 126.727707 232.852476 
L 129.769644 234.546262 
L 130.020208 234.69384 
L 132.811581 236.76225 
L 133.942464 237.37176 
L 135.853518 238.731736 
L 138.166228 240.04968 
L 138.895454 240.615583 
L 141.937391 242.723178 
L 141.943901 242.7276 
L 144.979328 245.072497 
L 145.494345 245.40552 
L 148.021265 247.423056 
L 148.934042 248.08344 
L 151.063202 249.887764 
L 152.255338 250.76136 
L 154.105139 252.308659 
L 155.555274 253.43928 
L 157.147076 254.79145 
L 158.81618 256.1172 
L 160.189013 257.287198 
L 162.009672 258.79512 
L 163.23095 259.870125 
L 164.968891 261.47304 
L 166.272887 262.731005 
L 167.669025 264.15096 
L 169.314824 265.795437 
L 170.388255 266.82888 
L 172.356761 268.646974 
L 173.298941 269.5068 
L 175.398697 271.526098 
L 176.067189 272.18472 
L 178.440634 274.544771 
L 178.789227 274.86264 
L 181.316757 277.54056 
L 181.482571 277.741085 
L 183.588085 280.21848 
L 184.524508 281.272898 
L 186.216724 282.8964 
L 187.566445 284.064231 
L 190.042014 285.57432 
L 190.608382 286.016573 
L 193.650319 287.960412 
L 194.640787 288.25224 
z
M 177.848954 264.15096 
L 175.398697 262.630926 
L 173.966968 261.47304 
L 172.356761 260.291255 
L 170.514128 258.79512 
L 169.314824 257.986668 
L 166.947817 256.1172 
L 166.272887 255.642516 
L 163.519909 253.43928 
L 163.23095 253.233712 
L 160.189013 250.902371 
L 160.015079 250.76136 
L 157.147076 248.741368 
L 156.305991 248.08344 
L 154.105139 246.525036 
L 152.65807 245.40552 
L 151.063202 244.293009 
L 148.962958 242.7276 
L 148.021265 242.089283 
L 145.237451 240.04968 
L 144.979328 239.873077 
L 141.937391 237.687083 
L 141.519543 237.37176 
L 138.895454 235.674151 
L 137.46464 234.69384 
L 135.853518 233.678365 
L 133.477721 232.01592 
L 132.811581 231.57095 
L 129.769644 229.645954 
L 129.290354 229.338 
L 126.727707 227.848214 
L 124.91148 226.66008 
L 123.68577 225.834729 
L 120.684801 223.98216 
L 120.643833 223.953987 
L 117.601896 222.156826 
L 116.265595 221.30424 
L 114.559959 220.027805 
L 112.237297 218.62632 
L 111.518022 218.054677 
L 108.476085 216.380884 
L 107.772433 215.9484 
L 105.766774 213.27048 
L 108.476085 212.172835 
L 111.518022 212.310167 
L 114.559959 212.882055 
L 115.94695 213.27048 
L 117.601896 213.721056 
L 120.643833 214.561796 
L 123.68577 215.679439 
L 124.289133 215.9484 
L 126.727707 216.851988 
L 129.769644 217.861272 
L 131.646051 218.62632 
L 132.811581 219.001784 
L 135.853518 220.136276 
L 138.172646 221.30424 
L 138.895454 221.609801 
L 141.937391 222.968453 
L 143.725442 223.98216 
L 144.979328 224.591734 
L 148.021265 226.382291 
L 148.439229 226.66008 
L 151.063202 228.158091 
L 152.866395 229.338 
L 154.105139 230.053616 
L 156.940583 232.01592 
L 157.147076 232.161358 
L 160.189013 234.380573 
L 160.598022 234.69384 
L 163.23095 236.704029 
L 164.03209 237.37176 
L 166.272887 239.32199 
L 167.113609 240.04968 
L 169.314824 242.112296 
L 169.982512 242.7276 
L 172.356761 245.315622 
L 172.447619 245.40552 
L 174.81718 248.08344 
L 175.398697 248.916503 
L 176.806787 250.76136 
L 178.440634 253.43928 
L 178.440634 253.43928 
L 179.992234 256.1172 
L 181.482571 258.736605 
L 181.519126 258.79512 
L 182.592477 261.47304 
L 182.654265 264.15096 
L 181.482571 265.319591 
L 178.440634 264.57753 
z
" clip-path="url(#p67d4e2abcd)" style="fill: #008000; fill-opacity: 0.333333"/>
    <path d="M 178.440634 264.57753 
L 181.482571 265.319591 
L 182.654265 264.15096 
L 182.592477 261.47304 
L 181.519126 258.79512 
L 181.482571 258.736605 
L 179.992234 256.1172 
L 178.440634 253.43928 
L 178.440634 253.43928 
L 176.806787 250.76136 
L 175.398697 248.916503 
L 174.81718 248.08344 
L 172.447619 245.40552 
L 172.356761 245.315622 
L 169.982512 242.7276 
L 169.314824 242.112296 
L 167.113609 240.04968 
L 166.272887 239.32199 
L 164.03209 237.37176 
L 163.23095 236.704029 
L 160.598022 234.69384 
L 160.189013 234.380573 
L 157.147076 232.161358 
L 156.940583 232.01592 
L 154.105139 230.053616 
L 152.866395 229.338 
L 151.063202 228.158091 
L 148.439229 226.66008 
L 148.021265 226.382291 
L 144.979328 224.591734 
L 143.725442 223.98216 
L 141.937391 222.968453 
L 138.895454 221.609801 
L 138.172646 221.30424 
L 135.853518 220.136276 
L 132.811581 219.001784 
L 131.646051 218.62632 
L 129.769644 217.861272 
L 126.727707 216.851988 
L 124.289133 215.9484 
L 123.68577 215.679439 
L 120.643833 214.561796 
L 117.601896 213.721056 
L 115.94695 213.27048 
L 114.559959 212.882055 
L 111.518022 212.310167 
L 108.476085 212.172835 
L 105.766774 213.27048 
L 107.772433 215.9484 
L 108.476085 216.380884 
L 111.518022 218.054677 
L 112.237297 218.62632 
L 114.559959 220.027805 
L 116.265595 221.30424 
L 117.601896 222.156826 
L 120.643833 223.953987 
L 120.684801 223.98216 
L 123.68577 225.834729 
L 124.91148 226.66008 
L 126.727707 227.848214 
L 129.290354 229.338 
L 129.769644 229.645954 
L 132.811581 231.57095 
L 133.477721 232.01592 
L 135.853518 233.678365 
L 137.46464 234.69384 
L 138.895454 235.674151 
L 141.519543 237.37176 
L 141.937391 237.687083 
L 144.979328 239.873077 
L 145.237451 240.04968 
L 148.021265 242.089283 
L 148.962958 242.7276 
L 151.063202 244.293009 
L 152.65807 245.40552 
L 154.105139 246.525036 
L 156.305991 248.08344 
L 157.147076 248.741368 
L 160.015079 250.76136 
L 160.189013 250.902371 
L 163.23095 253.233712 
L 163.519909 253.43928 
L 166.272887 255.642516 
L 166.947817 256.1172 
L 169.314824 257.986668 
L 170.514128 258.79512 
L 172.356761 260.291255 
L 173.966968 261.47304 
L 175.398697 262.630926 
L 177.848954 264.15096 
z
" clip-path="url(#p67d4e2abcd)" style="fill: #008000"/>
   </g>
   <g id="matplotlib.axis_5">
    <g id="xtick_4">
     <g id="line2d_5">
      <g>
       <use xlink:href="#mfb4beeabb9" x="106.797584" y="329.76" style="stroke: #000000; stroke-width: 0.8"/>
      </g>
     </g>
     <g id="text_2">
      <!-- 0.15 -->
      <g transform="translate(100.87667 357.877081) rotate(-45) scale(0.1 -0.1)">
       <defs>
        <path id="DejaVuSans-31" d="M 794 531 
L 1825 531 
L 1825 4091 
L 703 3866 
L 703 4441 
L 1819 4666 
L 2450 4666 
L 2450 531 
L 3481 531 
L 3481 0 
L 794 0 
L 794 531 
z
" transform="scale(0.015625)"/>
        <path id="DejaVuSans-35" d="M 691 4666 
L 3169 4666 
L 3169 4134 
L 1269 4134 
L 1269 2991 
Q 1406 3038 1543 3061 
Q 1681 3084 1819 3084 
Q 2600 3084 3056 2656 
Q 3513 2228 3513 1497 
Q 3513 744 3044 326 
Q 2575 -91 1722 -91 
Q 1428 -91 1123 -41 
Q 819 9 494 109 
L 494 744 
Q 775 591 1075 516 
Q 1375 441 1709 441 
Q 2250 441 2565 725 
Q 2881 1009 2881 1497 
Q 2881 1984 2565 2268 
Q 2250 2553 1709 2553 
Q 1456 2553 1204 2497 
Q 953 2441 691 2322 
L 691 4666 
z
" transform="scale(0.015625)"/>
       </defs>
       <use xlink:href="#DejaVuSans-30"/>
       <use xlink:href="#DejaVuSans-2e" x="63.623047"/>
       <use xlink:href="#DejaVuSans-31" x="95.410156"/>
       <use xlink:href="#DejaVuSans-35" x="159.033203"/>
      </g>
     </g>
    </g>
    <g id="xtick_5">
     <g id="line2d_6">
      <g>
       <use xlink:href="#mfb4beeabb9" x="149.349655" y="329.76" style="stroke: #000000; stroke-width: 0.8"/>
      </g>
     </g>
     <g id="text_3">
      <!-- 0.30 -->
      <g transform="translate(143.428741 357.877081) rotate(-45) scale(0.1 -0.1)">
       <use xlink:href="#DejaVuSans-30"/>
       <use xlink:href="#DejaVuSans-2e" x="63.623047"/>
       <use xlink:href="#DejaVuSans-33" x="95.410156"/>
       <use xlink:href="#DejaVuSans-30" x="159.033203"/>
      </g>
     </g>
    </g>
    <g id="xtick_6">
     <g id="line2d_7">
      <g>
       <use xlink:href="#mfb4beeabb9" x="191.901726" y="329.76" style="stroke: #000000; stroke-width: 0.8"/>
      </g>
     </g>
     <g id="text_4">
      <!-- 0.45 -->
      <g transform="translate(185.980812 357.877081) rotate(-45) scale(0.1 -0.1)">
       <defs>
        <path id="DejaVuSans-34" d="M 2419 4116 
L 825 1625 
L 2419 1625 
L 2419 4116 
z
M 2253 4666 
L 3047 4666 
L 3047 1625 
L 3713 1625 
L 3713 1100 
L 3047 1100 
L 3047 0 
L 2419 0 
L 2419 1100 
L 313 1100 
L 313 1709 
L 2253 4666 
z
" transform="scale(0.015625)"/>
       </defs>
       <use xlink:href="#DejaVuSans-30"/>
       <use xlink:href="#DejaVuSans-2e" x="63.623047"/>
       <use xlink:href="#DejaVuSans-34" x="95.410156"/>
       <use xlink:href="#DejaVuSans-35" x="159.033203"/>
      </g>
     </g>
    </g>
    <g id="text_5">
     <!-- $\Omega_{2,0}$ -->
     <g transform="translate(130.116423 377.3288) scale(0.1 -0.1)">
      <use xlink:href="#DejaVuSans-3a9" transform="translate(0 0.21875)"/>
      <use xlink:href="#DejaVuSans-32" transform="translate(77.373047 -16.1875) scale(0.7)"/>
      <use xlink:href="#DejaVuSans-2c" transform="translate(121.90918 -16.1875) scale(0.7)"/>
      <use xlink:href="#DejaVuSans-30" transform="translate(157.797852 -16.1875) scale(0.7)"/>
     </g>
    </g>
   </g>
   <g id="matplotlib.axis_6">
    <g id="ytick_1">
     <g id="line2d_8">
      <defs>
       <path id="maad0825cdc" d="M 0 0 
L -3.5 0 
" style="stroke: #000000; stroke-width: 0.8"/>
      </defs>
      <g>
       <use xlink:href="#maad0825cdc" x="64.368" y="323.886376" style="stroke: #000000; stroke-width: 0.8"/>
      </g>
     </g>
     <g id="text_6">
      <!-- −1.8 -->
      <g transform="translate(38.726897 342.630605) rotate(-45) scale(0.1 -0.1)">
       <use xlink:href="#DejaVuSans-2212"/>
       <use xlink:href="#DejaVuSans-31" x="83.789062"/>
       <use xlink:href="#DejaVuSans-2e" x="147.412109"/>
       <use xlink:href="#DejaVuSans-38" x="179.199219"/>
      </g>
     </g>
    </g>
    <g id="ytick_2">
     <g id="line2d_9">
      <g>
       <use xlink:href="#maad0825cdc" x="64.368" y="294.857445" style="stroke: #000000; stroke-width: 0.8"/>
      </g>
     </g>
     <g id="text_7">
      <!-- −1.5 -->
      <g transform="translate(38.726897 313.601675) rotate(-45) scale(0.1 -0.1)">
       <use xlink:href="#DejaVuSans-2212"/>
       <use xlink:href="#DejaVuSans-31" x="83.789062"/>
       <use xlink:href="#DejaVuSans-2e" x="147.412109"/>
       <use xlink:href="#DejaVuSans-35" x="179.199219"/>
      </g>
     </g>
    </g>
    <g id="ytick_3">
     <g id="line2d_10">
      <g>
       <use xlink:href="#maad0825cdc" x="64.368" y="265.828515" style="stroke: #000000; stroke-width: 0.8"/>
      </g>
     </g>
     <g id="text_8">
      <!-- −1.2 -->
      <g transform="translate(38.726897 284.572744) rotate(-45) scale(0.1 -0.1)">
       <use xlink:href="#DejaVuSans-2212"/>
       <use xlink:href="#DejaVuSans-31" x="83.789062"/>
       <use xlink:href="#DejaVuSans-2e" x="147.412109"/>
       <use xlink:href="#DejaVuSans-32" x="179.199219"/>
      </g>
     </g>
    </g>
    <g id="ytick_4">
     <g id="line2d_11">
      <g>
       <use xlink:href="#maad0825cdc" x="64.368" y="236.799585" style="stroke: #000000; stroke-width: 0.8"/>
      </g>
     </g>
     <g id="text_9">
      <!-- −0.9 -->
      <g transform="translate(38.726897 255.543814) rotate(-45) scale(0.1 -0.1)">
       <use xlink:href="#DejaVuSans-2212"/>
       <use xlink:href="#DejaVuSans-30" x="83.789062"/>
       <use xlink:href="#DejaVuSans-2e" x="147.412109"/>
       <use xlink:href="#DejaVuSans-39" x="179.199219"/>
      </g>
     </g>
    </g>
    <g id="ytick_5">
     <g id="line2d_12">
      <g>
       <use xlink:href="#maad0825cdc" x="64.368" y="207.770655" style="stroke: #000000; stroke-width: 0.8"/>
      </g>
     </g>
     <g id="text_10">
      <!-- −0.6 -->
      <g transform="translate(38.726897 226.514884) rotate(-45) scale(0.1 -0.1)">
       <use xlink:href="#DejaVuSans-2212"/>
       <use xlink:href="#DejaVuSans-30" x="83.789062"/>
       <use xlink:href="#DejaVuSans-2e" x="147.412109"/>
       <use xlink:href="#DejaVuSans-36" x="179.199219"/>
      </g>
     </g>
    </g>
    <g id="text_11">
     <!-- $w_{IDM}$ -->
     <g transform="translate(16.659259 273.812) rotate(-90) scale(0.1 -0.1)">
      <defs>
       <path id="DejaVuSans-Oblique-77" d="M 544 3500 
L 1113 3500 
L 1259 684 
L 2566 3500 
L 3231 3500 
L 3425 684 
L 4666 3500 
L 5241 3500 
L 3641 0 
L 2969 0 
L 2797 2900 
L 1459 0 
L 781 0 
L 544 3500 
z
" transform="scale(0.015625)"/>
       <path id="DejaVuSans-Oblique-49" d="M 1081 4666 
L 1716 4666 
L 806 0 
L 172 0 
L 1081 4666 
z
" transform="scale(0.015625)"/>
       <path id="DejaVuSans-Oblique-44" d="M 1081 4666 
L 2438 4666 
Q 3519 4666 4070 4208 
Q 4622 3750 4622 2847 
Q 4622 2250 4412 1698 
Q 4203 1147 3834 769 
Q 3463 381 2891 190 
Q 2319 0 1538 0 
L 172 0 
L 1081 4666 
z
M 1613 4147 
L 909 519 
L 1734 519 
Q 2794 519 3375 1128 
Q 3956 1738 3956 2847 
Q 3956 3519 3581 3833 
Q 3206 4147 2406 4147 
L 1613 4147 
z
" transform="scale(0.015625)"/>
       <path id="DejaVuSans-Oblique-4d" d="M 1081 4666 
L 2028 4666 
L 2572 1522 
L 4378 4666 
L 5350 4666 
L 4441 0 
L 3828 0 
L 4622 4091 
L 2791 897 
L 2175 897 
L 1581 4103 
L 788 0 
L 172 0 
L 1081 4666 
z
" transform="scale(0.015625)"/>
      </defs>
      <use xlink:href="#DejaVuSans-Oblique-77" transform="translate(0 0.3125)"/>
      <use xlink:href="#DejaVuSans-Oblique-49" transform="translate(81.787109 -16.09375) scale(0.7)"/>
      <use xlink:href="#DejaVuSans-Oblique-44" transform="translate(102.431641 -16.09375) scale(0.7)"/>
      <use xlink:href="#DejaVuSans-Oblique-4d" transform="translate(156.333008 -16.09375) scale(0.7)"/>
     </g>
    </g>
   </g>
   <g id="QuadContourSet_3">
    <path d="M 196.692256 289.215803 
L 198.170781 288.25224 
L 199.572879 285.57432 
L 199.431648 282.8964 
L 199.095044 280.21848 
L 198.337316 277.54056 
L 197.28095 274.86264 
L 196.692256 273.549703 
L 196.300667 272.18472 
L 195.311728 269.5068 
L 193.719001 266.82888 
L 193.650319 266.70233 
L 192.828127 264.15096 
L 191.562727 261.47304 
L 190.608382 260.285511 
L 189.751387 258.79512 
L 187.59588 256.1172 
L 187.566445 256.081031 
L 186.046531 253.43928 
L 184.524508 251.660591 
L 183.939873 250.76136 
L 181.482571 248.08344 
L 181.482571 248.08344 
L 179.675736 245.40552 
L 178.440634 244.105772 
L 177.211533 242.7276 
L 175.398697 241.095278 
L 174.279986 240.04968 
L 172.356761 238.463121 
L 171.027169 237.37176 
L 169.314824 235.925453 
L 167.825656 234.69384 
L 166.272887 233.36885 
L 164.372217 232.01592 
L 163.23095 231.126103 
L 160.2972 229.338 
L 160.189013 229.255959 
L 157.147076 227.017881 
L 156.49022 226.66008 
L 154.105139 224.939677 
L 152.186237 223.98216 
L 151.063202 223.205871 
L 148.021265 221.557176 
L 147.432201 221.30424 
L 144.979328 219.744264 
L 141.942553 218.62632 
L 141.937391 218.623103 
L 138.895454 216.835473 
L 136.226146 215.9484 
L 135.853518 215.722547 
L 132.811581 214.134221 
L 129.769644 213.296377 
L 129.68135 213.27048 
L 126.727707 211.735403 
L 123.68577 210.744854 
L 123.156384 210.59256 
L 120.643833 209.300548 
L 117.601896 208.36264 
L 115.600901 207.91464 
L 114.559959 207.451065 
L 111.518022 206.378163 
L 108.476085 205.691533 
L 106.114566 205.23672 
L 105.434148 204.978747 
L 102.392211 203.924651 
L 99.350275 203.22495 
L 96.308338 202.688889 
L 95.540249 202.5588 
L 93.266401 201.903296 
L 90.224464 201.270197 
L 87.182527 200.738278 
L 84.14059 200.354817 
L 81.098653 200.081539 
L 78.543791 199.88088 
L 78.056716 199.823291 
L 77.057307 199.88088 
L 75.014779 200.059048 
L 71.972842 201.46432 
L 71.045699 202.5588 
L 71.972842 203.053242 
L 73.867564 205.23672 
L 75.014779 205.931517 
L 78.056716 207.726013 
L 78.365416 207.91464 
L 81.098653 209.318142 
L 84.14059 210.489188 
L 84.405817 210.59256 
L 87.182527 211.787516 
L 90.224464 212.951627 
L 90.905181 213.27048 
L 93.266401 214.57357 
L 96.163684 215.9484 
L 96.308338 216.041686 
L 99.350275 217.836469 
L 101.189676 218.62632 
L 102.392211 219.34942 
L 105.434148 220.927926 
L 106.318754 221.30424 
L 108.476085 222.650588 
L 111.508583 223.98216 
L 111.518022 223.988612 
L 114.559959 225.985123 
L 116.159569 226.66008 
L 117.601896 227.545629 
L 120.643833 229.05518 
L 121.190988 229.338 
L 123.68577 231.110073 
L 125.541745 232.01592 
L 126.727707 232.852476 
L 129.769644 234.546262 
L 130.020208 234.69384 
L 132.811581 236.76225 
L 133.942464 237.37176 
L 135.853518 238.731736 
L 138.166228 240.04968 
L 138.895454 240.615583 
L 141.937391 242.723178 
L 141.943901 242.7276 
L 144.979328 245.072497 
L 145.494345 245.40552 
L 148.021265 247.423056 
L 148.934042 248.08344 
L 151.063202 249.887764 
L 152.255338 250.76136 
L 154.105139 252.308659 
L 155.555274 253.43928 
L 157.147076 254.79145 
L 158.81618 256.1172 
L 160.189013 257.287198 
L 162.009672 258.79512 
L 163.23095 259.870125 
L 164.968891 261.47304 
L 166.272887 262.731005 
L 167.669025 264.15096 
L 169.314824 265.795437 
L 170.388255 266.82888 
L 172.356761 268.646974 
L 173.298941 269.5068 
L 175.398697 271.526098 
L 176.067189 272.18472 
L 178.440634 274.544771 
L 178.789227 274.86264 
L 181.316757 277.54056 
L 181.482571 277.741085 
L 183.588085 280.21848 
L 184.524508 281.272898 
L 186.216724 282.8964 
L 187.566445 284.064231 
L 190.042014 285.57432 
L 190.608382 286.016573 
L 193.650319 287.960412 
L 194.640787 288.25224 
L 196.692256 289.215803 
z
" clip-path="url(#p67d4e2abcd)" style="fill: none; stroke: #008000; stroke-width: 1.5"/>
    <path d="M 178.440634 264.57753 
L 181.482571 265.319591 
L 182.654265 264.15096 
L 182.592477 261.47304 
L 181.519126 258.79512 
L 181.482571 258.736605 
L 179.992234 256.1172 
L 178.440634 253.43928 
L 178.440634 253.43928 
L 176.806787 250.76136 
L 175.398697 248.916503 
L 174.81718 248.08344 
L 172.447619 245.40552 
L 172.356761 245.315622 
L 169.982512 242.7276 
L 169.314824 242.112296 
L 167.113609 240.04968 
L 166.272887 239.32199 
L 164.03209 237.37176 
L 163.23095 236.704029 
L 160.598022 234.69384 
L 160.189013 234.380573 
L 157.147076 232.161358 
L 156.940583 232.01592 
L 154.105139 230.053616 
L 152.866395 229.338 
L 151.063202 228.158091 
L 148.439229 226.66008 
L 148.021265 226.382291 
L 144.979328 224.591734 
L 143.725442 223.98216 
L 141.937391 222.968453 
L 138.895454 221.609801 
L 138.172646 221.30424 
L 135.853518 220.136276 
L 132.811581 219.001784 
L 131.646051 218.62632 
L 129.769644 217.861272 
L 126.727707 216.851988 
L 124.289133 215.9484 
L 123.68577 215.679439 
L 120.643833 214.561796 
L 117.601896 213.721056 
L 115.94695 213.27048 
L 114.559959 212.882055 
L 111.518022 212.310167 
L 108.476085 212.172835 
L 105.766774 213.27048 
L 107.772433 215.9484 
L 108.476085 216.380884 
L 111.518022 218.054677 
L 112.237297 218.62632 
L 114.559959 220.027805 
L 116.265595 221.30424 
L 117.601896 222.156826 
L 120.643833 223.953987 
L 120.684801 223.98216 
L 123.68577 225.834729 
L 124.91148 226.66008 
L 126.727707 227.848214 
L 129.290354 229.338 
L 129.769644 229.645954 
L 132.811581 231.57095 
L 133.477721 232.01592 
L 135.853518 233.678365 
L 137.46464 234.69384 
L 138.895454 235.674151 
L 141.519543 237.37176 
L 141.937391 237.687083 
L 144.979328 239.873077 
L 145.237451 240.04968 
L 148.021265 242.089283 
L 148.962958 242.7276 
L 151.063202 244.293009 
L 152.65807 245.40552 
L 154.105139 246.525036 
L 156.305991 248.08344 
L 157.147076 248.741368 
L 160.015079 250.76136 
L 160.189013 250.902371 
L 163.23095 253.233712 
L 163.519909 253.43928 
L 166.272887 255.642516 
L 166.947817 256.1172 
L 169.314824 257.986668 
L 170.514128 258.79512 
L 172.356761 260.291255 
L 173.966968 261.47304 
L 175.398697 262.630926 
L 177.848954 264.15096 
L 178.440634 264.57753 
z
" clip-path="url(#p67d4e2abcd)" style="fill: none; stroke: #008000; stroke-width: 1.5"/>
   </g>
   <g id="patch_8">
    <path d="M 64.368 329.76 
L 64.368 195.864 
" style="fill: none; stroke: #000000; stroke-width: 0.8; stroke-linejoin: miter; stroke-linecap: square"/>
   </g>
   <g id="patch_9">
    <path d="M 216.464846 329.76 
L 216.464846 195.864 
" style="fill: none; stroke: #000000; stroke-width: 0.8; stroke-linejoin: miter; stroke-linecap: square"/>
   </g>
   <g id="patch_10">
    <path d="M 64.368 329.76 
L 216.464846 329.76 
" style="fill: none; stroke: #000000; stroke-width: 0.8; stroke-linejoin: miter; stroke-linecap: square"/>
   </g>
   <g id="patch_11">
    <path d="M 64.368 195.864 
L 216.464846 195.864 
" style="fill: none; stroke: #000000; stroke-width: 0.8; stroke-linejoin: miter; stroke-linecap: square"/>
   </g>
  </g>
  <g id="axes_4">
   <g id="patch_12">
    <path d="M 233.103154 329.76 
L 385.2 329.76 
L 385.2 195.864 
L 233.103154 195.864 
z
" style="fill: #ffffff"/>
   </g>
   <g id="matplotlib.axis_7">
    <g id="xtick_7">
     <g id="line2d_13">
      <g>
       <use xlink:href="#mfb4beeabb9" x="239.775196" y="329.76" style="stroke: #000000; stroke-width: 0.8"/>
      </g>
     </g>
     <g id="text_12">
      <!-- −1.8 -->
      <g transform="translate(233.141098 359.303448) rotate(-45) scale(0.1 -0.1)">
       <use xlink:href="#DejaVuSans-2212"/>
       <use xlink:href="#DejaVuSans-31" x="83.789062"/>
       <use xlink:href="#DejaVuSans-2e" x="147.412109"/>
       <use xlink:href="#DejaVuSans-38" x="179.199219"/>
      </g>
     </g>
    </g>
    <g id="xtick_8">
     <g id="line2d_14">
      <g>
       <use xlink:href="#mfb4beeabb9" x="272.750108" y="329.76" style="stroke: #000000; stroke-width: 0.8"/>
      </g>
     </g>
     <g id="text_13">
      <!-- −1.5 -->
      <g transform="translate(266.11601 359.303448) rotate(-45) scale(0.1 -0.1)">
       <use xlink:href="#DejaVuSans-2212"/>
       <use xlink:href="#DejaVuSans-31" x="83.789062"/>
       <use xlink:href="#DejaVuSans-2e" x="147.412109"/>
       <use xlink:href="#DejaVuSans-35" x="179.199219"/>
      </g>
     </g>
    </g>
    <g id="xtick_9">
     <g id="line2d_15">
      <g>
       <use xlink:href="#mfb4beeabb9" x="305.725019" y="329.76" style="stroke: #000000; stroke-width: 0.8"/>
      </g>
     </g>
     <g id="text_14">
      <!-- −1.2 -->
      <g transform="translate(299.090921 359.303448) rotate(-45) scale(0.1 -0.1)">
       <use xlink:href="#DejaVuSans-2212"/>
       <use xlink:href="#DejaVuSans-31" x="83.789062"/>
       <use xlink:href="#DejaVuSans-2e" x="147.412109"/>
       <use xlink:href="#DejaVuSans-32" x="179.199219"/>
      </g>
     </g>
    </g>
    <g id="xtick_10">
     <g id="line2d_16">
      <g>
       <use xlink:href="#mfb4beeabb9" x="338.69993" y="329.76" style="stroke: #000000; stroke-width: 0.8"/>
      </g>
     </g>
     <g id="text_15">
      <!-- −0.9 -->
      <g transform="translate(332.065832 359.303448) rotate(-45) scale(0.1 -0.1)">
       <use xlink:href="#DejaVuSans-2212"/>
       <use xlink:href="#DejaVuSans-30" x="83.789062"/>
       <use xlink:href="#DejaVuSans-2e" x="147.412109"/>
       <use xlink:href="#DejaVuSans-39" x="179.199219"/>
      </g>
     </g>
    </g>
    <g id="xtick_11">
     <g id="line2d_17">
      <g>
       <use xlink:href="#mfb4beeabb9" x="371.674842" y="329.76" style="stroke: #000000; stroke-width: 0.8"/>
      </g>
     </g>
     <g id="text_16">
      <!-- −0.6 -->
      <g transform="translate(365.040744 359.303448) rotate(-45) scale(0.1 -0.1)">
       <use xlink:href="#DejaVuSans-2212"/>
       <use xlink:href="#DejaVuSans-30" x="83.789062"/>
       <use xlink:href="#DejaVuSans-2e" x="147.412109"/>
       <use xlink:href="#DejaVuSans-36" x="179.199219"/>
      </g>
     </g>
    </g>
    <g id="text_17">
     <!-- $w_{IDM}$ -->
     <g transform="translate(298.151577 377.527238) scale(0.1 -0.1)">
      <use xlink:href="#DejaVuSans-Oblique-77" transform="translate(0 0.3125)"/>
      <use xlink:href="#DejaVuSans-Oblique-49" transform="translate(81.787109 -16.09375) scale(0.7)"/>
      <use xlink:href="#DejaVuSans-Oblique-44" transform="translate(102.431641 -16.09375) scale(0.7)"/>
      <use xlink:href="#DejaVuSans-Oblique-4d" transform="translate(156.333008 -16.09375) scale(0.7)"/>
     </g>
    </g>
   </g>
   <g id="matplotlib.axis_8"/>
   <g id="line2d_18">
    <path d="M 233.103154 329.76 
L 246.031386 329.676912 
L 246.031386 329.593824 
L 255.157197 329.510737 
L 255.157197 329.427649 
L 258.199134 329.344561 
L 258.199134 329.261473 
L 259.720102 329.178385 
L 259.720102 329.095298 
L 262.001555 329.01221 
L 262.001555 328.929122 
L 263.522523 328.846034 
L 263.522523 328.762946 
L 265.043492 328.679859 
L 265.043492 328.596771 
L 265.803976 328.596771 
L 265.803976 328.430595 
L 267.324944 328.347507 
L 267.324944 328.264419 
L 268.085429 328.264419 
L 268.085429 328.098244 
L 269.606397 328.015156 
L 269.606397 327.84898 
L 271.127366 327.765893 
L 271.127366 327.599717 
L 271.88785 327.599717 
L 271.88785 327.433541 
L 272.648334 327.433541 
L 272.648334 327.267366 
L 273.408818 327.267366 
L 273.408818 327.10119 
L 274.169303 327.10119 
L 274.169303 326.851927 
L 274.929787 326.851927 
L 274.929787 326.602663 
L 275.690271 326.602663 
L 275.690271 326.3534 
L 276.450755 326.3534 
L 276.450755 326.104137 
L 277.211239 326.104137 
L 277.211239 325.854873 
L 277.971724 325.854873 
L 277.971724 325.688697 
L 278.732208 325.688697 
L 278.732208 325.439434 
L 279.492692 325.439434 
L 279.492692 325.107083 
L 280.253176 325.107083 
L 280.253176 324.857819 
L 281.013661 324.857819 
L 281.013661 324.525468 
L 281.774145 324.525468 
L 281.774145 324.193117 
L 282.534629 324.193117 
L 282.534629 323.860766 
L 283.295113 323.860766 
L 283.295113 323.445327 
L 284.055597 323.445327 
L 284.055597 323.029888 
L 284.816082 323.029888 
L 284.816082 322.614449 
L 285.576566 322.614449 
L 285.576566 322.115922 
L 286.33705 322.115922 
L 286.33705 321.617395 
L 287.097534 321.617395 
L 287.097534 321.118868 
L 287.858019 321.118868 
L 287.858019 320.537253 
L 288.618503 320.537253 
L 288.618503 320.038727 
L 289.378987 320.038727 
L 289.378987 319.457112 
L 290.139471 319.457112 
L 290.139471 318.958585 
L 290.899956 318.958585 
L 290.899956 318.460058 
L 291.66044 318.460058 
L 291.66044 317.961531 
L 292.420924 317.961531 
L 292.420924 317.379917 
L 293.181408 317.379917 
L 293.181408 316.88139 
L 293.941892 316.88139 
L 293.941892 316.299775 
L 294.702377 316.299775 
L 294.702377 315.635073 
L 295.462861 315.635073 
L 295.462861 314.887283 
L 296.223345 314.887283 
L 296.223345 314.056405 
L 296.983829 314.056405 
L 296.983829 313.225527 
L 297.744314 313.225527 
L 297.744314 312.228473 
L 298.504798 312.228473 
L 298.504798 311.231419 
L 299.265282 311.231419 
L 299.265282 310.234365 
L 300.025766 310.234365 
L 300.025766 309.071136 
L 300.786251 309.071136 
L 300.786251 307.990995 
L 301.546735 307.990995 
L 301.546735 306.744678 
L 302.307219 306.744678 
L 302.307219 305.498361 
L 303.067703 305.498361 
L 303.067703 304.168956 
L 303.828187 304.168956 
L 303.828187 302.756463 
L 304.588672 302.756463 
L 304.588672 301.260882 
L 305.349156 301.260882 
L 305.349156 299.682214 
L 306.10964 299.682214 
L 306.10964 298.103546 
L 306.870124 298.103546 
L 306.870124 296.358702 
L 307.630609 296.358702 
L 307.630609 294.696946 
L 308.391093 294.696946 
L 308.391093 293.03519 
L 309.151577 293.03519 
L 309.151577 291.373433 
L 309.912061 291.373433 
L 309.912061 289.711677 
L 310.672546 289.711677 
L 310.672546 288.133009 
L 311.43303 288.133009 
L 311.43303 286.637428 
L 312.193514 286.637428 
L 312.193514 285.05876 
L 312.953998 285.05876 
L 312.953998 283.56318 
L 313.714482 283.56318 
L 313.714482 281.984511 
L 314.474967 281.984511 
L 314.474967 280.322755 
L 315.235451 280.322755 
L 315.235451 278.577911 
L 315.995935 278.577911 
L 315.995935 276.666892 
L 316.756419 276.666892 
L 316.756419 274.589697 
L 317.516904 274.589697 
L 317.516904 272.346326 
L 318.277388 272.346326 
L 318.277388 270.019867 
L 319.037872 270.019867 
L 319.037872 267.527233 
L 319.798356 267.527233 
L 319.798356 265.034599 
L 320.558841 265.034599 
L 320.558841 262.541965 
L 321.319325 262.541965 
L 321.319325 260.04933 
L 322.079809 260.04933 
L 322.079809 257.473608 
L 322.840293 257.473608 
L 322.840293 254.897886 
L 323.600777 254.897886 
L 323.600777 252.322164 
L 324.361262 252.322164 
L 324.361262 249.663355 
L 325.121746 249.663355 
L 325.121746 246.921457 
L 325.88223 246.921457 
L 325.88223 244.262647 
L 326.642714 244.262647 
L 326.642714 241.52075 
L 327.403199 241.52075 
L 327.403199 238.86194 
L 328.163683 238.86194 
L 328.163683 236.369306 
L 328.924167 236.369306 
L 328.924167 233.959759 
L 329.684651 233.959759 
L 329.684651 231.633301 
L 330.445135 231.633301 
L 330.445135 229.473018 
L 331.20562 229.473018 
L 331.20562 227.395823 
L 331.966104 227.395823 
L 331.966104 225.401715 
L 332.726588 225.401715 
L 332.726588 223.573783 
L 333.487072 223.573783 
L 333.487072 221.745852 
L 334.247557 221.745852 
L 334.247557 220.084096 
L 335.008041 220.084096 
L 335.008041 218.422339 
L 335.768525 218.422339 
L 335.768525 216.843671 
L 336.529009 216.843671 
L 336.529009 215.348091 
L 337.289494 215.348091 
L 337.289494 213.85251 
L 338.049978 213.85251 
L 338.049978 212.523105 
L 338.810462 212.523105 
L 338.810462 211.1937 
L 339.570946 211.1937 
L 339.570946 210.113559 
L 340.33143 210.113559 
L 340.33143 209.199593 
L 341.091915 209.199593 
L 341.091915 208.53489 
L 341.852399 208.53489 
L 341.852399 208.119451 
L 344.133852 208.202539 
L 344.133852 208.53489 
L 344.894336 208.53489 
L 344.894336 209.116505 
L 345.65482 209.116505 
L 345.65482 209.69812 
L 346.415304 209.69812 
L 346.415304 210.44591 
L 347.175789 210.44591 
L 347.175789 211.276788 
L 347.936273 211.276788 
L 347.936273 212.107666 
L 348.696757 212.107666 
L 348.696757 213.021632 
L 349.457241 213.021632 
L 349.457241 214.184861 
L 350.217725 214.184861 
L 350.217725 215.514266 
L 350.97821 215.514266 
L 350.97821 217.176022 
L 351.738694 217.176022 
L 351.738694 219.17013 
L 352.499178 219.17013 
L 352.499178 221.496588 
L 353.259662 221.496588 
L 353.259662 224.155398 
L 354.020147 224.155398 
L 354.020147 227.063471 
L 354.780631 227.063471 
L 354.780631 230.220808 
L 355.541115 230.220808 
L 355.541115 233.461232 
L 356.301599 233.461232 
L 356.301599 236.701657 
L 357.062084 236.701657 
L 357.062084 240.025169 
L 357.822568 240.025169 
L 357.822568 243.182506 
L 358.583052 243.182506 
L 358.583052 246.339842 
L 359.343536 246.339842 
L 359.343536 249.497179 
L 360.10402 249.497179 
L 360.10402 252.48834 
L 360.864505 252.48834 
L 360.864505 255.562589 
L 361.624989 255.562589 
L 361.624989 258.636838 
L 362.385473 258.636838 
L 362.385473 261.794174 
L 363.145957 261.794174 
L 363.145957 265.034599 
L 363.906442 265.034599 
L 363.906442 268.275023 
L 364.666926 268.275023 
L 364.666926 271.598536 
L 365.42741 271.598536 
L 365.42741 274.922048 
L 366.187894 274.922048 
L 366.187894 278.162472 
L 366.948378 278.162472 
L 366.948378 281.319809 
L 367.708863 281.319809 
L 367.708863 284.394058 
L 368.469347 284.394058 
L 368.469347 287.385219 
L 369.229831 287.385219 
L 369.229831 290.127116 
L 369.990315 290.127116 
L 369.990315 292.869014 
L 370.7508 292.869014 
L 370.7508 295.444736 
L 371.511284 295.444736 
L 371.511284 297.854282 
L 372.271768 297.854282 
L 372.271768 300.346917 
L 373.032252 300.346917 
L 373.032252 302.673375 
L 373.792737 302.673375 
L 373.792737 304.999834 
L 374.553221 304.999834 
L 374.553221 307.326292 
L 375.313705 307.326292 
L 375.313705 309.569663 
L 376.074189 309.569663 
L 376.074189 311.813034 
L 376.834673 311.813034 
L 376.834673 313.973317 
L 377.595158 313.973317 
L 377.595158 316.050512 
L 378.355642 316.050512 
L 378.355642 318.044619 
L 379.116126 318.044619 
L 379.116126 319.872551 
L 379.87661 319.872551 
L 379.87661 321.534307 
L 380.637095 321.534307 
L 380.637095 323.029888 
L 381.397579 323.029888 
L 381.397579 324.359293 
L 382.158063 324.359293 
L 382.158063 325.439434 
L 382.918547 325.439434 
L 382.918547 326.270312 
L 383.679032 326.270312 
L 383.679032 326.768839 
L 384.439516 326.768839 
L 384.439516 327.10119 
L 385.2 327.10119 
L 385.2 327.10119 
" clip-path="url(#p5ada3ce648)" style="fill: none; stroke: #008000; stroke-width: 1.5; stroke-linecap: square"/>
   </g>
   <g id="patch_13">
    <path d="M 233.103154 329.76 
L 233.103154 195.864 
" style="fill: none; stroke: #000000; stroke-width: 0.8; stroke-linejoin: miter; stroke-linecap: square"/>
   </g>
   <g id="patch_14">
    <path d="M 385.2 329.76 
L 385.2 195.864 
" style="fill: none; stroke: #000000; stroke-width: 0.8; stroke-linejoin: miter; stroke-linecap: square"/>
   </g>
   <g id="patch_15">
    <path d="M 233.103154 329.76 
L 385.2 329.76 
" style="fill: none; stroke: #000000; stroke-width: 0.8; stroke-linejoin: miter; stroke-linecap: square"/>
   </g>
   <g id="patch_16">
    <path d="M 233.103154 195.864 
L 385.2 195.864 
" style="fill: none; stroke: #000000; stroke-width: 0.8; stroke-linejoin: miter; stroke-linecap: square"/>
   </g>
   <g id="text_18">
    <!-- $w_{IDM}$ = ${-0.8854}_{-0.1970}^{+0.1634}$ -->
    <g transform="translate(231.731577 189.864) scale(0.14 -0.14)">
     <defs>
      <path id="DejaVuSans-37" d="M 525 4666 
L 3525 4666 
L 3525 4397 
L 1831 0 
L 1172 0 
L 2766 4134 
L 525 4134 
L 525 4666 
z
" transform="scale(0.015625)"/>
     </defs>
     <use xlink:href="#DejaVuSans-Oblique-77" transform="translate(0 0.765625)"/>
     <use xlink:href="#DejaVuSans-Oblique-49" transform="translate(81.787109 -15.640625) scale(0.7)"/>
     <use xlink:href="#DejaVuSans-Oblique-44" transform="translate(102.431641 -15.640625) scale(0.7)"/>
     <use xlink:href="#DejaVuSans-Oblique-4d" transform="translate(156.333008 -15.640625) scale(0.7)"/>
     <use xlink:href="#DejaVuSans-20" transform="translate(219.462891 0.765625)"/>
     <use xlink:href="#DejaVuSans-3d" transform="translate(251.25 0.765625)"/>
     <use xlink:href="#DejaVuSans-20" transform="translate(335.039062 0.765625)"/>
     <use xlink:href="#DejaVuSans-2212" transform="translate(366.826172 0.765625)"/>
     <use xlink:href="#DejaVuSans-30" transform="translate(450.615234 0.765625)"/>
     <use xlink:href="#DejaVuSans-2e" transform="translate(514.238281 0.765625)"/>
     <use xlink:href="#DejaVuSans-38" transform="translate(543.400391 0.765625)"/>
     <use xlink:href="#DejaVuSans-38" transform="translate(607.023438 0.765625)"/>
     <use xlink:href="#DejaVuSans-35" transform="translate(670.646484 0.765625)"/>
     <use xlink:href="#DejaVuSans-34" transform="translate(734.269531 0.765625)"/>
     <use xlink:href="#DejaVuSans-2b" transform="translate(798.849609 39.046875) scale(0.7)"/>
     <use xlink:href="#DejaVuSans-30" transform="translate(857.501953 39.046875) scale(0.7)"/>
     <use xlink:href="#DejaVuSans-2e" transform="translate(902.038086 39.046875) scale(0.7)"/>
     <use xlink:href="#DejaVuSans-31" transform="translate(924.289062 39.046875) scale(0.7)"/>
     <use xlink:href="#DejaVuSans-36" transform="translate(968.825195 39.046875) scale(0.7)"/>
     <use xlink:href="#DejaVuSans-33" transform="translate(1013.361328 39.046875) scale(0.7)"/>
     <use xlink:href="#DejaVuSans-34" transform="translate(1057.897461 39.046875) scale(0.7)"/>
     <use xlink:href="#DejaVuSans-2212" transform="translate(798.849609 -26.578125) scale(0.7)"/>
     <use xlink:href="#DejaVuSans-30" transform="translate(857.501953 -26.578125) scale(0.7)"/>
     <use xlink:href="#DejaVuSans-2e" transform="translate(902.038086 -26.578125) scale(0.7)"/>
     <use xlink:href="#DejaVuSans-31" transform="translate(924.289062 -26.578125) scale(0.7)"/>
     <use xlink:href="#DejaVuSans-39" transform="translate(968.825195 -26.578125) scale(0.7)"/>
     <use xlink:href="#DejaVuSans-37" transform="translate(1013.361328 -26.578125) scale(0.7)"/>
     <use xlink:href="#DejaVuSans-30" transform="translate(1057.897461 -26.578125) scale(0.7)"/>
    </g>
   </g>
  </g>
 </g>
 <defs>
  <clipPath id="pa8f1ca4ea2">
   <rect x="64.368" y="30.984" width="152.096846" height="133.896"/>
  </clipPath>
  <clipPath id="p67d4e2abcd">
   <rect x="64.368" y="195.864" width="152.096846" height="133.896"/>
  </clipPath>
  <clipPath id="p5ada3ce648">
   <rect x="233.103154" y="195.864" width="152.096846" height="133.896"/>
  </clipPath>
 </defs>
</svg>
